<?xml version="1.0" encoding="utf-8" standalone="no"?>
<!DOCTYPE svg PUBLIC "-//W3C//DTD SVG 1.1//EN"
  "http://www.w3.org/Graphics/SVG/1.1/DTD/svg11.dtd">
<svg xmlns:xlink="http://www.w3.org/1999/xlink" width="867.7pt" height="253.629875pt" viewBox="0 0 867.7 253.629875" xmlns="http://www.w3.org/2000/svg" version="1.1">
 <metadata>
  <rdf:RDF xmlns:dc="http://purl.org/dc/elements/1.1/" xmlns:cc="http://creativecommons.org/ns#" xmlns:rdf="http://www.w3.org/1999/02/22-rdf-syntax-ns#">
   <cc:Work>
    <dc:type rdf:resource="http://purl.org/dc/dcmitype/StillImage"/>
    <dc:date>2025-08-06T16:27:21.002747</dc:date>
    <dc:format>image/svg+xml</dc:format>
    <dc:creator>
     <cc:Agent>
      <dc:title>Matplotlib v3.9.2, https://matplotlib.org/</dc:title>
     </cc:Agent>
    </dc:creator>
   </cc:Work>
  </rdf:RDF>
 </metadata>
 <defs>
  <style type="text/css">*{stroke-linejoin: round; stroke-linecap: butt}</style>
 </defs>
 <g id="figure_1">
  <g id="patch_1">
   <path d="M 0 253.629875 
L 867.7 253.629875 
L 867.7 0 
L 0 0 
z
" style="fill: #ffffff"/>
  </g>
  <g id="axes_1">
   <g id="patch_2">
    <path d="M 30.7 238.70175 
L 867.7 238.70175 
L 867.7 16.94175 
L 30.7 16.94175 
z
" style="fill: #ffffff"/>
   </g>
   <g id="matplotlib.axis_1">
    <g id="xtick_1">
     <g id="line2d_1">
      <defs>
       <path id="m8fa7522dd5" d="M 0 1.75 
L 0 -1.75 
" style="stroke: #000000; stroke-width: 0.8"/>
      </defs>
      <g>
       <use xlink:href="#m8fa7522dd5" x="86.177701" y="238.70175" style="stroke: #000000; stroke-width: 0.8"/>
      </g>
     </g>
     <g id="text_1">
      <!-- 1992 -->
      <g transform="translate(73.452701 251.550188) scale(0.1 -0.1)">
       <defs>
        <path id="DejaVuSans-31" d="M 794 531 
L 1825 531 
L 1825 4091 
L 703 3866 
L 703 4441 
L 1819 4666 
L 2450 4666 
L 2450 531 
L 3481 531 
L 3481 0 
L 794 0 
L 794 531 
z
" transform="scale(0.015625)"/>
        <path id="DejaVuSans-39" d="M 703 97 
L 703 672 
Q 941 559 1184 500 
Q 1428 441 1663 441 
Q 2288 441 2617 861 
Q 2947 1281 2994 2138 
Q 2813 1869 2534 1725 
Q 2256 1581 1919 1581 
Q 1219 1581 811 2004 
Q 403 2428 403 3163 
Q 403 3881 828 4315 
Q 1253 4750 1959 4750 
Q 2769 4750 3195 4129 
Q 3622 3509 3622 2328 
Q 3622 1225 3098 567 
Q 2575 -91 1691 -91 
Q 1453 -91 1209 -44 
Q 966 3 703 97 
z
M 1959 2075 
Q 2384 2075 2632 2365 
Q 2881 2656 2881 3163 
Q 2881 3666 2632 3958 
Q 2384 4250 1959 4250 
Q 1534 4250 1286 3958 
Q 1038 3666 1038 3163 
Q 1038 2656 1286 2365 
Q 1534 2075 1959 2075 
z
" transform="scale(0.015625)"/>
        <path id="DejaVuSans-32" d="M 1228 531 
L 3431 531 
L 3431 0 
L 469 0 
L 469 531 
Q 828 903 1448 1529 
Q 2069 2156 2228 2338 
Q 2531 2678 2651 2914 
Q 2772 3150 2772 3378 
Q 2772 3750 2511 3984 
Q 2250 4219 1831 4219 
Q 1534 4219 1204 4116 
Q 875 4013 500 3803 
L 500 4441 
Q 881 4594 1212 4672 
Q 1544 4750 1819 4750 
Q 2544 4750 2975 4387 
Q 3406 4025 3406 3419 
Q 3406 3131 3298 2873 
Q 3191 2616 2906 2266 
Q 2828 2175 2409 1742 
Q 1991 1309 1228 531 
z
" transform="scale(0.015625)"/>
       </defs>
       <use xlink:href="#DejaVuSans-31"/>
       <use xlink:href="#DejaVuSans-39" x="63.623047"/>
       <use xlink:href="#DejaVuSans-39" x="127.246094"/>
       <use xlink:href="#DejaVuSans-32" x="190.869141"/>
      </g>
     </g>
    </g>
    <g id="xtick_2">
     <g id="line2d_2">
      <g>
       <use xlink:href="#m8fa7522dd5" x="201.967588" y="238.70175" style="stroke: #000000; stroke-width: 0.8"/>
      </g>
     </g>
     <g id="text_2">
      <!-- 1996 -->
      <g transform="translate(189.242588 251.550188) scale(0.1 -0.1)">
       <defs>
        <path id="DejaVuSans-36" d="M 2113 2584 
Q 1688 2584 1439 2293 
Q 1191 2003 1191 1497 
Q 1191 994 1439 701 
Q 1688 409 2113 409 
Q 2538 409 2786 701 
Q 3034 994 3034 1497 
Q 3034 2003 2786 2293 
Q 2538 2584 2113 2584 
z
M 3366 4563 
L 3366 3988 
Q 3128 4100 2886 4159 
Q 2644 4219 2406 4219 
Q 1781 4219 1451 3797 
Q 1122 3375 1075 2522 
Q 1259 2794 1537 2939 
Q 1816 3084 2150 3084 
Q 2853 3084 3261 2657 
Q 3669 2231 3669 1497 
Q 3669 778 3244 343 
Q 2819 -91 2113 -91 
Q 1303 -91 875 529 
Q 447 1150 447 2328 
Q 447 3434 972 4092 
Q 1497 4750 2381 4750 
Q 2619 4750 2861 4703 
Q 3103 4656 3366 4563 
z
" transform="scale(0.015625)"/>
       </defs>
       <use xlink:href="#DejaVuSans-31"/>
       <use xlink:href="#DejaVuSans-39" x="63.623047"/>
       <use xlink:href="#DejaVuSans-39" x="127.246094"/>
       <use xlink:href="#DejaVuSans-36" x="190.869141"/>
      </g>
     </g>
    </g>
    <g id="xtick_3">
     <g id="line2d_3">
      <g>
       <use xlink:href="#m8fa7522dd5" x="317.757476" y="238.70175" style="stroke: #000000; stroke-width: 0.8"/>
      </g>
     </g>
     <g id="text_3">
      <!-- 2000 -->
      <g transform="translate(305.032476 251.550188) scale(0.1 -0.1)">
       <defs>
        <path id="DejaVuSans-30" d="M 2034 4250 
Q 1547 4250 1301 3770 
Q 1056 3291 1056 2328 
Q 1056 1369 1301 889 
Q 1547 409 2034 409 
Q 2525 409 2770 889 
Q 3016 1369 3016 2328 
Q 3016 3291 2770 3770 
Q 2525 4250 2034 4250 
z
M 2034 4750 
Q 2819 4750 3233 4129 
Q 3647 3509 3647 2328 
Q 3647 1150 3233 529 
Q 2819 -91 2034 -91 
Q 1250 -91 836 529 
Q 422 1150 422 2328 
Q 422 3509 836 4129 
Q 1250 4750 2034 4750 
z
" transform="scale(0.015625)"/>
       </defs>
       <use xlink:href="#DejaVuSans-32"/>
       <use xlink:href="#DejaVuSans-30" x="63.623047"/>
       <use xlink:href="#DejaVuSans-30" x="127.246094"/>
       <use xlink:href="#DejaVuSans-30" x="190.869141"/>
      </g>
     </g>
    </g>
    <g id="xtick_4">
     <g id="line2d_4">
      <g>
       <use xlink:href="#m8fa7522dd5" x="433.547363" y="238.70175" style="stroke: #000000; stroke-width: 0.8"/>
      </g>
     </g>
     <g id="text_4">
      <!-- 2004 -->
      <g transform="translate(420.822363 251.550188) scale(0.1 -0.1)">
       <defs>
        <path id="DejaVuSans-34" d="M 2419 4116 
L 825 1625 
L 2419 1625 
L 2419 4116 
z
M 2253 4666 
L 3047 4666 
L 3047 1625 
L 3713 1625 
L 3713 1100 
L 3047 1100 
L 3047 0 
L 2419 0 
L 2419 1100 
L 313 1100 
L 313 1709 
L 2253 4666 
z
" transform="scale(0.015625)"/>
       </defs>
       <use xlink:href="#DejaVuSans-32"/>
       <use xlink:href="#DejaVuSans-30" x="63.623047"/>
       <use xlink:href="#DejaVuSans-30" x="127.246094"/>
       <use xlink:href="#DejaVuSans-34" x="190.869141"/>
      </g>
     </g>
    </g>
    <g id="xtick_5">
     <g id="line2d_5">
      <g>
       <use xlink:href="#m8fa7522dd5" x="549.33725" y="238.70175" style="stroke: #000000; stroke-width: 0.8"/>
      </g>
     </g>
     <g id="text_5">
      <!-- 2008 -->
      <g transform="translate(536.61225 251.550188) scale(0.1 -0.1)">
       <defs>
        <path id="DejaVuSans-38" d="M 2034 2216 
Q 1584 2216 1326 1975 
Q 1069 1734 1069 1313 
Q 1069 891 1326 650 
Q 1584 409 2034 409 
Q 2484 409 2743 651 
Q 3003 894 3003 1313 
Q 3003 1734 2745 1975 
Q 2488 2216 2034 2216 
z
M 1403 2484 
Q 997 2584 770 2862 
Q 544 3141 544 3541 
Q 544 4100 942 4425 
Q 1341 4750 2034 4750 
Q 2731 4750 3128 4425 
Q 3525 4100 3525 3541 
Q 3525 3141 3298 2862 
Q 3072 2584 2669 2484 
Q 3125 2378 3379 2068 
Q 3634 1759 3634 1313 
Q 3634 634 3220 271 
Q 2806 -91 2034 -91 
Q 1263 -91 848 271 
Q 434 634 434 1313 
Q 434 1759 690 2068 
Q 947 2378 1403 2484 
z
M 1172 3481 
Q 1172 3119 1398 2916 
Q 1625 2713 2034 2713 
Q 2441 2713 2670 2916 
Q 2900 3119 2900 3481 
Q 2900 3844 2670 4047 
Q 2441 4250 2034 4250 
Q 1625 4250 1398 4047 
Q 1172 3844 1172 3481 
z
" transform="scale(0.015625)"/>
       </defs>
       <use xlink:href="#DejaVuSans-32"/>
       <use xlink:href="#DejaVuSans-30" x="63.623047"/>
       <use xlink:href="#DejaVuSans-30" x="127.246094"/>
       <use xlink:href="#DejaVuSans-38" x="190.869141"/>
      </g>
     </g>
    </g>
    <g id="xtick_6">
     <g id="line2d_6">
      <g>
       <use xlink:href="#m8fa7522dd5" x="665.127138" y="238.70175" style="stroke: #000000; stroke-width: 0.8"/>
      </g>
     </g>
     <g id="text_6">
      <!-- 2012 -->
      <g transform="translate(652.402138 251.550188) scale(0.1 -0.1)">
       <use xlink:href="#DejaVuSans-32"/>
       <use xlink:href="#DejaVuSans-30" x="63.623047"/>
       <use xlink:href="#DejaVuSans-31" x="127.246094"/>
       <use xlink:href="#DejaVuSans-32" x="190.869141"/>
      </g>
     </g>
    </g>
    <g id="xtick_7">
     <g id="line2d_7">
      <g>
       <use xlink:href="#m8fa7522dd5" x="780.917025" y="238.70175" style="stroke: #000000; stroke-width: 0.8"/>
      </g>
     </g>
     <g id="text_7">
      <!-- 2016 -->
      <g transform="translate(768.192025 251.550188) scale(0.1 -0.1)">
       <use xlink:href="#DejaVuSans-32"/>
       <use xlink:href="#DejaVuSans-30" x="63.623047"/>
       <use xlink:href="#DejaVuSans-31" x="127.246094"/>
       <use xlink:href="#DejaVuSans-36" x="190.869141"/>
      </g>
     </g>
    </g>
   </g>
   <g id="matplotlib.axis_2">
    <g id="ytick_1">
     <g id="line2d_8">
      <path d="M 30.7 212.258317 
L 867.7 212.258317 
" clip-path="url(#pc48e7b082e)" style="fill: none; stroke-dasharray: 1.85,0.8; stroke-dashoffset: 0; stroke: #b2b2b2; stroke-width: 0.5"/>
     </g>
     <g id="line2d_9">
      <defs>
       <path id="m863c1bf2a8" d="M 1.75 0 
L -1.75 -0 
" style="stroke: #000000; stroke-width: 0.8"/>
      </defs>
      <g>
       <use xlink:href="#m863c1bf2a8" x="30.7" y="212.258317" style="stroke: #000000; stroke-width: 0.8"/>
      </g>
     </g>
     <g id="text_8">
      <!-- 250 -->
      <g transform="translate(6.3625 216.057536) scale(0.1 -0.1)">
       <defs>
        <path id="DejaVuSans-35" d="M 691 4666 
L 3169 4666 
L 3169 4134 
L 1269 4134 
L 1269 2991 
Q 1406 3038 1543 3061 
Q 1681 3084 1819 3084 
Q 2600 3084 3056 2656 
Q 3513 2228 3513 1497 
Q 3513 744 3044 326 
Q 2575 -91 1722 -91 
Q 1428 -91 1123 -41 
Q 819 9 494 109 
L 494 744 
Q 775 591 1075 516 
Q 1375 441 1709 441 
Q 2250 441 2565 725 
Q 2881 1009 2881 1497 
Q 2881 1984 2565 2268 
Q 2250 2553 1709 2553 
Q 1456 2553 1204 2497 
Q 953 2441 691 2322 
L 691 4666 
z
" transform="scale(0.015625)"/>
       </defs>
       <use xlink:href="#DejaVuSans-32"/>
       <use xlink:href="#DejaVuSans-35" x="63.623047"/>
       <use xlink:href="#DejaVuSans-30" x="127.246094"/>
      </g>
     </g>
    </g>
    <g id="ytick_2">
     <g id="line2d_10">
      <path d="M 30.7 185.164344 
L 867.7 185.164344 
" clip-path="url(#pc48e7b082e)" style="fill: none; stroke-dasharray: 1.85,0.8; stroke-dashoffset: 0; stroke: #b2b2b2; stroke-width: 0.5"/>
     </g>
     <g id="line2d_11">
      <g>
       <use xlink:href="#m863c1bf2a8" x="30.7" y="185.164344" style="stroke: #000000; stroke-width: 0.8"/>
      </g>
     </g>
     <g id="text_9">
      <!-- 500 -->
      <g transform="translate(6.3625 188.963563) scale(0.1 -0.1)">
       <use xlink:href="#DejaVuSans-35"/>
       <use xlink:href="#DejaVuSans-30" x="63.623047"/>
       <use xlink:href="#DejaVuSans-30" x="127.246094"/>
      </g>
     </g>
    </g>
    <g id="ytick_3">
     <g id="line2d_12">
      <path d="M 30.7 158.070371 
L 867.7 158.070371 
" clip-path="url(#pc48e7b082e)" style="fill: none; stroke-dasharray: 1.85,0.8; stroke-dashoffset: 0; stroke: #b2b2b2; stroke-width: 0.5"/>
     </g>
     <g id="line2d_13">
      <g>
       <use xlink:href="#m863c1bf2a8" x="30.7" y="158.070371" style="stroke: #000000; stroke-width: 0.8"/>
      </g>
     </g>
     <g id="text_10">
      <!-- 750 -->
      <g transform="translate(6.3625 161.86959) scale(0.1 -0.1)">
       <defs>
        <path id="DejaVuSans-37" d="M 525 4666 
L 3525 4666 
L 3525 4397 
L 1831 0 
L 1172 0 
L 2766 4134 
L 525 4134 
L 525 4666 
z
" transform="scale(0.015625)"/>
       </defs>
       <use xlink:href="#DejaVuSans-37"/>
       <use xlink:href="#DejaVuSans-35" x="63.623047"/>
       <use xlink:href="#DejaVuSans-30" x="127.246094"/>
      </g>
     </g>
    </g>
    <g id="ytick_4">
     <g id="line2d_14">
      <path d="M 30.7 130.976398 
L 867.7 130.976398 
" clip-path="url(#pc48e7b082e)" style="fill: none; stroke-dasharray: 1.85,0.8; stroke-dashoffset: 0; stroke: #b2b2b2; stroke-width: 0.5"/>
     </g>
     <g id="line2d_15">
      <g>
       <use xlink:href="#m863c1bf2a8" x="30.7" y="130.976398" style="stroke: #000000; stroke-width: 0.8"/>
      </g>
     </g>
     <g id="text_11">
      <!-- 1000 -->
      <g transform="translate(0 134.775617) scale(0.1 -0.1)">
       <use xlink:href="#DejaVuSans-31"/>
       <use xlink:href="#DejaVuSans-30" x="63.623047"/>
       <use xlink:href="#DejaVuSans-30" x="127.246094"/>
       <use xlink:href="#DejaVuSans-30" x="190.869141"/>
      </g>
     </g>
    </g>
    <g id="ytick_5">
     <g id="line2d_16">
      <path d="M 30.7 103.882425 
L 867.7 103.882425 
" clip-path="url(#pc48e7b082e)" style="fill: none; stroke-dasharray: 1.85,0.8; stroke-dashoffset: 0; stroke: #b2b2b2; stroke-width: 0.5"/>
     </g>
     <g id="line2d_17">
      <g>
       <use xlink:href="#m863c1bf2a8" x="30.7" y="103.882425" style="stroke: #000000; stroke-width: 0.8"/>
      </g>
     </g>
     <g id="text_12">
      <!-- 1250 -->
      <g transform="translate(0 107.681644) scale(0.1 -0.1)">
       <use xlink:href="#DejaVuSans-31"/>
       <use xlink:href="#DejaVuSans-32" x="63.623047"/>
       <use xlink:href="#DejaVuSans-35" x="127.246094"/>
       <use xlink:href="#DejaVuSans-30" x="190.869141"/>
      </g>
     </g>
    </g>
    <g id="ytick_6">
     <g id="line2d_18">
      <path d="M 30.7 76.788452 
L 867.7 76.788452 
" clip-path="url(#pc48e7b082e)" style="fill: none; stroke-dasharray: 1.85,0.8; stroke-dashoffset: 0; stroke: #b2b2b2; stroke-width: 0.5"/>
     </g>
     <g id="line2d_19">
      <g>
       <use xlink:href="#m863c1bf2a8" x="30.7" y="76.788452" style="stroke: #000000; stroke-width: 0.8"/>
      </g>
     </g>
     <g id="text_13">
      <!-- 1500 -->
      <g transform="translate(0 80.58767) scale(0.1 -0.1)">
       <use xlink:href="#DejaVuSans-31"/>
       <use xlink:href="#DejaVuSans-35" x="63.623047"/>
       <use xlink:href="#DejaVuSans-30" x="127.246094"/>
       <use xlink:href="#DejaVuSans-30" x="190.869141"/>
      </g>
     </g>
    </g>
    <g id="ytick_7">
     <g id="line2d_20">
      <path d="M 30.7 49.694479 
L 867.7 49.694479 
" clip-path="url(#pc48e7b082e)" style="fill: none; stroke-dasharray: 1.85,0.8; stroke-dashoffset: 0; stroke: #b2b2b2; stroke-width: 0.5"/>
     </g>
     <g id="line2d_21">
      <g>
       <use xlink:href="#m863c1bf2a8" x="30.7" y="49.694479" style="stroke: #000000; stroke-width: 0.8"/>
      </g>
     </g>
     <g id="text_14">
      <!-- 1750 -->
      <g transform="translate(0 53.493697) scale(0.1 -0.1)">
       <use xlink:href="#DejaVuSans-31"/>
       <use xlink:href="#DejaVuSans-37" x="63.623047"/>
       <use xlink:href="#DejaVuSans-35" x="127.246094"/>
       <use xlink:href="#DejaVuSans-30" x="190.869141"/>
      </g>
     </g>
    </g>
    <g id="ytick_8">
     <g id="line2d_22">
      <path d="M 30.7 22.600505 
L 867.7 22.600505 
" clip-path="url(#pc48e7b082e)" style="fill: none; stroke-dasharray: 1.85,0.8; stroke-dashoffset: 0; stroke: #b2b2b2; stroke-width: 0.5"/>
     </g>
     <g id="line2d_23">
      <g>
       <use xlink:href="#m863c1bf2a8" x="30.7" y="22.600505" style="stroke: #000000; stroke-width: 0.8"/>
      </g>
     </g>
     <g id="text_15">
      <!-- 2000 -->
      <g transform="translate(0 26.399724) scale(0.1 -0.1)">
       <use xlink:href="#DejaVuSans-32"/>
       <use xlink:href="#DejaVuSans-30" x="63.623047"/>
       <use xlink:href="#DejaVuSans-30" x="127.246094"/>
       <use xlink:href="#DejaVuSans-30" x="190.869141"/>
      </g>
     </g>
    </g>
   </g>
   <g id="line2d_24">
    <path d="M 30.7 228.514701 
L 35.375978 228.100186 
L 37.753593 228.366191 
L 40.210463 227.287149 
L 45.044948 227.202704 
L 47.501818 228.294086 
L 49.879434 228.843596 
L 52.336303 228.784056 
L 54.713919 228.036019 
L 57.170789 227.638216 
L 59.627658 227.107145 
L 61.846766 226.280233 
L 64.303636 225.822021 
L 66.681252 225.791864 
L 69.138121 225.136529 
L 71.515737 225.772344 
L 73.972607 225.09953 
L 76.429476 224.631232 
L 78.807092 224.759279 
L 81.263962 224.497824 
L 83.641578 224.957662 
L 86.098447 223.33312 
L 88.555317 223.562733 
L 90.853679 223.374153 
L 93.310548 223.599881 
L 95.688164 223.21636 
L 98.145034 223.056569 
L 100.522649 223.256242 
L 102.979519 222.625537 
L 105.436389 222.983128 
L 110.270874 222.464817 
L 112.64849 221.804224 
L 115.105359 221.602927 
L 119.781337 221.400452 
L 122.238207 221.06241 
L 124.615822 221.385156 
L 127.072692 220.968454 
L 129.450308 221.017989 
L 131.907177 221.20423 
L 134.364047 220.460107 
L 136.741663 220.65482 
L 139.198532 220.421922 
L 141.576148 220.549654 
L 144.033018 220.306926 
L 146.489887 219.729805 
L 148.708995 220.25251 
L 151.165865 221.059948 
L 156.00035 220.607148 
L 158.377966 221.078582 
L 160.834836 220.484214 
L 163.291705 219.744673 
L 165.669321 220.187937 
L 168.126191 219.717666 
L 170.503806 220.323045 
L 172.960676 220.006328 
L 175.417546 219.41509 
L 177.636654 218.631934 
L 182.471139 217.499717 
L 184.928009 216.370168 
L 187.305624 215.740506 
L 189.762494 214.93625 
L 192.219364 214.879917 
L 194.596979 213.804809 
L 197.053849 213.784155 
L 199.431465 212.731098 
L 201.888334 212.410183 
L 204.345204 211.479038 
L 209.100436 210.834989 
L 211.478051 210.669103 
L 213.934921 210.015198 
L 216.312537 209.917856 
L 218.769406 211.298652 
L 221.226276 210.481238 
L 223.603892 208.865962 
L 226.060761 208.287339 
L 228.438377 205.937439 
L 230.895247 206.77221 
L 233.352116 204.897443 
L 235.571224 204.496835 
L 238.028094 205.70137 
L 240.40571 204.049844 
L 242.862579 201.719833 
L 245.240195 199.933509 
L 247.697065 196.575533 
L 250.153934 199.230281 
L 252.53155 197.426296 
L 254.98842 198.905864 
L 257.366035 197.06686 
L 259.822905 196.439542 
L 262.279775 196.533022 
L 264.498883 193.641938 
L 266.955752 191.341166 
L 269.333368 190.843621 
L 271.790238 192.264233 
L 274.167853 190.608674 
L 276.624723 191.577542 
L 279.081593 198.635435 
L 281.459208 196.133499 
L 283.916078 192.497783 
L 286.293694 190.012303 
L 288.750563 187.275128 
L 291.207433 185.229053 
L 293.426541 186.061559 
L 295.883411 184.470467 
L 298.261026 181.54453 
L 300.717896 183.247685 
L 303.095512 180.07598 
L 305.552381 181.879876 
L 308.009251 182.232376 
L 310.386867 184.858734 
L 312.843736 181.28025 
L 315.221352 180.604197 
L 317.678222 177.084996 
L 320.135091 179.57881 
L 322.433453 181.294023 
L 324.890323 175.408789 
L 327.267939 175.805779 
L 329.724808 175.88687 
L 334.559294 175.692863 
L 337.016163 172.061293 
L 339.393779 172.991085 
L 341.850649 171.513222 
L 344.228264 173.897253 
L 346.685134 171.295538 
L 349.142004 171.139983 
L 351.361112 175.649797 
L 353.817981 178.632417 
L 356.195597 174.959841 
L 358.652467 173.949833 
L 361.030082 176.757607 
L 363.486952 175.898637 
L 365.943822 179.187886 
L 368.321437 184.590969 
L 370.778307 184.361849 
L 373.155923 179.736011 
L 375.612792 178.844378 
L 378.069662 178.892495 
L 380.28877 179.104046 
L 382.74564 176.635443 
L 385.123255 179.516426 
L 387.580125 179.666009 
L 392.41461 187.857452 
L 394.87148 187.839807 
L 397.249096 192.718441 
L 402.083581 187.013617 
L 404.540451 190.068046 
L 406.99732 191.588156 
L 409.216428 192.691069 
L 411.673298 192.919356 
L 414.050914 188.88568 
L 416.507783 185.657831 
L 421.342269 183.477145 
L 423.799138 181.926192 
L 426.176754 183.050509 
L 428.633624 179.360284 
L 431.011239 178.60333 
L 433.468109 175.365815 
L 435.924979 174.901082 
L 438.223341 173.852049 
L 440.68021 174.646559 
L 443.057826 175.267824 
L 445.514696 174.415181 
L 447.892311 173.053474 
L 450.349181 175.602419 
L 452.806051 175.586867 
L 457.640536 174.124164 
L 460.018152 171.325405 
L 462.475021 169.556427 
L 464.931891 171.024586 
L 467.150999 169.56714 
L 471.985484 172.298227 
L 474.442354 170.133022 
L 476.81997 170.171949 
L 479.276839 166.582757 
L 481.733709 166.967422 
L 484.111325 166.351653 
L 486.568194 167.371231 
L 488.94581 164.706487 
L 491.40268 164.797157 
L 493.859549 162.190857 
L 496.078657 162.302 
L 498.535527 161.461352 
L 500.913143 159.772758 
L 503.370012 162.09995 
L 505.747628 161.778119 
L 508.204498 161.308387 
L 510.661367 160.249482 
L 515.495853 155.947256 
L 517.873468 154.904536 
L 520.330338 154.009637 
L 522.787208 152.564051 
L 525.006316 154.235299 
L 527.463185 152.916194 
L 529.840801 149.331139 
L 532.297671 146.158029 
L 534.675286 147.409635 
L 537.132156 149.237921 
L 539.589026 147.890984 
L 541.966641 143.676744 
L 544.423511 141.617549 
L 546.801127 144.589094 
L 549.257996 144.419382 
L 551.714866 149.889709 
L 554.013228 151.176857 
L 556.470098 151.787778 
L 558.847713 148.042258 
L 561.304583 146.318799 
L 563.682199 153.224994 
L 566.139068 154.129196 
L 568.595938 153.039585 
L 570.973554 160.713591 
L 573.430423 173.676296 
L 575.808039 178.295427 
L 578.264909 177.747263 
L 580.721778 182.758348 
L 582.940886 189.234955 
L 585.397756 184.822716 
L 587.775372 179.999872 
L 590.232241 176.228198 
L 592.609857 176.981608 
L 595.066727 172.436867 
L 597.523596 170.560304 
L 599.901212 168.276964 
L 602.358082 169.307579 
L 604.735697 164.458099 
L 607.192567 163.585102 
L 609.649437 165.786522 
L 611.868545 163.693923 
L 614.325414 159.226727 
L 616.70303 158.642657 
L 619.1599 165.09473 
L 621.537515 168.646679 
L 623.994385 163.664985 
L 626.451255 167.008318 
L 628.82887 160.876585 
L 631.28574 157.856591 
L 633.663356 157.868578 
L 636.120225 152.464815 
L 638.577095 150.62631 
L 640.796203 148.070652 
L 643.253073 148.455602 
L 645.630688 146.219114 
L 648.087558 147.869827 
L 650.465174 149.150175 
L 652.922043 151.018503 
L 655.378913 155.738841 
L 657.756529 161.674745 
L 660.213398 153.70986 
L 662.591014 153.676475 
L 665.047884 153.244039 
L 667.504753 148.884454 
L 669.803115 145.796442 
L 672.259985 143.043413 
L 674.637601 143.067256 
L 677.09447 149.347201 
L 679.472086 146.215243 
L 681.928956 145.246518 
L 684.385825 143.433978 
L 686.763441 140.800331 
L 689.220311 141.727952 
L 691.597926 141.214027 
L 694.054796 140.141128 
L 696.511666 134.183797 
L 698.730774 133.089144 
L 701.187643 128.905353 
L 706.022129 123.950268 
L 708.399744 125.332104 
L 710.856614 119.37727 
L 713.313484 123.146536 
L 715.691099 118.969332 
L 718.147969 112.987459 
L 720.525585 109.054512 
L 722.982454 106.242484 
L 725.439324 110.644147 
L 727.658432 105.054606 
L 730.115302 103.944312 
L 732.492917 103.321205 
L 734.949787 100.460265 
L 737.327403 98.051039 
L 739.784272 99.754169 
L 742.241142 94.974282 
L 744.618758 96.372885 
L 747.075627 92.702577 
L 749.453243 88.883712 
L 751.910113 88.633174 
L 754.366982 93.570265 
L 756.58609 86.292054 
L 759.04296 88.786194 
L 761.420576 87.444927 
L 763.877445 85.330579 
L 766.255061 87.760697 
L 768.711931 84.012023 
L 771.1688 93.496821 
L 773.546416 96.427145 
L 776.003286 84.668408 
L 778.380901 84.769512 
L 780.837771 86.790215 
L 783.294641 95.038252 
L 785.593003 95.943734 
L 788.049872 86.697648 
L 790.427488 84.793003 
L 792.884358 83.157846 
L 795.261973 82.684141 
L 797.718843 78.016205 
L 800.175713 77.560521 
L 802.553328 77.828358 
L 805.010198 79.898897 
L 807.387814 73.57568 
L 812.301553 67.15752 
L 814.520661 60.565493 
L 816.977531 61.013459 
L 819.355146 59.506327 
L 821.812016 56.71591 
L 824.189632 55.591907 
L 826.646501 52.167705 
L 829.103371 51.623769 
L 831.480987 47.906838 
L 833.937856 43.809398 
L 836.315472 37.728052 
L 838.772342 35.49089 
L 841.229211 22.559235 
L 843.448319 31.563116 
L 845.905189 37.610682 
L 848.282805 37.806979 
L 850.739674 33.225448 
L 853.11729 33.541063 
L 855.57416 25.231058 
L 858.031029 20.233044 
L 860.408645 16.94175 
L 862.865515 30.703476 
L 865.24313 25.038934 
L 867.7 43.586408 
L 867.7 43.586408 
" clip-path="url(#pc48e7b082e)" style="fill: none; stroke: #e69f00; stroke-width: 2; stroke-linecap: square"/>
   </g>
   <g id="line2d_25">
    <path d="M 30.7 228.514701 
L 32.919108 229.555769 
L 35.375978 230.113105 
L 40.210463 231.592024 
L 42.588079 231.773651 
L 45.044948 231.425101 
L 47.501818 231.636027 
L 49.879434 231.326349 
L 52.336303 230.385457 
L 54.713919 229.985792 
L 57.170789 230.502909 
L 59.627658 231.855362 
L 61.846766 232.024254 
L 64.303636 232.541372 
L 66.681252 232.762256 
L 69.138121 232.655082 
L 73.972607 232.021908 
L 76.429476 232.45349 
L 81.263962 231.336701 
L 83.641578 231.603154 
L 86.098447 231.273517 
L 88.555317 232.364284 
L 93.310548 232.900292 
L 95.688164 232.334073 
L 98.145034 232.099983 
L 100.522649 232.342335 
L 102.979519 232.330824 
L 105.436389 232.863905 
L 107.814004 233.525762 
L 117.562229 234.391447 
L 119.781337 233.83779 
L 122.238207 234.291475 
L 124.615822 234.48091 
L 127.072692 234.456053 
L 129.450308 234.294254 
L 131.907177 233.98794 
L 134.364047 233.999879 
L 139.198532 233.843621 
L 141.576148 234.037956 
L 144.033018 233.72659 
L 146.489887 233.851153 
L 148.708995 234.232468 
L 153.543481 234.679506 
L 160.834836 235.414428 
L 163.291705 235.293404 
L 172.960676 235.819389 
L 175.417546 235.820485 
L 177.636654 235.982343 
L 180.093523 235.695707 
L 184.928009 235.607036 
L 187.305624 235.687936 
L 194.596979 235.537701 
L 197.053849 235.753482 
L 201.888334 235.576358 
L 204.345204 235.223207 
L 206.643566 235.358555 
L 209.100436 235.379769 
L 211.478051 235.52313 
L 213.934921 235.439319 
L 218.769406 235.859013 
L 223.603892 235.801046 
L 226.060761 235.915061 
L 228.438377 235.637893 
L 235.571224 235.761516 
L 238.028094 235.78099 
L 240.40571 235.603224 
L 242.862579 235.244534 
L 247.697065 234.840419 
L 250.153934 235.378293 
L 254.98842 235.673871 
L 257.366035 235.521974 
L 259.822905 235.753315 
L 264.498883 235.634507 
L 266.955752 235.163489 
L 269.333368 235.503878 
L 279.081593 235.51706 
L 281.459208 235.149024 
L 283.916078 235.632075 
L 286.293694 235.326562 
L 288.750563 235.218826 
L 291.207433 235.29644 
L 295.883411 235.888046 
L 298.261026 235.551356 
L 300.717896 235.894363 
L 303.095512 236.088862 
L 305.552381 236.163041 
L 308.009251 235.970777 
L 310.386867 236.29805 
L 312.843736 236.234011 
L 315.221352 236.322876 
L 317.678222 236.52842 
L 320.135091 236.146845 
L 322.433453 236.662192 
L 329.724808 236.645731 
L 332.102424 237.164802 
L 334.559294 237.266067 
L 337.016163 236.928587 
L 339.393779 237.239672 
L 341.850649 237.207517 
L 344.228264 237.326632 
L 346.685134 237.301909 
L 353.817981 237.679273 
L 356.195597 237.554031 
L 358.652467 237.569211 
L 361.030082 237.954784 
L 365.943822 237.774607 
L 368.321437 237.785983 
L 373.155923 237.925503 
L 375.612792 237.894045 
L 378.069662 238.009071 
L 382.74564 237.928051 
L 392.41461 238.272052 
L 397.249096 238.261614 
L 402.083581 238.371145 
L 404.540451 238.262042 
L 418.885399 238.258536 
L 460.018152 238.139598 
L 467.150999 238.157038 
L 476.81997 238.124573 
L 484.111325 238.139504 
L 498.535527 238.154831 
L 503.370012 238.140157 
L 508.204498 238.138999 
L 517.873468 238.052528 
L 527.463185 238.146447 
L 534.675286 238.17714 
L 573.430423 238.262542 
L 578.264909 238.362584 
L 587.775372 238.70175 
L 595.066727 238.636238 
L 602.358082 238.616784 
L 607.192567 238.538703 
L 636.120225 238.618745 
L 672.259985 238.502751 
L 686.763441 238.386717 
L 694.054796 238.509456 
L 703.565259 238.429947 
L 708.399744 238.467639 
L 713.313484 238.441034 
L 768.711931 238.529181 
L 776.003286 238.517375 
L 800.175713 238.537362 
L 807.387814 238.612419 
L 814.520661 238.609829 
L 824.189632 238.679404 
L 841.229211 238.537353 
L 845.905189 238.564933 
L 867.7 238.622019 
L 867.7 238.622019 
" clip-path="url(#pc48e7b082e)" style="fill: none; stroke-dasharray: 7.4,3.2; stroke-dashoffset: 0; stroke: #56b4e9; stroke-width: 2"/>
   </g>
   <g id="line2d_26">
    <path d="M 0 0 
" clip-path="url(#pc48e7b082e)" style="fill: none; stroke-dasharray: 12.8,3.2,2,3.2; stroke-dashoffset: 0; stroke: #009e73; stroke-width: 2"/>
   </g>
   <g id="line2d_27">
    <path d="M 30.7 228.514701 
L 32.919108 228.427788 
L 35.375978 228.447464 
L 37.753593 228.822017 
L 40.210463 228.100182 
L 42.588079 228.137484 
L 45.044948 227.736377 
L 47.501818 228.516528 
L 49.879434 228.721577 
L 54.713919 227.780188 
L 57.170789 227.651506 
L 59.627658 227.784862 
L 61.846766 227.127984 
L 64.303636 226.921117 
L 66.681252 226.970454 
L 69.138121 226.720546 
L 71.515737 226.916816 
L 73.972607 226.303715 
L 76.429476 226.131027 
L 81.263962 225.395775 
L 83.641578 225.757651 
L 86.098447 224.601641 
L 88.555317 225.415696 
L 93.310548 225.701647 
L 95.688164 225.01809 
L 98.145034 224.740457 
L 100.522649 224.810583 
L 102.979519 224.159227 
L 105.436389 224.391411 
L 107.814004 224.398499 
L 110.270874 224.536691 
L 117.562229 224.111815 
L 119.781337 223.480961 
L 122.238207 223.408875 
L 124.615822 223.476538 
L 127.072692 223.306088 
L 129.450308 223.379159 
L 131.907177 223.326559 
L 134.364047 222.726342 
L 136.741663 222.963271 
L 139.198532 222.719049 
L 141.576148 223.064536 
L 146.489887 222.488994 
L 151.165865 223.764597 
L 153.543481 223.616246 
L 156.00035 223.628745 
L 158.377966 224.105234 
L 163.291705 223.176792 
L 165.669321 223.450057 
L 168.126191 223.16341 
L 170.503806 223.590489 
L 172.960676 223.326167 
L 182.471139 221.540107 
L 184.928009 220.7528 
L 187.305624 220.616316 
L 189.762494 220.249769 
L 192.219364 220.470096 
L 194.596979 219.755528 
L 197.053849 219.82647 
L 199.431465 219.134778 
L 201.888334 218.732019 
L 204.345204 217.903223 
L 209.100436 217.533557 
L 211.478051 217.581086 
L 213.934921 217.06541 
L 216.312537 216.953929 
L 218.769406 218.018686 
L 221.226276 217.449762 
L 223.603892 216.550551 
L 226.060761 216.063529 
L 228.438377 214.395275 
L 230.895247 214.823186 
L 233.352116 213.792228 
L 235.571224 213.37797 
L 238.028094 214.110494 
L 240.40571 212.898199 
L 242.862579 211.178067 
L 245.240195 209.868797 
L 247.697065 207.692264 
L 250.153934 209.627945 
L 252.53155 208.417758 
L 254.98842 209.099628 
L 257.366035 207.741737 
L 259.822905 207.342565 
L 262.279775 207.38895 
L 264.498883 205.60481 
L 266.955752 203.484524 
L 269.333368 203.681783 
L 271.790238 204.268963 
L 274.167853 203.210228 
L 276.624723 204.050447 
L 279.081593 207.899402 
L 281.459208 205.418944 
L 286.293694 202.440127 
L 288.750563 201.142295 
L 291.207433 201.253126 
L 293.426541 202.199983 
L 295.883411 202.201312 
L 298.261026 199.764693 
L 300.717896 200.783426 
L 303.095512 200.022066 
L 305.552381 200.752304 
L 308.009251 201.254898 
L 310.386867 203.282747 
L 312.843736 202.432091 
L 315.221352 202.841555 
L 317.678222 203.111927 
L 320.135091 204.844051 
L 322.433453 208.755654 
L 324.890323 205.841261 
L 327.267939 205.534352 
L 329.724808 204.755288 
L 332.102424 204.674584 
L 334.559294 205.258945 
L 337.016163 203.232626 
L 339.393779 203.438302 
L 341.850649 202.143448 
L 344.228264 202.168622 
L 346.685134 201.035023 
L 349.142004 201.668449 
L 353.817981 203.733973 
L 356.195597 201.850207 
L 358.652467 201.166032 
L 361.030082 203.483642 
L 363.486952 202.786774 
L 365.943822 203.9296 
L 368.321437 205.92533 
L 370.778307 205.865164 
L 373.155923 203.990862 
L 375.612792 203.525441 
L 378.069662 203.929667 
L 382.74564 202.580486 
L 385.123255 203.449447 
L 387.580125 203.88163 
L 392.41461 208.336656 
L 394.87148 208.307329 
L 397.249096 210.709072 
L 399.705965 209.504889 
L 402.083581 208.841642 
L 404.540451 209.400325 
L 406.99732 210.379351 
L 409.216428 210.761402 
L 411.673298 210.571021 
L 416.507783 207.82506 
L 418.885399 207.123618 
L 421.342269 207.487381 
L 423.799138 207.046276 
L 426.176754 207.332469 
L 428.633624 206.318919 
L 431.011239 205.982828 
L 433.468109 204.33129 
L 435.924979 204.229971 
L 438.223341 203.603099 
L 440.68021 203.943325 
L 443.057826 203.52317 
L 445.514696 203.433711 
L 447.892311 202.998072 
L 450.349181 204.167204 
L 452.806051 203.661246 
L 457.640536 202.911954 
L 460.018152 201.381555 
L 462.475021 200.449914 
L 464.931891 200.902298 
L 467.150999 200.182599 
L 469.607869 201.032292 
L 471.985484 201.204797 
L 474.442354 200.365812 
L 476.81997 200.739874 
L 479.276839 199.312353 
L 481.733709 199.645601 
L 484.111325 199.490042 
L 486.568194 199.788657 
L 488.94581 199.008252 
L 491.40268 199.02067 
L 493.859549 197.976085 
L 496.078657 197.894907 
L 498.535527 197.651324 
L 500.913143 196.898953 
L 503.370012 197.64771 
L 505.747628 197.425791 
L 508.204498 196.335539 
L 510.661367 195.932773 
L 513.038983 195.368048 
L 515.495853 194.098157 
L 517.873468 193.776302 
L 520.330338 193.197992 
L 522.787208 192.771994 
L 525.006316 193.739681 
L 527.463185 193.253438 
L 529.840801 191.747755 
L 532.297671 190.754174 
L 537.132156 193.0008 
L 539.589026 192.026954 
L 541.966641 190.25032 
L 544.423511 189.218066 
L 546.801127 189.88381 
L 549.257996 190.231506 
L 551.714866 192.170696 
L 554.013228 193.001458 
L 556.470098 193.441594 
L 558.847713 192.357412 
L 561.304583 191.643185 
L 563.682199 195.162279 
L 566.139068 194.71955 
L 568.595938 193.930465 
L 570.973554 196.104842 
L 573.430423 202.508828 
L 575.808039 204.329845 
L 578.264909 204.335002 
L 580.721778 207.089607 
L 582.940886 210.964042 
L 585.397756 209.185818 
L 587.775372 208.518048 
L 590.232241 207.490129 
L 592.609857 207.300149 
L 595.066727 205.967996 
L 597.523596 205.813528 
L 599.901212 204.846184 
L 602.358082 205.015148 
L 604.735697 202.918147 
L 607.192567 202.346698 
L 609.649437 202.952967 
L 611.868545 202.467319 
L 614.325414 201.406107 
L 616.70303 201.478656 
L 619.1599 204.077199 
L 621.537515 204.886563 
L 623.994385 203.38429 
L 626.451255 204.093149 
L 628.82887 201.677645 
L 631.28574 200.917442 
L 633.663356 201.27773 
L 636.120225 199.628538 
L 638.577095 199.371195 
L 640.796203 197.996032 
L 643.253073 197.598862 
L 645.630688 196.188186 
L 648.087558 195.830531 
L 650.465174 196.499168 
L 652.922043 197.333492 
L 657.756529 198.182087 
L 660.213398 195.865603 
L 662.591014 194.725932 
L 665.047884 193.77733 
L 667.504753 193.923058 
L 669.803115 193.120745 
L 672.259985 191.817456 
L 674.637601 190.995652 
L 677.09447 191.648342 
L 679.472086 189.867215 
L 681.928956 188.446544 
L 684.385825 188.602974 
L 686.763441 187.633578 
L 689.220311 188.879503 
L 691.597926 188.724233 
L 694.054796 189.347215 
L 696.511666 186.985215 
L 698.730774 185.339488 
L 701.187643 182.816783 
L 703.565259 181.204923 
L 706.022129 182.168783 
L 708.399744 182.201565 
L 710.856614 179.747967 
L 713.313484 181.924619 
L 715.691099 180.613185 
L 718.147969 177.706009 
L 720.525585 176.193848 
L 722.982454 175.461591 
L 725.439324 177.334365 
L 727.658432 174.95241 
L 730.115302 174.223176 
L 734.949787 172.4736 
L 737.327403 171.798491 
L 739.784272 172.492922 
L 742.241142 169.712805 
L 744.618758 169.716124 
L 747.075627 167.448349 
L 749.453243 164.862519 
L 751.910113 165.254211 
L 754.366982 166.055762 
L 756.58609 163.965655 
L 759.04296 164.973466 
L 761.420576 164.976184 
L 763.877445 163.942318 
L 766.255061 165.641695 
L 768.711931 163.466312 
L 771.1688 167.504419 
L 773.546416 167.984905 
L 776.003286 163.103837 
L 778.380901 163.552712 
L 780.837771 163.575368 
L 783.294641 165.583847 
L 785.593003 165.811925 
L 788.049872 161.053879 
L 790.427488 160.927047 
L 792.884358 160.25547 
L 795.261973 157.998872 
L 797.718843 156.299752 
L 800.175713 157.377882 
L 802.553328 157.781605 
L 805.010198 159.812603 
L 807.387814 158.540586 
L 809.844683 156.508247 
L 812.301553 155.188503 
L 814.520661 151.935913 
L 816.977531 152.278062 
L 819.355146 151.631539 
L 821.812016 150.105556 
L 824.189632 150.192429 
L 826.646501 148.615713 
L 829.103371 148.26674 
L 831.480987 146.90528 
L 833.937856 145.182723 
L 836.315472 141.925682 
L 838.772342 140.935262 
L 841.229211 135.84756 
L 843.448319 141.3517 
L 845.905189 143.56812 
L 848.282805 143.491758 
L 850.739674 141.673893 
L 853.11729 141.140672 
L 855.57416 137.348553 
L 858.031029 134.81103 
L 860.408645 133.129873 
L 862.865515 138.205176 
L 865.24313 135.161613 
L 867.7 143.591608 
L 867.7 143.591608 
" clip-path="url(#pc48e7b082e)" style="fill: none; stroke-dasharray: 2,3.3; stroke-dashoffset: 0; stroke: #0072b2; stroke-width: 2"/>
   </g>
   <g id="line2d_28">
    <path d="M 30.7 228.514701 
L 35.375978 228.349757 
L 37.753593 228.597441 
L 40.210463 227.714494 
L 42.588079 227.742893 
L 45.044948 227.274143 
L 47.501818 227.774173 
L 49.879434 227.655115 
L 52.336303 227.378002 
L 54.713919 226.970307 
L 57.170789 227.028733 
L 59.627658 227.407443 
L 61.846766 227.078221 
L 64.303636 227.732146 
L 66.681252 228.014627 
L 69.138121 227.834027 
L 71.515737 228.169906 
L 73.972607 227.672221 
L 76.429476 227.824999 
L 78.807092 226.784828 
L 81.263962 226.027063 
L 83.641578 226.61574 
L 86.098447 226.056012 
L 88.555317 227.271019 
L 90.853679 227.603564 
L 93.310548 227.667636 
L 95.688164 227.182078 
L 98.145034 226.96424 
L 100.522649 226.980096 
L 102.979519 226.71515 
L 110.270874 226.96907 
L 115.105359 226.764422 
L 117.562229 226.895043 
L 119.781337 226.310475 
L 122.238207 226.75435 
L 127.072692 226.655994 
L 129.450308 226.871992 
L 131.907177 226.757837 
L 134.364047 226.295165 
L 136.741663 226.558918 
L 139.198532 226.221618 
L 141.576148 226.697424 
L 144.033018 226.338416 
L 146.489887 226.36241 
L 148.708995 226.741496 
L 151.165865 227.302471 
L 153.543481 227.101655 
L 156.00035 227.079592 
L 158.377966 227.564256 
L 163.291705 226.973133 
L 165.669321 227.022162 
L 168.126191 226.779252 
L 170.503806 226.997371 
L 175.417546 226.585556 
L 180.093523 225.991865 
L 182.471139 225.843509 
L 184.928009 225.432106 
L 187.305624 225.574148 
L 189.762494 225.458752 
L 192.219364 225.554243 
L 194.596979 225.321785 
L 197.053849 225.458057 
L 201.888334 225.368883 
L 204.345204 224.525454 
L 206.643566 224.625054 
L 209.100436 224.358718 
L 211.478051 224.236814 
L 213.934921 223.83652 
L 216.312537 223.841493 
L 218.769406 224.689383 
L 223.603892 223.80859 
L 226.060761 223.719633 
L 228.438377 222.702413 
L 230.895247 222.935463 
L 233.352116 222.404667 
L 235.571224 222.08974 
L 238.028094 222.49429 
L 240.40571 221.924294 
L 242.862579 220.796804 
L 245.240195 220.158972 
L 247.697065 218.96624 
L 250.153934 220.329712 
L 252.53155 219.746445 
L 254.98842 220.041471 
L 257.366035 219.128411 
L 262.279775 218.432831 
L 264.498883 217.376006 
L 266.955752 215.577273 
L 269.333368 216.007338 
L 271.790238 216.224481 
L 274.167853 215.413558 
L 276.624723 216.199965 
L 279.081593 218.670752 
L 281.459208 216.347409 
L 283.916078 216.449874 
L 286.293694 215.60907 
L 288.750563 215.063997 
L 291.207433 216.300018 
L 293.426541 217.138813 
L 295.883411 217.403934 
L 298.261026 215.955646 
L 300.717896 216.479232 
L 303.095512 215.925858 
L 305.552381 216.16659 
L 308.009251 215.833055 
L 310.386867 217.191509 
L 312.843736 216.325875 
L 315.221352 217.171159 
L 317.678222 217.006787 
L 320.135091 217.473024 
L 322.433453 220.341611 
L 324.890323 218.428283 
L 327.267939 217.819232 
L 329.724808 217.3622 
L 332.102424 218.152439 
L 334.559294 218.020571 
L 337.016163 216.449303 
L 339.393779 216.069582 
L 341.850649 215.281128 
L 344.228264 215.692828 
L 346.685134 215.031536 
L 349.142004 215.442305 
L 353.817981 216.400877 
L 356.195597 215.492939 
L 358.652467 215.065913 
L 361.030082 216.084674 
L 363.486952 215.751231 
L 365.943822 216.692976 
L 368.321437 218.740079 
L 370.778307 218.785107 
L 373.155923 217.22393 
L 375.612792 216.979942 
L 378.069662 217.658833 
L 382.74564 216.744441 
L 385.123255 217.427589 
L 387.580125 217.472928 
L 389.957741 219.178108 
L 392.41461 220.602168 
L 394.87148 220.625434 
L 397.249096 221.747217 
L 399.705965 220.497773 
L 402.083581 220.404282 
L 404.540451 220.55245 
L 406.99732 221.163149 
L 409.216428 221.44875 
L 411.673298 221.325761 
L 414.050914 220.64343 
L 416.507783 219.687102 
L 418.885399 219.265069 
L 421.342269 219.894748 
L 423.799138 219.578466 
L 426.176754 219.433417 
L 431.011239 218.89484 
L 433.468109 218.200966 
L 435.924979 218.322079 
L 438.223341 217.858958 
L 440.68021 217.916295 
L 443.057826 217.165568 
L 445.514696 217.556218 
L 447.892311 217.48768 
L 450.349181 217.969391 
L 452.806051 217.57 
L 455.183666 217.443266 
L 460.018152 216.319455 
L 462.475021 215.588729 
L 464.931891 215.95028 
L 469.607869 217.041867 
L 471.985484 217.243822 
L 474.442354 216.680874 
L 476.81997 216.967109 
L 479.276839 216.525028 
L 481.733709 216.722542 
L 484.111325 216.543421 
L 486.568194 216.811709 
L 488.94581 216.824788 
L 491.40268 217.269389 
L 493.859549 216.438887 
L 496.078657 216.522488 
L 498.535527 216.404538 
L 500.913143 216.096303 
L 503.370012 216.66432 
L 505.747628 216.776351 
L 508.204498 215.989032 
L 510.661367 215.843344 
L 513.038983 215.888415 
L 515.495853 215.329322 
L 517.873468 215.246509 
L 520.330338 215.378831 
L 522.787208 215.637443 
L 525.006316 216.416177 
L 527.463185 216.304101 
L 529.840801 215.545985 
L 532.297671 215.147991 
L 534.675286 215.810697 
L 537.132156 216.314617 
L 539.589026 215.645322 
L 541.966641 215.193317 
L 544.423511 214.926557 
L 546.801127 214.943798 
L 549.257996 215.51837 
L 554.013228 216.196011 
L 556.470098 216.878366 
L 561.304583 216.331573 
L 563.682199 217.231992 
L 566.139068 217.126793 
L 568.595938 216.787986 
L 570.973554 217.925847 
L 573.430423 220.799628 
L 575.808039 221.379074 
L 578.264909 222.145332 
L 580.721778 223.927239 
L 582.940886 225.095597 
L 585.397756 224.666807 
L 587.775372 226.220239 
L 590.232241 224.994165 
L 592.609857 224.940869 
L 595.066727 224.682247 
L 597.523596 224.795591 
L 599.901212 224.412021 
L 602.358082 224.425576 
L 604.735697 223.181606 
L 609.649437 223.730517 
L 611.868545 223.642115 
L 614.325414 223.368755 
L 616.70303 223.461318 
L 619.1599 224.647651 
L 621.537515 225.230754 
L 623.994385 224.659957 
L 626.451255 224.875536 
L 628.82887 224.022483 
L 631.28574 223.742894 
L 633.663356 223.883191 
L 640.796203 222.785248 
L 643.253073 222.727543 
L 645.630688 221.9087 
L 648.087558 221.446492 
L 650.465174 221.939204 
L 652.922043 221.885784 
L 657.756529 221.534516 
L 660.213398 220.631111 
L 665.047884 219.8477 
L 667.504753 220.044605 
L 669.803115 219.782663 
L 672.259985 219.05484 
L 677.09447 218.268819 
L 679.472086 217.321011 
L 681.928956 216.72337 
L 684.385825 216.824085 
L 686.763441 216.546278 
L 689.220311 217.271419 
L 691.597926 217.160539 
L 694.054796 217.413151 
L 696.511666 216.676737 
L 703.565259 214.168144 
L 706.022129 214.677066 
L 708.399744 214.615211 
L 710.856614 214.072468 
L 713.313484 214.842172 
L 715.691099 215.083475 
L 718.147969 214.873826 
L 720.525585 214.418114 
L 722.982454 214.336881 
L 725.439324 214.834511 
L 727.658432 214.144321 
L 730.115302 213.730014 
L 732.492917 213.671356 
L 734.949787 214.1729 
L 737.327403 214.142139 
L 739.784272 213.757864 
L 742.241142 212.627666 
L 744.618758 212.747512 
L 747.075627 213.29501 
L 749.453243 212.342834 
L 751.910113 212.156645 
L 754.366982 212.138539 
L 756.58609 211.477658 
L 759.04296 211.780016 
L 761.420576 211.916004 
L 763.877445 211.666801 
L 766.255061 212.480228 
L 768.711931 211.478041 
L 771.1688 212.311232 
L 773.546416 212.268469 
L 776.003286 211.457446 
L 780.837771 212.385681 
L 783.294641 213.390463 
L 785.593003 214.09367 
L 788.049872 212.848176 
L 790.427488 213.297073 
L 792.884358 213.415014 
L 795.261973 211.500342 
L 797.718843 210.782418 
L 800.175713 211.554604 
L 802.553328 211.608703 
L 805.010198 212.816909 
L 807.387814 213.712909 
L 809.844683 212.706899 
L 812.301553 212.188864 
L 814.520661 211.045375 
L 816.977531 211.170953 
L 821.812016 211.042769 
L 824.189632 211.142829 
L 826.646501 210.44369 
L 829.103371 210.537691 
L 831.480987 210.204977 
L 833.937856 209.731535 
L 836.315472 209.056692 
L 838.772342 208.866669 
L 841.229211 207.903241 
L 843.448319 209.859907 
L 845.905189 210.650096 
L 850.739674 209.781837 
L 853.11729 209.550963 
L 855.57416 208.368976 
L 858.031029 207.794932 
L 860.408645 207.650758 
L 862.865515 208.325266 
L 865.24313 207.299976 
L 867.7 209.311747 
L 867.7 209.311747 
" clip-path="url(#pc48e7b082e)" style="fill: none; stroke: #d55e00; stroke-width: 2; stroke-linecap: square"/>
   </g>
   <g id="line2d_29">
    <path d="M 30.7 228.514701 
L 35.375978 228.359993 
L 37.753593 228.609555 
L 40.210463 227.702519 
L 42.588079 227.739871 
L 45.044948 227.273601 
L 47.501818 227.8392 
L 49.879434 227.773528 
L 54.713919 227.124408 
L 57.170789 227.177697 
L 59.627658 227.595374 
L 61.846766 227.306553 
L 64.303636 227.976742 
L 66.681252 228.25706 
L 69.138121 228.065667 
L 71.515737 228.381203 
L 73.972607 227.8886 
L 76.429476 228.001973 
L 78.807092 226.991634 
L 81.263962 226.278286 
L 83.641578 226.818108 
L 86.098447 226.217604 
L 88.555317 227.390546 
L 90.853679 227.708944 
L 93.310548 227.83276 
L 95.688164 227.281083 
L 98.145034 227.068425 
L 100.522649 227.11099 
L 102.979519 226.804023 
L 107.814004 226.912033 
L 110.270874 227.001508 
L 115.105359 226.782753 
L 117.562229 226.902554 
L 119.781337 226.279079 
L 122.238207 226.726933 
L 127.072692 226.61799 
L 129.450308 226.847678 
L 131.907177 226.777273 
L 134.364047 226.366357 
L 136.741663 226.403347 
L 139.198532 226.071663 
L 141.576148 226.476106 
L 144.033018 226.186678 
L 146.489887 226.348078 
L 148.708995 227.150573 
L 151.165865 227.782877 
L 153.543481 227.62438 
L 156.00035 227.614439 
L 158.377966 228.054501 
L 163.291705 227.486319 
L 165.669321 227.536723 
L 168.126191 227.318384 
L 170.503806 227.543611 
L 175.417546 227.128568 
L 180.093523 226.530402 
L 182.471139 226.367419 
L 184.928009 225.974316 
L 187.305624 226.100223 
L 189.762494 225.99454 
L 192.219364 226.070785 
L 194.596979 225.864398 
L 197.053849 225.986693 
L 199.431465 225.707648 
L 201.888334 225.700591 
L 204.345204 224.835776 
L 206.643566 224.909615 
L 209.100436 224.627504 
L 211.478051 224.518542 
L 213.934921 224.11827 
L 216.312537 224.119625 
L 218.769406 224.949973 
L 223.603892 224.072609 
L 226.060761 223.960594 
L 228.438377 222.931841 
L 230.895247 223.175044 
L 233.352116 222.650456 
L 235.571224 222.364272 
L 238.028094 222.773641 
L 240.40571 222.195969 
L 242.862579 221.082817 
L 245.240195 220.446839 
L 247.697065 219.274176 
L 250.153934 220.625007 
L 252.53155 220.027661 
L 254.98842 220.312029 
L 257.366035 219.421368 
L 262.279775 218.753571 
L 264.498883 217.720257 
L 266.955752 215.970616 
L 271.790238 216.624114 
L 274.167853 215.844722 
L 276.624723 216.555367 
L 279.081593 218.962589 
L 281.459208 216.745874 
L 283.916078 216.747135 
L 286.293694 215.880601 
L 288.750563 215.344055 
L 291.207433 216.648757 
L 293.426541 217.501233 
L 295.883411 217.751078 
L 298.261026 216.453256 
L 300.717896 216.943767 
L 303.095512 216.400534 
L 305.552381 216.615482 
L 308.009251 216.39464 
L 310.386867 217.767726 
L 312.843736 216.961494 
L 315.221352 217.734418 
L 317.678222 217.606415 
L 320.135091 218.210153 
L 322.433453 221.295185 
L 324.890323 219.482542 
L 329.724808 218.45813 
L 332.102424 219.18498 
L 334.559294 219.172928 
L 337.016163 217.755369 
L 339.393779 217.52864 
L 341.850649 216.800003 
L 344.228264 217.154729 
L 346.685134 216.466122 
L 353.817981 217.678645 
L 356.195597 216.785324 
L 358.652467 216.276409 
L 361.030082 217.295111 
L 363.486952 217.015548 
L 365.943822 217.756559 
L 368.321437 219.647631 
L 370.778307 219.689916 
L 373.155923 218.209046 
L 375.612792 217.952888 
L 378.069662 218.55583 
L 382.74564 217.71563 
L 385.123255 218.350838 
L 387.580125 218.428423 
L 389.957741 219.997675 
L 392.41461 221.448099 
L 394.87148 221.505277 
L 397.249096 222.611329 
L 399.705965 221.436528 
L 402.083581 221.36637 
L 404.540451 220.767823 
L 406.99732 221.371214 
L 409.216428 221.622017 
L 411.673298 221.511595 
L 414.050914 220.923731 
L 416.507783 219.995506 
L 418.885399 219.521417 
L 421.342269 220.140948 
L 423.799138 219.84184 
L 426.176754 219.68637 
L 431.011239 219.12494 
L 433.468109 218.451182 
L 435.924979 218.584163 
L 438.223341 218.172564 
L 440.68021 218.253971 
L 443.057826 217.553894 
L 445.514696 217.916267 
L 447.892311 217.864197 
L 450.349181 218.359998 
L 452.806051 217.962464 
L 455.183666 217.829601 
L 460.018152 216.731624 
L 462.475021 216.083847 
L 467.150999 217.091765 
L 469.607869 217.627173 
L 471.985484 217.814731 
L 474.442354 217.294487 
L 476.81997 217.57582 
L 479.276839 217.096008 
L 481.733709 217.272781 
L 484.111325 217.086175 
L 486.568194 217.34335 
L 488.94581 217.351792 
L 491.40268 217.783852 
L 493.859549 216.959571 
L 496.078657 217.080004 
L 498.535527 216.971493 
L 500.913143 216.65325 
L 503.370012 217.337525 
L 505.747628 217.446827 
L 508.204498 216.679765 
L 510.661367 216.565845 
L 513.038983 216.584078 
L 515.495853 216.100122 
L 517.873468 216.050633 
L 522.787208 216.179449 
L 525.006316 216.900825 
L 527.463185 216.792327 
L 529.840801 216.05889 
L 532.297671 215.670479 
L 534.675286 216.295669 
L 537.132156 216.711644 
L 539.589026 216.028665 
L 541.966641 215.506757 
L 546.801127 215.476939 
L 549.257996 216.009442 
L 551.714866 216.27383 
L 554.013228 216.674204 
L 556.470098 217.275978 
L 561.304583 216.680497 
L 563.682199 217.656283 
L 566.139068 217.550606 
L 568.595938 217.223622 
L 570.973554 218.318587 
L 573.430423 221.115798 
L 575.808039 221.638197 
L 578.264909 222.340582 
L 580.721778 224.011394 
L 582.940886 225.293029 
L 585.397756 224.864726 
L 587.775372 226.386381 
L 590.232241 225.174912 
L 592.609857 225.058806 
L 595.066727 224.789406 
L 597.523596 224.877521 
L 599.901212 224.48643 
L 602.358082 224.418499 
L 604.735697 223.175244 
L 609.649437 223.704391 
L 611.868545 223.621725 
L 614.325414 223.341428 
L 616.70303 223.434671 
L 619.1599 224.641836 
L 621.537515 225.219865 
L 623.994385 224.651696 
L 626.451255 224.833518 
L 628.82887 224.009076 
L 633.663356 223.816906 
L 640.796203 222.614651 
L 643.253073 222.631682 
L 645.630688 221.835059 
L 648.087558 221.342407 
L 650.465174 221.8427 
L 652.922043 221.901712 
L 655.378913 221.714814 
L 657.756529 221.414324 
L 660.213398 220.535777 
L 665.047884 219.760842 
L 667.504753 219.966672 
L 669.803115 219.721618 
L 672.259985 218.975512 
L 674.637601 218.542566 
L 677.09447 218.256074 
L 679.472086 217.321045 
L 681.928956 216.733547 
L 684.385825 216.823779 
L 686.763441 216.547687 
L 689.220311 217.301314 
L 691.597926 217.2127 
L 694.054796 217.494413 
L 696.511666 216.821487 
L 703.565259 214.373382 
L 706.022129 214.851025 
L 708.399744 214.795342 
L 710.856614 214.343152 
L 713.313484 215.111159 
L 715.691099 215.31814 
L 718.147969 215.003521 
L 720.525585 214.490765 
L 722.982454 214.400938 
L 725.439324 214.942652 
L 730.115302 213.685001 
L 732.492917 213.562905 
L 734.949787 214.080001 
L 737.327403 214.057928 
L 739.784272 213.674611 
L 742.241142 212.536544 
L 744.618758 212.634123 
L 747.075627 213.06174 
L 749.453243 212.033331 
L 751.910113 211.955102 
L 754.366982 212.000225 
L 756.58609 211.397928 
L 759.04296 211.714115 
L 761.420576 211.865277 
L 763.877445 211.604104 
L 766.255061 212.364156 
L 768.711931 211.474943 
L 771.1688 212.329166 
L 773.546416 212.348849 
L 776.003286 211.606622 
L 780.837771 212.309642 
L 783.294641 213.137232 
L 785.593003 213.618751 
L 788.049872 211.642397 
L 792.884358 212.159853 
L 795.261973 210.200463 
L 797.718843 209.496833 
L 800.175713 210.292472 
L 802.553328 210.347439 
L 805.010198 211.554473 
L 807.387814 212.073973 
L 809.844683 210.978217 
L 812.301553 210.457118 
L 814.520661 209.233957 
L 816.977531 209.345866 
L 819.355146 209.264238 
L 824.189632 209.45602 
L 826.646501 208.717123 
L 829.103371 208.843382 
L 833.937856 207.919373 
L 836.315472 207.132559 
L 838.772342 206.916263 
L 841.229211 205.852918 
L 843.448319 207.912927 
L 845.905189 208.53691 
L 848.282805 208.180756 
L 850.739674 207.683256 
L 853.11729 207.43811 
L 855.57416 206.138806 
L 858.031029 205.502923 
L 860.408645 205.337722 
L 862.865515 206.110704 
L 865.24313 205.027853 
L 867.7 207.251216 
L 867.7 207.251216 
" clip-path="url(#pc48e7b082e)" style="fill: none; stroke-dasharray: 7.4,3.2; stroke-dashoffset: 0; stroke: #cc79a7; stroke-width: 2"/>
   </g>
   <g id="line2d_30">
    <path d="M 30.7 228.514701 
L 35.375978 228.172657 
L 37.753593 228.454024 
L 40.210463 227.454179 
L 45.044948 227.358734 
L 47.501818 228.40249 
L 49.879434 228.896261 
L 52.336303 228.775393 
L 54.713919 228.037823 
L 59.627658 227.228891 
L 61.846766 226.434672 
L 64.303636 226.023657 
L 66.681252 226.005415 
L 69.138121 225.372239 
L 71.515737 225.95019 
L 73.972607 225.285511 
L 76.429476 224.864983 
L 78.807092 224.946165 
L 81.263962 224.659039 
L 83.641578 225.110468 
L 86.098447 223.534991 
L 88.555317 223.840118 
L 90.853679 223.679776 
L 93.310548 223.922504 
L 95.688164 223.490857 
L 98.145034 223.310639 
L 100.522649 223.516808 
L 102.979519 222.914968 
L 105.436389 223.302073 
L 110.270874 222.895871 
L 112.64849 222.325484 
L 115.105359 222.146631 
L 117.562229 222.098409 
L 122.238207 221.645757 
L 124.615822 221.970003 
L 127.072692 221.576884 
L 131.907177 221.722537 
L 134.364047 221.030343 
L 136.741663 221.189611 
L 139.198532 220.965801 
L 141.576148 221.112244 
L 144.033018 220.833003 
L 146.489887 220.311536 
L 148.708995 220.85004 
L 151.165865 221.627775 
L 156.00035 221.280174 
L 158.377966 221.766105 
L 160.834836 221.237708 
L 163.291705 220.528925 
L 165.669321 220.960562 
L 168.126191 220.564224 
L 170.503806 221.145009 
L 172.960676 220.863058 
L 175.417546 220.315973 
L 180.093523 218.987281 
L 182.471139 218.518449 
L 184.928009 217.480918 
L 187.305624 216.936779 
L 189.762494 216.194527 
L 192.219364 216.163559 
L 194.596979 215.149929 
L 197.053849 215.221128 
L 199.431465 214.265917 
L 201.888334 213.923323 
L 204.345204 212.904731 
L 209.100436 212.429852 
L 211.478051 212.35012 
L 213.934921 211.731483 
L 216.312537 211.738414 
L 218.769406 213.040253 
L 221.226276 212.293655 
L 223.603892 210.873888 
L 226.060761 210.434779 
L 228.438377 208.229963 
L 230.895247 208.987052 
L 233.352116 207.497946 
L 235.571224 207.088834 
L 238.028094 208.113153 
L 240.40571 206.573241 
L 242.862579 204.327367 
L 245.240195 202.68909 
L 247.697065 199.615498 
L 250.153934 202.225859 
L 252.53155 200.728214 
L 254.98842 202.113546 
L 257.366035 200.42109 
L 259.822905 199.971848 
L 262.279775 199.992496 
L 264.498883 197.445293 
L 266.955752 195.134835 
L 269.333368 194.932543 
L 271.790238 196.162081 
L 274.167853 194.667532 
L 276.624723 195.550566 
L 279.081593 201.585393 
L 281.459208 199.185737 
L 283.916078 196.223702 
L 288.750563 191.436129 
L 291.207433 189.755411 
L 293.426541 190.694866 
L 295.883411 189.588639 
L 298.261026 186.76534 
L 300.717896 188.590234 
L 303.095512 186.082399 
L 305.552381 187.661531 
L 308.009251 187.680652 
L 310.386867 190.208544 
L 312.843736 187.073365 
L 315.221352 186.54801 
L 317.678222 183.6295 
L 320.135091 185.461007 
L 322.433453 187.339399 
L 324.890323 182.269986 
L 327.267939 182.602405 
L 329.724808 182.646083 
L 332.102424 183.00486 
L 334.559294 183.008452 
L 337.016163 179.499101 
L 339.393779 180.719783 
L 341.850649 179.424152 
L 344.228264 181.562322 
L 346.685134 179.309157 
L 349.142004 179.310706 
L 351.361112 183.333567 
L 353.817981 185.875879 
L 356.195597 182.585089 
L 358.652467 181.751587 
L 361.030082 184.741832 
L 363.486952 183.768405 
L 365.943822 186.435171 
L 368.321437 190.916723 
L 370.778307 190.938811 
L 373.155923 187.085575 
L 375.612792 186.268986 
L 378.069662 186.544615 
L 380.28877 186.52599 
L 382.74564 184.451657 
L 385.123255 187.003043 
L 387.580125 187.159571 
L 392.41461 194.402974 
L 394.87148 194.347593 
L 397.249096 198.339332 
L 402.083581 193.827458 
L 404.540451 196.042962 
L 406.99732 197.324854 
L 409.216428 198.162546 
L 411.673298 198.282936 
L 414.050914 194.948132 
L 416.507783 192.333797 
L 421.342269 190.549038 
L 423.799138 189.249099 
L 426.176754 190.110314 
L 428.633624 187.06294 
L 431.011239 186.418924 
L 433.468109 183.717767 
L 435.924979 183.503137 
L 438.223341 182.547867 
L 440.68021 183.185949 
L 443.057826 183.468996 
L 445.514696 182.778318 
L 447.892311 181.589702 
L 450.349181 183.792081 
L 452.806051 183.784797 
L 455.183666 183.229342 
L 457.640536 182.525554 
L 460.018152 180.141657 
L 462.475021 178.607181 
L 464.931891 179.879542 
L 467.150999 178.833166 
L 469.607869 179.966075 
L 471.985484 180.895138 
L 474.442354 179.033716 
L 476.81997 179.104918 
L 479.276839 176.126714 
L 481.733709 176.45979 
L 484.111325 176.104624 
L 486.568194 176.967041 
L 488.94581 174.874281 
L 491.40268 175.095072 
L 493.859549 173.035685 
L 496.078657 173.063463 
L 498.535527 172.26764 
L 500.913143 170.758082 
L 503.370012 172.678874 
L 505.747628 172.559961 
L 508.204498 172.057439 
L 510.661367 171.01783 
L 513.038983 169.323147 
L 515.495853 167.427018 
L 517.873468 166.538871 
L 520.330338 165.995357 
L 522.787208 165.0412 
L 525.006316 166.420332 
L 527.463185 165.358003 
L 529.840801 162.40958 
L 532.297671 159.981088 
L 534.675286 161.184975 
L 537.132156 162.61079 
L 539.589026 161.363274 
L 541.966641 158.025821 
L 544.423511 156.456727 
L 546.801127 158.579817 
L 549.257996 158.607161 
L 551.714866 162.841688 
L 554.013228 163.902913 
L 556.470098 164.383346 
L 558.847713 161.564177 
L 561.304583 159.777133 
L 563.682199 165.469903 
L 566.139068 166.219686 
L 568.595938 165.192199 
L 570.973554 171.545913 
L 573.430423 181.854901 
L 575.808039 185.616818 
L 578.264909 185.550637 
L 580.721778 189.975334 
L 582.940886 195.59646 
L 587.775372 188.753386 
L 590.232241 185.468503 
L 592.609857 185.958871 
L 595.066727 182.309926 
L 597.523596 180.858288 
L 599.901212 178.89624 
L 602.358082 179.684518 
L 604.735697 175.396349 
L 607.192567 174.661443 
L 609.649437 176.453564 
L 611.868545 174.909311 
L 614.325414 171.387922 
L 616.70303 171.182307 
L 619.1599 176.427243 
L 621.537515 179.182581 
L 623.994385 175.200774 
L 626.451255 177.834026 
L 628.82887 172.734878 
L 631.28574 170.6111 
L 633.663356 170.414867 
L 636.120225 166.213399 
L 638.577095 164.731289 
L 640.796203 162.527092 
L 643.253073 162.836186 
L 645.630688 160.874174 
L 650.465174 163.055021 
L 652.922043 164.555158 
L 655.378913 168.149887 
L 657.756529 172.716574 
L 660.213398 166.352661 
L 662.591014 166.263247 
L 665.047884 165.855065 
L 667.504753 162.436058 
L 669.803115 159.926419 
L 672.259985 157.566696 
L 674.637601 157.363078 
L 677.09447 162.20284 
L 679.472086 159.469246 
L 681.928956 158.651231 
L 684.385825 157.0923 
L 686.763441 154.917034 
L 689.220311 155.880545 
L 691.597926 155.662428 
L 694.054796 154.919123 
L 696.511666 149.862959 
L 698.730774 148.952325 
L 701.187643 145.568909 
L 703.565259 143.473537 
L 706.022129 141.545135 
L 708.399744 142.651765 
L 710.856614 137.535985 
L 713.313484 140.706035 
L 715.691099 137.33032 
L 718.147969 132.811577 
L 720.525585 129.531227 
L 722.982454 127.497449 
L 725.439324 130.921996 
L 727.658432 126.307915 
L 730.115302 125.231238 
L 732.492917 124.846176 
L 737.327403 120.908098 
L 739.784272 122.073466 
L 742.241142 117.887236 
L 744.618758 118.977682 
L 747.075627 116.100176 
L 749.453243 113.061955 
L 751.910113 112.7748 
L 754.366982 116.617625 
L 756.58609 111.165368 
L 759.04296 113.130275 
L 761.420576 112.247985 
L 763.877445 110.681388 
L 766.255061 112.951591 
L 768.711931 110.073004 
L 771.1688 117.748674 
L 773.546416 119.904261 
L 776.003286 110.389718 
L 778.380901 110.406194 
L 780.837771 112.21269 
L 783.294641 118.587257 
L 785.593003 119.342938 
L 788.049872 111.52456 
L 790.427488 110.11607 
L 795.261973 108.494605 
L 797.718843 104.598828 
L 800.175713 104.627309 
L 802.553328 105.240252 
L 805.010198 106.99222 
L 807.387814 102.013205 
L 809.844683 99.327554 
L 812.301553 96.880586 
L 814.520661 91.563115 
L 816.977531 92.170372 
L 819.355146 91.181856 
L 821.812016 89.090157 
L 824.189632 88.084677 
L 826.646501 85.053295 
L 829.103371 84.594968 
L 831.480987 81.915876 
L 833.937856 78.356923 
L 836.315472 73.261901 
L 838.772342 71.214269 
L 841.229211 60.533605 
L 843.448319 68.213316 
L 845.905189 72.70554 
L 848.282805 72.832195 
L 850.739674 68.994205 
L 853.11729 69.133739 
L 855.57416 62.499513 
L 858.031029 58.277086 
L 860.408645 55.660281 
L 862.865515 66.853438 
L 865.24313 62.386874 
L 867.7 77.633289 
L 867.7 77.633289 
" clip-path="url(#pc48e7b082e)" style="fill: none; stroke-dasharray: 12.8,3.2,2,3.2; stroke-dashoffset: 0; stroke: #f0e442; stroke-width: 2"/>
   </g>
   <g id="line2d_31">
    <path d="M 30.7 228.514701 
L 37.753593 229.456413 
L 40.210463 229.345837 
L 42.588079 229.558034 
L 45.044948 228.863469 
L 47.501818 229.251785 
L 49.879434 229.038172 
L 52.336303 228.063413 
L 54.713919 227.588392 
L 57.170789 227.774115 
L 59.627658 228.474141 
L 61.846766 228.151947 
L 66.681252 228.540049 
L 69.138121 228.431621 
L 71.515737 228.115732 
L 73.972607 227.366071 
L 76.429476 227.501884 
L 78.807092 226.366712 
L 81.263962 225.675699 
L 83.641578 225.991974 
L 86.098447 225.392199 
L 88.555317 226.651557 
L 93.310548 227.475128 
L 95.688164 226.585141 
L 98.145034 226.27015 
L 100.522649 226.491317 
L 102.979519 226.11871 
L 110.270874 227.636828 
L 112.64849 227.748412 
L 115.105359 227.518642 
L 117.562229 227.536155 
L 119.781337 226.625763 
L 122.238207 227.108355 
L 124.615822 227.307743 
L 127.072692 227.23309 
L 129.450308 227.376986 
L 131.907177 227.214783 
L 134.364047 226.883111 
L 136.741663 226.856201 
L 139.198532 226.635221 
L 141.576148 227.005215 
L 144.033018 226.640332 
L 146.489887 226.660741 
L 148.708995 227.259998 
L 151.165865 227.763652 
L 153.543481 227.848362 
L 156.00035 228.113315 
L 158.377966 228.713574 
L 163.291705 228.25186 
L 165.669321 228.424592 
L 168.126191 228.428081 
L 170.503806 228.67113 
L 172.960676 228.618851 
L 175.417546 228.446925 
L 177.636654 228.414991 
L 180.093523 227.869321 
L 182.471139 227.644673 
L 184.928009 227.212528 
L 187.305624 227.279236 
L 189.762494 227.127731 
L 192.219364 227.327655 
L 194.596979 227.056883 
L 197.053849 227.401198 
L 201.888334 226.848925 
L 204.345204 226.143472 
L 206.643566 226.218935 
L 209.100436 226.094074 
L 211.478051 226.278356 
L 213.934921 225.955743 
L 216.312537 226.02852 
L 218.769406 226.798348 
L 223.603892 226.248563 
L 226.060761 226.165467 
L 228.438377 225.249454 
L 230.895247 225.331952 
L 233.352116 225.286013 
L 235.571224 225.05764 
L 238.028094 225.38841 
L 240.40571 224.76915 
L 242.862579 223.799121 
L 245.240195 223.125792 
L 247.697065 222.048736 
L 250.153934 223.281565 
L 252.53155 222.678572 
L 254.98842 222.986068 
L 257.366035 222.279374 
L 259.822905 222.171132 
L 262.279775 222.185421 
L 264.498883 221.581476 
L 266.955752 220.327418 
L 271.790238 220.848986 
L 274.167853 220.353315 
L 276.624723 220.90139 
L 279.081593 221.901022 
L 281.459208 219.845072 
L 283.916078 220.185279 
L 286.293694 219.092102 
L 288.750563 218.671756 
L 291.207433 219.402307 
L 293.426541 220.618441 
L 295.883411 221.345796 
L 298.261026 219.819552 
L 300.717896 220.753443 
L 303.095512 220.969798 
L 305.552381 221.017568 
L 308.009251 220.90463 
L 310.386867 222.130013 
L 315.221352 222.723974 
L 320.135091 223.873711 
L 322.433453 226.416384 
L 324.890323 225.427775 
L 329.724808 224.965494 
L 332.102424 225.206467 
L 334.559294 225.739848 
L 337.016163 224.589803 
L 339.393779 225.161069 
L 341.850649 224.773444 
L 344.228264 224.793549 
L 346.685134 224.389482 
L 351.361112 225.201277 
L 353.817981 225.401021 
L 356.195597 224.568002 
L 358.652467 224.28575 
L 361.030082 225.777794 
L 363.486952 225.374448 
L 365.943822 225.607382 
L 368.321437 225.958948 
L 370.778307 226.05533 
L 373.155923 225.665425 
L 375.612792 225.528373 
L 378.069662 225.994584 
L 380.28877 225.597884 
L 382.74564 225.486796 
L 387.580125 225.991218 
L 392.41461 227.956506 
L 394.87148 227.929683 
L 397.249096 228.65956 
L 399.705965 228.486462 
L 402.083581 228.578999 
L 404.540451 228.286308 
L 406.99732 228.604481 
L 409.216428 228.543875 
L 416.507783 227.903967 
L 418.885399 227.780959 
L 421.342269 228.011062 
L 428.633624 227.684846 
L 431.011239 227.63339 
L 433.468109 227.164286 
L 435.924979 227.252799 
L 438.223341 227.030383 
L 440.68021 227.140793 
L 443.057826 226.914445 
L 447.892311 226.826039 
L 450.349181 227.143799 
L 455.183666 226.82672 
L 457.640536 226.67312 
L 460.018152 226.195134 
L 462.475021 225.877156 
L 464.931891 226.042078 
L 467.150999 225.871122 
L 469.607869 226.212288 
L 474.442354 225.860406 
L 476.81997 226.01356 
L 479.276839 225.638523 
L 486.568194 225.913862 
L 488.94581 225.815584 
L 491.40268 226.030292 
L 493.859549 225.734877 
L 498.535527 225.52218 
L 500.913143 225.314884 
L 503.370012 225.594962 
L 505.747628 225.633532 
L 508.204498 225.229993 
L 510.661367 225.007525 
L 513.038983 224.94585 
L 515.495853 224.543015 
L 520.330338 224.45823 
L 522.787208 224.513224 
L 525.006316 224.880838 
L 527.463185 224.855122 
L 529.840801 224.502196 
L 532.297671 224.394394 
L 534.675286 224.833412 
L 537.132156 225.081171 
L 541.966641 224.380056 
L 544.423511 224.169455 
L 546.801127 224.1651 
L 549.257996 224.398764 
L 556.470098 224.752229 
L 558.847713 224.642691 
L 561.304583 224.274856 
L 563.682199 225.113639 
L 566.139068 225.01706 
L 568.595938 224.722434 
L 570.973554 224.94396 
L 573.430423 226.587055 
L 575.808039 226.761477 
L 578.264909 227.096709 
L 580.721778 227.847908 
L 582.940886 229.058829 
L 585.397756 228.851341 
L 587.775372 229.767315 
L 590.232241 229.467949 
L 595.066727 229.106519 
L 597.523596 229.188309 
L 599.901212 228.920125 
L 602.358082 228.90248 
L 604.735697 228.148064 
L 607.192567 228.029248 
L 611.868545 228.123544 
L 614.325414 227.963045 
L 616.70303 228.104578 
L 619.1599 228.812365 
L 621.537515 228.982686 
L 623.994385 228.667774 
L 626.451255 228.809016 
L 628.82887 228.130581 
L 631.28574 228.173214 
L 636.120225 227.811121 
L 638.577095 227.834802 
L 640.796203 227.421724 
L 643.253073 227.32981 
L 645.630688 226.883561 
L 648.087558 226.615974 
L 650.465174 226.895916 
L 652.922043 227.019368 
L 657.756529 226.613679 
L 665.047884 225.530428 
L 667.504753 225.749193 
L 669.803115 225.601209 
L 674.637601 224.874724 
L 677.09447 224.741033 
L 681.928956 223.863867 
L 684.385825 223.933577 
L 686.763441 223.691565 
L 689.220311 224.179731 
L 694.054796 224.60867 
L 701.187643 222.661341 
L 703.565259 222.1932 
L 706.022129 222.855066 
L 708.399744 222.739631 
L 710.856614 221.935863 
L 713.313484 222.554507 
L 715.691099 222.413437 
L 720.525585 221.602508 
L 722.982454 221.696662 
L 725.439324 222.16315 
L 727.658432 221.633088 
L 730.115302 221.193746 
L 732.492917 220.90397 
L 739.784272 220.76346 
L 742.241142 219.777038 
L 744.618758 219.622859 
L 747.075627 219.295851 
L 749.453243 218.853234 
L 763.877445 219.393294 
L 766.255061 220.137302 
L 768.711931 219.932992 
L 771.1688 220.645517 
L 773.546416 220.431393 
L 776.003286 219.813808 
L 778.380901 219.841995 
L 780.837771 219.990577 
L 783.294641 219.960858 
L 785.593003 220.284804 
L 788.049872 218.835267 
L 790.427488 218.940799 
L 792.884358 219.318006 
L 795.261973 218.276572 
L 797.718843 217.906636 
L 800.175713 218.731394 
L 802.553328 219.272433 
L 805.010198 219.713317 
L 807.387814 219.559874 
L 809.844683 218.934388 
L 812.301553 218.812053 
L 814.520661 218.097542 
L 816.977531 218.38257 
L 819.355146 218.43968 
L 821.812016 218.16132 
L 824.189632 218.269342 
L 826.646501 217.742153 
L 831.480987 217.512089 
L 836.315472 215.948779 
L 838.772342 215.728477 
L 841.229211 214.644776 
L 843.448319 216.590466 
L 845.905189 216.631294 
L 848.282805 216.453126 
L 850.739674 215.936664 
L 853.11729 215.699808 
L 855.57416 215.19207 
L 858.031029 214.353942 
L 860.408645 214.192324 
L 862.865515 214.920842 
L 865.24313 214.232667 
L 867.7 215.99972 
L 867.7 215.99972 
" clip-path="url(#pc48e7b082e)" style="fill: none; stroke: #1f77b4; stroke-width: 2; stroke-linecap: square"/>
   </g>
   <g id="line2d_32">
    <path d="M 0 0 
" clip-path="url(#pc48e7b082e)" style="fill: none; stroke-dasharray: 7.4,3.2; stroke-dashoffset: 0; stroke: #aec7e8; stroke-width: 2"/>
   </g>
   <g id="line2d_33">
    <path d="M 0 0 
" clip-path="url(#pc48e7b082e)" style="fill: none; stroke-dasharray: 12.8,3.2,2,3.2; stroke-dashoffset: 0; stroke: #ff7f0e; stroke-width: 2"/>
   </g>
   <g id="line2d_34">
    <path d="M 30.7 228.514701 
L 32.919108 228.289789 
L 35.375978 228.643523 
L 37.753593 229.339187 
L 40.210463 228.737224 
L 42.588079 228.955542 
L 45.044948 228.424186 
L 47.501818 228.962002 
L 49.879434 228.745785 
L 52.336303 227.622839 
L 54.713919 227.258779 
L 57.170789 227.339062 
L 59.627658 227.951934 
L 61.846766 227.541842 
L 64.303636 227.624651 
L 66.681252 227.938912 
L 71.515737 227.741741 
L 73.972607 227.173364 
L 76.429476 227.132925 
L 78.807092 226.190688 
L 81.263962 225.814614 
L 83.641578 225.721133 
L 86.098447 225.130464 
L 88.555317 226.545328 
L 90.853679 227.150213 
L 93.310548 227.432823 
L 95.688164 226.69633 
L 98.145034 226.415493 
L 100.522649 226.373731 
L 102.979519 225.758361 
L 105.436389 226.063083 
L 112.64849 226.560722 
L 115.105359 226.093184 
L 117.562229 225.88711 
L 119.781337 224.817283 
L 122.238207 225.071989 
L 129.450308 225.384717 
L 131.907177 225.259156 
L 134.364047 224.957999 
L 136.741663 224.876061 
L 139.198532 225.046151 
L 141.576148 225.667757 
L 144.033018 225.461333 
L 146.489887 225.648945 
L 151.165865 226.86735 
L 153.543481 226.748685 
L 158.377966 227.990114 
L 160.834836 227.562652 
L 163.291705 227.379008 
L 165.669321 227.650139 
L 168.126191 227.425907 
L 170.503806 227.342133 
L 172.960676 227.391604 
L 175.417546 227.011684 
L 180.093523 226.927801 
L 182.471139 226.653794 
L 184.928009 225.886529 
L 189.762494 226.189029 
L 192.219364 226.582467 
L 194.596979 226.086862 
L 199.431465 225.719903 
L 204.345204 224.757045 
L 206.643566 225.299397 
L 209.100436 225.391642 
L 211.478051 225.627591 
L 213.934921 225.24861 
L 216.312537 225.017378 
L 218.769406 226.006274 
L 221.226276 225.643329 
L 226.060761 225.380672 
L 228.438377 224.76545 
L 233.352116 224.761462 
L 235.571224 224.52004 
L 238.028094 224.771307 
L 240.40571 224.42902 
L 242.862579 223.447554 
L 245.240195 222.943404 
L 247.697065 222.253048 
L 250.153934 223.180272 
L 252.53155 222.488268 
L 254.98842 222.545927 
L 257.366035 221.601817 
L 259.822905 221.439314 
L 262.279775 221.624895 
L 264.498883 221.307738 
L 266.955752 219.850785 
L 269.333368 220.505989 
L 274.167853 220.411474 
L 276.624723 221.399309 
L 279.081593 220.711934 
L 281.459208 218.827594 
L 283.916078 219.970134 
L 286.293694 220.138839 
L 288.750563 220.424779 
L 293.426541 222.309559 
L 295.883411 223.129828 
L 298.261026 221.449636 
L 300.717896 221.5515 
L 303.095512 222.092418 
L 305.552381 222.009787 
L 308.009251 222.051294 
L 310.386867 222.702936 
L 312.843736 223.059709 
L 315.221352 223.598495 
L 317.678222 223.91148 
L 320.135091 224.799114 
L 322.433453 227.115048 
L 329.724808 225.421322 
L 332.102424 225.276553 
L 334.559294 225.843893 
L 337.016163 224.52451 
L 341.850649 223.578069 
L 344.228264 222.923384 
L 346.685134 222.733468 
L 349.142004 223.964617 
L 351.361112 223.598429 
L 353.817981 223.785019 
L 356.195597 222.940222 
L 358.652467 222.93343 
L 361.030082 224.287427 
L 363.486952 224.009873 
L 365.943822 224.083489 
L 368.321437 224.730309 
L 370.778307 224.572298 
L 373.155923 224.531646 
L 375.612792 224.345141 
L 378.069662 224.747824 
L 380.28877 224.27277 
L 382.74564 223.981791 
L 387.580125 224.752863 
L 389.957741 225.725342 
L 392.41461 226.555935 
L 394.87148 226.574796 
L 397.249096 227.499559 
L 399.705965 226.967502 
L 404.540451 226.682471 
L 406.99732 227.052634 
L 409.216428 227.265616 
L 414.050914 226.810911 
L 416.507783 226.327326 
L 418.885399 226.208174 
L 421.342269 226.748546 
L 431.011239 226.494173 
L 433.468109 225.71638 
L 438.223341 225.41224 
L 440.68021 225.572789 
L 443.057826 225.121145 
L 445.514696 225.194164 
L 447.892311 225.094457 
L 450.349181 225.487544 
L 452.806051 225.1988 
L 455.183666 225.305218 
L 457.640536 225.076864 
L 462.475021 224.229 
L 464.931891 224.223088 
L 467.150999 223.834329 
L 469.607869 224.070878 
L 474.442354 223.893675 
L 476.81997 224.248064 
L 479.276839 223.967058 
L 484.111325 224.321135 
L 488.94581 224.088067 
L 493.859549 224.247495 
L 500.913143 223.73632 
L 503.370012 223.69299 
L 505.747628 223.786624 
L 510.661367 222.806688 
L 513.038983 222.639861 
L 515.495853 222.177666 
L 517.873468 222.140601 
L 520.330338 221.950428 
L 522.787208 221.94446 
L 525.006316 222.344316 
L 527.463185 222.448708 
L 529.840801 222.019325 
L 532.297671 222.235723 
L 534.675286 222.866151 
L 537.132156 223.098681 
L 541.966641 222.0267 
L 544.423511 221.904082 
L 546.801127 221.389371 
L 549.257996 221.904241 
L 551.714866 222.02933 
L 554.013228 222.400539 
L 556.470098 222.503167 
L 558.847713 222.768039 
L 561.304583 222.615033 
L 563.682199 223.548933 
L 566.139068 222.875141 
L 568.595938 222.457111 
L 570.973554 221.920031 
L 573.430423 223.557317 
L 578.264909 224.101188 
L 580.721778 224.839463 
L 582.940886 225.858657 
L 585.397756 225.567287 
L 587.775372 227.021132 
L 590.232241 227.097244 
L 592.609857 226.528524 
L 595.066727 226.255194 
L 597.523596 226.469243 
L 602.358082 226.114291 
L 604.735697 225.421477 
L 607.192567 225.201509 
L 611.868545 225.133541 
L 614.325414 225.037081 
L 616.70303 225.272885 
L 619.1599 226.042325 
L 621.537515 226.015808 
L 623.994385 225.747994 
L 626.451255 225.724469 
L 628.82887 225.078347 
L 631.28574 225.007215 
L 633.663356 225.361695 
L 636.120225 225.11956 
L 638.577095 225.302744 
L 640.796203 224.904673 
L 643.253073 224.736512 
L 645.630688 223.899637 
L 648.087558 223.333742 
L 650.465174 223.457869 
L 652.922043 223.84289 
L 655.378913 223.275354 
L 657.756529 222.489468 
L 660.213398 222.464092 
L 665.047884 221.130957 
L 667.504753 221.689 
L 669.803115 221.581202 
L 672.259985 220.764724 
L 677.09447 219.948938 
L 679.472086 219.170507 
L 681.928956 218.536167 
L 684.385825 219.076538 
L 686.763441 218.670628 
L 689.220311 219.131741 
L 691.597926 218.991696 
L 694.054796 219.342709 
L 698.730774 217.274441 
L 701.187643 215.86717 
L 703.565259 215.0784 
L 706.022129 216.453835 
L 708.399744 216.286044 
L 710.856614 215.320474 
L 713.313484 216.680914 
L 715.691099 216.621788 
L 718.147969 215.476248 
L 720.525585 215.031349 
L 722.982454 215.148894 
L 725.439324 215.530765 
L 727.658432 215.216679 
L 730.115302 214.328281 
L 732.492917 213.605926 
L 734.949787 213.965415 
L 737.327403 213.890662 
L 739.784272 214.31128 
L 742.241142 213.065634 
L 744.618758 212.691346 
L 747.075627 211.643387 
L 749.453243 210.073581 
L 754.366982 209.954486 
L 756.58609 210.641173 
L 759.04296 210.861449 
L 761.420576 211.432734 
L 763.877445 211.287673 
L 766.255061 212.275737 
L 768.711931 211.522363 
L 771.1688 212.77299 
L 773.546416 212.72442 
L 776.003286 212.225144 
L 778.380901 212.490969 
L 783.294641 211.148106 
L 785.593003 211.316246 
L 788.049872 209.712648 
L 790.427488 209.58103 
L 792.884358 209.611966 
L 795.261973 207.737622 
L 797.718843 207.635205 
L 800.175713 208.648322 
L 802.553328 209.374525 
L 805.010198 209.984343 
L 807.387814 209.527025 
L 809.844683 208.299449 
L 812.301553 208.091727 
L 814.520661 206.773718 
L 816.977531 207.411874 
L 819.355146 207.322927 
L 821.812016 207.096322 
L 824.189632 207.426062 
L 826.646501 207.12088 
L 829.103371 207.177503 
L 831.480987 206.974708 
L 833.937856 207.463392 
L 836.315472 206.247356 
L 841.229211 206.21271 
L 843.448319 209.932467 
L 845.905189 210.006362 
L 848.282805 209.633636 
L 850.739674 209.96603 
L 853.11729 209.035772 
L 855.57416 207.377649 
L 858.031029 206.593262 
L 860.408645 206.00043 
L 862.865515 205.822096 
L 865.24313 203.927418 
L 867.7 206.51118 
L 867.7 206.51118 
" clip-path="url(#pc48e7b082e)" style="fill: none; stroke-dasharray: 2,3.3; stroke-dashoffset: 0; stroke: #ffbb78; stroke-width: 2"/>
   </g>
   <g id="patch_3">
    <path d="M 30.7 238.70175 
L 30.7 16.94175 
" style="fill: none; stroke: #000000; stroke-width: 0.8; stroke-linejoin: miter; stroke-linecap: square"/>
   </g>
   <g id="patch_4">
    <path d="M 30.7 238.70175 
L 867.7 238.70175 
" style="fill: none; stroke: #000000; stroke-width: 0.8; stroke-linejoin: miter; stroke-linecap: square"/>
   </g>
   <g id="text_16">
    <!-- 100_LTOTMKUS - Performance -->
    <g transform="translate(340.99075 10.94175) scale(0.144 -0.144)">
     <defs>
      <path id="DejaVuSans-5f" d="M 3263 -1063 
L 3263 -1509 
L -63 -1509 
L -63 -1063 
L 3263 -1063 
z
" transform="scale(0.015625)"/>
      <path id="DejaVuSans-4c" d="M 628 4666 
L 1259 4666 
L 1259 531 
L 3531 531 
L 3531 0 
L 628 0 
L 628 4666 
z
" transform="scale(0.015625)"/>
      <path id="DejaVuSans-54" d="M -19 4666 
L 3928 4666 
L 3928 4134 
L 2272 4134 
L 2272 0 
L 1638 0 
L 1638 4134 
L -19 4134 
L -19 4666 
z
" transform="scale(0.015625)"/>
      <path id="DejaVuSans-4f" d="M 2522 4238 
Q 1834 4238 1429 3725 
Q 1025 3213 1025 2328 
Q 1025 1447 1429 934 
Q 1834 422 2522 422 
Q 3209 422 3611 934 
Q 4013 1447 4013 2328 
Q 4013 3213 3611 3725 
Q 3209 4238 2522 4238 
z
M 2522 4750 
Q 3503 4750 4090 4092 
Q 4678 3434 4678 2328 
Q 4678 1225 4090 567 
Q 3503 -91 2522 -91 
Q 1538 -91 948 565 
Q 359 1222 359 2328 
Q 359 3434 948 4092 
Q 1538 4750 2522 4750 
z
" transform="scale(0.015625)"/>
      <path id="DejaVuSans-4d" d="M 628 4666 
L 1569 4666 
L 2759 1491 
L 3956 4666 
L 4897 4666 
L 4897 0 
L 4281 0 
L 4281 4097 
L 3078 897 
L 2444 897 
L 1241 4097 
L 1241 0 
L 628 0 
L 628 4666 
z
" transform="scale(0.015625)"/>
      <path id="DejaVuSans-4b" d="M 628 4666 
L 1259 4666 
L 1259 2694 
L 3353 4666 
L 4166 4666 
L 1850 2491 
L 4331 0 
L 3500 0 
L 1259 2247 
L 1259 0 
L 628 0 
L 628 4666 
z
" transform="scale(0.015625)"/>
      <path id="DejaVuSans-55" d="M 556 4666 
L 1191 4666 
L 1191 1831 
Q 1191 1081 1462 751 
Q 1734 422 2344 422 
Q 2950 422 3222 751 
Q 3494 1081 3494 1831 
L 3494 4666 
L 4128 4666 
L 4128 1753 
Q 4128 841 3676 375 
Q 3225 -91 2344 -91 
Q 1459 -91 1007 375 
Q 556 841 556 1753 
L 556 4666 
z
" transform="scale(0.015625)"/>
      <path id="DejaVuSans-53" d="M 3425 4513 
L 3425 3897 
Q 3066 4069 2747 4153 
Q 2428 4238 2131 4238 
Q 1616 4238 1336 4038 
Q 1056 3838 1056 3469 
Q 1056 3159 1242 3001 
Q 1428 2844 1947 2747 
L 2328 2669 
Q 3034 2534 3370 2195 
Q 3706 1856 3706 1288 
Q 3706 609 3251 259 
Q 2797 -91 1919 -91 
Q 1588 -91 1214 -16 
Q 841 59 441 206 
L 441 856 
Q 825 641 1194 531 
Q 1563 422 1919 422 
Q 2459 422 2753 634 
Q 3047 847 3047 1241 
Q 3047 1584 2836 1778 
Q 2625 1972 2144 2069 
L 1759 2144 
Q 1053 2284 737 2584 
Q 422 2884 422 3419 
Q 422 4038 858 4394 
Q 1294 4750 2059 4750 
Q 2388 4750 2728 4690 
Q 3069 4631 3425 4513 
z
" transform="scale(0.015625)"/>
      <path id="DejaVuSans-20" transform="scale(0.015625)"/>
      <path id="DejaVuSans-2d" d="M 313 2009 
L 1997 2009 
L 1997 1497 
L 313 1497 
L 313 2009 
z
" transform="scale(0.015625)"/>
      <path id="DejaVuSans-50" d="M 1259 4147 
L 1259 2394 
L 2053 2394 
Q 2494 2394 2734 2622 
Q 2975 2850 2975 3272 
Q 2975 3691 2734 3919 
Q 2494 4147 2053 4147 
L 1259 4147 
z
M 628 4666 
L 2053 4666 
Q 2838 4666 3239 4311 
Q 3641 3956 3641 3272 
Q 3641 2581 3239 2228 
Q 2838 1875 2053 1875 
L 1259 1875 
L 1259 0 
L 628 0 
L 628 4666 
z
" transform="scale(0.015625)"/>
      <path id="DejaVuSans-65" d="M 3597 1894 
L 3597 1613 
L 953 1613 
Q 991 1019 1311 708 
Q 1631 397 2203 397 
Q 2534 397 2845 478 
Q 3156 559 3463 722 
L 3463 178 
Q 3153 47 2828 -22 
Q 2503 -91 2169 -91 
Q 1331 -91 842 396 
Q 353 884 353 1716 
Q 353 2575 817 3079 
Q 1281 3584 2069 3584 
Q 2775 3584 3186 3129 
Q 3597 2675 3597 1894 
z
M 3022 2063 
Q 3016 2534 2758 2815 
Q 2500 3097 2075 3097 
Q 1594 3097 1305 2825 
Q 1016 2553 972 2059 
L 3022 2063 
z
" transform="scale(0.015625)"/>
      <path id="DejaVuSans-72" d="M 2631 2963 
Q 2534 3019 2420 3045 
Q 2306 3072 2169 3072 
Q 1681 3072 1420 2755 
Q 1159 2438 1159 1844 
L 1159 0 
L 581 0 
L 581 3500 
L 1159 3500 
L 1159 2956 
Q 1341 3275 1631 3429 
Q 1922 3584 2338 3584 
Q 2397 3584 2469 3576 
Q 2541 3569 2628 3553 
L 2631 2963 
z
" transform="scale(0.015625)"/>
      <path id="DejaVuSans-66" d="M 2375 4863 
L 2375 4384 
L 1825 4384 
Q 1516 4384 1395 4259 
Q 1275 4134 1275 3809 
L 1275 3500 
L 2222 3500 
L 2222 3053 
L 1275 3053 
L 1275 0 
L 697 0 
L 697 3053 
L 147 3053 
L 147 3500 
L 697 3500 
L 697 3744 
Q 697 4328 969 4595 
Q 1241 4863 1831 4863 
L 2375 4863 
z
" transform="scale(0.015625)"/>
      <path id="DejaVuSans-6f" d="M 1959 3097 
Q 1497 3097 1228 2736 
Q 959 2375 959 1747 
Q 959 1119 1226 758 
Q 1494 397 1959 397 
Q 2419 397 2687 759 
Q 2956 1122 2956 1747 
Q 2956 2369 2687 2733 
Q 2419 3097 1959 3097 
z
M 1959 3584 
Q 2709 3584 3137 3096 
Q 3566 2609 3566 1747 
Q 3566 888 3137 398 
Q 2709 -91 1959 -91 
Q 1206 -91 779 398 
Q 353 888 353 1747 
Q 353 2609 779 3096 
Q 1206 3584 1959 3584 
z
" transform="scale(0.015625)"/>
      <path id="DejaVuSans-6d" d="M 3328 2828 
Q 3544 3216 3844 3400 
Q 4144 3584 4550 3584 
Q 5097 3584 5394 3201 
Q 5691 2819 5691 2113 
L 5691 0 
L 5113 0 
L 5113 2094 
Q 5113 2597 4934 2840 
Q 4756 3084 4391 3084 
Q 3944 3084 3684 2787 
Q 3425 2491 3425 1978 
L 3425 0 
L 2847 0 
L 2847 2094 
Q 2847 2600 2669 2842 
Q 2491 3084 2119 3084 
Q 1678 3084 1418 2786 
Q 1159 2488 1159 1978 
L 1159 0 
L 581 0 
L 581 3500 
L 1159 3500 
L 1159 2956 
Q 1356 3278 1631 3431 
Q 1906 3584 2284 3584 
Q 2666 3584 2933 3390 
Q 3200 3197 3328 2828 
z
" transform="scale(0.015625)"/>
      <path id="DejaVuSans-61" d="M 2194 1759 
Q 1497 1759 1228 1600 
Q 959 1441 959 1056 
Q 959 750 1161 570 
Q 1363 391 1709 391 
Q 2188 391 2477 730 
Q 2766 1069 2766 1631 
L 2766 1759 
L 2194 1759 
z
M 3341 1997 
L 3341 0 
L 2766 0 
L 2766 531 
Q 2569 213 2275 61 
Q 1981 -91 1556 -91 
Q 1019 -91 701 211 
Q 384 513 384 1019 
Q 384 1609 779 1909 
Q 1175 2209 1959 2209 
L 2766 2209 
L 2766 2266 
Q 2766 2663 2505 2880 
Q 2244 3097 1772 3097 
Q 1472 3097 1187 3025 
Q 903 2953 641 2809 
L 641 3341 
Q 956 3463 1253 3523 
Q 1550 3584 1831 3584 
Q 2591 3584 2966 3190 
Q 3341 2797 3341 1997 
z
" transform="scale(0.015625)"/>
      <path id="DejaVuSans-6e" d="M 3513 2113 
L 3513 0 
L 2938 0 
L 2938 2094 
Q 2938 2591 2744 2837 
Q 2550 3084 2163 3084 
Q 1697 3084 1428 2787 
Q 1159 2491 1159 1978 
L 1159 0 
L 581 0 
L 581 3500 
L 1159 3500 
L 1159 2956 
Q 1366 3272 1645 3428 
Q 1925 3584 2291 3584 
Q 2894 3584 3203 3211 
Q 3513 2838 3513 2113 
z
" transform="scale(0.015625)"/>
      <path id="DejaVuSans-63" d="M 3122 3366 
L 3122 2828 
Q 2878 2963 2633 3030 
Q 2388 3097 2138 3097 
Q 1578 3097 1268 2742 
Q 959 2388 959 1747 
Q 959 1106 1268 751 
Q 1578 397 2138 397 
Q 2388 397 2633 464 
Q 2878 531 3122 666 
L 3122 134 
Q 2881 22 2623 -34 
Q 2366 -91 2075 -91 
Q 1284 -91 818 406 
Q 353 903 353 1747 
Q 353 2603 823 3093 
Q 1294 3584 2113 3584 
Q 2378 3584 2631 3529 
Q 2884 3475 3122 3366 
z
" transform="scale(0.015625)"/>
     </defs>
     <use xlink:href="#DejaVuSans-31"/>
     <use xlink:href="#DejaVuSans-30" x="63.623047"/>
     <use xlink:href="#DejaVuSans-30" x="127.246094"/>
     <use xlink:href="#DejaVuSans-5f" x="190.869141"/>
     <use xlink:href="#DejaVuSans-4c" x="240.869141"/>
     <use xlink:href="#DejaVuSans-54" x="282.832031"/>
     <use xlink:href="#DejaVuSans-4f" x="343.916016"/>
     <use xlink:href="#DejaVuSans-54" x="422.626953"/>
     <use xlink:href="#DejaVuSans-4d" x="483.710938"/>
     <use xlink:href="#DejaVuSans-4b" x="569.990234"/>
     <use xlink:href="#DejaVuSans-55" x="632.941406"/>
     <use xlink:href="#DejaVuSans-53" x="706.134766"/>
     <use xlink:href="#DejaVuSans-20" x="769.611328"/>
     <use xlink:href="#DejaVuSans-2d" x="801.398438"/>
     <use xlink:href="#DejaVuSans-20" x="837.482422"/>
     <use xlink:href="#DejaVuSans-50" x="869.269531"/>
     <use xlink:href="#DejaVuSans-65" x="925.947266"/>
     <use xlink:href="#DejaVuSans-72" x="987.470703"/>
     <use xlink:href="#DejaVuSans-66" x="1028.583984"/>
     <use xlink:href="#DejaVuSans-6f" x="1063.789062"/>
     <use xlink:href="#DejaVuSans-72" x="1124.970703"/>
     <use xlink:href="#DejaVuSans-6d" x="1164.333984"/>
     <use xlink:href="#DejaVuSans-61" x="1261.746094"/>
     <use xlink:href="#DejaVuSans-6e" x="1323.025391"/>
     <use xlink:href="#DejaVuSans-63" x="1386.404297"/>
     <use xlink:href="#DejaVuSans-65" x="1441.384766"/>
    </g>
   </g>
   <g id="legend_1">
    <g id="line2d_35">
     <path d="M 39.7 30.040188 
L 49.7 30.040188 
L 59.7 30.040188 
" style="fill: none; stroke: #e69f00; stroke-width: 2; stroke-linecap: square"/>
    </g>
    <g id="text_17">
     <!-- 1/N -->
     <g transform="translate(67.7 33.540188) scale(0.1 -0.1)">
      <defs>
       <path id="DejaVuSans-2f" d="M 1625 4666 
L 2156 4666 
L 531 -594 
L 0 -594 
L 1625 4666 
z
" transform="scale(0.015625)"/>
       <path id="DejaVuSans-4e" d="M 628 4666 
L 1478 4666 
L 3547 763 
L 3547 4666 
L 4159 4666 
L 4159 0 
L 3309 0 
L 1241 3903 
L 1241 0 
L 628 0 
L 628 4666 
z
" transform="scale(0.015625)"/>
      </defs>
      <use xlink:href="#DejaVuSans-31"/>
      <use xlink:href="#DejaVuSans-2f" x="63.623047"/>
      <use xlink:href="#DejaVuSans-4e" x="97.314453"/>
     </g>
    </g>
    <g id="line2d_36">
     <path d="M 39.7 44.718313 
L 49.7 44.718313 
L 59.7 44.718313 
" style="fill: none; stroke-dasharray: 7.4,3.2; stroke-dashoffset: 0; stroke: #56b4e9; stroke-width: 2"/>
    </g>
    <g id="text_18">
     <!-- GMVP -->
     <g transform="translate(67.7 48.218313) scale(0.1 -0.1)">
      <defs>
       <path id="DejaVuSans-47" d="M 3809 666 
L 3809 1919 
L 2778 1919 
L 2778 2438 
L 4434 2438 
L 4434 434 
Q 4069 175 3628 42 
Q 3188 -91 2688 -91 
Q 1594 -91 976 548 
Q 359 1188 359 2328 
Q 359 3472 976 4111 
Q 1594 4750 2688 4750 
Q 3144 4750 3555 4637 
Q 3966 4525 4313 4306 
L 4313 3634 
Q 3963 3931 3569 4081 
Q 3175 4231 2741 4231 
Q 1884 4231 1454 3753 
Q 1025 3275 1025 2328 
Q 1025 1384 1454 906 
Q 1884 428 2741 428 
Q 3075 428 3337 486 
Q 3600 544 3809 666 
z
" transform="scale(0.015625)"/>
       <path id="DejaVuSans-56" d="M 1831 0 
L 50 4666 
L 709 4666 
L 2188 738 
L 3669 4666 
L 4325 4666 
L 2547 0 
L 1831 0 
z
" transform="scale(0.015625)"/>
      </defs>
      <use xlink:href="#DejaVuSans-47"/>
      <use xlink:href="#DejaVuSans-4d" x="77.490234"/>
      <use xlink:href="#DejaVuSans-56" x="163.769531"/>
      <use xlink:href="#DejaVuSans-50" x="232.177734"/>
     </g>
    </g>
    <g id="line2d_37">
     <path d="M 39.7 59.396438 
L 49.7 59.396438 
L 59.7 59.396438 
" style="fill: none; stroke-dasharray: 12.8,3.2,2,3.2; stroke-dashoffset: 0; stroke: #009e73; stroke-width: 2"/>
    </g>
    <g id="text_19">
     <!-- Empirical Bayes -->
     <g transform="translate(67.7 62.896438) scale(0.1 -0.1)">
      <defs>
       <path id="DejaVuSans-45" d="M 628 4666 
L 3578 4666 
L 3578 4134 
L 1259 4134 
L 1259 2753 
L 3481 2753 
L 3481 2222 
L 1259 2222 
L 1259 531 
L 3634 531 
L 3634 0 
L 628 0 
L 628 4666 
z
" transform="scale(0.015625)"/>
       <path id="DejaVuSans-70" d="M 1159 525 
L 1159 -1331 
L 581 -1331 
L 581 3500 
L 1159 3500 
L 1159 2969 
Q 1341 3281 1617 3432 
Q 1894 3584 2278 3584 
Q 2916 3584 3314 3078 
Q 3713 2572 3713 1747 
Q 3713 922 3314 415 
Q 2916 -91 2278 -91 
Q 1894 -91 1617 61 
Q 1341 213 1159 525 
z
M 3116 1747 
Q 3116 2381 2855 2742 
Q 2594 3103 2138 3103 
Q 1681 3103 1420 2742 
Q 1159 2381 1159 1747 
Q 1159 1113 1420 752 
Q 1681 391 2138 391 
Q 2594 391 2855 752 
Q 3116 1113 3116 1747 
z
" transform="scale(0.015625)"/>
       <path id="DejaVuSans-69" d="M 603 3500 
L 1178 3500 
L 1178 0 
L 603 0 
L 603 3500 
z
M 603 4863 
L 1178 4863 
L 1178 4134 
L 603 4134 
L 603 4863 
z
" transform="scale(0.015625)"/>
       <path id="DejaVuSans-6c" d="M 603 4863 
L 1178 4863 
L 1178 0 
L 603 0 
L 603 4863 
z
" transform="scale(0.015625)"/>
       <path id="DejaVuSans-42" d="M 1259 2228 
L 1259 519 
L 2272 519 
Q 2781 519 3026 730 
Q 3272 941 3272 1375 
Q 3272 1813 3026 2020 
Q 2781 2228 2272 2228 
L 1259 2228 
z
M 1259 4147 
L 1259 2741 
L 2194 2741 
Q 2656 2741 2882 2914 
Q 3109 3088 3109 3444 
Q 3109 3797 2882 3972 
Q 2656 4147 2194 4147 
L 1259 4147 
z
M 628 4666 
L 2241 4666 
Q 2963 4666 3353 4366 
Q 3744 4066 3744 3513 
Q 3744 3084 3544 2831 
Q 3344 2578 2956 2516 
Q 3422 2416 3680 2098 
Q 3938 1781 3938 1306 
Q 3938 681 3513 340 
Q 3088 0 2303 0 
L 628 0 
L 628 4666 
z
" transform="scale(0.015625)"/>
       <path id="DejaVuSans-79" d="M 2059 -325 
Q 1816 -950 1584 -1140 
Q 1353 -1331 966 -1331 
L 506 -1331 
L 506 -850 
L 844 -850 
Q 1081 -850 1212 -737 
Q 1344 -625 1503 -206 
L 1606 56 
L 191 3500 
L 800 3500 
L 1894 763 
L 2988 3500 
L 3597 3500 
L 2059 -325 
z
" transform="scale(0.015625)"/>
       <path id="DejaVuSans-73" d="M 2834 3397 
L 2834 2853 
Q 2591 2978 2328 3040 
Q 2066 3103 1784 3103 
Q 1356 3103 1142 2972 
Q 928 2841 928 2578 
Q 928 2378 1081 2264 
Q 1234 2150 1697 2047 
L 1894 2003 
Q 2506 1872 2764 1633 
Q 3022 1394 3022 966 
Q 3022 478 2636 193 
Q 2250 -91 1575 -91 
Q 1294 -91 989 -36 
Q 684 19 347 128 
L 347 722 
Q 666 556 975 473 
Q 1284 391 1588 391 
Q 1994 391 2212 530 
Q 2431 669 2431 922 
Q 2431 1156 2273 1281 
Q 2116 1406 1581 1522 
L 1381 1569 
Q 847 1681 609 1914 
Q 372 2147 372 2553 
Q 372 3047 722 3315 
Q 1072 3584 1716 3584 
Q 2034 3584 2315 3537 
Q 2597 3491 2834 3397 
z
" transform="scale(0.015625)"/>
      </defs>
      <use xlink:href="#DejaVuSans-45"/>
      <use xlink:href="#DejaVuSans-6d" x="63.183594"/>
      <use xlink:href="#DejaVuSans-70" x="160.595703"/>
      <use xlink:href="#DejaVuSans-69" x="224.072266"/>
      <use xlink:href="#DejaVuSans-72" x="251.855469"/>
      <use xlink:href="#DejaVuSans-69" x="292.96875"/>
      <use xlink:href="#DejaVuSans-63" x="320.751953"/>
      <use xlink:href="#DejaVuSans-61" x="375.732422"/>
      <use xlink:href="#DejaVuSans-6c" x="437.011719"/>
      <use xlink:href="#DejaVuSans-20" x="464.794922"/>
      <use xlink:href="#DejaVuSans-42" x="496.582031"/>
      <use xlink:href="#DejaVuSans-61" x="565.185547"/>
      <use xlink:href="#DejaVuSans-79" x="626.464844"/>
      <use xlink:href="#DejaVuSans-65" x="685.644531"/>
      <use xlink:href="#DejaVuSans-73" x="747.167969"/>
     </g>
    </g>
    <g id="line2d_38">
     <path d="M 39.7 74.074563 
L 49.7 74.074563 
L 59.7 74.074563 
" style="fill: none; stroke-dasharray: 2,3.3; stroke-dashoffset: 0; stroke: #0072b2; stroke-width: 2"/>
    </g>
    <g id="text_20">
     <!-- Ridge -->
     <g transform="translate(67.7 77.574563) scale(0.1 -0.1)">
      <defs>
       <path id="DejaVuSans-52" d="M 2841 2188 
Q 3044 2119 3236 1894 
Q 3428 1669 3622 1275 
L 4263 0 
L 3584 0 
L 2988 1197 
Q 2756 1666 2539 1819 
Q 2322 1972 1947 1972 
L 1259 1972 
L 1259 0 
L 628 0 
L 628 4666 
L 2053 4666 
Q 2853 4666 3247 4331 
Q 3641 3997 3641 3322 
Q 3641 2881 3436 2590 
Q 3231 2300 2841 2188 
z
M 1259 4147 
L 1259 2491 
L 2053 2491 
Q 2509 2491 2742 2702 
Q 2975 2913 2975 3322 
Q 2975 3731 2742 3939 
Q 2509 4147 2053 4147 
L 1259 4147 
z
" transform="scale(0.015625)"/>
       <path id="DejaVuSans-64" d="M 2906 2969 
L 2906 4863 
L 3481 4863 
L 3481 0 
L 2906 0 
L 2906 525 
Q 2725 213 2448 61 
Q 2172 -91 1784 -91 
Q 1150 -91 751 415 
Q 353 922 353 1747 
Q 353 2572 751 3078 
Q 1150 3584 1784 3584 
Q 2172 3584 2448 3432 
Q 2725 3281 2906 2969 
z
M 947 1747 
Q 947 1113 1208 752 
Q 1469 391 1925 391 
Q 2381 391 2643 752 
Q 2906 1113 2906 1747 
Q 2906 2381 2643 2742 
Q 2381 3103 1925 3103 
Q 1469 3103 1208 2742 
Q 947 2381 947 1747 
z
" transform="scale(0.015625)"/>
       <path id="DejaVuSans-67" d="M 2906 1791 
Q 2906 2416 2648 2759 
Q 2391 3103 1925 3103 
Q 1463 3103 1205 2759 
Q 947 2416 947 1791 
Q 947 1169 1205 825 
Q 1463 481 1925 481 
Q 2391 481 2648 825 
Q 2906 1169 2906 1791 
z
M 3481 434 
Q 3481 -459 3084 -895 
Q 2688 -1331 1869 -1331 
Q 1566 -1331 1297 -1286 
Q 1028 -1241 775 -1147 
L 775 -588 
Q 1028 -725 1275 -790 
Q 1522 -856 1778 -856 
Q 2344 -856 2625 -561 
Q 2906 -266 2906 331 
L 2906 616 
Q 2728 306 2450 153 
Q 2172 0 1784 0 
Q 1141 0 747 490 
Q 353 981 353 1791 
Q 353 2603 747 3093 
Q 1141 3584 1784 3584 
Q 2172 3584 2450 3431 
Q 2728 3278 2906 2969 
L 2906 3500 
L 3481 3500 
L 3481 434 
z
" transform="scale(0.015625)"/>
      </defs>
      <use xlink:href="#DejaVuSans-52"/>
      <use xlink:href="#DejaVuSans-69" x="69.482422"/>
      <use xlink:href="#DejaVuSans-64" x="97.265625"/>
      <use xlink:href="#DejaVuSans-67" x="160.742188"/>
      <use xlink:href="#DejaVuSans-65" x="224.21875"/>
     </g>
    </g>
    <g id="line2d_39">
     <path d="M 39.7 88.752688 
L 49.7 88.752688 
L 59.7 88.752688 
" style="fill: none; stroke: #d55e00; stroke-width: 2; stroke-linecap: square"/>
    </g>
    <g id="text_21">
     <!-- Lasso -->
     <g transform="translate(67.7 92.252688) scale(0.1 -0.1)">
      <use xlink:href="#DejaVuSans-4c"/>
      <use xlink:href="#DejaVuSans-61" x="55.712891"/>
      <use xlink:href="#DejaVuSans-73" x="116.992188"/>
      <use xlink:href="#DejaVuSans-73" x="169.091797"/>
      <use xlink:href="#DejaVuSans-6f" x="221.191406"/>
     </g>
    </g>
    <g id="line2d_40">
     <path d="M 39.7 103.430813 
L 49.7 103.430813 
L 59.7 103.430813 
" style="fill: none; stroke-dasharray: 7.4,3.2; stroke-dashoffset: 0; stroke: #cc79a7; stroke-width: 2"/>
    </g>
    <g id="text_22">
     <!-- Elastic Net -->
     <g transform="translate(67.7 106.930813) scale(0.1 -0.1)">
      <defs>
       <path id="DejaVuSans-74" d="M 1172 4494 
L 1172 3500 
L 2356 3500 
L 2356 3053 
L 1172 3053 
L 1172 1153 
Q 1172 725 1289 603 
Q 1406 481 1766 481 
L 2356 481 
L 2356 0 
L 1766 0 
Q 1100 0 847 248 
Q 594 497 594 1153 
L 594 3053 
L 172 3053 
L 172 3500 
L 594 3500 
L 594 4494 
L 1172 4494 
z
" transform="scale(0.015625)"/>
      </defs>
      <use xlink:href="#DejaVuSans-45"/>
      <use xlink:href="#DejaVuSans-6c" x="63.183594"/>
      <use xlink:href="#DejaVuSans-61" x="90.966797"/>
      <use xlink:href="#DejaVuSans-73" x="152.246094"/>
      <use xlink:href="#DejaVuSans-74" x="204.345703"/>
      <use xlink:href="#DejaVuSans-69" x="243.554688"/>
      <use xlink:href="#DejaVuSans-63" x="271.337891"/>
      <use xlink:href="#DejaVuSans-20" x="326.318359"/>
      <use xlink:href="#DejaVuSans-4e" x="358.105469"/>
      <use xlink:href="#DejaVuSans-65" x="432.910156"/>
      <use xlink:href="#DejaVuSans-74" x="494.433594"/>
     </g>
    </g>
    <g id="line2d_41">
     <path d="M 39.7 118.108938 
L 49.7 118.108938 
L 59.7 118.108938 
" style="fill: none; stroke-dasharray: 12.8,3.2,2,3.2; stroke-dashoffset: 0; stroke: #f0e442; stroke-width: 2"/>
    </g>
    <g id="text_23">
     <!-- Truncted Normal -->
     <g transform="translate(67.7 121.608938) scale(0.1 -0.1)">
      <defs>
       <path id="DejaVuSans-75" d="M 544 1381 
L 544 3500 
L 1119 3500 
L 1119 1403 
Q 1119 906 1312 657 
Q 1506 409 1894 409 
Q 2359 409 2629 706 
Q 2900 1003 2900 1516 
L 2900 3500 
L 3475 3500 
L 3475 0 
L 2900 0 
L 2900 538 
Q 2691 219 2414 64 
Q 2138 -91 1772 -91 
Q 1169 -91 856 284 
Q 544 659 544 1381 
z
M 1991 3584 
L 1991 3584 
z
" transform="scale(0.015625)"/>
      </defs>
      <use xlink:href="#DejaVuSans-54"/>
      <use xlink:href="#DejaVuSans-72" x="46.333984"/>
      <use xlink:href="#DejaVuSans-75" x="87.447266"/>
      <use xlink:href="#DejaVuSans-6e" x="150.826172"/>
      <use xlink:href="#DejaVuSans-63" x="214.205078"/>
      <use xlink:href="#DejaVuSans-74" x="269.185547"/>
      <use xlink:href="#DejaVuSans-65" x="308.394531"/>
      <use xlink:href="#DejaVuSans-64" x="369.917969"/>
      <use xlink:href="#DejaVuSans-20" x="433.394531"/>
      <use xlink:href="#DejaVuSans-4e" x="465.181641"/>
      <use xlink:href="#DejaVuSans-6f" x="539.986328"/>
      <use xlink:href="#DejaVuSans-72" x="601.167969"/>
      <use xlink:href="#DejaVuSans-6d" x="640.53125"/>
      <use xlink:href="#DejaVuSans-61" x="737.943359"/>
      <use xlink:href="#DejaVuSans-6c" x="799.222656"/>
     </g>
    </g>
    <g id="line2d_42">
     <path d="M 39.7 132.787062 
L 49.7 132.787062 
L 59.7 132.787062 
" style="fill: none; stroke: #1f77b4; stroke-width: 2; stroke-linecap: square"/>
    </g>
    <g id="text_24">
     <!-- LW -->
     <g transform="translate(67.7 136.287062) scale(0.1 -0.1)">
      <defs>
       <path id="DejaVuSans-57" d="M 213 4666 
L 850 4666 
L 1831 722 
L 2809 4666 
L 3519 4666 
L 4500 722 
L 5478 4666 
L 6119 4666 
L 4947 0 
L 4153 0 
L 3169 4050 
L 2175 0 
L 1381 0 
L 213 4666 
z
" transform="scale(0.015625)"/>
      </defs>
      <use xlink:href="#DejaVuSans-4c"/>
      <use xlink:href="#DejaVuSans-57" x="46.587891"/>
     </g>
    </g>
    <g id="line2d_43">
     <path d="M 39.7 147.465188 
L 49.7 147.465188 
L 59.7 147.465188 
" style="fill: none; stroke-dasharray: 7.4,3.2; stroke-dashoffset: 0; stroke: #aec7e8; stroke-width: 2"/>
    </g>
    <g id="text_25">
     <!-- FM -->
     <g transform="translate(67.7 150.965188) scale(0.1 -0.1)">
      <defs>
       <path id="DejaVuSans-46" d="M 628 4666 
L 3309 4666 
L 3309 4134 
L 1259 4134 
L 1259 2759 
L 3109 2759 
L 3109 2228 
L 1259 2228 
L 1259 0 
L 628 0 
L 628 4666 
z
" transform="scale(0.015625)"/>
      </defs>
      <use xlink:href="#DejaVuSans-46"/>
      <use xlink:href="#DejaVuSans-4d" x="57.519531"/>
     </g>
    </g>
    <g id="line2d_44">
     <path d="M 39.7 162.143312 
L 49.7 162.143312 
L 59.7 162.143312 
" style="fill: none; stroke-dasharray: 12.8,3.2,2,3.2; stroke-dashoffset: 0; stroke: #ff7f0e; stroke-width: 2"/>
    </g>
    <g id="text_26">
     <!-- TZ -->
     <g transform="translate(67.7 165.643312) scale(0.1 -0.1)">
      <defs>
       <path id="DejaVuSans-5a" d="M 359 4666 
L 4025 4666 
L 4025 4184 
L 1075 531 
L 4097 531 
L 4097 0 
L 288 0 
L 288 481 
L 3238 4134 
L 359 4134 
L 359 4666 
z
" transform="scale(0.015625)"/>
      </defs>
      <use xlink:href="#DejaVuSans-54"/>
      <use xlink:href="#DejaVuSans-5a" x="61.083984"/>
     </g>
    </g>
    <g id="line2d_45">
     <path d="M 39.7 176.821437 
L 49.7 176.821437 
L 59.7 176.821437 
" style="fill: none; stroke-dasharray: 2,3.3; stroke-dashoffset: 0; stroke: #ffbb78; stroke-width: 2"/>
    </g>
    <g id="text_27">
     <!-- FF -->
     <g transform="translate(67.7 180.321437) scale(0.1 -0.1)">
      <use xlink:href="#DejaVuSans-46"/>
      <use xlink:href="#DejaVuSans-46" x="57.519531"/>
     </g>
    </g>
   </g>
  </g>
 </g>
 <defs>
  <clipPath id="pc48e7b082e">
   <rect x="30.7" y="16.94175" width="837" height="221.76"/>
  </clipPath>
 </defs>
</svg>
