<?xml version="1.0" encoding="utf-8" standalone="no"?>
<!DOCTYPE svg PUBLIC "-//W3C//DTD SVG 1.1//EN"
  "http://www.w3.org/Graphics/SVG/1.1/DTD/svg11.dtd">
<svg xmlns:xlink="http://www.w3.org/1999/xlink" width="872.895313pt" height="253.629875pt" viewBox="0 0 872.895313 253.629875" xmlns="http://www.w3.org/2000/svg" version="1.1">
 <metadata>
  <rdf:RDF xmlns:dc="http://purl.org/dc/elements/1.1/" xmlns:cc="http://creativecommons.org/ns#" xmlns:rdf="http://www.w3.org/1999/02/22-rdf-syntax-ns#">
   <cc:Work>
    <dc:type rdf:resource="http://purl.org/dc/dcmitype/StillImage"/>
    <dc:date>2025-08-06T21:56:52.047754</dc:date>
    <dc:format>image/svg+xml</dc:format>
    <dc:creator>
     <cc:Agent>
      <dc:title>Matplotlib v3.9.2, https://matplotlib.org/</dc:title>
     </cc:Agent>
    </dc:creator>
   </cc:Work>
  </rdf:RDF>
 </metadata>
 <defs>
  <style type="text/css">*{stroke-linejoin: round; stroke-linecap: butt}</style>
 </defs>
 <g id="figure_1">
  <g id="patch_1">
   <path d="M 0 253.629875 
L 872.895313 253.629875 
L 872.895313 0 
L 0 0 
z
" style="fill: #ffffff"/>
  </g>
  <g id="axes_1">
   <g id="patch_2">
    <path d="M 35.895313 238.70175 
L 872.895313 238.70175 
L 872.895313 16.94175 
L 35.895313 16.94175 
z
" style="fill: #ffffff"/>
   </g>
   <g id="matplotlib.axis_1">
    <g id="xtick_1">
     <g id="line2d_1">
      <defs>
       <path id="m36a9d939e7" d="M 0 1.75 
L 0 -1.75 
" style="stroke: #000000; stroke-width: 0.8"/>
      </defs>
      <g>
       <use xlink:href="#m36a9d939e7" x="91.373013" y="238.70175" style="stroke: #000000; stroke-width: 0.8"/>
      </g>
     </g>
     <g id="text_1">
      <!-- 1992 -->
      <g transform="translate(78.648013 251.550188) scale(0.1 -0.1)">
       <defs>
        <path id="DejaVuSans-31" d="M 794 531 
L 1825 531 
L 1825 4091 
L 703 3866 
L 703 4441 
L 1819 4666 
L 2450 4666 
L 2450 531 
L 3481 531 
L 3481 0 
L 794 0 
L 794 531 
z
" transform="scale(0.015625)"/>
        <path id="DejaVuSans-39" d="M 703 97 
L 703 672 
Q 941 559 1184 500 
Q 1428 441 1663 441 
Q 2288 441 2617 861 
Q 2947 1281 2994 2138 
Q 2813 1869 2534 1725 
Q 2256 1581 1919 1581 
Q 1219 1581 811 2004 
Q 403 2428 403 3163 
Q 403 3881 828 4315 
Q 1253 4750 1959 4750 
Q 2769 4750 3195 4129 
Q 3622 3509 3622 2328 
Q 3622 1225 3098 567 
Q 2575 -91 1691 -91 
Q 1453 -91 1209 -44 
Q 966 3 703 97 
z
M 1959 2075 
Q 2384 2075 2632 2365 
Q 2881 2656 2881 3163 
Q 2881 3666 2632 3958 
Q 2384 4250 1959 4250 
Q 1534 4250 1286 3958 
Q 1038 3666 1038 3163 
Q 1038 2656 1286 2365 
Q 1534 2075 1959 2075 
z
" transform="scale(0.015625)"/>
        <path id="DejaVuSans-32" d="M 1228 531 
L 3431 531 
L 3431 0 
L 469 0 
L 469 531 
Q 828 903 1448 1529 
Q 2069 2156 2228 2338 
Q 2531 2678 2651 2914 
Q 2772 3150 2772 3378 
Q 2772 3750 2511 3984 
Q 2250 4219 1831 4219 
Q 1534 4219 1204 4116 
Q 875 4013 500 3803 
L 500 4441 
Q 881 4594 1212 4672 
Q 1544 4750 1819 4750 
Q 2544 4750 2975 4387 
Q 3406 4025 3406 3419 
Q 3406 3131 3298 2873 
Q 3191 2616 2906 2266 
Q 2828 2175 2409 1742 
Q 1991 1309 1228 531 
z
" transform="scale(0.015625)"/>
       </defs>
       <use xlink:href="#DejaVuSans-31"/>
       <use xlink:href="#DejaVuSans-39" x="63.623047"/>
       <use xlink:href="#DejaVuSans-39" x="127.246094"/>
       <use xlink:href="#DejaVuSans-32" x="190.869141"/>
      </g>
     </g>
    </g>
    <g id="xtick_2">
     <g id="line2d_2">
      <g>
       <use xlink:href="#m36a9d939e7" x="207.162901" y="238.70175" style="stroke: #000000; stroke-width: 0.8"/>
      </g>
     </g>
     <g id="text_2">
      <!-- 1996 -->
      <g transform="translate(194.437901 251.550188) scale(0.1 -0.1)">
       <defs>
        <path id="DejaVuSans-36" d="M 2113 2584 
Q 1688 2584 1439 2293 
Q 1191 2003 1191 1497 
Q 1191 994 1439 701 
Q 1688 409 2113 409 
Q 2538 409 2786 701 
Q 3034 994 3034 1497 
Q 3034 2003 2786 2293 
Q 2538 2584 2113 2584 
z
M 3366 4563 
L 3366 3988 
Q 3128 4100 2886 4159 
Q 2644 4219 2406 4219 
Q 1781 4219 1451 3797 
Q 1122 3375 1075 2522 
Q 1259 2794 1537 2939 
Q 1816 3084 2150 3084 
Q 2853 3084 3261 2657 
Q 3669 2231 3669 1497 
Q 3669 778 3244 343 
Q 2819 -91 2113 -91 
Q 1303 -91 875 529 
Q 447 1150 447 2328 
Q 447 3434 972 4092 
Q 1497 4750 2381 4750 
Q 2619 4750 2861 4703 
Q 3103 4656 3366 4563 
z
" transform="scale(0.015625)"/>
       </defs>
       <use xlink:href="#DejaVuSans-31"/>
       <use xlink:href="#DejaVuSans-39" x="63.623047"/>
       <use xlink:href="#DejaVuSans-39" x="127.246094"/>
       <use xlink:href="#DejaVuSans-36" x="190.869141"/>
      </g>
     </g>
    </g>
    <g id="xtick_3">
     <g id="line2d_3">
      <g>
       <use xlink:href="#m36a9d939e7" x="322.952788" y="238.70175" style="stroke: #000000; stroke-width: 0.8"/>
      </g>
     </g>
     <g id="text_3">
      <!-- 2000 -->
      <g transform="translate(310.227788 251.550188) scale(0.1 -0.1)">
       <defs>
        <path id="DejaVuSans-30" d="M 2034 4250 
Q 1547 4250 1301 3770 
Q 1056 3291 1056 2328 
Q 1056 1369 1301 889 
Q 1547 409 2034 409 
Q 2525 409 2770 889 
Q 3016 1369 3016 2328 
Q 3016 3291 2770 3770 
Q 2525 4250 2034 4250 
z
M 2034 4750 
Q 2819 4750 3233 4129 
Q 3647 3509 3647 2328 
Q 3647 1150 3233 529 
Q 2819 -91 2034 -91 
Q 1250 -91 836 529 
Q 422 1150 422 2328 
Q 422 3509 836 4129 
Q 1250 4750 2034 4750 
z
" transform="scale(0.015625)"/>
       </defs>
       <use xlink:href="#DejaVuSans-32"/>
       <use xlink:href="#DejaVuSans-30" x="63.623047"/>
       <use xlink:href="#DejaVuSans-30" x="127.246094"/>
       <use xlink:href="#DejaVuSans-30" x="190.869141"/>
      </g>
     </g>
    </g>
    <g id="xtick_4">
     <g id="line2d_4">
      <g>
       <use xlink:href="#m36a9d939e7" x="438.742675" y="238.70175" style="stroke: #000000; stroke-width: 0.8"/>
      </g>
     </g>
     <g id="text_4">
      <!-- 2004 -->
      <g transform="translate(426.017675 251.550188) scale(0.1 -0.1)">
       <defs>
        <path id="DejaVuSans-34" d="M 2419 4116 
L 825 1625 
L 2419 1625 
L 2419 4116 
z
M 2253 4666 
L 3047 4666 
L 3047 1625 
L 3713 1625 
L 3713 1100 
L 3047 1100 
L 3047 0 
L 2419 0 
L 2419 1100 
L 313 1100 
L 313 1709 
L 2253 4666 
z
" transform="scale(0.015625)"/>
       </defs>
       <use xlink:href="#DejaVuSans-32"/>
       <use xlink:href="#DejaVuSans-30" x="63.623047"/>
       <use xlink:href="#DejaVuSans-30" x="127.246094"/>
       <use xlink:href="#DejaVuSans-34" x="190.869141"/>
      </g>
     </g>
    </g>
    <g id="xtick_5">
     <g id="line2d_5">
      <g>
       <use xlink:href="#m36a9d939e7" x="554.532563" y="238.70175" style="stroke: #000000; stroke-width: 0.8"/>
      </g>
     </g>
     <g id="text_5">
      <!-- 2008 -->
      <g transform="translate(541.807563 251.550188) scale(0.1 -0.1)">
       <defs>
        <path id="DejaVuSans-38" d="M 2034 2216 
Q 1584 2216 1326 1975 
Q 1069 1734 1069 1313 
Q 1069 891 1326 650 
Q 1584 409 2034 409 
Q 2484 409 2743 651 
Q 3003 894 3003 1313 
Q 3003 1734 2745 1975 
Q 2488 2216 2034 2216 
z
M 1403 2484 
Q 997 2584 770 2862 
Q 544 3141 544 3541 
Q 544 4100 942 4425 
Q 1341 4750 2034 4750 
Q 2731 4750 3128 4425 
Q 3525 4100 3525 3541 
Q 3525 3141 3298 2862 
Q 3072 2584 2669 2484 
Q 3125 2378 3379 2068 
Q 3634 1759 3634 1313 
Q 3634 634 3220 271 
Q 2806 -91 2034 -91 
Q 1263 -91 848 271 
Q 434 634 434 1313 
Q 434 1759 690 2068 
Q 947 2378 1403 2484 
z
M 1172 3481 
Q 1172 3119 1398 2916 
Q 1625 2713 2034 2713 
Q 2441 2713 2670 2916 
Q 2900 3119 2900 3481 
Q 2900 3844 2670 4047 
Q 2441 4250 2034 4250 
Q 1625 4250 1398 4047 
Q 1172 3844 1172 3481 
z
" transform="scale(0.015625)"/>
       </defs>
       <use xlink:href="#DejaVuSans-32"/>
       <use xlink:href="#DejaVuSans-30" x="63.623047"/>
       <use xlink:href="#DejaVuSans-30" x="127.246094"/>
       <use xlink:href="#DejaVuSans-38" x="190.869141"/>
      </g>
     </g>
    </g>
    <g id="xtick_6">
     <g id="line2d_6">
      <g>
       <use xlink:href="#m36a9d939e7" x="670.32245" y="238.70175" style="stroke: #000000; stroke-width: 0.8"/>
      </g>
     </g>
     <g id="text_6">
      <!-- 2012 -->
      <g transform="translate(657.59745 251.550188) scale(0.1 -0.1)">
       <use xlink:href="#DejaVuSans-32"/>
       <use xlink:href="#DejaVuSans-30" x="63.623047"/>
       <use xlink:href="#DejaVuSans-31" x="127.246094"/>
       <use xlink:href="#DejaVuSans-32" x="190.869141"/>
      </g>
     </g>
    </g>
    <g id="xtick_7">
     <g id="line2d_7">
      <g>
       <use xlink:href="#m36a9d939e7" x="786.112337" y="238.70175" style="stroke: #000000; stroke-width: 0.8"/>
      </g>
     </g>
     <g id="text_7">
      <!-- 2016 -->
      <g transform="translate(773.387337 251.550188) scale(0.1 -0.1)">
       <use xlink:href="#DejaVuSans-32"/>
       <use xlink:href="#DejaVuSans-30" x="63.623047"/>
       <use xlink:href="#DejaVuSans-31" x="127.246094"/>
       <use xlink:href="#DejaVuSans-36" x="190.869141"/>
      </g>
     </g>
    </g>
   </g>
   <g id="matplotlib.axis_2">
    <g id="ytick_1">
     <g id="line2d_8">
      <path d="M 35.895313 216.52575 
L 872.895313 216.52575 
" clip-path="url(#p5402fe61aa)" style="fill: none; stroke-dasharray: 1.85,0.8; stroke-dashoffset: 0; stroke: #b2b2b2; stroke-width: 0.5"/>
     </g>
     <g id="line2d_9">
      <defs>
       <path id="m26d0b5ae57" d="M 1.75 0 
L -1.75 -0 
" style="stroke: #000000; stroke-width: 0.8"/>
      </defs>
      <g>
       <use xlink:href="#m26d0b5ae57" x="35.895313" y="216.52575" style="stroke: #000000; stroke-width: 0.8"/>
      </g>
     </g>
     <g id="text_8">
      <!-- −0.04 -->
      <g transform="translate(0 220.324969) scale(0.1 -0.1)">
       <defs>
        <path id="DejaVuSans-2212" d="M 678 2272 
L 4684 2272 
L 4684 1741 
L 678 1741 
L 678 2272 
z
" transform="scale(0.015625)"/>
        <path id="DejaVuSans-2e" d="M 684 794 
L 1344 794 
L 1344 0 
L 684 0 
L 684 794 
z
" transform="scale(0.015625)"/>
       </defs>
       <use xlink:href="#DejaVuSans-2212"/>
       <use xlink:href="#DejaVuSans-30" x="83.789062"/>
       <use xlink:href="#DejaVuSans-2e" x="147.412109"/>
       <use xlink:href="#DejaVuSans-30" x="179.199219"/>
       <use xlink:href="#DejaVuSans-34" x="242.822266"/>
      </g>
     </g>
    </g>
    <g id="ytick_2">
     <g id="line2d_10">
      <path d="M 35.895313 172.17375 
L 872.895313 172.17375 
" clip-path="url(#p5402fe61aa)" style="fill: none; stroke-dasharray: 1.85,0.8; stroke-dashoffset: 0; stroke: #b2b2b2; stroke-width: 0.5"/>
     </g>
     <g id="line2d_11">
      <g>
       <use xlink:href="#m26d0b5ae57" x="35.895313" y="172.17375" style="stroke: #000000; stroke-width: 0.8"/>
      </g>
     </g>
     <g id="text_9">
      <!-- −0.02 -->
      <g transform="translate(0 175.972969) scale(0.1 -0.1)">
       <use xlink:href="#DejaVuSans-2212"/>
       <use xlink:href="#DejaVuSans-30" x="83.789062"/>
       <use xlink:href="#DejaVuSans-2e" x="147.412109"/>
       <use xlink:href="#DejaVuSans-30" x="179.199219"/>
       <use xlink:href="#DejaVuSans-32" x="242.822266"/>
      </g>
     </g>
    </g>
    <g id="ytick_3">
     <g id="line2d_12">
      <path d="M 35.895313 127.82175 
L 872.895313 127.82175 
" clip-path="url(#p5402fe61aa)" style="fill: none; stroke-dasharray: 1.85,0.8; stroke-dashoffset: 0; stroke: #b2b2b2; stroke-width: 0.5"/>
     </g>
     <g id="line2d_13">
      <g>
       <use xlink:href="#m26d0b5ae57" x="35.895313" y="127.82175" style="stroke: #000000; stroke-width: 0.8"/>
      </g>
     </g>
     <g id="text_10">
      <!-- 0.00 -->
      <g transform="translate(8.379688 131.620969) scale(0.1 -0.1)">
       <use xlink:href="#DejaVuSans-30"/>
       <use xlink:href="#DejaVuSans-2e" x="63.623047"/>
       <use xlink:href="#DejaVuSans-30" x="95.410156"/>
       <use xlink:href="#DejaVuSans-30" x="159.033203"/>
      </g>
     </g>
    </g>
    <g id="ytick_4">
     <g id="line2d_14">
      <path d="M 35.895313 83.46975 
L 872.895313 83.46975 
" clip-path="url(#p5402fe61aa)" style="fill: none; stroke-dasharray: 1.85,0.8; stroke-dashoffset: 0; stroke: #b2b2b2; stroke-width: 0.5"/>
     </g>
     <g id="line2d_15">
      <g>
       <use xlink:href="#m26d0b5ae57" x="35.895313" y="83.46975" style="stroke: #000000; stroke-width: 0.8"/>
      </g>
     </g>
     <g id="text_11">
      <!-- 0.02 -->
      <g transform="translate(8.379688 87.268969) scale(0.1 -0.1)">
       <use xlink:href="#DejaVuSans-30"/>
       <use xlink:href="#DejaVuSans-2e" x="63.623047"/>
       <use xlink:href="#DejaVuSans-30" x="95.410156"/>
       <use xlink:href="#DejaVuSans-32" x="159.033203"/>
      </g>
     </g>
    </g>
    <g id="ytick_5">
     <g id="line2d_16">
      <path d="M 35.895313 39.11775 
L 872.895313 39.11775 
" clip-path="url(#p5402fe61aa)" style="fill: none; stroke-dasharray: 1.85,0.8; stroke-dashoffset: 0; stroke: #b2b2b2; stroke-width: 0.5"/>
     </g>
     <g id="line2d_17">
      <g>
       <use xlink:href="#m26d0b5ae57" x="35.895313" y="39.11775" style="stroke: #000000; stroke-width: 0.8"/>
      </g>
     </g>
     <g id="text_12">
      <!-- 0.04 -->
      <g transform="translate(8.379688 42.916969) scale(0.1 -0.1)">
       <use xlink:href="#DejaVuSans-30"/>
       <use xlink:href="#DejaVuSans-2e" x="63.623047"/>
       <use xlink:href="#DejaVuSans-30" x="95.410156"/>
       <use xlink:href="#DejaVuSans-34" x="159.033203"/>
      </g>
     </g>
    </g>
   </g>
   <g id="line2d_18">
    <path d="M 35.895313 127.82175 
L 872.895313 127.82175 
L 872.895313 127.82175 
" clip-path="url(#p5402fe61aa)" style="fill: none; stroke: #e69f00; stroke-width: 2; stroke-linecap: square"/>
   </g>
   <g id="line2d_19">
    <path d="M 35.895313 127.82175 
L 872.895313 127.82175 
L 872.895313 127.82175 
" clip-path="url(#p5402fe61aa)" style="fill: none; stroke-dasharray: 7.4,3.2; stroke-dashoffset: 0; stroke: #56b4e9; stroke-width: 2"/>
   </g>
   <g id="line2d_20">
    <path d="M 35.895313 127.82175 
L 872.895313 127.82175 
L 872.895313 127.82175 
" clip-path="url(#p5402fe61aa)" style="fill: none; stroke-dasharray: 12.8,3.2,2,3.2; stroke-dashoffset: 0; stroke: #009e73; stroke-width: 2"/>
   </g>
   <g id="line2d_21">
    <path d="M 35.895313 127.82175 
L 872.895313 127.82175 
L 872.895313 127.82175 
" clip-path="url(#p5402fe61aa)" style="fill: none; stroke-dasharray: 2,3.3; stroke-dashoffset: 0; stroke: #0072b2; stroke-width: 2"/>
   </g>
   <g id="line2d_22">
    <path d="M 35.895313 127.82175 
L 872.895313 127.82175 
L 872.895313 127.82175 
" clip-path="url(#p5402fe61aa)" style="fill: none; stroke: #d55e00; stroke-width: 2; stroke-linecap: square"/>
   </g>
   <g id="line2d_23">
    <path d="M 35.895313 127.82175 
L 872.895313 127.82175 
L 872.895313 127.82175 
" clip-path="url(#p5402fe61aa)" style="fill: none; stroke-dasharray: 7.4,3.2; stroke-dashoffset: 0; stroke: #cc79a7; stroke-width: 2"/>
   </g>
   <g id="line2d_24">
    <path d="M 35.895313 127.82175 
L 872.895313 127.82175 
L 872.895313 127.82175 
" clip-path="url(#p5402fe61aa)" style="fill: none; stroke-dasharray: 12.8,3.2,2,3.2; stroke-dashoffset: 0; stroke: #f0e442; stroke-width: 2"/>
   </g>
   <g id="line2d_25">
    <path d="M 35.895313 127.82175 
L 872.895313 127.82175 
L 872.895313 127.82175 
" clip-path="url(#p5402fe61aa)" style="fill: none; stroke: #1f77b4; stroke-width: 2; stroke-linecap: square"/>
   </g>
   <g id="line2d_26">
    <path d="M 35.895313 127.82175 
L 872.895313 127.82175 
L 872.895313 127.82175 
" clip-path="url(#p5402fe61aa)" style="fill: none; stroke-dasharray: 7.4,3.2; stroke-dashoffset: 0; stroke: #aec7e8; stroke-width: 2"/>
   </g>
   <g id="line2d_27">
    <path d="M 35.895313 127.82175 
L 872.895313 127.82175 
L 872.895313 127.82175 
" clip-path="url(#p5402fe61aa)" style="fill: none; stroke-dasharray: 12.8,3.2,2,3.2; stroke-dashoffset: 0; stroke: #ff7f0e; stroke-width: 2"/>
   </g>
   <g id="line2d_28">
    <path d="M 35.895313 127.82175 
L 872.895313 127.82175 
L 872.895313 127.82175 
" clip-path="url(#p5402fe61aa)" style="fill: none; stroke-dasharray: 2,3.3; stroke-dashoffset: 0; stroke: #ffbb78; stroke-width: 2"/>
   </g>
   <g id="line2d_29">
    <path d="M 35.895313 127.82175 
L 872.895313 127.82175 
L 872.895313 127.82175 
" clip-path="url(#p5402fe61aa)" style="fill: none; stroke: #2ca02c; stroke-width: 2; stroke-linecap: square"/>
   </g>
   <g id="line2d_30">
    <path d="M 35.895313 127.82175 
L 872.895313 127.82175 
L 872.895313 127.82175 
" clip-path="url(#p5402fe61aa)" style="fill: none; stroke-dasharray: 7.4,3.2; stroke-dashoffset: 0; stroke: #98df8a; stroke-width: 2"/>
   </g>
   <g id="line2d_31">
    <path d="M 35.895313 127.82175 
L 872.895313 127.82175 
L 872.895313 127.82175 
" clip-path="url(#p5402fe61aa)" style="fill: none; stroke-dasharray: 12.8,3.2,2,3.2; stroke-dashoffset: 0; stroke: #d62728; stroke-width: 2"/>
   </g>
   <g id="line2d_32">
    <path d="M 35.895313 127.82175 
L 872.895313 127.82175 
L 872.895313 127.82175 
" clip-path="url(#p5402fe61aa)" style="fill: none; stroke-dasharray: 10,20; stroke-dashoffset: 0; stroke: #ff9896; stroke-width: 2"/>
   </g>
   <g id="line2d_33">
    <path d="M 35.895313 127.82175 
L 872.895313 127.82175 
L 872.895313 127.82175 
" clip-path="url(#p5402fe61aa)" style="fill: none; stroke-dasharray: 6,2,2,2; stroke-dashoffset: 0; stroke: #9467bd; stroke-width: 2"/>
   </g>
   <g id="line2d_34">
    <path d="M 35.895313 127.82175 
L 872.895313 127.82175 
L 872.895313 127.82175 
" clip-path="url(#p5402fe61aa)" style="fill: none; stroke-dasharray: 10,2; stroke-dashoffset: 0; stroke: #c5b0d5; stroke-width: 2"/>
   </g>
   <g id="line2d_35">
    <path d="M 35.895313 127.82175 
L 872.895313 127.82175 
L 872.895313 127.82175 
" clip-path="url(#p5402fe61aa)" style="fill: none; stroke-dasharray: 10,10; stroke-dashoffset: 0; stroke: #8c564b; stroke-width: 2"/>
   </g>
   <g id="line2d_36">
    <path d="M 35.895313 127.82175 
L 872.895313 127.82175 
L 872.895313 127.82175 
" clip-path="url(#p5402fe61aa)" style="fill: none; stroke-dasharray: 6,20,2,20; stroke-dashoffset: 0; stroke: #c49c94; stroke-width: 2"/>
   </g>
   <g id="line2d_37">
    <path d="M 35.895313 127.82175 
L 872.895313 127.82175 
L 872.895313 127.82175 
" clip-path="url(#p5402fe61aa)" style="fill: none; stroke-dasharray: 6,2,2,2; stroke-dashoffset: 0; stroke: #e377c2; stroke-width: 2"/>
   </g>
   <g id="line2d_38">
    <path d="M 35.895313 127.82175 
L 872.895313 127.82175 
L 872.895313 127.82175 
" clip-path="url(#p5402fe61aa)" style="fill: none; stroke-dasharray: 6,10,2,10,2,10; stroke-dashoffset: 0; stroke: #f7b6d2; stroke-width: 2"/>
   </g>
   <g id="line2d_39">
    <path d="M 35.895313 127.82175 
L 872.895313 127.82175 
L 872.895313 127.82175 
" clip-path="url(#p5402fe61aa)" style="fill: none; stroke-dasharray: 6,20,2,20,2,20; stroke-dashoffset: 0; stroke: #7f7f7f; stroke-width: 2"/>
   </g>
   <g id="line2d_40">
    <path d="M 35.895313 127.82175 
L 872.895313 127.82175 
L 872.895313 127.82175 
" clip-path="url(#p5402fe61aa)" style="fill: none; stroke-dasharray: 6,2,2,2,2,2; stroke-dashoffset: 0; stroke: #c7c7c7; stroke-width: 2"/>
   </g>
   <g id="line2d_41">
    <path d="M 35.895313 127.82175 
L 872.895313 127.82175 
L 872.895313 127.82175 
" clip-path="url(#p5402fe61aa)" style="fill: none; stroke-dasharray: 2,2; stroke-dashoffset: 0; stroke: #bcbd22; stroke-width: 2"/>
   </g>
   <g id="line2d_42">
    <path d="M 35.895313 127.82175 
L 872.895313 127.82175 
L 872.895313 127.82175 
" clip-path="url(#p5402fe61aa)" style="fill: none; stroke: #dbdb8d; stroke-width: 2; stroke-linecap: square"/>
   </g>
   <g id="line2d_43">
    <path d="M 35.895313 127.82175 
L 872.895313 127.82175 
L 872.895313 127.82175 
" clip-path="url(#p5402fe61aa)" style="fill: none; stroke-dasharray: 7.4,3.2; stroke-dashoffset: 0; stroke: #17becf; stroke-width: 2"/>
   </g>
   <g id="line2d_44">
    <path d="M 35.895313 127.82175 
L 872.895313 127.82175 
L 872.895313 127.82175 
" clip-path="url(#p5402fe61aa)" style="fill: none; stroke-dasharray: 12.8,3.2,2,3.2; stroke-dashoffset: 0; stroke: #9edae5; stroke-width: 2"/>
   </g>
   <g id="line2d_45">
    <path d="M 35.895313 127.82175 
L 872.895313 127.82175 
L 872.895313 127.82175 
" clip-path="url(#p5402fe61aa)" style="fill: none; stroke: #e69f00; stroke-width: 2; stroke-linecap: square"/>
   </g>
   <g id="line2d_46">
    <path d="M 35.895313 127.82175 
L 872.895313 127.82175 
L 872.895313 127.82175 
" clip-path="url(#p5402fe61aa)" style="fill: none; stroke-dasharray: 7.4,3.2; stroke-dashoffset: 0; stroke: #56b4e9; stroke-width: 2"/>
   </g>
   <g id="line2d_47">
    <path d="M 35.895313 127.82175 
L 872.895313 127.82175 
L 872.895313 127.82175 
" clip-path="url(#p5402fe61aa)" style="fill: none; stroke-dasharray: 12.8,3.2,2,3.2; stroke-dashoffset: 0; stroke: #009e73; stroke-width: 2"/>
   </g>
   <g id="line2d_48">
    <path d="M 35.895313 127.82175 
L 872.895313 127.82175 
L 872.895313 127.82175 
" clip-path="url(#p5402fe61aa)" style="fill: none; stroke-dasharray: 2,3.3; stroke-dashoffset: 0; stroke: #0072b2; stroke-width: 2"/>
   </g>
   <g id="line2d_49">
    <path d="M 35.895313 127.82175 
L 872.895313 127.82175 
L 872.895313 127.82175 
" clip-path="url(#p5402fe61aa)" style="fill: none; stroke: #d55e00; stroke-width: 2; stroke-linecap: square"/>
   </g>
   <g id="line2d_50">
    <path d="M 35.895313 127.82175 
L 872.895313 127.82175 
L 872.895313 127.82175 
" clip-path="url(#p5402fe61aa)" style="fill: none; stroke-dasharray: 7.4,3.2; stroke-dashoffset: 0; stroke: #cc79a7; stroke-width: 2"/>
   </g>
   <g id="line2d_51">
    <path d="M 35.895313 127.82175 
L 872.895313 127.82175 
L 872.895313 127.82175 
" clip-path="url(#p5402fe61aa)" style="fill: none; stroke-dasharray: 12.8,3.2,2,3.2; stroke-dashoffset: 0; stroke: #f0e442; stroke-width: 2"/>
   </g>
   <g id="line2d_52">
    <path d="M 35.895313 127.82175 
L 872.895313 127.82175 
L 872.895313 127.82175 
" clip-path="url(#p5402fe61aa)" style="fill: none; stroke: #1f77b4; stroke-width: 2; stroke-linecap: square"/>
   </g>
   <g id="line2d_53">
    <path d="M 35.895313 127.82175 
L 872.895313 127.82175 
L 872.895313 127.82175 
" clip-path="url(#p5402fe61aa)" style="fill: none; stroke-dasharray: 7.4,3.2; stroke-dashoffset: 0; stroke: #aec7e8; stroke-width: 2"/>
   </g>
   <g id="line2d_54">
    <path d="M 35.895313 127.82175 
L 872.895313 127.82175 
L 872.895313 127.82175 
" clip-path="url(#p5402fe61aa)" style="fill: none; stroke-dasharray: 12.8,3.2,2,3.2; stroke-dashoffset: 0; stroke: #ff7f0e; stroke-width: 2"/>
   </g>
   <g id="line2d_55">
    <path d="M 35.895313 127.82175 
L 872.895313 127.82175 
L 872.895313 127.82175 
" clip-path="url(#p5402fe61aa)" style="fill: none; stroke-dasharray: 2,3.3; stroke-dashoffset: 0; stroke: #ffbb78; stroke-width: 2"/>
   </g>
   <g id="line2d_56">
    <path d="M 35.895313 127.82175 
L 872.895313 127.82175 
L 872.895313 127.82175 
" clip-path="url(#p5402fe61aa)" style="fill: none; stroke: #2ca02c; stroke-width: 2; stroke-linecap: square"/>
   </g>
   <g id="line2d_57">
    <path d="M 35.895313 127.82175 
L 872.895313 127.82175 
L 872.895313 127.82175 
" clip-path="url(#p5402fe61aa)" style="fill: none; stroke-dasharray: 7.4,3.2; stroke-dashoffset: 0; stroke: #98df8a; stroke-width: 2"/>
   </g>
   <g id="line2d_58">
    <path d="M 35.895313 127.82175 
L 872.895313 127.82175 
L 872.895313 127.82175 
" clip-path="url(#p5402fe61aa)" style="fill: none; stroke-dasharray: 12.8,3.2,2,3.2; stroke-dashoffset: 0; stroke: #d62728; stroke-width: 2"/>
   </g>
   <g id="line2d_59">
    <path d="M 35.895313 127.82175 
L 872.895313 127.82175 
L 872.895313 127.82175 
" clip-path="url(#p5402fe61aa)" style="fill: none; stroke-dasharray: 10,20; stroke-dashoffset: 0; stroke: #ff9896; stroke-width: 2"/>
   </g>
   <g id="line2d_60">
    <path d="M 35.895313 127.82175 
L 872.895313 127.82175 
L 872.895313 127.82175 
" clip-path="url(#p5402fe61aa)" style="fill: none; stroke-dasharray: 6,2,2,2; stroke-dashoffset: 0; stroke: #9467bd; stroke-width: 2"/>
   </g>
   <g id="line2d_61">
    <path d="M 35.895313 127.82175 
L 872.895313 127.82175 
L 872.895313 127.82175 
" clip-path="url(#p5402fe61aa)" style="fill: none; stroke-dasharray: 10,2; stroke-dashoffset: 0; stroke: #c5b0d5; stroke-width: 2"/>
   </g>
   <g id="line2d_62">
    <path d="M 35.895313 127.82175 
L 872.895313 127.82175 
L 872.895313 127.82175 
" clip-path="url(#p5402fe61aa)" style="fill: none; stroke-dasharray: 10,10; stroke-dashoffset: 0; stroke: #8c564b; stroke-width: 2"/>
   </g>
   <g id="line2d_63">
    <path d="M 35.895313 127.82175 
L 872.895313 127.82175 
L 872.895313 127.82175 
" clip-path="url(#p5402fe61aa)" style="fill: none; stroke-dasharray: 6,20,2,20; stroke-dashoffset: 0; stroke: #c49c94; stroke-width: 2"/>
   </g>
   <g id="line2d_64">
    <path d="M 35.895313 127.82175 
L 872.895313 127.82175 
L 872.895313 127.82175 
" clip-path="url(#p5402fe61aa)" style="fill: none; stroke-dasharray: 6,2,2,2; stroke-dashoffset: 0; stroke: #e377c2; stroke-width: 2"/>
   </g>
   <g id="line2d_65">
    <path d="M 35.895313 127.82175 
L 872.895313 127.82175 
L 872.895313 127.82175 
" clip-path="url(#p5402fe61aa)" style="fill: none; stroke-dasharray: 6,10,2,10,2,10; stroke-dashoffset: 0; stroke: #f7b6d2; stroke-width: 2"/>
   </g>
   <g id="line2d_66">
    <path d="M 35.895313 127.82175 
L 872.895313 127.82175 
L 872.895313 127.82175 
" clip-path="url(#p5402fe61aa)" style="fill: none; stroke-dasharray: 6,20,2,20,2,20; stroke-dashoffset: 0; stroke: #7f7f7f; stroke-width: 2"/>
   </g>
   <g id="line2d_67">
    <path d="M 35.895313 127.82175 
L 872.895313 127.82175 
L 872.895313 127.82175 
" clip-path="url(#p5402fe61aa)" style="fill: none; stroke-dasharray: 6,2,2,2,2,2; stroke-dashoffset: 0; stroke: #c7c7c7; stroke-width: 2"/>
   </g>
   <g id="line2d_68">
    <path d="M 35.895313 127.82175 
L 872.895313 127.82175 
L 872.895313 127.82175 
" clip-path="url(#p5402fe61aa)" style="fill: none; stroke-dasharray: 2,2; stroke-dashoffset: 0; stroke: #bcbd22; stroke-width: 2"/>
   </g>
   <g id="line2d_69">
    <path d="M 35.895313 127.82175 
L 872.895313 127.82175 
L 872.895313 127.82175 
" clip-path="url(#p5402fe61aa)" style="fill: none; stroke: #dbdb8d; stroke-width: 2; stroke-linecap: square"/>
   </g>
   <g id="line2d_70">
    <path d="M 35.895313 127.82175 
L 872.895313 127.82175 
L 872.895313 127.82175 
" clip-path="url(#p5402fe61aa)" style="fill: none; stroke-dasharray: 7.4,3.2; stroke-dashoffset: 0; stroke: #17becf; stroke-width: 2"/>
   </g>
   <g id="line2d_71">
    <path d="M 35.895313 127.82175 
L 872.895313 127.82175 
L 872.895313 127.82175 
" clip-path="url(#p5402fe61aa)" style="fill: none; stroke-dasharray: 12.8,3.2,2,3.2; stroke-dashoffset: 0; stroke: #9edae5; stroke-width: 2"/>
   </g>
   <g id="line2d_72">
    <path d="M 35.895313 127.82175 
L 872.895313 127.82175 
L 872.895313 127.82175 
" clip-path="url(#p5402fe61aa)" style="fill: none; stroke: #e69f00; stroke-width: 2; stroke-linecap: square"/>
   </g>
   <g id="line2d_73">
    <path d="M 35.895313 127.82175 
L 872.895313 127.82175 
L 872.895313 127.82175 
" clip-path="url(#p5402fe61aa)" style="fill: none; stroke-dasharray: 7.4,3.2; stroke-dashoffset: 0; stroke: #56b4e9; stroke-width: 2"/>
   </g>
   <g id="line2d_74">
    <path d="M 35.895313 127.82175 
L 872.895313 127.82175 
L 872.895313 127.82175 
" clip-path="url(#p5402fe61aa)" style="fill: none; stroke-dasharray: 12.8,3.2,2,3.2; stroke-dashoffset: 0; stroke: #009e73; stroke-width: 2"/>
   </g>
   <g id="line2d_75">
    <path d="M 35.895313 127.82175 
L 872.895313 127.82175 
L 872.895313 127.82175 
" clip-path="url(#p5402fe61aa)" style="fill: none; stroke-dasharray: 2,3.3; stroke-dashoffset: 0; stroke: #0072b2; stroke-width: 2"/>
   </g>
   <g id="line2d_76">
    <path d="M 35.895313 127.82175 
L 872.895313 127.82175 
L 872.895313 127.82175 
" clip-path="url(#p5402fe61aa)" style="fill: none; stroke: #d55e00; stroke-width: 2; stroke-linecap: square"/>
   </g>
   <g id="line2d_77">
    <path d="M 35.895313 127.82175 
L 872.895313 127.82175 
L 872.895313 127.82175 
" clip-path="url(#p5402fe61aa)" style="fill: none; stroke-dasharray: 7.4,3.2; stroke-dashoffset: 0; stroke: #cc79a7; stroke-width: 2"/>
   </g>
   <g id="line2d_78">
    <path d="M 35.895313 127.82175 
L 872.895313 127.82175 
L 872.895313 127.82175 
" clip-path="url(#p5402fe61aa)" style="fill: none; stroke-dasharray: 12.8,3.2,2,3.2; stroke-dashoffset: 0; stroke: #f0e442; stroke-width: 2"/>
   </g>
   <g id="line2d_79">
    <path d="M 35.895313 127.82175 
L 872.895313 127.82175 
L 872.895313 127.82175 
" clip-path="url(#p5402fe61aa)" style="fill: none; stroke: #1f77b4; stroke-width: 2; stroke-linecap: square"/>
   </g>
   <g id="line2d_80">
    <path d="M 35.895313 127.82175 
L 872.895313 127.82175 
L 872.895313 127.82175 
" clip-path="url(#p5402fe61aa)" style="fill: none; stroke-dasharray: 7.4,3.2; stroke-dashoffset: 0; stroke: #aec7e8; stroke-width: 2"/>
   </g>
   <g id="line2d_81">
    <path d="M 35.895313 127.82175 
L 872.895313 127.82175 
L 872.895313 127.82175 
" clip-path="url(#p5402fe61aa)" style="fill: none; stroke-dasharray: 12.8,3.2,2,3.2; stroke-dashoffset: 0; stroke: #ff7f0e; stroke-width: 2"/>
   </g>
   <g id="line2d_82">
    <path d="M 35.895313 127.82175 
L 872.895313 127.82175 
L 872.895313 127.82175 
" clip-path="url(#p5402fe61aa)" style="fill: none; stroke-dasharray: 2,3.3; stroke-dashoffset: 0; stroke: #ffbb78; stroke-width: 2"/>
   </g>
   <g id="line2d_83">
    <path d="M 35.895313 127.82175 
L 872.895313 127.82175 
L 872.895313 127.82175 
" clip-path="url(#p5402fe61aa)" style="fill: none; stroke: #2ca02c; stroke-width: 2; stroke-linecap: square"/>
   </g>
   <g id="line2d_84">
    <path d="M 35.895313 127.82175 
L 872.895313 127.82175 
L 872.895313 127.82175 
" clip-path="url(#p5402fe61aa)" style="fill: none; stroke-dasharray: 7.4,3.2; stroke-dashoffset: 0; stroke: #98df8a; stroke-width: 2"/>
   </g>
   <g id="line2d_85">
    <path d="M 35.895313 127.82175 
L 872.895313 127.82175 
L 872.895313 127.82175 
" clip-path="url(#p5402fe61aa)" style="fill: none; stroke-dasharray: 12.8,3.2,2,3.2; stroke-dashoffset: 0; stroke: #d62728; stroke-width: 2"/>
   </g>
   <g id="line2d_86">
    <path d="M 35.895313 127.82175 
L 872.895313 127.82175 
L 872.895313 127.82175 
" clip-path="url(#p5402fe61aa)" style="fill: none; stroke-dasharray: 10,20; stroke-dashoffset: 0; stroke: #ff9896; stroke-width: 2"/>
   </g>
   <g id="line2d_87">
    <path d="M 35.895313 127.82175 
L 872.895313 127.82175 
L 872.895313 127.82175 
" clip-path="url(#p5402fe61aa)" style="fill: none; stroke-dasharray: 6,2,2,2; stroke-dashoffset: 0; stroke: #9467bd; stroke-width: 2"/>
   </g>
   <g id="line2d_88">
    <path d="M 35.895313 127.82175 
L 872.895313 127.82175 
L 872.895313 127.82175 
" clip-path="url(#p5402fe61aa)" style="fill: none; stroke-dasharray: 10,2; stroke-dashoffset: 0; stroke: #c5b0d5; stroke-width: 2"/>
   </g>
   <g id="line2d_89">
    <path d="M 35.895313 127.82175 
L 872.895313 127.82175 
L 872.895313 127.82175 
" clip-path="url(#p5402fe61aa)" style="fill: none; stroke-dasharray: 10,10; stroke-dashoffset: 0; stroke: #8c564b; stroke-width: 2"/>
   </g>
   <g id="line2d_90">
    <path d="M 35.895313 127.82175 
L 872.895313 127.82175 
L 872.895313 127.82175 
" clip-path="url(#p5402fe61aa)" style="fill: none; stroke-dasharray: 6,20,2,20; stroke-dashoffset: 0; stroke: #c49c94; stroke-width: 2"/>
   </g>
   <g id="line2d_91">
    <path d="M 35.895313 127.82175 
L 872.895313 127.82175 
L 872.895313 127.82175 
" clip-path="url(#p5402fe61aa)" style="fill: none; stroke-dasharray: 6,2,2,2; stroke-dashoffset: 0; stroke: #e377c2; stroke-width: 2"/>
   </g>
   <g id="line2d_92">
    <path d="M 35.895313 127.82175 
L 872.895313 127.82175 
L 872.895313 127.82175 
" clip-path="url(#p5402fe61aa)" style="fill: none; stroke-dasharray: 6,10,2,10,2,10; stroke-dashoffset: 0; stroke: #f7b6d2; stroke-width: 2"/>
   </g>
   <g id="line2d_93">
    <path d="M 35.895313 127.82175 
L 872.895313 127.82175 
L 872.895313 127.82175 
" clip-path="url(#p5402fe61aa)" style="fill: none; stroke-dasharray: 6,20,2,20,2,20; stroke-dashoffset: 0; stroke: #7f7f7f; stroke-width: 2"/>
   </g>
   <g id="line2d_94">
    <path d="M 35.895313 127.82175 
L 872.895313 127.82175 
L 872.895313 127.82175 
" clip-path="url(#p5402fe61aa)" style="fill: none; stroke-dasharray: 6,2,2,2,2,2; stroke-dashoffset: 0; stroke: #c7c7c7; stroke-width: 2"/>
   </g>
   <g id="line2d_95">
    <path d="M 35.895313 127.82175 
L 872.895313 127.82175 
L 872.895313 127.82175 
" clip-path="url(#p5402fe61aa)" style="fill: none; stroke-dasharray: 2,2; stroke-dashoffset: 0; stroke: #bcbd22; stroke-width: 2"/>
   </g>
   <g id="line2d_96">
    <path d="M 35.895313 127.82175 
L 872.895313 127.82175 
L 872.895313 127.82175 
" clip-path="url(#p5402fe61aa)" style="fill: none; stroke: #dbdb8d; stroke-width: 2; stroke-linecap: square"/>
   </g>
   <g id="line2d_97">
    <path d="M 35.895313 127.82175 
L 872.895313 127.82175 
L 872.895313 127.82175 
" clip-path="url(#p5402fe61aa)" style="fill: none; stroke-dasharray: 7.4,3.2; stroke-dashoffset: 0; stroke: #17becf; stroke-width: 2"/>
   </g>
   <g id="line2d_98">
    <path d="M 35.895313 127.82175 
L 872.895313 127.82175 
L 872.895313 127.82175 
" clip-path="url(#p5402fe61aa)" style="fill: none; stroke-dasharray: 12.8,3.2,2,3.2; stroke-dashoffset: 0; stroke: #9edae5; stroke-width: 2"/>
   </g>
   <g id="line2d_99">
    <path d="M 35.895313 127.82175 
L 872.895313 127.82175 
L 872.895313 127.82175 
" clip-path="url(#p5402fe61aa)" style="fill: none; stroke: #e69f00; stroke-width: 2; stroke-linecap: square"/>
   </g>
   <g id="line2d_100">
    <path d="M 35.895313 127.82175 
L 872.895313 127.82175 
L 872.895313 127.82175 
" clip-path="url(#p5402fe61aa)" style="fill: none; stroke-dasharray: 7.4,3.2; stroke-dashoffset: 0; stroke: #56b4e9; stroke-width: 2"/>
   </g>
   <g id="line2d_101">
    <path d="M 35.895313 127.82175 
L 872.895313 127.82175 
L 872.895313 127.82175 
" clip-path="url(#p5402fe61aa)" style="fill: none; stroke-dasharray: 12.8,3.2,2,3.2; stroke-dashoffset: 0; stroke: #009e73; stroke-width: 2"/>
   </g>
   <g id="line2d_102">
    <path d="M 35.895313 127.82175 
L 872.895313 127.82175 
L 872.895313 127.82175 
" clip-path="url(#p5402fe61aa)" style="fill: none; stroke-dasharray: 2,3.3; stroke-dashoffset: 0; stroke: #0072b2; stroke-width: 2"/>
   </g>
   <g id="line2d_103">
    <path d="M 35.895313 127.82175 
L 872.895313 127.82175 
L 872.895313 127.82175 
" clip-path="url(#p5402fe61aa)" style="fill: none; stroke: #d55e00; stroke-width: 2; stroke-linecap: square"/>
   </g>
   <g id="line2d_104">
    <path d="M 35.895313 127.82175 
L 872.895313 127.82175 
L 872.895313 127.82175 
" clip-path="url(#p5402fe61aa)" style="fill: none; stroke-dasharray: 7.4,3.2; stroke-dashoffset: 0; stroke: #cc79a7; stroke-width: 2"/>
   </g>
   <g id="line2d_105">
    <path d="M 35.895313 127.82175 
L 872.895313 127.82175 
L 872.895313 127.82175 
" clip-path="url(#p5402fe61aa)" style="fill: none; stroke-dasharray: 12.8,3.2,2,3.2; stroke-dashoffset: 0; stroke: #f0e442; stroke-width: 2"/>
   </g>
   <g id="line2d_106">
    <path d="M 35.895313 127.82175 
L 872.895313 127.82175 
L 872.895313 127.82175 
" clip-path="url(#p5402fe61aa)" style="fill: none; stroke: #1f77b4; stroke-width: 2; stroke-linecap: square"/>
   </g>
   <g id="line2d_107">
    <path d="M 35.895313 127.82175 
L 872.895313 127.82175 
L 872.895313 127.82175 
" clip-path="url(#p5402fe61aa)" style="fill: none; stroke-dasharray: 7.4,3.2; stroke-dashoffset: 0; stroke: #aec7e8; stroke-width: 2"/>
   </g>
   <g id="line2d_108">
    <path d="M 35.895313 127.82175 
L 872.895313 127.82175 
L 872.895313 127.82175 
" clip-path="url(#p5402fe61aa)" style="fill: none; stroke-dasharray: 12.8,3.2,2,3.2; stroke-dashoffset: 0; stroke: #ff7f0e; stroke-width: 2"/>
   </g>
   <g id="line2d_109">
    <path d="M 35.895313 127.82175 
L 872.895313 127.82175 
L 872.895313 127.82175 
" clip-path="url(#p5402fe61aa)" style="fill: none; stroke-dasharray: 2,3.3; stroke-dashoffset: 0; stroke: #ffbb78; stroke-width: 2"/>
   </g>
   <g id="line2d_110">
    <path d="M 35.895313 127.82175 
L 872.895313 127.82175 
L 872.895313 127.82175 
" clip-path="url(#p5402fe61aa)" style="fill: none; stroke: #2ca02c; stroke-width: 2; stroke-linecap: square"/>
   </g>
   <g id="line2d_111">
    <path d="M 35.895313 127.82175 
L 872.895313 127.82175 
L 872.895313 127.82175 
" clip-path="url(#p5402fe61aa)" style="fill: none; stroke-dasharray: 7.4,3.2; stroke-dashoffset: 0; stroke: #98df8a; stroke-width: 2"/>
   </g>
   <g id="line2d_112">
    <path d="M 35.895313 127.82175 
L 872.895313 127.82175 
L 872.895313 127.82175 
" clip-path="url(#p5402fe61aa)" style="fill: none; stroke-dasharray: 12.8,3.2,2,3.2; stroke-dashoffset: 0; stroke: #d62728; stroke-width: 2"/>
   </g>
   <g id="line2d_113">
    <path d="M 35.895313 127.82175 
L 872.895313 127.82175 
L 872.895313 127.82175 
" clip-path="url(#p5402fe61aa)" style="fill: none; stroke-dasharray: 10,20; stroke-dashoffset: 0; stroke: #ff9896; stroke-width: 2"/>
   </g>
   <g id="line2d_114">
    <path d="M 35.895313 127.82175 
L 872.895313 127.82175 
L 872.895313 127.82175 
" clip-path="url(#p5402fe61aa)" style="fill: none; stroke-dasharray: 6,2,2,2; stroke-dashoffset: 0; stroke: #9467bd; stroke-width: 2"/>
   </g>
   <g id="line2d_115">
    <path d="M 35.895313 127.82175 
L 872.895313 127.82175 
L 872.895313 127.82175 
" clip-path="url(#p5402fe61aa)" style="fill: none; stroke-dasharray: 10,2; stroke-dashoffset: 0; stroke: #c5b0d5; stroke-width: 2"/>
   </g>
   <g id="line2d_116">
    <path d="M 35.895313 127.82175 
L 872.895313 127.82175 
L 872.895313 127.82175 
" clip-path="url(#p5402fe61aa)" style="fill: none; stroke-dasharray: 10,10; stroke-dashoffset: 0; stroke: #8c564b; stroke-width: 2"/>
   </g>
   <g id="line2d_117">
    <path d="M 35.895313 127.82175 
L 872.895313 127.82175 
L 872.895313 127.82175 
" clip-path="url(#p5402fe61aa)" style="fill: none; stroke-dasharray: 6,20,2,20; stroke-dashoffset: 0; stroke: #c49c94; stroke-width: 2"/>
   </g>
   <g id="patch_3">
    <path d="M 35.895313 238.70175 
L 35.895313 16.94175 
" style="fill: none; stroke: #000000; stroke-width: 0.8; stroke-linejoin: miter; stroke-linecap: square"/>
   </g>
   <g id="patch_4">
    <path d="M 35.895313 238.70175 
L 872.895313 238.70175 
" style="fill: none; stroke: #000000; stroke-width: 0.8; stroke-linejoin: miter; stroke-linecap: square"/>
   </g>
   <g id="text_13">
    <!-- 100_Portfolios_10x10 - Portfolio Allocation for FM -->
    <g transform="translate(278.101063 10.94175) scale(0.144 -0.144)">
     <defs>
      <path id="DejaVuSans-5f" d="M 3263 -1063 
L 3263 -1509 
L -63 -1509 
L -63 -1063 
L 3263 -1063 
z
" transform="scale(0.015625)"/>
      <path id="DejaVuSans-50" d="M 1259 4147 
L 1259 2394 
L 2053 2394 
Q 2494 2394 2734 2622 
Q 2975 2850 2975 3272 
Q 2975 3691 2734 3919 
Q 2494 4147 2053 4147 
L 1259 4147 
z
M 628 4666 
L 2053 4666 
Q 2838 4666 3239 4311 
Q 3641 3956 3641 3272 
Q 3641 2581 3239 2228 
Q 2838 1875 2053 1875 
L 1259 1875 
L 1259 0 
L 628 0 
L 628 4666 
z
" transform="scale(0.015625)"/>
      <path id="DejaVuSans-6f" d="M 1959 3097 
Q 1497 3097 1228 2736 
Q 959 2375 959 1747 
Q 959 1119 1226 758 
Q 1494 397 1959 397 
Q 2419 397 2687 759 
Q 2956 1122 2956 1747 
Q 2956 2369 2687 2733 
Q 2419 3097 1959 3097 
z
M 1959 3584 
Q 2709 3584 3137 3096 
Q 3566 2609 3566 1747 
Q 3566 888 3137 398 
Q 2709 -91 1959 -91 
Q 1206 -91 779 398 
Q 353 888 353 1747 
Q 353 2609 779 3096 
Q 1206 3584 1959 3584 
z
" transform="scale(0.015625)"/>
      <path id="DejaVuSans-72" d="M 2631 2963 
Q 2534 3019 2420 3045 
Q 2306 3072 2169 3072 
Q 1681 3072 1420 2755 
Q 1159 2438 1159 1844 
L 1159 0 
L 581 0 
L 581 3500 
L 1159 3500 
L 1159 2956 
Q 1341 3275 1631 3429 
Q 1922 3584 2338 3584 
Q 2397 3584 2469 3576 
Q 2541 3569 2628 3553 
L 2631 2963 
z
" transform="scale(0.015625)"/>
      <path id="DejaVuSans-74" d="M 1172 4494 
L 1172 3500 
L 2356 3500 
L 2356 3053 
L 1172 3053 
L 1172 1153 
Q 1172 725 1289 603 
Q 1406 481 1766 481 
L 2356 481 
L 2356 0 
L 1766 0 
Q 1100 0 847 248 
Q 594 497 594 1153 
L 594 3053 
L 172 3053 
L 172 3500 
L 594 3500 
L 594 4494 
L 1172 4494 
z
" transform="scale(0.015625)"/>
      <path id="DejaVuSans-66" d="M 2375 4863 
L 2375 4384 
L 1825 4384 
Q 1516 4384 1395 4259 
Q 1275 4134 1275 3809 
L 1275 3500 
L 2222 3500 
L 2222 3053 
L 1275 3053 
L 1275 0 
L 697 0 
L 697 3053 
L 147 3053 
L 147 3500 
L 697 3500 
L 697 3744 
Q 697 4328 969 4595 
Q 1241 4863 1831 4863 
L 2375 4863 
z
" transform="scale(0.015625)"/>
      <path id="DejaVuSans-6c" d="M 603 4863 
L 1178 4863 
L 1178 0 
L 603 0 
L 603 4863 
z
" transform="scale(0.015625)"/>
      <path id="DejaVuSans-69" d="M 603 3500 
L 1178 3500 
L 1178 0 
L 603 0 
L 603 3500 
z
M 603 4863 
L 1178 4863 
L 1178 4134 
L 603 4134 
L 603 4863 
z
" transform="scale(0.015625)"/>
      <path id="DejaVuSans-73" d="M 2834 3397 
L 2834 2853 
Q 2591 2978 2328 3040 
Q 2066 3103 1784 3103 
Q 1356 3103 1142 2972 
Q 928 2841 928 2578 
Q 928 2378 1081 2264 
Q 1234 2150 1697 2047 
L 1894 2003 
Q 2506 1872 2764 1633 
Q 3022 1394 3022 966 
Q 3022 478 2636 193 
Q 2250 -91 1575 -91 
Q 1294 -91 989 -36 
Q 684 19 347 128 
L 347 722 
Q 666 556 975 473 
Q 1284 391 1588 391 
Q 1994 391 2212 530 
Q 2431 669 2431 922 
Q 2431 1156 2273 1281 
Q 2116 1406 1581 1522 
L 1381 1569 
Q 847 1681 609 1914 
Q 372 2147 372 2553 
Q 372 3047 722 3315 
Q 1072 3584 1716 3584 
Q 2034 3584 2315 3537 
Q 2597 3491 2834 3397 
z
" transform="scale(0.015625)"/>
      <path id="DejaVuSans-78" d="M 3513 3500 
L 2247 1797 
L 3578 0 
L 2900 0 
L 1881 1375 
L 863 0 
L 184 0 
L 1544 1831 
L 300 3500 
L 978 3500 
L 1906 2253 
L 2834 3500 
L 3513 3500 
z
" transform="scale(0.015625)"/>
      <path id="DejaVuSans-20" transform="scale(0.015625)"/>
      <path id="DejaVuSans-2d" d="M 313 2009 
L 1997 2009 
L 1997 1497 
L 313 1497 
L 313 2009 
z
" transform="scale(0.015625)"/>
      <path id="DejaVuSans-41" d="M 2188 4044 
L 1331 1722 
L 3047 1722 
L 2188 4044 
z
M 1831 4666 
L 2547 4666 
L 4325 0 
L 3669 0 
L 3244 1197 
L 1141 1197 
L 716 0 
L 50 0 
L 1831 4666 
z
" transform="scale(0.015625)"/>
      <path id="DejaVuSans-63" d="M 3122 3366 
L 3122 2828 
Q 2878 2963 2633 3030 
Q 2388 3097 2138 3097 
Q 1578 3097 1268 2742 
Q 959 2388 959 1747 
Q 959 1106 1268 751 
Q 1578 397 2138 397 
Q 2388 397 2633 464 
Q 2878 531 3122 666 
L 3122 134 
Q 2881 22 2623 -34 
Q 2366 -91 2075 -91 
Q 1284 -91 818 406 
Q 353 903 353 1747 
Q 353 2603 823 3093 
Q 1294 3584 2113 3584 
Q 2378 3584 2631 3529 
Q 2884 3475 3122 3366 
z
" transform="scale(0.015625)"/>
      <path id="DejaVuSans-61" d="M 2194 1759 
Q 1497 1759 1228 1600 
Q 959 1441 959 1056 
Q 959 750 1161 570 
Q 1363 391 1709 391 
Q 2188 391 2477 730 
Q 2766 1069 2766 1631 
L 2766 1759 
L 2194 1759 
z
M 3341 1997 
L 3341 0 
L 2766 0 
L 2766 531 
Q 2569 213 2275 61 
Q 1981 -91 1556 -91 
Q 1019 -91 701 211 
Q 384 513 384 1019 
Q 384 1609 779 1909 
Q 1175 2209 1959 2209 
L 2766 2209 
L 2766 2266 
Q 2766 2663 2505 2880 
Q 2244 3097 1772 3097 
Q 1472 3097 1187 3025 
Q 903 2953 641 2809 
L 641 3341 
Q 956 3463 1253 3523 
Q 1550 3584 1831 3584 
Q 2591 3584 2966 3190 
Q 3341 2797 3341 1997 
z
" transform="scale(0.015625)"/>
      <path id="DejaVuSans-6e" d="M 3513 2113 
L 3513 0 
L 2938 0 
L 2938 2094 
Q 2938 2591 2744 2837 
Q 2550 3084 2163 3084 
Q 1697 3084 1428 2787 
Q 1159 2491 1159 1978 
L 1159 0 
L 581 0 
L 581 3500 
L 1159 3500 
L 1159 2956 
Q 1366 3272 1645 3428 
Q 1925 3584 2291 3584 
Q 2894 3584 3203 3211 
Q 3513 2838 3513 2113 
z
" transform="scale(0.015625)"/>
      <path id="DejaVuSans-46" d="M 628 4666 
L 3309 4666 
L 3309 4134 
L 1259 4134 
L 1259 2759 
L 3109 2759 
L 3109 2228 
L 1259 2228 
L 1259 0 
L 628 0 
L 628 4666 
z
" transform="scale(0.015625)"/>
      <path id="DejaVuSans-4d" d="M 628 4666 
L 1569 4666 
L 2759 1491 
L 3956 4666 
L 4897 4666 
L 4897 0 
L 4281 0 
L 4281 4097 
L 3078 897 
L 2444 897 
L 1241 4097 
L 1241 0 
L 628 0 
L 628 4666 
z
" transform="scale(0.015625)"/>
     </defs>
     <use xlink:href="#DejaVuSans-31"/>
     <use xlink:href="#DejaVuSans-30" x="63.623047"/>
     <use xlink:href="#DejaVuSans-30" x="127.246094"/>
     <use xlink:href="#DejaVuSans-5f" x="190.869141"/>
     <use xlink:href="#DejaVuSans-50" x="240.869141"/>
     <use xlink:href="#DejaVuSans-6f" x="297.546875"/>
     <use xlink:href="#DejaVuSans-72" x="358.728516"/>
     <use xlink:href="#DejaVuSans-74" x="399.841797"/>
     <use xlink:href="#DejaVuSans-66" x="439.050781"/>
     <use xlink:href="#DejaVuSans-6f" x="474.255859"/>
     <use xlink:href="#DejaVuSans-6c" x="535.4375"/>
     <use xlink:href="#DejaVuSans-69" x="563.220703"/>
     <use xlink:href="#DejaVuSans-6f" x="591.003906"/>
     <use xlink:href="#DejaVuSans-73" x="652.185547"/>
     <use xlink:href="#DejaVuSans-5f" x="704.285156"/>
     <use xlink:href="#DejaVuSans-31" x="754.285156"/>
     <use xlink:href="#DejaVuSans-30" x="817.908203"/>
     <use xlink:href="#DejaVuSans-78" x="881.53125"/>
     <use xlink:href="#DejaVuSans-31" x="940.710938"/>
     <use xlink:href="#DejaVuSans-30" x="1004.333984"/>
     <use xlink:href="#DejaVuSans-20" x="1067.957031"/>
     <use xlink:href="#DejaVuSans-2d" x="1099.744141"/>
     <use xlink:href="#DejaVuSans-20" x="1135.828125"/>
     <use xlink:href="#DejaVuSans-50" x="1167.615234"/>
     <use xlink:href="#DejaVuSans-6f" x="1224.292969"/>
     <use xlink:href="#DejaVuSans-72" x="1285.474609"/>
     <use xlink:href="#DejaVuSans-74" x="1326.587891"/>
     <use xlink:href="#DejaVuSans-66" x="1365.796875"/>
     <use xlink:href="#DejaVuSans-6f" x="1401.001953"/>
     <use xlink:href="#DejaVuSans-6c" x="1462.183594"/>
     <use xlink:href="#DejaVuSans-69" x="1489.966797"/>
     <use xlink:href="#DejaVuSans-6f" x="1517.75"/>
     <use xlink:href="#DejaVuSans-20" x="1578.931641"/>
     <use xlink:href="#DejaVuSans-41" x="1610.71875"/>
     <use xlink:href="#DejaVuSans-6c" x="1679.126953"/>
     <use xlink:href="#DejaVuSans-6c" x="1706.910156"/>
     <use xlink:href="#DejaVuSans-6f" x="1734.693359"/>
     <use xlink:href="#DejaVuSans-63" x="1795.875"/>
     <use xlink:href="#DejaVuSans-61" x="1850.855469"/>
     <use xlink:href="#DejaVuSans-74" x="1912.134766"/>
     <use xlink:href="#DejaVuSans-69" x="1951.34375"/>
     <use xlink:href="#DejaVuSans-6f" x="1979.126953"/>
     <use xlink:href="#DejaVuSans-6e" x="2040.308594"/>
     <use xlink:href="#DejaVuSans-20" x="2103.6875"/>
     <use xlink:href="#DejaVuSans-66" x="2135.474609"/>
     <use xlink:href="#DejaVuSans-6f" x="2170.679688"/>
     <use xlink:href="#DejaVuSans-72" x="2231.861328"/>
     <use xlink:href="#DejaVuSans-20" x="2272.974609"/>
     <use xlink:href="#DejaVuSans-46" x="2304.761719"/>
     <use xlink:href="#DejaVuSans-4d" x="2362.28125"/>
    </g>
   </g>
  </g>
 </g>
 <defs>
  <clipPath id="p5402fe61aa">
   <rect x="35.895313" y="16.94175" width="837" height="221.76"/>
  </clipPath>
 </defs>
</svg>
