<?xml version="1.0" encoding="utf-8" standalone="no"?>
<!DOCTYPE svg PUBLIC "-//W3C//DTD SVG 1.1//EN"
  "http://www.w3.org/Graphics/SVG/1.1/DTD/svg11.dtd">
<svg xmlns:xlink="http://www.w3.org/1999/xlink" width="867.7pt" height="253.629875pt" viewBox="0 0 867.7 253.629875" xmlns="http://www.w3.org/2000/svg" version="1.1">
 <metadata>
  <rdf:RDF xmlns:dc="http://purl.org/dc/elements/1.1/" xmlns:cc="http://creativecommons.org/ns#" xmlns:rdf="http://www.w3.org/1999/02/22-rdf-syntax-ns#">
   <cc:Work>
    <dc:type rdf:resource="http://purl.org/dc/dcmitype/StillImage"/>
    <dc:date>2025-08-06T16:29:14.962352</dc:date>
    <dc:format>image/svg+xml</dc:format>
    <dc:creator>
     <cc:Agent>
      <dc:title>Matplotlib v3.9.2, https://matplotlib.org/</dc:title>
     </cc:Agent>
    </dc:creator>
   </cc:Work>
  </rdf:RDF>
 </metadata>
 <defs>
  <style type="text/css">*{stroke-linejoin: round; stroke-linecap: butt}</style>
 </defs>
 <g id="figure_1">
  <g id="patch_1">
   <path d="M 0 253.629875 
L 867.7 253.629875 
L 867.7 0 
L 0 0 
z
" style="fill: #ffffff"/>
  </g>
  <g id="axes_1">
   <g id="patch_2">
    <path d="M 30.7 238.70175 
L 867.7 238.70175 
L 867.7 16.94175 
L 30.7 16.94175 
z
" style="fill: #ffffff"/>
   </g>
   <g id="matplotlib.axis_1">
    <g id="xtick_1">
     <g id="line2d_1">
      <defs>
       <path id="mc71618e759" d="M 0 1.75 
L 0 -1.75 
" style="stroke: #000000; stroke-width: 0.8"/>
      </defs>
      <g>
       <use xlink:href="#mc71618e759" x="86.177701" y="238.70175" style="stroke: #000000; stroke-width: 0.8"/>
      </g>
     </g>
     <g id="text_1">
      <!-- 1992 -->
      <g transform="translate(73.452701 251.550188) scale(0.1 -0.1)">
       <defs>
        <path id="DejaVuSans-31" d="M 794 531 
L 1825 531 
L 1825 4091 
L 703 3866 
L 703 4441 
L 1819 4666 
L 2450 4666 
L 2450 531 
L 3481 531 
L 3481 0 
L 794 0 
L 794 531 
z
" transform="scale(0.015625)"/>
        <path id="DejaVuSans-39" d="M 703 97 
L 703 672 
Q 941 559 1184 500 
Q 1428 441 1663 441 
Q 2288 441 2617 861 
Q 2947 1281 2994 2138 
Q 2813 1869 2534 1725 
Q 2256 1581 1919 1581 
Q 1219 1581 811 2004 
Q 403 2428 403 3163 
Q 403 3881 828 4315 
Q 1253 4750 1959 4750 
Q 2769 4750 3195 4129 
Q 3622 3509 3622 2328 
Q 3622 1225 3098 567 
Q 2575 -91 1691 -91 
Q 1453 -91 1209 -44 
Q 966 3 703 97 
z
M 1959 2075 
Q 2384 2075 2632 2365 
Q 2881 2656 2881 3163 
Q 2881 3666 2632 3958 
Q 2384 4250 1959 4250 
Q 1534 4250 1286 3958 
Q 1038 3666 1038 3163 
Q 1038 2656 1286 2365 
Q 1534 2075 1959 2075 
z
" transform="scale(0.015625)"/>
        <path id="DejaVuSans-32" d="M 1228 531 
L 3431 531 
L 3431 0 
L 469 0 
L 469 531 
Q 828 903 1448 1529 
Q 2069 2156 2228 2338 
Q 2531 2678 2651 2914 
Q 2772 3150 2772 3378 
Q 2772 3750 2511 3984 
Q 2250 4219 1831 4219 
Q 1534 4219 1204 4116 
Q 875 4013 500 3803 
L 500 4441 
Q 881 4594 1212 4672 
Q 1544 4750 1819 4750 
Q 2544 4750 2975 4387 
Q 3406 4025 3406 3419 
Q 3406 3131 3298 2873 
Q 3191 2616 2906 2266 
Q 2828 2175 2409 1742 
Q 1991 1309 1228 531 
z
" transform="scale(0.015625)"/>
       </defs>
       <use xlink:href="#DejaVuSans-31"/>
       <use xlink:href="#DejaVuSans-39" x="63.623047"/>
       <use xlink:href="#DejaVuSans-39" x="127.246094"/>
       <use xlink:href="#DejaVuSans-32" x="190.869141"/>
      </g>
     </g>
    </g>
    <g id="xtick_2">
     <g id="line2d_2">
      <g>
       <use xlink:href="#mc71618e759" x="201.967588" y="238.70175" style="stroke: #000000; stroke-width: 0.8"/>
      </g>
     </g>
     <g id="text_2">
      <!-- 1996 -->
      <g transform="translate(189.242588 251.550188) scale(0.1 -0.1)">
       <defs>
        <path id="DejaVuSans-36" d="M 2113 2584 
Q 1688 2584 1439 2293 
Q 1191 2003 1191 1497 
Q 1191 994 1439 701 
Q 1688 409 2113 409 
Q 2538 409 2786 701 
Q 3034 994 3034 1497 
Q 3034 2003 2786 2293 
Q 2538 2584 2113 2584 
z
M 3366 4563 
L 3366 3988 
Q 3128 4100 2886 4159 
Q 2644 4219 2406 4219 
Q 1781 4219 1451 3797 
Q 1122 3375 1075 2522 
Q 1259 2794 1537 2939 
Q 1816 3084 2150 3084 
Q 2853 3084 3261 2657 
Q 3669 2231 3669 1497 
Q 3669 778 3244 343 
Q 2819 -91 2113 -91 
Q 1303 -91 875 529 
Q 447 1150 447 2328 
Q 447 3434 972 4092 
Q 1497 4750 2381 4750 
Q 2619 4750 2861 4703 
Q 3103 4656 3366 4563 
z
" transform="scale(0.015625)"/>
       </defs>
       <use xlink:href="#DejaVuSans-31"/>
       <use xlink:href="#DejaVuSans-39" x="63.623047"/>
       <use xlink:href="#DejaVuSans-39" x="127.246094"/>
       <use xlink:href="#DejaVuSans-36" x="190.869141"/>
      </g>
     </g>
    </g>
    <g id="xtick_3">
     <g id="line2d_3">
      <g>
       <use xlink:href="#mc71618e759" x="317.757476" y="238.70175" style="stroke: #000000; stroke-width: 0.8"/>
      </g>
     </g>
     <g id="text_3">
      <!-- 2000 -->
      <g transform="translate(305.032476 251.550188) scale(0.1 -0.1)">
       <defs>
        <path id="DejaVuSans-30" d="M 2034 4250 
Q 1547 4250 1301 3770 
Q 1056 3291 1056 2328 
Q 1056 1369 1301 889 
Q 1547 409 2034 409 
Q 2525 409 2770 889 
Q 3016 1369 3016 2328 
Q 3016 3291 2770 3770 
Q 2525 4250 2034 4250 
z
M 2034 4750 
Q 2819 4750 3233 4129 
Q 3647 3509 3647 2328 
Q 3647 1150 3233 529 
Q 2819 -91 2034 -91 
Q 1250 -91 836 529 
Q 422 1150 422 2328 
Q 422 3509 836 4129 
Q 1250 4750 2034 4750 
z
" transform="scale(0.015625)"/>
       </defs>
       <use xlink:href="#DejaVuSans-32"/>
       <use xlink:href="#DejaVuSans-30" x="63.623047"/>
       <use xlink:href="#DejaVuSans-30" x="127.246094"/>
       <use xlink:href="#DejaVuSans-30" x="190.869141"/>
      </g>
     </g>
    </g>
    <g id="xtick_4">
     <g id="line2d_4">
      <g>
       <use xlink:href="#mc71618e759" x="433.547363" y="238.70175" style="stroke: #000000; stroke-width: 0.8"/>
      </g>
     </g>
     <g id="text_4">
      <!-- 2004 -->
      <g transform="translate(420.822363 251.550188) scale(0.1 -0.1)">
       <defs>
        <path id="DejaVuSans-34" d="M 2419 4116 
L 825 1625 
L 2419 1625 
L 2419 4116 
z
M 2253 4666 
L 3047 4666 
L 3047 1625 
L 3713 1625 
L 3713 1100 
L 3047 1100 
L 3047 0 
L 2419 0 
L 2419 1100 
L 313 1100 
L 313 1709 
L 2253 4666 
z
" transform="scale(0.015625)"/>
       </defs>
       <use xlink:href="#DejaVuSans-32"/>
       <use xlink:href="#DejaVuSans-30" x="63.623047"/>
       <use xlink:href="#DejaVuSans-30" x="127.246094"/>
       <use xlink:href="#DejaVuSans-34" x="190.869141"/>
      </g>
     </g>
    </g>
    <g id="xtick_5">
     <g id="line2d_5">
      <g>
       <use xlink:href="#mc71618e759" x="549.33725" y="238.70175" style="stroke: #000000; stroke-width: 0.8"/>
      </g>
     </g>
     <g id="text_5">
      <!-- 2008 -->
      <g transform="translate(536.61225 251.550188) scale(0.1 -0.1)">
       <defs>
        <path id="DejaVuSans-38" d="M 2034 2216 
Q 1584 2216 1326 1975 
Q 1069 1734 1069 1313 
Q 1069 891 1326 650 
Q 1584 409 2034 409 
Q 2484 409 2743 651 
Q 3003 894 3003 1313 
Q 3003 1734 2745 1975 
Q 2488 2216 2034 2216 
z
M 1403 2484 
Q 997 2584 770 2862 
Q 544 3141 544 3541 
Q 544 4100 942 4425 
Q 1341 4750 2034 4750 
Q 2731 4750 3128 4425 
Q 3525 4100 3525 3541 
Q 3525 3141 3298 2862 
Q 3072 2584 2669 2484 
Q 3125 2378 3379 2068 
Q 3634 1759 3634 1313 
Q 3634 634 3220 271 
Q 2806 -91 2034 -91 
Q 1263 -91 848 271 
Q 434 634 434 1313 
Q 434 1759 690 2068 
Q 947 2378 1403 2484 
z
M 1172 3481 
Q 1172 3119 1398 2916 
Q 1625 2713 2034 2713 
Q 2441 2713 2670 2916 
Q 2900 3119 2900 3481 
Q 2900 3844 2670 4047 
Q 2441 4250 2034 4250 
Q 1625 4250 1398 4047 
Q 1172 3844 1172 3481 
z
" transform="scale(0.015625)"/>
       </defs>
       <use xlink:href="#DejaVuSans-32"/>
       <use xlink:href="#DejaVuSans-30" x="63.623047"/>
       <use xlink:href="#DejaVuSans-30" x="127.246094"/>
       <use xlink:href="#DejaVuSans-38" x="190.869141"/>
      </g>
     </g>
    </g>
    <g id="xtick_6">
     <g id="line2d_6">
      <g>
       <use xlink:href="#mc71618e759" x="665.127138" y="238.70175" style="stroke: #000000; stroke-width: 0.8"/>
      </g>
     </g>
     <g id="text_6">
      <!-- 2012 -->
      <g transform="translate(652.402138 251.550188) scale(0.1 -0.1)">
       <use xlink:href="#DejaVuSans-32"/>
       <use xlink:href="#DejaVuSans-30" x="63.623047"/>
       <use xlink:href="#DejaVuSans-31" x="127.246094"/>
       <use xlink:href="#DejaVuSans-32" x="190.869141"/>
      </g>
     </g>
    </g>
    <g id="xtick_7">
     <g id="line2d_7">
      <g>
       <use xlink:href="#mc71618e759" x="780.917025" y="238.70175" style="stroke: #000000; stroke-width: 0.8"/>
      </g>
     </g>
     <g id="text_7">
      <!-- 2016 -->
      <g transform="translate(768.192025 251.550188) scale(0.1 -0.1)">
       <use xlink:href="#DejaVuSans-32"/>
       <use xlink:href="#DejaVuSans-30" x="63.623047"/>
       <use xlink:href="#DejaVuSans-31" x="127.246094"/>
       <use xlink:href="#DejaVuSans-36" x="190.869141"/>
      </g>
     </g>
    </g>
   </g>
   <g id="matplotlib.axis_2">
    <g id="ytick_1">
     <g id="line2d_8">
      <path d="M 30.7 211.36953 
L 867.7 211.36953 
" clip-path="url(#p1cea315f15)" style="fill: none; stroke-dasharray: 1.85,0.8; stroke-dashoffset: 0; stroke: #b2b2b2; stroke-width: 0.5"/>
     </g>
     <g id="line2d_9">
      <defs>
       <path id="m49e5c079cd" d="M 1.75 0 
L -1.75 -0 
" style="stroke: #000000; stroke-width: 0.8"/>
      </defs>
      <g>
       <use xlink:href="#m49e5c079cd" x="30.7" y="211.36953" style="stroke: #000000; stroke-width: 0.8"/>
      </g>
     </g>
     <g id="text_8">
      <!-- 500 -->
      <g transform="translate(6.3625 215.168748) scale(0.1 -0.1)">
       <defs>
        <path id="DejaVuSans-35" d="M 691 4666 
L 3169 4666 
L 3169 4134 
L 1269 4134 
L 1269 2991 
Q 1406 3038 1543 3061 
Q 1681 3084 1819 3084 
Q 2600 3084 3056 2656 
Q 3513 2228 3513 1497 
Q 3513 744 3044 326 
Q 2575 -91 1722 -91 
Q 1428 -91 1123 -41 
Q 819 9 494 109 
L 494 744 
Q 775 591 1075 516 
Q 1375 441 1709 441 
Q 2250 441 2565 725 
Q 2881 1009 2881 1497 
Q 2881 1984 2565 2268 
Q 2250 2553 1709 2553 
Q 1456 2553 1204 2497 
Q 953 2441 691 2322 
L 691 4666 
z
" transform="scale(0.015625)"/>
       </defs>
       <use xlink:href="#DejaVuSans-35"/>
       <use xlink:href="#DejaVuSans-30" x="63.623047"/>
       <use xlink:href="#DejaVuSans-30" x="127.246094"/>
      </g>
     </g>
    </g>
    <g id="ytick_2">
     <g id="line2d_10">
      <path d="M 30.7 177.93007 
L 867.7 177.93007 
" clip-path="url(#p1cea315f15)" style="fill: none; stroke-dasharray: 1.85,0.8; stroke-dashoffset: 0; stroke: #b2b2b2; stroke-width: 0.5"/>
     </g>
     <g id="line2d_11">
      <g>
       <use xlink:href="#m49e5c079cd" x="30.7" y="177.93007" style="stroke: #000000; stroke-width: 0.8"/>
      </g>
     </g>
     <g id="text_9">
      <!-- 1000 -->
      <g transform="translate(0 181.729289) scale(0.1 -0.1)">
       <use xlink:href="#DejaVuSans-31"/>
       <use xlink:href="#DejaVuSans-30" x="63.623047"/>
       <use xlink:href="#DejaVuSans-30" x="127.246094"/>
       <use xlink:href="#DejaVuSans-30" x="190.869141"/>
      </g>
     </g>
    </g>
    <g id="ytick_3">
     <g id="line2d_12">
      <path d="M 30.7 144.490611 
L 867.7 144.490611 
" clip-path="url(#p1cea315f15)" style="fill: none; stroke-dasharray: 1.85,0.8; stroke-dashoffset: 0; stroke: #b2b2b2; stroke-width: 0.5"/>
     </g>
     <g id="line2d_13">
      <g>
       <use xlink:href="#m49e5c079cd" x="30.7" y="144.490611" style="stroke: #000000; stroke-width: 0.8"/>
      </g>
     </g>
     <g id="text_10">
      <!-- 1500 -->
      <g transform="translate(0 148.28983) scale(0.1 -0.1)">
       <use xlink:href="#DejaVuSans-31"/>
       <use xlink:href="#DejaVuSans-35" x="63.623047"/>
       <use xlink:href="#DejaVuSans-30" x="127.246094"/>
       <use xlink:href="#DejaVuSans-30" x="190.869141"/>
      </g>
     </g>
    </g>
    <g id="ytick_4">
     <g id="line2d_14">
      <path d="M 30.7 111.051152 
L 867.7 111.051152 
" clip-path="url(#p1cea315f15)" style="fill: none; stroke-dasharray: 1.85,0.8; stroke-dashoffset: 0; stroke: #b2b2b2; stroke-width: 0.5"/>
     </g>
     <g id="line2d_15">
      <g>
       <use xlink:href="#m49e5c079cd" x="30.7" y="111.051152" style="stroke: #000000; stroke-width: 0.8"/>
      </g>
     </g>
     <g id="text_11">
      <!-- 2000 -->
      <g transform="translate(0 114.850371) scale(0.1 -0.1)">
       <use xlink:href="#DejaVuSans-32"/>
       <use xlink:href="#DejaVuSans-30" x="63.623047"/>
       <use xlink:href="#DejaVuSans-30" x="127.246094"/>
       <use xlink:href="#DejaVuSans-30" x="190.869141"/>
      </g>
     </g>
    </g>
    <g id="ytick_5">
     <g id="line2d_16">
      <path d="M 30.7 77.611693 
L 867.7 77.611693 
" clip-path="url(#p1cea315f15)" style="fill: none; stroke-dasharray: 1.85,0.8; stroke-dashoffset: 0; stroke: #b2b2b2; stroke-width: 0.5"/>
     </g>
     <g id="line2d_17">
      <g>
       <use xlink:href="#m49e5c079cd" x="30.7" y="77.611693" style="stroke: #000000; stroke-width: 0.8"/>
      </g>
     </g>
     <g id="text_12">
      <!-- 2500 -->
      <g transform="translate(0 81.410912) scale(0.1 -0.1)">
       <use xlink:href="#DejaVuSans-32"/>
       <use xlink:href="#DejaVuSans-35" x="63.623047"/>
       <use xlink:href="#DejaVuSans-30" x="127.246094"/>
       <use xlink:href="#DejaVuSans-30" x="190.869141"/>
      </g>
     </g>
    </g>
    <g id="ytick_6">
     <g id="line2d_18">
      <path d="M 30.7 44.172234 
L 867.7 44.172234 
" clip-path="url(#p1cea315f15)" style="fill: none; stroke-dasharray: 1.85,0.8; stroke-dashoffset: 0; stroke: #b2b2b2; stroke-width: 0.5"/>
     </g>
     <g id="line2d_19">
      <g>
       <use xlink:href="#m49e5c079cd" x="30.7" y="44.172234" style="stroke: #000000; stroke-width: 0.8"/>
      </g>
     </g>
     <g id="text_13">
      <!-- 3000 -->
      <g transform="translate(0 47.971452) scale(0.1 -0.1)">
       <defs>
        <path id="DejaVuSans-33" d="M 2597 2516 
Q 3050 2419 3304 2112 
Q 3559 1806 3559 1356 
Q 3559 666 3084 287 
Q 2609 -91 1734 -91 
Q 1441 -91 1130 -33 
Q 819 25 488 141 
L 488 750 
Q 750 597 1062 519 
Q 1375 441 1716 441 
Q 2309 441 2620 675 
Q 2931 909 2931 1356 
Q 2931 1769 2642 2001 
Q 2353 2234 1838 2234 
L 1294 2234 
L 1294 2753 
L 1863 2753 
Q 2328 2753 2575 2939 
Q 2822 3125 2822 3475 
Q 2822 3834 2567 4026 
Q 2313 4219 1838 4219 
Q 1578 4219 1281 4162 
Q 984 4106 628 3988 
L 628 4550 
Q 988 4650 1302 4700 
Q 1616 4750 1894 4750 
Q 2613 4750 3031 4423 
Q 3450 4097 3450 3541 
Q 3450 3153 3228 2886 
Q 3006 2619 2597 2516 
z
" transform="scale(0.015625)"/>
       </defs>
       <use xlink:href="#DejaVuSans-33"/>
       <use xlink:href="#DejaVuSans-30" x="63.623047"/>
       <use xlink:href="#DejaVuSans-30" x="127.246094"/>
       <use xlink:href="#DejaVuSans-30" x="190.869141"/>
      </g>
     </g>
    </g>
   </g>
   <g id="line2d_20">
    <path d="M 30.7 238.121097 
L 35.375978 237.757272 
L 37.753593 237.947808 
L 40.210463 237.309078 
L 45.044948 237.410388 
L 47.501818 238.122395 
L 49.879434 238.554721 
L 52.336303 238.65487 
L 54.713919 238.099727 
L 57.170789 237.805909 
L 59.627658 237.355832 
L 61.846766 236.728633 
L 64.303636 236.395719 
L 66.681252 236.313284 
L 69.138121 235.937436 
L 71.515737 236.269064 
L 76.429476 235.613676 
L 78.807092 235.63798 
L 81.263962 235.374279 
L 83.641578 235.652549 
L 86.098447 234.629337 
L 90.853679 234.26046 
L 93.310548 234.437405 
L 98.145034 234.15447 
L 100.522649 234.306626 
L 102.979519 233.814264 
L 105.436389 234.028871 
L 110.270874 233.482739 
L 112.64849 233.014676 
L 115.105359 232.66405 
L 122.238207 231.906602 
L 124.615822 232.189476 
L 127.072692 231.831152 
L 131.907177 231.705345 
L 134.364047 231.077205 
L 136.741663 231.055022 
L 139.198532 230.87845 
L 141.576148 231.128871 
L 146.489887 230.395266 
L 148.708995 230.559201 
L 151.165865 231.117102 
L 156.00035 230.951699 
L 158.377966 231.197794 
L 160.834836 230.794279 
L 163.291705 230.189892 
L 165.669321 230.487098 
L 168.126191 230.195508 
L 170.503806 230.730907 
L 172.960676 230.606346 
L 175.417546 230.255086 
L 177.636654 229.531069 
L 180.093523 229.022539 
L 182.471139 228.675002 
L 187.305624 227.70971 
L 189.762494 226.97747 
L 192.219364 226.796118 
L 194.596979 226.217705 
L 197.053849 226.403152 
L 199.431465 225.530085 
L 213.934921 223.649363 
L 216.312537 223.736894 
L 218.769406 224.825666 
L 221.226276 224.059214 
L 223.603892 222.834266 
L 226.060761 222.379358 
L 228.438377 220.755261 
L 230.895247 221.00612 
L 233.352116 219.988969 
L 235.571224 219.700247 
L 238.028094 220.515949 
L 240.40571 219.526241 
L 242.862579 217.951257 
L 245.240195 216.903226 
L 247.697065 214.677595 
L 250.153934 215.399823 
L 252.53155 213.938659 
L 254.98842 215.155278 
L 257.366035 213.993929 
L 259.822905 213.230736 
L 262.279775 213.51381 
L 264.498883 211.056396 
L 266.955752 209.448559 
L 269.333368 209.287119 
L 271.790238 210.437739 
L 274.167853 209.912985 
L 276.624723 211.227966 
L 279.081593 216.037578 
L 281.459208 214.215656 
L 283.916078 211.426124 
L 286.293694 210.005415 
L 288.750563 208.358333 
L 291.207433 208.460941 
L 293.426541 209.26337 
L 295.883411 208.294549 
L 298.261026 205.117504 
L 300.717896 205.435965 
L 303.095512 204.221432 
L 305.552381 205.569266 
L 308.009251 206.307959 
L 310.386867 207.980626 
L 312.843736 206.165409 
L 315.221352 206.239422 
L 317.678222 204.624873 
L 320.135091 206.341636 
L 322.433453 207.550959 
L 324.890323 203.98518 
L 327.267939 203.288807 
L 329.724808 202.71972 
L 332.102424 203.752573 
L 334.559294 203.062601 
L 337.016163 200.467002 
L 339.393779 200.484119 
L 341.850649 198.980154 
L 344.228264 200.232775 
L 346.685134 197.246964 
L 349.142004 197.351723 
L 353.817981 201.193484 
L 356.195597 197.867885 
L 358.652467 196.693249 
L 361.030082 197.789065 
L 363.486952 197.535645 
L 365.943822 199.047677 
L 368.321437 203.562843 
L 370.778307 202.553614 
L 373.155923 198.995207 
L 375.612792 197.604985 
L 380.28877 197.358736 
L 382.74564 194.802871 
L 385.123255 196.358088 
L 387.580125 196.617486 
L 389.957741 199.466015 
L 392.41461 203.7473 
L 394.87148 203.663061 
L 397.249096 207.129913 
L 399.705965 205.39926 
L 402.083581 202.942842 
L 404.540451 205.209476 
L 406.99732 206.237704 
L 409.216428 206.734529 
L 411.673298 206.487805 
L 414.050914 203.61289 
L 416.507783 200.45959 
L 418.885399 199.975516 
L 421.342269 198.795961 
L 423.799138 197.136674 
L 426.176754 197.948454 
L 428.633624 194.635793 
L 431.011239 193.772205 
L 433.468109 191.472605 
L 435.924979 190.803965 
L 438.223341 189.72435 
L 440.68021 189.703515 
L 443.057826 190.606679 
L 445.514696 189.624244 
L 447.892311 188.307499 
L 450.349181 190.308652 
L 452.806051 190.117949 
L 455.183666 188.608147 
L 457.640536 187.243607 
L 460.018152 184.147242 
L 462.475021 181.964214 
L 464.931891 183.45025 
L 467.150999 181.75777 
L 469.607869 182.801278 
L 471.985484 184.350303 
L 474.442354 181.880702 
L 476.81997 181.02922 
L 479.276839 177.801261 
L 481.733709 178.569268 
L 484.111325 177.598912 
L 486.568194 178.958651 
L 488.94581 176.087557 
L 491.40268 175.921917 
L 493.859549 173.01176 
L 496.078657 173.032583 
L 500.913143 170.646051 
L 503.370012 172.954488 
L 505.747628 172.513909 
L 508.204498 172.895151 
L 510.661367 171.187792 
L 513.038983 169.359387 
L 515.495853 166.915125 
L 517.873468 164.94787 
L 520.330338 164.581706 
L 522.787208 162.774102 
L 525.006316 163.19452 
L 527.463185 162.410248 
L 532.297671 156.047227 
L 534.675286 157.425752 
L 537.132156 159.553243 
L 539.589026 158.38819 
L 541.966641 154.790308 
L 544.423511 152.48983 
L 546.801127 155.682223 
L 549.257996 155.883486 
L 551.714866 160.946071 
L 554.013228 162.997464 
L 556.470098 163.548056 
L 558.847713 159.294312 
L 561.304583 157.132471 
L 563.682199 164.470925 
L 566.139068 165.511715 
L 568.595938 164.21799 
L 570.973554 171.711469 
L 573.430423 185.874783 
L 575.808039 190.364263 
L 578.264909 188.786552 
L 580.721778 193.344961 
L 582.940886 198.607571 
L 585.397756 194.605679 
L 587.775372 188.298772 
L 590.232241 185.475023 
L 592.609857 185.609755 
L 595.066727 180.464755 
L 597.523596 178.078801 
L 599.901212 175.370081 
L 602.358082 177.453352 
L 604.735697 173.162825 
L 607.192567 170.961033 
L 609.649437 173.779977 
L 611.868545 171.318266 
L 614.325414 166.776821 
L 616.70303 164.987191 
L 619.1599 170.878135 
L 621.537515 174.515602 
L 623.994385 169.840477 
L 626.451255 172.650772 
L 628.82887 166.122778 
L 631.28574 162.947493 
L 633.663356 162.423304 
L 636.120225 157.00726 
L 638.577095 154.842775 
L 640.796203 152.100624 
L 643.253073 151.950577 
L 645.630688 149.014513 
L 648.087558 149.772721 
L 650.465174 151.333372 
L 652.922043 154.405417 
L 655.378913 158.987413 
L 657.756529 165.711759 
L 660.213398 156.636966 
L 662.591014 157.202601 
L 665.047884 157.076809 
L 667.504753 152.78641 
L 669.803115 149.227655 
L 672.259985 146.655441 
L 674.637601 146.736196 
L 677.09447 152.874431 
L 679.472086 150.062837 
L 681.928956 149.169202 
L 686.763441 144.831595 
L 689.220311 145.514192 
L 691.597926 144.734167 
L 694.054796 143.261183 
L 696.511666 137.200335 
L 698.730774 136.001984 
L 701.187643 131.589483 
L 703.565259 129.20679 
L 706.022129 127.006411 
L 708.399744 128.287954 
L 710.856614 122.711466 
L 713.313484 126.105382 
L 715.691099 121.261679 
L 718.147969 115.93914 
L 720.525585 112.757017 
L 722.982454 109.264714 
L 725.439324 112.585052 
L 727.658432 106.210503 
L 730.115302 105.197393 
L 732.492917 104.926824 
L 737.327403 98.074311 
L 739.784272 100.810787 
L 742.241142 95.094791 
L 744.618758 97.811147 
L 749.453243 88.494543 
L 751.910113 87.67517 
L 754.366982 91.157061 
L 756.58609 83.366514 
L 759.04296 84.88838 
L 761.420576 84.881093 
L 763.877445 83.020967 
L 766.255061 86.416145 
L 768.711931 83.662648 
L 771.1688 92.500093 
L 773.546416 96.571335 
L 776.003286 86.754947 
L 778.380901 86.053957 
L 780.837771 88.73676 
L 783.294641 96.764794 
L 785.593003 95.771154 
L 788.049872 85.262975 
L 790.427488 83.91053 
L 792.884358 81.827138 
L 795.261973 81.143348 
L 797.718843 75.503867 
L 800.175713 75.657659 
L 802.553328 75.46035 
L 805.010198 79.208109 
L 807.387814 71.957321 
L 809.844683 69.036725 
L 812.301553 64.961292 
L 814.520661 58.73456 
L 816.977531 58.553867 
L 819.355146 56.519376 
L 821.812016 52.878403 
L 824.189632 51.702808 
L 826.646501 48.437895 
L 829.103371 48.002572 
L 833.937856 39.609688 
L 836.315472 34.350357 
L 838.772342 32.437064 
L 841.229211 21.625655 
L 843.448319 30.532396 
L 845.905189 34.326856 
L 848.282805 34.181727 
L 850.739674 30.87265 
L 853.11729 30.533923 
L 855.57416 22.58402 
L 858.031029 18.021502 
L 860.408645 16.94175 
L 862.865515 32.750152 
L 865.24313 26.244162 
L 867.7 45.21037 
L 867.7 45.21037 
" clip-path="url(#p1cea315f15)" style="fill: none; stroke: #e69f00; stroke-width: 2; stroke-linecap: square"/>
   </g>
   <g id="line2d_21">
    <path d="M 30.7 238.121097 
L 35.375978 238.097941 
L 37.753593 238.496951 
L 40.210463 238.569301 
L 42.588079 238.485954 
L 45.044948 238.230765 
L 47.501818 238.473881 
L 49.879434 238.466189 
L 52.336303 238.313193 
L 57.170789 238.384828 
L 59.627658 238.647186 
L 61.846766 238.327075 
L 66.681252 238.241785 
L 69.138121 238.447724 
L 78.807092 237.56931 
L 83.641578 237.564303 
L 90.853679 237.379053 
L 93.310548 237.37255 
L 95.688164 237.050404 
L 105.436389 236.810182 
L 107.814004 236.73064 
L 112.64849 237.109057 
L 115.105359 236.445476 
L 117.562229 236.495161 
L 119.781337 236.183976 
L 122.238207 236.008315 
L 124.615822 236.22199 
L 127.072692 236.222835 
L 129.450308 236.683394 
L 131.907177 236.74208 
L 134.364047 236.544695 
L 139.198532 236.47411 
L 141.576148 236.756054 
L 144.033018 236.606005 
L 146.489887 236.630507 
L 151.165865 237.089516 
L 153.543481 236.91186 
L 156.00035 237.178808 
L 158.377966 237.310354 
L 163.291705 236.720744 
L 165.669321 236.812591 
L 168.126191 236.772904 
L 170.503806 237.020404 
L 184.928009 236.295017 
L 187.305624 236.45433 
L 197.053849 236.253633 
L 201.888334 235.581508 
L 204.345204 235.066998 
L 209.100436 235.061648 
L 216.312537 235.011091 
L 218.769406 235.697416 
L 221.226276 235.381929 
L 223.603892 235.216048 
L 228.438377 234.290191 
L 230.895247 234.254787 
L 233.352116 234.068497 
L 235.571224 234.023161 
L 238.028094 234.284033 
L 240.40571 234.040478 
L 242.862579 233.435626 
L 245.240195 233.208566 
L 247.697065 232.535268 
L 250.153934 232.697479 
L 252.53155 232.547007 
L 254.98842 232.721381 
L 257.366035 232.316378 
L 259.822905 232.422278 
L 262.279775 232.166916 
L 264.498883 231.70948 
L 266.955752 230.590243 
L 271.790238 231.133425 
L 276.624723 231.515492 
L 279.081593 232.749976 
L 281.459208 231.250414 
L 283.916078 230.752236 
L 286.293694 230.469583 
L 288.750563 230.501555 
L 293.426541 231.980119 
L 295.883411 232.63054 
L 298.261026 231.761287 
L 300.717896 231.885119 
L 305.552381 231.322362 
L 308.009251 231.282011 
L 310.386867 231.945428 
L 315.221352 232.425847 
L 317.678222 232.440181 
L 320.135091 233.320309 
L 322.433453 234.584297 
L 324.890323 233.120249 
L 327.267939 232.496546 
L 329.724808 232.653527 
L 332.102424 232.976137 
L 334.559294 232.891479 
L 337.016163 232.454423 
L 339.393779 232.761177 
L 341.850649 232.844359 
L 344.228264 233.069056 
L 346.685134 233.106875 
L 349.142004 233.772111 
L 353.817981 234.230381 
L 356.195597 233.62298 
L 358.652467 233.533346 
L 361.030082 233.806082 
L 365.943822 233.576994 
L 368.321437 234.179453 
L 370.778307 234.1993 
L 373.155923 233.692121 
L 375.612792 233.402654 
L 378.069662 233.391847 
L 380.28877 233.094109 
L 382.74564 232.541151 
L 385.123255 232.383028 
L 387.580125 232.600681 
L 389.957741 233.301209 
L 392.41461 233.863664 
L 394.87148 233.95675 
L 397.249096 234.581169 
L 399.705965 234.271682 
L 402.083581 234.496784 
L 404.540451 234.358693 
L 406.99732 234.642217 
L 411.673298 234.376011 
L 414.050914 234.6678 
L 416.507783 234.545623 
L 418.885399 234.291299 
L 421.342269 234.32058 
L 426.176754 234.105162 
L 428.633624 233.850025 
L 431.011239 233.771975 
L 433.468109 233.430088 
L 435.924979 233.623639 
L 438.223341 233.383803 
L 443.057826 233.071075 
L 447.892311 232.73127 
L 450.349181 233.236608 
L 452.806051 233.028293 
L 455.183666 233.033436 
L 457.640536 232.816715 
L 460.018152 232.781121 
L 462.475021 232.323853 
L 464.931891 232.449681 
L 467.150999 232.23643 
L 469.607869 232.504089 
L 474.442354 232.36928 
L 476.81997 232.171414 
L 479.276839 231.826171 
L 481.733709 232.073631 
L 486.568194 232.033283 
L 491.40268 231.867864 
L 493.859549 231.86976 
L 498.535527 231.492863 
L 500.913143 231.516363 
L 503.370012 231.69322 
L 505.747628 231.591152 
L 508.204498 231.217108 
L 510.661367 231.291 
L 517.873468 230.399952 
L 520.330338 230.536835 
L 522.787208 230.449247 
L 525.006316 230.636312 
L 527.463185 230.576933 
L 529.840801 230.200521 
L 532.297671 229.958337 
L 534.675286 230.481631 
L 537.132156 230.699875 
L 539.589026 230.520926 
L 544.423511 229.751036 
L 546.801127 229.911201 
L 549.257996 230.200359 
L 551.714866 230.292965 
L 554.013228 230.52598 
L 556.470098 230.486014 
L 561.304583 230.017617 
L 563.682199 230.952285 
L 566.139068 230.876408 
L 568.595938 230.585687 
L 570.973554 230.765119 
L 573.430423 231.66239 
L 575.808039 231.624702 
L 580.721778 232.150168 
L 582.940886 233.301591 
L 585.397756 232.941372 
L 587.775372 234.067594 
L 592.609857 234.029633 
L 595.066727 233.50606 
L 597.523596 233.742522 
L 602.358082 233.498849 
L 604.735697 232.694812 
L 607.192567 232.451272 
L 609.649437 232.774036 
L 614.325414 232.822127 
L 616.70303 232.637146 
L 619.1599 233.339438 
L 621.537515 233.371812 
L 623.994385 233.249878 
L 626.451255 233.493098 
L 628.82887 232.849784 
L 633.663356 232.805111 
L 636.120225 232.624629 
L 638.577095 233.151816 
L 640.796203 232.58853 
L 643.253073 232.569496 
L 648.087558 231.725809 
L 652.922043 232.568258 
L 655.378913 232.338927 
L 662.591014 232.125034 
L 665.047884 231.575261 
L 677.09447 231.705955 
L 679.472086 231.445407 
L 681.928956 231.618501 
L 686.763441 231.204249 
L 689.220311 231.246255 
L 691.597926 231.425522 
L 694.054796 231.810615 
L 696.511666 231.131424 
L 698.730774 230.320142 
L 701.187643 229.735548 
L 703.565259 229.614886 
L 706.022129 230.033226 
L 708.399744 230.11549 
L 710.856614 229.420898 
L 713.313484 229.796944 
L 715.691099 229.814553 
L 718.147969 229.312902 
L 720.525585 229.330785 
L 722.982454 229.137052 
L 725.439324 228.815357 
L 727.658432 227.923352 
L 730.115302 227.953477 
L 737.327403 227.285415 
L 739.784272 227.646887 
L 742.241142 227.017578 
L 744.618758 226.994069 
L 749.453243 226.025333 
L 754.366982 226.28399 
L 756.58609 225.660427 
L 759.04296 225.431355 
L 761.420576 225.724867 
L 763.877445 225.304755 
L 766.255061 225.558237 
L 768.711931 225.09986 
L 771.1688 225.751196 
L 773.546416 225.727187 
L 776.003286 224.951534 
L 778.380901 225.155921 
L 780.837771 225.091963 
L 785.593003 225.459438 
L 788.049872 224.75889 
L 790.427488 224.219212 
L 792.884358 224.702379 
L 795.261973 223.495195 
L 797.718843 223.221599 
L 800.175713 224.229037 
L 802.553328 224.562326 
L 805.010198 225.193985 
L 807.387814 225.391114 
L 814.520661 223.600185 
L 816.977531 223.866656 
L 819.355146 223.976955 
L 821.812016 223.536386 
L 824.189632 223.628555 
L 829.103371 223.298686 
L 831.480987 223.515979 
L 833.937856 223.288415 
L 836.315472 222.718539 
L 838.772342 222.587458 
L 841.229211 221.844402 
L 843.448319 222.929342 
L 845.905189 222.968008 
L 850.739674 222.664356 
L 853.11729 222.677943 
L 855.57416 222.845902 
L 858.031029 222.588978 
L 862.865515 223.434571 
L 865.24313 223.15678 
L 867.7 224.957324 
L 867.7 224.957324 
" clip-path="url(#p1cea315f15)" style="fill: none; stroke-dasharray: 7.4,3.2; stroke-dashoffset: 0; stroke: #56b4e9; stroke-width: 2"/>
   </g>
   <g id="line2d_22">
    <path d="M 0 0 
" clip-path="url(#p1cea315f15)" style="fill: none; stroke-dasharray: 12.8,3.2,2,3.2; stroke-dashoffset: 0; stroke: #009e73; stroke-width: 2"/>
   </g>
   <g id="line2d_23">
    <path d="M 30.7 238.121097 
L 35.375978 238.029297 
L 37.753593 238.269164 
L 40.210463 237.900217 
L 45.044948 237.76645 
L 47.501818 238.218257 
L 49.879434 238.455354 
L 52.336303 238.361345 
L 54.713919 238.067708 
L 57.170789 237.938606 
L 59.627658 237.959023 
L 61.846766 237.504551 
L 64.303636 237.311581 
L 71.515737 237.269065 
L 76.429476 236.835283 
L 81.263962 236.500381 
L 83.641578 236.609187 
L 86.098447 236.08002 
L 88.555317 236.298466 
L 93.310548 236.226368 
L 95.688164 235.925552 
L 98.145034 235.754042 
L 100.522649 235.751622 
L 102.979519 235.43055 
L 105.436389 235.45407 
L 107.814004 235.330157 
L 112.64849 235.354148 
L 115.105359 234.951744 
L 117.562229 234.883247 
L 122.238207 234.327835 
L 124.615822 234.456239 
L 127.072692 234.35626 
L 131.907177 234.435403 
L 134.364047 234.048466 
L 136.741663 234.027048 
L 139.198532 233.88857 
L 141.576148 234.266458 
L 144.033018 234.018416 
L 146.489887 233.964608 
L 148.708995 234.181454 
L 151.165865 234.536324 
L 153.543481 234.370994 
L 158.377966 234.666594 
L 163.291705 234.037337 
L 165.669321 234.220909 
L 168.126191 234.098341 
L 170.503806 234.393876 
L 172.960676 234.29059 
L 184.928009 233.003958 
L 189.762494 232.815923 
L 192.219364 232.736438 
L 194.596979 232.386144 
L 197.053849 232.427873 
L 199.431465 231.886961 
L 204.345204 231.056802 
L 209.100436 230.794726 
L 216.312537 230.50767 
L 218.769406 231.198623 
L 221.226276 230.756369 
L 223.603892 230.161461 
L 226.060761 229.698149 
L 228.438377 228.748045 
L 230.895247 228.834092 
L 233.352116 228.362498 
L 235.571224 228.134726 
L 238.028094 228.675973 
L 240.40571 228.126096 
L 242.862579 227.146091 
L 245.240195 226.453614 
L 247.697065 225.13065 
L 250.153934 225.610283 
L 252.53155 224.782556 
L 254.98842 225.25201 
L 257.366035 224.483288 
L 259.822905 223.897505 
L 262.279775 224.128761 
L 264.498883 222.759597 
L 266.955752 221.435207 
L 269.333368 221.520722 
L 271.790238 222.123535 
L 274.167853 221.90024 
L 276.624723 222.800199 
L 279.081593 225.31353 
L 281.459208 223.843727 
L 283.916078 222.535262 
L 286.293694 221.729774 
L 288.750563 221.1179 
L 293.426541 222.359789 
L 295.883411 222.334981 
L 298.261026 220.396139 
L 300.717896 220.408208 
L 303.095512 220.223366 
L 308.009251 221.099533 
L 310.386867 222.215413 
L 312.843736 221.751303 
L 315.221352 222.204326 
L 317.678222 222.080034 
L 320.135091 223.192942 
L 322.433453 225.197203 
L 324.890323 222.689003 
L 327.267939 221.741006 
L 329.724808 221.344784 
L 332.102424 221.800182 
L 334.559294 221.665538 
L 337.016163 220.426464 
L 339.393779 220.201751 
L 341.850649 219.507209 
L 344.228264 219.754098 
L 346.685134 218.639459 
L 349.142004 219.323362 
L 351.361112 219.742185 
L 353.817981 220.461423 
L 356.195597 219.140403 
L 358.652467 218.446093 
L 361.030082 219.163364 
L 363.486952 218.849001 
L 365.943822 219.072428 
L 368.321437 220.947305 
L 370.778307 220.555228 
L 373.155923 219.169296 
L 375.612792 218.575596 
L 378.069662 218.411854 
L 380.28877 217.885699 
L 382.74564 216.828039 
L 387.580125 217.310587 
L 389.957741 218.788778 
L 392.41461 220.66529 
L 394.87148 220.621052 
L 397.249096 222.256194 
L 399.705965 221.428004 
L 402.083581 220.976761 
L 404.540451 221.253311 
L 406.99732 221.816778 
L 409.216428 222.059303 
L 411.673298 221.876314 
L 416.507783 219.638046 
L 418.885399 219.239124 
L 421.342269 219.203803 
L 423.799138 218.709326 
L 426.176754 218.815245 
L 428.633624 217.850559 
L 431.011239 217.425575 
L 433.468109 216.339425 
L 435.924979 216.229703 
L 438.223341 215.483014 
L 440.68021 215.32436 
L 443.057826 215.294075 
L 447.892311 214.288011 
L 450.349181 215.167281 
L 455.183666 214.178061 
L 460.018152 212.677348 
L 462.475021 211.531112 
L 464.931891 212.110229 
L 467.150999 211.374911 
L 469.607869 211.800702 
L 471.985484 212.002145 
L 474.442354 211.237507 
L 476.81997 210.833001 
L 479.276839 209.378563 
L 481.733709 209.675813 
L 484.111325 209.356346 
L 486.568194 209.722925 
L 488.94581 208.68158 
L 491.40268 208.573669 
L 493.859549 207.553709 
L 496.078657 207.222786 
L 498.535527 206.681462 
L 500.913143 206.382094 
L 503.370012 207.016716 
L 505.747628 206.472507 
L 508.204498 205.542158 
L 510.661367 205.087377 
L 513.038983 204.375947 
L 515.495853 202.9851 
L 517.873468 202.485576 
L 520.330338 202.118116 
L 522.787208 201.045034 
L 525.006316 201.430245 
L 527.463185 201.010494 
L 529.840801 199.523393 
L 532.297671 198.289192 
L 537.132156 200.817923 
L 539.589026 199.99723 
L 541.966641 198.455877 
L 544.423511 197.105432 
L 546.801127 198.134457 
L 549.257996 198.454194 
L 551.714866 200.144209 
L 554.013228 201.273997 
L 556.470098 201.541213 
L 558.847713 199.878485 
L 561.304583 199.313239 
L 563.682199 202.838414 
L 566.139068 202.410024 
L 568.595938 201.498619 
L 570.973554 203.776618 
L 573.430423 210.151766 
L 575.808039 211.93451 
L 578.264909 211.231742 
L 580.721778 213.40926 
L 582.940886 216.730041 
L 585.397756 215.260266 
L 587.775372 214.254226 
L 590.232241 213.465878 
L 592.609857 213.08825 
L 595.066727 211.614877 
L 597.523596 211.558699 
L 599.901212 210.650111 
L 602.358082 210.929441 
L 604.735697 208.949766 
L 607.192567 208.16423 
L 609.649437 209.039015 
L 611.868545 208.422806 
L 616.70303 206.891729 
L 619.1599 209.27357 
L 621.537515 209.897844 
L 623.994385 208.54963 
L 626.451255 209.384408 
L 628.82887 207.0032 
L 631.28574 206.397988 
L 633.663356 206.68598 
L 636.120225 205.179346 
L 638.577095 205.035659 
L 640.796203 203.734763 
L 643.253073 203.238251 
L 645.630688 201.595634 
L 648.087558 201.070483 
L 650.465174 201.657619 
L 652.922043 202.775271 
L 655.378913 203.092596 
L 657.756529 204.111907 
L 660.213398 201.582693 
L 662.591014 201.303417 
L 665.047884 200.285648 
L 667.504753 200.130316 
L 669.803115 199.351931 
L 672.259985 198.247566 
L 674.637601 197.742453 
L 677.09447 198.452991 
L 679.472086 196.815893 
L 681.928956 196.11763 
L 684.385825 196.366342 
L 686.763441 195.388039 
L 689.220311 195.971663 
L 691.597926 196.112027 
L 694.054796 196.597159 
L 696.511666 194.326733 
L 698.730774 192.608991 
L 701.187643 190.151987 
L 703.565259 188.787921 
L 706.022129 189.900889 
L 708.399744 190.03609 
L 710.856614 187.531322 
L 713.313484 189.428659 
L 715.691099 188.206776 
L 718.147969 185.843425 
L 722.982454 184.211094 
L 725.439324 185.14628 
L 727.658432 182.240337 
L 730.115302 182.034592 
L 732.492917 181.385297 
L 734.949787 180.048345 
L 737.327403 179.087727 
L 739.784272 180.485389 
L 742.241142 177.786686 
L 744.618758 178.285582 
L 749.453243 172.939662 
L 751.910113 172.750466 
L 754.366982 172.988202 
L 756.58609 170.743587 
L 759.04296 170.832285 
L 761.420576 171.461156 
L 763.877445 170.283227 
L 766.255061 171.79663 
L 768.711931 169.361933 
L 771.1688 173.026124 
L 773.546416 173.588854 
L 776.003286 169.714891 
L 778.380901 170.032073 
L 780.837771 169.944646 
L 783.294641 172.085448 
L 785.593003 171.419589 
L 788.049872 166.885582 
L 790.427488 166.459973 
L 792.884358 165.780422 
L 795.261973 162.824114 
L 797.718843 160.868306 
L 800.175713 162.653867 
L 802.553328 163.120252 
L 805.010198 165.391016 
L 807.387814 164.168657 
L 809.844683 162.362142 
L 812.301553 160.83395 
L 814.520661 157.716856 
L 816.977531 158.02887 
L 819.355146 157.275515 
L 821.812016 155.559057 
L 824.189632 155.398565 
L 826.646501 154.003772 
L 829.103371 153.568823 
L 831.480987 152.46955 
L 833.937856 150.730953 
L 836.315472 147.808163 
L 838.772342 147.56117 
L 841.229211 143.503299 
L 843.448319 147.916019 
L 845.905189 149.023452 
L 848.282805 148.496985 
L 853.11729 146.836649 
L 855.57416 143.726606 
L 858.031029 141.492846 
L 860.408645 141.23207 
L 862.865515 146.030677 
L 865.24313 143.343005 
L 867.7 151.657404 
L 867.7 151.657404 
" clip-path="url(#p1cea315f15)" style="fill: none; stroke-dasharray: 2,3.3; stroke-dashoffset: 0; stroke: #0072b2; stroke-width: 2"/>
   </g>
   <g id="line2d_24">
    <path d="M 30.7 238.121097 
L 32.919108 238.117634 
L 40.210463 238.508922 
L 45.044948 238.221215 
L 47.501818 238.418552 
L 49.879434 238.476114 
L 52.336303 238.240414 
L 54.713919 238.157265 
L 59.627658 238.302619 
L 61.846766 238.110588 
L 64.303636 238.217915 
L 71.515737 238.019857 
L 73.972607 237.747147 
L 76.429476 237.659466 
L 78.807092 237.356273 
L 83.641578 237.394782 
L 88.555317 236.94735 
L 93.310548 237.018127 
L 95.688164 236.700306 
L 98.145034 236.560683 
L 100.522649 236.618505 
L 107.814004 236.192184 
L 112.64849 236.169798 
L 115.105359 235.791088 
L 117.562229 236.077306 
L 119.781337 236.012629 
L 122.238207 235.623018 
L 124.615822 235.705005 
L 127.072692 235.588049 
L 129.450308 235.787852 
L 131.907177 235.842567 
L 134.364047 235.570229 
L 141.576148 236.128668 
L 144.033018 236.054691 
L 151.165865 236.614147 
L 153.543481 236.429185 
L 156.00035 236.63558 
L 158.377966 236.687181 
L 163.291705 236.451055 
L 165.669321 236.581949 
L 168.126191 236.514655 
L 170.503806 236.69511 
L 177.636654 236.38952 
L 182.471139 236.357425 
L 184.928009 236.222353 
L 194.596979 236.194336 
L 197.053849 236.283783 
L 204.345204 235.000143 
L 206.643566 235.038894 
L 213.934921 234.873918 
L 216.312537 235.017063 
L 218.769406 235.464761 
L 221.226276 235.203996 
L 223.603892 234.778879 
L 226.060761 234.641616 
L 228.438377 234.106896 
L 230.895247 234.306583 
L 233.352116 234.049667 
L 235.571224 233.946217 
L 238.028094 234.299452 
L 240.40571 233.859438 
L 242.862579 233.191 
L 245.240195 232.809944 
L 247.697065 232.009509 
L 250.153934 232.317063 
L 252.53155 231.706485 
L 254.98842 232.138871 
L 257.366035 231.628447 
L 259.822905 231.260538 
L 262.279775 231.42085 
L 264.498883 230.398901 
L 266.955752 229.674189 
L 269.333368 229.739107 
L 271.790238 230.136968 
L 274.167853 230.403079 
L 276.624723 231.297894 
L 279.081593 232.877127 
L 281.459208 231.320067 
L 283.916078 231.183556 
L 286.293694 231.209334 
L 288.750563 230.803536 
L 291.207433 232.110098 
L 295.883411 233.717354 
L 298.261026 232.609961 
L 300.717896 232.796323 
L 303.095512 232.527197 
L 305.552381 232.580012 
L 308.009251 233.09412 
L 310.386867 233.823042 
L 315.221352 234.135611 
L 317.678222 234.122615 
L 320.135091 235.139427 
L 322.433453 235.696238 
L 324.890323 234.845432 
L 327.267939 234.45863 
L 329.724808 234.418357 
L 332.102424 234.787435 
L 334.559294 234.630302 
L 339.393779 233.625678 
L 341.850649 233.917658 
L 344.228264 234.38987 
L 346.685134 234.231123 
L 349.142004 234.932229 
L 353.817981 235.424905 
L 356.195597 235.399781 
L 358.652467 235.067386 
L 361.030082 235.725308 
L 363.486952 235.694589 
L 365.943822 235.918756 
L 368.321437 236.76514 
L 370.778307 236.632001 
L 373.155923 236.221553 
L 375.612792 235.955211 
L 378.069662 235.827614 
L 380.28877 235.377455 
L 382.74564 235.080311 
L 387.580125 235.214075 
L 392.41461 236.085394 
L 394.87148 235.996123 
L 397.249096 236.713564 
L 399.705965 236.47954 
L 409.216428 236.690178 
L 411.673298 236.619888 
L 416.507783 235.933246 
L 426.176754 235.61101 
L 428.633624 235.349173 
L 431.011239 235.287673 
L 433.468109 235.039002 
L 438.223341 234.791537 
L 447.892311 234.233312 
L 450.349181 234.642801 
L 452.806051 234.393495 
L 455.183666 234.534771 
L 460.018152 234.523113 
L 462.475021 233.965496 
L 464.931891 234.001778 
L 467.150999 233.89165 
L 471.985484 233.835584 
L 476.81997 233.437104 
L 479.276839 232.683846 
L 481.733709 232.719087 
L 484.111325 232.512212 
L 486.568194 232.549556 
L 488.94581 232.347388 
L 491.40268 232.386165 
L 496.078657 232.097304 
L 498.535527 232.089401 
L 503.370012 232.371725 
L 505.747628 232.157923 
L 508.204498 231.767206 
L 510.661367 231.87837 
L 517.873468 230.953069 
L 520.330338 230.827309 
L 522.787208 230.357241 
L 525.006316 230.446862 
L 527.463185 230.264155 
L 532.297671 229.227038 
L 537.132156 230.188517 
L 539.589026 230.240941 
L 541.966641 229.96792 
L 544.423511 229.391299 
L 546.801127 229.789583 
L 549.257996 229.96297 
L 554.013228 230.532765 
L 556.470098 230.382031 
L 558.847713 230.048702 
L 561.304583 229.928598 
L 563.682199 231.053339 
L 566.139068 230.88807 
L 568.595938 230.550194 
L 570.973554 230.983626 
L 573.430423 232.704071 
L 575.808039 233.324264 
L 578.264909 233.174167 
L 580.721778 234.068526 
L 582.940886 234.728601 
L 585.397756 234.586847 
L 587.775372 236.511771 
L 592.609857 236.406374 
L 595.066727 236.097808 
L 597.523596 236.279919 
L 602.358082 236.036103 
L 604.735697 235.265817 
L 607.192567 235.238149 
L 609.649437 235.568196 
L 614.325414 235.449962 
L 616.70303 235.049398 
L 619.1599 235.657961 
L 621.537515 235.796493 
L 623.994385 235.778473 
L 626.451255 236.029844 
L 628.82887 235.516071 
L 631.28574 235.400159 
L 633.663356 235.501913 
L 636.120225 235.166929 
L 638.577095 235.375893 
L 640.796203 234.987069 
L 643.253073 234.90607 
L 645.630688 234.595405 
L 648.087558 234.519323 
L 652.922043 234.784315 
L 657.756529 234.836524 
L 660.213398 234.449988 
L 662.591014 234.300747 
L 665.047884 233.826529 
L 667.504753 233.959461 
L 674.637601 233.4481 
L 677.09447 233.479173 
L 681.928956 233.259511 
L 684.385825 233.258491 
L 686.763441 233.020103 
L 689.220311 233.082595 
L 691.597926 232.944999 
L 694.054796 233.419222 
L 698.730774 232.601246 
L 701.187643 232.238587 
L 703.565259 232.308695 
L 706.022129 232.674304 
L 708.399744 232.895664 
L 710.856614 232.545122 
L 713.313484 232.980885 
L 715.691099 232.870006 
L 718.147969 232.544887 
L 722.982454 232.590717 
L 725.439324 232.413606 
L 727.658432 231.693146 
L 732.492917 231.63628 
L 737.327403 231.243491 
L 739.784272 231.456279 
L 742.241142 231.060078 
L 744.618758 230.862507 
L 749.453243 229.745001 
L 754.366982 230.317327 
L 756.58609 229.579381 
L 761.420576 229.765293 
L 763.877445 229.472226 
L 766.255061 229.592094 
L 768.711931 229.068338 
L 771.1688 229.74598 
L 773.546416 229.958499 
L 776.003286 229.476308 
L 778.380901 230.034287 
L 780.837771 230.074974 
L 783.294641 230.678178 
L 785.593003 230.74855 
L 790.427488 229.803098 
L 792.884358 229.759756 
L 795.261973 228.791193 
L 797.718843 228.379965 
L 800.175713 228.79622 
L 802.553328 229.079696 
L 805.010198 229.673385 
L 807.387814 229.732316 
L 809.844683 229.125797 
L 812.301553 228.763848 
L 814.520661 227.999428 
L 816.977531 228.223073 
L 829.103371 227.58756 
L 833.937856 226.981107 
L 836.315472 226.362464 
L 838.772342 226.277537 
L 841.229211 225.438126 
L 843.448319 226.230462 
L 845.905189 226.472545 
L 850.739674 226.001265 
L 853.11729 226.017603 
L 855.57416 225.301022 
L 858.031029 225.099365 
L 862.865515 226.293826 
L 865.24313 226.157756 
L 867.7 227.945572 
L 867.7 227.945572 
" clip-path="url(#p1cea315f15)" style="fill: none; stroke: #d55e00; stroke-width: 2; stroke-linecap: square"/>
   </g>
   <g id="line2d_25">
    <path d="M 30.7 238.121097 
L 32.919108 238.103412 
L 35.375978 238.232073 
L 40.210463 238.665924 
L 45.044948 238.416817 
L 47.501818 238.644944 
L 49.879434 238.70175 
L 54.713919 238.369058 
L 59.627658 238.47266 
L 61.846766 238.279534 
L 64.303636 238.370676 
L 71.515737 238.179176 
L 73.972607 237.919989 
L 76.429476 237.779618 
L 78.807092 237.44668 
L 83.641578 237.509547 
L 88.555317 237.012883 
L 93.310548 237.02088 
L 95.688164 236.64542 
L 98.145034 236.596435 
L 100.522649 236.68123 
L 102.979519 236.558351 
L 105.436389 236.266371 
L 107.814004 236.303002 
L 110.270874 236.227607 
L 112.64849 236.456462 
L 115.105359 235.950219 
L 117.562229 236.177302 
L 119.781337 236.092404 
L 122.238207 235.701038 
L 124.615822 235.783588 
L 127.072692 235.672199 
L 131.907177 235.9172 
L 134.364047 235.575586 
L 139.198532 235.899976 
L 141.576148 236.156361 
L 144.033018 236.037237 
L 148.708995 236.233704 
L 151.165865 236.456778 
L 153.543481 236.282511 
L 156.00035 236.551445 
L 158.377966 236.615478 
L 163.291705 236.341058 
L 165.669321 236.486445 
L 168.126191 236.442071 
L 170.503806 236.637456 
L 177.636654 236.337237 
L 182.471139 236.242041 
L 184.928009 236.107259 
L 197.053849 236.172334 
L 204.345204 234.866157 
L 206.643566 234.904755 
L 213.934921 234.711324 
L 216.312537 234.849861 
L 218.769406 235.309374 
L 221.226276 235.043236 
L 223.603892 234.603594 
L 226.060761 234.456697 
L 228.438377 233.907621 
L 230.895247 234.047872 
L 233.352116 233.785523 
L 235.571224 233.746923 
L 238.028094 234.106636 
L 240.40571 233.658676 
L 242.862579 232.988691 
L 245.240195 232.569482 
L 247.697065 231.756641 
L 250.153934 232.102187 
L 252.53155 231.472211 
L 254.98842 231.919034 
L 257.366035 231.40059 
L 259.822905 231.029276 
L 262.279775 231.188179 
L 264.498883 230.147775 
L 266.955752 229.418318 
L 269.333368 229.485748 
L 274.167853 230.175734 
L 276.624723 231.069652 
L 279.081593 232.647614 
L 281.459208 231.073668 
L 286.293694 230.898129 
L 288.750563 230.450758 
L 291.207433 231.772221 
L 293.426541 232.652801 
L 295.883411 233.428678 
L 298.261026 232.315758 
L 300.717896 232.551082 
L 303.095512 232.357129 
L 305.552381 232.411477 
L 308.009251 232.912979 
L 310.386867 233.687825 
L 312.843736 233.885632 
L 317.678222 233.88613 
L 320.135091 234.912831 
L 322.433453 235.527582 
L 324.890323 234.633538 
L 327.267939 234.217038 
L 329.724808 234.1939 
L 332.102424 234.582753 
L 334.559294 234.416451 
L 339.393779 233.479232 
L 341.850649 233.788844 
L 344.228264 234.232917 
L 346.685134 234.028449 
L 349.142004 234.732795 
L 353.817981 235.216289 
L 356.195597 235.161338 
L 358.652467 234.825546 
L 361.030082 235.390691 
L 363.486952 235.433538 
L 365.943822 235.363837 
L 368.321437 236.260567 
L 370.778307 236.116259 
L 373.155923 235.683192 
L 375.612792 235.398567 
L 378.069662 235.287906 
L 380.28877 234.814721 
L 382.74564 234.474431 
L 387.580125 234.605795 
L 392.41461 235.63431 
L 394.87148 235.560104 
L 397.249096 236.228461 
L 399.705965 235.994234 
L 409.216428 236.251357 
L 411.673298 236.176009 
L 416.507783 235.444303 
L 418.885399 235.364933 
L 421.342269 235.535101 
L 426.176754 235.308866 
L 428.633624 235.017181 
L 431.011239 234.914387 
L 433.468109 234.638935 
L 435.924979 234.58832 
L 443.057826 234.170067 
L 447.892311 233.878753 
L 450.349181 234.306747 
L 452.806051 234.059309 
L 455.183666 234.181257 
L 460.018152 234.128182 
L 462.475021 233.527264 
L 464.931891 233.554254 
L 467.150999 233.41114 
L 471.985484 233.390406 
L 476.81997 232.991064 
L 479.276839 232.218983 
L 481.733709 232.25899 
L 484.111325 232.044875 
L 486.568194 232.093038 
L 488.94581 231.840176 
L 491.40268 231.809428 
L 496.078657 231.498523 
L 498.535527 231.477534 
L 503.370012 231.772139 
L 505.747628 231.552505 
L 508.204498 231.127155 
L 510.661367 231.302691 
L 517.873468 230.341745 
L 520.330338 230.194416 
L 522.787208 229.726551 
L 525.006316 229.814952 
L 527.463185 229.619707 
L 532.297671 228.529668 
L 537.132156 229.504565 
L 539.589026 229.566653 
L 541.966641 229.248652 
L 544.423511 228.657819 
L 546.801127 229.073001 
L 549.257996 229.251793 
L 554.013228 229.82083 
L 556.470098 229.676227 
L 558.847713 229.305298 
L 561.304583 229.151937 
L 563.682199 230.319554 
L 566.139068 230.182986 
L 568.595938 229.897926 
L 570.973554 230.380275 
L 573.430423 232.183334 
L 575.808039 232.754961 
L 578.264909 232.633987 
L 580.721778 233.550749 
L 582.940886 234.258737 
L 585.397756 234.104253 
L 587.775372 236.001711 
L 590.232241 235.87786 
L 592.609857 235.984282 
L 595.066727 235.693606 
L 597.523596 235.827026 
L 602.358082 235.62596 
L 604.735697 234.825109 
L 607.192567 234.773177 
L 609.649437 234.989233 
L 614.325414 234.853317 
L 616.70303 234.45279 
L 619.1599 235.126975 
L 621.537515 235.267064 
L 623.994385 235.218 
L 626.451255 235.432229 
L 628.82887 235.033327 
L 631.28574 234.906992 
L 633.663356 235.003736 
L 636.120225 234.651351 
L 638.577095 234.849099 
L 640.796203 234.413931 
L 643.253073 234.321508 
L 645.630688 234.027047 
L 648.087558 233.927581 
L 652.922043 234.260461 
L 655.378913 234.140375 
L 657.756529 234.301125 
L 660.213398 233.847726 
L 662.591014 233.681426 
L 665.047884 233.185581 
L 667.504753 233.320569 
L 681.928956 232.10406 
L 684.385825 232.120708 
L 686.763441 231.863729 
L 689.220311 231.924561 
L 691.597926 231.799931 
L 694.054796 232.308803 
L 698.730774 231.393953 
L 701.187643 230.955651 
L 703.565259 230.976765 
L 708.399744 231.583859 
L 710.856614 231.200286 
L 713.313484 231.648905 
L 715.691099 231.539145 
L 718.147969 231.200044 
L 722.982454 231.21851 
L 725.439324 231.046546 
L 727.658432 230.235468 
L 730.115302 230.277699 
L 732.492917 230.206577 
L 737.327403 229.767369 
L 739.784272 230.04205 
L 742.241142 229.60587 
L 744.618758 229.337796 
L 749.453243 228.079184 
L 754.366982 228.705296 
L 756.58609 227.941403 
L 761.420576 228.125613 
L 763.877445 227.791398 
L 766.255061 227.896937 
L 768.711931 227.306728 
L 771.1688 228.092023 
L 773.546416 228.341712 
L 776.003286 227.741015 
L 778.380901 228.371251 
L 780.837771 228.427972 
L 783.294641 229.077686 
L 785.593003 229.130859 
L 790.427488 228.119222 
L 792.884358 228.117164 
L 795.261973 227.033835 
L 797.718843 226.611958 
L 800.175713 227.066573 
L 802.553328 227.351053 
L 805.010198 227.990167 
L 807.387814 228.068564 
L 809.844683 227.398082 
L 812.301553 227.007789 
L 814.520661 226.16265 
L 816.977531 226.409876 
L 829.103371 225.675286 
L 833.937856 225.00512 
L 836.315472 224.299579 
L 838.772342 224.207994 
L 841.229211 223.271893 
L 843.448319 224.140955 
L 845.905189 224.403471 
L 850.739674 223.976898 
L 853.11729 223.995209 
L 855.57416 223.1942 
L 858.031029 222.961252 
L 860.408645 223.257329 
L 862.865515 223.878316 
L 865.24313 223.744689 
L 867.7 225.77765 
L 867.7 225.77765 
" clip-path="url(#p1cea315f15)" style="fill: none; stroke-dasharray: 7.4,3.2; stroke-dashoffset: 0; stroke: #cc79a7; stroke-width: 2"/>
   </g>
   <g id="line2d_26">
    <path d="M 30.7 238.121097 
L 35.375978 237.779179 
L 37.753593 237.983755 
L 40.210463 237.394565 
L 45.044948 237.45254 
L 47.501818 238.121791 
L 49.879434 238.513751 
L 52.336303 238.589235 
L 54.713919 238.090238 
L 57.170789 237.81519 
L 59.627658 237.428167 
L 61.846766 236.823629 
L 64.303636 236.519121 
L 66.681252 236.437816 
L 69.138121 236.129285 
L 71.515737 236.398893 
L 76.429476 235.758127 
L 78.807092 235.748176 
L 81.263962 235.510501 
L 83.641578 235.757141 
L 86.098447 234.804447 
L 90.853679 234.454504 
L 93.310548 234.615451 
L 98.145034 234.316014 
L 100.522649 234.451255 
L 102.979519 233.991078 
L 105.436389 234.174086 
L 110.270874 233.689103 
L 115.105359 232.902048 
L 119.781337 232.547218 
L 122.238207 232.161661 
L 124.615822 232.439465 
L 127.072692 232.119867 
L 131.907177 232.07849 
L 134.364047 231.499178 
L 136.741663 231.471741 
L 139.198532 231.310155 
L 141.576148 231.570939 
L 146.489887 230.902636 
L 148.708995 231.080044 
L 151.165865 231.603148 
L 153.543481 231.471506 
L 156.00035 231.465213 
L 158.377966 231.6999 
L 160.834836 231.301939 
L 163.291705 230.718291 
L 165.669321 230.992624 
L 168.126191 230.725611 
L 170.503806 231.233884 
L 172.960676 231.105181 
L 175.417546 230.784582 
L 177.636654 230.107888 
L 180.093523 229.626293 
L 182.471139 229.309517 
L 189.762494 227.769363 
L 192.219364 227.61253 
L 194.596979 227.069849 
L 197.053849 227.234536 
L 199.431465 226.413185 
L 206.643566 225.424425 
L 213.934921 224.587311 
L 216.312537 224.661233 
L 218.769406 225.734157 
L 221.226276 225.006704 
L 223.603892 223.904111 
L 226.060761 223.419954 
L 228.438377 221.914669 
L 230.895247 222.118372 
L 233.352116 221.201119 
L 235.571224 220.939406 
L 238.028094 221.699431 
L 240.40571 220.781433 
L 242.862579 219.29107 
L 245.240195 218.318731 
L 247.697065 216.239808 
L 250.153934 216.907131 
L 252.53155 215.57519 
L 254.98842 216.647258 
L 257.366035 215.557014 
L 259.822905 214.934251 
L 262.279775 215.108393 
L 264.498883 212.911301 
L 266.955752 211.261679 
L 269.333368 211.187892 
L 271.790238 212.22184 
L 274.167853 211.799523 
L 276.624723 212.980057 
L 279.081593 217.382573 
L 281.459208 215.493114 
L 283.916078 212.957423 
L 288.750563 210.198579 
L 291.207433 210.440109 
L 293.426541 211.270354 
L 295.883411 210.578485 
L 298.261026 207.636076 
L 300.717896 207.930644 
L 303.095512 206.821821 
L 305.552381 207.873516 
L 308.009251 208.478191 
L 310.386867 210.068224 
L 312.843736 208.568331 
L 315.221352 208.689989 
L 317.678222 207.305073 
L 320.135091 208.995564 
L 322.433453 210.372271 
L 324.890323 206.909421 
L 327.267939 206.11529 
L 329.724808 205.690027 
L 332.102424 206.644308 
L 334.559294 206.025971 
L 337.016163 203.688648 
L 339.393779 203.787521 
L 341.850649 202.527526 
L 344.228264 203.641143 
L 346.685134 201.152317 
L 349.142004 201.452292 
L 353.817981 204.796684 
L 356.195597 201.800651 
L 358.652467 200.781067 
L 361.030082 201.781908 
L 363.486952 201.536392 
L 365.943822 202.725731 
L 368.321437 206.680052 
L 370.778307 205.846296 
L 373.155923 202.698743 
L 375.612792 201.432487 
L 380.28877 201.104295 
L 382.74564 198.772603 
L 385.123255 199.990706 
L 387.580125 200.279775 
L 389.957741 202.90567 
L 392.41461 206.740828 
L 394.87148 206.69547 
L 397.249096 209.806811 
L 399.705965 208.245357 
L 402.083581 206.267483 
L 404.540451 208.099688 
L 406.99732 209.050034 
L 409.216428 209.414459 
L 411.673298 209.143318 
L 414.050914 206.812446 
L 416.507783 204.110922 
L 418.885399 203.592649 
L 421.342269 202.630692 
L 423.799138 201.220598 
L 426.176754 201.831036 
L 428.633624 199.02155 
L 431.011239 198.27265 
L 433.468109 196.24815 
L 435.924979 195.816949 
L 438.223341 194.819038 
L 440.68021 194.736624 
L 443.057826 195.318839 
L 445.514696 194.42493 
L 447.892311 193.284096 
L 450.349181 195.146099 
L 452.806051 194.862629 
L 457.640536 192.454316 
L 460.018152 189.953915 
L 462.475021 187.959074 
L 464.931891 189.196875 
L 467.150999 187.730889 
L 469.607869 188.704022 
L 471.985484 189.865398 
L 474.442354 187.846762 
L 476.81997 187.053329 
L 479.276839 184.278268 
L 481.733709 185.014134 
L 484.111325 184.229857 
L 486.568194 185.277997 
L 488.94581 182.908617 
L 491.40268 182.749493 
L 493.859549 180.439661 
L 496.078657 180.3115 
L 500.913143 178.309748 
L 503.370012 180.257034 
L 505.747628 179.838646 
L 508.204498 179.918433 
L 510.661367 178.586136 
L 513.038983 176.94703 
L 515.495853 174.767577 
L 517.873468 173.100518 
L 520.330338 172.876226 
L 522.787208 171.380076 
L 525.006316 171.806 
L 527.463185 171.142155 
L 532.297671 165.675062 
L 534.675286 167.031324 
L 537.132156 168.84992 
L 539.589026 167.798714 
L 541.966641 164.672701 
L 544.423511 162.617909 
L 546.801127 165.249092 
L 549.257996 165.547921 
L 551.714866 169.649683 
L 554.013228 171.402164 
L 556.470098 171.819025 
L 558.847713 168.2189 
L 561.304583 166.352834 
L 563.682199 172.754631 
L 566.139068 173.511787 
L 568.595938 172.296955 
L 570.973554 178.365155 
L 573.430423 190.23338 
L 575.808039 193.817435 
L 578.264909 192.6238 
L 580.721778 196.524621 
L 582.940886 201.381815 
L 585.397756 197.90028 
L 587.775372 193.194478 
L 590.232241 190.826235 
L 592.609857 190.891436 
L 595.066727 186.386496 
L 597.523596 184.502382 
L 599.901212 182.209324 
L 602.358082 183.816765 
L 604.735697 179.873643 
L 607.192567 177.9357 
L 609.649437 180.392399 
L 611.868545 178.353124 
L 614.325414 174.648307 
L 616.70303 173.076511 
L 619.1599 178.258961 
L 621.537515 181.230066 
L 623.994385 177.305113 
L 626.451255 179.723425 
L 628.82887 174.046474 
L 631.28574 171.481345 
L 633.663356 170.998629 
L 636.120225 166.464984 
L 638.577095 164.99332 
L 640.796203 162.44463 
L 643.253073 162.299173 
L 645.630688 159.631589 
L 648.087558 160.006416 
L 650.465174 161.474444 
L 652.922043 164.233763 
L 655.378913 167.774133 
L 657.756529 173.193886 
L 660.213398 165.702765 
L 662.591014 166.131495 
L 665.047884 165.66997 
L 667.504753 162.187772 
L 669.803115 159.334141 
L 672.259985 157.172951 
L 674.637601 157.251196 
L 677.09447 162.228689 
L 679.472086 159.764024 
L 681.928956 159.107027 
L 686.763441 155.29235 
L 689.220311 155.85692 
L 691.597926 155.34443 
L 694.054796 154.377537 
L 696.511666 149.029797 
L 698.730774 147.492819 
L 701.187643 143.528809 
L 703.565259 141.492277 
L 706.022129 139.910795 
L 708.399744 140.987657 
L 710.856614 136.007978 
L 713.313484 138.987206 
L 715.691099 134.991363 
L 718.147969 130.319111 
L 720.525585 127.687726 
L 722.982454 124.726489 
L 725.439324 127.48387 
L 727.658432 121.743914 
L 730.115302 120.919985 
L 732.492917 120.543226 
L 737.327403 114.613216 
L 739.784272 117.047044 
L 742.241142 111.987083 
L 744.618758 114.206708 
L 749.453243 105.968235 
L 751.910113 105.351683 
L 754.366982 108.263631 
L 756.58609 101.456879 
L 759.04296 102.614916 
L 761.420576 102.763427 
L 763.877445 100.995762 
L 766.255061 103.936444 
L 768.711931 101.436898 
L 771.1688 109.157356 
L 773.546416 112.674725 
L 776.003286 104.112018 
L 778.380901 103.607226 
L 780.837771 105.754607 
L 783.294641 112.472312 
L 785.593003 111.708219 
L 788.049872 102.58221 
L 792.884358 99.672847 
L 795.261973 98.469415 
L 797.718843 93.629645 
L 800.175713 94.220044 
L 802.553328 94.213865 
L 805.010198 97.626163 
L 807.387814 91.722527 
L 809.844683 88.90859 
L 812.301553 85.228545 
L 814.520661 79.719358 
L 816.977531 79.714179 
L 819.355146 78.112306 
L 821.812016 74.851971 
L 824.189632 73.906424 
L 826.646501 71.176093 
L 829.103371 70.72946 
L 833.937856 63.521326 
L 836.315472 58.848378 
L 838.772342 57.164991 
L 841.229211 47.71906 
L 843.448319 55.611207 
L 845.905189 58.923362 
L 848.282805 58.690932 
L 850.739674 55.800891 
L 853.11729 55.501196 
L 855.57416 48.734768 
L 858.031029 44.733994 
L 860.408645 43.908646 
L 862.865515 57.47155 
L 865.24313 51.801121 
L 867.7 68.524955 
L 867.7 68.524955 
" clip-path="url(#p1cea315f15)" style="fill: none; stroke-dasharray: 12.8,3.2,2,3.2; stroke-dashoffset: 0; stroke: #f0e442; stroke-width: 2"/>
   </g>
   <g id="line2d_27">
    <path d="M 30.7 238.121097 
L 35.375978 238.11533 
L 37.753593 238.471409 
L 42.588079 238.387884 
L 45.044948 238.157213 
L 47.501818 238.41456 
L 49.879434 238.436864 
L 52.336303 238.271567 
L 57.170789 238.28126 
L 59.627658 238.536409 
L 61.846766 238.211132 
L 66.681252 238.123531 
L 69.138121 238.304494 
L 81.263962 237.40177 
L 83.641578 237.402275 
L 86.098447 237.254113 
L 88.555317 237.32514 
L 93.310548 237.20175 
L 95.688164 236.870057 
L 107.814004 236.494234 
L 112.64849 236.855055 
L 115.105359 236.226413 
L 117.562229 236.210003 
L 119.781337 235.915367 
L 122.238207 235.802782 
L 124.615822 235.944319 
L 127.072692 235.955156 
L 129.450308 236.279585 
L 131.907177 236.305251 
L 134.364047 236.071347 
L 139.198532 235.96894 
L 141.576148 236.323464 
L 144.033018 236.159953 
L 146.489887 236.181913 
L 151.165865 236.600451 
L 153.543481 236.415199 
L 156.00035 236.692717 
L 158.377966 236.831195 
L 163.291705 236.268356 
L 165.669321 236.368565 
L 168.126191 236.315521 
L 170.503806 236.555962 
L 177.636654 236.166627 
L 180.093523 235.974772 
L 182.471139 235.928479 
L 184.928009 235.726702 
L 187.305624 235.850679 
L 192.219364 235.829335 
L 194.596979 235.622354 
L 197.053849 235.648358 
L 204.345204 234.502417 
L 209.100436 234.430278 
L 216.312537 234.320188 
L 218.769406 234.902482 
L 226.060761 233.938309 
L 228.438377 233.317939 
L 230.895247 233.32561 
L 235.571224 232.987355 
L 238.028094 233.364984 
L 240.40571 233.085914 
L 242.862579 232.411167 
L 245.240195 231.98899 
L 247.697065 231.1918 
L 250.153934 231.438132 
L 252.53155 231.064536 
L 254.98842 231.260549 
L 257.366035 230.773642 
L 259.822905 230.554747 
L 262.279775 230.508171 
L 264.498883 229.816658 
L 266.955752 228.659194 
L 269.333368 228.898865 
L 271.790238 229.295714 
L 274.167853 229.317282 
L 276.624723 229.814464 
L 279.081593 231.237605 
L 281.459208 229.819881 
L 286.293694 228.817544 
L 288.750563 228.716199 
L 293.426541 230.187734 
L 295.883411 230.598805 
L 298.261026 229.581426 
L 300.717896 229.655957 
L 303.095512 229.431621 
L 305.552381 229.332755 
L 308.009251 229.450311 
L 310.386867 230.173961 
L 312.843736 230.244485 
L 315.221352 230.590796 
L 317.678222 230.551835 
L 320.135091 231.517964 
L 322.433453 232.927237 
L 324.890323 231.246136 
L 327.267939 230.52665 
L 329.724808 230.569391 
L 332.102424 230.846595 
L 334.559294 230.879781 
L 337.016163 230.276787 
L 339.393779 230.503836 
L 341.850649 230.403908 
L 344.228264 230.651206 
L 346.685134 230.461222 
L 349.142004 231.02741 
L 353.817981 231.557654 
L 356.195597 230.902365 
L 358.652467 230.641122 
L 361.030082 231.02608 
L 365.943822 230.766824 
L 368.321437 231.605665 
L 370.778307 231.511228 
L 373.155923 230.928932 
L 375.612792 230.619855 
L 378.069662 230.533107 
L 380.28877 230.144849 
L 382.74564 229.517663 
L 385.123255 229.533372 
L 387.580125 229.728332 
L 392.41461 231.458045 
L 394.87148 231.491977 
L 397.249096 232.20168 
L 399.705965 231.961799 
L 402.083581 232.066845 
L 404.540451 231.945624 
L 406.99732 232.298865 
L 411.673298 232.133003 
L 414.050914 232.016384 
L 418.885399 231.521442 
L 421.342269 231.657082 
L 428.633624 231.159377 
L 431.011239 231.041242 
L 433.468109 230.587666 
L 435.924979 230.682613 
L 438.223341 230.31935 
L 443.057826 230.023375 
L 447.892311 229.518597 
L 450.349181 230.023927 
L 452.806051 229.717845 
L 455.183666 229.63716 
L 457.640536 229.314333 
L 460.018152 229.136579 
L 462.475021 228.538814 
L 464.931891 228.764464 
L 467.150999 228.456814 
L 469.607869 228.773443 
L 471.985484 228.68042 
L 476.81997 228.184331 
L 479.276839 227.622186 
L 481.733709 227.875003 
L 486.568194 227.88293 
L 488.94581 227.640389 
L 491.40268 227.594847 
L 498.535527 227.016188 
L 500.913143 227.117696 
L 503.370012 227.445937 
L 505.747628 227.171066 
L 508.204498 226.518943 
L 510.661367 226.562806 
L 513.038983 226.185406 
L 515.495853 225.615404 
L 517.873468 225.471679 
L 520.330338 225.45902 
L 522.787208 225.135792 
L 525.006316 225.338964 
L 527.463185 225.257309 
L 529.840801 224.667399 
L 532.297671 224.256865 
L 534.675286 224.878268 
L 537.132156 225.262962 
L 539.589026 224.985072 
L 544.423511 223.800511 
L 549.257996 224.295071 
L 554.013228 224.995206 
L 556.470098 225.011151 
L 558.847713 224.512421 
L 561.304583 224.31094 
L 563.682199 225.68001 
L 566.139068 225.461885 
L 568.595938 224.998834 
L 570.973554 225.412326 
L 573.430423 227.196162 
L 575.808039 227.437669 
L 578.264909 227.524954 
L 580.721778 228.030136 
L 582.940886 229.490124 
L 585.397756 229.06132 
L 587.775372 230.424641 
L 592.609857 230.26998 
L 595.066727 229.737579 
L 597.523596 230.041875 
L 599.901212 229.758 
L 602.358082 229.621838 
L 604.735697 228.621177 
L 607.192567 228.417654 
L 609.649437 228.838453 
L 614.325414 228.659876 
L 616.70303 228.322689 
L 619.1599 229.242849 
L 621.537515 229.343117 
L 623.994385 229.06105 
L 626.451255 229.349734 
L 628.82887 228.416188 
L 633.663356 228.241115 
L 636.120225 227.881287 
L 638.577095 228.397238 
L 640.796203 227.701074 
L 643.253073 227.574428 
L 645.630688 226.901615 
L 648.087558 226.414887 
L 652.922043 227.397469 
L 655.378913 227.089673 
L 657.756529 227.034743 
L 660.213398 226.637666 
L 662.591014 226.543416 
L 665.047884 225.858926 
L 669.803115 225.987253 
L 674.637601 225.715359 
L 677.09447 225.688117 
L 679.472086 225.238704 
L 681.928956 225.342367 
L 684.385825 225.267977 
L 686.763441 224.891619 
L 691.597926 225.282806 
L 694.054796 225.779011 
L 696.511666 224.805428 
L 698.730774 223.726647 
L 701.187643 222.780061 
L 703.565259 222.523622 
L 706.022129 223.16021 
L 708.399744 223.295873 
L 710.856614 222.258927 
L 713.313484 222.898408 
L 715.691099 222.822252 
L 718.147969 222.083974 
L 725.439324 221.554877 
L 727.658432 220.299161 
L 730.115302 220.331704 
L 737.327403 219.341565 
L 739.784272 219.800679 
L 742.241142 218.806538 
L 744.618758 218.896653 
L 749.453243 217.280805 
L 754.366982 217.580722 
L 756.58609 216.783534 
L 759.04296 216.498786 
L 761.420576 216.885306 
L 763.877445 216.288791 
L 766.255061 216.71481 
L 768.711931 216.026197 
L 771.1688 217.057905 
L 773.546416 216.99474 
L 776.003286 215.816685 
L 778.380901 216.112801 
L 780.837771 215.932768 
L 783.294641 216.224941 
L 785.593003 216.341748 
L 788.049872 215.18393 
L 790.427488 214.508308 
L 792.884358 215.013653 
L 795.261973 213.214657 
L 797.718843 212.743182 
L 800.175713 214.105511 
L 802.553328 214.532257 
L 805.010198 215.485347 
L 807.387814 215.637952 
L 809.844683 214.752455 
L 812.301553 214.09032 
L 814.520661 213.010429 
L 816.977531 213.389347 
L 819.355146 213.466092 
L 821.812016 212.787369 
L 824.189632 212.815906 
L 829.103371 212.170197 
L 831.480987 212.300021 
L 833.937856 211.654798 
L 836.315472 210.663691 
L 838.772342 210.564046 
L 841.229211 209.269181 
L 843.448319 210.928408 
L 845.905189 211.143843 
L 853.11729 210.684093 
L 855.57416 210.69364 
L 858.031029 210.179701 
L 860.408645 210.706332 
L 862.865515 211.381874 
L 865.24313 210.735746 
L 867.7 213.490636 
L 867.7 213.490636 
" clip-path="url(#p1cea315f15)" style="fill: none; stroke: #1f77b4; stroke-width: 2; stroke-linecap: square"/>
   </g>
   <g id="line2d_28">
    <path d="M 0 0 
" clip-path="url(#p1cea315f15)" style="fill: none; stroke-dasharray: 7.4,3.2; stroke-dashoffset: 0; stroke: #aec7e8; stroke-width: 2"/>
   </g>
   <g id="line2d_29">
    <path d="M 0 0 
" clip-path="url(#p1cea315f15)" style="fill: none; stroke-dasharray: 12.8,3.2,2,3.2; stroke-dashoffset: 0; stroke: #ff7f0e; stroke-width: 2"/>
   </g>
   <g id="line2d_30">
    <path d="M 30.7 238.121097 
L 35.375978 238.207936 
L 37.753593 238.514097 
L 45.044948 238.337887 
L 47.501818 238.614467 
L 49.879434 238.60887 
L 52.336303 238.242644 
L 57.170789 238.092024 
L 59.627658 238.396467 
L 61.846766 238.074433 
L 64.303636 237.891894 
L 69.138121 238.137058 
L 76.429476 237.560368 
L 78.807092 237.243505 
L 81.263962 237.095121 
L 86.098447 236.608379 
L 88.555317 236.93516 
L 90.853679 237.062182 
L 93.310548 237.02897 
L 98.145034 236.613784 
L 100.522649 236.522159 
L 102.979519 236.154008 
L 107.814004 236.043596 
L 112.64849 236.385071 
L 115.105359 235.892599 
L 117.562229 235.749133 
L 119.781337 235.214624 
L 122.238207 235.108983 
L 124.615822 235.204396 
L 127.072692 235.180548 
L 129.450308 235.275933 
L 131.907177 235.21713 
L 134.364047 234.86744 
L 139.198532 234.87234 
L 141.576148 235.429865 
L 144.033018 235.240863 
L 146.489887 235.397268 
L 148.708995 235.72887 
L 151.165865 235.952139 
L 153.543481 235.761989 
L 156.00035 236.214624 
L 158.377966 236.436038 
L 163.291705 236.021616 
L 165.669321 236.150099 
L 170.503806 236.045137 
L 172.960676 236.090623 
L 175.417546 235.787963 
L 177.636654 235.751303 
L 180.093523 235.843332 
L 182.471139 235.785522 
L 184.928009 235.452682 
L 187.305624 235.546338 
L 189.762494 235.761735 
L 192.219364 235.768967 
L 194.596979 235.4042 
L 199.431465 235.017609 
L 204.345204 234.323105 
L 206.643566 234.596219 
L 209.100436 234.658271 
L 211.478051 234.907323 
L 216.312537 234.574983 
L 218.769406 235.249962 
L 223.603892 235.012135 
L 228.438377 234.294506 
L 230.895247 234.200247 
L 233.352116 234.331729 
L 235.571224 234.20122 
L 238.028094 234.465666 
L 240.40571 234.5794 
L 242.862579 234.049291 
L 247.697065 233.454189 
L 250.153934 233.621751 
L 252.53155 233.267533 
L 254.98842 233.131764 
L 257.366035 232.399511 
L 259.822905 231.780591 
L 262.279775 232.163618 
L 264.498883 231.920472 
L 266.955752 230.921191 
L 269.333368 231.410976 
L 274.167853 231.437268 
L 276.624723 232.410955 
L 279.081593 231.779566 
L 281.459208 230.652316 
L 283.916078 231.283306 
L 286.293694 231.256956 
L 288.750563 231.350359 
L 293.426541 233.008353 
L 295.883411 233.382052 
L 298.261026 232.371128 
L 300.717896 231.889329 
L 303.095512 232.255096 
L 305.552381 232.327389 
L 308.009251 232.165147 
L 312.843736 233.180104 
L 315.221352 233.485853 
L 317.678222 233.371311 
L 320.135091 233.655607 
L 322.433453 234.628652 
L 324.890323 234.021377 
L 327.267939 232.889166 
L 334.559294 232.996173 
L 337.016163 232.159141 
L 339.393779 231.496786 
L 341.850649 231.403848 
L 344.228264 230.881569 
L 346.685134 230.60982 
L 349.142004 231.685901 
L 351.361112 231.370875 
L 353.817981 231.563197 
L 356.195597 230.927188 
L 358.652467 230.691645 
L 361.030082 231.233973 
L 363.486952 231.266691 
L 365.943822 230.925266 
L 368.321437 231.488146 
L 375.612792 230.994193 
L 378.069662 231.262594 
L 380.28877 231.18236 
L 382.74564 230.528889 
L 385.123255 230.925002 
L 387.580125 231.193316 
L 389.957741 231.995127 
L 392.41461 232.678352 
L 394.87148 232.620482 
L 397.249096 233.336327 
L 399.705965 232.958055 
L 404.540451 232.722056 
L 406.99732 233.034714 
L 409.216428 232.968424 
L 414.050914 232.483538 
L 416.507783 231.92546 
L 418.885399 231.866218 
L 421.342269 232.187434 
L 428.633624 231.860518 
L 431.011239 231.543064 
L 433.468109 231.067249 
L 438.223341 230.467634 
L 440.68021 230.383311 
L 443.057826 230.562296 
L 445.514696 230.362357 
L 447.892311 230.293459 
L 450.349181 230.504222 
L 452.806051 230.115468 
L 455.183666 230.18002 
L 457.640536 229.743367 
L 460.018152 229.471863 
L 462.475021 228.874667 
L 464.931891 229.14821 
L 467.150999 228.860811 
L 469.607869 228.909564 
L 474.442354 228.543039 
L 476.81997 228.510594 
L 479.276839 228.043197 
L 484.111325 228.249064 
L 486.568194 228.199551 
L 488.94581 227.868492 
L 491.40268 228.036233 
L 493.859549 227.978523 
L 496.078657 227.532506 
L 498.535527 227.328376 
L 503.370012 227.412316 
L 505.747628 227.21473 
L 508.204498 226.367518 
L 510.661367 225.885894 
L 513.038983 225.748878 
L 515.495853 225.124304 
L 517.873468 225.108219 
L 520.330338 224.777087 
L 522.787208 224.611775 
L 525.006316 224.968345 
L 527.463185 225.145625 
L 529.840801 224.732867 
L 532.297671 224.798289 
L 534.675286 225.663487 
L 537.132156 226.235313 
L 539.589026 225.63724 
L 541.966641 225.220315 
L 544.423511 225.169049 
L 546.801127 224.950347 
L 549.257996 225.63642 
L 551.714866 225.724606 
L 554.013228 226.337869 
L 561.304583 226.548939 
L 563.682199 227.697123 
L 566.139068 227.013798 
L 568.595938 226.457087 
L 570.973554 226.155308 
L 573.430423 227.501253 
L 580.721778 228.35192 
L 582.940886 229.618463 
L 585.397756 229.331429 
L 587.775372 230.552782 
L 590.232241 230.862869 
L 592.609857 230.238146 
L 595.066727 229.861972 
L 597.523596 230.134084 
L 602.358082 229.754927 
L 604.735697 228.933437 
L 607.192567 228.665149 
L 609.649437 228.798998 
L 611.868545 228.784301 
L 616.70303 228.478914 
L 619.1599 229.120428 
L 621.537515 229.020166 
L 623.994385 228.732145 
L 626.451255 228.659188 
L 628.82887 228.084698 
L 631.28574 228.000375 
L 633.663356 228.470129 
L 636.120225 228.213987 
L 638.577095 228.424842 
L 640.796203 228.018621 
L 643.253073 227.892279 
L 645.630688 227.024342 
L 648.087558 226.380594 
L 650.465174 226.493611 
L 652.922043 226.841144 
L 655.378913 226.071132 
L 657.756529 225.463704 
L 660.213398 225.392154 
L 662.591014 225.110607 
L 665.047884 224.113834 
L 667.504753 224.607189 
L 669.803115 224.662879 
L 672.259985 223.943144 
L 677.09447 223.068314 
L 679.472086 222.256416 
L 681.928956 221.727091 
L 684.385825 222.367874 
L 686.763441 222.104199 
L 691.597926 222.31446 
L 694.054796 222.710914 
L 698.730774 220.350911 
L 701.187643 219.00042 
L 703.565259 217.975789 
L 706.022129 219.567774 
L 708.399744 219.226984 
L 710.856614 218.237596 
L 713.313484 219.798409 
L 715.691099 219.676929 
L 718.147969 218.454366 
L 720.525585 218.371707 
L 722.982454 218.512102 
L 725.439324 218.450131 
L 727.658432 217.336037 
L 730.115302 216.743665 
L 732.492917 215.975251 
L 737.327403 216.043594 
L 739.784272 216.860732 
L 742.241142 215.616081 
L 744.618758 215.476373 
L 747.075627 213.899329 
L 749.453243 212.508976 
L 751.910113 212.005313 
L 754.366982 211.676407 
L 756.58609 212.352802 
L 759.04296 212.058453 
L 761.420576 212.911603 
L 763.877445 212.361248 
L 766.255061 213.244231 
L 768.711931 211.439422 
L 771.1688 212.547511 
L 773.546416 211.68344 
L 776.003286 211.07086 
L 778.380901 211.319239 
L 780.837771 210.325893 
L 783.294641 209.619695 
L 785.593003 209.294614 
L 788.049872 207.127814 
L 790.427488 207.325382 
L 792.884358 207.130326 
L 795.261973 204.304471 
L 797.718843 204.281974 
L 800.175713 205.904346 
L 805.010198 207.362586 
L 807.387814 207.395537 
L 809.844683 205.604612 
L 812.301553 205.426637 
L 814.520661 203.904561 
L 816.977531 204.700622 
L 819.355146 204.699861 
L 821.812016 204.445256 
L 824.189632 204.416464 
L 826.646501 204.236106 
L 829.103371 203.933389 
L 831.480987 204.291737 
L 833.937856 204.197494 
L 836.315472 202.737133 
L 838.772342 203.673643 
L 841.229211 203.750506 
L 843.448319 206.77233 
L 845.905189 206.716971 
L 848.282805 206.020735 
L 850.739674 206.793401 
L 853.11729 205.424311 
L 855.57416 204.221113 
L 858.031029 203.458391 
L 860.408645 203.792255 
L 862.865515 202.937424 
L 865.24313 201.447484 
L 867.7 204.699901 
L 867.7 204.699901 
" clip-path="url(#p1cea315f15)" style="fill: none; stroke-dasharray: 2,3.3; stroke-dashoffset: 0; stroke: #ffbb78; stroke-width: 2"/>
   </g>
   <g id="patch_3">
    <path d="M 30.7 238.70175 
L 30.7 16.94175 
" style="fill: none; stroke: #000000; stroke-width: 0.8; stroke-linejoin: miter; stroke-linecap: square"/>
   </g>
   <g id="patch_4">
    <path d="M 30.7 238.70175 
L 867.7 238.70175 
" style="fill: none; stroke: #000000; stroke-width: 0.8; stroke-linejoin: miter; stroke-linecap: square"/>
   </g>
   <g id="text_14">
    <!-- 250_LTOTMKUS - Performance -->
    <g transform="translate(340.99075 10.94175) scale(0.144 -0.144)">
     <defs>
      <path id="DejaVuSans-5f" d="M 3263 -1063 
L 3263 -1509 
L -63 -1509 
L -63 -1063 
L 3263 -1063 
z
" transform="scale(0.015625)"/>
      <path id="DejaVuSans-4c" d="M 628 4666 
L 1259 4666 
L 1259 531 
L 3531 531 
L 3531 0 
L 628 0 
L 628 4666 
z
" transform="scale(0.015625)"/>
      <path id="DejaVuSans-54" d="M -19 4666 
L 3928 4666 
L 3928 4134 
L 2272 4134 
L 2272 0 
L 1638 0 
L 1638 4134 
L -19 4134 
L -19 4666 
z
" transform="scale(0.015625)"/>
      <path id="DejaVuSans-4f" d="M 2522 4238 
Q 1834 4238 1429 3725 
Q 1025 3213 1025 2328 
Q 1025 1447 1429 934 
Q 1834 422 2522 422 
Q 3209 422 3611 934 
Q 4013 1447 4013 2328 
Q 4013 3213 3611 3725 
Q 3209 4238 2522 4238 
z
M 2522 4750 
Q 3503 4750 4090 4092 
Q 4678 3434 4678 2328 
Q 4678 1225 4090 567 
Q 3503 -91 2522 -91 
Q 1538 -91 948 565 
Q 359 1222 359 2328 
Q 359 3434 948 4092 
Q 1538 4750 2522 4750 
z
" transform="scale(0.015625)"/>
      <path id="DejaVuSans-4d" d="M 628 4666 
L 1569 4666 
L 2759 1491 
L 3956 4666 
L 4897 4666 
L 4897 0 
L 4281 0 
L 4281 4097 
L 3078 897 
L 2444 897 
L 1241 4097 
L 1241 0 
L 628 0 
L 628 4666 
z
" transform="scale(0.015625)"/>
      <path id="DejaVuSans-4b" d="M 628 4666 
L 1259 4666 
L 1259 2694 
L 3353 4666 
L 4166 4666 
L 1850 2491 
L 4331 0 
L 3500 0 
L 1259 2247 
L 1259 0 
L 628 0 
L 628 4666 
z
" transform="scale(0.015625)"/>
      <path id="DejaVuSans-55" d="M 556 4666 
L 1191 4666 
L 1191 1831 
Q 1191 1081 1462 751 
Q 1734 422 2344 422 
Q 2950 422 3222 751 
Q 3494 1081 3494 1831 
L 3494 4666 
L 4128 4666 
L 4128 1753 
Q 4128 841 3676 375 
Q 3225 -91 2344 -91 
Q 1459 -91 1007 375 
Q 556 841 556 1753 
L 556 4666 
z
" transform="scale(0.015625)"/>
      <path id="DejaVuSans-53" d="M 3425 4513 
L 3425 3897 
Q 3066 4069 2747 4153 
Q 2428 4238 2131 4238 
Q 1616 4238 1336 4038 
Q 1056 3838 1056 3469 
Q 1056 3159 1242 3001 
Q 1428 2844 1947 2747 
L 2328 2669 
Q 3034 2534 3370 2195 
Q 3706 1856 3706 1288 
Q 3706 609 3251 259 
Q 2797 -91 1919 -91 
Q 1588 -91 1214 -16 
Q 841 59 441 206 
L 441 856 
Q 825 641 1194 531 
Q 1563 422 1919 422 
Q 2459 422 2753 634 
Q 3047 847 3047 1241 
Q 3047 1584 2836 1778 
Q 2625 1972 2144 2069 
L 1759 2144 
Q 1053 2284 737 2584 
Q 422 2884 422 3419 
Q 422 4038 858 4394 
Q 1294 4750 2059 4750 
Q 2388 4750 2728 4690 
Q 3069 4631 3425 4513 
z
" transform="scale(0.015625)"/>
      <path id="DejaVuSans-20" transform="scale(0.015625)"/>
      <path id="DejaVuSans-2d" d="M 313 2009 
L 1997 2009 
L 1997 1497 
L 313 1497 
L 313 2009 
z
" transform="scale(0.015625)"/>
      <path id="DejaVuSans-50" d="M 1259 4147 
L 1259 2394 
L 2053 2394 
Q 2494 2394 2734 2622 
Q 2975 2850 2975 3272 
Q 2975 3691 2734 3919 
Q 2494 4147 2053 4147 
L 1259 4147 
z
M 628 4666 
L 2053 4666 
Q 2838 4666 3239 4311 
Q 3641 3956 3641 3272 
Q 3641 2581 3239 2228 
Q 2838 1875 2053 1875 
L 1259 1875 
L 1259 0 
L 628 0 
L 628 4666 
z
" transform="scale(0.015625)"/>
      <path id="DejaVuSans-65" d="M 3597 1894 
L 3597 1613 
L 953 1613 
Q 991 1019 1311 708 
Q 1631 397 2203 397 
Q 2534 397 2845 478 
Q 3156 559 3463 722 
L 3463 178 
Q 3153 47 2828 -22 
Q 2503 -91 2169 -91 
Q 1331 -91 842 396 
Q 353 884 353 1716 
Q 353 2575 817 3079 
Q 1281 3584 2069 3584 
Q 2775 3584 3186 3129 
Q 3597 2675 3597 1894 
z
M 3022 2063 
Q 3016 2534 2758 2815 
Q 2500 3097 2075 3097 
Q 1594 3097 1305 2825 
Q 1016 2553 972 2059 
L 3022 2063 
z
" transform="scale(0.015625)"/>
      <path id="DejaVuSans-72" d="M 2631 2963 
Q 2534 3019 2420 3045 
Q 2306 3072 2169 3072 
Q 1681 3072 1420 2755 
Q 1159 2438 1159 1844 
L 1159 0 
L 581 0 
L 581 3500 
L 1159 3500 
L 1159 2956 
Q 1341 3275 1631 3429 
Q 1922 3584 2338 3584 
Q 2397 3584 2469 3576 
Q 2541 3569 2628 3553 
L 2631 2963 
z
" transform="scale(0.015625)"/>
      <path id="DejaVuSans-66" d="M 2375 4863 
L 2375 4384 
L 1825 4384 
Q 1516 4384 1395 4259 
Q 1275 4134 1275 3809 
L 1275 3500 
L 2222 3500 
L 2222 3053 
L 1275 3053 
L 1275 0 
L 697 0 
L 697 3053 
L 147 3053 
L 147 3500 
L 697 3500 
L 697 3744 
Q 697 4328 969 4595 
Q 1241 4863 1831 4863 
L 2375 4863 
z
" transform="scale(0.015625)"/>
      <path id="DejaVuSans-6f" d="M 1959 3097 
Q 1497 3097 1228 2736 
Q 959 2375 959 1747 
Q 959 1119 1226 758 
Q 1494 397 1959 397 
Q 2419 397 2687 759 
Q 2956 1122 2956 1747 
Q 2956 2369 2687 2733 
Q 2419 3097 1959 3097 
z
M 1959 3584 
Q 2709 3584 3137 3096 
Q 3566 2609 3566 1747 
Q 3566 888 3137 398 
Q 2709 -91 1959 -91 
Q 1206 -91 779 398 
Q 353 888 353 1747 
Q 353 2609 779 3096 
Q 1206 3584 1959 3584 
z
" transform="scale(0.015625)"/>
      <path id="DejaVuSans-6d" d="M 3328 2828 
Q 3544 3216 3844 3400 
Q 4144 3584 4550 3584 
Q 5097 3584 5394 3201 
Q 5691 2819 5691 2113 
L 5691 0 
L 5113 0 
L 5113 2094 
Q 5113 2597 4934 2840 
Q 4756 3084 4391 3084 
Q 3944 3084 3684 2787 
Q 3425 2491 3425 1978 
L 3425 0 
L 2847 0 
L 2847 2094 
Q 2847 2600 2669 2842 
Q 2491 3084 2119 3084 
Q 1678 3084 1418 2786 
Q 1159 2488 1159 1978 
L 1159 0 
L 581 0 
L 581 3500 
L 1159 3500 
L 1159 2956 
Q 1356 3278 1631 3431 
Q 1906 3584 2284 3584 
Q 2666 3584 2933 3390 
Q 3200 3197 3328 2828 
z
" transform="scale(0.015625)"/>
      <path id="DejaVuSans-61" d="M 2194 1759 
Q 1497 1759 1228 1600 
Q 959 1441 959 1056 
Q 959 750 1161 570 
Q 1363 391 1709 391 
Q 2188 391 2477 730 
Q 2766 1069 2766 1631 
L 2766 1759 
L 2194 1759 
z
M 3341 1997 
L 3341 0 
L 2766 0 
L 2766 531 
Q 2569 213 2275 61 
Q 1981 -91 1556 -91 
Q 1019 -91 701 211 
Q 384 513 384 1019 
Q 384 1609 779 1909 
Q 1175 2209 1959 2209 
L 2766 2209 
L 2766 2266 
Q 2766 2663 2505 2880 
Q 2244 3097 1772 3097 
Q 1472 3097 1187 3025 
Q 903 2953 641 2809 
L 641 3341 
Q 956 3463 1253 3523 
Q 1550 3584 1831 3584 
Q 2591 3584 2966 3190 
Q 3341 2797 3341 1997 
z
" transform="scale(0.015625)"/>
      <path id="DejaVuSans-6e" d="M 3513 2113 
L 3513 0 
L 2938 0 
L 2938 2094 
Q 2938 2591 2744 2837 
Q 2550 3084 2163 3084 
Q 1697 3084 1428 2787 
Q 1159 2491 1159 1978 
L 1159 0 
L 581 0 
L 581 3500 
L 1159 3500 
L 1159 2956 
Q 1366 3272 1645 3428 
Q 1925 3584 2291 3584 
Q 2894 3584 3203 3211 
Q 3513 2838 3513 2113 
z
" transform="scale(0.015625)"/>
      <path id="DejaVuSans-63" d="M 3122 3366 
L 3122 2828 
Q 2878 2963 2633 3030 
Q 2388 3097 2138 3097 
Q 1578 3097 1268 2742 
Q 959 2388 959 1747 
Q 959 1106 1268 751 
Q 1578 397 2138 397 
Q 2388 397 2633 464 
Q 2878 531 3122 666 
L 3122 134 
Q 2881 22 2623 -34 
Q 2366 -91 2075 -91 
Q 1284 -91 818 406 
Q 353 903 353 1747 
Q 353 2603 823 3093 
Q 1294 3584 2113 3584 
Q 2378 3584 2631 3529 
Q 2884 3475 3122 3366 
z
" transform="scale(0.015625)"/>
     </defs>
     <use xlink:href="#DejaVuSans-32"/>
     <use xlink:href="#DejaVuSans-35" x="63.623047"/>
     <use xlink:href="#DejaVuSans-30" x="127.246094"/>
     <use xlink:href="#DejaVuSans-5f" x="190.869141"/>
     <use xlink:href="#DejaVuSans-4c" x="240.869141"/>
     <use xlink:href="#DejaVuSans-54" x="282.832031"/>
     <use xlink:href="#DejaVuSans-4f" x="343.916016"/>
     <use xlink:href="#DejaVuSans-54" x="422.626953"/>
     <use xlink:href="#DejaVuSans-4d" x="483.710938"/>
     <use xlink:href="#DejaVuSans-4b" x="569.990234"/>
     <use xlink:href="#DejaVuSans-55" x="632.941406"/>
     <use xlink:href="#DejaVuSans-53" x="706.134766"/>
     <use xlink:href="#DejaVuSans-20" x="769.611328"/>
     <use xlink:href="#DejaVuSans-2d" x="801.398438"/>
     <use xlink:href="#DejaVuSans-20" x="837.482422"/>
     <use xlink:href="#DejaVuSans-50" x="869.269531"/>
     <use xlink:href="#DejaVuSans-65" x="925.947266"/>
     <use xlink:href="#DejaVuSans-72" x="987.470703"/>
     <use xlink:href="#DejaVuSans-66" x="1028.583984"/>
     <use xlink:href="#DejaVuSans-6f" x="1063.789062"/>
     <use xlink:href="#DejaVuSans-72" x="1124.970703"/>
     <use xlink:href="#DejaVuSans-6d" x="1164.333984"/>
     <use xlink:href="#DejaVuSans-61" x="1261.746094"/>
     <use xlink:href="#DejaVuSans-6e" x="1323.025391"/>
     <use xlink:href="#DejaVuSans-63" x="1386.404297"/>
     <use xlink:href="#DejaVuSans-65" x="1441.384766"/>
    </g>
   </g>
   <g id="legend_1">
    <g id="line2d_31">
     <path d="M 39.7 30.040188 
L 49.7 30.040188 
L 59.7 30.040188 
" style="fill: none; stroke: #e69f00; stroke-width: 2; stroke-linecap: square"/>
    </g>
    <g id="text_15">
     <!-- 1/N -->
     <g transform="translate(67.7 33.540188) scale(0.1 -0.1)">
      <defs>
       <path id="DejaVuSans-2f" d="M 1625 4666 
L 2156 4666 
L 531 -594 
L 0 -594 
L 1625 4666 
z
" transform="scale(0.015625)"/>
       <path id="DejaVuSans-4e" d="M 628 4666 
L 1478 4666 
L 3547 763 
L 3547 4666 
L 4159 4666 
L 4159 0 
L 3309 0 
L 1241 3903 
L 1241 0 
L 628 0 
L 628 4666 
z
" transform="scale(0.015625)"/>
      </defs>
      <use xlink:href="#DejaVuSans-31"/>
      <use xlink:href="#DejaVuSans-2f" x="63.623047"/>
      <use xlink:href="#DejaVuSans-4e" x="97.314453"/>
     </g>
    </g>
    <g id="line2d_32">
     <path d="M 39.7 44.718313 
L 49.7 44.718313 
L 59.7 44.718313 
" style="fill: none; stroke-dasharray: 7.4,3.2; stroke-dashoffset: 0; stroke: #56b4e9; stroke-width: 2"/>
    </g>
    <g id="text_16">
     <!-- GMVP -->
     <g transform="translate(67.7 48.218313) scale(0.1 -0.1)">
      <defs>
       <path id="DejaVuSans-47" d="M 3809 666 
L 3809 1919 
L 2778 1919 
L 2778 2438 
L 4434 2438 
L 4434 434 
Q 4069 175 3628 42 
Q 3188 -91 2688 -91 
Q 1594 -91 976 548 
Q 359 1188 359 2328 
Q 359 3472 976 4111 
Q 1594 4750 2688 4750 
Q 3144 4750 3555 4637 
Q 3966 4525 4313 4306 
L 4313 3634 
Q 3963 3931 3569 4081 
Q 3175 4231 2741 4231 
Q 1884 4231 1454 3753 
Q 1025 3275 1025 2328 
Q 1025 1384 1454 906 
Q 1884 428 2741 428 
Q 3075 428 3337 486 
Q 3600 544 3809 666 
z
" transform="scale(0.015625)"/>
       <path id="DejaVuSans-56" d="M 1831 0 
L 50 4666 
L 709 4666 
L 2188 738 
L 3669 4666 
L 4325 4666 
L 2547 0 
L 1831 0 
z
" transform="scale(0.015625)"/>
      </defs>
      <use xlink:href="#DejaVuSans-47"/>
      <use xlink:href="#DejaVuSans-4d" x="77.490234"/>
      <use xlink:href="#DejaVuSans-56" x="163.769531"/>
      <use xlink:href="#DejaVuSans-50" x="232.177734"/>
     </g>
    </g>
    <g id="line2d_33">
     <path d="M 39.7 59.396438 
L 49.7 59.396438 
L 59.7 59.396438 
" style="fill: none; stroke-dasharray: 12.8,3.2,2,3.2; stroke-dashoffset: 0; stroke: #009e73; stroke-width: 2"/>
    </g>
    <g id="text_17">
     <!-- Empirical Bayes -->
     <g transform="translate(67.7 62.896438) scale(0.1 -0.1)">
      <defs>
       <path id="DejaVuSans-45" d="M 628 4666 
L 3578 4666 
L 3578 4134 
L 1259 4134 
L 1259 2753 
L 3481 2753 
L 3481 2222 
L 1259 2222 
L 1259 531 
L 3634 531 
L 3634 0 
L 628 0 
L 628 4666 
z
" transform="scale(0.015625)"/>
       <path id="DejaVuSans-70" d="M 1159 525 
L 1159 -1331 
L 581 -1331 
L 581 3500 
L 1159 3500 
L 1159 2969 
Q 1341 3281 1617 3432 
Q 1894 3584 2278 3584 
Q 2916 3584 3314 3078 
Q 3713 2572 3713 1747 
Q 3713 922 3314 415 
Q 2916 -91 2278 -91 
Q 1894 -91 1617 61 
Q 1341 213 1159 525 
z
M 3116 1747 
Q 3116 2381 2855 2742 
Q 2594 3103 2138 3103 
Q 1681 3103 1420 2742 
Q 1159 2381 1159 1747 
Q 1159 1113 1420 752 
Q 1681 391 2138 391 
Q 2594 391 2855 752 
Q 3116 1113 3116 1747 
z
" transform="scale(0.015625)"/>
       <path id="DejaVuSans-69" d="M 603 3500 
L 1178 3500 
L 1178 0 
L 603 0 
L 603 3500 
z
M 603 4863 
L 1178 4863 
L 1178 4134 
L 603 4134 
L 603 4863 
z
" transform="scale(0.015625)"/>
       <path id="DejaVuSans-6c" d="M 603 4863 
L 1178 4863 
L 1178 0 
L 603 0 
L 603 4863 
z
" transform="scale(0.015625)"/>
       <path id="DejaVuSans-42" d="M 1259 2228 
L 1259 519 
L 2272 519 
Q 2781 519 3026 730 
Q 3272 941 3272 1375 
Q 3272 1813 3026 2020 
Q 2781 2228 2272 2228 
L 1259 2228 
z
M 1259 4147 
L 1259 2741 
L 2194 2741 
Q 2656 2741 2882 2914 
Q 3109 3088 3109 3444 
Q 3109 3797 2882 3972 
Q 2656 4147 2194 4147 
L 1259 4147 
z
M 628 4666 
L 2241 4666 
Q 2963 4666 3353 4366 
Q 3744 4066 3744 3513 
Q 3744 3084 3544 2831 
Q 3344 2578 2956 2516 
Q 3422 2416 3680 2098 
Q 3938 1781 3938 1306 
Q 3938 681 3513 340 
Q 3088 0 2303 0 
L 628 0 
L 628 4666 
z
" transform="scale(0.015625)"/>
       <path id="DejaVuSans-79" d="M 2059 -325 
Q 1816 -950 1584 -1140 
Q 1353 -1331 966 -1331 
L 506 -1331 
L 506 -850 
L 844 -850 
Q 1081 -850 1212 -737 
Q 1344 -625 1503 -206 
L 1606 56 
L 191 3500 
L 800 3500 
L 1894 763 
L 2988 3500 
L 3597 3500 
L 2059 -325 
z
" transform="scale(0.015625)"/>
       <path id="DejaVuSans-73" d="M 2834 3397 
L 2834 2853 
Q 2591 2978 2328 3040 
Q 2066 3103 1784 3103 
Q 1356 3103 1142 2972 
Q 928 2841 928 2578 
Q 928 2378 1081 2264 
Q 1234 2150 1697 2047 
L 1894 2003 
Q 2506 1872 2764 1633 
Q 3022 1394 3022 966 
Q 3022 478 2636 193 
Q 2250 -91 1575 -91 
Q 1294 -91 989 -36 
Q 684 19 347 128 
L 347 722 
Q 666 556 975 473 
Q 1284 391 1588 391 
Q 1994 391 2212 530 
Q 2431 669 2431 922 
Q 2431 1156 2273 1281 
Q 2116 1406 1581 1522 
L 1381 1569 
Q 847 1681 609 1914 
Q 372 2147 372 2553 
Q 372 3047 722 3315 
Q 1072 3584 1716 3584 
Q 2034 3584 2315 3537 
Q 2597 3491 2834 3397 
z
" transform="scale(0.015625)"/>
      </defs>
      <use xlink:href="#DejaVuSans-45"/>
      <use xlink:href="#DejaVuSans-6d" x="63.183594"/>
      <use xlink:href="#DejaVuSans-70" x="160.595703"/>
      <use xlink:href="#DejaVuSans-69" x="224.072266"/>
      <use xlink:href="#DejaVuSans-72" x="251.855469"/>
      <use xlink:href="#DejaVuSans-69" x="292.96875"/>
      <use xlink:href="#DejaVuSans-63" x="320.751953"/>
      <use xlink:href="#DejaVuSans-61" x="375.732422"/>
      <use xlink:href="#DejaVuSans-6c" x="437.011719"/>
      <use xlink:href="#DejaVuSans-20" x="464.794922"/>
      <use xlink:href="#DejaVuSans-42" x="496.582031"/>
      <use xlink:href="#DejaVuSans-61" x="565.185547"/>
      <use xlink:href="#DejaVuSans-79" x="626.464844"/>
      <use xlink:href="#DejaVuSans-65" x="685.644531"/>
      <use xlink:href="#DejaVuSans-73" x="747.167969"/>
     </g>
    </g>
    <g id="line2d_34">
     <path d="M 39.7 74.074563 
L 49.7 74.074563 
L 59.7 74.074563 
" style="fill: none; stroke-dasharray: 2,3.3; stroke-dashoffset: 0; stroke: #0072b2; stroke-width: 2"/>
    </g>
    <g id="text_18">
     <!-- Ridge -->
     <g transform="translate(67.7 77.574563) scale(0.1 -0.1)">
      <defs>
       <path id="DejaVuSans-52" d="M 2841 2188 
Q 3044 2119 3236 1894 
Q 3428 1669 3622 1275 
L 4263 0 
L 3584 0 
L 2988 1197 
Q 2756 1666 2539 1819 
Q 2322 1972 1947 1972 
L 1259 1972 
L 1259 0 
L 628 0 
L 628 4666 
L 2053 4666 
Q 2853 4666 3247 4331 
Q 3641 3997 3641 3322 
Q 3641 2881 3436 2590 
Q 3231 2300 2841 2188 
z
M 1259 4147 
L 1259 2491 
L 2053 2491 
Q 2509 2491 2742 2702 
Q 2975 2913 2975 3322 
Q 2975 3731 2742 3939 
Q 2509 4147 2053 4147 
L 1259 4147 
z
" transform="scale(0.015625)"/>
       <path id="DejaVuSans-64" d="M 2906 2969 
L 2906 4863 
L 3481 4863 
L 3481 0 
L 2906 0 
L 2906 525 
Q 2725 213 2448 61 
Q 2172 -91 1784 -91 
Q 1150 -91 751 415 
Q 353 922 353 1747 
Q 353 2572 751 3078 
Q 1150 3584 1784 3584 
Q 2172 3584 2448 3432 
Q 2725 3281 2906 2969 
z
M 947 1747 
Q 947 1113 1208 752 
Q 1469 391 1925 391 
Q 2381 391 2643 752 
Q 2906 1113 2906 1747 
Q 2906 2381 2643 2742 
Q 2381 3103 1925 3103 
Q 1469 3103 1208 2742 
Q 947 2381 947 1747 
z
" transform="scale(0.015625)"/>
       <path id="DejaVuSans-67" d="M 2906 1791 
Q 2906 2416 2648 2759 
Q 2391 3103 1925 3103 
Q 1463 3103 1205 2759 
Q 947 2416 947 1791 
Q 947 1169 1205 825 
Q 1463 481 1925 481 
Q 2391 481 2648 825 
Q 2906 1169 2906 1791 
z
M 3481 434 
Q 3481 -459 3084 -895 
Q 2688 -1331 1869 -1331 
Q 1566 -1331 1297 -1286 
Q 1028 -1241 775 -1147 
L 775 -588 
Q 1028 -725 1275 -790 
Q 1522 -856 1778 -856 
Q 2344 -856 2625 -561 
Q 2906 -266 2906 331 
L 2906 616 
Q 2728 306 2450 153 
Q 2172 0 1784 0 
Q 1141 0 747 490 
Q 353 981 353 1791 
Q 353 2603 747 3093 
Q 1141 3584 1784 3584 
Q 2172 3584 2450 3431 
Q 2728 3278 2906 2969 
L 2906 3500 
L 3481 3500 
L 3481 434 
z
" transform="scale(0.015625)"/>
      </defs>
      <use xlink:href="#DejaVuSans-52"/>
      <use xlink:href="#DejaVuSans-69" x="69.482422"/>
      <use xlink:href="#DejaVuSans-64" x="97.265625"/>
      <use xlink:href="#DejaVuSans-67" x="160.742188"/>
      <use xlink:href="#DejaVuSans-65" x="224.21875"/>
     </g>
    </g>
    <g id="line2d_35">
     <path d="M 39.7 88.752688 
L 49.7 88.752688 
L 59.7 88.752688 
" style="fill: none; stroke: #d55e00; stroke-width: 2; stroke-linecap: square"/>
    </g>
    <g id="text_19">
     <!-- Lasso -->
     <g transform="translate(67.7 92.252688) scale(0.1 -0.1)">
      <use xlink:href="#DejaVuSans-4c"/>
      <use xlink:href="#DejaVuSans-61" x="55.712891"/>
      <use xlink:href="#DejaVuSans-73" x="116.992188"/>
      <use xlink:href="#DejaVuSans-73" x="169.091797"/>
      <use xlink:href="#DejaVuSans-6f" x="221.191406"/>
     </g>
    </g>
    <g id="line2d_36">
     <path d="M 39.7 103.430813 
L 49.7 103.430813 
L 59.7 103.430813 
" style="fill: none; stroke-dasharray: 7.4,3.2; stroke-dashoffset: 0; stroke: #cc79a7; stroke-width: 2"/>
    </g>
    <g id="text_20">
     <!-- Elastic Net -->
     <g transform="translate(67.7 106.930813) scale(0.1 -0.1)">
      <defs>
       <path id="DejaVuSans-74" d="M 1172 4494 
L 1172 3500 
L 2356 3500 
L 2356 3053 
L 1172 3053 
L 1172 1153 
Q 1172 725 1289 603 
Q 1406 481 1766 481 
L 2356 481 
L 2356 0 
L 1766 0 
Q 1100 0 847 248 
Q 594 497 594 1153 
L 594 3053 
L 172 3053 
L 172 3500 
L 594 3500 
L 594 4494 
L 1172 4494 
z
" transform="scale(0.015625)"/>
      </defs>
      <use xlink:href="#DejaVuSans-45"/>
      <use xlink:href="#DejaVuSans-6c" x="63.183594"/>
      <use xlink:href="#DejaVuSans-61" x="90.966797"/>
      <use xlink:href="#DejaVuSans-73" x="152.246094"/>
      <use xlink:href="#DejaVuSans-74" x="204.345703"/>
      <use xlink:href="#DejaVuSans-69" x="243.554688"/>
      <use xlink:href="#DejaVuSans-63" x="271.337891"/>
      <use xlink:href="#DejaVuSans-20" x="326.318359"/>
      <use xlink:href="#DejaVuSans-4e" x="358.105469"/>
      <use xlink:href="#DejaVuSans-65" x="432.910156"/>
      <use xlink:href="#DejaVuSans-74" x="494.433594"/>
     </g>
    </g>
    <g id="line2d_37">
     <path d="M 39.7 118.108938 
L 49.7 118.108938 
L 59.7 118.108938 
" style="fill: none; stroke-dasharray: 12.8,3.2,2,3.2; stroke-dashoffset: 0; stroke: #f0e442; stroke-width: 2"/>
    </g>
    <g id="text_21">
     <!-- Truncted Normal -->
     <g transform="translate(67.7 121.608938) scale(0.1 -0.1)">
      <defs>
       <path id="DejaVuSans-75" d="M 544 1381 
L 544 3500 
L 1119 3500 
L 1119 1403 
Q 1119 906 1312 657 
Q 1506 409 1894 409 
Q 2359 409 2629 706 
Q 2900 1003 2900 1516 
L 2900 3500 
L 3475 3500 
L 3475 0 
L 2900 0 
L 2900 538 
Q 2691 219 2414 64 
Q 2138 -91 1772 -91 
Q 1169 -91 856 284 
Q 544 659 544 1381 
z
M 1991 3584 
L 1991 3584 
z
" transform="scale(0.015625)"/>
      </defs>
      <use xlink:href="#DejaVuSans-54"/>
      <use xlink:href="#DejaVuSans-72" x="46.333984"/>
      <use xlink:href="#DejaVuSans-75" x="87.447266"/>
      <use xlink:href="#DejaVuSans-6e" x="150.826172"/>
      <use xlink:href="#DejaVuSans-63" x="214.205078"/>
      <use xlink:href="#DejaVuSans-74" x="269.185547"/>
      <use xlink:href="#DejaVuSans-65" x="308.394531"/>
      <use xlink:href="#DejaVuSans-64" x="369.917969"/>
      <use xlink:href="#DejaVuSans-20" x="433.394531"/>
      <use xlink:href="#DejaVuSans-4e" x="465.181641"/>
      <use xlink:href="#DejaVuSans-6f" x="539.986328"/>
      <use xlink:href="#DejaVuSans-72" x="601.167969"/>
      <use xlink:href="#DejaVuSans-6d" x="640.53125"/>
      <use xlink:href="#DejaVuSans-61" x="737.943359"/>
      <use xlink:href="#DejaVuSans-6c" x="799.222656"/>
     </g>
    </g>
    <g id="line2d_38">
     <path d="M 39.7 132.787062 
L 49.7 132.787062 
L 59.7 132.787062 
" style="fill: none; stroke: #1f77b4; stroke-width: 2; stroke-linecap: square"/>
    </g>
    <g id="text_22">
     <!-- LW -->
     <g transform="translate(67.7 136.287062) scale(0.1 -0.1)">
      <defs>
       <path id="DejaVuSans-57" d="M 213 4666 
L 850 4666 
L 1831 722 
L 2809 4666 
L 3519 4666 
L 4500 722 
L 5478 4666 
L 6119 4666 
L 4947 0 
L 4153 0 
L 3169 4050 
L 2175 0 
L 1381 0 
L 213 4666 
z
" transform="scale(0.015625)"/>
      </defs>
      <use xlink:href="#DejaVuSans-4c"/>
      <use xlink:href="#DejaVuSans-57" x="46.587891"/>
     </g>
    </g>
    <g id="line2d_39">
     <path d="M 39.7 147.465188 
L 49.7 147.465188 
L 59.7 147.465188 
" style="fill: none; stroke-dasharray: 7.4,3.2; stroke-dashoffset: 0; stroke: #aec7e8; stroke-width: 2"/>
    </g>
    <g id="text_23">
     <!-- FM -->
     <g transform="translate(67.7 150.965188) scale(0.1 -0.1)">
      <defs>
       <path id="DejaVuSans-46" d="M 628 4666 
L 3309 4666 
L 3309 4134 
L 1259 4134 
L 1259 2759 
L 3109 2759 
L 3109 2228 
L 1259 2228 
L 1259 0 
L 628 0 
L 628 4666 
z
" transform="scale(0.015625)"/>
      </defs>
      <use xlink:href="#DejaVuSans-46"/>
      <use xlink:href="#DejaVuSans-4d" x="57.519531"/>
     </g>
    </g>
    <g id="line2d_40">
     <path d="M 39.7 162.143312 
L 49.7 162.143312 
L 59.7 162.143312 
" style="fill: none; stroke-dasharray: 12.8,3.2,2,3.2; stroke-dashoffset: 0; stroke: #ff7f0e; stroke-width: 2"/>
    </g>
    <g id="text_24">
     <!-- TZ -->
     <g transform="translate(67.7 165.643312) scale(0.1 -0.1)">
      <defs>
       <path id="DejaVuSans-5a" d="M 359 4666 
L 4025 4666 
L 4025 4184 
L 1075 531 
L 4097 531 
L 4097 0 
L 288 0 
L 288 481 
L 3238 4134 
L 359 4134 
L 359 4666 
z
" transform="scale(0.015625)"/>
      </defs>
      <use xlink:href="#DejaVuSans-54"/>
      <use xlink:href="#DejaVuSans-5a" x="61.083984"/>
     </g>
    </g>
    <g id="line2d_41">
     <path d="M 39.7 176.821437 
L 49.7 176.821437 
L 59.7 176.821437 
" style="fill: none; stroke-dasharray: 2,3.3; stroke-dashoffset: 0; stroke: #ffbb78; stroke-width: 2"/>
    </g>
    <g id="text_25">
     <!-- FF -->
     <g transform="translate(67.7 180.321437) scale(0.1 -0.1)">
      <use xlink:href="#DejaVuSans-46"/>
      <use xlink:href="#DejaVuSans-46" x="57.519531"/>
     </g>
    </g>
   </g>
  </g>
 </g>
 <defs>
  <clipPath id="p1cea315f15">
   <rect x="30.7" y="16.94175" width="837" height="221.76"/>
  </clipPath>
 </defs>
</svg>
