<?xml version="1.0" encoding="utf-8" standalone="no"?>
<!DOCTYPE svg PUBLIC "-//W3C//DTD SVG 1.1//EN"
  "http://www.w3.org/Graphics/SVG/1.1/DTD/svg11.dtd">
<svg xmlns:xlink="http://www.w3.org/1999/xlink" width="861.3375pt" height="253.375625pt" viewBox="0 0 861.3375 253.375625" xmlns="http://www.w3.org/2000/svg" version="1.1">
 <metadata>
  <rdf:RDF xmlns:dc="http://purl.org/dc/elements/1.1/" xmlns:cc="http://creativecommons.org/ns#" xmlns:rdf="http://www.w3.org/1999/02/22-rdf-syntax-ns#">
   <cc:Work>
    <dc:type rdf:resource="http://purl.org/dc/dcmitype/StillImage"/>
    <dc:date>2025-08-06T21:49:54.880087</dc:date>
    <dc:format>image/svg+xml</dc:format>
    <dc:creator>
     <cc:Agent>
      <dc:title>Matplotlib v3.9.2, https://matplotlib.org/</dc:title>
     </cc:Agent>
    </dc:creator>
   </cc:Work>
  </rdf:RDF>
 </metadata>
 <defs>
  <style type="text/css">*{stroke-linejoin: round; stroke-linecap: butt}</style>
 </defs>
 <g id="figure_1">
  <g id="patch_1">
   <path d="M 0 253.375625 
L 861.3375 253.375625 
L 861.3375 0 
L 0 0 
z
" style="fill: #ffffff"/>
  </g>
  <g id="axes_1">
   <g id="patch_2">
    <path d="M 24.3375 238.4475 
L 861.3375 238.4475 
L 861.3375 16.6875 
L 24.3375 16.6875 
z
" style="fill: #ffffff"/>
   </g>
   <g id="matplotlib.axis_1">
    <g id="xtick_1">
     <g id="line2d_1">
      <defs>
       <path id="m24bf16d778" d="M 0 1.75 
L 0 -1.75 
" style="stroke: #000000; stroke-width: 0.8"/>
      </defs>
      <g>
       <use xlink:href="#m24bf16d778" x="77.737671" y="238.4475" style="stroke: #000000; stroke-width: 0.8"/>
      </g>
     </g>
     <g id="text_1">
      <!-- 1992 -->
      <g transform="translate(65.012671 251.295937) scale(0.1 -0.1)">
       <defs>
        <path id="DejaVuSans-31" d="M 794 531 
L 1825 531 
L 1825 4091 
L 703 3866 
L 703 4441 
L 1819 4666 
L 2450 4666 
L 2450 531 
L 3481 531 
L 3481 0 
L 794 0 
L 794 531 
z
" transform="scale(0.015625)"/>
        <path id="DejaVuSans-39" d="M 703 97 
L 703 672 
Q 941 559 1184 500 
Q 1428 441 1663 441 
Q 2288 441 2617 861 
Q 2947 1281 2994 2138 
Q 2813 1869 2534 1725 
Q 2256 1581 1919 1581 
Q 1219 1581 811 2004 
Q 403 2428 403 3163 
Q 403 3881 828 4315 
Q 1253 4750 1959 4750 
Q 2769 4750 3195 4129 
Q 3622 3509 3622 2328 
Q 3622 1225 3098 567 
Q 2575 -91 1691 -91 
Q 1453 -91 1209 -44 
Q 966 3 703 97 
z
M 1959 2075 
Q 2384 2075 2632 2365 
Q 2881 2656 2881 3163 
Q 2881 3666 2632 3958 
Q 2384 4250 1959 4250 
Q 1534 4250 1286 3958 
Q 1038 3666 1038 3163 
Q 1038 2656 1286 2365 
Q 1534 2075 1959 2075 
z
" transform="scale(0.015625)"/>
        <path id="DejaVuSans-32" d="M 1228 531 
L 3431 531 
L 3431 0 
L 469 0 
L 469 531 
Q 828 903 1448 1529 
Q 2069 2156 2228 2338 
Q 2531 2678 2651 2914 
Q 2772 3150 2772 3378 
Q 2772 3750 2511 3984 
Q 2250 4219 1831 4219 
Q 1534 4219 1204 4116 
Q 875 4013 500 3803 
L 500 4441 
Q 881 4594 1212 4672 
Q 1544 4750 1819 4750 
Q 2544 4750 2975 4387 
Q 3406 4025 3406 3419 
Q 3406 3131 3298 2873 
Q 3191 2616 2906 2266 
Q 2828 2175 2409 1742 
Q 1991 1309 1228 531 
z
" transform="scale(0.015625)"/>
       </defs>
       <use xlink:href="#DejaVuSans-31"/>
       <use xlink:href="#DejaVuSans-39" x="63.623047"/>
       <use xlink:href="#DejaVuSans-39" x="127.246094"/>
       <use xlink:href="#DejaVuSans-32" x="190.869141"/>
      </g>
     </g>
    </g>
    <g id="xtick_2">
     <g id="line2d_2">
      <g>
       <use xlink:href="#m24bf16d778" x="193.835364" y="238.4475" style="stroke: #000000; stroke-width: 0.8"/>
      </g>
     </g>
     <g id="text_2">
      <!-- 1996 -->
      <g transform="translate(181.110364 251.295937) scale(0.1 -0.1)">
       <defs>
        <path id="DejaVuSans-36" d="M 2113 2584 
Q 1688 2584 1439 2293 
Q 1191 2003 1191 1497 
Q 1191 994 1439 701 
Q 1688 409 2113 409 
Q 2538 409 2786 701 
Q 3034 994 3034 1497 
Q 3034 2003 2786 2293 
Q 2538 2584 2113 2584 
z
M 3366 4563 
L 3366 3988 
Q 3128 4100 2886 4159 
Q 2644 4219 2406 4219 
Q 1781 4219 1451 3797 
Q 1122 3375 1075 2522 
Q 1259 2794 1537 2939 
Q 1816 3084 2150 3084 
Q 2853 3084 3261 2657 
Q 3669 2231 3669 1497 
Q 3669 778 3244 343 
Q 2819 -91 2113 -91 
Q 1303 -91 875 529 
Q 447 1150 447 2328 
Q 447 3434 972 4092 
Q 1497 4750 2381 4750 
Q 2619 4750 2861 4703 
Q 3103 4656 3366 4563 
z
" transform="scale(0.015625)"/>
       </defs>
       <use xlink:href="#DejaVuSans-31"/>
       <use xlink:href="#DejaVuSans-39" x="63.623047"/>
       <use xlink:href="#DejaVuSans-39" x="127.246094"/>
       <use xlink:href="#DejaVuSans-36" x="190.869141"/>
      </g>
     </g>
    </g>
    <g id="xtick_3">
     <g id="line2d_3">
      <g>
       <use xlink:href="#m24bf16d778" x="309.933057" y="238.4475" style="stroke: #000000; stroke-width: 0.8"/>
      </g>
     </g>
     <g id="text_3">
      <!-- 2000 -->
      <g transform="translate(297.208057 251.295937) scale(0.1 -0.1)">
       <defs>
        <path id="DejaVuSans-30" d="M 2034 4250 
Q 1547 4250 1301 3770 
Q 1056 3291 1056 2328 
Q 1056 1369 1301 889 
Q 1547 409 2034 409 
Q 2525 409 2770 889 
Q 3016 1369 3016 2328 
Q 3016 3291 2770 3770 
Q 2525 4250 2034 4250 
z
M 2034 4750 
Q 2819 4750 3233 4129 
Q 3647 3509 3647 2328 
Q 3647 1150 3233 529 
Q 2819 -91 2034 -91 
Q 1250 -91 836 529 
Q 422 1150 422 2328 
Q 422 3509 836 4129 
Q 1250 4750 2034 4750 
z
" transform="scale(0.015625)"/>
       </defs>
       <use xlink:href="#DejaVuSans-32"/>
       <use xlink:href="#DejaVuSans-30" x="63.623047"/>
       <use xlink:href="#DejaVuSans-30" x="127.246094"/>
       <use xlink:href="#DejaVuSans-30" x="190.869141"/>
      </g>
     </g>
    </g>
    <g id="xtick_4">
     <g id="line2d_4">
      <g>
       <use xlink:href="#m24bf16d778" x="426.03075" y="238.4475" style="stroke: #000000; stroke-width: 0.8"/>
      </g>
     </g>
     <g id="text_4">
      <!-- 2004 -->
      <g transform="translate(413.30575 251.295937) scale(0.1 -0.1)">
       <defs>
        <path id="DejaVuSans-34" d="M 2419 4116 
L 825 1625 
L 2419 1625 
L 2419 4116 
z
M 2253 4666 
L 3047 4666 
L 3047 1625 
L 3713 1625 
L 3713 1100 
L 3047 1100 
L 3047 0 
L 2419 0 
L 2419 1100 
L 313 1100 
L 313 1709 
L 2253 4666 
z
" transform="scale(0.015625)"/>
       </defs>
       <use xlink:href="#DejaVuSans-32"/>
       <use xlink:href="#DejaVuSans-30" x="63.623047"/>
       <use xlink:href="#DejaVuSans-30" x="127.246094"/>
       <use xlink:href="#DejaVuSans-34" x="190.869141"/>
      </g>
     </g>
    </g>
    <g id="xtick_5">
     <g id="line2d_5">
      <g>
       <use xlink:href="#m24bf16d778" x="542.128443" y="238.4475" style="stroke: #000000; stroke-width: 0.8"/>
      </g>
     </g>
     <g id="text_5">
      <!-- 2008 -->
      <g transform="translate(529.403443 251.295937) scale(0.1 -0.1)">
       <defs>
        <path id="DejaVuSans-38" d="M 2034 2216 
Q 1584 2216 1326 1975 
Q 1069 1734 1069 1313 
Q 1069 891 1326 650 
Q 1584 409 2034 409 
Q 2484 409 2743 651 
Q 3003 894 3003 1313 
Q 3003 1734 2745 1975 
Q 2488 2216 2034 2216 
z
M 1403 2484 
Q 997 2584 770 2862 
Q 544 3141 544 3541 
Q 544 4100 942 4425 
Q 1341 4750 2034 4750 
Q 2731 4750 3128 4425 
Q 3525 4100 3525 3541 
Q 3525 3141 3298 2862 
Q 3072 2584 2669 2484 
Q 3125 2378 3379 2068 
Q 3634 1759 3634 1313 
Q 3634 634 3220 271 
Q 2806 -91 2034 -91 
Q 1263 -91 848 271 
Q 434 634 434 1313 
Q 434 1759 690 2068 
Q 947 2378 1403 2484 
z
M 1172 3481 
Q 1172 3119 1398 2916 
Q 1625 2713 2034 2713 
Q 2441 2713 2670 2916 
Q 2900 3119 2900 3481 
Q 2900 3844 2670 4047 
Q 2441 4250 2034 4250 
Q 1625 4250 1398 4047 
Q 1172 3844 1172 3481 
z
" transform="scale(0.015625)"/>
       </defs>
       <use xlink:href="#DejaVuSans-32"/>
       <use xlink:href="#DejaVuSans-30" x="63.623047"/>
       <use xlink:href="#DejaVuSans-30" x="127.246094"/>
       <use xlink:href="#DejaVuSans-38" x="190.869141"/>
      </g>
     </g>
    </g>
    <g id="xtick_6">
     <g id="line2d_6">
      <g>
       <use xlink:href="#m24bf16d778" x="658.226136" y="238.4475" style="stroke: #000000; stroke-width: 0.8"/>
      </g>
     </g>
     <g id="text_6">
      <!-- 2012 -->
      <g transform="translate(645.501136 251.295937) scale(0.1 -0.1)">
       <use xlink:href="#DejaVuSans-32"/>
       <use xlink:href="#DejaVuSans-30" x="63.623047"/>
       <use xlink:href="#DejaVuSans-31" x="127.246094"/>
       <use xlink:href="#DejaVuSans-32" x="190.869141"/>
      </g>
     </g>
    </g>
    <g id="xtick_7">
     <g id="line2d_7">
      <g>
       <use xlink:href="#m24bf16d778" x="774.323829" y="238.4475" style="stroke: #000000; stroke-width: 0.8"/>
      </g>
     </g>
     <g id="text_7">
      <!-- 2016 -->
      <g transform="translate(761.598829 251.295937) scale(0.1 -0.1)">
       <use xlink:href="#DejaVuSans-32"/>
       <use xlink:href="#DejaVuSans-30" x="63.623047"/>
       <use xlink:href="#DejaVuSans-31" x="127.246094"/>
       <use xlink:href="#DejaVuSans-36" x="190.869141"/>
      </g>
     </g>
    </g>
   </g>
   <g id="matplotlib.axis_2">
    <g id="ytick_1">
     <g id="line2d_8">
      <path d="M 24.3375 206.66037 
L 861.3375 206.66037 
" clip-path="url(#pb337f7bdac)" style="fill: none; stroke-dasharray: 1.85,0.8; stroke-dashoffset: 0; stroke: #b2b2b2; stroke-width: 0.5"/>
     </g>
     <g id="line2d_9">
      <defs>
       <path id="me2a803e77d" d="M 1.75 0 
L -1.75 -0 
" style="stroke: #000000; stroke-width: 0.8"/>
      </defs>
      <g>
       <use xlink:href="#me2a803e77d" x="24.3375" y="206.66037" style="stroke: #000000; stroke-width: 0.8"/>
      </g>
     </g>
     <g id="text_8">
      <!-- 50 -->
      <g transform="translate(6.3625 210.459589) scale(0.1 -0.1)">
       <defs>
        <path id="DejaVuSans-35" d="M 691 4666 
L 3169 4666 
L 3169 4134 
L 1269 4134 
L 1269 2991 
Q 1406 3038 1543 3061 
Q 1681 3084 1819 3084 
Q 2600 3084 3056 2656 
Q 3513 2228 3513 1497 
Q 3513 744 3044 326 
Q 2575 -91 1722 -91 
Q 1428 -91 1123 -41 
Q 819 9 494 109 
L 494 744 
Q 775 591 1075 516 
Q 1375 441 1709 441 
Q 2250 441 2565 725 
Q 2881 1009 2881 1497 
Q 2881 1984 2565 2268 
Q 2250 2553 1709 2553 
Q 1456 2553 1204 2497 
Q 953 2441 691 2322 
L 691 4666 
z
" transform="scale(0.015625)"/>
       </defs>
       <use xlink:href="#DejaVuSans-35"/>
       <use xlink:href="#DejaVuSans-30" x="63.623047"/>
      </g>
     </g>
    </g>
    <g id="ytick_2">
     <g id="line2d_10">
      <path d="M 24.3375 173.272568 
L 861.3375 173.272568 
" clip-path="url(#pb337f7bdac)" style="fill: none; stroke-dasharray: 1.85,0.8; stroke-dashoffset: 0; stroke: #b2b2b2; stroke-width: 0.5"/>
     </g>
     <g id="line2d_11">
      <g>
       <use xlink:href="#me2a803e77d" x="24.3375" y="173.272568" style="stroke: #000000; stroke-width: 0.8"/>
      </g>
     </g>
     <g id="text_9">
      <!-- 100 -->
      <g transform="translate(0 177.071787) scale(0.1 -0.1)">
       <use xlink:href="#DejaVuSans-31"/>
       <use xlink:href="#DejaVuSans-30" x="63.623047"/>
       <use xlink:href="#DejaVuSans-30" x="127.246094"/>
      </g>
     </g>
    </g>
    <g id="ytick_3">
     <g id="line2d_12">
      <path d="M 24.3375 139.884766 
L 861.3375 139.884766 
" clip-path="url(#pb337f7bdac)" style="fill: none; stroke-dasharray: 1.85,0.8; stroke-dashoffset: 0; stroke: #b2b2b2; stroke-width: 0.5"/>
     </g>
     <g id="line2d_13">
      <g>
       <use xlink:href="#me2a803e77d" x="24.3375" y="139.884766" style="stroke: #000000; stroke-width: 0.8"/>
      </g>
     </g>
     <g id="text_10">
      <!-- 150 -->
      <g transform="translate(0 143.683985) scale(0.1 -0.1)">
       <use xlink:href="#DejaVuSans-31"/>
       <use xlink:href="#DejaVuSans-35" x="63.623047"/>
       <use xlink:href="#DejaVuSans-30" x="127.246094"/>
      </g>
     </g>
    </g>
    <g id="ytick_4">
     <g id="line2d_14">
      <path d="M 24.3375 106.496964 
L 861.3375 106.496964 
" clip-path="url(#pb337f7bdac)" style="fill: none; stroke-dasharray: 1.85,0.8; stroke-dashoffset: 0; stroke: #b2b2b2; stroke-width: 0.5"/>
     </g>
     <g id="line2d_15">
      <g>
       <use xlink:href="#me2a803e77d" x="24.3375" y="106.496964" style="stroke: #000000; stroke-width: 0.8"/>
      </g>
     </g>
     <g id="text_11">
      <!-- 200 -->
      <g transform="translate(0 110.296183) scale(0.1 -0.1)">
       <use xlink:href="#DejaVuSans-32"/>
       <use xlink:href="#DejaVuSans-30" x="63.623047"/>
       <use xlink:href="#DejaVuSans-30" x="127.246094"/>
      </g>
     </g>
    </g>
    <g id="ytick_5">
     <g id="line2d_16">
      <path d="M 24.3375 73.109162 
L 861.3375 73.109162 
" clip-path="url(#pb337f7bdac)" style="fill: none; stroke-dasharray: 1.85,0.8; stroke-dashoffset: 0; stroke: #b2b2b2; stroke-width: 0.5"/>
     </g>
     <g id="line2d_17">
      <g>
       <use xlink:href="#me2a803e77d" x="24.3375" y="73.109162" style="stroke: #000000; stroke-width: 0.8"/>
      </g>
     </g>
     <g id="text_12">
      <!-- 250 -->
      <g transform="translate(0 76.908381) scale(0.1 -0.1)">
       <use xlink:href="#DejaVuSans-32"/>
       <use xlink:href="#DejaVuSans-35" x="63.623047"/>
       <use xlink:href="#DejaVuSans-30" x="127.246094"/>
      </g>
     </g>
    </g>
    <g id="ytick_6">
     <g id="line2d_18">
      <path d="M 24.3375 39.72136 
L 861.3375 39.72136 
" clip-path="url(#pb337f7bdac)" style="fill: none; stroke-dasharray: 1.85,0.8; stroke-dashoffset: 0; stroke: #b2b2b2; stroke-width: 0.5"/>
     </g>
     <g id="line2d_19">
      <g>
       <use xlink:href="#me2a803e77d" x="24.3375" y="39.72136" style="stroke: #000000; stroke-width: 0.8"/>
      </g>
     </g>
     <g id="text_13">
      <!-- 300 -->
      <g transform="translate(0 43.520579) scale(0.1 -0.1)">
       <defs>
        <path id="DejaVuSans-33" d="M 2597 2516 
Q 3050 2419 3304 2112 
Q 3559 1806 3559 1356 
Q 3559 666 3084 287 
Q 2609 -91 1734 -91 
Q 1441 -91 1130 -33 
Q 819 25 488 141 
L 488 750 
Q 750 597 1062 519 
Q 1375 441 1716 441 
Q 2309 441 2620 675 
Q 2931 909 2931 1356 
Q 2931 1769 2642 2001 
Q 2353 2234 1838 2234 
L 1294 2234 
L 1294 2753 
L 1863 2753 
Q 2328 2753 2575 2939 
Q 2822 3125 2822 3475 
Q 2822 3834 2567 4026 
Q 2313 4219 1838 4219 
Q 1578 4219 1281 4162 
Q 984 4106 628 3988 
L 628 4550 
Q 988 4650 1302 4700 
Q 1616 4750 1894 4750 
Q 2613 4750 3031 4423 
Q 3450 4097 3450 3541 
Q 3450 3153 3228 2886 
Q 3006 2619 2597 2516 
z
" transform="scale(0.015625)"/>
       </defs>
       <use xlink:href="#DejaVuSans-33"/>
       <use xlink:href="#DejaVuSans-30" x="63.623047"/>
       <use xlink:href="#DejaVuSans-30" x="127.246094"/>
      </g>
     </g>
    </g>
   </g>
   <g id="line2d_20">
    <path d="M 24.3375 237.239863 
L 26.800901 236.637188 
L 29.184837 237.275915 
L 31.648238 236.70755 
L 34.032174 236.493585 
L 36.495575 235.867925 
L 38.958975 237.478196 
L 41.342912 237.908238 
L 43.806312 236.740762 
L 46.190249 235.904294 
L 48.653649 237.351312 
L 51.11705 236.653682 
L 53.342057 236.502992 
L 55.805458 236.090481 
L 58.189394 236.195216 
L 60.652795 237.26231 
L 63.036731 237.530655 
L 65.500132 236.582151 
L 67.963532 237.207369 
L 70.347469 236.428819 
L 72.810869 236.038021 
L 75.194806 236.102118 
L 77.658206 236.459618 
L 80.121607 234.138183 
L 84.889479 236.727906 
L 87.273416 236.35424 
L 89.736816 236.501128 
L 92.120753 236.204823 
L 94.584153 235.17203 
L 97.047554 236.511489 
L 99.43149 236.319358 
L 101.894891 236.677899 
L 104.278827 236.299701 
L 106.742228 236.022034 
L 109.205629 236.728932 
L 113.894037 236.649122 
L 116.277973 235.985564 
L 118.741374 233.233774 
L 121.12531 236.055814 
L 123.58871 237.45232 
L 126.052111 235.786786 
L 128.436047 236.950265 
L 130.899448 235.241132 
L 133.283384 236.196156 
L 135.746785 235.746426 
L 138.210186 236.630412 
L 140.435193 236.922198 
L 142.898594 236.499107 
L 145.28253 237.086485 
L 147.745931 236.630686 
L 150.129867 235.737673 
L 152.593268 236.338561 
L 155.056668 234.888203 
L 157.440605 236.822339 
L 162.287941 236.944561 
L 164.751342 237.074549 
L 167.214743 236.594192 
L 169.43975 235.5794 
L 171.903151 237.553234 
L 174.287087 237.085176 
L 176.750488 236.340055 
L 179.134424 236.964629 
L 181.597825 236.898985 
L 184.061225 236.568205 
L 186.445162 237.005499 
L 188.908562 235.774051 
L 191.292499 235.7442 
L 193.755899 236.739888 
L 196.2193 236.680182 
L 198.523772 235.250581 
L 200.987172 235.966443 
L 208.218446 237.207649 
L 210.681846 236.188211 
L 213.145247 237.205988 
L 215.529183 236.957749 
L 217.992584 237.629299 
L 220.37652 236.573346 
L 225.303322 235.57102 
L 227.528329 235.046526 
L 229.99173 235.667897 
L 232.375666 235.327762 
L 234.839067 236.230716 
L 237.223003 236.38247 
L 239.686403 235.06337 
L 242.149804 236.019677 
L 244.53374 235.569367 
L 246.997141 236.613883 
L 249.381077 235.17885 
L 251.844478 236.236752 
L 254.307879 235.352528 
L 256.532886 235.253198 
L 258.996287 234.575003 
L 261.380223 233.70027 
L 263.843624 233.976026 
L 266.22756 235.880436 
L 268.690961 234.387096 
L 271.154361 233.950145 
L 273.538297 235.352205 
L 276.001698 233.09995 
L 278.385634 234.677517 
L 280.849035 235.633918 
L 285.537443 234.216111 
L 288.000844 234.781386 
L 290.38478 232.597743 
L 292.848181 232.803486 
L 295.232117 234.127748 
L 300.158918 235.254848 
L 302.542855 233.92485 
L 305.006255 233.103504 
L 307.390192 232.848261 
L 309.853592 233.204076 
L 312.316993 227.597155 
L 314.621465 228.301956 
L 317.084865 226.315806 
L 319.468802 232.562867 
L 321.932202 234.340663 
L 324.316139 232.281292 
L 326.779539 232.985597 
L 329.24294 232.774659 
L 331.626876 226.720065 
L 334.090277 232.064298 
L 336.474213 234.13005 
L 338.937614 234.675916 
L 341.401015 229.419032 
L 343.626022 227.38978 
L 346.089423 234.088073 
L 348.473359 233.874505 
L 350.936759 235.863577 
L 353.320696 235.080637 
L 355.784096 233.373601 
L 358.247497 235.537801 
L 360.631433 235.126819 
L 363.094834 231.419069 
L 365.47877 235.579659 
L 367.942171 234.286802 
L 370.405572 234.9104 
L 372.630579 234.195095 
L 375.09398 234.996133 
L 379.941317 234.813224 
L 382.325253 234.317653 
L 384.788654 232.639119 
L 387.252054 235.077642 
L 389.63599 235.868681 
L 392.099391 231.969353 
L 394.483327 235.147172 
L 396.946728 232.166232 
L 399.410129 236.154464 
L 401.635136 236.963393 
L 404.098537 235.764754 
L 406.482473 235.304457 
L 408.945874 235.953465 
L 411.32981 235.68766 
L 413.793211 234.87871 
L 416.256611 235.450507 
L 418.640548 236.271417 
L 421.103948 236.025881 
L 423.487885 236.454401 
L 425.951285 235.606093 
L 428.414686 236.917409 
L 430.719158 237.445498 
L 433.182558 237.505217 
L 435.566495 236.046962 
L 438.029895 235.978274 
L 440.413832 236.658422 
L 442.877232 237.18633 
L 445.340633 236.736135 
L 447.724569 235.988501 
L 450.18797 236.3784 
L 452.571906 237.259781 
L 455.035307 237.563216 
L 457.498708 238.048192 
L 459.723715 236.53421 
L 462.187115 235.903139 
L 464.571052 237.180106 
L 467.034452 236.074711 
L 469.418389 237.47587 
L 471.881789 237.332085 
L 474.34519 236.278997 
L 476.729126 238.112712 
L 479.192527 235.767209 
L 484.039864 237.262076 
L 486.503265 236.33537 
L 488.728272 236.700718 
L 491.191673 237.417398 
L 493.575609 236.879951 
L 496.03901 236.64655 
L 498.422946 237.173061 
L 500.886346 237.411131 
L 503.349747 235.210509 
L 505.733683 237.254333 
L 508.197084 237.003703 
L 510.58102 237.429641 
L 513.044421 236.89023 
L 515.507822 237.434493 
L 520.19623 237.921765 
L 522.580166 237.35591 
L 525.043567 237.375843 
L 527.427503 237.506558 
L 529.890904 237.93769 
L 532.354304 236.729118 
L 534.738241 236.633438 
L 537.201641 236.184692 
L 539.585577 235.921679 
L 542.048978 235.039473 
L 544.512379 233.869775 
L 546.816851 233.326652 
L 549.280251 234.344996 
L 556.511524 236.317686 
L 558.974925 232.415604 
L 561.438326 233.547607 
L 563.822262 233.195772 
L 566.285663 231.315107 
L 568.669599 234.541879 
L 571.133 234.145688 
L 573.596401 234.446266 
L 575.821408 234.984289 
L 578.284808 234.505143 
L 580.668745 236.085659 
L 583.132145 234.660022 
L 585.516082 234.508464 
L 587.979482 235.684278 
L 590.442883 236.535976 
L 592.826819 235.805579 
L 595.29022 235.733594 
L 597.674156 237.040552 
L 600.137557 236.449911 
L 602.600958 234.494723 
L 607.289366 237.261782 
L 609.673302 237.990838 
L 612.136703 235.878115 
L 614.520639 237.596235 
L 616.984039 235.733149 
L 619.44744 234.966537 
L 621.831376 235.193724 
L 624.294777 237.41178 
L 626.678713 236.937165 
L 629.142114 235.625787 
L 631.605515 236.639594 
L 633.830522 236.954048 
L 636.293923 237.081833 
L 638.677859 236.597506 
L 641.14126 237.804317 
L 643.525196 237.448139 
L 645.988597 237.417162 
L 648.451997 235.802618 
L 650.835933 236.808116 
L 653.299334 236.166898 
L 658.146671 236.447479 
L 660.610072 234.731676 
L 662.914544 237.101058 
L 665.377944 237.440529 
L 670.225281 236.553409 
L 672.609217 235.768367 
L 675.072618 237.63626 
L 677.536019 237.452501 
L 679.919955 236.368074 
L 682.383356 237.583122 
L 684.767292 236.737487 
L 687.230693 236.788405 
L 689.694094 237.058521 
L 691.919101 237.802389 
L 694.382501 237.979216 
L 696.766438 237.87549 
L 699.229838 235.753054 
L 701.613775 235.340608 
L 704.077175 236.529386 
L 706.540576 237.424023 
L 708.924512 237.810801 
L 711.387913 237.461234 
L 713.771849 236.819666 
L 716.23525 236.848749 
L 718.698651 236.356219 
L 720.923658 236.589717 
L 723.387059 237.369592 
L 725.770995 237.253372 
L 728.234395 236.853288 
L 730.618332 238.180892 
L 733.081732 237.220096 
L 735.545133 237.501113 
L 740.39247 237.70707 
L 742.776406 237.179119 
L 745.239807 236.243595 
L 747.703208 235.115329 
L 752.391616 237.767587 
L 754.775552 237.031655 
L 757.238953 237.077548 
L 759.622889 238.213817 
L 762.08629 236.49178 
L 764.54969 236.73247 
L 766.933626 238.130121 
L 769.397027 237.323985 
L 771.780963 237.290409 
L 774.244364 237.755406 
L 776.707765 237.069544 
L 779.012237 237.367019 
L 781.475637 237.414335 
L 783.859573 236.373186 
L 788.70691 236.412663 
L 791.170311 235.853626 
L 793.633712 237.054019 
L 796.017648 236.674717 
L 798.481049 236.717877 
L 800.864985 236.934914 
L 803.328386 236.358525 
L 805.791787 237.185006 
L 808.016794 236.952482 
L 810.480194 237.419106 
L 812.864131 238.4475 
L 815.327531 238.058956 
L 817.711468 236.019854 
L 820.174868 236.148473 
L 822.638269 238.149565 
L 827.485606 235.175584 
L 829.869542 236.171958 
L 832.332943 238.090527 
L 834.796344 236.94758 
L 837.021351 236.27266 
L 839.484751 235.727444 
L 841.868688 237.095506 
L 844.332088 236.690224 
L 846.716025 237.134449 
L 849.179425 237.107374 
L 851.642826 236.722233 
L 854.026762 236.703803 
L 856.490163 235.382286 
L 858.874099 236.02444 
L 861.3375 238.030476 
L 861.3375 238.030476 
" clip-path="url(#pb337f7bdac)" style="fill: none; stroke: #e69f00; stroke-width: 2; stroke-linecap: square"/>
   </g>
   <g id="line2d_21">
    <path d="M 24.3375 201.826239 
L 26.800901 204.613849 
L 29.184837 191.821388 
L 31.648238 16.6875 
L 34.032174 184.613676 
L 36.495575 197.506176 
L 38.958975 152.169538 
L 41.342912 203.957691 
L 43.806312 134.691997 
L 46.190249 127.153814 
L 48.653649 168.234455 
L 51.11705 139.553463 
L 53.342057 190.628344 
L 55.805458 112.149613 
L 58.189394 148.644613 
L 60.652795 164.810648 
L 63.036731 112.119716 
L 65.500132 110.886877 
L 67.963532 198.996564 
L 70.347469 154.94919 
L 72.810869 178.877348 
L 75.194806 168.974691 
L 77.658206 192.984212 
L 80.121607 199.664578 
L 82.426079 128.865428 
L 84.889479 98.317253 
L 87.273416 199.91505 
L 89.736816 200.588166 
L 92.120753 173.570228 
L 94.584153 100.843303 
L 97.047554 193.375543 
L 99.43149 196.883959 
L 101.894891 121.75969 
L 104.278827 192.990174 
L 106.742228 89.387857 
L 109.205629 192.744776 
L 111.430636 125.701888 
L 113.894037 171.566026 
L 116.277973 154.345092 
L 118.741374 209.98693 
L 121.12531 171.558717 
L 123.58871 227.497754 
L 126.052111 197.520177 
L 128.436047 178.207657 
L 130.899448 209.829854 
L 133.283384 226.45015 
L 135.746785 222.141001 
L 138.210186 184.038054 
L 140.435193 176.326406 
L 142.898594 220.143254 
L 145.28253 130.04123 
L 147.745931 209.289294 
L 150.129867 227.342766 
L 152.593268 211.193774 
L 155.056668 154.927595 
L 157.440605 179.477989 
L 159.904005 229.567113 
L 162.287941 217.400909 
L 164.751342 219.035757 
L 167.214743 201.904935 
L 169.43975 203.650298 
L 171.903151 196.921317 
L 174.287087 169.699702 
L 176.750488 218.46613 
L 179.134424 183.028807 
L 181.597825 176.593436 
L 184.061225 173.600063 
L 186.445162 211.016975 
L 188.908562 189.824874 
L 191.292499 165.732338 
L 193.755899 145.765345 
L 196.2193 193.75883 
L 198.523772 221.243952 
L 200.987172 221.196588 
L 203.371109 213.399169 
L 205.834509 177.464393 
L 208.218446 215.167417 
L 210.681846 187.587252 
L 213.145247 204.39362 
L 215.529183 219.622156 
L 217.992584 205.694128 
L 220.37652 205.149465 
L 222.839921 185.977319 
L 225.303322 148.9313 
L 227.528329 169.618035 
L 229.99173 155.284703 
L 232.375666 154.280941 
L 234.839067 193.523494 
L 237.223003 172.260106 
L 239.686403 168.09203 
L 242.149804 188.326928 
L 244.53374 209.746209 
L 246.997141 171.755465 
L 249.381077 160.077721 
L 251.844478 99.291689 
L 254.307879 203.696456 
L 256.532886 214.048852 
L 258.996287 217.063353 
L 261.380223 175.390894 
L 263.843624 160.732126 
L 266.22756 171.161476 
L 268.690961 158.688749 
L 271.154361 177.214266 
L 273.538297 175.922536 
L 276.001698 165.871551 
L 278.385634 147.290632 
L 280.849035 167.768109 
L 283.312436 186.226338 
L 285.537443 208.804677 
L 288.000844 166.130356 
L 290.38478 151.556415 
L 292.848181 183.877534 
L 295.232117 189.735444 
L 297.695518 153.640427 
L 300.158918 204.335767 
L 302.542855 176.928826 
L 305.006255 186.21308 
L 307.390192 188.775441 
L 309.853592 213.573196 
L 312.316993 193.044377 
L 314.621465 166.937844 
L 317.084865 171.740064 
L 319.468802 154.68893 
L 321.932202 186.466325 
L 324.316139 188.841246 
L 326.779539 166.169045 
L 329.24294 187.245149 
L 331.626876 157.367063 
L 334.090277 161.129079 
L 336.474213 172.541924 
L 338.937614 180.315758 
L 341.401015 197.129426 
L 343.626022 203.137275 
L 346.089423 200.391421 
L 348.473359 203.142437 
L 350.936759 188.651524 
L 353.320696 177.791773 
L 355.784096 162.108782 
L 358.247497 142.112962 
L 360.631433 155.184376 
L 363.094834 164.516717 
L 365.47877 170.224149 
L 367.942171 214.041723 
L 370.405572 200.720741 
L 372.630579 214.87479 
L 375.09398 163.487666 
L 377.477916 199.99311 
L 379.941317 225.337797 
L 382.325253 196.198855 
L 384.788654 192.067642 
L 387.252054 196.342181 
L 389.63599 101.182418 
L 392.099391 160.830482 
L 394.483327 113.162345 
L 396.946728 220.897937 
L 399.410129 155.451324 
L 401.635136 231.473212 
L 404.098537 176.460783 
L 406.482473 198.818867 
L 408.945874 173.484583 
L 411.32981 200.777642 
L 413.793211 217.051558 
L 416.256611 198.219233 
L 418.640548 205.923561 
L 421.103948 191.714962 
L 423.487885 183.326586 
L 425.951285 210.259875 
L 428.414686 173.92053 
L 430.719158 166.043767 
L 433.182558 204.079701 
L 435.566495 198.423916 
L 438.029895 210.761883 
L 440.413832 212.6596 
L 442.877232 183.270737 
L 445.340633 230.485038 
L 447.724569 214.217392 
L 450.18797 227.70181 
L 452.571906 164.739469 
L 455.035307 198.511695 
L 457.498708 211.056411 
L 459.723715 178.152345 
L 462.187115 220.82084 
L 464.571052 134.438639 
L 467.034452 150.819545 
L 469.418389 191.003497 
L 471.881789 173.730943 
L 474.34519 180.878987 
L 476.729126 199.226569 
L 481.576463 216.859212 
L 484.039864 225.724163 
L 486.503265 150.64844 
L 488.728272 150.156226 
L 491.191673 216.695871 
L 493.575609 149.755981 
L 496.03901 160.152503 
L 498.422946 167.529979 
L 500.886346 176.125963 
L 503.349747 219.739602 
L 505.733683 161.086781 
L 508.197084 206.925196 
L 510.58102 204.243512 
L 513.044421 201.268391 
L 515.507822 212.400828 
L 517.732829 188.732809 
L 520.19623 199.46107 
L 522.580166 197.925556 
L 525.043567 227.648552 
L 527.427503 229.336276 
L 529.890904 202.504503 
L 532.354304 153.396341 
L 534.738241 230.044415 
L 537.201641 183.882054 
L 539.585577 189.772102 
L 542.048978 208.481352 
L 544.512379 197.866497 
L 546.816851 207.870784 
L 549.280251 195.970723 
L 551.664188 223.482828 
L 554.127588 177.634974 
L 556.511524 206.210187 
L 558.974925 193.702614 
L 561.438326 174.54704 
L 563.822262 209.740246 
L 566.285663 194.710974 
L 568.669599 194.215114 
L 571.133 98.436999 
L 573.596401 157.240673 
L 575.821408 193.776267 
L 578.284808 144.828396 
L 580.668745 150.951789 
L 583.132145 152.241142 
L 585.516082 197.005256 
L 587.979482 220.701343 
L 590.442883 210.682123 
L 592.826819 145.719763 
L 595.29022 216.912516 
L 597.674156 174.674409 
L 600.137557 208.818468 
L 602.600958 181.702077 
L 604.825965 213.248374 
L 607.289366 185.196381 
L 609.673302 202.275941 
L 612.136703 210.244207 
L 614.520639 173.075793 
L 616.984039 184.556194 
L 619.44744 217.720212 
L 621.831376 205.312347 
L 624.294777 182.6697 
L 626.678713 208.810175 
L 629.142114 199.623257 
L 631.605515 204.304103 
L 633.830522 216.800224 
L 636.293923 205.751252 
L 638.677859 220.537885 
L 641.14126 191.057418 
L 643.525196 212.82422 
L 645.988597 174.516184 
L 648.451997 222.087548 
L 650.835933 172.219523 
L 653.299334 202.175933 
L 655.68327 206.516868 
L 658.146671 184.472128 
L 660.610072 181.512071 
L 662.914544 172.376372 
L 665.377944 172.593791 
L 667.761881 202.861163 
L 670.225281 186.849634 
L 672.609217 38.355879 
L 675.072618 188.06537 
L 677.536019 25.601114 
L 679.919955 209.470349 
L 682.383356 204.017314 
L 684.767292 219.82689 
L 687.230693 178.560145 
L 689.694094 65.914904 
L 691.919101 193.272802 
L 694.382501 64.179862 
L 696.766438 171.33838 
L 699.229838 140.943423 
L 701.613775 174.488657 
L 704.077175 225.609517 
L 706.540576 175.985949 
L 708.924512 187.930653 
L 711.387913 204.832952 
L 713.771849 191.898352 
L 716.23525 136.166532 
L 720.923658 197.521385 
L 723.387059 147.965147 
L 725.770995 176.25405 
L 728.234395 98.075225 
L 730.618332 165.336017 
L 733.081732 198.744872 
L 735.545133 169.610962 
L 737.929069 116.545073 
L 740.39247 185.395675 
L 742.776406 176.377564 
L 745.239807 130.053027 
L 747.703208 162.65895 
L 749.928215 105.681125 
L 752.391616 197.08583 
L 754.775552 132.118622 
L 757.238953 203.612476 
L 759.622889 171.180895 
L 762.08629 111.672615 
L 764.54969 202.621382 
L 766.933626 170.67113 
L 769.397027 117.001214 
L 771.780963 149.969012 
L 774.244364 189.453674 
L 776.707765 147.24934 
L 779.012237 122.167485 
L 781.475637 215.013652 
L 783.859573 153.438353 
L 786.322974 190.353863 
L 788.70691 177.72019 
L 791.170311 200.30077 
L 793.633712 95.410768 
L 796.017648 183.209437 
L 798.481049 149.090756 
L 800.864985 151.709182 
L 803.328386 183.665232 
L 805.791787 145.188381 
L 808.016794 190.029037 
L 810.480194 220.32619 
L 812.864131 167.745302 
L 815.327531 175.514498 
L 817.711468 105.037604 
L 820.174868 213.711117 
L 822.638269 214.467447 
L 825.022205 215.622351 
L 827.485606 149.623648 
L 829.869542 108.410052 
L 832.332943 138.023357 
L 834.796344 112.592245 
L 837.021351 203.041603 
L 839.484751 122.014395 
L 841.868688 146.514351 
L 844.332088 181.434758 
L 846.716025 197.137657 
L 849.179425 207.778958 
L 851.642826 191.135196 
L 854.026762 82.171091 
L 856.490163 183.057448 
L 858.874099 163.035156 
L 861.3375 169.714091 
L 861.3375 169.714091 
" clip-path="url(#pb337f7bdac)" style="fill: none; stroke-dasharray: 7.4,3.2; stroke-dashoffset: 0; stroke: #56b4e9; stroke-width: 2"/>
   </g>
   <g id="patch_3">
    <path d="M 24.3375 238.4475 
L 24.3375 16.6875 
" style="fill: none; stroke: #000000; stroke-width: 0.8; stroke-linejoin: miter; stroke-linecap: square"/>
   </g>
   <g id="patch_4">
    <path d="M 24.3375 238.4475 
L 861.3375 238.4475 
" style="fill: none; stroke: #000000; stroke-width: 0.8; stroke-linejoin: miter; stroke-linecap: square"/>
   </g>
   <g id="text_14">
    <!-- 25_LTOTMKUS - Turnover -->
    <g transform="translate(353.50575 10.6875) scale(0.144 -0.144)">
     <defs>
      <path id="DejaVuSans-5f" d="M 3263 -1063 
L 3263 -1509 
L -63 -1509 
L -63 -1063 
L 3263 -1063 
z
" transform="scale(0.015625)"/>
      <path id="DejaVuSans-4c" d="M 628 4666 
L 1259 4666 
L 1259 531 
L 3531 531 
L 3531 0 
L 628 0 
L 628 4666 
z
" transform="scale(0.015625)"/>
      <path id="DejaVuSans-54" d="M -19 4666 
L 3928 4666 
L 3928 4134 
L 2272 4134 
L 2272 0 
L 1638 0 
L 1638 4134 
L -19 4134 
L -19 4666 
z
" transform="scale(0.015625)"/>
      <path id="DejaVuSans-4f" d="M 2522 4238 
Q 1834 4238 1429 3725 
Q 1025 3213 1025 2328 
Q 1025 1447 1429 934 
Q 1834 422 2522 422 
Q 3209 422 3611 934 
Q 4013 1447 4013 2328 
Q 4013 3213 3611 3725 
Q 3209 4238 2522 4238 
z
M 2522 4750 
Q 3503 4750 4090 4092 
Q 4678 3434 4678 2328 
Q 4678 1225 4090 567 
Q 3503 -91 2522 -91 
Q 1538 -91 948 565 
Q 359 1222 359 2328 
Q 359 3434 948 4092 
Q 1538 4750 2522 4750 
z
" transform="scale(0.015625)"/>
      <path id="DejaVuSans-4d" d="M 628 4666 
L 1569 4666 
L 2759 1491 
L 3956 4666 
L 4897 4666 
L 4897 0 
L 4281 0 
L 4281 4097 
L 3078 897 
L 2444 897 
L 1241 4097 
L 1241 0 
L 628 0 
L 628 4666 
z
" transform="scale(0.015625)"/>
      <path id="DejaVuSans-4b" d="M 628 4666 
L 1259 4666 
L 1259 2694 
L 3353 4666 
L 4166 4666 
L 1850 2491 
L 4331 0 
L 3500 0 
L 1259 2247 
L 1259 0 
L 628 0 
L 628 4666 
z
" transform="scale(0.015625)"/>
      <path id="DejaVuSans-55" d="M 556 4666 
L 1191 4666 
L 1191 1831 
Q 1191 1081 1462 751 
Q 1734 422 2344 422 
Q 2950 422 3222 751 
Q 3494 1081 3494 1831 
L 3494 4666 
L 4128 4666 
L 4128 1753 
Q 4128 841 3676 375 
Q 3225 -91 2344 -91 
Q 1459 -91 1007 375 
Q 556 841 556 1753 
L 556 4666 
z
" transform="scale(0.015625)"/>
      <path id="DejaVuSans-53" d="M 3425 4513 
L 3425 3897 
Q 3066 4069 2747 4153 
Q 2428 4238 2131 4238 
Q 1616 4238 1336 4038 
Q 1056 3838 1056 3469 
Q 1056 3159 1242 3001 
Q 1428 2844 1947 2747 
L 2328 2669 
Q 3034 2534 3370 2195 
Q 3706 1856 3706 1288 
Q 3706 609 3251 259 
Q 2797 -91 1919 -91 
Q 1588 -91 1214 -16 
Q 841 59 441 206 
L 441 856 
Q 825 641 1194 531 
Q 1563 422 1919 422 
Q 2459 422 2753 634 
Q 3047 847 3047 1241 
Q 3047 1584 2836 1778 
Q 2625 1972 2144 2069 
L 1759 2144 
Q 1053 2284 737 2584 
Q 422 2884 422 3419 
Q 422 4038 858 4394 
Q 1294 4750 2059 4750 
Q 2388 4750 2728 4690 
Q 3069 4631 3425 4513 
z
" transform="scale(0.015625)"/>
      <path id="DejaVuSans-20" transform="scale(0.015625)"/>
      <path id="DejaVuSans-2d" d="M 313 2009 
L 1997 2009 
L 1997 1497 
L 313 1497 
L 313 2009 
z
" transform="scale(0.015625)"/>
      <path id="DejaVuSans-75" d="M 544 1381 
L 544 3500 
L 1119 3500 
L 1119 1403 
Q 1119 906 1312 657 
Q 1506 409 1894 409 
Q 2359 409 2629 706 
Q 2900 1003 2900 1516 
L 2900 3500 
L 3475 3500 
L 3475 0 
L 2900 0 
L 2900 538 
Q 2691 219 2414 64 
Q 2138 -91 1772 -91 
Q 1169 -91 856 284 
Q 544 659 544 1381 
z
M 1991 3584 
L 1991 3584 
z
" transform="scale(0.015625)"/>
      <path id="DejaVuSans-72" d="M 2631 2963 
Q 2534 3019 2420 3045 
Q 2306 3072 2169 3072 
Q 1681 3072 1420 2755 
Q 1159 2438 1159 1844 
L 1159 0 
L 581 0 
L 581 3500 
L 1159 3500 
L 1159 2956 
Q 1341 3275 1631 3429 
Q 1922 3584 2338 3584 
Q 2397 3584 2469 3576 
Q 2541 3569 2628 3553 
L 2631 2963 
z
" transform="scale(0.015625)"/>
      <path id="DejaVuSans-6e" d="M 3513 2113 
L 3513 0 
L 2938 0 
L 2938 2094 
Q 2938 2591 2744 2837 
Q 2550 3084 2163 3084 
Q 1697 3084 1428 2787 
Q 1159 2491 1159 1978 
L 1159 0 
L 581 0 
L 581 3500 
L 1159 3500 
L 1159 2956 
Q 1366 3272 1645 3428 
Q 1925 3584 2291 3584 
Q 2894 3584 3203 3211 
Q 3513 2838 3513 2113 
z
" transform="scale(0.015625)"/>
      <path id="DejaVuSans-6f" d="M 1959 3097 
Q 1497 3097 1228 2736 
Q 959 2375 959 1747 
Q 959 1119 1226 758 
Q 1494 397 1959 397 
Q 2419 397 2687 759 
Q 2956 1122 2956 1747 
Q 2956 2369 2687 2733 
Q 2419 3097 1959 3097 
z
M 1959 3584 
Q 2709 3584 3137 3096 
Q 3566 2609 3566 1747 
Q 3566 888 3137 398 
Q 2709 -91 1959 -91 
Q 1206 -91 779 398 
Q 353 888 353 1747 
Q 353 2609 779 3096 
Q 1206 3584 1959 3584 
z
" transform="scale(0.015625)"/>
      <path id="DejaVuSans-76" d="M 191 3500 
L 800 3500 
L 1894 563 
L 2988 3500 
L 3597 3500 
L 2284 0 
L 1503 0 
L 191 3500 
z
" transform="scale(0.015625)"/>
      <path id="DejaVuSans-65" d="M 3597 1894 
L 3597 1613 
L 953 1613 
Q 991 1019 1311 708 
Q 1631 397 2203 397 
Q 2534 397 2845 478 
Q 3156 559 3463 722 
L 3463 178 
Q 3153 47 2828 -22 
Q 2503 -91 2169 -91 
Q 1331 -91 842 396 
Q 353 884 353 1716 
Q 353 2575 817 3079 
Q 1281 3584 2069 3584 
Q 2775 3584 3186 3129 
Q 3597 2675 3597 1894 
z
M 3022 2063 
Q 3016 2534 2758 2815 
Q 2500 3097 2075 3097 
Q 1594 3097 1305 2825 
Q 1016 2553 972 2059 
L 3022 2063 
z
" transform="scale(0.015625)"/>
     </defs>
     <use xlink:href="#DejaVuSans-32"/>
     <use xlink:href="#DejaVuSans-35" x="63.623047"/>
     <use xlink:href="#DejaVuSans-5f" x="127.246094"/>
     <use xlink:href="#DejaVuSans-4c" x="177.246094"/>
     <use xlink:href="#DejaVuSans-54" x="219.208984"/>
     <use xlink:href="#DejaVuSans-4f" x="280.292969"/>
     <use xlink:href="#DejaVuSans-54" x="359.003906"/>
     <use xlink:href="#DejaVuSans-4d" x="420.087891"/>
     <use xlink:href="#DejaVuSans-4b" x="506.367188"/>
     <use xlink:href="#DejaVuSans-55" x="569.318359"/>
     <use xlink:href="#DejaVuSans-53" x="642.511719"/>
     <use xlink:href="#DejaVuSans-20" x="705.988281"/>
     <use xlink:href="#DejaVuSans-2d" x="737.775391"/>
     <use xlink:href="#DejaVuSans-20" x="773.859375"/>
     <use xlink:href="#DejaVuSans-54" x="805.646484"/>
     <use xlink:href="#DejaVuSans-75" x="851.605469"/>
     <use xlink:href="#DejaVuSans-72" x="914.984375"/>
     <use xlink:href="#DejaVuSans-6e" x="954.347656"/>
     <use xlink:href="#DejaVuSans-6f" x="1017.726562"/>
     <use xlink:href="#DejaVuSans-76" x="1078.908203"/>
     <use xlink:href="#DejaVuSans-65" x="1138.087891"/>
     <use xlink:href="#DejaVuSans-72" x="1199.611328"/>
    </g>
   </g>
   <g id="legend_1">
    <g id="line2d_22">
     <path d="M 795.090625 29.785937 
L 805.090625 29.785937 
L 815.090625 29.785937 
" style="fill: none; stroke: #e69f00; stroke-width: 2; stroke-linecap: square"/>
    </g>
    <g id="text_15">
     <!-- 1/N -->
     <g transform="translate(823.090625 33.285937) scale(0.1 -0.1)">
      <defs>
       <path id="DejaVuSans-2f" d="M 1625 4666 
L 2156 4666 
L 531 -594 
L 0 -594 
L 1625 4666 
z
" transform="scale(0.015625)"/>
       <path id="DejaVuSans-4e" d="M 628 4666 
L 1478 4666 
L 3547 763 
L 3547 4666 
L 4159 4666 
L 4159 0 
L 3309 0 
L 1241 3903 
L 1241 0 
L 628 0 
L 628 4666 
z
" transform="scale(0.015625)"/>
      </defs>
      <use xlink:href="#DejaVuSans-31"/>
      <use xlink:href="#DejaVuSans-2f" x="63.623047"/>
      <use xlink:href="#DejaVuSans-4e" x="97.314453"/>
     </g>
    </g>
    <g id="line2d_23">
     <path d="M 795.090625 44.464062 
L 805.090625 44.464062 
L 815.090625 44.464062 
" style="fill: none; stroke-dasharray: 7.4,3.2; stroke-dashoffset: 0; stroke: #56b4e9; stroke-width: 2"/>
    </g>
    <g id="text_16">
     <!-- GMVP -->
     <g transform="translate(823.090625 47.964062) scale(0.1 -0.1)">
      <defs>
       <path id="DejaVuSans-47" d="M 3809 666 
L 3809 1919 
L 2778 1919 
L 2778 2438 
L 4434 2438 
L 4434 434 
Q 4069 175 3628 42 
Q 3188 -91 2688 -91 
Q 1594 -91 976 548 
Q 359 1188 359 2328 
Q 359 3472 976 4111 
Q 1594 4750 2688 4750 
Q 3144 4750 3555 4637 
Q 3966 4525 4313 4306 
L 4313 3634 
Q 3963 3931 3569 4081 
Q 3175 4231 2741 4231 
Q 1884 4231 1454 3753 
Q 1025 3275 1025 2328 
Q 1025 1384 1454 906 
Q 1884 428 2741 428 
Q 3075 428 3337 486 
Q 3600 544 3809 666 
z
" transform="scale(0.015625)"/>
       <path id="DejaVuSans-56" d="M 1831 0 
L 50 4666 
L 709 4666 
L 2188 738 
L 3669 4666 
L 4325 4666 
L 2547 0 
L 1831 0 
z
" transform="scale(0.015625)"/>
       <path id="DejaVuSans-50" d="M 1259 4147 
L 1259 2394 
L 2053 2394 
Q 2494 2394 2734 2622 
Q 2975 2850 2975 3272 
Q 2975 3691 2734 3919 
Q 2494 4147 2053 4147 
L 1259 4147 
z
M 628 4666 
L 2053 4666 
Q 2838 4666 3239 4311 
Q 3641 3956 3641 3272 
Q 3641 2581 3239 2228 
Q 2838 1875 2053 1875 
L 1259 1875 
L 1259 0 
L 628 0 
L 628 4666 
z
" transform="scale(0.015625)"/>
      </defs>
      <use xlink:href="#DejaVuSans-47"/>
      <use xlink:href="#DejaVuSans-4d" x="77.490234"/>
      <use xlink:href="#DejaVuSans-56" x="163.769531"/>
      <use xlink:href="#DejaVuSans-50" x="232.177734"/>
     </g>
    </g>
   </g>
  </g>
 </g>
 <defs>
  <clipPath id="pb337f7bdac">
   <rect x="24.3375" y="16.6875" width="837" height="221.76"/>
  </clipPath>
 </defs>
</svg>
