<?xml version="1.0" encoding="utf-8" standalone="no"?>
<!DOCTYPE svg PUBLIC "-//W3C//DTD SVG 1.1//EN"
  "http://www.w3.org/Graphics/SVG/1.1/DTD/svg11.dtd">
<svg xmlns:xlink="http://www.w3.org/1999/xlink" width="867.7pt" height="253.629875pt" viewBox="0 0 867.7 253.629875" xmlns="http://www.w3.org/2000/svg" version="1.1">
 <metadata>
  <rdf:RDF xmlns:dc="http://purl.org/dc/elements/1.1/" xmlns:cc="http://creativecommons.org/ns#" xmlns:rdf="http://www.w3.org/1999/02/22-rdf-syntax-ns#">
   <cc:Work>
    <dc:type rdf:resource="http://purl.org/dc/dcmitype/StillImage"/>
    <dc:date>2025-08-06T21:49:54.832670</dc:date>
    <dc:format>image/svg+xml</dc:format>
    <dc:creator>
     <cc:Agent>
      <dc:title>Matplotlib v3.9.2, https://matplotlib.org/</dc:title>
     </cc:Agent>
    </dc:creator>
   </cc:Work>
  </rdf:RDF>
 </metadata>
 <defs>
  <style type="text/css">*{stroke-linejoin: round; stroke-linecap: butt}</style>
 </defs>
 <g id="figure_1">
  <g id="patch_1">
   <path d="M 0 253.629875 
L 867.7 253.629875 
L 867.7 0 
L 0 0 
z
" style="fill: #ffffff"/>
  </g>
  <g id="axes_1">
   <g id="patch_2">
    <path d="M 30.7 238.70175 
L 867.7 238.70175 
L 867.7 16.94175 
L 30.7 16.94175 
z
" style="fill: #ffffff"/>
   </g>
   <g id="matplotlib.axis_1">
    <g id="xtick_1">
     <g id="line2d_1">
      <defs>
       <path id="m9df0dffd7b" d="M 0 1.75 
L 0 -1.75 
" style="stroke: #000000; stroke-width: 0.8"/>
      </defs>
      <g>
       <use xlink:href="#m9df0dffd7b" x="86.177701" y="238.70175" style="stroke: #000000; stroke-width: 0.8"/>
      </g>
     </g>
     <g id="text_1">
      <!-- 1992 -->
      <g transform="translate(73.452701 251.550188) scale(0.1 -0.1)">
       <defs>
        <path id="DejaVuSans-31" d="M 794 531 
L 1825 531 
L 1825 4091 
L 703 3866 
L 703 4441 
L 1819 4666 
L 2450 4666 
L 2450 531 
L 3481 531 
L 3481 0 
L 794 0 
L 794 531 
z
" transform="scale(0.015625)"/>
        <path id="DejaVuSans-39" d="M 703 97 
L 703 672 
Q 941 559 1184 500 
Q 1428 441 1663 441 
Q 2288 441 2617 861 
Q 2947 1281 2994 2138 
Q 2813 1869 2534 1725 
Q 2256 1581 1919 1581 
Q 1219 1581 811 2004 
Q 403 2428 403 3163 
Q 403 3881 828 4315 
Q 1253 4750 1959 4750 
Q 2769 4750 3195 4129 
Q 3622 3509 3622 2328 
Q 3622 1225 3098 567 
Q 2575 -91 1691 -91 
Q 1453 -91 1209 -44 
Q 966 3 703 97 
z
M 1959 2075 
Q 2384 2075 2632 2365 
Q 2881 2656 2881 3163 
Q 2881 3666 2632 3958 
Q 2384 4250 1959 4250 
Q 1534 4250 1286 3958 
Q 1038 3666 1038 3163 
Q 1038 2656 1286 2365 
Q 1534 2075 1959 2075 
z
" transform="scale(0.015625)"/>
        <path id="DejaVuSans-32" d="M 1228 531 
L 3431 531 
L 3431 0 
L 469 0 
L 469 531 
Q 828 903 1448 1529 
Q 2069 2156 2228 2338 
Q 2531 2678 2651 2914 
Q 2772 3150 2772 3378 
Q 2772 3750 2511 3984 
Q 2250 4219 1831 4219 
Q 1534 4219 1204 4116 
Q 875 4013 500 3803 
L 500 4441 
Q 881 4594 1212 4672 
Q 1544 4750 1819 4750 
Q 2544 4750 2975 4387 
Q 3406 4025 3406 3419 
Q 3406 3131 3298 2873 
Q 3191 2616 2906 2266 
Q 2828 2175 2409 1742 
Q 1991 1309 1228 531 
z
" transform="scale(0.015625)"/>
       </defs>
       <use xlink:href="#DejaVuSans-31"/>
       <use xlink:href="#DejaVuSans-39" x="63.623047"/>
       <use xlink:href="#DejaVuSans-39" x="127.246094"/>
       <use xlink:href="#DejaVuSans-32" x="190.869141"/>
      </g>
     </g>
    </g>
    <g id="xtick_2">
     <g id="line2d_2">
      <g>
       <use xlink:href="#m9df0dffd7b" x="201.967588" y="238.70175" style="stroke: #000000; stroke-width: 0.8"/>
      </g>
     </g>
     <g id="text_2">
      <!-- 1996 -->
      <g transform="translate(189.242588 251.550188) scale(0.1 -0.1)">
       <defs>
        <path id="DejaVuSans-36" d="M 2113 2584 
Q 1688 2584 1439 2293 
Q 1191 2003 1191 1497 
Q 1191 994 1439 701 
Q 1688 409 2113 409 
Q 2538 409 2786 701 
Q 3034 994 3034 1497 
Q 3034 2003 2786 2293 
Q 2538 2584 2113 2584 
z
M 3366 4563 
L 3366 3988 
Q 3128 4100 2886 4159 
Q 2644 4219 2406 4219 
Q 1781 4219 1451 3797 
Q 1122 3375 1075 2522 
Q 1259 2794 1537 2939 
Q 1816 3084 2150 3084 
Q 2853 3084 3261 2657 
Q 3669 2231 3669 1497 
Q 3669 778 3244 343 
Q 2819 -91 2113 -91 
Q 1303 -91 875 529 
Q 447 1150 447 2328 
Q 447 3434 972 4092 
Q 1497 4750 2381 4750 
Q 2619 4750 2861 4703 
Q 3103 4656 3366 4563 
z
" transform="scale(0.015625)"/>
       </defs>
       <use xlink:href="#DejaVuSans-31"/>
       <use xlink:href="#DejaVuSans-39" x="63.623047"/>
       <use xlink:href="#DejaVuSans-39" x="127.246094"/>
       <use xlink:href="#DejaVuSans-36" x="190.869141"/>
      </g>
     </g>
    </g>
    <g id="xtick_3">
     <g id="line2d_3">
      <g>
       <use xlink:href="#m9df0dffd7b" x="317.757476" y="238.70175" style="stroke: #000000; stroke-width: 0.8"/>
      </g>
     </g>
     <g id="text_3">
      <!-- 2000 -->
      <g transform="translate(305.032476 251.550188) scale(0.1 -0.1)">
       <defs>
        <path id="DejaVuSans-30" d="M 2034 4250 
Q 1547 4250 1301 3770 
Q 1056 3291 1056 2328 
Q 1056 1369 1301 889 
Q 1547 409 2034 409 
Q 2525 409 2770 889 
Q 3016 1369 3016 2328 
Q 3016 3291 2770 3770 
Q 2525 4250 2034 4250 
z
M 2034 4750 
Q 2819 4750 3233 4129 
Q 3647 3509 3647 2328 
Q 3647 1150 3233 529 
Q 2819 -91 2034 -91 
Q 1250 -91 836 529 
Q 422 1150 422 2328 
Q 422 3509 836 4129 
Q 1250 4750 2034 4750 
z
" transform="scale(0.015625)"/>
       </defs>
       <use xlink:href="#DejaVuSans-32"/>
       <use xlink:href="#DejaVuSans-30" x="63.623047"/>
       <use xlink:href="#DejaVuSans-30" x="127.246094"/>
       <use xlink:href="#DejaVuSans-30" x="190.869141"/>
      </g>
     </g>
    </g>
    <g id="xtick_4">
     <g id="line2d_4">
      <g>
       <use xlink:href="#m9df0dffd7b" x="433.547363" y="238.70175" style="stroke: #000000; stroke-width: 0.8"/>
      </g>
     </g>
     <g id="text_4">
      <!-- 2004 -->
      <g transform="translate(420.822363 251.550188) scale(0.1 -0.1)">
       <defs>
        <path id="DejaVuSans-34" d="M 2419 4116 
L 825 1625 
L 2419 1625 
L 2419 4116 
z
M 2253 4666 
L 3047 4666 
L 3047 1625 
L 3713 1625 
L 3713 1100 
L 3047 1100 
L 3047 0 
L 2419 0 
L 2419 1100 
L 313 1100 
L 313 1709 
L 2253 4666 
z
" transform="scale(0.015625)"/>
       </defs>
       <use xlink:href="#DejaVuSans-32"/>
       <use xlink:href="#DejaVuSans-30" x="63.623047"/>
       <use xlink:href="#DejaVuSans-30" x="127.246094"/>
       <use xlink:href="#DejaVuSans-34" x="190.869141"/>
      </g>
     </g>
    </g>
    <g id="xtick_5">
     <g id="line2d_5">
      <g>
       <use xlink:href="#m9df0dffd7b" x="549.33725" y="238.70175" style="stroke: #000000; stroke-width: 0.8"/>
      </g>
     </g>
     <g id="text_5">
      <!-- 2008 -->
      <g transform="translate(536.61225 251.550188) scale(0.1 -0.1)">
       <defs>
        <path id="DejaVuSans-38" d="M 2034 2216 
Q 1584 2216 1326 1975 
Q 1069 1734 1069 1313 
Q 1069 891 1326 650 
Q 1584 409 2034 409 
Q 2484 409 2743 651 
Q 3003 894 3003 1313 
Q 3003 1734 2745 1975 
Q 2488 2216 2034 2216 
z
M 1403 2484 
Q 997 2584 770 2862 
Q 544 3141 544 3541 
Q 544 4100 942 4425 
Q 1341 4750 2034 4750 
Q 2731 4750 3128 4425 
Q 3525 4100 3525 3541 
Q 3525 3141 3298 2862 
Q 3072 2584 2669 2484 
Q 3125 2378 3379 2068 
Q 3634 1759 3634 1313 
Q 3634 634 3220 271 
Q 2806 -91 2034 -91 
Q 1263 -91 848 271 
Q 434 634 434 1313 
Q 434 1759 690 2068 
Q 947 2378 1403 2484 
z
M 1172 3481 
Q 1172 3119 1398 2916 
Q 1625 2713 2034 2713 
Q 2441 2713 2670 2916 
Q 2900 3119 2900 3481 
Q 2900 3844 2670 4047 
Q 2441 4250 2034 4250 
Q 1625 4250 1398 4047 
Q 1172 3844 1172 3481 
z
" transform="scale(0.015625)"/>
       </defs>
       <use xlink:href="#DejaVuSans-32"/>
       <use xlink:href="#DejaVuSans-30" x="63.623047"/>
       <use xlink:href="#DejaVuSans-30" x="127.246094"/>
       <use xlink:href="#DejaVuSans-38" x="190.869141"/>
      </g>
     </g>
    </g>
    <g id="xtick_6">
     <g id="line2d_6">
      <g>
       <use xlink:href="#m9df0dffd7b" x="665.127138" y="238.70175" style="stroke: #000000; stroke-width: 0.8"/>
      </g>
     </g>
     <g id="text_6">
      <!-- 2012 -->
      <g transform="translate(652.402138 251.550188) scale(0.1 -0.1)">
       <use xlink:href="#DejaVuSans-32"/>
       <use xlink:href="#DejaVuSans-30" x="63.623047"/>
       <use xlink:href="#DejaVuSans-31" x="127.246094"/>
       <use xlink:href="#DejaVuSans-32" x="190.869141"/>
      </g>
     </g>
    </g>
    <g id="xtick_7">
     <g id="line2d_7">
      <g>
       <use xlink:href="#m9df0dffd7b" x="780.917025" y="238.70175" style="stroke: #000000; stroke-width: 0.8"/>
      </g>
     </g>
     <g id="text_7">
      <!-- 2016 -->
      <g transform="translate(768.192025 251.550188) scale(0.1 -0.1)">
       <use xlink:href="#DejaVuSans-32"/>
       <use xlink:href="#DejaVuSans-30" x="63.623047"/>
       <use xlink:href="#DejaVuSans-31" x="127.246094"/>
       <use xlink:href="#DejaVuSans-36" x="190.869141"/>
      </g>
     </g>
    </g>
   </g>
   <g id="matplotlib.axis_2">
    <g id="ytick_1">
     <g id="line2d_8">
      <path d="M 30.7 223.797446 
L 867.7 223.797446 
" clip-path="url(#p12b80e4a11)" style="fill: none; stroke-dasharray: 1.85,0.8; stroke-dashoffset: 0; stroke: #b2b2b2; stroke-width: 0.5"/>
     </g>
     <g id="line2d_9">
      <defs>
       <path id="m4fe7649277" d="M 1.75 0 
L -1.75 -0 
" style="stroke: #000000; stroke-width: 0.8"/>
      </defs>
      <g>
       <use xlink:href="#m4fe7649277" x="30.7" y="223.797446" style="stroke: #000000; stroke-width: 0.8"/>
      </g>
     </g>
     <g id="text_8">
      <!-- 200 -->
      <g transform="translate(6.3625 227.596664) scale(0.1 -0.1)">
       <use xlink:href="#DejaVuSans-32"/>
       <use xlink:href="#DejaVuSans-30" x="63.623047"/>
       <use xlink:href="#DejaVuSans-30" x="127.246094"/>
      </g>
     </g>
    </g>
    <g id="ytick_2">
     <g id="line2d_10">
      <path d="M 30.7 197.266961 
L 867.7 197.266961 
" clip-path="url(#p12b80e4a11)" style="fill: none; stroke-dasharray: 1.85,0.8; stroke-dashoffset: 0; stroke: #b2b2b2; stroke-width: 0.5"/>
     </g>
     <g id="line2d_11">
      <g>
       <use xlink:href="#m4fe7649277" x="30.7" y="197.266961" style="stroke: #000000; stroke-width: 0.8"/>
      </g>
     </g>
     <g id="text_9">
      <!-- 400 -->
      <g transform="translate(6.3625 201.06618) scale(0.1 -0.1)">
       <use xlink:href="#DejaVuSans-34"/>
       <use xlink:href="#DejaVuSans-30" x="63.623047"/>
       <use xlink:href="#DejaVuSans-30" x="127.246094"/>
      </g>
     </g>
    </g>
    <g id="ytick_3">
     <g id="line2d_12">
      <path d="M 30.7 170.736477 
L 867.7 170.736477 
" clip-path="url(#p12b80e4a11)" style="fill: none; stroke-dasharray: 1.85,0.8; stroke-dashoffset: 0; stroke: #b2b2b2; stroke-width: 0.5"/>
     </g>
     <g id="line2d_13">
      <g>
       <use xlink:href="#m4fe7649277" x="30.7" y="170.736477" style="stroke: #000000; stroke-width: 0.8"/>
      </g>
     </g>
     <g id="text_10">
      <!-- 600 -->
      <g transform="translate(6.3625 174.535696) scale(0.1 -0.1)">
       <use xlink:href="#DejaVuSans-36"/>
       <use xlink:href="#DejaVuSans-30" x="63.623047"/>
       <use xlink:href="#DejaVuSans-30" x="127.246094"/>
      </g>
     </g>
    </g>
    <g id="ytick_4">
     <g id="line2d_14">
      <path d="M 30.7 144.205993 
L 867.7 144.205993 
" clip-path="url(#p12b80e4a11)" style="fill: none; stroke-dasharray: 1.85,0.8; stroke-dashoffset: 0; stroke: #b2b2b2; stroke-width: 0.5"/>
     </g>
     <g id="line2d_15">
      <g>
       <use xlink:href="#m4fe7649277" x="30.7" y="144.205993" style="stroke: #000000; stroke-width: 0.8"/>
      </g>
     </g>
     <g id="text_11">
      <!-- 800 -->
      <g transform="translate(6.3625 148.005212) scale(0.1 -0.1)">
       <use xlink:href="#DejaVuSans-38"/>
       <use xlink:href="#DejaVuSans-30" x="63.623047"/>
       <use xlink:href="#DejaVuSans-30" x="127.246094"/>
      </g>
     </g>
    </g>
    <g id="ytick_5">
     <g id="line2d_16">
      <path d="M 30.7 117.675509 
L 867.7 117.675509 
" clip-path="url(#p12b80e4a11)" style="fill: none; stroke-dasharray: 1.85,0.8; stroke-dashoffset: 0; stroke: #b2b2b2; stroke-width: 0.5"/>
     </g>
     <g id="line2d_17">
      <g>
       <use xlink:href="#m4fe7649277" x="30.7" y="117.675509" style="stroke: #000000; stroke-width: 0.8"/>
      </g>
     </g>
     <g id="text_12">
      <!-- 1000 -->
      <g transform="translate(0 121.474728) scale(0.1 -0.1)">
       <use xlink:href="#DejaVuSans-31"/>
       <use xlink:href="#DejaVuSans-30" x="63.623047"/>
       <use xlink:href="#DejaVuSans-30" x="127.246094"/>
       <use xlink:href="#DejaVuSans-30" x="190.869141"/>
      </g>
     </g>
    </g>
    <g id="ytick_6">
     <g id="line2d_18">
      <path d="M 30.7 91.145025 
L 867.7 91.145025 
" clip-path="url(#p12b80e4a11)" style="fill: none; stroke-dasharray: 1.85,0.8; stroke-dashoffset: 0; stroke: #b2b2b2; stroke-width: 0.5"/>
     </g>
     <g id="line2d_19">
      <g>
       <use xlink:href="#m4fe7649277" x="30.7" y="91.145025" style="stroke: #000000; stroke-width: 0.8"/>
      </g>
     </g>
     <g id="text_13">
      <!-- 1200 -->
      <g transform="translate(0 94.944244) scale(0.1 -0.1)">
       <use xlink:href="#DejaVuSans-31"/>
       <use xlink:href="#DejaVuSans-32" x="63.623047"/>
       <use xlink:href="#DejaVuSans-30" x="127.246094"/>
       <use xlink:href="#DejaVuSans-30" x="190.869141"/>
      </g>
     </g>
    </g>
    <g id="ytick_7">
     <g id="line2d_20">
      <path d="M 30.7 64.614541 
L 867.7 64.614541 
" clip-path="url(#p12b80e4a11)" style="fill: none; stroke-dasharray: 1.85,0.8; stroke-dashoffset: 0; stroke: #b2b2b2; stroke-width: 0.5"/>
     </g>
     <g id="line2d_21">
      <g>
       <use xlink:href="#m4fe7649277" x="30.7" y="64.614541" style="stroke: #000000; stroke-width: 0.8"/>
      </g>
     </g>
     <g id="text_14">
      <!-- 1400 -->
      <g transform="translate(0 68.413759) scale(0.1 -0.1)">
       <use xlink:href="#DejaVuSans-31"/>
       <use xlink:href="#DejaVuSans-34" x="63.623047"/>
       <use xlink:href="#DejaVuSans-30" x="127.246094"/>
       <use xlink:href="#DejaVuSans-30" x="190.869141"/>
      </g>
     </g>
    </g>
    <g id="ytick_8">
     <g id="line2d_22">
      <path d="M 30.7 38.084057 
L 867.7 38.084057 
" clip-path="url(#p12b80e4a11)" style="fill: none; stroke-dasharray: 1.85,0.8; stroke-dashoffset: 0; stroke: #b2b2b2; stroke-width: 0.5"/>
     </g>
     <g id="line2d_23">
      <g>
       <use xlink:href="#m4fe7649277" x="30.7" y="38.084057" style="stroke: #000000; stroke-width: 0.8"/>
      </g>
     </g>
     <g id="text_15">
      <!-- 1600 -->
      <g transform="translate(0 41.883275) scale(0.1 -0.1)">
       <use xlink:href="#DejaVuSans-31"/>
       <use xlink:href="#DejaVuSans-36" x="63.623047"/>
       <use xlink:href="#DejaVuSans-30" x="127.246094"/>
       <use xlink:href="#DejaVuSans-30" x="190.869141"/>
      </g>
     </g>
    </g>
   </g>
   <g id="line2d_24">
    <path d="M 30.7 237.062688 
L 32.919108 236.965094 
L 35.375978 236.530967 
L 37.753593 236.495475 
L 40.210463 234.862984 
L 42.588079 234.460194 
L 45.044948 234.244577 
L 47.501818 235.725226 
L 49.879434 236.496353 
L 52.336303 236.46074 
L 54.713919 235.537946 
L 57.170789 235.149362 
L 59.627658 234.497927 
L 61.846766 233.195876 
L 64.303636 232.574973 
L 66.681252 232.800338 
L 69.138121 232.099728 
L 71.515737 233.008943 
L 73.972607 232.08974 
L 76.429476 231.622557 
L 78.807092 231.92965 
L 81.263962 231.720336 
L 83.641578 232.302975 
L 86.098447 229.901712 
L 88.555317 230.440397 
L 90.853679 230.18545 
L 93.310548 230.421074 
L 95.688164 229.828931 
L 98.145034 229.414608 
L 100.522649 229.949123 
L 102.979519 229.090067 
L 105.436389 229.515361 
L 110.270874 229.402347 
L 112.64849 228.696792 
L 115.105359 228.645921 
L 117.562229 228.807401 
L 119.781337 228.757073 
L 122.238207 228.358336 
L 124.615822 228.953335 
L 127.072692 227.991847 
L 129.450308 228.344247 
L 131.907177 228.87402 
L 134.364047 227.996523 
L 136.741663 228.287831 
L 139.198532 227.407891 
L 141.576148 227.025253 
L 144.033018 226.779238 
L 146.489887 226.176861 
L 148.708995 226.805324 
L 151.165865 227.864604 
L 153.543481 227.573933 
L 156.00035 227.126016 
L 158.377966 227.806625 
L 160.834836 226.97932 
L 163.291705 225.974005 
L 165.669321 226.222022 
L 168.126191 225.158242 
L 170.503806 225.404476 
L 172.960676 224.946495 
L 175.417546 223.809058 
L 177.636654 223.036792 
L 180.093523 222.313864 
L 184.928009 219.693072 
L 187.305624 218.881341 
L 189.762494 217.848627 
L 192.219364 218.170619 
L 194.596979 216.194543 
L 197.053849 215.463231 
L 199.431465 214.601908 
L 201.888334 214.079592 
L 204.345204 212.775661 
L 206.643566 211.765609 
L 209.100436 212.159877 
L 211.478051 211.662869 
L 213.934921 210.06949 
L 216.312537 209.884836 
L 218.769406 211.291913 
L 221.226276 210.698458 
L 223.603892 208.385523 
L 226.060761 206.895349 
L 228.438377 203.070648 
L 230.895247 204.052487 
L 233.352116 199.713786 
L 235.571224 199.527083 
L 238.028094 201.554805 
L 240.40571 197.704598 
L 242.862579 195.103645 
L 247.697065 188.175891 
L 250.153934 192.906422 
L 252.53155 189.199628 
L 254.98842 190.427863 
L 257.366035 186.992475 
L 259.822905 186.114022 
L 262.279775 184.440894 
L 264.498883 179.77873 
L 266.955752 176.283541 
L 269.333368 174.516262 
L 271.790238 176.731278 
L 274.167853 171.882948 
L 276.624723 171.203086 
L 279.081593 182.09073 
L 281.459208 178.060922 
L 283.916078 172.037256 
L 286.293694 165.829259 
L 288.750563 162.112269 
L 291.207433 159.33554 
L 293.426541 161.297347 
L 295.883411 159.82436 
L 298.261026 157.221429 
L 300.717896 159.752943 
L 303.095512 154.566545 
L 305.552381 158.105278 
L 308.009251 155.839388 
L 310.386867 160.333031 
L 312.843736 153.461125 
L 315.221352 153.162134 
L 317.678222 146.817579 
L 320.135091 150.297647 
L 322.433453 152.772542 
L 324.890323 146.998351 
L 327.267939 147.888055 
L 329.724808 149.904662 
L 332.102424 146.242639 
L 334.559294 150.178393 
L 337.016163 147.936963 
L 339.393779 152.883267 
L 341.850649 152.027763 
L 344.228264 155.205117 
L 346.685134 155.689452 
L 349.142004 155.16066 
L 351.361112 162.481178 
L 353.817981 167.650229 
L 356.195597 162.27903 
L 358.652467 161.29103 
L 361.030082 162.716654 
L 363.486952 161.514867 
L 365.943822 166.894049 
L 368.321437 169.669378 
L 370.778307 168.114643 
L 373.155923 162.809512 
L 375.612792 162.45883 
L 378.069662 165.006706 
L 380.28877 166.086054 
L 382.74564 165.47907 
L 385.123255 170.30008 
L 387.580125 170.290374 
L 389.957741 176.414812 
L 392.41461 181.624132 
L 394.87148 181.10314 
L 397.249096 188.474348 
L 399.705965 181.379079 
L 402.083581 178.468389 
L 404.540451 182.859198 
L 406.99732 185.018218 
L 409.216428 186.130355 
L 411.673298 185.660459 
L 414.050914 180.592655 
L 416.507783 178.338656 
L 418.885399 176.906883 
L 421.342269 176.47281 
L 426.176754 176.485862 
L 428.633624 173.584505 
L 431.011239 173.263807 
L 433.468109 169.067749 
L 435.924979 167.429748 
L 438.223341 166.361389 
L 440.68021 168.315081 
L 443.057826 168.449505 
L 445.514696 168.387553 
L 447.892311 167.620136 
L 450.349181 169.765031 
L 452.806051 168.767649 
L 455.183666 170.322869 
L 457.640536 169.836566 
L 460.018152 168.149669 
L 462.475021 165.803457 
L 464.931891 167.389516 
L 467.150999 166.142144 
L 469.607869 168.519925 
L 471.985484 169.275395 
L 474.442354 167.390294 
L 476.81997 168.187829 
L 479.276839 166.41769 
L 481.733709 167.183732 
L 484.111325 166.570373 
L 486.568194 167.288458 
L 488.94581 164.575033 
L 491.40268 165.848453 
L 493.859549 165.703213 
L 496.078657 164.805761 
L 498.535527 164.248867 
L 500.913143 163.447474 
L 503.370012 165.590273 
L 505.747628 165.387007 
L 508.204498 162.26703 
L 510.661367 158.710202 
L 513.038983 156.791455 
L 515.495853 153.924229 
L 517.873468 152.378194 
L 520.330338 150.427241 
L 522.787208 149.519972 
L 525.006316 153.171206 
L 527.463185 151.935242 
L 529.840801 147.043615 
L 532.297671 143.497327 
L 534.675286 145.123443 
L 537.132156 146.459 
L 541.966641 138.594715 
L 544.423511 136.330903 
L 546.801127 139.612584 
L 549.257996 139.254885 
L 551.714866 147.152274 
L 554.013228 151.425732 
L 556.470098 150.250672 
L 558.847713 145.20927 
L 561.304583 145.923381 
L 563.682199 154.917544 
L 568.595938 151.985077 
L 570.973554 154.310697 
L 573.430423 168.841215 
L 575.808039 174.214624 
L 578.264909 174.398617 
L 580.721778 182.540319 
L 582.940886 189.042343 
L 585.397756 183.074199 
L 587.775372 178.222172 
L 590.232241 174.303317 
L 592.609857 172.95907 
L 595.066727 167.599626 
L 597.523596 165.235042 
L 599.901212 162.672328 
L 602.358082 163.976881 
L 604.735697 159.613165 
L 607.192567 159.7005 
L 609.649437 162.338148 
L 611.868545 160.159185 
L 614.325414 155.049882 
L 616.70303 154.956075 
L 619.1599 163.417088 
L 621.537515 166.828994 
L 623.994385 161.486412 
L 626.451255 165.816227 
L 628.82887 159.139907 
L 631.28574 156.859724 
L 633.663356 157.715289 
L 636.120225 150.904253 
L 638.577095 148.373078 
L 640.796203 146.354203 
L 643.253073 146.887152 
L 645.630688 144.095817 
L 648.087558 146.155599 
L 652.922043 149.663724 
L 657.756529 158.081123 
L 660.213398 151.164676 
L 662.591014 151.317607 
L 665.047884 149.299137 
L 667.504753 146.262559 
L 669.803115 142.408193 
L 672.259985 138.563264 
L 674.637601 140.565308 
L 677.09447 146.283337 
L 679.472086 140.941228 
L 681.928956 138.368442 
L 684.385825 137.66532 
L 686.763441 134.849779 
L 689.220311 138.464604 
L 691.597926 139.000497 
L 694.054796 138.097561 
L 696.511666 132.812467 
L 698.730774 130.861012 
L 701.187643 127.447831 
L 706.022129 122.156033 
L 708.399744 124.120372 
L 710.856614 118.680365 
L 713.313484 124.008829 
L 715.691099 122.738892 
L 720.525585 112.188258 
L 722.982454 110.289898 
L 725.439324 116.630513 
L 727.658432 112.52055 
L 730.115302 109.126561 
L 732.492917 107.729961 
L 734.949787 106.884076 
L 737.327403 105.189865 
L 739.784272 105.858964 
L 742.241142 99.973446 
L 744.618758 100.637691 
L 747.075627 99.642359 
L 749.453243 95.986887 
L 751.910113 97.987794 
L 754.366982 104.351477 
L 756.58609 96.8305 
L 759.04296 100.567133 
L 761.420576 95.851167 
L 763.877445 94.889988 
L 766.255061 98.401197 
L 768.711931 93.310567 
L 771.1688 103.975254 
L 773.546416 107.003017 
L 776.003286 94.318261 
L 778.380901 92.129726 
L 780.837771 93.552657 
L 783.294641 99.183224 
L 785.593003 101.136949 
L 788.049872 91.470237 
L 790.427488 91.166737 
L 792.884358 88.229839 
L 795.261973 86.429787 
L 797.718843 82.458634 
L 800.175713 81.94615 
L 802.553328 82.97145 
L 805.010198 86.37548 
L 807.387814 79.999098 
L 809.844683 74.576805 
L 812.301553 73.422729 
L 814.520661 67.07304 
L 816.977531 66.9175 
L 819.355146 65.85376 
L 821.812016 64.956353 
L 824.189632 64.66598 
L 826.646501 61.217519 
L 829.103371 60.41045 
L 831.480987 56.978278 
L 833.937856 51.294472 
L 836.315472 44.679362 
L 838.772342 40.475894 
L 841.229211 27.971667 
L 843.448319 36.394725 
L 845.905189 43.923542 
L 848.282805 41.856818 
L 850.739674 38.330491 
L 853.11729 37.470583 
L 858.031029 19.408304 
L 860.408645 16.94175 
L 862.865515 26.456073 
L 865.24313 19.519887 
L 867.7 38.379427 
L 867.7 38.379427 
" clip-path="url(#p12b80e4a11)" style="fill: none; stroke: #e69f00; stroke-width: 2; stroke-linecap: square"/>
   </g>
   <g id="line2d_25">
    <path d="M 30.7 237.062688 
L 32.919108 236.526827 
L 35.375978 236.5641 
L 37.753593 237.0196 
L 40.210463 235.890669 
L 42.588079 235.374894 
L 45.044948 234.473045 
L 47.501818 234.270726 
L 49.879434 232.525381 
L 52.336303 230.400034 
L 54.713919 229.843964 
L 57.170789 229.078758 
L 59.627658 230.019995 
L 61.846766 228.323627 
L 64.303636 229.061347 
L 66.681252 231.153889 
L 69.138121 230.351338 
L 71.515737 231.374346 
L 73.972607 230.806404 
L 76.429476 230.78257 
L 78.807092 228.838963 
L 81.263962 229.02476 
L 83.641578 228.544818 
L 86.098447 228.481916 
L 88.555317 232.414033 
L 93.310548 234.051993 
L 95.688164 232.716356 
L 98.145034 232.686543 
L 100.522649 232.806081 
L 102.979519 233.134337 
L 105.436389 234.406211 
L 107.814004 235.264189 
L 110.270874 236.012218 
L 112.64849 237.393559 
L 117.562229 237.624392 
L 119.781337 236.983287 
L 122.238207 237.08754 
L 124.615822 237.940488 
L 127.072692 237.596551 
L 131.907177 238.202745 
L 134.364047 237.950074 
L 136.741663 238.093854 
L 144.033018 237.984131 
L 146.489887 237.538299 
L 153.543481 237.766639 
L 156.00035 237.697631 
L 158.377966 238.70175 
L 160.834836 238.283878 
L 163.291705 238.013111 
L 165.669321 238.275005 
L 168.126191 237.896647 
L 170.503806 238.314278 
L 172.960676 237.948969 
L 177.636654 236.886221 
L 180.093523 236.52568 
L 182.471139 235.881169 
L 184.928009 235.689489 
L 187.305624 235.99931 
L 189.762494 235.490622 
L 192.219364 236.163956 
L 194.596979 235.46662 
L 197.053849 235.964848 
L 199.431465 235.420888 
L 204.345204 235.922849 
L 209.100436 234.6283 
L 211.478051 235.458466 
L 213.934921 235.173571 
L 216.312537 234.776556 
L 218.769406 235.416955 
L 221.226276 234.496918 
L 223.603892 233.906712 
L 226.060761 232.338811 
L 228.438377 231.151465 
L 230.895247 230.59674 
L 233.352116 229.130482 
L 235.571224 229.102583 
L 238.028094 229.676836 
L 240.40571 228.071765 
L 242.862579 226.05675 
L 247.697065 224.078026 
L 250.153934 226.334246 
L 252.53155 224.963484 
L 254.98842 225.667034 
L 257.366035 224.069235 
L 259.822905 225.365373 
L 262.279775 225.483129 
L 264.498883 224.183662 
L 266.955752 222.052123 
L 269.333368 220.137104 
L 271.790238 220.923276 
L 274.167853 220.245896 
L 276.624723 219.810943 
L 279.081593 221.418668 
L 281.459208 216.844119 
L 283.916078 215.421018 
L 286.293694 212.554342 
L 288.750563 213.910649 
L 291.207433 215.573728 
L 293.426541 217.322924 
L 295.883411 220.049032 
L 298.261026 216.741913 
L 300.717896 220.447915 
L 303.095512 219.428015 
L 305.552381 220.486989 
L 308.009251 219.401399 
L 312.843736 222.235461 
L 315.221352 221.538633 
L 317.678222 221.906526 
L 320.135091 222.794039 
L 322.433453 227.279954 
L 324.890323 226.522629 
L 327.267939 227.08116 
L 329.724808 227.175116 
L 332.102424 230.098818 
L 334.559294 231.414549 
L 337.016163 231.424379 
L 339.393779 230.26094 
L 341.850649 230.879664 
L 346.685134 230.535784 
L 349.142004 231.209462 
L 351.361112 232.458333 
L 353.817981 233.030484 
L 356.195597 231.324547 
L 358.652467 231.511921 
L 361.030082 232.258835 
L 363.486952 231.473699 
L 365.943822 232.454483 
L 368.321437 232.972685 
L 370.778307 233.143117 
L 373.155923 232.179362 
L 375.612792 231.774172 
L 378.069662 230.784273 
L 380.28877 230.07751 
L 385.123255 230.846563 
L 387.580125 231.693855 
L 392.41461 235.219931 
L 394.87148 235.629331 
L 397.249096 238.114077 
L 402.083581 237.780485 
L 404.540451 238.17298 
L 409.216428 238.54964 
L 411.673298 238.547394 
L 414.050914 238.225298 
L 416.507783 238.200371 
L 418.885399 238.008999 
L 421.342269 238.272019 
L 423.799138 237.669743 
L 426.176754 238.263073 
L 431.011239 237.938669 
L 433.468109 237.189474 
L 438.223341 236.781611 
L 440.68021 237.168356 
L 445.514696 236.370384 
L 447.892311 236.246215 
L 450.349181 236.677295 
L 452.806051 236.786224 
L 455.183666 236.753106 
L 457.640536 236.56708 
L 460.018152 236.026743 
L 462.475021 235.68973 
L 464.931891 235.909285 
L 467.150999 234.406007 
L 471.985484 235.242355 
L 474.442354 235.153314 
L 476.81997 235.481586 
L 479.276839 235.690266 
L 481.733709 235.539852 
L 484.111325 235.537486 
L 486.568194 235.909285 
L 488.94581 235.18066 
L 491.40268 235.435851 
L 493.859549 235.825437 
L 496.078657 235.877246 
L 505.747628 235.225271 
L 508.204498 234.711999 
L 510.661367 234.021244 
L 515.495853 233.378351 
L 517.873468 233.173992 
L 520.330338 233.180789 
L 522.787208 233.348417 
L 525.006316 233.840752 
L 532.297671 233.414971 
L 534.675286 233.428844 
L 537.132156 233.063221 
L 541.966641 231.694054 
L 544.423511 232.097595 
L 546.801127 231.420918 
L 549.257996 231.543588 
L 551.714866 231.863516 
L 554.013228 232.043249 
L 558.847713 231.556364 
L 561.304583 230.398297 
L 563.682199 231.910532 
L 566.139068 230.952779 
L 568.595938 230.726447 
L 570.973554 230.150915 
L 573.430423 232.950798 
L 575.808039 233.386826 
L 578.264909 234.080412 
L 582.940886 237.699518 
L 585.397756 236.957571 
L 587.775372 237.482571 
L 592.609857 238.091142 
L 597.523596 238.07425 
L 599.901212 238.316581 
L 604.735697 237.25027 
L 607.192567 237.235951 
L 609.649437 236.901579 
L 614.325414 236.520153 
L 616.70303 236.861757 
L 619.1599 237.991095 
L 621.537515 238.034928 
L 626.451255 237.232868 
L 628.82887 236.349348 
L 631.28574 236.071499 
L 633.663356 236.255479 
L 636.120225 236.309723 
L 638.577095 235.861007 
L 640.796203 235.977916 
L 643.253073 235.686151 
L 645.630688 235.154522 
L 648.087558 234.830794 
L 650.465174 235.242655 
L 657.756529 235.000849 
L 660.213398 234.617179 
L 662.591014 233.728546 
L 665.047884 233.477231 
L 667.504753 233.69823 
L 669.803115 233.284678 
L 672.259985 233.243335 
L 674.637601 233.333391 
L 677.09447 232.290557 
L 679.472086 232.3558 
L 681.928956 231.333673 
L 684.385825 231.830439 
L 686.763441 231.176008 
L 691.597926 232.338717 
L 694.054796 232.832297 
L 696.511666 232.06869 
L 698.730774 232.01312 
L 701.187643 231.164443 
L 703.565259 230.787722 
L 706.022129 230.630434 
L 708.399744 230.967826 
L 710.856614 230.184816 
L 713.313484 231.044286 
L 715.691099 231.434096 
L 718.147969 230.807194 
L 720.525585 230.400911 
L 722.982454 230.583386 
L 725.439324 231.25467 
L 727.658432 231.332862 
L 730.115302 230.167743 
L 732.492917 229.413996 
L 734.949787 230.160865 
L 737.327403 230.335335 
L 739.784272 229.878248 
L 742.241142 228.854305 
L 744.618758 228.869338 
L 747.075627 229.206094 
L 749.453243 228.416577 
L 754.366982 229.631786 
L 756.58609 229.902157 
L 759.04296 230.714932 
L 761.420576 230.616595 
L 763.877445 230.834042 
L 766.255061 231.638246 
L 768.711931 231.331687 
L 771.1688 232.575149 
L 773.546416 233.396234 
L 776.003286 232.703715 
L 778.380901 233.046044 
L 780.837771 233.246916 
L 783.294641 232.461522 
L 785.593003 232.586785 
L 788.049872 231.785386 
L 790.427488 231.750558 
L 792.884358 231.299452 
L 800.175713 230.480788 
L 802.553328 230.938685 
L 805.010198 232.14187 
L 807.387814 231.079033 
L 809.844683 230.39825 
L 812.301553 230.499664 
L 814.520661 230.230398 
L 819.355146 230.194289 
L 821.812016 229.875204 
L 824.189632 230.156912 
L 826.646501 229.576347 
L 829.103371 229.891275 
L 831.480987 229.149169 
L 833.937856 228.20974 
L 836.315472 227.039564 
L 838.772342 227.461314 
L 841.229211 226.727906 
L 843.448319 228.569678 
L 848.282805 230.553588 
L 850.739674 229.631417 
L 853.11729 230.018151 
L 855.57416 228.869573 
L 858.031029 229.189907 
L 860.408645 229.167217 
L 862.865515 230.175077 
L 865.24313 229.212645 
L 867.7 231.022443 
L 867.7 231.022443 
" clip-path="url(#p12b80e4a11)" style="fill: none; stroke-dasharray: 7.4,3.2; stroke-dashoffset: 0; stroke: #56b4e9; stroke-width: 2"/>
   </g>
   <g id="patch_3">
    <path d="M 30.7 238.70175 
L 30.7 16.94175 
" style="fill: none; stroke: #000000; stroke-width: 0.8; stroke-linejoin: miter; stroke-linecap: square"/>
   </g>
   <g id="patch_4">
    <path d="M 30.7 238.70175 
L 867.7 238.70175 
" style="fill: none; stroke: #000000; stroke-width: 0.8; stroke-linejoin: miter; stroke-linecap: square"/>
   </g>
   <g id="text_16">
    <!-- 25_LTOTMKUS - Performance -->
    <g transform="translate(345.57175 10.94175) scale(0.144 -0.144)">
     <defs>
      <path id="DejaVuSans-35" d="M 691 4666 
L 3169 4666 
L 3169 4134 
L 1269 4134 
L 1269 2991 
Q 1406 3038 1543 3061 
Q 1681 3084 1819 3084 
Q 2600 3084 3056 2656 
Q 3513 2228 3513 1497 
Q 3513 744 3044 326 
Q 2575 -91 1722 -91 
Q 1428 -91 1123 -41 
Q 819 9 494 109 
L 494 744 
Q 775 591 1075 516 
Q 1375 441 1709 441 
Q 2250 441 2565 725 
Q 2881 1009 2881 1497 
Q 2881 1984 2565 2268 
Q 2250 2553 1709 2553 
Q 1456 2553 1204 2497 
Q 953 2441 691 2322 
L 691 4666 
z
" transform="scale(0.015625)"/>
      <path id="DejaVuSans-5f" d="M 3263 -1063 
L 3263 -1509 
L -63 -1509 
L -63 -1063 
L 3263 -1063 
z
" transform="scale(0.015625)"/>
      <path id="DejaVuSans-4c" d="M 628 4666 
L 1259 4666 
L 1259 531 
L 3531 531 
L 3531 0 
L 628 0 
L 628 4666 
z
" transform="scale(0.015625)"/>
      <path id="DejaVuSans-54" d="M -19 4666 
L 3928 4666 
L 3928 4134 
L 2272 4134 
L 2272 0 
L 1638 0 
L 1638 4134 
L -19 4134 
L -19 4666 
z
" transform="scale(0.015625)"/>
      <path id="DejaVuSans-4f" d="M 2522 4238 
Q 1834 4238 1429 3725 
Q 1025 3213 1025 2328 
Q 1025 1447 1429 934 
Q 1834 422 2522 422 
Q 3209 422 3611 934 
Q 4013 1447 4013 2328 
Q 4013 3213 3611 3725 
Q 3209 4238 2522 4238 
z
M 2522 4750 
Q 3503 4750 4090 4092 
Q 4678 3434 4678 2328 
Q 4678 1225 4090 567 
Q 3503 -91 2522 -91 
Q 1538 -91 948 565 
Q 359 1222 359 2328 
Q 359 3434 948 4092 
Q 1538 4750 2522 4750 
z
" transform="scale(0.015625)"/>
      <path id="DejaVuSans-4d" d="M 628 4666 
L 1569 4666 
L 2759 1491 
L 3956 4666 
L 4897 4666 
L 4897 0 
L 4281 0 
L 4281 4097 
L 3078 897 
L 2444 897 
L 1241 4097 
L 1241 0 
L 628 0 
L 628 4666 
z
" transform="scale(0.015625)"/>
      <path id="DejaVuSans-4b" d="M 628 4666 
L 1259 4666 
L 1259 2694 
L 3353 4666 
L 4166 4666 
L 1850 2491 
L 4331 0 
L 3500 0 
L 1259 2247 
L 1259 0 
L 628 0 
L 628 4666 
z
" transform="scale(0.015625)"/>
      <path id="DejaVuSans-55" d="M 556 4666 
L 1191 4666 
L 1191 1831 
Q 1191 1081 1462 751 
Q 1734 422 2344 422 
Q 2950 422 3222 751 
Q 3494 1081 3494 1831 
L 3494 4666 
L 4128 4666 
L 4128 1753 
Q 4128 841 3676 375 
Q 3225 -91 2344 -91 
Q 1459 -91 1007 375 
Q 556 841 556 1753 
L 556 4666 
z
" transform="scale(0.015625)"/>
      <path id="DejaVuSans-53" d="M 3425 4513 
L 3425 3897 
Q 3066 4069 2747 4153 
Q 2428 4238 2131 4238 
Q 1616 4238 1336 4038 
Q 1056 3838 1056 3469 
Q 1056 3159 1242 3001 
Q 1428 2844 1947 2747 
L 2328 2669 
Q 3034 2534 3370 2195 
Q 3706 1856 3706 1288 
Q 3706 609 3251 259 
Q 2797 -91 1919 -91 
Q 1588 -91 1214 -16 
Q 841 59 441 206 
L 441 856 
Q 825 641 1194 531 
Q 1563 422 1919 422 
Q 2459 422 2753 634 
Q 3047 847 3047 1241 
Q 3047 1584 2836 1778 
Q 2625 1972 2144 2069 
L 1759 2144 
Q 1053 2284 737 2584 
Q 422 2884 422 3419 
Q 422 4038 858 4394 
Q 1294 4750 2059 4750 
Q 2388 4750 2728 4690 
Q 3069 4631 3425 4513 
z
" transform="scale(0.015625)"/>
      <path id="DejaVuSans-20" transform="scale(0.015625)"/>
      <path id="DejaVuSans-2d" d="M 313 2009 
L 1997 2009 
L 1997 1497 
L 313 1497 
L 313 2009 
z
" transform="scale(0.015625)"/>
      <path id="DejaVuSans-50" d="M 1259 4147 
L 1259 2394 
L 2053 2394 
Q 2494 2394 2734 2622 
Q 2975 2850 2975 3272 
Q 2975 3691 2734 3919 
Q 2494 4147 2053 4147 
L 1259 4147 
z
M 628 4666 
L 2053 4666 
Q 2838 4666 3239 4311 
Q 3641 3956 3641 3272 
Q 3641 2581 3239 2228 
Q 2838 1875 2053 1875 
L 1259 1875 
L 1259 0 
L 628 0 
L 628 4666 
z
" transform="scale(0.015625)"/>
      <path id="DejaVuSans-65" d="M 3597 1894 
L 3597 1613 
L 953 1613 
Q 991 1019 1311 708 
Q 1631 397 2203 397 
Q 2534 397 2845 478 
Q 3156 559 3463 722 
L 3463 178 
Q 3153 47 2828 -22 
Q 2503 -91 2169 -91 
Q 1331 -91 842 396 
Q 353 884 353 1716 
Q 353 2575 817 3079 
Q 1281 3584 2069 3584 
Q 2775 3584 3186 3129 
Q 3597 2675 3597 1894 
z
M 3022 2063 
Q 3016 2534 2758 2815 
Q 2500 3097 2075 3097 
Q 1594 3097 1305 2825 
Q 1016 2553 972 2059 
L 3022 2063 
z
" transform="scale(0.015625)"/>
      <path id="DejaVuSans-72" d="M 2631 2963 
Q 2534 3019 2420 3045 
Q 2306 3072 2169 3072 
Q 1681 3072 1420 2755 
Q 1159 2438 1159 1844 
L 1159 0 
L 581 0 
L 581 3500 
L 1159 3500 
L 1159 2956 
Q 1341 3275 1631 3429 
Q 1922 3584 2338 3584 
Q 2397 3584 2469 3576 
Q 2541 3569 2628 3553 
L 2631 2963 
z
" transform="scale(0.015625)"/>
      <path id="DejaVuSans-66" d="M 2375 4863 
L 2375 4384 
L 1825 4384 
Q 1516 4384 1395 4259 
Q 1275 4134 1275 3809 
L 1275 3500 
L 2222 3500 
L 2222 3053 
L 1275 3053 
L 1275 0 
L 697 0 
L 697 3053 
L 147 3053 
L 147 3500 
L 697 3500 
L 697 3744 
Q 697 4328 969 4595 
Q 1241 4863 1831 4863 
L 2375 4863 
z
" transform="scale(0.015625)"/>
      <path id="DejaVuSans-6f" d="M 1959 3097 
Q 1497 3097 1228 2736 
Q 959 2375 959 1747 
Q 959 1119 1226 758 
Q 1494 397 1959 397 
Q 2419 397 2687 759 
Q 2956 1122 2956 1747 
Q 2956 2369 2687 2733 
Q 2419 3097 1959 3097 
z
M 1959 3584 
Q 2709 3584 3137 3096 
Q 3566 2609 3566 1747 
Q 3566 888 3137 398 
Q 2709 -91 1959 -91 
Q 1206 -91 779 398 
Q 353 888 353 1747 
Q 353 2609 779 3096 
Q 1206 3584 1959 3584 
z
" transform="scale(0.015625)"/>
      <path id="DejaVuSans-6d" d="M 3328 2828 
Q 3544 3216 3844 3400 
Q 4144 3584 4550 3584 
Q 5097 3584 5394 3201 
Q 5691 2819 5691 2113 
L 5691 0 
L 5113 0 
L 5113 2094 
Q 5113 2597 4934 2840 
Q 4756 3084 4391 3084 
Q 3944 3084 3684 2787 
Q 3425 2491 3425 1978 
L 3425 0 
L 2847 0 
L 2847 2094 
Q 2847 2600 2669 2842 
Q 2491 3084 2119 3084 
Q 1678 3084 1418 2786 
Q 1159 2488 1159 1978 
L 1159 0 
L 581 0 
L 581 3500 
L 1159 3500 
L 1159 2956 
Q 1356 3278 1631 3431 
Q 1906 3584 2284 3584 
Q 2666 3584 2933 3390 
Q 3200 3197 3328 2828 
z
" transform="scale(0.015625)"/>
      <path id="DejaVuSans-61" d="M 2194 1759 
Q 1497 1759 1228 1600 
Q 959 1441 959 1056 
Q 959 750 1161 570 
Q 1363 391 1709 391 
Q 2188 391 2477 730 
Q 2766 1069 2766 1631 
L 2766 1759 
L 2194 1759 
z
M 3341 1997 
L 3341 0 
L 2766 0 
L 2766 531 
Q 2569 213 2275 61 
Q 1981 -91 1556 -91 
Q 1019 -91 701 211 
Q 384 513 384 1019 
Q 384 1609 779 1909 
Q 1175 2209 1959 2209 
L 2766 2209 
L 2766 2266 
Q 2766 2663 2505 2880 
Q 2244 3097 1772 3097 
Q 1472 3097 1187 3025 
Q 903 2953 641 2809 
L 641 3341 
Q 956 3463 1253 3523 
Q 1550 3584 1831 3584 
Q 2591 3584 2966 3190 
Q 3341 2797 3341 1997 
z
" transform="scale(0.015625)"/>
      <path id="DejaVuSans-6e" d="M 3513 2113 
L 3513 0 
L 2938 0 
L 2938 2094 
Q 2938 2591 2744 2837 
Q 2550 3084 2163 3084 
Q 1697 3084 1428 2787 
Q 1159 2491 1159 1978 
L 1159 0 
L 581 0 
L 581 3500 
L 1159 3500 
L 1159 2956 
Q 1366 3272 1645 3428 
Q 1925 3584 2291 3584 
Q 2894 3584 3203 3211 
Q 3513 2838 3513 2113 
z
" transform="scale(0.015625)"/>
      <path id="DejaVuSans-63" d="M 3122 3366 
L 3122 2828 
Q 2878 2963 2633 3030 
Q 2388 3097 2138 3097 
Q 1578 3097 1268 2742 
Q 959 2388 959 1747 
Q 959 1106 1268 751 
Q 1578 397 2138 397 
Q 2388 397 2633 464 
Q 2878 531 3122 666 
L 3122 134 
Q 2881 22 2623 -34 
Q 2366 -91 2075 -91 
Q 1284 -91 818 406 
Q 353 903 353 1747 
Q 353 2603 823 3093 
Q 1294 3584 2113 3584 
Q 2378 3584 2631 3529 
Q 2884 3475 3122 3366 
z
" transform="scale(0.015625)"/>
     </defs>
     <use xlink:href="#DejaVuSans-32"/>
     <use xlink:href="#DejaVuSans-35" x="63.623047"/>
     <use xlink:href="#DejaVuSans-5f" x="127.246094"/>
     <use xlink:href="#DejaVuSans-4c" x="177.246094"/>
     <use xlink:href="#DejaVuSans-54" x="219.208984"/>
     <use xlink:href="#DejaVuSans-4f" x="280.292969"/>
     <use xlink:href="#DejaVuSans-54" x="359.003906"/>
     <use xlink:href="#DejaVuSans-4d" x="420.087891"/>
     <use xlink:href="#DejaVuSans-4b" x="506.367188"/>
     <use xlink:href="#DejaVuSans-55" x="569.318359"/>
     <use xlink:href="#DejaVuSans-53" x="642.511719"/>
     <use xlink:href="#DejaVuSans-20" x="705.988281"/>
     <use xlink:href="#DejaVuSans-2d" x="737.775391"/>
     <use xlink:href="#DejaVuSans-20" x="773.859375"/>
     <use xlink:href="#DejaVuSans-50" x="805.646484"/>
     <use xlink:href="#DejaVuSans-65" x="862.324219"/>
     <use xlink:href="#DejaVuSans-72" x="923.847656"/>
     <use xlink:href="#DejaVuSans-66" x="964.960938"/>
     <use xlink:href="#DejaVuSans-6f" x="1000.166016"/>
     <use xlink:href="#DejaVuSans-72" x="1061.347656"/>
     <use xlink:href="#DejaVuSans-6d" x="1100.710938"/>
     <use xlink:href="#DejaVuSans-61" x="1198.123047"/>
     <use xlink:href="#DejaVuSans-6e" x="1259.402344"/>
     <use xlink:href="#DejaVuSans-63" x="1322.78125"/>
     <use xlink:href="#DejaVuSans-65" x="1377.761719"/>
    </g>
   </g>
   <g id="legend_1">
    <g id="line2d_26">
     <path d="M 39.7 30.040188 
L 49.7 30.040188 
L 59.7 30.040188 
" style="fill: none; stroke: #e69f00; stroke-width: 2; stroke-linecap: square"/>
    </g>
    <g id="text_17">
     <!-- 1/N -->
     <g transform="translate(67.7 33.540188) scale(0.1 -0.1)">
      <defs>
       <path id="DejaVuSans-2f" d="M 1625 4666 
L 2156 4666 
L 531 -594 
L 0 -594 
L 1625 4666 
z
" transform="scale(0.015625)"/>
       <path id="DejaVuSans-4e" d="M 628 4666 
L 1478 4666 
L 3547 763 
L 3547 4666 
L 4159 4666 
L 4159 0 
L 3309 0 
L 1241 3903 
L 1241 0 
L 628 0 
L 628 4666 
z
" transform="scale(0.015625)"/>
      </defs>
      <use xlink:href="#DejaVuSans-31"/>
      <use xlink:href="#DejaVuSans-2f" x="63.623047"/>
      <use xlink:href="#DejaVuSans-4e" x="97.314453"/>
     </g>
    </g>
    <g id="line2d_27">
     <path d="M 39.7 44.718313 
L 49.7 44.718313 
L 59.7 44.718313 
" style="fill: none; stroke-dasharray: 7.4,3.2; stroke-dashoffset: 0; stroke: #56b4e9; stroke-width: 2"/>
    </g>
    <g id="text_18">
     <!-- GMVP -->
     <g transform="translate(67.7 48.218313) scale(0.1 -0.1)">
      <defs>
       <path id="DejaVuSans-47" d="M 3809 666 
L 3809 1919 
L 2778 1919 
L 2778 2438 
L 4434 2438 
L 4434 434 
Q 4069 175 3628 42 
Q 3188 -91 2688 -91 
Q 1594 -91 976 548 
Q 359 1188 359 2328 
Q 359 3472 976 4111 
Q 1594 4750 2688 4750 
Q 3144 4750 3555 4637 
Q 3966 4525 4313 4306 
L 4313 3634 
Q 3963 3931 3569 4081 
Q 3175 4231 2741 4231 
Q 1884 4231 1454 3753 
Q 1025 3275 1025 2328 
Q 1025 1384 1454 906 
Q 1884 428 2741 428 
Q 3075 428 3337 486 
Q 3600 544 3809 666 
z
" transform="scale(0.015625)"/>
       <path id="DejaVuSans-56" d="M 1831 0 
L 50 4666 
L 709 4666 
L 2188 738 
L 3669 4666 
L 4325 4666 
L 2547 0 
L 1831 0 
z
" transform="scale(0.015625)"/>
      </defs>
      <use xlink:href="#DejaVuSans-47"/>
      <use xlink:href="#DejaVuSans-4d" x="77.490234"/>
      <use xlink:href="#DejaVuSans-56" x="163.769531"/>
      <use xlink:href="#DejaVuSans-50" x="232.177734"/>
     </g>
    </g>
   </g>
  </g>
 </g>
 <defs>
  <clipPath id="p12b80e4a11">
   <rect x="30.7" y="16.94175" width="837" height="221.76"/>
  </clipPath>
 </defs>
</svg>
