<?xml version="1.0" encoding="utf-8" standalone="no"?>
<!DOCTYPE svg PUBLIC "-//W3C//DTD SVG 1.1//EN"
  "http://www.w3.org/Graphics/SVG/1.1/DTD/svg11.dtd">
<svg xmlns:xlink="http://www.w3.org/1999/xlink" width="867.7pt" height="253.629875pt" viewBox="0 0 867.7 253.629875" xmlns="http://www.w3.org/2000/svg" version="1.1">
 <metadata>
  <rdf:RDF xmlns:dc="http://purl.org/dc/elements/1.1/" xmlns:cc="http://creativecommons.org/ns#" xmlns:rdf="http://www.w3.org/1999/02/22-rdf-syntax-ns#">
   <cc:Work>
    <dc:type rdf:resource="http://purl.org/dc/dcmitype/StillImage"/>
    <dc:date>2025-08-06T16:33:32.584509</dc:date>
    <dc:format>image/svg+xml</dc:format>
    <dc:creator>
     <cc:Agent>
      <dc:title>Matplotlib v3.9.2, https://matplotlib.org/</dc:title>
     </cc:Agent>
    </dc:creator>
   </cc:Work>
  </rdf:RDF>
 </metadata>
 <defs>
  <style type="text/css">*{stroke-linejoin: round; stroke-linecap: butt}</style>
 </defs>
 <g id="figure_1">
  <g id="patch_1">
   <path d="M 0 253.629875 
L 867.7 253.629875 
L 867.7 0 
L 0 0 
z
" style="fill: #ffffff"/>
  </g>
  <g id="axes_1">
   <g id="patch_2">
    <path d="M 30.7 238.70175 
L 867.7 238.70175 
L 867.7 16.94175 
L 30.7 16.94175 
z
" style="fill: #ffffff"/>
   </g>
   <g id="matplotlib.axis_1">
    <g id="xtick_1">
     <g id="line2d_1">
      <defs>
       <path id="m921d7351b2" d="M 0 1.75 
L 0 -1.75 
" style="stroke: #000000; stroke-width: 0.8"/>
      </defs>
      <g>
       <use xlink:href="#m921d7351b2" x="86.177701" y="238.70175" style="stroke: #000000; stroke-width: 0.8"/>
      </g>
     </g>
     <g id="text_1">
      <!-- 1992 -->
      <g transform="translate(73.452701 251.550188) scale(0.1 -0.1)">
       <defs>
        <path id="DejaVuSans-31" d="M 794 531 
L 1825 531 
L 1825 4091 
L 703 3866 
L 703 4441 
L 1819 4666 
L 2450 4666 
L 2450 531 
L 3481 531 
L 3481 0 
L 794 0 
L 794 531 
z
" transform="scale(0.015625)"/>
        <path id="DejaVuSans-39" d="M 703 97 
L 703 672 
Q 941 559 1184 500 
Q 1428 441 1663 441 
Q 2288 441 2617 861 
Q 2947 1281 2994 2138 
Q 2813 1869 2534 1725 
Q 2256 1581 1919 1581 
Q 1219 1581 811 2004 
Q 403 2428 403 3163 
Q 403 3881 828 4315 
Q 1253 4750 1959 4750 
Q 2769 4750 3195 4129 
Q 3622 3509 3622 2328 
Q 3622 1225 3098 567 
Q 2575 -91 1691 -91 
Q 1453 -91 1209 -44 
Q 966 3 703 97 
z
M 1959 2075 
Q 2384 2075 2632 2365 
Q 2881 2656 2881 3163 
Q 2881 3666 2632 3958 
Q 2384 4250 1959 4250 
Q 1534 4250 1286 3958 
Q 1038 3666 1038 3163 
Q 1038 2656 1286 2365 
Q 1534 2075 1959 2075 
z
" transform="scale(0.015625)"/>
        <path id="DejaVuSans-32" d="M 1228 531 
L 3431 531 
L 3431 0 
L 469 0 
L 469 531 
Q 828 903 1448 1529 
Q 2069 2156 2228 2338 
Q 2531 2678 2651 2914 
Q 2772 3150 2772 3378 
Q 2772 3750 2511 3984 
Q 2250 4219 1831 4219 
Q 1534 4219 1204 4116 
Q 875 4013 500 3803 
L 500 4441 
Q 881 4594 1212 4672 
Q 1544 4750 1819 4750 
Q 2544 4750 2975 4387 
Q 3406 4025 3406 3419 
Q 3406 3131 3298 2873 
Q 3191 2616 2906 2266 
Q 2828 2175 2409 1742 
Q 1991 1309 1228 531 
z
" transform="scale(0.015625)"/>
       </defs>
       <use xlink:href="#DejaVuSans-31"/>
       <use xlink:href="#DejaVuSans-39" x="63.623047"/>
       <use xlink:href="#DejaVuSans-39" x="127.246094"/>
       <use xlink:href="#DejaVuSans-32" x="190.869141"/>
      </g>
     </g>
    </g>
    <g id="xtick_2">
     <g id="line2d_2">
      <g>
       <use xlink:href="#m921d7351b2" x="201.967588" y="238.70175" style="stroke: #000000; stroke-width: 0.8"/>
      </g>
     </g>
     <g id="text_2">
      <!-- 1996 -->
      <g transform="translate(189.242588 251.550188) scale(0.1 -0.1)">
       <defs>
        <path id="DejaVuSans-36" d="M 2113 2584 
Q 1688 2584 1439 2293 
Q 1191 2003 1191 1497 
Q 1191 994 1439 701 
Q 1688 409 2113 409 
Q 2538 409 2786 701 
Q 3034 994 3034 1497 
Q 3034 2003 2786 2293 
Q 2538 2584 2113 2584 
z
M 3366 4563 
L 3366 3988 
Q 3128 4100 2886 4159 
Q 2644 4219 2406 4219 
Q 1781 4219 1451 3797 
Q 1122 3375 1075 2522 
Q 1259 2794 1537 2939 
Q 1816 3084 2150 3084 
Q 2853 3084 3261 2657 
Q 3669 2231 3669 1497 
Q 3669 778 3244 343 
Q 2819 -91 2113 -91 
Q 1303 -91 875 529 
Q 447 1150 447 2328 
Q 447 3434 972 4092 
Q 1497 4750 2381 4750 
Q 2619 4750 2861 4703 
Q 3103 4656 3366 4563 
z
" transform="scale(0.015625)"/>
       </defs>
       <use xlink:href="#DejaVuSans-31"/>
       <use xlink:href="#DejaVuSans-39" x="63.623047"/>
       <use xlink:href="#DejaVuSans-39" x="127.246094"/>
       <use xlink:href="#DejaVuSans-36" x="190.869141"/>
      </g>
     </g>
    </g>
    <g id="xtick_3">
     <g id="line2d_3">
      <g>
       <use xlink:href="#m921d7351b2" x="317.757476" y="238.70175" style="stroke: #000000; stroke-width: 0.8"/>
      </g>
     </g>
     <g id="text_3">
      <!-- 2000 -->
      <g transform="translate(305.032476 251.550188) scale(0.1 -0.1)">
       <defs>
        <path id="DejaVuSans-30" d="M 2034 4250 
Q 1547 4250 1301 3770 
Q 1056 3291 1056 2328 
Q 1056 1369 1301 889 
Q 1547 409 2034 409 
Q 2525 409 2770 889 
Q 3016 1369 3016 2328 
Q 3016 3291 2770 3770 
Q 2525 4250 2034 4250 
z
M 2034 4750 
Q 2819 4750 3233 4129 
Q 3647 3509 3647 2328 
Q 3647 1150 3233 529 
Q 2819 -91 2034 -91 
Q 1250 -91 836 529 
Q 422 1150 422 2328 
Q 422 3509 836 4129 
Q 1250 4750 2034 4750 
z
" transform="scale(0.015625)"/>
       </defs>
       <use xlink:href="#DejaVuSans-32"/>
       <use xlink:href="#DejaVuSans-30" x="63.623047"/>
       <use xlink:href="#DejaVuSans-30" x="127.246094"/>
       <use xlink:href="#DejaVuSans-30" x="190.869141"/>
      </g>
     </g>
    </g>
    <g id="xtick_4">
     <g id="line2d_4">
      <g>
       <use xlink:href="#m921d7351b2" x="433.547363" y="238.70175" style="stroke: #000000; stroke-width: 0.8"/>
      </g>
     </g>
     <g id="text_4">
      <!-- 2004 -->
      <g transform="translate(420.822363 251.550188) scale(0.1 -0.1)">
       <defs>
        <path id="DejaVuSans-34" d="M 2419 4116 
L 825 1625 
L 2419 1625 
L 2419 4116 
z
M 2253 4666 
L 3047 4666 
L 3047 1625 
L 3713 1625 
L 3713 1100 
L 3047 1100 
L 3047 0 
L 2419 0 
L 2419 1100 
L 313 1100 
L 313 1709 
L 2253 4666 
z
" transform="scale(0.015625)"/>
       </defs>
       <use xlink:href="#DejaVuSans-32"/>
       <use xlink:href="#DejaVuSans-30" x="63.623047"/>
       <use xlink:href="#DejaVuSans-30" x="127.246094"/>
       <use xlink:href="#DejaVuSans-34" x="190.869141"/>
      </g>
     </g>
    </g>
    <g id="xtick_5">
     <g id="line2d_5">
      <g>
       <use xlink:href="#m921d7351b2" x="549.33725" y="238.70175" style="stroke: #000000; stroke-width: 0.8"/>
      </g>
     </g>
     <g id="text_5">
      <!-- 2008 -->
      <g transform="translate(536.61225 251.550188) scale(0.1 -0.1)">
       <defs>
        <path id="DejaVuSans-38" d="M 2034 2216 
Q 1584 2216 1326 1975 
Q 1069 1734 1069 1313 
Q 1069 891 1326 650 
Q 1584 409 2034 409 
Q 2484 409 2743 651 
Q 3003 894 3003 1313 
Q 3003 1734 2745 1975 
Q 2488 2216 2034 2216 
z
M 1403 2484 
Q 997 2584 770 2862 
Q 544 3141 544 3541 
Q 544 4100 942 4425 
Q 1341 4750 2034 4750 
Q 2731 4750 3128 4425 
Q 3525 4100 3525 3541 
Q 3525 3141 3298 2862 
Q 3072 2584 2669 2484 
Q 3125 2378 3379 2068 
Q 3634 1759 3634 1313 
Q 3634 634 3220 271 
Q 2806 -91 2034 -91 
Q 1263 -91 848 271 
Q 434 634 434 1313 
Q 434 1759 690 2068 
Q 947 2378 1403 2484 
z
M 1172 3481 
Q 1172 3119 1398 2916 
Q 1625 2713 2034 2713 
Q 2441 2713 2670 2916 
Q 2900 3119 2900 3481 
Q 2900 3844 2670 4047 
Q 2441 4250 2034 4250 
Q 1625 4250 1398 4047 
Q 1172 3844 1172 3481 
z
" transform="scale(0.015625)"/>
       </defs>
       <use xlink:href="#DejaVuSans-32"/>
       <use xlink:href="#DejaVuSans-30" x="63.623047"/>
       <use xlink:href="#DejaVuSans-30" x="127.246094"/>
       <use xlink:href="#DejaVuSans-38" x="190.869141"/>
      </g>
     </g>
    </g>
    <g id="xtick_6">
     <g id="line2d_6">
      <g>
       <use xlink:href="#m921d7351b2" x="665.127138" y="238.70175" style="stroke: #000000; stroke-width: 0.8"/>
      </g>
     </g>
     <g id="text_6">
      <!-- 2012 -->
      <g transform="translate(652.402138 251.550188) scale(0.1 -0.1)">
       <use xlink:href="#DejaVuSans-32"/>
       <use xlink:href="#DejaVuSans-30" x="63.623047"/>
       <use xlink:href="#DejaVuSans-31" x="127.246094"/>
       <use xlink:href="#DejaVuSans-32" x="190.869141"/>
      </g>
     </g>
    </g>
    <g id="xtick_7">
     <g id="line2d_7">
      <g>
       <use xlink:href="#m921d7351b2" x="780.917025" y="238.70175" style="stroke: #000000; stroke-width: 0.8"/>
      </g>
     </g>
     <g id="text_7">
      <!-- 2016 -->
      <g transform="translate(768.192025 251.550188) scale(0.1 -0.1)">
       <use xlink:href="#DejaVuSans-32"/>
       <use xlink:href="#DejaVuSans-30" x="63.623047"/>
       <use xlink:href="#DejaVuSans-31" x="127.246094"/>
       <use xlink:href="#DejaVuSans-36" x="190.869141"/>
      </g>
     </g>
    </g>
   </g>
   <g id="matplotlib.axis_2">
    <g id="ytick_1">
     <g id="line2d_8">
      <path d="M 30.7 210.55265 
L 867.7 210.55265 
" clip-path="url(#pf946cb92c9)" style="fill: none; stroke-dasharray: 1.85,0.8; stroke-dashoffset: 0; stroke: #b2b2b2; stroke-width: 0.5"/>
     </g>
     <g id="line2d_9">
      <defs>
       <path id="m3d0938480a" d="M 1.75 0 
L -1.75 -0 
" style="stroke: #000000; stroke-width: 0.8"/>
      </defs>
      <g>
       <use xlink:href="#m3d0938480a" x="30.7" y="210.55265" style="stroke: #000000; stroke-width: 0.8"/>
      </g>
     </g>
     <g id="text_8">
      <!-- 1000 -->
      <g transform="translate(0 214.351869) scale(0.1 -0.1)">
       <use xlink:href="#DejaVuSans-31"/>
       <use xlink:href="#DejaVuSans-30" x="63.623047"/>
       <use xlink:href="#DejaVuSans-30" x="127.246094"/>
       <use xlink:href="#DejaVuSans-30" x="190.869141"/>
      </g>
     </g>
    </g>
    <g id="ytick_2">
     <g id="line2d_10">
      <path d="M 30.7 179.781628 
L 867.7 179.781628 
" clip-path="url(#pf946cb92c9)" style="fill: none; stroke-dasharray: 1.85,0.8; stroke-dashoffset: 0; stroke: #b2b2b2; stroke-width: 0.5"/>
     </g>
     <g id="line2d_11">
      <g>
       <use xlink:href="#m3d0938480a" x="30.7" y="179.781628" style="stroke: #000000; stroke-width: 0.8"/>
      </g>
     </g>
     <g id="text_9">
      <!-- 2000 -->
      <g transform="translate(0 183.580846) scale(0.1 -0.1)">
       <use xlink:href="#DejaVuSans-32"/>
       <use xlink:href="#DejaVuSans-30" x="63.623047"/>
       <use xlink:href="#DejaVuSans-30" x="127.246094"/>
       <use xlink:href="#DejaVuSans-30" x="190.869141"/>
      </g>
     </g>
    </g>
    <g id="ytick_3">
     <g id="line2d_12">
      <path d="M 30.7 149.010605 
L 867.7 149.010605 
" clip-path="url(#pf946cb92c9)" style="fill: none; stroke-dasharray: 1.85,0.8; stroke-dashoffset: 0; stroke: #b2b2b2; stroke-width: 0.5"/>
     </g>
     <g id="line2d_13">
      <g>
       <use xlink:href="#m3d0938480a" x="30.7" y="149.010605" style="stroke: #000000; stroke-width: 0.8"/>
      </g>
     </g>
     <g id="text_10">
      <!-- 3000 -->
      <g transform="translate(0 152.809824) scale(0.1 -0.1)">
       <defs>
        <path id="DejaVuSans-33" d="M 2597 2516 
Q 3050 2419 3304 2112 
Q 3559 1806 3559 1356 
Q 3559 666 3084 287 
Q 2609 -91 1734 -91 
Q 1441 -91 1130 -33 
Q 819 25 488 141 
L 488 750 
Q 750 597 1062 519 
Q 1375 441 1716 441 
Q 2309 441 2620 675 
Q 2931 909 2931 1356 
Q 2931 1769 2642 2001 
Q 2353 2234 1838 2234 
L 1294 2234 
L 1294 2753 
L 1863 2753 
Q 2328 2753 2575 2939 
Q 2822 3125 2822 3475 
Q 2822 3834 2567 4026 
Q 2313 4219 1838 4219 
Q 1578 4219 1281 4162 
Q 984 4106 628 3988 
L 628 4550 
Q 988 4650 1302 4700 
Q 1616 4750 1894 4750 
Q 2613 4750 3031 4423 
Q 3450 4097 3450 3541 
Q 3450 3153 3228 2886 
Q 3006 2619 2597 2516 
z
" transform="scale(0.015625)"/>
       </defs>
       <use xlink:href="#DejaVuSans-33"/>
       <use xlink:href="#DejaVuSans-30" x="63.623047"/>
       <use xlink:href="#DejaVuSans-30" x="127.246094"/>
       <use xlink:href="#DejaVuSans-30" x="190.869141"/>
      </g>
     </g>
    </g>
    <g id="ytick_4">
     <g id="line2d_14">
      <path d="M 30.7 118.239583 
L 867.7 118.239583 
" clip-path="url(#pf946cb92c9)" style="fill: none; stroke-dasharray: 1.85,0.8; stroke-dashoffset: 0; stroke: #b2b2b2; stroke-width: 0.5"/>
     </g>
     <g id="line2d_15">
      <g>
       <use xlink:href="#m3d0938480a" x="30.7" y="118.239583" style="stroke: #000000; stroke-width: 0.8"/>
      </g>
     </g>
     <g id="text_11">
      <!-- 4000 -->
      <g transform="translate(0 122.038801) scale(0.1 -0.1)">
       <use xlink:href="#DejaVuSans-34"/>
       <use xlink:href="#DejaVuSans-30" x="63.623047"/>
       <use xlink:href="#DejaVuSans-30" x="127.246094"/>
       <use xlink:href="#DejaVuSans-30" x="190.869141"/>
      </g>
     </g>
    </g>
    <g id="ytick_5">
     <g id="line2d_16">
      <path d="M 30.7 87.46856 
L 867.7 87.46856 
" clip-path="url(#pf946cb92c9)" style="fill: none; stroke-dasharray: 1.85,0.8; stroke-dashoffset: 0; stroke: #b2b2b2; stroke-width: 0.5"/>
     </g>
     <g id="line2d_17">
      <g>
       <use xlink:href="#m3d0938480a" x="30.7" y="87.46856" style="stroke: #000000; stroke-width: 0.8"/>
      </g>
     </g>
     <g id="text_12">
      <!-- 5000 -->
      <g transform="translate(0 91.267779) scale(0.1 -0.1)">
       <defs>
        <path id="DejaVuSans-35" d="M 691 4666 
L 3169 4666 
L 3169 4134 
L 1269 4134 
L 1269 2991 
Q 1406 3038 1543 3061 
Q 1681 3084 1819 3084 
Q 2600 3084 3056 2656 
Q 3513 2228 3513 1497 
Q 3513 744 3044 326 
Q 2575 -91 1722 -91 
Q 1428 -91 1123 -41 
Q 819 9 494 109 
L 494 744 
Q 775 591 1075 516 
Q 1375 441 1709 441 
Q 2250 441 2565 725 
Q 2881 1009 2881 1497 
Q 2881 1984 2565 2268 
Q 2250 2553 1709 2553 
Q 1456 2553 1204 2497 
Q 953 2441 691 2322 
L 691 4666 
z
" transform="scale(0.015625)"/>
       </defs>
       <use xlink:href="#DejaVuSans-35"/>
       <use xlink:href="#DejaVuSans-30" x="63.623047"/>
       <use xlink:href="#DejaVuSans-30" x="127.246094"/>
       <use xlink:href="#DejaVuSans-30" x="190.869141"/>
      </g>
     </g>
    </g>
    <g id="ytick_6">
     <g id="line2d_18">
      <path d="M 30.7 56.697538 
L 867.7 56.697538 
" clip-path="url(#pf946cb92c9)" style="fill: none; stroke-dasharray: 1.85,0.8; stroke-dashoffset: 0; stroke: #b2b2b2; stroke-width: 0.5"/>
     </g>
     <g id="line2d_19">
      <g>
       <use xlink:href="#m3d0938480a" x="30.7" y="56.697538" style="stroke: #000000; stroke-width: 0.8"/>
      </g>
     </g>
     <g id="text_13">
      <!-- 6000 -->
      <g transform="translate(0 60.496757) scale(0.1 -0.1)">
       <use xlink:href="#DejaVuSans-36"/>
       <use xlink:href="#DejaVuSans-30" x="63.623047"/>
       <use xlink:href="#DejaVuSans-30" x="127.246094"/>
       <use xlink:href="#DejaVuSans-30" x="190.869141"/>
      </g>
     </g>
    </g>
    <g id="ytick_7">
     <g id="line2d_20">
      <path d="M 30.7 25.926516 
L 867.7 25.926516 
" clip-path="url(#pf946cb92c9)" style="fill: none; stroke-dasharray: 1.85,0.8; stroke-dashoffset: 0; stroke: #b2b2b2; stroke-width: 0.5"/>
     </g>
     <g id="line2d_21">
      <g>
       <use xlink:href="#m3d0938480a" x="30.7" y="25.926516" style="stroke: #000000; stroke-width: 0.8"/>
      </g>
     </g>
     <g id="text_14">
      <!-- 7000 -->
      <g transform="translate(0 29.725734) scale(0.1 -0.1)">
       <defs>
        <path id="DejaVuSans-37" d="M 525 4666 
L 3525 4666 
L 3525 4397 
L 1831 0 
L 1172 0 
L 2766 4134 
L 525 4134 
L 525 4666 
z
" transform="scale(0.015625)"/>
       </defs>
       <use xlink:href="#DejaVuSans-37"/>
       <use xlink:href="#DejaVuSans-30" x="63.623047"/>
       <use xlink:href="#DejaVuSans-30" x="127.246094"/>
       <use xlink:href="#DejaVuSans-30" x="190.869141"/>
      </g>
     </g>
    </g>
   </g>
   <g id="line2d_22">
    <path d="M 30.7 238.24657 
L 35.375978 238.07245 
L 37.753593 238.151996 
L 40.210463 237.87731 
L 45.044948 237.935487 
L 47.501818 238.279954 
L 49.879434 238.484023 
L 52.336303 238.550281 
L 54.713919 238.293144 
L 59.627658 237.939165 
L 61.846766 237.634141 
L 69.138121 237.272049 
L 71.515737 237.385996 
L 76.429476 237.116961 
L 83.641578 237.133294 
L 86.098447 236.732312 
L 90.853679 236.444308 
L 95.688164 236.447747 
L 110.270874 235.955961 
L 115.105359 235.497254 
L 122.238207 235.097371 
L 124.615822 235.238745 
L 127.072692 235.021382 
L 131.907177 234.934079 
L 134.364047 234.631776 
L 139.198532 234.398881 
L 141.576148 234.514624 
L 146.489887 234.078419 
L 148.708995 234.110866 
L 151.165865 234.389257 
L 156.00035 234.319877 
L 158.377966 234.431201 
L 160.834836 234.228268 
L 163.291705 233.87351 
L 165.669321 233.996601 
L 168.126191 233.885168 
L 170.503806 234.164166 
L 175.417546 233.954998 
L 177.636654 233.593287 
L 187.305624 232.528603 
L 189.762494 232.144508 
L 192.219364 232.006376 
L 194.596979 231.739279 
L 197.053849 231.898685 
L 199.431465 231.486014 
L 209.100436 230.807657 
L 213.934921 230.187946 
L 216.312537 230.269023 
L 218.769406 230.94295 
L 223.603892 229.990904 
L 226.060761 229.810646 
L 228.438377 228.998547 
L 230.895247 229.003405 
L 233.352116 228.568523 
L 235.571224 228.466802 
L 238.028094 228.87383 
L 240.40571 228.560243 
L 242.862579 227.62834 
L 245.240195 227.043215 
L 247.697065 225.924212 
L 250.153934 225.98158 
L 252.53155 225.05563 
L 254.98842 225.657306 
L 259.822905 224.89114 
L 262.279775 224.915995 
L 264.498883 223.658342 
L 266.955752 222.857142 
L 269.333368 222.688439 
L 271.790238 223.305027 
L 274.167853 223.20481 
L 276.624723 224.133417 
L 279.081593 226.784533 
L 281.459208 225.863437 
L 283.916078 224.565 
L 288.750563 223.057658 
L 291.207433 223.01612 
L 293.426541 223.752083 
L 295.883411 223.513844 
L 298.261026 221.77095 
L 300.717896 221.711622 
L 303.095512 220.966761 
L 308.009251 221.835672 
L 310.386867 222.472133 
L 312.843736 221.982357 
L 315.221352 221.718751 
L 317.678222 220.795703 
L 320.135091 221.469332 
L 322.433453 221.294193 
L 324.890323 219.711252 
L 327.267939 219.353131 
L 329.724808 219.204845 
L 332.102424 219.324629 
L 334.559294 218.853796 
L 337.016163 217.527174 
L 339.393779 217.569947 
L 341.850649 217.107368 
L 344.228264 217.688234 
L 346.685134 215.901592 
L 349.142004 215.166946 
L 351.361112 215.982994 
L 353.817981 216.676256 
L 356.195597 214.841758 
L 358.652467 213.897443 
L 363.486952 213.707503 
L 365.943822 214.150325 
L 368.321437 216.876807 
L 370.778307 215.958812 
L 373.155923 213.864393 
L 375.612792 212.507594 
L 380.28877 211.717551 
L 382.74564 209.568404 
L 387.580125 210.096307 
L 389.957741 211.694481 
L 392.41461 214.517533 
L 394.87148 214.182979 
L 397.249096 216.130159 
L 399.705965 215.176971 
L 402.083581 212.929217 
L 404.540451 214.178208 
L 406.99732 214.902982 
L 409.216428 215.416784 
L 411.673298 215.355705 
L 416.507783 210.530277 
L 418.885399 210.067831 
L 421.342269 208.606018 
L 423.799138 206.850968 
L 426.176754 207.500814 
L 428.633624 204.92959 
L 431.011239 203.799989 
L 433.468109 202.093411 
L 435.924979 201.465056 
L 438.223341 200.578288 
L 440.68021 200.219416 
L 443.057826 201.375629 
L 445.514696 200.467398 
L 447.892311 198.892615 
L 450.349181 200.40062 
L 452.806051 200.293773 
L 455.183666 198.808572 
L 457.640536 197.798594 
L 460.018152 194.826032 
L 462.475021 193.032225 
L 464.931891 194.251845 
L 467.150999 192.853152 
L 469.607869 193.843648 
L 471.985484 195.19857 
L 474.442354 192.941743 
L 476.81997 191.967583 
L 479.276839 189.058251 
L 481.733709 189.572007 
L 484.111325 188.77428 
L 486.568194 189.734485 
L 488.94581 187.198873 
L 491.40268 186.988768 
L 493.859549 183.878975 
L 496.078657 183.465052 
L 498.535527 181.750855 
L 500.913143 181.003133 
L 503.370012 183.24748 
L 505.747628 182.946405 
L 508.204498 183.880984 
L 513.038983 181.144291 
L 515.495853 178.794495 
L 517.873468 176.699771 
L 520.330338 176.748951 
L 522.787208 174.662947 
L 525.006316 174.790472 
L 527.463185 174.287579 
L 529.840801 171.925269 
L 532.297671 169.21847 
L 534.675286 170.413336 
L 537.132156 172.767737 
L 539.589026 171.750903 
L 541.966641 169.506593 
L 544.423511 167.673718 
L 546.801127 170.676466 
L 549.257996 171.12982 
L 551.714866 174.5019 
L 554.013228 176.222321 
L 556.470098 176.346951 
L 558.847713 172.625817 
L 561.304583 170.437424 
L 563.682199 176.77966 
L 566.139068 176.793137 
L 568.595938 175.193099 
L 570.973554 181.023707 
L 573.430423 192.850212 
L 575.808039 196.94097 
L 578.264909 194.768804 
L 580.721778 198.934085 
L 582.940886 203.380243 
L 585.397756 199.537495 
L 587.775372 193.111876 
L 590.232241 190.929415 
L 592.609857 190.91436 
L 595.066727 186.284739 
L 597.523596 183.460764 
L 599.901212 180.947016 
L 602.358082 183.220469 
L 604.735697 179.980568 
L 607.192567 177.284446 
L 609.649437 179.325066 
L 611.868545 176.724368 
L 614.325414 172.355369 
L 616.70303 169.602719 
L 619.1599 174.797946 
L 621.537515 178.541636 
L 623.994385 174.250816 
L 626.451255 177.276037 
L 628.82887 170.832886 
L 631.28574 168.128691 
L 633.663356 167.305207 
L 636.120225 161.817709 
L 638.577095 160.04924 
L 640.796203 156.957639 
L 643.253073 155.945592 
L 645.630688 153.309586 
L 648.087558 153.823697 
L 650.465174 155.525601 
L 652.922043 158.548064 
L 655.378913 163.144776 
L 657.756529 169.914212 
L 660.213398 160.856625 
L 662.591014 160.986907 
L 665.047884 160.648739 
L 667.504753 155.422329 
L 669.803115 152.213522 
L 672.259985 149.92154 
L 674.637601 150.106899 
L 677.09447 155.858686 
L 679.472086 153.360716 
L 681.928956 152.981974 
L 684.385825 150.537687 
L 686.763441 148.416648 
L 689.220311 148.655794 
L 691.597926 147.39376 
L 694.054796 145.483125 
L 696.511666 138.960213 
L 698.730774 137.512901 
L 701.187643 133.131858 
L 703.565259 131.380928 
L 706.022129 129.193395 
L 708.399744 130.919454 
L 710.856614 125.112133 
L 713.313484 128.404142 
L 715.691099 123.444948 
L 718.147969 118.785478 
L 720.525585 115.895645 
L 722.982454 112.501613 
L 725.439324 114.931832 
L 727.658432 108.754943 
L 730.115302 108.187869 
L 732.492917 108.515376 
L 734.949787 105.365601 
L 737.327403 101.822656 
L 739.784272 105.457117 
L 742.241142 99.299593 
L 744.618758 103.051986 
L 747.075627 97.871521 
L 749.453243 93.672151 
L 751.910113 93.429715 
L 754.366982 95.886511 
L 756.58609 88.425417 
L 759.04296 89.179522 
L 761.420576 89.459051 
L 763.877445 87.327227 
L 766.255061 90.364002 
L 768.711931 87.993226 
L 771.1688 96.248273 
L 773.546416 100.750657 
L 776.003286 91.670146 
L 778.380901 90.772449 
L 780.837771 94.231264 
L 783.294641 102.43974 
L 785.593003 100.619246 
L 788.049872 89.684841 
L 790.427488 87.697763 
L 792.884358 84.84112 
L 795.261973 84.041357 
L 797.718843 77.958774 
L 800.175713 77.493943 
L 802.553328 77.397897 
L 805.010198 81.413141 
L 807.387814 73.605668 
L 809.844683 71.225683 
L 812.301553 66.590114 
L 814.520661 60.198676 
L 816.977531 60.004324 
L 819.355146 58.271913 
L 821.812016 55.446725 
L 824.189632 54.166475 
L 826.646501 50.993935 
L 829.103371 51.387717 
L 831.480987 46.378373 
L 833.937856 42.616365 
L 836.315472 35.635858 
L 838.772342 33.200852 
L 841.229211 24.023026 
L 843.448319 33.392593 
L 845.905189 34.62325 
L 848.282805 34.379119 
L 850.739674 30.470815 
L 853.11729 29.088444 
L 855.57416 21.973281 
L 858.031029 17.073131 
L 860.408645 16.94175 
L 862.865515 33.201843 
L 865.24313 27.431872 
L 867.7 46.920014 
L 867.7 46.920014 
" clip-path="url(#pf946cb92c9)" style="fill: none; stroke: #e69f00; stroke-width: 2; stroke-linecap: square"/>
   </g>
   <g id="line2d_23">
    <path d="M 30.7 238.24657 
L 35.375978 238.262669 
L 37.753593 238.397958 
L 57.170789 238.464355 
L 59.627658 238.580714 
L 61.846766 238.471759 
L 71.515737 238.530553 
L 86.098447 238.297482 
L 88.555317 238.351374 
L 100.522649 237.983109 
L 110.270874 237.848545 
L 112.64849 237.858678 
L 115.105359 237.708208 
L 117.562229 237.701806 
L 122.238207 237.49252 
L 127.072692 237.47257 
L 131.907177 237.616611 
L 141.576148 237.408952 
L 156.00035 237.44494 
L 158.377966 237.530942 
L 163.291705 237.20462 
L 170.503806 237.343654 
L 175.417546 237.22982 
L 180.093523 237.022551 
L 184.928009 236.681401 
L 192.219364 236.766805 
L 194.596979 236.599118 
L 197.053849 236.648472 
L 216.312537 235.469871 
L 218.769406 235.817453 
L 221.226276 235.582706 
L 223.603892 235.48754 
L 228.438377 235.111457 
L 240.40571 234.921281 
L 245.240195 234.335634 
L 247.697065 234.09668 
L 250.153934 234.16457 
L 252.53155 233.901401 
L 254.98842 233.960081 
L 259.822905 233.643214 
L 262.279775 233.494096 
L 266.955752 232.655641 
L 269.333368 232.570969 
L 271.790238 232.715276 
L 274.167853 232.667054 
L 276.624723 232.82924 
L 279.081593 233.474375 
L 281.459208 232.789749 
L 283.916078 232.705867 
L 286.293694 232.408861 
L 288.750563 232.474095 
L 291.207433 232.888776 
L 293.426541 233.103053 
L 295.883411 232.999122 
L 298.261026 232.627341 
L 303.095512 232.393779 
L 305.552381 232.515038 
L 310.386867 233.113413 
L 312.843736 233.028923 
L 317.678222 233.404655 
L 322.433453 234.454202 
L 327.267939 233.812476 
L 334.559294 233.541403 
L 337.016163 233.270179 
L 344.228264 233.344943 
L 346.685134 232.948549 
L 349.142004 233.211903 
L 353.817981 233.184211 
L 356.195597 233.012683 
L 358.652467 232.691588 
L 361.030082 232.780232 
L 365.943822 232.773254 
L 368.321437 232.94652 
L 370.778307 232.766197 
L 373.155923 232.432498 
L 378.069662 232.347818 
L 380.28877 232.08329 
L 382.74564 231.570529 
L 387.580125 231.439152 
L 389.957741 231.909498 
L 392.41461 232.061492 
L 394.87148 231.996773 
L 397.249096 232.479738 
L 399.705965 232.149595 
L 402.083581 232.15782 
L 404.540451 231.9319 
L 409.216428 232.097887 
L 411.673298 231.759861 
L 414.050914 231.701285 
L 421.342269 232.058567 
L 423.799138 232.325084 
L 426.176754 232.242966 
L 433.468109 231.239956 
L 440.68021 230.825975 
L 443.057826 230.913186 
L 447.892311 230.488453 
L 450.349181 230.875961 
L 452.806051 230.617625 
L 455.183666 230.640186 
L 460.018152 230.21101 
L 462.475021 229.940024 
L 464.931891 230.183401 
L 467.150999 230.007845 
L 469.607869 230.09955 
L 471.985484 230.069779 
L 476.81997 229.717073 
L 479.276839 229.33466 
L 481.733709 229.429197 
L 486.568194 229.272358 
L 488.94581 229.026424 
L 491.40268 228.979122 
L 493.859549 228.647678 
L 496.078657 228.598019 
L 498.535527 228.422881 
L 500.913143 228.394276 
L 503.370012 228.505961 
L 505.747628 228.333723 
L 510.661367 227.79463 
L 513.038983 227.60373 
L 515.495853 227.204077 
L 517.873468 227.019354 
L 520.330338 227.097723 
L 522.787208 227.014678 
L 525.006316 227.194039 
L 527.463185 227.063786 
L 532.297671 226.291097 
L 534.675286 226.744155 
L 537.132156 227.074613 
L 544.423511 226.040358 
L 546.801127 226.341848 
L 549.257996 226.473022 
L 554.013228 227.408668 
L 556.470098 227.412752 
L 561.304583 227.024434 
L 563.682199 227.931467 
L 568.595938 227.419942 
L 570.973554 227.619928 
L 573.430423 229.251274 
L 575.808039 229.192301 
L 578.264909 229.25879 
L 580.721778 229.5095 
L 582.940886 230.314623 
L 585.397756 229.819082 
L 587.775372 230.8707 
L 590.232241 230.992079 
L 592.609857 230.854047 
L 595.066727 230.413111 
L 597.523596 230.863654 
L 599.901212 230.647395 
L 602.358082 230.713592 
L 604.735697 230.231576 
L 607.192567 229.992506 
L 609.649437 230.145899 
L 614.325414 230.116752 
L 616.70303 229.867678 
L 619.1599 230.435884 
L 623.994385 230.205344 
L 626.451255 230.341842 
L 628.82887 229.701583 
L 631.28574 229.669763 
L 633.663356 229.777305 
L 636.120225 229.328456 
L 638.577095 229.491806 
L 640.796203 229.131342 
L 643.253073 228.886115 
L 645.630688 228.434045 
L 648.087558 228.179946 
L 650.465174 228.167787 
L 652.922043 228.574173 
L 655.378913 228.315355 
L 657.756529 228.733428 
L 662.591014 228.11701 
L 665.047884 227.462107 
L 667.504753 227.7765 
L 669.803115 227.781855 
L 672.259985 227.478779 
L 677.09447 227.2226 
L 679.472086 226.601044 
L 684.385825 226.500911 
L 686.763441 226.2739 
L 691.597926 226.514697 
L 694.054796 226.986693 
L 696.511666 226.00843 
L 698.730774 225.391715 
L 701.187643 224.525479 
L 703.565259 224.166216 
L 706.022129 224.732217 
L 708.399744 224.849335 
L 710.856614 224.352628 
L 713.313484 225.409783 
L 715.691099 225.350183 
L 718.147969 224.821415 
L 722.982454 224.262039 
L 725.439324 224.263726 
L 727.658432 223.468468 
L 730.115302 223.511265 
L 737.327403 222.985272 
L 739.784272 223.482288 
L 742.241142 222.693176 
L 744.618758 222.896807 
L 747.075627 222.103303 
L 749.453243 221.578233 
L 751.910113 221.912779 
L 754.366982 221.8109 
L 756.58609 221.365715 
L 759.04296 221.561009 
L 763.877445 221.403691 
L 766.255061 221.930247 
L 768.711931 221.483088 
L 771.1688 222.326429 
L 773.546416 222.349698 
L 776.003286 221.401559 
L 778.380901 221.596811 
L 780.837771 221.435637 
L 783.294641 221.041305 
L 785.593003 220.808263 
L 788.049872 219.739048 
L 790.427488 219.313935 
L 792.884358 219.372418 
L 795.261973 218.195194 
L 797.718843 218.147806 
L 800.175713 218.818355 
L 802.553328 218.95478 
L 805.010198 219.367432 
L 807.387814 219.390848 
L 809.844683 218.878494 
L 814.520661 217.585016 
L 816.977531 217.805241 
L 819.355146 217.800506 
L 824.189632 217.079286 
L 826.646501 216.930799 
L 831.480987 217.002837 
L 833.937856 216.612113 
L 836.315472 215.851809 
L 838.772342 215.832887 
L 841.229211 215.174018 
L 843.448319 216.056055 
L 850.739674 215.025044 
L 853.11729 214.358305 
L 855.57416 214.031853 
L 858.031029 213.339034 
L 860.408645 213.721264 
L 862.865515 214.546433 
L 865.24313 214.232704 
L 867.7 216.244777 
L 867.7 216.244777 
" clip-path="url(#pf946cb92c9)" style="fill: none; stroke-dasharray: 7.4,3.2; stroke-dashoffset: 0; stroke: #56b4e9; stroke-width: 2"/>
   </g>
   <g id="line2d_24">
    <path d="M 0 0 
" clip-path="url(#pf946cb92c9)" style="fill: none; stroke-dasharray: 12.8,3.2,2,3.2; stroke-dashoffset: 0; stroke: #009e73; stroke-width: 2"/>
   </g>
   <g id="line2d_25">
    <path d="M 30.7 238.24657 
L 35.375978 238.216816 
L 37.753593 238.329779 
L 40.210463 238.181965 
L 45.044948 238.131904 
L 49.879434 238.467636 
L 52.336303 238.454361 
L 57.170789 238.270683 
L 59.627658 238.267179 
L 61.846766 238.055801 
L 66.681252 237.974602 
L 73.972607 237.888402 
L 90.853679 237.507379 
L 95.688164 237.377002 
L 100.522649 237.093022 
L 102.979519 236.915253 
L 110.270874 236.832167 
L 112.64849 236.761389 
L 115.105359 236.57637 
L 119.781337 236.411144 
L 122.238207 236.257438 
L 129.450308 236.24802 
L 131.907177 236.204234 
L 136.741663 235.969806 
L 139.198532 235.856115 
L 141.576148 236.027398 
L 146.489887 235.802581 
L 158.377966 236.035179 
L 163.291705 235.634489 
L 165.669321 235.701954 
L 168.126191 235.642188 
L 170.503806 235.827087 
L 177.636654 235.463439 
L 189.762494 234.78179 
L 192.219364 234.715886 
L 194.596979 234.539191 
L 197.053849 234.594726 
L 199.431465 234.33102 
L 211.478051 233.515756 
L 213.934921 233.279321 
L 216.312537 233.254639 
L 218.769406 233.709487 
L 223.603892 233.167676 
L 226.060761 232.969257 
L 228.438377 232.521877 
L 230.895247 232.466075 
L 235.571224 232.126417 
L 238.028094 232.382688 
L 240.40571 232.126566 
L 247.697065 230.491063 
L 250.153934 230.642596 
L 252.53155 230.09078 
L 254.98842 230.301007 
L 259.822905 229.617317 
L 262.279775 229.647511 
L 264.498883 228.885791 
L 266.955752 228.211009 
L 269.333368 228.14588 
L 271.790238 228.440631 
L 274.167853 228.354806 
L 276.624723 228.896175 
L 279.081593 230.352801 
L 281.459208 229.617454 
L 283.916078 229.03978 
L 288.750563 228.324807 
L 293.426541 229.037668 
L 295.883411 228.957346 
L 298.261026 227.919465 
L 303.095512 227.630235 
L 305.552381 227.978489 
L 310.386867 228.92039 
L 312.843736 228.696165 
L 315.221352 228.922326 
L 317.678222 229.003976 
L 320.135091 229.593527 
L 322.433453 230.300305 
L 324.890323 229.269949 
L 327.267939 228.899945 
L 329.724808 228.666068 
L 332.102424 228.641455 
L 334.559294 228.471249 
L 337.016163 227.849407 
L 341.850649 227.463924 
L 344.228264 227.442932 
L 346.685134 226.616251 
L 351.361112 226.594311 
L 353.817981 226.724724 
L 356.195597 226.247919 
L 358.652467 225.53428 
L 361.030082 225.57338 
L 365.943822 225.449472 
L 368.321437 226.284878 
L 370.778307 225.893218 
L 373.155923 225.157697 
L 378.069662 224.515918 
L 380.28877 224.050127 
L 382.74564 222.941491 
L 387.580125 222.836901 
L 389.957741 223.581662 
L 392.41461 224.592518 
L 394.87148 224.31509 
L 397.249096 225.223 
L 402.083581 224.390891 
L 404.540451 224.271205 
L 409.216428 224.864238 
L 411.673298 224.655762 
L 414.050914 223.715495 
L 416.507783 223.137823 
L 418.885399 223.035908 
L 426.176754 223.188294 
L 433.468109 220.963635 
L 440.68021 219.857624 
L 443.057826 220.219039 
L 445.514696 219.821827 
L 447.892311 219.229315 
L 450.349181 219.801072 
L 457.640536 218.535766 
L 460.018152 217.58205 
L 462.475021 216.813755 
L 464.931891 217.380863 
L 467.150999 216.91579 
L 469.607869 217.253983 
L 471.985484 217.454614 
L 474.442354 216.679165 
L 476.81997 216.274912 
L 479.276839 215.24022 
L 481.733709 215.504241 
L 484.111325 215.189906 
L 486.568194 215.380107 
L 488.94581 214.535955 
L 491.40268 214.454127 
L 493.859549 213.448695 
L 496.078657 213.121369 
L 498.535527 212.577125 
L 500.913143 212.547023 
L 503.370012 213.088458 
L 508.204498 212.435768 
L 510.661367 211.810892 
L 513.038983 211.369916 
L 515.495853 210.433625 
L 517.873468 209.781301 
L 520.330338 209.659849 
L 522.787208 208.822863 
L 525.006316 209.181315 
L 527.463185 208.92237 
L 532.297671 206.997264 
L 534.675286 207.831707 
L 537.132156 208.899765 
L 539.589026 208.156439 
L 541.966641 207.182636 
L 544.423511 206.374984 
L 546.801127 207.335376 
L 549.257996 207.542748 
L 554.013228 209.799253 
L 556.470098 209.702242 
L 558.847713 208.397572 
L 561.304583 207.788597 
L 563.682199 210.553644 
L 568.595938 208.974363 
L 570.973554 210.607826 
L 573.430423 215.742032 
L 575.808039 217.041719 
L 578.264909 216.370842 
L 580.721778 218.091152 
L 582.940886 220.218598 
L 585.397756 218.831982 
L 587.775372 218.33524 
L 590.232241 217.999772 
L 592.609857 217.560378 
L 595.066727 216.246099 
L 597.523596 216.370375 
L 599.901212 215.700805 
L 602.358082 216.007765 
L 604.735697 214.886944 
L 607.192567 214.264595 
L 609.649437 214.723418 
L 611.868545 214.151022 
L 616.70303 212.476015 
L 619.1599 214.103263 
L 621.537515 214.499097 
L 623.994385 213.524475 
L 626.451255 214.02743 
L 628.82887 212.153699 
L 631.28574 211.583254 
L 633.663356 211.604285 
L 636.120225 210.197809 
L 638.577095 209.827584 
L 640.796203 208.616771 
L 643.253073 207.927761 
L 645.630688 206.728289 
L 648.087558 206.513245 
L 650.465174 206.77586 
L 652.922043 207.619567 
L 655.378913 207.795446 
L 657.756529 209.251772 
L 660.213398 207.053284 
L 662.591014 206.70552 
L 665.047884 205.791243 
L 667.504753 205.416684 
L 669.803115 204.845772 
L 672.259985 204.010244 
L 674.637601 203.532361 
L 677.09447 203.897189 
L 679.472086 202.419322 
L 681.928956 201.868975 
L 684.385825 201.667423 
L 686.763441 200.813447 
L 689.220311 201.135026 
L 691.597926 200.929817 
L 694.054796 201.300896 
L 696.511666 198.879434 
L 698.730774 197.471151 
L 701.187643 195.126105 
L 703.565259 194.018757 
L 706.022129 194.776816 
L 708.399744 194.882946 
L 710.856614 192.872127 
L 713.313484 194.808235 
L 715.691099 193.77587 
L 718.147969 191.789922 
L 720.525585 191.35779 
L 722.982454 190.665306 
L 725.439324 191.510075 
L 727.658432 189.318117 
L 730.115302 189.034482 
L 732.492917 188.600485 
L 734.949787 187.699085 
L 737.327403 186.610334 
L 739.784272 187.929962 
L 742.241142 185.592713 
L 744.618758 186.622131 
L 747.075627 184.000138 
L 749.453243 182.137738 
L 751.910113 182.094453 
L 754.366982 181.679188 
L 756.58609 179.946751 
L 759.04296 180.036443 
L 761.420576 180.345109 
L 763.877445 179.503535 
L 766.255061 180.924163 
L 768.711931 179.260491 
L 771.1688 182.166249 
L 773.546416 182.725624 
L 776.003286 179.66566 
L 780.837771 179.97055 
L 783.294641 181.006917 
L 785.593003 180.000354 
L 788.049872 175.787409 
L 790.427488 175.287721 
L 792.884358 174.206884 
L 795.261973 171.758779 
L 797.718843 170.194232 
L 800.175713 171.577458 
L 802.553328 171.955493 
L 805.010198 173.537807 
L 807.387814 172.684976 
L 809.844683 171.420767 
L 812.301553 169.888979 
L 814.520661 167.206509 
L 816.977531 167.29912 
L 819.355146 166.621358 
L 821.812016 165.348049 
L 824.189632 165.06389 
L 826.646501 164.009518 
L 829.103371 164.08366 
L 831.480987 163.029432 
L 833.937856 161.624524 
L 836.315472 158.691251 
L 838.772342 158.205033 
L 841.229211 155.407309 
L 843.448319 158.998167 
L 845.905189 158.870164 
L 848.282805 158.254891 
L 850.739674 157.27983 
L 853.11729 156.031838 
L 855.57416 153.613466 
L 858.031029 151.697822 
L 860.408645 151.671034 
L 862.865515 156.150707 
L 865.24313 153.792297 
L 867.7 160.854822 
L 867.7 160.854822 
" clip-path="url(#pf946cb92c9)" style="fill: none; stroke-dasharray: 2,3.3; stroke-dashoffset: 0; stroke: #0072b2; stroke-width: 2"/>
   </g>
   <g id="line2d_26">
    <path d="M 30.7 238.24657 
L 35.375978 238.300657 
L 37.753593 238.467073 
L 47.501818 238.606436 
L 49.879434 238.70175 
L 57.170789 238.581265 
L 59.627658 238.615961 
L 61.846766 238.519359 
L 64.303636 238.558762 
L 69.138121 238.476877 
L 71.515737 238.48957 
L 78.807092 238.179119 
L 81.263962 238.217666 
L 83.641578 238.142967 
L 86.098447 237.938961 
L 93.310548 237.859807 
L 102.979519 237.496835 
L 107.814004 237.376127 
L 110.270874 237.476448 
L 117.562229 237.252062 
L 119.781337 237.227374 
L 122.238207 237.075366 
L 124.615822 237.169141 
L 127.072692 237.021233 
L 139.198532 236.882503 
L 144.033018 237.086707 
L 156.00035 237.345986 
L 160.834836 237.2746 
L 163.291705 237.139026 
L 170.503806 237.286004 
L 187.305624 236.72767 
L 192.219364 236.749659 
L 194.596979 236.625218 
L 197.053849 236.706719 
L 199.431465 236.530253 
L 201.888334 236.473913 
L 204.345204 236.247379 
L 211.478051 235.889555 
L 213.934921 235.704508 
L 216.312537 235.709352 
L 218.769406 236.054187 
L 228.438377 235.062979 
L 230.895247 235.043172 
L 233.352116 234.804141 
L 235.571224 234.754676 
L 238.028094 234.926972 
L 240.40571 234.692791 
L 247.697065 233.54393 
L 250.153934 233.693736 
L 252.53155 233.415864 
L 254.98842 233.565528 
L 259.822905 233.015542 
L 262.279775 233.12793 
L 266.955752 232.080978 
L 269.333368 231.959456 
L 271.790238 232.203152 
L 274.167853 232.187407 
L 276.624723 232.669217 
L 279.081593 233.802199 
L 281.459208 232.99032 
L 286.293694 232.828666 
L 288.750563 232.406583 
L 293.426541 232.975416 
L 295.883411 233.045259 
L 298.261026 232.605972 
L 300.717896 232.788846 
L 303.095512 232.764556 
L 305.552381 232.576573 
L 308.009251 232.790985 
L 310.386867 233.278164 
L 315.221352 233.307462 
L 317.678222 233.323436 
L 320.135091 233.714757 
L 322.433453 233.949045 
L 329.724808 233.332006 
L 332.102424 233.587766 
L 334.559294 233.655384 
L 337.016163 233.19721 
L 339.393779 233.252418 
L 341.850649 233.54739 
L 344.228264 233.581717 
L 346.685134 233.258623 
L 349.142004 233.550341 
L 353.817981 233.308843 
L 356.195597 233.320427 
L 358.652467 232.804535 
L 361.030082 232.994514 
L 365.943822 233.000445 
L 368.321437 233.766081 
L 370.778307 233.510987 
L 373.155923 233.008208 
L 375.612792 233.157689 
L 378.069662 233.093615 
L 380.28877 232.640841 
L 387.580125 232.397345 
L 389.957741 232.696797 
L 392.41461 233.124979 
L 394.87148 232.967892 
L 397.249096 233.346108 
L 399.705965 233.121557 
L 402.083581 233.021063 
L 404.540451 233.030787 
L 406.99732 233.210947 
L 409.216428 233.122678 
L 411.673298 232.852212 
L 414.050914 232.84605 
L 416.507783 232.719543 
L 418.885399 232.971095 
L 421.342269 233.419032 
L 423.799138 233.101411 
L 426.176754 233.126158 
L 428.633624 232.703334 
L 431.011239 232.465077 
L 433.468109 232.048444 
L 438.223341 231.748058 
L 440.68021 231.546889 
L 443.057826 231.599516 
L 447.892311 231.195591 
L 450.349181 231.494837 
L 452.806051 231.35052 
L 455.183666 231.062394 
L 457.640536 231.012507 
L 462.475021 230.406943 
L 464.931891 230.555529 
L 467.150999 230.458339 
L 471.985484 230.639959 
L 474.442354 230.270873 
L 476.81997 230.309422 
L 479.276839 229.969352 
L 484.111325 230.114909 
L 486.568194 229.99328 
L 488.94581 229.625152 
L 491.40268 229.586703 
L 493.859549 229.312966 
L 500.913143 228.968923 
L 503.370012 229.175855 
L 505.747628 229.09274 
L 508.204498 228.621588 
L 513.038983 228.182936 
L 515.495853 227.669343 
L 517.873468 227.416174 
L 520.330338 227.390573 
L 522.787208 226.905266 
L 525.006316 227.048345 
L 527.463185 226.869839 
L 529.840801 226.452093 
L 532.297671 225.872702 
L 537.132156 226.640039 
L 544.423511 225.389242 
L 546.801127 225.959366 
L 549.257996 226.011753 
L 551.714866 226.309307 
L 554.013228 226.951572 
L 556.470098 226.812792 
L 558.847713 226.060245 
L 561.304583 225.803277 
L 563.682199 227.046342 
L 568.595938 226.740426 
L 570.973554 227.313323 
L 573.430423 229.966552 
L 575.808039 230.164245 
L 578.264909 229.689576 
L 580.721778 230.11758 
L 582.940886 230.323473 
L 585.397756 229.69845 
L 587.775372 230.526116 
L 590.232241 231.708215 
L 592.609857 231.70374 
L 595.066727 231.394205 
L 597.523596 231.926572 
L 599.901212 231.729979 
L 602.358082 231.669018 
L 604.735697 231.326018 
L 607.192567 231.26356 
L 609.649437 231.675634 
L 611.868545 231.492674 
L 614.325414 231.597316 
L 616.70303 231.244998 
L 619.1599 231.814949 
L 621.537515 231.747531 
L 626.451255 231.86053 
L 628.82887 231.261028 
L 631.28574 231.363059 
L 633.663356 231.656966 
L 636.120225 231.19131 
L 638.577095 231.149002 
L 640.796203 230.981809 
L 645.630688 230.291901 
L 648.087558 230.079915 
L 650.465174 230.075383 
L 652.922043 230.309874 
L 655.378913 230.28668 
L 657.756529 230.424899 
L 665.047884 228.815002 
L 669.803115 228.845708 
L 672.259985 228.715076 
L 674.637601 228.703784 
L 677.09447 228.554519 
L 679.472086 228.172068 
L 681.928956 227.61434 
L 684.385825 227.335681 
L 686.763441 227.18882 
L 689.220311 227.428153 
L 691.597926 227.256529 
L 694.054796 227.869138 
L 696.511666 227.109242 
L 698.730774 226.574954 
L 701.187643 225.673837 
L 703.565259 225.475239 
L 706.022129 225.665874 
L 708.399744 225.691026 
L 710.856614 224.791508 
L 713.313484 226.226235 
L 715.691099 226.228478 
L 718.147969 225.971594 
L 722.982454 225.882704 
L 725.439324 226.306132 
L 727.658432 225.443855 
L 730.115302 225.661316 
L 734.949787 225.736755 
L 737.327403 225.331493 
L 739.784272 225.999229 
L 742.241142 225.584931 
L 744.618758 226.069008 
L 747.075627 225.230734 
L 749.453243 224.874171 
L 754.366982 225.662995 
L 756.58609 225.134065 
L 759.04296 225.535091 
L 761.420576 225.313807 
L 763.877445 225.238069 
L 766.255061 225.375585 
L 768.711931 224.768124 
L 771.1688 225.510821 
L 773.546416 225.427806 
L 776.003286 224.423796 
L 778.380901 224.793542 
L 780.837771 224.481029 
L 783.294641 224.305532 
L 785.593003 224.326164 
L 788.049872 223.534344 
L 790.427488 223.43466 
L 792.884358 223.107234 
L 795.261973 221.818706 
L 797.718843 221.63873 
L 800.175713 221.637235 
L 805.010198 222.408596 
L 809.844683 222.098384 
L 812.301553 221.691182 
L 814.520661 221.088313 
L 819.355146 220.9332 
L 824.189632 220.631767 
L 826.646501 220.584892 
L 829.103371 220.700629 
L 831.480987 220.490254 
L 833.937856 220.034232 
L 836.315472 219.401183 
L 838.772342 219.391598 
L 841.229211 218.65886 
L 843.448319 219.495536 
L 845.905189 219.34256 
L 850.739674 218.661813 
L 853.11729 218.243042 
L 855.57416 217.578302 
L 858.031029 217.644407 
L 860.408645 217.479384 
L 862.865515 218.311896 
L 865.24313 217.6509 
L 867.7 219.405893 
L 867.7 219.405893 
" clip-path="url(#pf946cb92c9)" style="fill: none; stroke: #d55e00; stroke-width: 2; stroke-linecap: square"/>
   </g>
   <g id="line2d_27">
    <path d="M 30.7 238.24657 
L 35.375978 238.247399 
L 37.753593 238.423767 
L 45.044948 238.390265 
L 49.879434 238.662148 
L 57.170789 238.556935 
L 59.627658 238.594795 
L 61.846766 238.499422 
L 66.681252 238.481328 
L 73.972607 238.396367 
L 83.641578 238.188877 
L 86.098447 237.980296 
L 93.310548 237.92735 
L 107.814004 237.464905 
L 110.270874 237.554263 
L 117.562229 237.321888 
L 119.781337 237.292028 
L 122.238207 237.142427 
L 124.615822 237.234735 
L 127.072692 237.089158 
L 139.198532 236.926725 
L 144.033018 237.129164 
L 151.165865 237.286436 
L 156.00035 237.326122 
L 160.834836 237.258222 
L 163.291705 237.120492 
L 170.503806 237.302061 
L 187.305624 236.753868 
L 192.219364 236.777559 
L 194.596979 236.641945 
L 197.053849 236.734991 
L 199.431465 236.552309 
L 201.888334 236.492531 
L 204.345204 236.280049 
L 209.100436 236.055721 
L 213.934921 235.720262 
L 216.312537 235.726088 
L 218.769406 236.069694 
L 228.438377 235.081393 
L 230.895247 235.062407 
L 233.352116 234.827342 
L 235.571224 234.777463 
L 238.028094 234.949737 
L 240.40571 234.717477 
L 247.697065 233.562775 
L 250.153934 233.713655 
L 252.53155 233.429621 
L 254.98842 233.587936 
L 259.822905 233.041676 
L 262.279775 233.145909 
L 266.955752 232.094245 
L 269.333368 231.968563 
L 271.790238 232.214684 
L 274.167853 232.131116 
L 276.624723 232.610568 
L 279.081593 233.746871 
L 281.459208 232.991571 
L 286.293694 232.795433 
L 288.750563 232.45339 
L 293.426541 233.030241 
L 295.883411 233.06904 
L 298.261026 232.584016 
L 300.717896 232.757387 
L 303.095512 232.714413 
L 305.552381 232.506495 
L 308.009251 232.725301 
L 310.386867 233.158333 
L 315.221352 233.247274 
L 317.678222 233.260458 
L 320.135091 233.656829 
L 322.433453 233.895518 
L 329.724808 233.308683 
L 334.559294 233.685527 
L 337.016163 233.262065 
L 344.228264 233.459566 
L 346.685134 233.176365 
L 349.142004 233.498343 
L 353.817981 233.251223 
L 356.195597 233.255279 
L 358.652467 232.725723 
L 361.030082 232.938876 
L 365.943822 232.946557 
L 368.321437 233.718962 
L 370.778307 233.461846 
L 373.155923 232.960976 
L 375.612792 233.106619 
L 378.069662 233.029194 
L 380.28877 232.621038 
L 387.580125 232.396572 
L 389.957741 232.692529 
L 392.41461 233.118555 
L 394.87148 232.972396 
L 397.249096 233.398171 
L 399.705965 233.170131 
L 404.540451 233.068853 
L 406.99732 233.251068 
L 409.216428 233.190271 
L 411.673298 232.928914 
L 414.050914 232.979463 
L 416.507783 232.858038 
L 418.885399 233.102171 
L 421.342269 233.580176 
L 423.799138 233.291274 
L 426.176754 233.306118 
L 428.633624 232.91529 
L 431.011239 232.703171 
L 433.468109 232.297341 
L 447.892311 231.478099 
L 450.349181 231.764498 
L 452.806051 231.625871 
L 455.183666 231.350931 
L 457.640536 231.288629 
L 462.475021 230.680943 
L 464.931891 230.82035 
L 467.150999 230.713543 
L 471.985484 230.892486 
L 474.442354 230.532079 
L 476.81997 230.585043 
L 479.276839 230.310082 
L 484.111325 230.407858 
L 486.568194 230.293671 
L 488.94581 229.868819 
L 491.40268 229.828981 
L 498.535527 229.200799 
L 500.913143 229.244458 
L 503.370012 229.443 
L 505.747628 229.353871 
L 508.204498 228.884959 
L 513.038983 228.451174 
L 515.495853 227.946331 
L 517.873468 227.696637 
L 520.330338 227.665166 
L 522.787208 227.191494 
L 525.006316 227.323709 
L 527.463185 227.149395 
L 529.840801 226.739256 
L 532.297671 226.171362 
L 537.132156 226.931793 
L 544.423511 225.681383 
L 546.801127 226.227039 
L 549.257996 226.27006 
L 551.714866 226.579456 
L 554.013228 227.217317 
L 556.470098 227.084255 
L 558.847713 226.350633 
L 561.304583 226.098506 
L 563.682199 227.290332 
L 568.595938 227.018431 
L 570.973554 227.52853 
L 573.430423 230.09973 
L 575.808039 230.264191 
L 578.264909 229.832103 
L 580.721778 230.223111 
L 582.940886 230.417585 
L 585.397756 229.737148 
L 587.775372 230.798415 
L 590.232241 231.649962 
L 595.066727 231.510201 
L 597.523596 232.030858 
L 602.358082 231.914729 
L 604.735697 231.531845 
L 607.192567 231.449251 
L 609.649437 231.669509 
L 611.868545 231.511186 
L 614.325414 231.578086 
L 616.70303 231.250143 
L 619.1599 231.792755 
L 621.537515 231.710473 
L 626.451255 231.805871 
L 628.82887 231.189221 
L 631.28574 231.292948 
L 633.663356 231.590868 
L 636.120225 231.124365 
L 638.577095 231.065293 
L 640.796203 230.879566 
L 645.630688 230.195448 
L 648.087558 230.000126 
L 650.465174 229.968131 
L 652.922043 230.214091 
L 655.378913 230.173663 
L 657.756529 230.379915 
L 660.213398 229.860673 
L 662.591014 229.567572 
L 665.047884 228.935564 
L 669.803115 228.927579 
L 677.09447 228.568294 
L 684.385825 227.568515 
L 686.763441 227.381322 
L 689.220311 227.370694 
L 691.597926 227.513971 
L 694.054796 228.0521 
L 696.511666 227.285176 
L 698.730774 226.756413 
L 701.187643 225.90913 
L 703.565259 225.744063 
L 706.022129 225.962457 
L 708.399744 225.934909 
L 710.856614 225.054824 
L 713.313484 226.488912 
L 715.691099 226.458331 
L 718.147969 226.168068 
L 722.982454 226.091162 
L 725.439324 226.512486 
L 727.658432 225.649427 
L 730.115302 225.825338 
L 734.949787 225.777784 
L 737.327403 225.43476 
L 739.784272 226.055858 
L 742.241142 225.626688 
L 744.618758 226.062475 
L 747.075627 225.229988 
L 749.453243 224.866783 
L 751.910113 225.300687 
L 754.366982 225.590587 
L 756.58609 225.064572 
L 759.04296 225.468612 
L 761.420576 225.18124 
L 763.877445 225.151832 
L 766.255061 225.456638 
L 768.711931 224.828091 
L 771.1688 225.585051 
L 773.546416 225.491018 
L 776.003286 224.493772 
L 778.380901 224.848615 
L 780.837771 224.646425 
L 783.294641 224.332479 
L 785.593003 224.358115 
L 788.049872 223.522676 
L 790.427488 222.980376 
L 792.884358 223.111206 
L 795.261973 221.773363 
L 797.718843 221.615823 
L 800.175713 221.764129 
L 805.010198 222.458114 
L 809.844683 222.162569 
L 812.301553 221.760948 
L 814.520661 221.205073 
L 819.355146 221.028971 
L 824.189632 220.707555 
L 826.646501 220.659739 
L 829.103371 220.750137 
L 831.480987 220.553099 
L 833.937856 220.090605 
L 836.315472 219.443117 
L 838.772342 219.437097 
L 841.229211 218.730165 
L 843.448319 219.572755 
L 845.905189 219.425075 
L 850.739674 218.763191 
L 853.11729 218.338279 
L 855.57416 217.665003 
L 858.031029 217.721552 
L 860.408645 217.556128 
L 862.865515 218.40064 
L 865.24313 217.743918 
L 867.7 219.496945 
L 867.7 219.496945 
" clip-path="url(#pf946cb92c9)" style="fill: none; stroke-dasharray: 7.4,3.2; stroke-dashoffset: 0; stroke: #cc79a7; stroke-width: 2"/>
   </g>
   <g id="line2d_28">
    <path d="M 30.7 238.24657 
L 35.375978 238.087987 
L 37.753593 238.171832 
L 40.210463 237.920475 
L 45.044948 237.962432 
L 47.501818 238.285554 
L 49.879434 238.478025 
L 52.336303 238.53241 
L 54.713919 238.29493 
L 59.627658 237.991061 
L 61.846766 237.705748 
L 69.138121 237.4073 
L 71.515737 237.493784 
L 76.429476 237.242451 
L 83.641578 237.245926 
L 86.098447 236.886881 
L 90.853679 236.626599 
L 95.688164 236.605823 
L 110.270874 236.133313 
L 115.105359 235.711658 
L 122.238207 235.32943 
L 124.615822 235.444666 
L 127.072692 235.258915 
L 131.907177 235.209587 
L 134.364047 234.938576 
L 139.198532 234.697427 
L 141.576148 234.813102 
L 146.489887 234.438605 
L 148.708995 234.465847 
L 151.165865 234.716512 
L 156.00035 234.64617 
L 158.377966 234.756158 
L 160.834836 234.549524 
L 163.291705 234.219554 
L 165.669321 234.332226 
L 168.126191 234.232822 
L 170.503806 234.490378 
L 175.417546 234.288365 
L 177.636654 233.96251 
L 194.596979 232.264936 
L 197.053849 232.40799 
L 199.431465 232.029524 
L 209.100436 231.353601 
L 213.934921 230.718225 
L 216.312537 230.770576 
L 218.769406 231.410297 
L 223.603892 230.533811 
L 226.060761 230.335424 
L 228.438377 229.615883 
L 230.895247 229.610995 
L 233.352116 229.225373 
L 235.571224 229.118223 
L 238.028094 229.495899 
L 240.40571 229.199112 
L 242.862579 228.338647 
L 245.240195 227.786213 
L 247.697065 226.781815 
L 250.153934 226.841225 
L 252.53155 225.995905 
L 254.98842 226.518508 
L 259.822905 225.798607 
L 262.279775 225.790034 
L 264.498883 224.637285 
L 266.955752 223.865145 
L 269.333368 223.702502 
L 271.790238 224.255457 
L 274.167853 224.158274 
L 276.624723 224.974977 
L 279.081593 227.349832 
L 281.459208 226.422749 
L 283.916078 225.297782 
L 288.750563 223.931367 
L 291.207433 223.952056 
L 293.426541 224.628209 
L 295.883411 224.400939 
L 298.261026 222.815344 
L 300.717896 222.737406 
L 303.095512 222.074089 
L 308.009251 222.898259 
L 310.386867 223.504879 
L 312.843736 223.064482 
L 315.221352 222.871439 
L 317.678222 222.127782 
L 320.135091 222.805607 
L 322.433453 222.777611 
L 324.890323 221.345462 
L 327.267939 220.977101 
L 329.724808 220.826003 
L 332.102424 220.882561 
L 334.559294 220.480811 
L 337.016163 219.290414 
L 339.393779 219.326241 
L 341.850649 218.96053 
L 344.228264 219.437361 
L 346.685134 217.83252 
L 349.142004 217.276416 
L 351.361112 217.958448 
L 353.817981 218.52753 
L 356.195597 216.94716 
L 358.652467 216.067833 
L 361.030082 216.057857 
L 363.486952 215.919911 
L 365.943822 216.291309 
L 368.321437 218.586255 
L 370.778307 217.772038 
L 373.155923 215.930719 
L 375.612792 214.78163 
L 380.28877 214.026826 
L 382.74564 212.093396 
L 387.580125 212.472939 
L 389.957741 213.933976 
L 392.41461 216.288586 
L 394.87148 215.98582 
L 397.249096 217.754545 
L 399.705965 216.860266 
L 402.083581 214.954925 
L 404.540451 215.945712 
L 406.99732 216.589559 
L 409.216428 217.030611 
L 411.673298 216.890522 
L 416.507783 212.807652 
L 418.885399 212.426301 
L 421.342269 211.284794 
L 423.799138 209.968828 
L 426.176754 210.46563 
L 428.633624 208.253869 
L 431.011239 207.205495 
L 433.468109 205.68095 
L 435.924979 205.11671 
L 438.223341 204.362357 
L 440.68021 203.988194 
L 443.057826 204.952589 
L 445.514696 204.149162 
L 447.892311 202.77727 
L 450.349181 204.14336 
L 452.806051 203.944324 
L 455.183666 202.746794 
L 457.640536 201.856075 
L 460.018152 199.375072 
L 462.475021 197.822547 
L 464.931891 198.894208 
L 467.150999 197.709756 
L 469.607869 198.523668 
L 471.985484 199.596038 
L 474.442354 197.688819 
L 476.81997 196.835107 
L 479.276839 194.3298 
L 481.733709 194.779176 
L 484.111325 194.098696 
L 486.568194 194.825734 
L 488.94581 192.664719 
L 491.40268 192.471458 
L 493.859549 189.824977 
L 496.078657 189.463972 
L 498.535527 188.011788 
L 500.913143 187.397849 
L 503.370012 189.226344 
L 505.747628 188.90404 
L 508.204498 189.513507 
L 513.038983 187.117824 
L 515.495853 185.058629 
L 517.873468 183.297725 
L 520.330338 183.364377 
L 522.787208 181.659174 
L 525.006316 181.834868 
L 527.463185 181.368866 
L 529.840801 179.313062 
L 532.297671 176.963865 
L 534.675286 178.115485 
L 537.132156 180.130946 
L 539.589026 179.124405 
L 541.966641 177.139988 
L 544.423511 175.562383 
L 546.801127 178.050386 
L 549.257996 178.467409 
L 551.714866 181.321465 
L 554.013228 182.918235 
L 556.470098 183.007334 
L 558.847713 179.93733 
L 561.304583 178.089046 
L 563.682199 183.557236 
L 566.139068 183.42437 
L 568.595938 182.020767 
L 570.973554 186.776963 
L 573.430423 197.003398 
L 575.808039 200.290886 
L 578.264909 198.502952 
L 580.721778 202.032655 
L 582.940886 205.976568 
L 585.397756 202.635937 
L 587.775372 197.641056 
L 590.232241 195.834602 
L 592.609857 195.754074 
L 595.066727 191.786216 
L 599.901212 187.517667 
L 602.358082 189.381983 
L 604.735697 186.528287 
L 607.192567 184.209846 
L 609.649437 185.93901 
L 611.868545 183.792193 
L 614.325414 180.18116 
L 616.70303 177.819861 
L 619.1599 182.299333 
L 621.537515 185.279021 
L 623.994385 181.732265 
L 626.451255 184.266158 
L 628.82887 178.718486 
L 631.28574 176.483972 
L 633.663356 175.852244 
L 636.120225 171.17252 
L 638.577095 169.799677 
L 640.796203 167.111885 
L 643.253073 166.166806 
L 645.630688 163.805658 
L 648.087558 164.091696 
L 650.465174 165.454334 
L 652.922043 168.089108 
L 655.378913 171.705911 
L 657.756529 177.408184 
L 660.213398 169.8863 
L 662.591014 169.865421 
L 665.047884 169.314223 
L 667.504753 165.185285 
L 669.803115 162.547755 
L 672.259985 160.531442 
L 674.637601 160.630159 
L 677.09447 165.267181 
L 679.472086 162.95285 
L 681.928956 162.611107 
L 684.385825 160.541624 
L 686.763441 158.69334 
L 689.220311 158.942806 
L 691.597926 157.941091 
L 694.054796 156.563117 
L 696.511666 150.78306 
L 698.730774 149.298282 
L 701.187643 145.309457 
L 706.022129 142.131703 
L 708.399744 143.590375 
L 710.856614 138.577014 
L 713.313484 141.67671 
L 718.147969 133.440266 
L 720.525585 130.935336 
L 722.982454 128.000351 
L 725.439324 130.00759 
L 727.658432 124.573866 
L 730.115302 124.104179 
L 732.492917 124.329159 
L 734.949787 121.619489 
L 737.327403 118.596944 
L 739.784272 121.789635 
L 742.241142 116.373892 
L 744.618758 119.611971 
L 747.075627 114.980434 
L 749.453243 111.292076 
L 751.910113 111.257205 
L 754.366982 113.186233 
L 756.58609 106.870052 
L 759.04296 107.56318 
L 761.420576 107.748314 
L 763.877445 105.949005 
L 766.255061 108.702132 
L 768.711931 106.540945 
L 771.1688 113.649712 
L 773.546416 117.328408 
L 776.003286 109.43274 
L 778.380901 108.80407 
L 780.837771 111.547058 
L 783.294641 118.13185 
L 785.593003 116.570874 
L 788.049872 106.9559 
L 790.427488 105.165236 
L 792.884358 102.688636 
L 795.261973 101.819825 
L 797.718843 96.553747 
L 800.175713 96.257455 
L 802.553328 96.198613 
L 805.010198 99.702285 
L 807.387814 93.073084 
L 809.844683 90.859292 
L 812.301553 86.721924 
L 814.520661 81.208954 
L 816.977531 81.172715 
L 819.355146 79.839717 
L 821.812016 77.386887 
L 824.189632 76.141654 
L 826.646501 73.531576 
L 829.103371 73.85515 
L 831.480987 69.653063 
L 833.937856 66.354001 
L 836.315472 60.246378 
L 838.772342 58.158727 
L 841.229211 50.177906 
L 843.448319 58.358253 
L 845.905189 59.360783 
L 848.282805 59.019283 
L 850.739674 55.591555 
L 853.11729 54.265937 
L 855.57416 48.110454 
L 858.031029 43.768954 
L 860.408645 43.728541 
L 862.865515 57.807976 
L 865.24313 52.789644 
L 867.7 69.878791 
L 867.7 69.878791 
" clip-path="url(#pf946cb92c9)" style="fill: none; stroke-dasharray: 12.8,3.2,2,3.2; stroke-dashoffset: 0; stroke: #f0e442; stroke-width: 2"/>
   </g>
   <g id="line2d_29">
    <path d="M 30.7 238.24657 
L 35.375978 238.26302 
L 37.753593 238.397133 
L 47.501818 238.423419 
L 49.879434 238.506949 
L 57.170789 238.43795 
L 59.627658 238.544615 
L 69.138121 238.182953 
L 71.515737 238.272179 
L 76.429476 238.063973 
L 83.641578 238.076998 
L 86.098447 237.766822 
L 90.853679 237.548291 
L 95.688164 237.546819 
L 110.270874 237.165586 
L 115.105359 236.815504 
L 122.238207 236.502061 
L 124.615822 236.610227 
L 127.072692 236.443033 
L 134.364047 236.305538 
L 139.198532 236.044171 
L 141.576148 236.226526 
L 146.489887 236.130569 
L 158.377966 236.313374 
L 163.291705 235.92719 
L 170.503806 236.093996 
L 182.471139 235.447065 
L 184.928009 235.275535 
L 199.431465 234.935725 
L 206.643566 234.440847 
L 211.478051 234.088658 
L 213.934921 233.802804 
L 216.312537 233.733432 
L 218.769406 234.166159 
L 221.226276 233.88517 
L 226.060761 233.522325 
L 228.438377 233.224725 
L 233.352116 232.997966 
L 235.571224 232.891336 
L 238.028094 233.098954 
L 240.40571 232.866998 
L 247.697065 231.558136 
L 250.153934 231.670835 
L 252.53155 231.138491 
L 254.98842 231.394213 
L 259.822905 230.805582 
L 262.279775 230.838646 
L 264.498883 230.114692 
L 266.955752 229.537547 
L 269.333368 229.471041 
L 271.790238 229.77653 
L 274.167853 229.69443 
L 276.624723 230.211986 
L 279.081593 231.648069 
L 283.916078 230.401905 
L 288.750563 229.708111 
L 293.426541 230.33212 
L 295.883411 230.259141 
L 298.261026 229.333862 
L 300.717896 229.25995 
L 303.095512 229.073055 
L 308.009251 229.807973 
L 310.386867 230.224803 
L 312.843736 230.011914 
L 315.221352 230.193449 
L 317.678222 230.23022 
L 322.433453 231.340194 
L 324.890323 230.413003 
L 327.267939 230.081774 
L 329.724808 229.878811 
L 334.559294 229.686425 
L 337.016163 229.138161 
L 341.850649 228.829242 
L 344.228264 228.804527 
L 346.685134 228.112136 
L 353.817981 228.222056 
L 356.195597 227.877422 
L 358.652467 227.24329 
L 361.030082 227.34863 
L 365.943822 227.212753 
L 368.321437 227.643356 
L 370.778307 227.328442 
L 373.155923 226.820396 
L 375.612792 226.732014 
L 378.069662 226.456227 
L 380.28877 226.051615 
L 382.74564 225.089454 
L 385.123255 225.228542 
L 387.580125 225.098661 
L 389.957741 225.827575 
L 392.41461 226.335058 
L 394.87148 226.16232 
L 397.249096 226.803545 
L 399.705965 226.410393 
L 402.083581 226.325528 
L 404.540451 225.998677 
L 406.99732 226.296528 
L 409.216428 226.370639 
L 414.050914 225.595733 
L 418.885399 225.668114 
L 421.342269 226.275358 
L 423.799138 226.736358 
L 426.176754 226.618543 
L 428.633624 226.191294 
L 433.468109 225.043373 
L 440.68021 224.214189 
L 443.057826 224.463203 
L 447.892311 223.706673 
L 450.349181 224.177708 
L 452.806051 223.754288 
L 457.640536 223.268009 
L 462.475021 222.242332 
L 464.931891 222.670255 
L 467.150999 222.364017 
L 469.607869 222.567091 
L 471.985484 222.48828 
L 476.81997 221.735952 
L 479.276839 221.03627 
L 481.733709 221.207452 
L 486.568194 221.027022 
L 488.94581 220.574324 
L 491.40268 220.482102 
L 493.859549 219.823645 
L 496.078657 219.713075 
L 498.535527 219.407568 
L 500.913143 219.551744 
L 503.370012 219.821629 
L 505.747628 219.498433 
L 508.204498 218.838014 
L 513.038983 218.208113 
L 515.495853 217.613176 
L 517.873468 217.363547 
L 520.330338 217.369155 
L 522.787208 217.026316 
L 525.006316 217.31292 
L 527.463185 217.085734 
L 532.297671 215.769462 
L 537.132156 217.063612 
L 539.589026 216.501524 
L 541.966641 215.770792 
L 544.423511 215.175232 
L 546.801127 215.69638 
L 549.257996 215.863355 
L 554.013228 217.51511 
L 556.470098 217.488261 
L 558.847713 216.986864 
L 561.304583 216.621497 
L 563.682199 218.277548 
L 568.595938 217.23218 
L 570.973554 217.75786 
L 573.430423 220.909837 
L 575.808039 221.0437 
L 578.264909 220.865597 
L 580.721778 221.49896 
L 582.940886 222.759891 
L 585.397756 221.944292 
L 587.775372 223.764438 
L 590.232241 223.944925 
L 592.609857 223.737852 
L 595.066727 223.097021 
L 597.523596 223.780376 
L 599.901212 223.346549 
L 602.358082 223.44747 
L 604.735697 222.683283 
L 607.192567 222.490165 
L 609.649437 222.75458 
L 614.325414 222.445164 
L 616.70303 222.047302 
L 619.1599 222.941362 
L 623.994385 222.680032 
L 626.451255 222.846848 
L 628.82887 221.770645 
L 631.28574 221.589897 
L 633.663356 221.734947 
L 636.120225 220.847774 
L 638.577095 220.978827 
L 640.796203 220.312997 
L 643.253073 219.819975 
L 645.630688 219.083506 
L 648.087558 218.721968 
L 650.465174 218.726021 
L 652.922043 219.201659 
L 655.378913 218.752943 
L 657.756529 219.165947 
L 660.213398 218.541789 
L 662.591014 218.118403 
L 665.047884 217.037476 
L 667.504753 217.478058 
L 669.803115 217.426755 
L 672.259985 216.910113 
L 677.09447 216.365426 
L 679.472086 215.366672 
L 684.385825 215.187811 
L 686.763441 214.673272 
L 691.597926 215.029761 
L 694.054796 215.779916 
L 696.511666 214.057639 
L 698.730774 212.96098 
L 701.187643 211.335919 
L 703.565259 210.616805 
L 706.022129 211.637282 
L 708.399744 211.81551 
L 710.856614 210.905774 
L 713.313484 212.67664 
L 715.691099 212.486695 
L 718.147969 211.519914 
L 722.982454 210.735786 
L 725.439324 210.943105 
L 727.658432 209.513746 
L 730.115302 209.535389 
L 737.327403 208.504208 
L 739.784272 209.302844 
L 742.241142 207.934012 
L 744.618758 208.288348 
L 747.075627 206.823143 
L 749.453243 205.894535 
L 751.910113 206.498747 
L 754.366982 206.28947 
L 756.58609 205.439708 
L 759.04296 205.693013 
L 761.420576 205.586976 
L 763.877445 205.337754 
L 766.255061 206.281043 
L 768.711931 205.503006 
L 771.1688 207.041528 
L 773.546416 207.088362 
L 776.003286 205.443959 
L 778.380901 205.765246 
L 780.837771 205.470389 
L 783.294641 204.816288 
L 785.593003 204.343733 
L 788.049872 202.357992 
L 790.427488 201.631435 
L 792.884358 201.643235 
L 795.261973 199.461417 
L 797.718843 199.296656 
L 800.175713 200.548003 
L 802.553328 200.839487 
L 805.010198 201.63655 
L 807.387814 201.738967 
L 809.844683 200.844077 
L 812.301553 199.736148 
L 814.520661 198.478168 
L 816.977531 198.800539 
L 819.355146 198.726066 
L 821.812016 197.95641 
L 824.189632 197.361046 
L 826.646501 197.069134 
L 831.480987 197.121651 
L 833.937856 196.287475 
L 836.315472 194.833557 
L 838.772342 194.861027 
L 841.229211 193.566778 
L 843.448319 195.219161 
L 848.282805 194.335891 
L 850.739674 193.753956 
L 853.11729 192.650688 
L 855.57416 191.96367 
L 858.031029 190.706613 
L 860.408645 191.289355 
L 862.865515 192.895249 
L 865.24313 192.114946 
L 867.7 195.747501 
L 867.7 195.747501 
" clip-path="url(#pf946cb92c9)" style="fill: none; stroke: #1f77b4; stroke-width: 2; stroke-linecap: square"/>
   </g>
   <g id="line2d_30">
    <path d="M 0 0 
" clip-path="url(#pf946cb92c9)" style="fill: none; stroke-dasharray: 7.4,3.2; stroke-dashoffset: 0; stroke: #aec7e8; stroke-width: 2"/>
   </g>
   <g id="line2d_31">
    <path d="M 0 0 
" clip-path="url(#pf946cb92c9)" style="fill: none; stroke-dasharray: 12.8,3.2,2,3.2; stroke-dashoffset: 0; stroke: #ff7f0e; stroke-width: 2"/>
   </g>
   <g id="line2d_32">
    <path d="M 30.7 238.24657 
L 35.375978 238.297241 
L 37.753593 238.425961 
L 49.879434 238.486849 
L 54.713919 238.258558 
L 57.170789 238.231854 
L 59.627658 238.357352 
L 64.303636 238.113673 
L 73.972607 238.028021 
L 83.641578 237.629346 
L 86.098447 237.503019 
L 90.853679 237.667743 
L 95.688164 237.587429 
L 107.814004 237.15426 
L 112.64849 237.281816 
L 119.781337 236.783899 
L 124.615822 236.700559 
L 131.907177 236.641223 
L 136.741663 236.441295 
L 139.198532 236.361632 
L 141.576148 236.622391 
L 146.489887 236.604395 
L 151.165865 236.832474 
L 153.543481 236.7446 
L 156.00035 236.937253 
L 158.377966 236.988804 
L 163.291705 236.722219 
L 170.503806 236.749954 
L 182.471139 236.525113 
L 187.305624 236.365626 
L 189.762494 236.462463 
L 192.219364 236.424007 
L 197.053849 236.223898 
L 199.431465 236.176922 
L 204.345204 235.849303 
L 206.643566 235.92497 
L 209.100436 235.889611 
L 211.478051 235.993795 
L 216.312537 235.750294 
L 218.769406 236.052889 
L 221.226276 235.937809 
L 223.603892 235.938086 
L 230.895247 235.48147 
L 233.352116 235.571947 
L 235.571224 235.516265 
L 240.40571 235.616768 
L 245.240195 235.124045 
L 247.697065 235.028396 
L 250.153934 235.074004 
L 252.53155 234.826508 
L 254.98842 234.769285 
L 259.822905 234.216842 
L 262.279775 234.318452 
L 264.498883 234.206351 
L 266.955752 233.796559 
L 271.790238 234.015585 
L 274.167853 234.008393 
L 276.624723 234.409391 
L 279.081593 234.306265 
L 281.459208 233.823887 
L 283.916078 234.1009 
L 288.750563 233.996454 
L 295.883411 234.949818 
L 298.261026 234.482092 
L 300.717896 234.255976 
L 317.678222 235.070395 
L 320.135091 235.253993 
L 322.433453 235.586505 
L 324.890323 235.339802 
L 327.267939 234.888944 
L 334.559294 234.675319 
L 337.016163 234.400975 
L 339.393779 233.999574 
L 341.850649 234.03193 
L 346.685134 233.471276 
L 349.142004 233.714934 
L 361.030082 233.009449 
L 363.486952 233.126861 
L 365.943822 232.913906 
L 368.321437 232.991564 
L 373.155923 232.814375 
L 380.28877 232.773234 
L 382.74564 232.383083 
L 387.580125 232.435474 
L 392.41461 233.111208 
L 394.87148 233.011613 
L 397.249096 233.373102 
L 404.540451 233.011578 
L 406.99732 233.149601 
L 409.216428 233.103989 
L 414.050914 232.630357 
L 416.507783 232.383129 
L 418.885399 232.307995 
L 423.799138 232.460301 
L 426.176754 232.239257 
L 428.633624 232.24233 
L 435.924979 231.23766 
L 440.68021 230.982666 
L 443.057826 231.432602 
L 445.514696 231.195909 
L 447.892311 231.085768 
L 450.349181 231.315152 
L 452.806051 230.934663 
L 455.183666 230.982973 
L 462.475021 230.153181 
L 464.931891 230.585233 
L 467.150999 230.512324 
L 469.607869 230.624796 
L 474.442354 230.22021 
L 476.81997 230.100534 
L 479.276839 229.835442 
L 481.733709 229.976772 
L 486.568194 230.010608 
L 488.94581 229.83118 
L 491.40268 229.926955 
L 498.535527 229.321452 
L 500.913143 229.479535 
L 503.370012 229.487378 
L 505.747628 229.319653 
L 508.204498 228.735686 
L 510.661367 228.353881 
L 513.038983 228.252197 
L 515.495853 227.941841 
L 522.787208 227.512266 
L 525.006316 227.749279 
L 527.463185 227.815068 
L 532.297671 227.565299 
L 537.132156 228.62599 
L 539.589026 228.155735 
L 541.966641 227.897039 
L 546.801127 227.911433 
L 549.257996 228.334301 
L 551.714866 228.573279 
L 554.013228 229.107755 
L 558.847713 229.023148 
L 561.304583 229.079402 
L 563.682199 230.054625 
L 566.139068 229.3802 
L 568.595938 228.951992 
L 570.973554 228.774447 
L 573.430423 229.802972 
L 575.808039 229.910427 
L 580.721778 230.338675 
L 582.940886 231.049188 
L 585.397756 230.710729 
L 587.775372 231.893169 
L 590.232241 232.324033 
L 592.609857 231.864746 
L 595.066727 231.612648 
L 597.523596 231.808346 
L 602.358082 231.689572 
L 604.735697 231.272428 
L 607.192567 231.102717 
L 609.649437 231.150583 
L 616.70303 230.748199 
L 619.1599 231.132772 
L 626.451255 230.692682 
L 628.82887 230.32345 
L 631.28574 230.226441 
L 633.663356 230.365674 
L 636.120225 230.088118 
L 638.577095 230.143912 
L 640.796203 229.754702 
L 643.253073 229.529894 
L 645.630688 229.060949 
L 648.087558 228.807698 
L 650.465174 228.846907 
L 652.922043 229.023996 
L 655.378913 228.514923 
L 657.756529 228.48801 
L 662.591014 227.992445 
L 665.047884 227.371161 
L 667.504753 227.765771 
L 669.803115 227.823532 
L 672.259985 227.361508 
L 677.09447 226.720465 
L 679.472086 226.094721 
L 681.928956 225.858711 
L 684.385825 226.122246 
L 686.763441 225.918205 
L 691.597926 225.9 
L 694.054796 226.279642 
L 701.187643 223.649639 
L 703.565259 223.057361 
L 706.022129 224.015498 
L 708.399744 223.775517 
L 710.856614 223.162115 
L 713.313484 224.125813 
L 715.691099 224.005479 
L 718.147969 223.190692 
L 725.439324 223.25411 
L 727.658432 222.714766 
L 732.492917 221.784959 
L 734.949787 221.728878 
L 737.327403 221.528156 
L 739.784272 222.170561 
L 742.241142 221.362409 
L 744.618758 221.579917 
L 747.075627 220.190791 
L 749.453243 219.52853 
L 751.910113 219.338102 
L 754.366982 218.714448 
L 756.58609 219.070214 
L 759.04296 218.802681 
L 761.420576 219.355478 
L 763.877445 219.112018 
L 766.255061 219.841805 
L 768.711931 218.536584 
L 771.1688 219.252751 
L 773.546416 218.587049 
L 776.003286 218.068413 
L 778.380901 218.047367 
L 780.837771 217.622337 
L 783.294641 217.026997 
L 785.593003 216.791701 
L 788.049872 215.250179 
L 790.427488 215.634755 
L 792.884358 215.132679 
L 795.261973 213.168744 
L 797.718843 213.334129 
L 800.175713 214.396187 
L 805.010198 215.122439 
L 807.387814 215.429361 
L 809.844683 214.153056 
L 812.301553 214.076685 
L 814.520661 212.874027 
L 816.977531 213.26649 
L 819.355146 213.300937 
L 826.646501 212.867148 
L 829.103371 213.015101 
L 831.480987 213.30666 
L 833.937856 213.169596 
L 836.315472 212.046907 
L 841.229211 212.617349 
L 843.448319 214.239531 
L 845.905189 213.879477 
L 848.282805 213.201444 
L 850.739674 213.548431 
L 853.11729 212.54039 
L 858.031029 211.003431 
L 860.408645 211.330922 
L 862.865515 210.719596 
L 865.24313 209.600988 
L 867.7 211.698059 
L 867.7 211.698059 
" clip-path="url(#pf946cb92c9)" style="fill: none; stroke-dasharray: 2,3.3; stroke-dashoffset: 0; stroke: #ffbb78; stroke-width: 2"/>
   </g>
   <g id="patch_3">
    <path d="M 30.7 238.70175 
L 30.7 16.94175 
" style="fill: none; stroke: #000000; stroke-width: 0.8; stroke-linejoin: miter; stroke-linecap: square"/>
   </g>
   <g id="patch_4">
    <path d="M 30.7 238.70175 
L 867.7 238.70175 
" style="fill: none; stroke: #000000; stroke-width: 0.8; stroke-linejoin: miter; stroke-linecap: square"/>
   </g>
   <g id="text_15">
    <!-- 500_LTOTMKUS - Performance -->
    <g transform="translate(340.99075 10.94175) scale(0.144 -0.144)">
     <defs>
      <path id="DejaVuSans-5f" d="M 3263 -1063 
L 3263 -1509 
L -63 -1509 
L -63 -1063 
L 3263 -1063 
z
" transform="scale(0.015625)"/>
      <path id="DejaVuSans-4c" d="M 628 4666 
L 1259 4666 
L 1259 531 
L 3531 531 
L 3531 0 
L 628 0 
L 628 4666 
z
" transform="scale(0.015625)"/>
      <path id="DejaVuSans-54" d="M -19 4666 
L 3928 4666 
L 3928 4134 
L 2272 4134 
L 2272 0 
L 1638 0 
L 1638 4134 
L -19 4134 
L -19 4666 
z
" transform="scale(0.015625)"/>
      <path id="DejaVuSans-4f" d="M 2522 4238 
Q 1834 4238 1429 3725 
Q 1025 3213 1025 2328 
Q 1025 1447 1429 934 
Q 1834 422 2522 422 
Q 3209 422 3611 934 
Q 4013 1447 4013 2328 
Q 4013 3213 3611 3725 
Q 3209 4238 2522 4238 
z
M 2522 4750 
Q 3503 4750 4090 4092 
Q 4678 3434 4678 2328 
Q 4678 1225 4090 567 
Q 3503 -91 2522 -91 
Q 1538 -91 948 565 
Q 359 1222 359 2328 
Q 359 3434 948 4092 
Q 1538 4750 2522 4750 
z
" transform="scale(0.015625)"/>
      <path id="DejaVuSans-4d" d="M 628 4666 
L 1569 4666 
L 2759 1491 
L 3956 4666 
L 4897 4666 
L 4897 0 
L 4281 0 
L 4281 4097 
L 3078 897 
L 2444 897 
L 1241 4097 
L 1241 0 
L 628 0 
L 628 4666 
z
" transform="scale(0.015625)"/>
      <path id="DejaVuSans-4b" d="M 628 4666 
L 1259 4666 
L 1259 2694 
L 3353 4666 
L 4166 4666 
L 1850 2491 
L 4331 0 
L 3500 0 
L 1259 2247 
L 1259 0 
L 628 0 
L 628 4666 
z
" transform="scale(0.015625)"/>
      <path id="DejaVuSans-55" d="M 556 4666 
L 1191 4666 
L 1191 1831 
Q 1191 1081 1462 751 
Q 1734 422 2344 422 
Q 2950 422 3222 751 
Q 3494 1081 3494 1831 
L 3494 4666 
L 4128 4666 
L 4128 1753 
Q 4128 841 3676 375 
Q 3225 -91 2344 -91 
Q 1459 -91 1007 375 
Q 556 841 556 1753 
L 556 4666 
z
" transform="scale(0.015625)"/>
      <path id="DejaVuSans-53" d="M 3425 4513 
L 3425 3897 
Q 3066 4069 2747 4153 
Q 2428 4238 2131 4238 
Q 1616 4238 1336 4038 
Q 1056 3838 1056 3469 
Q 1056 3159 1242 3001 
Q 1428 2844 1947 2747 
L 2328 2669 
Q 3034 2534 3370 2195 
Q 3706 1856 3706 1288 
Q 3706 609 3251 259 
Q 2797 -91 1919 -91 
Q 1588 -91 1214 -16 
Q 841 59 441 206 
L 441 856 
Q 825 641 1194 531 
Q 1563 422 1919 422 
Q 2459 422 2753 634 
Q 3047 847 3047 1241 
Q 3047 1584 2836 1778 
Q 2625 1972 2144 2069 
L 1759 2144 
Q 1053 2284 737 2584 
Q 422 2884 422 3419 
Q 422 4038 858 4394 
Q 1294 4750 2059 4750 
Q 2388 4750 2728 4690 
Q 3069 4631 3425 4513 
z
" transform="scale(0.015625)"/>
      <path id="DejaVuSans-20" transform="scale(0.015625)"/>
      <path id="DejaVuSans-2d" d="M 313 2009 
L 1997 2009 
L 1997 1497 
L 313 1497 
L 313 2009 
z
" transform="scale(0.015625)"/>
      <path id="DejaVuSans-50" d="M 1259 4147 
L 1259 2394 
L 2053 2394 
Q 2494 2394 2734 2622 
Q 2975 2850 2975 3272 
Q 2975 3691 2734 3919 
Q 2494 4147 2053 4147 
L 1259 4147 
z
M 628 4666 
L 2053 4666 
Q 2838 4666 3239 4311 
Q 3641 3956 3641 3272 
Q 3641 2581 3239 2228 
Q 2838 1875 2053 1875 
L 1259 1875 
L 1259 0 
L 628 0 
L 628 4666 
z
" transform="scale(0.015625)"/>
      <path id="DejaVuSans-65" d="M 3597 1894 
L 3597 1613 
L 953 1613 
Q 991 1019 1311 708 
Q 1631 397 2203 397 
Q 2534 397 2845 478 
Q 3156 559 3463 722 
L 3463 178 
Q 3153 47 2828 -22 
Q 2503 -91 2169 -91 
Q 1331 -91 842 396 
Q 353 884 353 1716 
Q 353 2575 817 3079 
Q 1281 3584 2069 3584 
Q 2775 3584 3186 3129 
Q 3597 2675 3597 1894 
z
M 3022 2063 
Q 3016 2534 2758 2815 
Q 2500 3097 2075 3097 
Q 1594 3097 1305 2825 
Q 1016 2553 972 2059 
L 3022 2063 
z
" transform="scale(0.015625)"/>
      <path id="DejaVuSans-72" d="M 2631 2963 
Q 2534 3019 2420 3045 
Q 2306 3072 2169 3072 
Q 1681 3072 1420 2755 
Q 1159 2438 1159 1844 
L 1159 0 
L 581 0 
L 581 3500 
L 1159 3500 
L 1159 2956 
Q 1341 3275 1631 3429 
Q 1922 3584 2338 3584 
Q 2397 3584 2469 3576 
Q 2541 3569 2628 3553 
L 2631 2963 
z
" transform="scale(0.015625)"/>
      <path id="DejaVuSans-66" d="M 2375 4863 
L 2375 4384 
L 1825 4384 
Q 1516 4384 1395 4259 
Q 1275 4134 1275 3809 
L 1275 3500 
L 2222 3500 
L 2222 3053 
L 1275 3053 
L 1275 0 
L 697 0 
L 697 3053 
L 147 3053 
L 147 3500 
L 697 3500 
L 697 3744 
Q 697 4328 969 4595 
Q 1241 4863 1831 4863 
L 2375 4863 
z
" transform="scale(0.015625)"/>
      <path id="DejaVuSans-6f" d="M 1959 3097 
Q 1497 3097 1228 2736 
Q 959 2375 959 1747 
Q 959 1119 1226 758 
Q 1494 397 1959 397 
Q 2419 397 2687 759 
Q 2956 1122 2956 1747 
Q 2956 2369 2687 2733 
Q 2419 3097 1959 3097 
z
M 1959 3584 
Q 2709 3584 3137 3096 
Q 3566 2609 3566 1747 
Q 3566 888 3137 398 
Q 2709 -91 1959 -91 
Q 1206 -91 779 398 
Q 353 888 353 1747 
Q 353 2609 779 3096 
Q 1206 3584 1959 3584 
z
" transform="scale(0.015625)"/>
      <path id="DejaVuSans-6d" d="M 3328 2828 
Q 3544 3216 3844 3400 
Q 4144 3584 4550 3584 
Q 5097 3584 5394 3201 
Q 5691 2819 5691 2113 
L 5691 0 
L 5113 0 
L 5113 2094 
Q 5113 2597 4934 2840 
Q 4756 3084 4391 3084 
Q 3944 3084 3684 2787 
Q 3425 2491 3425 1978 
L 3425 0 
L 2847 0 
L 2847 2094 
Q 2847 2600 2669 2842 
Q 2491 3084 2119 3084 
Q 1678 3084 1418 2786 
Q 1159 2488 1159 1978 
L 1159 0 
L 581 0 
L 581 3500 
L 1159 3500 
L 1159 2956 
Q 1356 3278 1631 3431 
Q 1906 3584 2284 3584 
Q 2666 3584 2933 3390 
Q 3200 3197 3328 2828 
z
" transform="scale(0.015625)"/>
      <path id="DejaVuSans-61" d="M 2194 1759 
Q 1497 1759 1228 1600 
Q 959 1441 959 1056 
Q 959 750 1161 570 
Q 1363 391 1709 391 
Q 2188 391 2477 730 
Q 2766 1069 2766 1631 
L 2766 1759 
L 2194 1759 
z
M 3341 1997 
L 3341 0 
L 2766 0 
L 2766 531 
Q 2569 213 2275 61 
Q 1981 -91 1556 -91 
Q 1019 -91 701 211 
Q 384 513 384 1019 
Q 384 1609 779 1909 
Q 1175 2209 1959 2209 
L 2766 2209 
L 2766 2266 
Q 2766 2663 2505 2880 
Q 2244 3097 1772 3097 
Q 1472 3097 1187 3025 
Q 903 2953 641 2809 
L 641 3341 
Q 956 3463 1253 3523 
Q 1550 3584 1831 3584 
Q 2591 3584 2966 3190 
Q 3341 2797 3341 1997 
z
" transform="scale(0.015625)"/>
      <path id="DejaVuSans-6e" d="M 3513 2113 
L 3513 0 
L 2938 0 
L 2938 2094 
Q 2938 2591 2744 2837 
Q 2550 3084 2163 3084 
Q 1697 3084 1428 2787 
Q 1159 2491 1159 1978 
L 1159 0 
L 581 0 
L 581 3500 
L 1159 3500 
L 1159 2956 
Q 1366 3272 1645 3428 
Q 1925 3584 2291 3584 
Q 2894 3584 3203 3211 
Q 3513 2838 3513 2113 
z
" transform="scale(0.015625)"/>
      <path id="DejaVuSans-63" d="M 3122 3366 
L 3122 2828 
Q 2878 2963 2633 3030 
Q 2388 3097 2138 3097 
Q 1578 3097 1268 2742 
Q 959 2388 959 1747 
Q 959 1106 1268 751 
Q 1578 397 2138 397 
Q 2388 397 2633 464 
Q 2878 531 3122 666 
L 3122 134 
Q 2881 22 2623 -34 
Q 2366 -91 2075 -91 
Q 1284 -91 818 406 
Q 353 903 353 1747 
Q 353 2603 823 3093 
Q 1294 3584 2113 3584 
Q 2378 3584 2631 3529 
Q 2884 3475 3122 3366 
z
" transform="scale(0.015625)"/>
     </defs>
     <use xlink:href="#DejaVuSans-35"/>
     <use xlink:href="#DejaVuSans-30" x="63.623047"/>
     <use xlink:href="#DejaVuSans-30" x="127.246094"/>
     <use xlink:href="#DejaVuSans-5f" x="190.869141"/>
     <use xlink:href="#DejaVuSans-4c" x="240.869141"/>
     <use xlink:href="#DejaVuSans-54" x="282.832031"/>
     <use xlink:href="#DejaVuSans-4f" x="343.916016"/>
     <use xlink:href="#DejaVuSans-54" x="422.626953"/>
     <use xlink:href="#DejaVuSans-4d" x="483.710938"/>
     <use xlink:href="#DejaVuSans-4b" x="569.990234"/>
     <use xlink:href="#DejaVuSans-55" x="632.941406"/>
     <use xlink:href="#DejaVuSans-53" x="706.134766"/>
     <use xlink:href="#DejaVuSans-20" x="769.611328"/>
     <use xlink:href="#DejaVuSans-2d" x="801.398438"/>
     <use xlink:href="#DejaVuSans-20" x="837.482422"/>
     <use xlink:href="#DejaVuSans-50" x="869.269531"/>
     <use xlink:href="#DejaVuSans-65" x="925.947266"/>
     <use xlink:href="#DejaVuSans-72" x="987.470703"/>
     <use xlink:href="#DejaVuSans-66" x="1028.583984"/>
     <use xlink:href="#DejaVuSans-6f" x="1063.789062"/>
     <use xlink:href="#DejaVuSans-72" x="1124.970703"/>
     <use xlink:href="#DejaVuSans-6d" x="1164.333984"/>
     <use xlink:href="#DejaVuSans-61" x="1261.746094"/>
     <use xlink:href="#DejaVuSans-6e" x="1323.025391"/>
     <use xlink:href="#DejaVuSans-63" x="1386.404297"/>
     <use xlink:href="#DejaVuSans-65" x="1441.384766"/>
    </g>
   </g>
   <g id="legend_1">
    <g id="line2d_33">
     <path d="M 39.7 30.040188 
L 49.7 30.040188 
L 59.7 30.040188 
" style="fill: none; stroke: #e69f00; stroke-width: 2; stroke-linecap: square"/>
    </g>
    <g id="text_16">
     <!-- 1/N -->
     <g transform="translate(67.7 33.540188) scale(0.1 -0.1)">
      <defs>
       <path id="DejaVuSans-2f" d="M 1625 4666 
L 2156 4666 
L 531 -594 
L 0 -594 
L 1625 4666 
z
" transform="scale(0.015625)"/>
       <path id="DejaVuSans-4e" d="M 628 4666 
L 1478 4666 
L 3547 763 
L 3547 4666 
L 4159 4666 
L 4159 0 
L 3309 0 
L 1241 3903 
L 1241 0 
L 628 0 
L 628 4666 
z
" transform="scale(0.015625)"/>
      </defs>
      <use xlink:href="#DejaVuSans-31"/>
      <use xlink:href="#DejaVuSans-2f" x="63.623047"/>
      <use xlink:href="#DejaVuSans-4e" x="97.314453"/>
     </g>
    </g>
    <g id="line2d_34">
     <path d="M 39.7 44.718313 
L 49.7 44.718313 
L 59.7 44.718313 
" style="fill: none; stroke-dasharray: 7.4,3.2; stroke-dashoffset: 0; stroke: #56b4e9; stroke-width: 2"/>
    </g>
    <g id="text_17">
     <!-- GMVP -->
     <g transform="translate(67.7 48.218313) scale(0.1 -0.1)">
      <defs>
       <path id="DejaVuSans-47" d="M 3809 666 
L 3809 1919 
L 2778 1919 
L 2778 2438 
L 4434 2438 
L 4434 434 
Q 4069 175 3628 42 
Q 3188 -91 2688 -91 
Q 1594 -91 976 548 
Q 359 1188 359 2328 
Q 359 3472 976 4111 
Q 1594 4750 2688 4750 
Q 3144 4750 3555 4637 
Q 3966 4525 4313 4306 
L 4313 3634 
Q 3963 3931 3569 4081 
Q 3175 4231 2741 4231 
Q 1884 4231 1454 3753 
Q 1025 3275 1025 2328 
Q 1025 1384 1454 906 
Q 1884 428 2741 428 
Q 3075 428 3337 486 
Q 3600 544 3809 666 
z
" transform="scale(0.015625)"/>
       <path id="DejaVuSans-56" d="M 1831 0 
L 50 4666 
L 709 4666 
L 2188 738 
L 3669 4666 
L 4325 4666 
L 2547 0 
L 1831 0 
z
" transform="scale(0.015625)"/>
      </defs>
      <use xlink:href="#DejaVuSans-47"/>
      <use xlink:href="#DejaVuSans-4d" x="77.490234"/>
      <use xlink:href="#DejaVuSans-56" x="163.769531"/>
      <use xlink:href="#DejaVuSans-50" x="232.177734"/>
     </g>
    </g>
    <g id="line2d_35">
     <path d="M 39.7 59.396438 
L 49.7 59.396438 
L 59.7 59.396438 
" style="fill: none; stroke-dasharray: 12.8,3.2,2,3.2; stroke-dashoffset: 0; stroke: #009e73; stroke-width: 2"/>
    </g>
    <g id="text_18">
     <!-- Empirical Bayes -->
     <g transform="translate(67.7 62.896438) scale(0.1 -0.1)">
      <defs>
       <path id="DejaVuSans-45" d="M 628 4666 
L 3578 4666 
L 3578 4134 
L 1259 4134 
L 1259 2753 
L 3481 2753 
L 3481 2222 
L 1259 2222 
L 1259 531 
L 3634 531 
L 3634 0 
L 628 0 
L 628 4666 
z
" transform="scale(0.015625)"/>
       <path id="DejaVuSans-70" d="M 1159 525 
L 1159 -1331 
L 581 -1331 
L 581 3500 
L 1159 3500 
L 1159 2969 
Q 1341 3281 1617 3432 
Q 1894 3584 2278 3584 
Q 2916 3584 3314 3078 
Q 3713 2572 3713 1747 
Q 3713 922 3314 415 
Q 2916 -91 2278 -91 
Q 1894 -91 1617 61 
Q 1341 213 1159 525 
z
M 3116 1747 
Q 3116 2381 2855 2742 
Q 2594 3103 2138 3103 
Q 1681 3103 1420 2742 
Q 1159 2381 1159 1747 
Q 1159 1113 1420 752 
Q 1681 391 2138 391 
Q 2594 391 2855 752 
Q 3116 1113 3116 1747 
z
" transform="scale(0.015625)"/>
       <path id="DejaVuSans-69" d="M 603 3500 
L 1178 3500 
L 1178 0 
L 603 0 
L 603 3500 
z
M 603 4863 
L 1178 4863 
L 1178 4134 
L 603 4134 
L 603 4863 
z
" transform="scale(0.015625)"/>
       <path id="DejaVuSans-6c" d="M 603 4863 
L 1178 4863 
L 1178 0 
L 603 0 
L 603 4863 
z
" transform="scale(0.015625)"/>
       <path id="DejaVuSans-42" d="M 1259 2228 
L 1259 519 
L 2272 519 
Q 2781 519 3026 730 
Q 3272 941 3272 1375 
Q 3272 1813 3026 2020 
Q 2781 2228 2272 2228 
L 1259 2228 
z
M 1259 4147 
L 1259 2741 
L 2194 2741 
Q 2656 2741 2882 2914 
Q 3109 3088 3109 3444 
Q 3109 3797 2882 3972 
Q 2656 4147 2194 4147 
L 1259 4147 
z
M 628 4666 
L 2241 4666 
Q 2963 4666 3353 4366 
Q 3744 4066 3744 3513 
Q 3744 3084 3544 2831 
Q 3344 2578 2956 2516 
Q 3422 2416 3680 2098 
Q 3938 1781 3938 1306 
Q 3938 681 3513 340 
Q 3088 0 2303 0 
L 628 0 
L 628 4666 
z
" transform="scale(0.015625)"/>
       <path id="DejaVuSans-79" d="M 2059 -325 
Q 1816 -950 1584 -1140 
Q 1353 -1331 966 -1331 
L 506 -1331 
L 506 -850 
L 844 -850 
Q 1081 -850 1212 -737 
Q 1344 -625 1503 -206 
L 1606 56 
L 191 3500 
L 800 3500 
L 1894 763 
L 2988 3500 
L 3597 3500 
L 2059 -325 
z
" transform="scale(0.015625)"/>
       <path id="DejaVuSans-73" d="M 2834 3397 
L 2834 2853 
Q 2591 2978 2328 3040 
Q 2066 3103 1784 3103 
Q 1356 3103 1142 2972 
Q 928 2841 928 2578 
Q 928 2378 1081 2264 
Q 1234 2150 1697 2047 
L 1894 2003 
Q 2506 1872 2764 1633 
Q 3022 1394 3022 966 
Q 3022 478 2636 193 
Q 2250 -91 1575 -91 
Q 1294 -91 989 -36 
Q 684 19 347 128 
L 347 722 
Q 666 556 975 473 
Q 1284 391 1588 391 
Q 1994 391 2212 530 
Q 2431 669 2431 922 
Q 2431 1156 2273 1281 
Q 2116 1406 1581 1522 
L 1381 1569 
Q 847 1681 609 1914 
Q 372 2147 372 2553 
Q 372 3047 722 3315 
Q 1072 3584 1716 3584 
Q 2034 3584 2315 3537 
Q 2597 3491 2834 3397 
z
" transform="scale(0.015625)"/>
      </defs>
      <use xlink:href="#DejaVuSans-45"/>
      <use xlink:href="#DejaVuSans-6d" x="63.183594"/>
      <use xlink:href="#DejaVuSans-70" x="160.595703"/>
      <use xlink:href="#DejaVuSans-69" x="224.072266"/>
      <use xlink:href="#DejaVuSans-72" x="251.855469"/>
      <use xlink:href="#DejaVuSans-69" x="292.96875"/>
      <use xlink:href="#DejaVuSans-63" x="320.751953"/>
      <use xlink:href="#DejaVuSans-61" x="375.732422"/>
      <use xlink:href="#DejaVuSans-6c" x="437.011719"/>
      <use xlink:href="#DejaVuSans-20" x="464.794922"/>
      <use xlink:href="#DejaVuSans-42" x="496.582031"/>
      <use xlink:href="#DejaVuSans-61" x="565.185547"/>
      <use xlink:href="#DejaVuSans-79" x="626.464844"/>
      <use xlink:href="#DejaVuSans-65" x="685.644531"/>
      <use xlink:href="#DejaVuSans-73" x="747.167969"/>
     </g>
    </g>
    <g id="line2d_36">
     <path d="M 39.7 74.074563 
L 49.7 74.074563 
L 59.7 74.074563 
" style="fill: none; stroke-dasharray: 2,3.3; stroke-dashoffset: 0; stroke: #0072b2; stroke-width: 2"/>
    </g>
    <g id="text_19">
     <!-- Ridge -->
     <g transform="translate(67.7 77.574563) scale(0.1 -0.1)">
      <defs>
       <path id="DejaVuSans-52" d="M 2841 2188 
Q 3044 2119 3236 1894 
Q 3428 1669 3622 1275 
L 4263 0 
L 3584 0 
L 2988 1197 
Q 2756 1666 2539 1819 
Q 2322 1972 1947 1972 
L 1259 1972 
L 1259 0 
L 628 0 
L 628 4666 
L 2053 4666 
Q 2853 4666 3247 4331 
Q 3641 3997 3641 3322 
Q 3641 2881 3436 2590 
Q 3231 2300 2841 2188 
z
M 1259 4147 
L 1259 2491 
L 2053 2491 
Q 2509 2491 2742 2702 
Q 2975 2913 2975 3322 
Q 2975 3731 2742 3939 
Q 2509 4147 2053 4147 
L 1259 4147 
z
" transform="scale(0.015625)"/>
       <path id="DejaVuSans-64" d="M 2906 2969 
L 2906 4863 
L 3481 4863 
L 3481 0 
L 2906 0 
L 2906 525 
Q 2725 213 2448 61 
Q 2172 -91 1784 -91 
Q 1150 -91 751 415 
Q 353 922 353 1747 
Q 353 2572 751 3078 
Q 1150 3584 1784 3584 
Q 2172 3584 2448 3432 
Q 2725 3281 2906 2969 
z
M 947 1747 
Q 947 1113 1208 752 
Q 1469 391 1925 391 
Q 2381 391 2643 752 
Q 2906 1113 2906 1747 
Q 2906 2381 2643 2742 
Q 2381 3103 1925 3103 
Q 1469 3103 1208 2742 
Q 947 2381 947 1747 
z
" transform="scale(0.015625)"/>
       <path id="DejaVuSans-67" d="M 2906 1791 
Q 2906 2416 2648 2759 
Q 2391 3103 1925 3103 
Q 1463 3103 1205 2759 
Q 947 2416 947 1791 
Q 947 1169 1205 825 
Q 1463 481 1925 481 
Q 2391 481 2648 825 
Q 2906 1169 2906 1791 
z
M 3481 434 
Q 3481 -459 3084 -895 
Q 2688 -1331 1869 -1331 
Q 1566 -1331 1297 -1286 
Q 1028 -1241 775 -1147 
L 775 -588 
Q 1028 -725 1275 -790 
Q 1522 -856 1778 -856 
Q 2344 -856 2625 -561 
Q 2906 -266 2906 331 
L 2906 616 
Q 2728 306 2450 153 
Q 2172 0 1784 0 
Q 1141 0 747 490 
Q 353 981 353 1791 
Q 353 2603 747 3093 
Q 1141 3584 1784 3584 
Q 2172 3584 2450 3431 
Q 2728 3278 2906 2969 
L 2906 3500 
L 3481 3500 
L 3481 434 
z
" transform="scale(0.015625)"/>
      </defs>
      <use xlink:href="#DejaVuSans-52"/>
      <use xlink:href="#DejaVuSans-69" x="69.482422"/>
      <use xlink:href="#DejaVuSans-64" x="97.265625"/>
      <use xlink:href="#DejaVuSans-67" x="160.742188"/>
      <use xlink:href="#DejaVuSans-65" x="224.21875"/>
     </g>
    </g>
    <g id="line2d_37">
     <path d="M 39.7 88.752688 
L 49.7 88.752688 
L 59.7 88.752688 
" style="fill: none; stroke: #d55e00; stroke-width: 2; stroke-linecap: square"/>
    </g>
    <g id="text_20">
     <!-- Lasso -->
     <g transform="translate(67.7 92.252688) scale(0.1 -0.1)">
      <use xlink:href="#DejaVuSans-4c"/>
      <use xlink:href="#DejaVuSans-61" x="55.712891"/>
      <use xlink:href="#DejaVuSans-73" x="116.992188"/>
      <use xlink:href="#DejaVuSans-73" x="169.091797"/>
      <use xlink:href="#DejaVuSans-6f" x="221.191406"/>
     </g>
    </g>
    <g id="line2d_38">
     <path d="M 39.7 103.430813 
L 49.7 103.430813 
L 59.7 103.430813 
" style="fill: none; stroke-dasharray: 7.4,3.2; stroke-dashoffset: 0; stroke: #cc79a7; stroke-width: 2"/>
    </g>
    <g id="text_21">
     <!-- Elastic Net -->
     <g transform="translate(67.7 106.930813) scale(0.1 -0.1)">
      <defs>
       <path id="DejaVuSans-74" d="M 1172 4494 
L 1172 3500 
L 2356 3500 
L 2356 3053 
L 1172 3053 
L 1172 1153 
Q 1172 725 1289 603 
Q 1406 481 1766 481 
L 2356 481 
L 2356 0 
L 1766 0 
Q 1100 0 847 248 
Q 594 497 594 1153 
L 594 3053 
L 172 3053 
L 172 3500 
L 594 3500 
L 594 4494 
L 1172 4494 
z
" transform="scale(0.015625)"/>
      </defs>
      <use xlink:href="#DejaVuSans-45"/>
      <use xlink:href="#DejaVuSans-6c" x="63.183594"/>
      <use xlink:href="#DejaVuSans-61" x="90.966797"/>
      <use xlink:href="#DejaVuSans-73" x="152.246094"/>
      <use xlink:href="#DejaVuSans-74" x="204.345703"/>
      <use xlink:href="#DejaVuSans-69" x="243.554688"/>
      <use xlink:href="#DejaVuSans-63" x="271.337891"/>
      <use xlink:href="#DejaVuSans-20" x="326.318359"/>
      <use xlink:href="#DejaVuSans-4e" x="358.105469"/>
      <use xlink:href="#DejaVuSans-65" x="432.910156"/>
      <use xlink:href="#DejaVuSans-74" x="494.433594"/>
     </g>
    </g>
    <g id="line2d_39">
     <path d="M 39.7 118.108938 
L 49.7 118.108938 
L 59.7 118.108938 
" style="fill: none; stroke-dasharray: 12.8,3.2,2,3.2; stroke-dashoffset: 0; stroke: #f0e442; stroke-width: 2"/>
    </g>
    <g id="text_22">
     <!-- Truncted Normal -->
     <g transform="translate(67.7 121.608938) scale(0.1 -0.1)">
      <defs>
       <path id="DejaVuSans-75" d="M 544 1381 
L 544 3500 
L 1119 3500 
L 1119 1403 
Q 1119 906 1312 657 
Q 1506 409 1894 409 
Q 2359 409 2629 706 
Q 2900 1003 2900 1516 
L 2900 3500 
L 3475 3500 
L 3475 0 
L 2900 0 
L 2900 538 
Q 2691 219 2414 64 
Q 2138 -91 1772 -91 
Q 1169 -91 856 284 
Q 544 659 544 1381 
z
M 1991 3584 
L 1991 3584 
z
" transform="scale(0.015625)"/>
      </defs>
      <use xlink:href="#DejaVuSans-54"/>
      <use xlink:href="#DejaVuSans-72" x="46.333984"/>
      <use xlink:href="#DejaVuSans-75" x="87.447266"/>
      <use xlink:href="#DejaVuSans-6e" x="150.826172"/>
      <use xlink:href="#DejaVuSans-63" x="214.205078"/>
      <use xlink:href="#DejaVuSans-74" x="269.185547"/>
      <use xlink:href="#DejaVuSans-65" x="308.394531"/>
      <use xlink:href="#DejaVuSans-64" x="369.917969"/>
      <use xlink:href="#DejaVuSans-20" x="433.394531"/>
      <use xlink:href="#DejaVuSans-4e" x="465.181641"/>
      <use xlink:href="#DejaVuSans-6f" x="539.986328"/>
      <use xlink:href="#DejaVuSans-72" x="601.167969"/>
      <use xlink:href="#DejaVuSans-6d" x="640.53125"/>
      <use xlink:href="#DejaVuSans-61" x="737.943359"/>
      <use xlink:href="#DejaVuSans-6c" x="799.222656"/>
     </g>
    </g>
    <g id="line2d_40">
     <path d="M 39.7 132.787062 
L 49.7 132.787062 
L 59.7 132.787062 
" style="fill: none; stroke: #1f77b4; stroke-width: 2; stroke-linecap: square"/>
    </g>
    <g id="text_23">
     <!-- LW -->
     <g transform="translate(67.7 136.287062) scale(0.1 -0.1)">
      <defs>
       <path id="DejaVuSans-57" d="M 213 4666 
L 850 4666 
L 1831 722 
L 2809 4666 
L 3519 4666 
L 4500 722 
L 5478 4666 
L 6119 4666 
L 4947 0 
L 4153 0 
L 3169 4050 
L 2175 0 
L 1381 0 
L 213 4666 
z
" transform="scale(0.015625)"/>
      </defs>
      <use xlink:href="#DejaVuSans-4c"/>
      <use xlink:href="#DejaVuSans-57" x="46.587891"/>
     </g>
    </g>
    <g id="line2d_41">
     <path d="M 39.7 147.465188 
L 49.7 147.465188 
L 59.7 147.465188 
" style="fill: none; stroke-dasharray: 7.4,3.2; stroke-dashoffset: 0; stroke: #aec7e8; stroke-width: 2"/>
    </g>
    <g id="text_24">
     <!-- FM -->
     <g transform="translate(67.7 150.965188) scale(0.1 -0.1)">
      <defs>
       <path id="DejaVuSans-46" d="M 628 4666 
L 3309 4666 
L 3309 4134 
L 1259 4134 
L 1259 2759 
L 3109 2759 
L 3109 2228 
L 1259 2228 
L 1259 0 
L 628 0 
L 628 4666 
z
" transform="scale(0.015625)"/>
      </defs>
      <use xlink:href="#DejaVuSans-46"/>
      <use xlink:href="#DejaVuSans-4d" x="57.519531"/>
     </g>
    </g>
    <g id="line2d_42">
     <path d="M 39.7 162.143312 
L 49.7 162.143312 
L 59.7 162.143312 
" style="fill: none; stroke-dasharray: 12.8,3.2,2,3.2; stroke-dashoffset: 0; stroke: #ff7f0e; stroke-width: 2"/>
    </g>
    <g id="text_25">
     <!-- TZ -->
     <g transform="translate(67.7 165.643312) scale(0.1 -0.1)">
      <defs>
       <path id="DejaVuSans-5a" d="M 359 4666 
L 4025 4666 
L 4025 4184 
L 1075 531 
L 4097 531 
L 4097 0 
L 288 0 
L 288 481 
L 3238 4134 
L 359 4134 
L 359 4666 
z
" transform="scale(0.015625)"/>
      </defs>
      <use xlink:href="#DejaVuSans-54"/>
      <use xlink:href="#DejaVuSans-5a" x="61.083984"/>
     </g>
    </g>
    <g id="line2d_43">
     <path d="M 39.7 176.821437 
L 49.7 176.821437 
L 59.7 176.821437 
" style="fill: none; stroke-dasharray: 2,3.3; stroke-dashoffset: 0; stroke: #ffbb78; stroke-width: 2"/>
    </g>
    <g id="text_26">
     <!-- FF -->
     <g transform="translate(67.7 180.321437) scale(0.1 -0.1)">
      <use xlink:href="#DejaVuSans-46"/>
      <use xlink:href="#DejaVuSans-46" x="57.519531"/>
     </g>
    </g>
   </g>
  </g>
 </g>
 <defs>
  <clipPath id="pf946cb92c9">
   <rect x="30.7" y="16.94175" width="837" height="221.76"/>
  </clipPath>
 </defs>
</svg>
