<?xml version="1.0" encoding="utf-8" standalone="no"?>
<!DOCTYPE svg PUBLIC "-//W3C//DTD SVG 1.1//EN"
  "http://www.w3.org/Graphics/SVG/1.1/DTD/svg11.dtd">
<svg xmlns:xlink="http://www.w3.org/1999/xlink" width="858.153125pt" height="253.629875pt" viewBox="0 0 858.153125 253.629875" xmlns="http://www.w3.org/2000/svg" version="1.1">
 <metadata>
  <rdf:RDF xmlns:dc="http://purl.org/dc/elements/1.1/" xmlns:cc="http://creativecommons.org/ns#" xmlns:rdf="http://www.w3.org/1999/02/22-rdf-syntax-ns#">
   <cc:Work>
    <dc:type rdf:resource="http://purl.org/dc/dcmitype/StillImage"/>
    <dc:date>2025-08-06T21:52:45.016310</dc:date>
    <dc:format>image/svg+xml</dc:format>
    <dc:creator>
     <cc:Agent>
      <dc:title>Matplotlib v3.9.2, https://matplotlib.org/</dc:title>
     </cc:Agent>
    </dc:creator>
   </cc:Work>
  </rdf:RDF>
 </metadata>
 <defs>
  <style type="text/css">*{stroke-linejoin: round; stroke-linecap: butt}</style>
 </defs>
 <g id="figure_1">
  <g id="patch_1">
   <path d="M 0 253.629875 
L 858.153125 253.629875 
L 858.153125 0 
L 0 0 
z
" style="fill: #ffffff"/>
  </g>
  <g id="axes_1">
   <g id="patch_2">
    <path d="M 21.153125 238.70175 
L 858.153125 238.70175 
L 858.153125 16.94175 
L 21.153125 16.94175 
z
" style="fill: #ffffff"/>
   </g>
   <g id="matplotlib.axis_1">
    <g id="xtick_1">
     <g id="line2d_1">
      <defs>
       <path id="me350238db7" d="M 0 1.75 
L 0 -1.75 
" style="stroke: #000000; stroke-width: 0.8"/>
      </defs>
      <g>
       <use xlink:href="#me350238db7" x="76.630826" y="238.70175" style="stroke: #000000; stroke-width: 0.8"/>
      </g>
     </g>
     <g id="text_1">
      <!-- 1992 -->
      <g transform="translate(63.905826 251.550188) scale(0.1 -0.1)">
       <defs>
        <path id="DejaVuSans-31" d="M 794 531 
L 1825 531 
L 1825 4091 
L 703 3866 
L 703 4441 
L 1819 4666 
L 2450 4666 
L 2450 531 
L 3481 531 
L 3481 0 
L 794 0 
L 794 531 
z
" transform="scale(0.015625)"/>
        <path id="DejaVuSans-39" d="M 703 97 
L 703 672 
Q 941 559 1184 500 
Q 1428 441 1663 441 
Q 2288 441 2617 861 
Q 2947 1281 2994 2138 
Q 2813 1869 2534 1725 
Q 2256 1581 1919 1581 
Q 1219 1581 811 2004 
Q 403 2428 403 3163 
Q 403 3881 828 4315 
Q 1253 4750 1959 4750 
Q 2769 4750 3195 4129 
Q 3622 3509 3622 2328 
Q 3622 1225 3098 567 
Q 2575 -91 1691 -91 
Q 1453 -91 1209 -44 
Q 966 3 703 97 
z
M 1959 2075 
Q 2384 2075 2632 2365 
Q 2881 2656 2881 3163 
Q 2881 3666 2632 3958 
Q 2384 4250 1959 4250 
Q 1534 4250 1286 3958 
Q 1038 3666 1038 3163 
Q 1038 2656 1286 2365 
Q 1534 2075 1959 2075 
z
" transform="scale(0.015625)"/>
        <path id="DejaVuSans-32" d="M 1228 531 
L 3431 531 
L 3431 0 
L 469 0 
L 469 531 
Q 828 903 1448 1529 
Q 2069 2156 2228 2338 
Q 2531 2678 2651 2914 
Q 2772 3150 2772 3378 
Q 2772 3750 2511 3984 
Q 2250 4219 1831 4219 
Q 1534 4219 1204 4116 
Q 875 4013 500 3803 
L 500 4441 
Q 881 4594 1212 4672 
Q 1544 4750 1819 4750 
Q 2544 4750 2975 4387 
Q 3406 4025 3406 3419 
Q 3406 3131 3298 2873 
Q 3191 2616 2906 2266 
Q 2828 2175 2409 1742 
Q 1991 1309 1228 531 
z
" transform="scale(0.015625)"/>
       </defs>
       <use xlink:href="#DejaVuSans-31"/>
       <use xlink:href="#DejaVuSans-39" x="63.623047"/>
       <use xlink:href="#DejaVuSans-39" x="127.246094"/>
       <use xlink:href="#DejaVuSans-32" x="190.869141"/>
      </g>
     </g>
    </g>
    <g id="xtick_2">
     <g id="line2d_2">
      <g>
       <use xlink:href="#me350238db7" x="192.420713" y="238.70175" style="stroke: #000000; stroke-width: 0.8"/>
      </g>
     </g>
     <g id="text_2">
      <!-- 1996 -->
      <g transform="translate(179.695713 251.550188) scale(0.1 -0.1)">
       <defs>
        <path id="DejaVuSans-36" d="M 2113 2584 
Q 1688 2584 1439 2293 
Q 1191 2003 1191 1497 
Q 1191 994 1439 701 
Q 1688 409 2113 409 
Q 2538 409 2786 701 
Q 3034 994 3034 1497 
Q 3034 2003 2786 2293 
Q 2538 2584 2113 2584 
z
M 3366 4563 
L 3366 3988 
Q 3128 4100 2886 4159 
Q 2644 4219 2406 4219 
Q 1781 4219 1451 3797 
Q 1122 3375 1075 2522 
Q 1259 2794 1537 2939 
Q 1816 3084 2150 3084 
Q 2853 3084 3261 2657 
Q 3669 2231 3669 1497 
Q 3669 778 3244 343 
Q 2819 -91 2113 -91 
Q 1303 -91 875 529 
Q 447 1150 447 2328 
Q 447 3434 972 4092 
Q 1497 4750 2381 4750 
Q 2619 4750 2861 4703 
Q 3103 4656 3366 4563 
z
" transform="scale(0.015625)"/>
       </defs>
       <use xlink:href="#DejaVuSans-31"/>
       <use xlink:href="#DejaVuSans-39" x="63.623047"/>
       <use xlink:href="#DejaVuSans-39" x="127.246094"/>
       <use xlink:href="#DejaVuSans-36" x="190.869141"/>
      </g>
     </g>
    </g>
    <g id="xtick_3">
     <g id="line2d_3">
      <g>
       <use xlink:href="#me350238db7" x="308.210601" y="238.70175" style="stroke: #000000; stroke-width: 0.8"/>
      </g>
     </g>
     <g id="text_3">
      <!-- 2000 -->
      <g transform="translate(295.485601 251.550188) scale(0.1 -0.1)">
       <defs>
        <path id="DejaVuSans-30" d="M 2034 4250 
Q 1547 4250 1301 3770 
Q 1056 3291 1056 2328 
Q 1056 1369 1301 889 
Q 1547 409 2034 409 
Q 2525 409 2770 889 
Q 3016 1369 3016 2328 
Q 3016 3291 2770 3770 
Q 2525 4250 2034 4250 
z
M 2034 4750 
Q 2819 4750 3233 4129 
Q 3647 3509 3647 2328 
Q 3647 1150 3233 529 
Q 2819 -91 2034 -91 
Q 1250 -91 836 529 
Q 422 1150 422 2328 
Q 422 3509 836 4129 
Q 1250 4750 2034 4750 
z
" transform="scale(0.015625)"/>
       </defs>
       <use xlink:href="#DejaVuSans-32"/>
       <use xlink:href="#DejaVuSans-30" x="63.623047"/>
       <use xlink:href="#DejaVuSans-30" x="127.246094"/>
       <use xlink:href="#DejaVuSans-30" x="190.869141"/>
      </g>
     </g>
    </g>
    <g id="xtick_4">
     <g id="line2d_4">
      <g>
       <use xlink:href="#me350238db7" x="424.000488" y="238.70175" style="stroke: #000000; stroke-width: 0.8"/>
      </g>
     </g>
     <g id="text_4">
      <!-- 2004 -->
      <g transform="translate(411.275488 251.550188) scale(0.1 -0.1)">
       <defs>
        <path id="DejaVuSans-34" d="M 2419 4116 
L 825 1625 
L 2419 1625 
L 2419 4116 
z
M 2253 4666 
L 3047 4666 
L 3047 1625 
L 3713 1625 
L 3713 1100 
L 3047 1100 
L 3047 0 
L 2419 0 
L 2419 1100 
L 313 1100 
L 313 1709 
L 2253 4666 
z
" transform="scale(0.015625)"/>
       </defs>
       <use xlink:href="#DejaVuSans-32"/>
       <use xlink:href="#DejaVuSans-30" x="63.623047"/>
       <use xlink:href="#DejaVuSans-30" x="127.246094"/>
       <use xlink:href="#DejaVuSans-34" x="190.869141"/>
      </g>
     </g>
    </g>
    <g id="xtick_5">
     <g id="line2d_5">
      <g>
       <use xlink:href="#me350238db7" x="539.790375" y="238.70175" style="stroke: #000000; stroke-width: 0.8"/>
      </g>
     </g>
     <g id="text_5">
      <!-- 2008 -->
      <g transform="translate(527.065375 251.550188) scale(0.1 -0.1)">
       <defs>
        <path id="DejaVuSans-38" d="M 2034 2216 
Q 1584 2216 1326 1975 
Q 1069 1734 1069 1313 
Q 1069 891 1326 650 
Q 1584 409 2034 409 
Q 2484 409 2743 651 
Q 3003 894 3003 1313 
Q 3003 1734 2745 1975 
Q 2488 2216 2034 2216 
z
M 1403 2484 
Q 997 2584 770 2862 
Q 544 3141 544 3541 
Q 544 4100 942 4425 
Q 1341 4750 2034 4750 
Q 2731 4750 3128 4425 
Q 3525 4100 3525 3541 
Q 3525 3141 3298 2862 
Q 3072 2584 2669 2484 
Q 3125 2378 3379 2068 
Q 3634 1759 3634 1313 
Q 3634 634 3220 271 
Q 2806 -91 2034 -91 
Q 1263 -91 848 271 
Q 434 634 434 1313 
Q 434 1759 690 2068 
Q 947 2378 1403 2484 
z
M 1172 3481 
Q 1172 3119 1398 2916 
Q 1625 2713 2034 2713 
Q 2441 2713 2670 2916 
Q 2900 3119 2900 3481 
Q 2900 3844 2670 4047 
Q 2441 4250 2034 4250 
Q 1625 4250 1398 4047 
Q 1172 3844 1172 3481 
z
" transform="scale(0.015625)"/>
       </defs>
       <use xlink:href="#DejaVuSans-32"/>
       <use xlink:href="#DejaVuSans-30" x="63.623047"/>
       <use xlink:href="#DejaVuSans-30" x="127.246094"/>
       <use xlink:href="#DejaVuSans-38" x="190.869141"/>
      </g>
     </g>
    </g>
    <g id="xtick_6">
     <g id="line2d_6">
      <g>
       <use xlink:href="#me350238db7" x="655.580263" y="238.70175" style="stroke: #000000; stroke-width: 0.8"/>
      </g>
     </g>
     <g id="text_6">
      <!-- 2012 -->
      <g transform="translate(642.855263 251.550188) scale(0.1 -0.1)">
       <use xlink:href="#DejaVuSans-32"/>
       <use xlink:href="#DejaVuSans-30" x="63.623047"/>
       <use xlink:href="#DejaVuSans-31" x="127.246094"/>
       <use xlink:href="#DejaVuSans-32" x="190.869141"/>
      </g>
     </g>
    </g>
    <g id="xtick_7">
     <g id="line2d_7">
      <g>
       <use xlink:href="#me350238db7" x="771.37015" y="238.70175" style="stroke: #000000; stroke-width: 0.8"/>
      </g>
     </g>
     <g id="text_7">
      <!-- 2016 -->
      <g transform="translate(758.64515 251.550188) scale(0.1 -0.1)">
       <use xlink:href="#DejaVuSans-32"/>
       <use xlink:href="#DejaVuSans-30" x="63.623047"/>
       <use xlink:href="#DejaVuSans-31" x="127.246094"/>
       <use xlink:href="#DejaVuSans-36" x="190.869141"/>
      </g>
     </g>
    </g>
   </g>
   <g id="matplotlib.axis_2">
    <g id="ytick_1">
     <g id="line2d_8">
      <path d="M 21.153125 238.70175 
L 858.153125 238.70175 
" clip-path="url(#p7218ee114c)" style="fill: none; stroke-dasharray: 1.85,0.8; stroke-dashoffset: 0; stroke: #b2b2b2; stroke-width: 0.5"/>
     </g>
     <g id="line2d_9">
      <defs>
       <path id="m1d2c7af7d6" d="M 1.75 0 
L -1.75 -0 
" style="stroke: #000000; stroke-width: 0.8"/>
      </defs>
      <g>
       <use xlink:href="#m1d2c7af7d6" x="21.153125" y="238.70175" style="stroke: #000000; stroke-width: 0.8"/>
      </g>
     </g>
     <g id="text_8">
      <!-- 0.0 -->
      <g transform="translate(0 242.500969) scale(0.1 -0.1)">
       <defs>
        <path id="DejaVuSans-2e" d="M 684 794 
L 1344 794 
L 1344 0 
L 684 0 
L 684 794 
z
" transform="scale(0.015625)"/>
       </defs>
       <use xlink:href="#DejaVuSans-30"/>
       <use xlink:href="#DejaVuSans-2e" x="63.623047"/>
       <use xlink:href="#DejaVuSans-30" x="95.410156"/>
      </g>
     </g>
    </g>
    <g id="ytick_2">
     <g id="line2d_10">
      <path d="M 21.153125 189.435681 
L 858.153125 189.435681 
" clip-path="url(#p7218ee114c)" style="fill: none; stroke-dasharray: 1.85,0.8; stroke-dashoffset: 0; stroke: #b2b2b2; stroke-width: 0.5"/>
     </g>
     <g id="line2d_11">
      <g>
       <use xlink:href="#m1d2c7af7d6" x="21.153125" y="189.435681" style="stroke: #000000; stroke-width: 0.8"/>
      </g>
     </g>
     <g id="text_9">
      <!-- 0.2 -->
      <g transform="translate(0 193.2349) scale(0.1 -0.1)">
       <use xlink:href="#DejaVuSans-30"/>
       <use xlink:href="#DejaVuSans-2e" x="63.623047"/>
       <use xlink:href="#DejaVuSans-32" x="95.410156"/>
      </g>
     </g>
    </g>
    <g id="ytick_3">
     <g id="line2d_12">
      <path d="M 21.153125 140.169612 
L 858.153125 140.169612 
" clip-path="url(#p7218ee114c)" style="fill: none; stroke-dasharray: 1.85,0.8; stroke-dashoffset: 0; stroke: #b2b2b2; stroke-width: 0.5"/>
     </g>
     <g id="line2d_13">
      <g>
       <use xlink:href="#m1d2c7af7d6" x="21.153125" y="140.169612" style="stroke: #000000; stroke-width: 0.8"/>
      </g>
     </g>
     <g id="text_10">
      <!-- 0.4 -->
      <g transform="translate(0 143.96883) scale(0.1 -0.1)">
       <use xlink:href="#DejaVuSans-30"/>
       <use xlink:href="#DejaVuSans-2e" x="63.623047"/>
       <use xlink:href="#DejaVuSans-34" x="95.410156"/>
      </g>
     </g>
    </g>
    <g id="ytick_4">
     <g id="line2d_14">
      <path d="M 21.153125 90.903542 
L 858.153125 90.903542 
" clip-path="url(#p7218ee114c)" style="fill: none; stroke-dasharray: 1.85,0.8; stroke-dashoffset: 0; stroke: #b2b2b2; stroke-width: 0.5"/>
     </g>
     <g id="line2d_15">
      <g>
       <use xlink:href="#m1d2c7af7d6" x="21.153125" y="90.903542" style="stroke: #000000; stroke-width: 0.8"/>
      </g>
     </g>
     <g id="text_11">
      <!-- 0.6 -->
      <g transform="translate(0 94.702761) scale(0.1 -0.1)">
       <use xlink:href="#DejaVuSans-30"/>
       <use xlink:href="#DejaVuSans-2e" x="63.623047"/>
       <use xlink:href="#DejaVuSans-36" x="95.410156"/>
      </g>
     </g>
    </g>
    <g id="ytick_5">
     <g id="line2d_16">
      <path d="M 21.153125 41.637473 
L 858.153125 41.637473 
" clip-path="url(#p7218ee114c)" style="fill: none; stroke-dasharray: 1.85,0.8; stroke-dashoffset: 0; stroke: #b2b2b2; stroke-width: 0.5"/>
     </g>
     <g id="line2d_17">
      <g>
       <use xlink:href="#m1d2c7af7d6" x="21.153125" y="41.637473" style="stroke: #000000; stroke-width: 0.8"/>
      </g>
     </g>
     <g id="text_12">
      <!-- 0.8 -->
      <g transform="translate(0 45.436692) scale(0.1 -0.1)">
       <use xlink:href="#DejaVuSans-30"/>
       <use xlink:href="#DejaVuSans-2e" x="63.623047"/>
       <use xlink:href="#DejaVuSans-38" x="95.410156"/>
      </g>
     </g>
    </g>
   </g>
   <g id="line2d_18">
    <path d="M 21.153125 238.70175 
L 103.101615 238.70175 
L 105.558484 223.107076 
L 108.015354 225.757671 
L 110.234462 214.500394 
L 112.691332 218.255547 
L 115.068947 207.043212 
L 117.525817 202.946387 
L 119.903433 201.704394 
L 122.360302 200.932702 
L 124.817172 202.756561 
L 127.194788 203.599413 
L 129.651657 200.601684 
L 132.029273 205.503814 
L 134.486143 204.719665 
L 136.943012 200.879042 
L 139.16212 197.745772 
L 141.61899 198.422936 
L 143.996606 194.348335 
L 146.453475 195.188148 
L 148.831091 195.642293 
L 151.287961 200.205765 
L 153.74483 200.04318 
L 156.122446 197.915823 
L 158.579316 198.03728 
L 160.956931 193.27566 
L 163.413801 192.916866 
L 165.870671 192.989524 
L 168.089779 192.418054 
L 170.546648 195.091835 
L 172.924264 194.917823 
L 175.381134 192.09232 
L 177.758749 191.581485 
L 180.215619 193.68036 
L 182.672489 194.339141 
L 185.050104 193.624341 
L 187.506974 196.253747 
L 189.88459 194.439755 
L 192.341459 196.593223 
L 194.798329 197.799224 
L 197.096691 195.937566 
L 199.553561 195.385699 
L 201.931176 192.413906 
L 204.388046 191.705171 
L 206.765662 193.831123 
L 209.222531 192.376031 
L 211.679401 193.254189 
L 214.057017 192.501889 
L 216.513886 190.123039 
L 218.891502 181.674544 
L 221.348372 179.582832 
L 223.805241 183.596477 
L 226.024349 158.224894 
L 228.481219 160.198361 
L 230.858835 157.899278 
L 233.315704 160.214452 
L 235.69332 164.677702 
L 238.15019 163.045701 
L 240.607059 163.769425 
L 245.441545 166.403453 
L 247.81916 168.393084 
L 250.27603 167.859934 
L 252.7329 171.188499 
L 254.952008 169.094968 
L 257.408877 173.372409 
L 259.786493 182.066334 
L 262.243363 181.590685 
L 264.620978 178.712085 
L 267.077848 173.969801 
L 269.534718 173.115516 
L 271.912333 169.4818 
L 274.369203 177.697045 
L 276.746819 172.309129 
L 281.660558 176.146179 
L 283.879666 175.660339 
L 286.336536 177.67443 
L 288.714151 177.956167 
L 291.171021 173.042834 
L 293.548637 170.703891 
L 296.005506 169.712809 
L 298.462376 172.580158 
L 300.839992 169.703941 
L 303.296861 170.020242 
L 305.674477 168.27289 
L 308.131347 169.136464 
L 310.588216 172.343438 
L 312.886578 170.505305 
L 315.343448 167.637433 
L 317.721064 173.292731 
L 320.177933 171.901816 
L 322.555549 174.203953 
L 325.012419 169.481748 
L 327.469288 175.102323 
L 329.846904 168.756604 
L 332.303774 169.381615 
L 334.681389 168.766859 
L 337.138259 170.229335 
L 339.595129 169.1263 
L 341.814237 170.880489 
L 344.271106 166.52022 
L 346.648722 170.255306 
L 349.105592 166.880282 
L 351.483207 164.500694 
L 353.940077 162.317271 
L 356.396947 161.389753 
L 358.774562 162.304624 
L 361.231432 163.90581 
L 363.609048 161.982333 
L 366.065917 160.601894 
L 368.522787 161.120144 
L 370.741895 161.834477 
L 373.198765 164.234079 
L 375.57638 160.775509 
L 378.03325 162.612693 
L 380.410866 161.047766 
L 382.867735 163.634591 
L 385.324605 162.388338 
L 387.702221 164.795835 
L 392.536706 167.080022 
L 394.993576 164.990552 
L 397.450445 164.456765 
L 399.669553 164.097811 
L 402.126423 164.950758 
L 404.504039 162.11474 
L 406.960908 162.205304 
L 409.338524 162.036625 
L 411.795394 161.635813 
L 414.252263 160.1727 
L 416.629879 163.070006 
L 419.086749 156.924216 
L 421.464364 164.627263 
L 423.921234 163.564222 
L 426.378104 157.491569 
L 428.676466 148.010511 
L 431.133335 149.303727 
L 433.510951 153.800617 
L 435.967821 154.924179 
L 438.345436 154.266174 
L 440.802306 154.380751 
L 443.259176 152.794428 
L 445.636791 152.095641 
L 448.093661 149.878476 
L 450.471277 151.571084 
L 452.928146 146.495222 
L 455.385016 144.486248 
L 457.604124 148.936532 
L 460.060994 145.585513 
L 462.438609 145.454975 
L 464.895479 140.38891 
L 467.273095 144.893288 
L 469.729964 152.510279 
L 472.186834 154.246721 
L 474.56445 152.964708 
L 477.021319 156.960752 
L 479.398935 158.082448 
L 481.855805 155.826242 
L 484.312674 149.838879 
L 486.531782 158.282706 
L 488.988652 180.822606 
L 491.366268 183.428986 
L 493.823137 182.959227 
L 496.200753 184.849215 
L 498.657623 186.504231 
L 501.114492 185.232658 
L 503.492108 178.359998 
L 505.948978 178.707176 
L 508.326593 180.453587 
L 510.783463 181.640949 
L 513.240333 180.128619 
L 515.459441 179.789606 
L 517.91631 183.761366 
L 520.293926 181.755147 
L 522.750796 182.38275 
L 525.128411 181.799134 
L 527.585281 183.345527 
L 530.042151 179.425058 
L 532.419766 172.671853 
L 534.876636 171.041874 
L 537.254252 172.726348 
L 539.711121 172.885943 
L 542.167991 166.655425 
L 544.466353 166.817021 
L 546.923223 159.939703 
L 549.300838 160.371019 
L 551.757708 157.224955 
L 554.135324 161.190771 
L 556.592193 157.595632 
L 559.049063 149.912219 
L 561.426679 148.610438 
L 563.883548 152.158256 
L 566.261164 145.7423 
L 568.718034 128.2426 
L 571.174903 125.439435 
L 573.394011 129.025683 
L 575.850881 126.71243 
L 578.228497 104.243814 
L 580.685366 112.111734 
L 583.062982 110.87427 
L 585.519852 107.546655 
L 587.976721 107.545889 
L 590.354337 113.367176 
L 592.811207 110.904881 
L 595.188822 112.94328 
L 597.645692 112.402832 
L 602.32167 108.569981 
L 604.778539 107.918526 
L 607.156155 109.591731 
L 609.613025 109.543263 
L 611.99064 110.458759 
L 614.44751 105.463044 
L 616.90438 109.560596 
L 619.281995 110.410337 
L 621.738865 107.825722 
L 624.116481 104.308457 
L 626.57335 110.514154 
L 629.03022 113.953972 
L 631.249328 112.913162 
L 633.706198 115.853825 
L 636.083813 115.566471 
L 640.918299 115.724961 
L 643.375168 114.064476 
L 645.832038 113.389915 
L 648.209654 113.460511 
L 650.666523 114.031355 
L 653.044139 115.807435 
L 655.501009 116.924331 
L 657.957878 115.723551 
L 660.25624 115.95288 
L 662.71311 115.850369 
L 665.090726 117.191859 
L 667.547595 116.24426 
L 669.925211 121.242028 
L 672.382081 119.39923 
L 674.83895 118.520557 
L 677.216566 115.332914 
L 679.673436 113.779544 
L 682.051051 113.286289 
L 684.507921 113.730912 
L 686.964791 113.868118 
L 689.183899 110.657251 
L 691.640768 114.911485 
L 694.018384 114.951013 
L 696.475254 116.580686 
L 698.852869 115.776361 
L 701.309739 120.012286 
L 703.766609 115.832292 
L 706.144224 113.021736 
L 708.601094 116.304902 
L 710.97871 128.722462 
L 713.435579 128.77724 
L 715.892449 127.431583 
L 718.111557 125.949927 
L 720.568427 134.832136 
L 722.946042 137.266714 
L 725.402912 128.396897 
L 727.780528 132.997523 
L 730.237397 133.946706 
L 732.694267 133.323711 
L 735.071883 132.039388 
L 737.528752 138.782111 
L 739.906368 134.156049 
L 742.363238 137.370092 
L 744.820107 151.58843 
L 747.039215 151.653474 
L 749.496085 158.741537 
L 751.873701 159.999073 
L 754.33057 156.678108 
L 756.708186 158.397707 
L 759.165056 164.393142 
L 761.621925 153.624389 
L 763.999541 155.521164 
L 766.456411 150.83234 
L 768.834026 148.210318 
L 771.290896 139.012689 
L 773.747766 137.244036 
L 776.046128 137.188311 
L 778.502997 134.355834 
L 780.880613 136.552877 
L 783.337483 134.468005 
L 785.715098 137.160836 
L 788.171968 138.983597 
L 790.628838 136.376418 
L 793.006453 135.578697 
L 795.463323 129.050335 
L 797.840939 126.765371 
L 800.297808 91.136835 
L 802.754678 92.814927 
L 804.973786 93.442759 
L 807.430656 90.490806 
L 809.808271 91.637366 
L 812.265141 85.118817 
L 814.642757 85.186346 
L 817.099626 101.509842 
L 819.556496 93.574154 
L 821.934112 94.009356 
L 824.390981 95.183602 
L 826.768597 93.704611 
L 831.682336 123.077555 
L 833.901444 126.665492 
L 836.358314 131.77966 
L 838.73593 137.880254 
L 841.192799 140.696651 
L 843.570415 136.069844 
L 846.027285 134.275233 
L 848.484154 136.263778 
L 850.86177 141.081887 
L 853.31864 131.859312 
L 855.696255 133.347325 
L 858.153125 104.669328 
L 858.153125 104.669328 
" clip-path="url(#p7218ee114c)" style="fill: none; stroke: #e69f00; stroke-width: 2; stroke-linecap: square"/>
   </g>
   <g id="line2d_19">
    <path d="M 21.153125 135.732253 
L 23.372233 140.400587 
L 25.829103 141.06808 
L 30.663588 141.93932 
L 33.041204 141.314495 
L 35.498073 133.392786 
L 37.954943 134.200791 
L 40.332559 139.826522 
L 42.789428 138.83721 
L 45.167044 144.262986 
L 47.623914 143.094545 
L 50.080783 143.407411 
L 52.299891 142.262336 
L 54.756761 143.400492 
L 57.134377 139.999785 
L 59.591246 139.780357 
L 61.968862 137.58674 
L 64.425732 138.267159 
L 66.882601 137.06007 
L 69.260217 134.697502 
L 71.717087 141.291936 
L 74.094703 140.870913 
L 76.551572 134.462569 
L 79.008442 125.242399 
L 81.306804 123.120252 
L 83.763673 112.968344 
L 86.141289 107.264687 
L 88.598159 99.023879 
L 90.975774 99.730227 
L 93.432644 99.807274 
L 95.889514 94.630102 
L 98.267129 88.895925 
L 100.723999 88.486674 
L 103.101615 88.630921 
L 105.558484 34.535433 
L 108.015354 16.94175 
L 110.234462 43.057746 
L 112.691332 32.264233 
L 115.068947 53.453093 
L 117.525817 61.774999 
L 119.903433 63.442817 
L 122.360302 64.627273 
L 127.194788 65.049661 
L 129.651657 76.474742 
L 132.029273 70.16098 
L 134.486143 70.313555 
L 136.943012 73.734954 
L 139.16212 79.132785 
L 141.61899 83.234043 
L 143.996606 90.7472 
L 146.453475 91.450869 
L 148.831091 95.810731 
L 151.287961 92.82505 
L 153.74483 98.398231 
L 156.122446 99.350112 
L 158.579316 92.790898 
L 160.956931 99.658693 
L 163.413801 93.332666 
L 165.870671 99.194697 
L 168.089779 104.056224 
L 170.546648 102.990116 
L 172.924264 103.835563 
L 175.381134 108.06838 
L 177.758749 105.924148 
L 180.215619 115.235398 
L 182.672489 114.426839 
L 185.050104 109.160927 
L 187.506974 110.445902 
L 189.88459 99.671127 
L 192.341459 104.209696 
L 194.798329 110.579088 
L 197.096691 113.072075 
L 199.553561 111.115535 
L 201.931176 108.977962 
L 204.388046 112.010206 
L 206.765662 103.207324 
L 209.222531 98.765803 
L 211.679401 97.49338 
L 214.057017 84.687939 
L 216.513886 84.511446 
L 218.891502 86.478485 
L 221.348372 91.36472 
L 223.805241 78.012528 
L 226.024349 87.299715 
L 228.481219 85.995669 
L 230.858835 93.143573 
L 233.315704 88.176442 
L 235.69332 83.973723 
L 238.15019 91.688653 
L 240.607059 85.206262 
L 242.984675 95.682088 
L 245.441545 100.699397 
L 247.81916 104.535152 
L 250.27603 105.346951 
L 252.7329 103.600914 
L 254.952008 101.590024 
L 257.408877 111.071646 
L 259.786493 108.061163 
L 262.243363 110.024501 
L 267.077848 118.132 
L 269.534718 119.286477 
L 271.912333 135.278841 
L 274.369203 136.483529 
L 276.746819 138.370911 
L 279.203688 145.421529 
L 281.660558 143.458243 
L 283.879666 139.942838 
L 286.336536 140.70937 
L 288.714151 133.9898 
L 291.171021 146.411369 
L 293.548637 153.818833 
L 296.005506 151.779571 
L 298.462376 152.92318 
L 300.839992 152.26392 
L 303.296861 156.083584 
L 305.674477 157.454254 
L 308.131347 152.709039 
L 310.588216 155.191668 
L 312.886578 156.780623 
L 315.343448 153.095463 
L 317.721064 154.09263 
L 320.177933 154.405398 
L 322.555549 161.073906 
L 325.012419 154.237061 
L 327.469288 151.750462 
L 329.846904 151.098297 
L 332.303774 151.319619 
L 337.138259 148.342815 
L 339.595129 153.7962 
L 341.814237 148.735653 
L 344.271106 152.904863 
L 346.648722 154.185285 
L 349.105592 153.95017 
L 351.483207 158.098104 
L 353.940077 158.128305 
L 356.396947 157.613796 
L 358.774562 161.240947 
L 361.231432 158.602274 
L 363.609048 163.380569 
L 366.065917 160.252568 
L 368.522787 160.954731 
L 370.741895 158.175253 
L 373.198765 158.901957 
L 375.57638 159.825241 
L 378.03325 163.398078 
L 380.410866 160.530763 
L 382.867735 164.938856 
L 385.324605 161.554557 
L 387.702221 161.222345 
L 390.15909 164.073619 
L 392.536706 162.232699 
L 394.993576 158.860061 
L 397.450445 163.051941 
L 399.669553 161.511932 
L 402.126423 161.906889 
L 404.504039 163.711245 
L 406.960908 162.38952 
L 409.338524 164.240842 
L 411.795394 163.994367 
L 414.252263 162.875247 
L 416.629879 162.691529 
L 419.086749 163.438636 
L 421.464364 162.710731 
L 423.921234 162.890419 
L 426.378104 170.847051 
L 428.676466 176.944727 
L 431.133335 175.1075 
L 433.510951 174.903593 
L 435.967821 172.431053 
L 438.345436 170.508652 
L 440.802306 169.753048 
L 443.259176 174.660429 
L 445.636791 171.717678 
L 448.093661 173.904049 
L 450.471277 171.872735 
L 452.928146 181.703127 
L 455.385016 181.516286 
L 457.604124 177.652158 
L 460.060994 178.958688 
L 462.438609 191.722203 
L 464.895479 198.444761 
L 467.273095 197.220373 
L 472.186834 197.73995 
L 474.56445 196.925924 
L 477.021319 196.608871 
L 479.398935 197.514255 
L 481.855805 202.659285 
L 484.312674 200.793689 
L 486.531782 201.348336 
L 488.988652 192.667421 
L 491.366268 189.73292 
L 493.823137 192.370418 
L 496.200753 191.038142 
L 498.657623 193.404999 
L 501.114492 190.319769 
L 503.492108 192.67048 
L 505.948978 191.137654 
L 508.326593 188.050736 
L 510.783463 192.383508 
L 513.240333 193.9145 
L 515.459441 191.830127 
L 517.91631 190.579063 
L 520.293926 189.001916 
L 522.750796 186.901254 
L 525.128411 187.315409 
L 527.585281 186.291664 
L 530.042151 190.31658 
L 532.419766 179.968496 
L 534.876636 181.001852 
L 537.254252 181.273543 
L 539.711121 177.736728 
L 542.167991 183.698699 
L 544.466353 175.490039 
L 546.923223 180.412854 
L 549.300838 175.827946 
L 551.757708 177.852022 
L 554.135324 180.793251 
L 556.592193 188.518538 
L 559.049063 182.047498 
L 561.426679 182.525075 
L 563.883548 179.89885 
L 566.261164 180.202152 
L 568.718034 191.018733 
L 571.174903 187.034358 
L 573.394011 184.739971 
L 575.850881 183.258175 
L 578.228497 184.623451 
L 580.685366 182.740803 
L 583.062982 185.19835 
L 585.519852 183.661611 
L 587.976721 184.43141 
L 590.354337 185.749646 
L 595.188822 187.327327 
L 597.645692 186.964043 
L 600.102562 187.237901 
L 602.32167 186.820742 
L 604.778539 187.06648 
L 607.156155 182.515875 
L 609.613025 184.466959 
L 611.99064 182.631468 
L 614.44751 183.056938 
L 616.90438 184.775938 
L 619.281995 185.365559 
L 621.738865 185.54066 
L 624.116481 185.101955 
L 626.57335 182.739905 
L 629.03022 182.142198 
L 631.249328 183.37523 
L 633.706198 182.006897 
L 638.540683 184.623265 
L 640.918299 183.111473 
L 643.375168 182.05283 
L 645.832038 183.571562 
L 648.209654 184.257633 
L 650.666523 178.980766 
L 653.044139 182.974245 
L 655.501009 185.563913 
L 657.957878 186.804289 
L 660.25624 185.775621 
L 662.71311 189.69768 
L 665.090726 188.577616 
L 667.547595 189.121468 
L 669.925211 187.393408 
L 672.382081 187.152829 
L 674.83895 187.368911 
L 677.216566 189.205719 
L 679.673436 189.263448 
L 682.051051 190.345352 
L 684.507921 188.103596 
L 686.964791 187.859742 
L 689.183899 189.010567 
L 691.640768 191.406063 
L 694.018384 190.331721 
L 696.475254 188.846419 
L 698.852869 189.533646 
L 701.309739 189.606053 
L 706.144224 192.88759 
L 708.601094 192.813049 
L 710.97871 188.691982 
L 713.435579 185.286922 
L 715.892449 192.766542 
L 718.111557 195.269881 
L 720.568427 195.218423 
L 722.946042 190.108607 
L 725.402912 198.605352 
L 727.780528 195.1384 
L 730.237397 195.7239 
L 732.694267 195.820298 
L 735.071883 202.659702 
L 737.528752 199.049287 
L 739.906368 203.856269 
L 742.363238 200.991652 
L 744.820107 192.043031 
L 747.039215 191.445219 
L 749.496085 190.22046 
L 751.873701 186.532717 
L 754.33057 190.782264 
L 756.708186 189.699081 
L 759.165056 187.723871 
L 761.621925 189.290427 
L 763.999541 185.285589 
L 766.456411 182.996515 
L 768.834026 188.01427 
L 771.290896 191.316349 
L 773.747766 188.731417 
L 776.046128 189.601839 
L 778.502997 188.551514 
L 780.880613 186.441694 
L 783.337483 189.109167 
L 785.715098 185.421197 
L 788.171968 187.905692 
L 790.628838 189.331663 
L 793.006453 188.933348 
L 795.463323 189.121817 
L 797.840939 183.800929 
L 800.297808 171.159716 
L 802.754678 171.950413 
L 804.973786 171.949252 
L 807.430656 173.018718 
L 809.808271 171.984237 
L 812.265141 175.926515 
L 814.642757 174.12336 
L 817.099626 167.820095 
L 819.556496 165.045617 
L 821.934112 162.183731 
L 824.390981 162.438246 
L 826.768597 166.554313 
L 829.225467 169.083161 
L 831.682336 170.792059 
L 833.901444 172.09581 
L 836.358314 155.799192 
L 838.73593 163.322503 
L 841.192799 161.240051 
L 843.570415 163.568227 
L 846.027285 162.360407 
L 848.484154 163.752486 
L 850.86177 159.874955 
L 853.31864 156.634089 
L 855.696255 155.478159 
L 858.153125 158.915622 
L 858.153125 158.915622 
" clip-path="url(#p7218ee114c)" style="fill: none; stroke-dasharray: 7.4,3.2; stroke-dashoffset: 0; stroke: #56b4e9; stroke-width: 2"/>
   </g>
   <g id="line2d_20">
    <path d="M 21.153125 191.820955 
L 23.372233 191.599857 
L 25.829103 190.390626 
L 28.206718 191.693699 
L 30.663588 190.778293 
L 33.041204 192.635744 
L 35.498073 196.088514 
L 37.954943 195.275681 
L 40.332559 189.060413 
L 42.789428 190.574396 
L 45.167044 189.781588 
L 47.623914 189.731066 
L 50.080783 188.149425 
L 52.299891 190.641413 
L 54.756761 188.565465 
L 57.134377 188.566904 
L 59.591246 190.347707 
L 61.968862 191.121646 
L 64.425732 192.062853 
L 66.882601 191.522214 
L 69.260217 191.310743 
L 71.717087 189.766311 
L 74.094703 190.079007 
L 76.551572 193.173276 
L 79.008442 192.752134 
L 83.763673 193.680765 
L 86.141289 195.179224 
L 88.598159 197.87788 
L 90.975774 200.701097 
L 93.432644 201.004634 
L 95.889514 204.013052 
L 98.267129 206.192131 
L 100.723999 206.925617 
L 103.101615 206.264806 
L 105.558484 238.70175 
L 108.015354 238.70175 
L 110.234462 224.833346 
L 112.691332 232.471889 
L 115.068947 231.559245 
L 117.525817 228.299403 
L 119.903433 226.633707 
L 122.360302 225.934991 
L 124.817172 223.293862 
L 127.194788 222.330908 
L 129.651657 215.853242 
L 132.029273 216.555811 
L 134.486143 216.508214 
L 136.943012 217.502932 
L 139.16212 215.136177 
L 141.61899 211.652269 
L 143.996606 209.102681 
L 146.453475 207.032266 
L 148.831091 202.350196 
L 151.287961 200.872272 
L 153.74483 198.549454 
L 156.122446 201.96146 
L 158.579316 204.767832 
L 160.956931 204.882601 
L 163.413801 208.383421 
L 165.870671 208.431726 
L 168.089779 204.01623 
L 170.546648 202.818913 
L 172.924264 202.332907 
L 175.381134 201.031825 
L 177.758749 202.758543 
L 180.215619 194.888159 
L 182.672489 194.285151 
L 185.050104 202.826507 
L 187.506974 193.058316 
L 189.88459 201.189194 
L 192.341459 197.693567 
L 194.798329 189.851197 
L 197.096691 186.494897 
L 199.553561 188.374842 
L 201.931176 190.67478 
L 204.388046 189.774728 
L 206.765662 195.496558 
L 209.222531 199.536631 
L 211.679401 197.705196 
L 214.057017 209.512431 
L 216.513886 211.037934 
L 218.891502 215.004545 
L 221.348372 212.867388 
L 223.805241 218.484829 
L 226.024349 238.70175 
L 233.315704 238.70175 
L 235.69332 235.947885 
L 238.15019 238.70175 
L 240.607059 235.449557 
L 242.984675 234.7994 
L 245.441545 228.749556 
L 247.81916 224.153942 
L 250.27603 226.921831 
L 252.7329 226.737367 
L 254.952008 228.747211 
L 257.408877 221.572469 
L 259.786493 218.6292 
L 262.243363 218.054182 
L 264.620978 216.775358 
L 267.077848 216.640468 
L 269.534718 217.603852 
L 274.369203 203.804681 
L 276.746819 206.179183 
L 279.203688 201.795993 
L 281.660558 201.445682 
L 283.879666 207.51761 
L 286.336536 200.38526 
L 288.714151 204.98432 
L 291.171021 205.507857 
L 293.548637 203.992721 
L 296.005506 204.255468 
L 298.462376 204.198242 
L 300.839992 202.840427 
L 303.296861 205.291561 
L 305.674477 200.081432 
L 308.131347 199.271753 
L 310.588216 204.393203 
L 312.886578 199.636925 
L 315.343448 205.30209 
L 317.721064 205.174314 
L 320.177933 205.47126 
L 322.555549 197.619727 
L 325.012419 202.348656 
L 327.469288 199.904934 
L 329.846904 208.513319 
L 332.303774 206.003393 
L 334.681389 209.953149 
L 337.138259 206.971923 
L 339.595129 197.643781 
L 341.814237 208.931191 
L 344.271106 202.972573 
L 346.648722 198.336082 
L 349.105592 202.911379 
L 351.483207 200.65618 
L 353.940077 204.016265 
L 356.396947 205.082808 
L 358.774562 204.411269 
L 361.231432 200.312432 
L 363.609048 200.487198 
L 366.065917 203.809689 
L 368.522787 204.134927 
L 370.741895 207.294333 
L 373.198765 203.389695 
L 375.57638 206.197247 
L 378.03325 203.69054 
L 380.410866 206.07744 
L 382.867735 204.426408 
L 385.324605 205.068694 
L 387.702221 208.742305 
L 390.15909 203.098016 
L 392.536706 204.831523 
L 394.993576 210.408859 
L 397.450445 207.740605 
L 399.669553 207.855826 
L 402.126423 209.039378 
L 404.504039 207.375171 
L 409.338524 208.309785 
L 411.795394 207.772281 
L 414.252263 207.777723 
L 416.629879 208.388484 
L 419.086749 215.286828 
L 421.464364 214.829458 
L 423.921234 215.992574 
L 426.378104 215.232246 
L 428.676466 215.867194 
L 431.133335 215.437518 
L 433.510951 215.204534 
L 435.967821 213.199311 
L 440.802306 216.042544 
L 443.259176 215.580923 
L 445.636791 217.450933 
L 448.093661 217.128272 
L 450.471277 220.074666 
L 452.928146 230.360504 
L 455.385016 230.748886 
L 457.604124 232.058438 
L 460.060994 230.27858 
L 462.438609 238.70175 
L 575.850881 238.70175 
L 578.228497 238.410599 
L 580.685366 237.682643 
L 583.062982 238.70175 
L 587.976721 238.70175 
L 590.354337 232.308073 
L 592.811207 233.353935 
L 595.188822 233.965745 
L 597.645692 235.102709 
L 600.102562 234.976155 
L 602.32167 235.44732 
L 604.778539 236.193062 
L 607.156155 238.585292 
L 609.613025 238.392858 
L 611.99064 237.595346 
L 614.44751 235.466796 
L 616.90438 236.048775 
L 619.281995 234.663261 
L 621.738865 234.609366 
L 624.116481 237.077497 
L 626.57335 236.970602 
L 629.03022 235.709066 
L 631.249328 236.454926 
L 633.706198 236.307324 
L 636.083813 236.027169 
L 638.540683 234.772305 
L 640.918299 233.977008 
L 643.375168 235.40763 
L 645.832038 235.83954 
L 648.209654 235.750122 
L 650.666523 236.873496 
L 653.044139 233.786763 
L 655.501009 231.836947 
L 657.957878 230.201457 
L 660.25624 229.330007 
L 662.71311 228.252566 
L 665.090726 228.049234 
L 667.547595 228.455616 
L 669.925211 228.05096 
L 672.382081 228.172554 
L 674.83895 228.677489 
L 677.216566 231.196526 
L 679.673436 231.011322 
L 682.051051 230.624112 
L 684.507921 232.216956 
L 686.964791 234.408138 
L 689.183899 237.863374 
L 691.640768 230.115626 
L 694.018384 230.142269 
L 696.475254 228.840858 
L 698.852869 229.135392 
L 701.309739 227.146222 
L 706.144224 227.247827 
L 708.601094 222.472081 
L 710.97871 214.854206 
L 713.435579 211.160416 
L 715.892449 210.468144 
L 718.111557 209.238311 
L 720.568427 204.127626 
L 722.946042 211.884316 
L 725.402912 213.03413 
L 727.780528 213.186739 
L 730.237397 213.119045 
L 732.694267 212.890563 
L 735.071883 208.661221 
L 737.528752 204.761516 
L 739.906368 202.812303 
L 742.363238 202.376749 
L 744.820107 204.903027 
L 747.039215 201.96214 
L 749.496085 192.533662 
L 751.873701 193.173087 
L 754.33057 195.77816 
L 756.708186 194.758207 
L 759.165056 195.0818 
L 761.621925 199.450334 
L 763.999541 196.504145 
L 766.456411 197.754696 
L 768.834026 185.33579 
L 771.290896 189.269685 
L 773.747766 189.241602 
L 776.046128 190.758252 
L 778.502997 189.886421 
L 780.880613 192.591769 
L 783.337483 193.245786 
L 785.715098 196.790006 
L 788.171968 194.703401 
L 790.628838 194.323129 
L 793.006453 196.961841 
L 795.463323 197.265852 
L 797.840939 204.467211 
L 800.297808 220.194011 
L 802.754678 218.85912 
L 804.973786 218.623999 
L 807.430656 217.323365 
L 809.808271 211.874814 
L 812.265141 211.979728 
L 814.642757 212.95425 
L 817.099626 207.594507 
L 819.556496 217.945261 
L 821.934112 218.816155 
L 824.390981 212.766927 
L 826.768597 210.989781 
L 829.225467 201.909051 
L 831.682336 191.276927 
L 833.901444 189.31216 
L 836.358314 204.779899 
L 838.73593 190.627449 
L 841.192799 194.261276 
L 846.027285 199.940495 
L 848.484154 195.887009 
L 850.86177 198.185493 
L 853.31864 208.8058 
L 855.696255 210.189044 
L 858.153125 220.660983 
L 858.153125 220.660983 
" clip-path="url(#p7218ee114c)" style="fill: none; stroke-dasharray: 12.8,3.2,2,3.2; stroke-dashoffset: 0; stroke: #009e73; stroke-width: 2"/>
   </g>
   <g id="line2d_21">
    <path d="M 21.153125 181.518825 
L 23.372233 183.636222 
L 25.829103 181.282321 
L 28.206718 180.223178 
L 30.663588 179.673963 
L 33.041204 177.589751 
L 35.498073 180.316731 
L 37.954943 179.558062 
L 40.332559 183.161306 
L 42.789428 180.181916 
L 45.167044 179.187535 
L 47.623914 181.134553 
L 50.080783 181.002952 
L 52.299891 179.623169 
L 54.756761 179.391635 
L 57.134377 182.410833 
L 59.591246 180.180079 
L 61.968862 181.185853 
L 64.425732 179.438428 
L 66.882601 181.684795 
L 69.260217 183.211968 
L 71.717087 184.208784 
L 74.094703 182.786821 
L 76.551572 183.951209 
L 79.008442 189.001782 
L 81.306804 189.955429 
L 83.763673 193.589281 
L 86.141289 197.790007 
L 88.598159 199.936439 
L 90.975774 197.116909 
L 93.432644 195.550463 
L 95.889514 199.369668 
L 98.267129 202.711629 
L 100.723999 200.802712 
L 103.101615 201.652954 
L 105.558484 224.458461 
L 108.015354 227.994755 
L 110.234462 226.085168 
L 112.691332 225.484985 
L 115.068947 216.421104 
L 117.525817 215.455865 
L 119.903433 216.695735 
L 122.360302 216.981688 
L 124.817172 217.638724 
L 127.194788 217.496672 
L 129.651657 215.546986 
L 134.486143 216.93522 
L 136.943012 216.359726 
L 139.16212 216.46192 
L 141.61899 215.167406 
L 143.996606 214.278439 
L 146.453475 214.80537 
L 151.287961 214.573567 
L 153.74483 211.485789 
L 156.122446 209.249258 
L 158.579316 212.880643 
L 160.956931 210.6597 
L 163.413801 213.8437 
L 165.870671 207.860707 
L 168.089779 207.986146 
L 170.546648 207.57579 
L 175.381134 207.284129 
L 177.758749 208.212479 
L 180.215619 204.672737 
L 182.672489 205.425523 
L 185.050104 202.864879 
L 187.506974 208.718689 
L 189.88459 213.176578 
L 192.341459 209.980168 
L 194.798329 210.247144 
L 197.096691 212.972116 
L 199.553561 213.600577 
L 201.931176 216.410006 
L 204.388046 214.986549 
L 206.765662 215.941649 
L 209.222531 217.798188 
L 211.679401 220.023889 
L 214.057017 221.774395 
L 216.513886 222.804236 
L 218.891502 225.319079 
L 221.348372 224.661714 
L 223.805241 228.382819 
L 226.024349 230.181591 
L 228.481219 226.952517 
L 230.858835 225.288395 
L 233.315704 224.250672 
L 238.15019 223.530779 
L 240.607059 224.05141 
L 242.984675 212.955063 
L 245.441545 212.624248 
L 247.81916 211.394475 
L 250.27603 208.347938 
L 252.7329 206.949874 
L 254.952008 209.04445 
L 257.408877 202.460129 
L 259.786493 199.719958 
L 262.243363 198.807286 
L 264.620978 199.06882 
L 267.077848 199.734385 
L 269.534718 198.470808 
L 271.912333 193.036294 
L 274.369203 190.491399 
L 276.746819 191.617431 
L 279.203688 187.005018 
L 281.660558 187.42655 
L 283.879666 185.355867 
L 286.336536 189.707594 
L 288.714151 191.546367 
L 291.171021 183.514593 
L 293.548637 179.961208 
L 296.005506 182.728806 
L 298.462376 178.775074 
L 300.839992 183.668365 
L 303.296861 177.081268 
L 305.674477 182.668078 
L 308.131347 187.359397 
L 310.588216 176.548345 
L 312.886578 181.5538 
L 315.343448 182.441668 
L 317.721064 175.916978 
L 320.177933 176.69818 
L 322.555549 175.579068 
L 325.012419 182.409189 
L 327.469288 181.718935 
L 329.846904 180.108434 
L 332.303774 181.772027 
L 334.681389 179.962434 
L 337.138259 182.93258 
L 339.595129 187.910373 
L 341.814237 179.929321 
L 344.271106 186.078997 
L 346.648722 185.69998 
L 349.105592 184.734823 
L 351.483207 185.221676 
L 353.940077 184.014813 
L 356.396947 184.390296 
L 358.774562 180.519814 
L 361.231432 185.656137 
L 363.609048 182.626554 
L 366.065917 183.812504 
L 368.522787 182.266852 
L 370.741895 181.172591 
L 373.198765 181.950922 
L 375.57638 181.678658 
L 378.03325 178.775342 
L 380.410866 180.820686 
L 382.867735 175.476799 
L 385.324605 179.465064 
L 387.702221 173.716168 
L 390.15909 175.361582 
L 392.536706 174.332409 
L 394.993576 174.217182 
L 397.450445 173.227342 
L 399.669553 175.011085 
L 402.126423 172.579628 
L 404.504039 175.275498 
L 406.960908 176.072359 
L 409.338524 173.889402 
L 411.795394 175.074192 
L 414.252263 177.650983 
L 416.629879 174.326636 
L 419.086749 172.826973 
L 421.464364 166.309202 
L 423.921234 166.029439 
L 426.378104 164.905789 
L 428.676466 167.654221 
L 431.133335 168.627909 
L 433.510951 164.56791 
L 435.967821 167.922111 
L 438.345436 169.136318 
L 440.802306 168.30031 
L 443.259176 165.440875 
L 445.636791 167.212401 
L 448.093661 167.565857 
L 450.471277 164.95817 
L 452.928146 149.917801 
L 455.385016 151.725233 
L 457.604124 149.829526 
L 460.060994 153.653873 
L 462.438609 150.281907 
L 464.895479 166.213544 
L 467.273095 162.862065 
L 469.729964 161.510917 
L 472.186834 157.586786 
L 477.021319 154.962661 
L 479.398935 155.746199 
L 481.855805 154.153899 
L 484.312674 154.458358 
L 486.531782 163.630798 
L 488.988652 161.38241 
L 491.366268 162.807755 
L 493.823137 157.456602 
L 496.200753 157.448924 
L 498.657623 155.572126 
L 501.114492 157.147424 
L 503.492108 158.298069 
L 505.948978 158.954204 
L 508.326593 160.948832 
L 510.783463 162.209694 
L 513.240333 160.144178 
L 515.459441 162.462121 
L 517.91631 163.11011 
L 520.293926 163.382558 
L 522.750796 167.356328 
L 525.128411 169.1176 
L 527.585281 167.646853 
L 530.042151 160.669901 
L 532.419766 164.208938 
L 534.876636 164.704896 
L 539.711121 172.489193 
L 542.167991 171.882658 
L 544.466353 168.488302 
L 546.923223 177.802749 
L 549.300838 178.603683 
L 551.757708 175.940008 
L 554.135324 175.115075 
L 556.592193 174.027158 
L 559.049063 167.901813 
L 561.426679 168.435144 
L 563.883548 166.636743 
L 566.261164 173.273881 
L 568.718034 160.612907 
L 571.174903 161.583587 
L 573.394011 167.848192 
L 575.850881 166.385518 
L 578.228497 181.19879 
L 580.685366 175.941474 
L 583.062982 174.255403 
L 585.519852 179.050704 
L 587.976721 177.817637 
L 590.354337 177.051759 
L 592.811207 177.618472 
L 595.188822 174.240302 
L 597.645692 174.007069 
L 602.32167 177.63861 
L 604.778539 177.298586 
L 607.156155 177.783756 
L 609.613025 176.073574 
L 611.99064 177.791081 
L 614.44751 184.489876 
L 616.90438 178.091346 
L 619.281995 178.037496 
L 621.738865 180.500906 
L 624.116481 181.988745 
L 626.57335 178.251993 
L 629.03022 176.671418 
L 631.249328 175.733336 
L 633.706198 174.308607 
L 636.083813 173.567262 
L 638.540683 173.398977 
L 640.918299 175.663212 
L 643.375168 176.951717 
L 645.832038 175.675637 
L 648.209654 175.008388 
L 650.666523 178.591036 
L 653.044139 175.90821 
L 655.501009 174.151463 
L 657.957878 175.747357 
L 660.25624 177.418146 
L 662.71311 174.676039 
L 667.547595 174.65531 
L 669.925211 171.790258 
L 672.382081 173.752041 
L 674.83895 173.909697 
L 677.216566 172.741494 
L 679.673436 174.42234 
L 682.051051 174.2209 
L 684.507921 174.42519 
L 686.964791 172.340656 
L 689.183899 170.945462 
L 696.475254 174.20869 
L 698.852869 174.031255 
L 701.309739 171.712092 
L 703.766609 174.191902 
L 706.144224 175.3195 
L 708.601094 176.886622 
L 710.97871 176.208004 
L 713.435579 183.252076 
L 715.892449 177.810385 
L 718.111557 178.018535 
L 720.568427 174.29847 
L 722.946042 169.217016 
L 725.402912 168.440275 
L 727.780528 167.153991 
L 730.237397 165.687002 
L 732.694267 166.442082 
L 735.071883 165.116342 
L 737.528752 165.88374 
L 739.906368 167.652033 
L 742.363238 167.738161 
L 744.820107 159.942166 
L 747.039215 163.415821 
L 749.496085 166.980994 
L 751.873701 168.771777 
L 754.33057 165.238122 
L 756.708186 165.621659 
L 759.165056 161.27784 
L 761.621925 166.111504 
L 763.999541 171.165755 
L 766.456411 176.893104 
L 768.834026 186.916276 
L 771.290896 188.877931 
L 773.747766 193.259599 
L 776.046128 190.928252 
L 778.502997 195.682885 
L 780.880613 192.890313 
L 783.337483 191.653696 
L 785.715098 189.104614 
L 788.171968 186.883963 
L 790.628838 188.445443 
L 793.006453 187.002767 
L 795.463323 193.03865 
L 797.840939 193.443142 
L 800.297808 225.986092 
L 802.754678 224.852193 
L 804.973786 224.460644 
L 807.430656 227.643764 
L 809.808271 232.980236 
L 812.265141 235.451594 
L 814.642757 236.212698 
L 817.099626 238.70175 
L 824.390981 238.70175 
L 826.768597 237.22795 
L 829.225467 229.030675 
L 831.682336 223.330113 
L 833.901444 220.403193 
L 836.358314 216.117903 
L 838.73593 216.646449 
L 841.192799 212.278676 
L 843.570415 211.705301 
L 846.027285 211.900519 
L 848.484154 212.57338 
L 850.86177 209.334318 
L 853.31864 211.177453 
L 855.696255 209.462126 
L 858.153125 224.230721 
L 858.153125 224.230721 
" clip-path="url(#p7218ee114c)" style="fill: none; stroke-dasharray: 2,3.3; stroke-dashoffset: 0; stroke: #0072b2; stroke-width: 2"/>
   </g>
   <g id="line2d_22">
    <path d="M 21.153125 199.40462 
L 23.372233 192.839988 
L 25.829103 195.735626 
L 28.206718 195.011212 
L 30.663588 196.085077 
L 33.041204 196.936664 
L 35.498073 198.678623 
L 37.954943 199.44212 
L 40.332559 196.428413 
L 42.789428 198.883132 
L 45.167044 195.244545 
L 47.623914 194.51649 
L 50.080783 195.916865 
L 52.299891 195.949736 
L 54.756761 197.119061 
L 57.134377 197.499132 
L 59.591246 198.168511 
L 61.968862 198.582415 
L 64.425732 198.708213 
L 66.882601 198.209575 
L 69.260217 199.25644 
L 71.717087 193.209623 
L 74.094703 194.739913 
L 76.551572 196.8896 
L 79.008442 201.480338 
L 81.306804 202.222164 
L 83.763673 208.238264 
L 86.141289 208.242737 
L 88.598159 211.638456 
L 90.975774 210.928421 
L 93.432644 212.114283 
L 95.889514 210.463831 
L 98.267129 210.676968 
L 100.723999 212.261651 
L 103.101615 211.927972 
L 105.558484 226.375684 
L 108.015354 237.782478 
L 110.234462 238.70175 
L 223.805241 238.70175 
L 226.024349 232.770454 
L 228.481219 235.330107 
L 230.858835 232.145408 
L 233.315704 235.835088 
L 235.69332 238.70175 
L 238.15019 230.211521 
L 240.607059 238.70175 
L 460.060994 238.70175 
L 464.895479 203.429438 
L 467.273095 203.500928 
L 469.729964 196.932444 
L 472.186834 198.903197 
L 474.56445 202.319416 
L 477.021319 199.944369 
L 479.398935 197.133753 
L 481.855805 195.837227 
L 484.312674 203.385727 
L 486.531782 185.214814 
L 488.988652 173.604217 
L 491.366268 172.506993 
L 493.823137 175.690406 
L 496.200753 175.140372 
L 498.657623 172.995297 
L 501.114492 175.776803 
L 503.492108 179.148107 
L 505.948978 179.67762 
L 508.326593 179.023498 
L 510.783463 172.242503 
L 513.240333 174.289358 
L 515.459441 174.3948 
L 517.91631 171.026115 
L 520.293926 174.337033 
L 522.750796 171.836322 
L 525.128411 170.244511 
L 527.585281 171.192609 
L 530.042151 178.065115 
L 532.419766 191.627368 
L 534.876636 191.728032 
L 537.254252 186.044845 
L 539.711121 185.36479 
L 542.167991 186.239871 
L 544.466353 197.681293 
L 546.923223 190.321347 
L 549.300838 193.674006 
L 551.757708 197.459669 
L 554.135324 191.377557 
L 556.592193 188.335325 
L 559.049063 208.615124 
L 561.426679 208.905997 
L 563.883548 209.782804 
L 566.261164 209.258321 
L 568.718034 228.602414 
L 571.174903 234.419274 
L 573.394011 226.862809 
L 575.850881 232.120532 
L 578.228497 238.70175 
L 580.685366 238.70175 
L 583.062982 238.148631 
L 585.519852 238.217682 
L 587.976721 238.681718 
L 602.32167 238.70175 
L 814.642757 238.70175 
L 817.099626 231.552209 
L 819.556496 231.911622 
L 821.934112 233.467411 
L 824.390981 238.087879 
L 826.768597 238.70175 
L 858.153125 238.70175 
L 858.153125 238.70175 
" clip-path="url(#p7218ee114c)" style="fill: none; stroke: #d55e00; stroke-width: 2; stroke-linecap: square"/>
   </g>
   <g id="patch_3">
    <path d="M 21.153125 238.70175 
L 21.153125 16.94175 
" style="fill: none; stroke: #000000; stroke-width: 0.8; stroke-linejoin: miter; stroke-linecap: square"/>
   </g>
   <g id="patch_4">
    <path d="M 21.153125 238.70175 
L 858.153125 238.70175 
" style="fill: none; stroke: #000000; stroke-width: 0.8; stroke-linejoin: miter; stroke-linecap: square"/>
   </g>
   <g id="text_13">
    <!-- 5_Industry_Portfolios - Portfolio Allocation for Truncted Normal -->
    <g transform="translate(216.300125 10.94175) scale(0.144 -0.144)">
     <defs>
      <path id="DejaVuSans-35" d="M 691 4666 
L 3169 4666 
L 3169 4134 
L 1269 4134 
L 1269 2991 
Q 1406 3038 1543 3061 
Q 1681 3084 1819 3084 
Q 2600 3084 3056 2656 
Q 3513 2228 3513 1497 
Q 3513 744 3044 326 
Q 2575 -91 1722 -91 
Q 1428 -91 1123 -41 
Q 819 9 494 109 
L 494 744 
Q 775 591 1075 516 
Q 1375 441 1709 441 
Q 2250 441 2565 725 
Q 2881 1009 2881 1497 
Q 2881 1984 2565 2268 
Q 2250 2553 1709 2553 
Q 1456 2553 1204 2497 
Q 953 2441 691 2322 
L 691 4666 
z
" transform="scale(0.015625)"/>
      <path id="DejaVuSans-5f" d="M 3263 -1063 
L 3263 -1509 
L -63 -1509 
L -63 -1063 
L 3263 -1063 
z
" transform="scale(0.015625)"/>
      <path id="DejaVuSans-49" d="M 628 4666 
L 1259 4666 
L 1259 0 
L 628 0 
L 628 4666 
z
" transform="scale(0.015625)"/>
      <path id="DejaVuSans-6e" d="M 3513 2113 
L 3513 0 
L 2938 0 
L 2938 2094 
Q 2938 2591 2744 2837 
Q 2550 3084 2163 3084 
Q 1697 3084 1428 2787 
Q 1159 2491 1159 1978 
L 1159 0 
L 581 0 
L 581 3500 
L 1159 3500 
L 1159 2956 
Q 1366 3272 1645 3428 
Q 1925 3584 2291 3584 
Q 2894 3584 3203 3211 
Q 3513 2838 3513 2113 
z
" transform="scale(0.015625)"/>
      <path id="DejaVuSans-64" d="M 2906 2969 
L 2906 4863 
L 3481 4863 
L 3481 0 
L 2906 0 
L 2906 525 
Q 2725 213 2448 61 
Q 2172 -91 1784 -91 
Q 1150 -91 751 415 
Q 353 922 353 1747 
Q 353 2572 751 3078 
Q 1150 3584 1784 3584 
Q 2172 3584 2448 3432 
Q 2725 3281 2906 2969 
z
M 947 1747 
Q 947 1113 1208 752 
Q 1469 391 1925 391 
Q 2381 391 2643 752 
Q 2906 1113 2906 1747 
Q 2906 2381 2643 2742 
Q 2381 3103 1925 3103 
Q 1469 3103 1208 2742 
Q 947 2381 947 1747 
z
" transform="scale(0.015625)"/>
      <path id="DejaVuSans-75" d="M 544 1381 
L 544 3500 
L 1119 3500 
L 1119 1403 
Q 1119 906 1312 657 
Q 1506 409 1894 409 
Q 2359 409 2629 706 
Q 2900 1003 2900 1516 
L 2900 3500 
L 3475 3500 
L 3475 0 
L 2900 0 
L 2900 538 
Q 2691 219 2414 64 
Q 2138 -91 1772 -91 
Q 1169 -91 856 284 
Q 544 659 544 1381 
z
M 1991 3584 
L 1991 3584 
z
" transform="scale(0.015625)"/>
      <path id="DejaVuSans-73" d="M 2834 3397 
L 2834 2853 
Q 2591 2978 2328 3040 
Q 2066 3103 1784 3103 
Q 1356 3103 1142 2972 
Q 928 2841 928 2578 
Q 928 2378 1081 2264 
Q 1234 2150 1697 2047 
L 1894 2003 
Q 2506 1872 2764 1633 
Q 3022 1394 3022 966 
Q 3022 478 2636 193 
Q 2250 -91 1575 -91 
Q 1294 -91 989 -36 
Q 684 19 347 128 
L 347 722 
Q 666 556 975 473 
Q 1284 391 1588 391 
Q 1994 391 2212 530 
Q 2431 669 2431 922 
Q 2431 1156 2273 1281 
Q 2116 1406 1581 1522 
L 1381 1569 
Q 847 1681 609 1914 
Q 372 2147 372 2553 
Q 372 3047 722 3315 
Q 1072 3584 1716 3584 
Q 2034 3584 2315 3537 
Q 2597 3491 2834 3397 
z
" transform="scale(0.015625)"/>
      <path id="DejaVuSans-74" d="M 1172 4494 
L 1172 3500 
L 2356 3500 
L 2356 3053 
L 1172 3053 
L 1172 1153 
Q 1172 725 1289 603 
Q 1406 481 1766 481 
L 2356 481 
L 2356 0 
L 1766 0 
Q 1100 0 847 248 
Q 594 497 594 1153 
L 594 3053 
L 172 3053 
L 172 3500 
L 594 3500 
L 594 4494 
L 1172 4494 
z
" transform="scale(0.015625)"/>
      <path id="DejaVuSans-72" d="M 2631 2963 
Q 2534 3019 2420 3045 
Q 2306 3072 2169 3072 
Q 1681 3072 1420 2755 
Q 1159 2438 1159 1844 
L 1159 0 
L 581 0 
L 581 3500 
L 1159 3500 
L 1159 2956 
Q 1341 3275 1631 3429 
Q 1922 3584 2338 3584 
Q 2397 3584 2469 3576 
Q 2541 3569 2628 3553 
L 2631 2963 
z
" transform="scale(0.015625)"/>
      <path id="DejaVuSans-79" d="M 2059 -325 
Q 1816 -950 1584 -1140 
Q 1353 -1331 966 -1331 
L 506 -1331 
L 506 -850 
L 844 -850 
Q 1081 -850 1212 -737 
Q 1344 -625 1503 -206 
L 1606 56 
L 191 3500 
L 800 3500 
L 1894 763 
L 2988 3500 
L 3597 3500 
L 2059 -325 
z
" transform="scale(0.015625)"/>
      <path id="DejaVuSans-50" d="M 1259 4147 
L 1259 2394 
L 2053 2394 
Q 2494 2394 2734 2622 
Q 2975 2850 2975 3272 
Q 2975 3691 2734 3919 
Q 2494 4147 2053 4147 
L 1259 4147 
z
M 628 4666 
L 2053 4666 
Q 2838 4666 3239 4311 
Q 3641 3956 3641 3272 
Q 3641 2581 3239 2228 
Q 2838 1875 2053 1875 
L 1259 1875 
L 1259 0 
L 628 0 
L 628 4666 
z
" transform="scale(0.015625)"/>
      <path id="DejaVuSans-6f" d="M 1959 3097 
Q 1497 3097 1228 2736 
Q 959 2375 959 1747 
Q 959 1119 1226 758 
Q 1494 397 1959 397 
Q 2419 397 2687 759 
Q 2956 1122 2956 1747 
Q 2956 2369 2687 2733 
Q 2419 3097 1959 3097 
z
M 1959 3584 
Q 2709 3584 3137 3096 
Q 3566 2609 3566 1747 
Q 3566 888 3137 398 
Q 2709 -91 1959 -91 
Q 1206 -91 779 398 
Q 353 888 353 1747 
Q 353 2609 779 3096 
Q 1206 3584 1959 3584 
z
" transform="scale(0.015625)"/>
      <path id="DejaVuSans-66" d="M 2375 4863 
L 2375 4384 
L 1825 4384 
Q 1516 4384 1395 4259 
Q 1275 4134 1275 3809 
L 1275 3500 
L 2222 3500 
L 2222 3053 
L 1275 3053 
L 1275 0 
L 697 0 
L 697 3053 
L 147 3053 
L 147 3500 
L 697 3500 
L 697 3744 
Q 697 4328 969 4595 
Q 1241 4863 1831 4863 
L 2375 4863 
z
" transform="scale(0.015625)"/>
      <path id="DejaVuSans-6c" d="M 603 4863 
L 1178 4863 
L 1178 0 
L 603 0 
L 603 4863 
z
" transform="scale(0.015625)"/>
      <path id="DejaVuSans-69" d="M 603 3500 
L 1178 3500 
L 1178 0 
L 603 0 
L 603 3500 
z
M 603 4863 
L 1178 4863 
L 1178 4134 
L 603 4134 
L 603 4863 
z
" transform="scale(0.015625)"/>
      <path id="DejaVuSans-20" transform="scale(0.015625)"/>
      <path id="DejaVuSans-2d" d="M 313 2009 
L 1997 2009 
L 1997 1497 
L 313 1497 
L 313 2009 
z
" transform="scale(0.015625)"/>
      <path id="DejaVuSans-41" d="M 2188 4044 
L 1331 1722 
L 3047 1722 
L 2188 4044 
z
M 1831 4666 
L 2547 4666 
L 4325 0 
L 3669 0 
L 3244 1197 
L 1141 1197 
L 716 0 
L 50 0 
L 1831 4666 
z
" transform="scale(0.015625)"/>
      <path id="DejaVuSans-63" d="M 3122 3366 
L 3122 2828 
Q 2878 2963 2633 3030 
Q 2388 3097 2138 3097 
Q 1578 3097 1268 2742 
Q 959 2388 959 1747 
Q 959 1106 1268 751 
Q 1578 397 2138 397 
Q 2388 397 2633 464 
Q 2878 531 3122 666 
L 3122 134 
Q 2881 22 2623 -34 
Q 2366 -91 2075 -91 
Q 1284 -91 818 406 
Q 353 903 353 1747 
Q 353 2603 823 3093 
Q 1294 3584 2113 3584 
Q 2378 3584 2631 3529 
Q 2884 3475 3122 3366 
z
" transform="scale(0.015625)"/>
      <path id="DejaVuSans-61" d="M 2194 1759 
Q 1497 1759 1228 1600 
Q 959 1441 959 1056 
Q 959 750 1161 570 
Q 1363 391 1709 391 
Q 2188 391 2477 730 
Q 2766 1069 2766 1631 
L 2766 1759 
L 2194 1759 
z
M 3341 1997 
L 3341 0 
L 2766 0 
L 2766 531 
Q 2569 213 2275 61 
Q 1981 -91 1556 -91 
Q 1019 -91 701 211 
Q 384 513 384 1019 
Q 384 1609 779 1909 
Q 1175 2209 1959 2209 
L 2766 2209 
L 2766 2266 
Q 2766 2663 2505 2880 
Q 2244 3097 1772 3097 
Q 1472 3097 1187 3025 
Q 903 2953 641 2809 
L 641 3341 
Q 956 3463 1253 3523 
Q 1550 3584 1831 3584 
Q 2591 3584 2966 3190 
Q 3341 2797 3341 1997 
z
" transform="scale(0.015625)"/>
      <path id="DejaVuSans-54" d="M -19 4666 
L 3928 4666 
L 3928 4134 
L 2272 4134 
L 2272 0 
L 1638 0 
L 1638 4134 
L -19 4134 
L -19 4666 
z
" transform="scale(0.015625)"/>
      <path id="DejaVuSans-65" d="M 3597 1894 
L 3597 1613 
L 953 1613 
Q 991 1019 1311 708 
Q 1631 397 2203 397 
Q 2534 397 2845 478 
Q 3156 559 3463 722 
L 3463 178 
Q 3153 47 2828 -22 
Q 2503 -91 2169 -91 
Q 1331 -91 842 396 
Q 353 884 353 1716 
Q 353 2575 817 3079 
Q 1281 3584 2069 3584 
Q 2775 3584 3186 3129 
Q 3597 2675 3597 1894 
z
M 3022 2063 
Q 3016 2534 2758 2815 
Q 2500 3097 2075 3097 
Q 1594 3097 1305 2825 
Q 1016 2553 972 2059 
L 3022 2063 
z
" transform="scale(0.015625)"/>
      <path id="DejaVuSans-4e" d="M 628 4666 
L 1478 4666 
L 3547 763 
L 3547 4666 
L 4159 4666 
L 4159 0 
L 3309 0 
L 1241 3903 
L 1241 0 
L 628 0 
L 628 4666 
z
" transform="scale(0.015625)"/>
      <path id="DejaVuSans-6d" d="M 3328 2828 
Q 3544 3216 3844 3400 
Q 4144 3584 4550 3584 
Q 5097 3584 5394 3201 
Q 5691 2819 5691 2113 
L 5691 0 
L 5113 0 
L 5113 2094 
Q 5113 2597 4934 2840 
Q 4756 3084 4391 3084 
Q 3944 3084 3684 2787 
Q 3425 2491 3425 1978 
L 3425 0 
L 2847 0 
L 2847 2094 
Q 2847 2600 2669 2842 
Q 2491 3084 2119 3084 
Q 1678 3084 1418 2786 
Q 1159 2488 1159 1978 
L 1159 0 
L 581 0 
L 581 3500 
L 1159 3500 
L 1159 2956 
Q 1356 3278 1631 3431 
Q 1906 3584 2284 3584 
Q 2666 3584 2933 3390 
Q 3200 3197 3328 2828 
z
" transform="scale(0.015625)"/>
     </defs>
     <use xlink:href="#DejaVuSans-35"/>
     <use xlink:href="#DejaVuSans-5f" x="63.623047"/>
     <use xlink:href="#DejaVuSans-49" x="113.623047"/>
     <use xlink:href="#DejaVuSans-6e" x="143.115234"/>
     <use xlink:href="#DejaVuSans-64" x="206.494141"/>
     <use xlink:href="#DejaVuSans-75" x="269.970703"/>
     <use xlink:href="#DejaVuSans-73" x="333.349609"/>
     <use xlink:href="#DejaVuSans-74" x="385.449219"/>
     <use xlink:href="#DejaVuSans-72" x="424.658203"/>
     <use xlink:href="#DejaVuSans-79" x="465.771484"/>
     <use xlink:href="#DejaVuSans-5f" x="524.951172"/>
     <use xlink:href="#DejaVuSans-50" x="574.951172"/>
     <use xlink:href="#DejaVuSans-6f" x="631.628906"/>
     <use xlink:href="#DejaVuSans-72" x="692.810547"/>
     <use xlink:href="#DejaVuSans-74" x="733.923828"/>
     <use xlink:href="#DejaVuSans-66" x="773.132812"/>
     <use xlink:href="#DejaVuSans-6f" x="808.337891"/>
     <use xlink:href="#DejaVuSans-6c" x="869.519531"/>
     <use xlink:href="#DejaVuSans-69" x="897.302734"/>
     <use xlink:href="#DejaVuSans-6f" x="925.085938"/>
     <use xlink:href="#DejaVuSans-73" x="986.267578"/>
     <use xlink:href="#DejaVuSans-20" x="1038.367188"/>
     <use xlink:href="#DejaVuSans-2d" x="1070.154297"/>
     <use xlink:href="#DejaVuSans-20" x="1106.238281"/>
     <use xlink:href="#DejaVuSans-50" x="1138.025391"/>
     <use xlink:href="#DejaVuSans-6f" x="1194.703125"/>
     <use xlink:href="#DejaVuSans-72" x="1255.884766"/>
     <use xlink:href="#DejaVuSans-74" x="1296.998047"/>
     <use xlink:href="#DejaVuSans-66" x="1336.207031"/>
     <use xlink:href="#DejaVuSans-6f" x="1371.412109"/>
     <use xlink:href="#DejaVuSans-6c" x="1432.59375"/>
     <use xlink:href="#DejaVuSans-69" x="1460.376953"/>
     <use xlink:href="#DejaVuSans-6f" x="1488.160156"/>
     <use xlink:href="#DejaVuSans-20" x="1549.341797"/>
     <use xlink:href="#DejaVuSans-41" x="1581.128906"/>
     <use xlink:href="#DejaVuSans-6c" x="1649.537109"/>
     <use xlink:href="#DejaVuSans-6c" x="1677.320312"/>
     <use xlink:href="#DejaVuSans-6f" x="1705.103516"/>
     <use xlink:href="#DejaVuSans-63" x="1766.285156"/>
     <use xlink:href="#DejaVuSans-61" x="1821.265625"/>
     <use xlink:href="#DejaVuSans-74" x="1882.544922"/>
     <use xlink:href="#DejaVuSans-69" x="1921.753906"/>
     <use xlink:href="#DejaVuSans-6f" x="1949.537109"/>
     <use xlink:href="#DejaVuSans-6e" x="2010.71875"/>
     <use xlink:href="#DejaVuSans-20" x="2074.097656"/>
     <use xlink:href="#DejaVuSans-66" x="2105.884766"/>
     <use xlink:href="#DejaVuSans-6f" x="2141.089844"/>
     <use xlink:href="#DejaVuSans-72" x="2202.271484"/>
     <use xlink:href="#DejaVuSans-20" x="2243.384766"/>
     <use xlink:href="#DejaVuSans-54" x="2275.171875"/>
     <use xlink:href="#DejaVuSans-72" x="2321.505859"/>
     <use xlink:href="#DejaVuSans-75" x="2362.619141"/>
     <use xlink:href="#DejaVuSans-6e" x="2425.998047"/>
     <use xlink:href="#DejaVuSans-63" x="2489.376953"/>
     <use xlink:href="#DejaVuSans-74" x="2544.357422"/>
     <use xlink:href="#DejaVuSans-65" x="2583.566406"/>
     <use xlink:href="#DejaVuSans-64" x="2645.089844"/>
     <use xlink:href="#DejaVuSans-20" x="2708.566406"/>
     <use xlink:href="#DejaVuSans-4e" x="2740.353516"/>
     <use xlink:href="#DejaVuSans-6f" x="2815.158203"/>
     <use xlink:href="#DejaVuSans-72" x="2876.339844"/>
     <use xlink:href="#DejaVuSans-6d" x="2915.703125"/>
     <use xlink:href="#DejaVuSans-61" x="3013.115234"/>
     <use xlink:href="#DejaVuSans-6c" x="3074.394531"/>
    </g>
   </g>
  </g>
 </g>
 <defs>
  <clipPath id="p7218ee114c">
   <rect x="21.153125" y="16.94175" width="837" height="221.76"/>
  </clipPath>
 </defs>
</svg>
