<?xml version="1.0" encoding="utf-8" standalone="no"?>
<!DOCTYPE svg PUBLIC "-//W3C//DTD SVG 1.1//EN"
  "http://www.w3.org/Graphics/SVG/1.1/DTD/svg11.dtd">
<svg xmlns:xlink="http://www.w3.org/1999/xlink" width="866.532812pt" height="253.629875pt" viewBox="0 0 866.532812 253.629875" xmlns="http://www.w3.org/2000/svg" version="1.1">
 <metadata>
  <rdf:RDF xmlns:dc="http://purl.org/dc/elements/1.1/" xmlns:cc="http://creativecommons.org/ns#" xmlns:rdf="http://www.w3.org/1999/02/22-rdf-syntax-ns#">
   <cc:Work>
    <dc:type rdf:resource="http://purl.org/dc/dcmitype/StillImage"/>
    <dc:date>2025-08-06T21:52:44.820980</dc:date>
    <dc:format>image/svg+xml</dc:format>
    <dc:creator>
     <cc:Agent>
      <dc:title>Matplotlib v3.9.2, https://matplotlib.org/</dc:title>
     </cc:Agent>
    </dc:creator>
   </cc:Work>
  </rdf:RDF>
 </metadata>
 <defs>
  <style type="text/css">*{stroke-linejoin: round; stroke-linecap: butt}</style>
 </defs>
 <g id="figure_1">
  <g id="patch_1">
   <path d="M 0 253.629875 
L 866.532812 253.629875 
L 866.532812 0 
L 0 0 
z
" style="fill: #ffffff"/>
  </g>
  <g id="axes_1">
   <g id="patch_2">
    <path d="M 29.532813 238.70175 
L 866.532812 238.70175 
L 866.532812 16.94175 
L 29.532813 16.94175 
z
" style="fill: #ffffff"/>
   </g>
   <g id="matplotlib.axis_1">
    <g id="xtick_1">
     <g id="line2d_1">
      <defs>
       <path id="mbaf854b1ed" d="M 0 1.75 
L 0 -1.75 
" style="stroke: #000000; stroke-width: 0.8"/>
      </defs>
      <g>
       <use xlink:href="#mbaf854b1ed" x="85.010513" y="238.70175" style="stroke: #000000; stroke-width: 0.8"/>
      </g>
     </g>
     <g id="text_1">
      <!-- 1992 -->
      <g transform="translate(72.285513 251.550188) scale(0.1 -0.1)">
       <defs>
        <path id="DejaVuSans-31" d="M 794 531 
L 1825 531 
L 1825 4091 
L 703 3866 
L 703 4441 
L 1819 4666 
L 2450 4666 
L 2450 531 
L 3481 531 
L 3481 0 
L 794 0 
L 794 531 
z
" transform="scale(0.015625)"/>
        <path id="DejaVuSans-39" d="M 703 97 
L 703 672 
Q 941 559 1184 500 
Q 1428 441 1663 441 
Q 2288 441 2617 861 
Q 2947 1281 2994 2138 
Q 2813 1869 2534 1725 
Q 2256 1581 1919 1581 
Q 1219 1581 811 2004 
Q 403 2428 403 3163 
Q 403 3881 828 4315 
Q 1253 4750 1959 4750 
Q 2769 4750 3195 4129 
Q 3622 3509 3622 2328 
Q 3622 1225 3098 567 
Q 2575 -91 1691 -91 
Q 1453 -91 1209 -44 
Q 966 3 703 97 
z
M 1959 2075 
Q 2384 2075 2632 2365 
Q 2881 2656 2881 3163 
Q 2881 3666 2632 3958 
Q 2384 4250 1959 4250 
Q 1534 4250 1286 3958 
Q 1038 3666 1038 3163 
Q 1038 2656 1286 2365 
Q 1534 2075 1959 2075 
z
" transform="scale(0.015625)"/>
        <path id="DejaVuSans-32" d="M 1228 531 
L 3431 531 
L 3431 0 
L 469 0 
L 469 531 
Q 828 903 1448 1529 
Q 2069 2156 2228 2338 
Q 2531 2678 2651 2914 
Q 2772 3150 2772 3378 
Q 2772 3750 2511 3984 
Q 2250 4219 1831 4219 
Q 1534 4219 1204 4116 
Q 875 4013 500 3803 
L 500 4441 
Q 881 4594 1212 4672 
Q 1544 4750 1819 4750 
Q 2544 4750 2975 4387 
Q 3406 4025 3406 3419 
Q 3406 3131 3298 2873 
Q 3191 2616 2906 2266 
Q 2828 2175 2409 1742 
Q 1991 1309 1228 531 
z
" transform="scale(0.015625)"/>
       </defs>
       <use xlink:href="#DejaVuSans-31"/>
       <use xlink:href="#DejaVuSans-39" x="63.623047"/>
       <use xlink:href="#DejaVuSans-39" x="127.246094"/>
       <use xlink:href="#DejaVuSans-32" x="190.869141"/>
      </g>
     </g>
    </g>
    <g id="xtick_2">
     <g id="line2d_2">
      <g>
       <use xlink:href="#mbaf854b1ed" x="200.800401" y="238.70175" style="stroke: #000000; stroke-width: 0.8"/>
      </g>
     </g>
     <g id="text_2">
      <!-- 1996 -->
      <g transform="translate(188.075401 251.550188) scale(0.1 -0.1)">
       <defs>
        <path id="DejaVuSans-36" d="M 2113 2584 
Q 1688 2584 1439 2293 
Q 1191 2003 1191 1497 
Q 1191 994 1439 701 
Q 1688 409 2113 409 
Q 2538 409 2786 701 
Q 3034 994 3034 1497 
Q 3034 2003 2786 2293 
Q 2538 2584 2113 2584 
z
M 3366 4563 
L 3366 3988 
Q 3128 4100 2886 4159 
Q 2644 4219 2406 4219 
Q 1781 4219 1451 3797 
Q 1122 3375 1075 2522 
Q 1259 2794 1537 2939 
Q 1816 3084 2150 3084 
Q 2853 3084 3261 2657 
Q 3669 2231 3669 1497 
Q 3669 778 3244 343 
Q 2819 -91 2113 -91 
Q 1303 -91 875 529 
Q 447 1150 447 2328 
Q 447 3434 972 4092 
Q 1497 4750 2381 4750 
Q 2619 4750 2861 4703 
Q 3103 4656 3366 4563 
z
" transform="scale(0.015625)"/>
       </defs>
       <use xlink:href="#DejaVuSans-31"/>
       <use xlink:href="#DejaVuSans-39" x="63.623047"/>
       <use xlink:href="#DejaVuSans-39" x="127.246094"/>
       <use xlink:href="#DejaVuSans-36" x="190.869141"/>
      </g>
     </g>
    </g>
    <g id="xtick_3">
     <g id="line2d_3">
      <g>
       <use xlink:href="#mbaf854b1ed" x="316.590288" y="238.70175" style="stroke: #000000; stroke-width: 0.8"/>
      </g>
     </g>
     <g id="text_3">
      <!-- 2000 -->
      <g transform="translate(303.865288 251.550188) scale(0.1 -0.1)">
       <defs>
        <path id="DejaVuSans-30" d="M 2034 4250 
Q 1547 4250 1301 3770 
Q 1056 3291 1056 2328 
Q 1056 1369 1301 889 
Q 1547 409 2034 409 
Q 2525 409 2770 889 
Q 3016 1369 3016 2328 
Q 3016 3291 2770 3770 
Q 2525 4250 2034 4250 
z
M 2034 4750 
Q 2819 4750 3233 4129 
Q 3647 3509 3647 2328 
Q 3647 1150 3233 529 
Q 2819 -91 2034 -91 
Q 1250 -91 836 529 
Q 422 1150 422 2328 
Q 422 3509 836 4129 
Q 1250 4750 2034 4750 
z
" transform="scale(0.015625)"/>
       </defs>
       <use xlink:href="#DejaVuSans-32"/>
       <use xlink:href="#DejaVuSans-30" x="63.623047"/>
       <use xlink:href="#DejaVuSans-30" x="127.246094"/>
       <use xlink:href="#DejaVuSans-30" x="190.869141"/>
      </g>
     </g>
    </g>
    <g id="xtick_4">
     <g id="line2d_4">
      <g>
       <use xlink:href="#mbaf854b1ed" x="432.380175" y="238.70175" style="stroke: #000000; stroke-width: 0.8"/>
      </g>
     </g>
     <g id="text_4">
      <!-- 2004 -->
      <g transform="translate(419.655175 251.550188) scale(0.1 -0.1)">
       <defs>
        <path id="DejaVuSans-34" d="M 2419 4116 
L 825 1625 
L 2419 1625 
L 2419 4116 
z
M 2253 4666 
L 3047 4666 
L 3047 1625 
L 3713 1625 
L 3713 1100 
L 3047 1100 
L 3047 0 
L 2419 0 
L 2419 1100 
L 313 1100 
L 313 1709 
L 2253 4666 
z
" transform="scale(0.015625)"/>
       </defs>
       <use xlink:href="#DejaVuSans-32"/>
       <use xlink:href="#DejaVuSans-30" x="63.623047"/>
       <use xlink:href="#DejaVuSans-30" x="127.246094"/>
       <use xlink:href="#DejaVuSans-34" x="190.869141"/>
      </g>
     </g>
    </g>
    <g id="xtick_5">
     <g id="line2d_5">
      <g>
       <use xlink:href="#mbaf854b1ed" x="548.170063" y="238.70175" style="stroke: #000000; stroke-width: 0.8"/>
      </g>
     </g>
     <g id="text_5">
      <!-- 2008 -->
      <g transform="translate(535.445063 251.550188) scale(0.1 -0.1)">
       <defs>
        <path id="DejaVuSans-38" d="M 2034 2216 
Q 1584 2216 1326 1975 
Q 1069 1734 1069 1313 
Q 1069 891 1326 650 
Q 1584 409 2034 409 
Q 2484 409 2743 651 
Q 3003 894 3003 1313 
Q 3003 1734 2745 1975 
Q 2488 2216 2034 2216 
z
M 1403 2484 
Q 997 2584 770 2862 
Q 544 3141 544 3541 
Q 544 4100 942 4425 
Q 1341 4750 2034 4750 
Q 2731 4750 3128 4425 
Q 3525 4100 3525 3541 
Q 3525 3141 3298 2862 
Q 3072 2584 2669 2484 
Q 3125 2378 3379 2068 
Q 3634 1759 3634 1313 
Q 3634 634 3220 271 
Q 2806 -91 2034 -91 
Q 1263 -91 848 271 
Q 434 634 434 1313 
Q 434 1759 690 2068 
Q 947 2378 1403 2484 
z
M 1172 3481 
Q 1172 3119 1398 2916 
Q 1625 2713 2034 2713 
Q 2441 2713 2670 2916 
Q 2900 3119 2900 3481 
Q 2900 3844 2670 4047 
Q 2441 4250 2034 4250 
Q 1625 4250 1398 4047 
Q 1172 3844 1172 3481 
z
" transform="scale(0.015625)"/>
       </defs>
       <use xlink:href="#DejaVuSans-32"/>
       <use xlink:href="#DejaVuSans-30" x="63.623047"/>
       <use xlink:href="#DejaVuSans-30" x="127.246094"/>
       <use xlink:href="#DejaVuSans-38" x="190.869141"/>
      </g>
     </g>
    </g>
    <g id="xtick_6">
     <g id="line2d_6">
      <g>
       <use xlink:href="#mbaf854b1ed" x="663.95995" y="238.70175" style="stroke: #000000; stroke-width: 0.8"/>
      </g>
     </g>
     <g id="text_6">
      <!-- 2012 -->
      <g transform="translate(651.23495 251.550188) scale(0.1 -0.1)">
       <use xlink:href="#DejaVuSans-32"/>
       <use xlink:href="#DejaVuSans-30" x="63.623047"/>
       <use xlink:href="#DejaVuSans-31" x="127.246094"/>
       <use xlink:href="#DejaVuSans-32" x="190.869141"/>
      </g>
     </g>
    </g>
    <g id="xtick_7">
     <g id="line2d_7">
      <g>
       <use xlink:href="#mbaf854b1ed" x="779.749837" y="238.70175" style="stroke: #000000; stroke-width: 0.8"/>
      </g>
     </g>
     <g id="text_7">
      <!-- 2016 -->
      <g transform="translate(767.024837 251.550188) scale(0.1 -0.1)">
       <use xlink:href="#DejaVuSans-32"/>
       <use xlink:href="#DejaVuSans-30" x="63.623047"/>
       <use xlink:href="#DejaVuSans-31" x="127.246094"/>
       <use xlink:href="#DejaVuSans-36" x="190.869141"/>
      </g>
     </g>
    </g>
   </g>
   <g id="matplotlib.axis_2">
    <g id="ytick_1">
     <g id="line2d_8">
      <path d="M 29.532813 217.638106 
L 866.532812 217.638106 
" clip-path="url(#p09acfb4e52)" style="fill: none; stroke-dasharray: 1.85,0.8; stroke-dashoffset: 0; stroke: #b2b2b2; stroke-width: 0.5"/>
     </g>
     <g id="line2d_9">
      <defs>
       <path id="m4ed8aad42c" d="M 1.75 0 
L -1.75 -0 
" style="stroke: #000000; stroke-width: 0.8"/>
      </defs>
      <g>
       <use xlink:href="#m4ed8aad42c" x="29.532813" y="217.638106" style="stroke: #000000; stroke-width: 0.8"/>
      </g>
     </g>
     <g id="text_8">
      <!-- −0.1 -->
      <g transform="translate(0 221.437325) scale(0.1 -0.1)">
       <defs>
        <path id="DejaVuSans-2212" d="M 678 2272 
L 4684 2272 
L 4684 1741 
L 678 1741 
L 678 2272 
z
" transform="scale(0.015625)"/>
        <path id="DejaVuSans-2e" d="M 684 794 
L 1344 794 
L 1344 0 
L 684 0 
L 684 794 
z
" transform="scale(0.015625)"/>
       </defs>
       <use xlink:href="#DejaVuSans-2212"/>
       <use xlink:href="#DejaVuSans-30" x="83.789062"/>
       <use xlink:href="#DejaVuSans-2e" x="147.412109"/>
       <use xlink:href="#DejaVuSans-31" x="179.199219"/>
      </g>
     </g>
    </g>
    <g id="ytick_2">
     <g id="line2d_10">
      <path d="M 29.532813 184.774253 
L 866.532812 184.774253 
" clip-path="url(#p09acfb4e52)" style="fill: none; stroke-dasharray: 1.85,0.8; stroke-dashoffset: 0; stroke: #b2b2b2; stroke-width: 0.5"/>
     </g>
     <g id="line2d_11">
      <g>
       <use xlink:href="#m4ed8aad42c" x="29.532813" y="184.774253" style="stroke: #000000; stroke-width: 0.8"/>
      </g>
     </g>
     <g id="text_9">
      <!-- 0.0 -->
      <g transform="translate(8.379688 188.573472) scale(0.1 -0.1)">
       <use xlink:href="#DejaVuSans-30"/>
       <use xlink:href="#DejaVuSans-2e" x="63.623047"/>
       <use xlink:href="#DejaVuSans-30" x="95.410156"/>
      </g>
     </g>
    </g>
    <g id="ytick_3">
     <g id="line2d_12">
      <path d="M 29.532813 151.9104 
L 866.532812 151.9104 
" clip-path="url(#p09acfb4e52)" style="fill: none; stroke-dasharray: 1.85,0.8; stroke-dashoffset: 0; stroke: #b2b2b2; stroke-width: 0.5"/>
     </g>
     <g id="line2d_13">
      <g>
       <use xlink:href="#m4ed8aad42c" x="29.532813" y="151.9104" style="stroke: #000000; stroke-width: 0.8"/>
      </g>
     </g>
     <g id="text_10">
      <!-- 0.1 -->
      <g transform="translate(8.379688 155.709619) scale(0.1 -0.1)">
       <use xlink:href="#DejaVuSans-30"/>
       <use xlink:href="#DejaVuSans-2e" x="63.623047"/>
       <use xlink:href="#DejaVuSans-31" x="95.410156"/>
      </g>
     </g>
    </g>
    <g id="ytick_4">
     <g id="line2d_14">
      <path d="M 29.532813 119.046547 
L 866.532812 119.046547 
" clip-path="url(#p09acfb4e52)" style="fill: none; stroke-dasharray: 1.85,0.8; stroke-dashoffset: 0; stroke: #b2b2b2; stroke-width: 0.5"/>
     </g>
     <g id="line2d_15">
      <g>
       <use xlink:href="#m4ed8aad42c" x="29.532813" y="119.046547" style="stroke: #000000; stroke-width: 0.8"/>
      </g>
     </g>
     <g id="text_11">
      <!-- 0.2 -->
      <g transform="translate(8.379688 122.845766) scale(0.1 -0.1)">
       <use xlink:href="#DejaVuSans-30"/>
       <use xlink:href="#DejaVuSans-2e" x="63.623047"/>
       <use xlink:href="#DejaVuSans-32" x="95.410156"/>
      </g>
     </g>
    </g>
    <g id="ytick_5">
     <g id="line2d_16">
      <path d="M 29.532813 86.182694 
L 866.532812 86.182694 
" clip-path="url(#p09acfb4e52)" style="fill: none; stroke-dasharray: 1.85,0.8; stroke-dashoffset: 0; stroke: #b2b2b2; stroke-width: 0.5"/>
     </g>
     <g id="line2d_17">
      <g>
       <use xlink:href="#m4ed8aad42c" x="29.532813" y="86.182694" style="stroke: #000000; stroke-width: 0.8"/>
      </g>
     </g>
     <g id="text_12">
      <!-- 0.3 -->
      <g transform="translate(8.379688 89.981913) scale(0.1 -0.1)">
       <defs>
        <path id="DejaVuSans-33" d="M 2597 2516 
Q 3050 2419 3304 2112 
Q 3559 1806 3559 1356 
Q 3559 666 3084 287 
Q 2609 -91 1734 -91 
Q 1441 -91 1130 -33 
Q 819 25 488 141 
L 488 750 
Q 750 597 1062 519 
Q 1375 441 1716 441 
Q 2309 441 2620 675 
Q 2931 909 2931 1356 
Q 2931 1769 2642 2001 
Q 2353 2234 1838 2234 
L 1294 2234 
L 1294 2753 
L 1863 2753 
Q 2328 2753 2575 2939 
Q 2822 3125 2822 3475 
Q 2822 3834 2567 4026 
Q 2313 4219 1838 4219 
Q 1578 4219 1281 4162 
Q 984 4106 628 3988 
L 628 4550 
Q 988 4650 1302 4700 
Q 1616 4750 1894 4750 
Q 2613 4750 3031 4423 
Q 3450 4097 3450 3541 
Q 3450 3153 3228 2886 
Q 3006 2619 2597 2516 
z
" transform="scale(0.015625)"/>
       </defs>
       <use xlink:href="#DejaVuSans-30"/>
       <use xlink:href="#DejaVuSans-2e" x="63.623047"/>
       <use xlink:href="#DejaVuSans-33" x="95.410156"/>
      </g>
     </g>
    </g>
    <g id="ytick_6">
     <g id="line2d_18">
      <path d="M 29.532813 53.318841 
L 866.532812 53.318841 
" clip-path="url(#p09acfb4e52)" style="fill: none; stroke-dasharray: 1.85,0.8; stroke-dashoffset: 0; stroke: #b2b2b2; stroke-width: 0.5"/>
     </g>
     <g id="line2d_19">
      <g>
       <use xlink:href="#m4ed8aad42c" x="29.532813" y="53.318841" style="stroke: #000000; stroke-width: 0.8"/>
      </g>
     </g>
     <g id="text_13">
      <!-- 0.4 -->
      <g transform="translate(8.379688 57.11806) scale(0.1 -0.1)">
       <use xlink:href="#DejaVuSans-30"/>
       <use xlink:href="#DejaVuSans-2e" x="63.623047"/>
       <use xlink:href="#DejaVuSans-34" x="95.410156"/>
      </g>
     </g>
    </g>
    <g id="ytick_7">
     <g id="line2d_20">
      <path d="M 29.532813 20.454988 
L 866.532812 20.454988 
" clip-path="url(#p09acfb4e52)" style="fill: none; stroke-dasharray: 1.85,0.8; stroke-dashoffset: 0; stroke: #b2b2b2; stroke-width: 0.5"/>
     </g>
     <g id="line2d_21">
      <g>
       <use xlink:href="#m4ed8aad42c" x="29.532813" y="20.454988" style="stroke: #000000; stroke-width: 0.8"/>
      </g>
     </g>
     <g id="text_14">
      <!-- 0.5 -->
      <g transform="translate(8.379688 24.254207) scale(0.1 -0.1)">
       <defs>
        <path id="DejaVuSans-35" d="M 691 4666 
L 3169 4666 
L 3169 4134 
L 1269 4134 
L 1269 2991 
Q 1406 3038 1543 3061 
Q 1681 3084 1819 3084 
Q 2600 3084 3056 2656 
Q 3513 2228 3513 1497 
Q 3513 744 3044 326 
Q 2575 -91 1722 -91 
Q 1428 -91 1123 -41 
Q 819 9 494 109 
L 494 744 
Q 775 591 1075 516 
Q 1375 441 1709 441 
Q 2250 441 2565 725 
Q 2881 1009 2881 1497 
Q 2881 1984 2565 2268 
Q 2250 2553 1709 2553 
Q 1456 2553 1204 2497 
Q 953 2441 691 2322 
L 691 4666 
z
" transform="scale(0.015625)"/>
       </defs>
       <use xlink:href="#DejaVuSans-30"/>
       <use xlink:href="#DejaVuSans-2e" x="63.623047"/>
       <use xlink:href="#DejaVuSans-35" x="95.410156"/>
      </g>
     </g>
    </g>
   </g>
   <g id="line2d_22">
    <path d="M 29.532812 185.463787 
L 31.751921 185.454026 
L 34.20879 185.736633 
L 36.586406 185.758967 
L 39.043276 185.975237 
L 41.420891 184.958175 
L 43.877761 182.095521 
L 46.334631 181.596673 
L 48.712246 181.864645 
L 51.169116 185.09789 
L 53.546732 189.688891 
L 56.003601 189.779635 
L 58.460471 187.91305 
L 60.679579 187.220604 
L 63.136449 188.512815 
L 65.514064 186.526446 
L 67.970934 185.412022 
L 70.34855 185.134063 
L 72.805419 184.007289 
L 75.262289 184.28234 
L 77.639905 179.136201 
L 80.096774 185.460073 
L 82.47439 185.100634 
L 84.93126 180.314819 
L 87.388129 176.683598 
L 89.686491 178.068682 
L 92.143361 172.313704 
L 94.520976 172.479495 
L 96.977846 170.496485 
L 99.355462 169.676556 
L 101.812331 169.864278 
L 104.269201 168.544395 
L 106.646817 166.130282 
L 109.103686 165.17086 
L 111.481302 162.822953 
L 113.938172 140.733251 
L 116.395041 138.532107 
L 118.614149 137.941113 
L 123.448635 137.702909 
L 125.905504 134.171041 
L 128.28312 140.1689 
L 130.73999 139.454953 
L 133.196859 139.64773 
L 135.574475 140.111077 
L 138.031345 137.848605 
L 140.408961 137.272605 
L 142.86583 139.287158 
L 145.3227 137.73936 
L 147.541808 135.68645 
L 149.998677 136.839822 
L 152.376293 133.956055 
L 154.833163 135.089095 
L 157.210779 134.624177 
L 159.667648 134.732278 
L 162.124518 134.434946 
L 164.502134 132.320489 
L 166.959003 131.650591 
L 169.336619 130.436634 
L 171.793489 130.300097 
L 174.250358 130.289344 
L 176.469466 130.114212 
L 178.926336 129.0874 
L 181.303952 129.875173 
L 183.760821 127.224077 
L 186.138437 127.147116 
L 188.595307 128.520016 
L 191.052176 128.514374 
L 193.429792 125.271997 
L 195.886662 125.247294 
L 198.264277 121.244018 
L 200.721147 124.623577 
L 203.178017 125.44122 
L 205.476378 123.607786 
L 207.933248 121.358967 
L 210.310864 119.36235 
L 212.767733 116.2545 
L 215.145349 117.723837 
L 217.602219 116.852066 
L 220.059088 117.319144 
L 222.436704 117.491125 
L 224.893574 115.808159 
L 227.27119 112.385682 
L 229.728059 111.596849 
L 232.184929 113.440178 
L 234.404037 103.572416 
L 236.860906 102.154304 
L 239.238522 102.19098 
L 241.695392 101.53927 
L 244.073008 100.724682 
L 246.529877 100.282799 
L 248.986747 99.396299 
L 251.364363 97.638755 
L 253.821232 98.165373 
L 256.198848 97.395589 
L 258.655718 97.433286 
L 261.112587 98.453855 
L 263.331695 96.817045 
L 265.788565 97.529298 
L 268.166181 102.510585 
L 270.62305 98.814931 
L 273.000666 95.7511 
L 275.457536 91.184593 
L 277.914405 90.798591 
L 280.292021 95.897793 
L 282.748891 86.035112 
L 285.126506 80.090119 
L 287.583376 86.592019 
L 290.040246 91.549322 
L 292.259354 91.714194 
L 294.716223 94.808458 
L 297.093839 96.857656 
L 299.550709 94.41985 
L 301.928324 93.139061 
L 304.385194 93.106561 
L 306.842064 96.864071 
L 309.219679 92.690859 
L 311.676549 97.360436 
L 314.054165 93.911472 
L 316.511034 91.912029 
L 318.967904 97.182893 
L 321.266266 94.014833 
L 323.723135 94.155858 
L 326.100751 102.845018 
L 328.557621 104.408565 
L 330.935237 107.778495 
L 333.392106 101.826366 
L 335.848976 108.106661 
L 340.683461 95.112942 
L 343.061077 93.496068 
L 345.517946 93.12046 
L 347.974816 83.718195 
L 350.193924 90.571273 
L 352.650794 85.226918 
L 355.02841 87.399089 
L 357.485279 82.060976 
L 359.862895 77.304866 
L 362.319764 76.169725 
L 364.776634 77.808776 
L 369.611119 77.265804 
L 371.988735 75.55683 
L 374.445605 75.914175 
L 376.902474 78.535957 
L 379.121583 81.199966 
L 381.578452 83.198331 
L 383.956068 79.491054 
L 386.412937 82.613968 
L 388.790553 79.471948 
L 391.247423 83.174747 
L 393.704292 80.613282 
L 396.081908 88.667508 
L 398.538778 87.838969 
L 400.916394 90.013279 
L 403.373263 88.350752 
L 405.830133 85.301117 
L 408.049241 84.503254 
L 410.50611 86.748186 
L 412.883726 82.008849 
L 415.340596 82.225628 
L 417.718212 82.565952 
L 420.175081 83.685251 
L 422.631951 81.423499 
L 425.009567 84.972187 
L 427.466436 85.402779 
L 429.844052 94.570953 
L 432.300922 94.901443 
L 434.757791 89.446942 
L 437.056153 80.681477 
L 439.513023 80.845208 
L 441.890638 85.357202 
L 444.347508 85.582685 
L 449.181993 87.503964 
L 454.016479 86.742131 
L 456.473348 83.242816 
L 458.850964 86.596724 
L 461.307834 91.998391 
L 463.764703 91.165037 
L 465.983811 94.710487 
L 468.440681 89.587328 
L 470.818297 89.068466 
L 473.275166 78.890308 
L 475.652782 82.677229 
L 478.109652 84.246356 
L 480.566521 87.781013 
L 482.944137 87.302657 
L 485.401007 92.860892 
L 487.778623 93.30269 
L 492.692362 92.591285 
L 494.91147 89.436237 
L 497.368339 93.846029 
L 499.745955 95.787455 
L 502.202825 96.78509 
L 504.580441 100.691933 
L 507.03731 101.681211 
L 509.49418 98.762032 
L 511.871796 96.907801 
L 514.328665 98.427035 
L 516.706281 100.737547 
L 521.62002 97.71076 
L 523.839128 97.396371 
L 526.295998 99.370996 
L 528.673614 99.589722 
L 531.130483 99.188071 
L 533.508099 101.89159 
L 535.964969 103.998624 
L 538.421838 105.480993 
L 540.799454 104.516775 
L 543.256324 102.779884 
L 545.633939 104.335209 
L 548.090809 108.36193 
L 550.547679 108.289983 
L 552.84604 113.196306 
L 555.30291 103.225964 
L 557.680526 105.047144 
L 560.137395 102.972532 
L 562.515011 103.975326 
L 564.971881 103.354735 
L 567.42875 102.044259 
L 569.806366 101.294462 
L 572.263236 103.504171 
L 574.640852 93.831099 
L 577.097721 86.148798 
L 579.554591 83.530851 
L 581.773699 83.642769 
L 584.230568 86.551752 
L 586.608184 68.590777 
L 589.065054 73.796851 
L 591.44267 72.076325 
L 593.899539 64.867551 
L 596.356409 65.212082 
L 598.734025 65.38933 
L 601.190894 62.847879 
L 603.56851 65.638681 
L 608.482249 59.849217 
L 610.701357 57.631605 
L 613.158227 58.727428 
L 615.535843 60.621028 
L 617.992712 60.603717 
L 620.370328 64.613927 
L 622.827198 54.119626 
L 625.284067 59.359225 
L 627.661683 57.930263 
L 630.118552 56.083672 
L 632.496168 52.569554 
L 634.953038 58.907973 
L 637.409907 59.473524 
L 639.629016 55.033129 
L 642.085885 56.792362 
L 644.463501 56.650457 
L 646.92037 56.088543 
L 649.297986 56.034525 
L 651.754856 57.104758 
L 654.211725 57.225266 
L 656.589341 57.608448 
L 659.046211 53.215182 
L 661.423827 53.176991 
L 663.880696 50.733476 
L 666.337566 49.410301 
L 668.635928 48.389389 
L 671.092797 46.723345 
L 673.470413 48.520043 
L 675.927283 48.026321 
L 678.304898 53.901886 
L 680.761768 49.812535 
L 683.218638 45.154204 
L 685.596253 45.277127 
L 688.053123 41.973687 
L 690.430739 43.39575 
L 692.887608 43.958739 
L 695.344478 46.401238 
L 697.563586 44.5394 
L 700.020456 49.216882 
L 702.398071 47.678951 
L 704.854941 48.684012 
L 707.232557 49.161788 
L 709.689426 52.655264 
L 712.146296 48.573843 
L 714.523912 45.630425 
L 716.980781 45.937944 
L 719.358397 56.7533 
L 721.815267 60.160379 
L 724.272136 65.405823 
L 726.491244 61.326176 
L 728.948114 62.655971 
L 731.32573 77.696817 
L 733.782599 77.213085 
L 736.160215 77.438693 
L 738.617085 80.840047 
L 741.073954 78.769552 
L 745.90844 81.754987 
L 748.286056 78.653708 
L 750.742925 83.589973 
L 753.199795 87.699739 
L 757.875772 87.895584 
L 760.253388 88.222961 
L 762.710258 87.589676 
L 765.087874 87.169359 
L 767.544743 91.137474 
L 770.001613 87.901912 
L 772.379229 87.51461 
L 774.836098 89.318883 
L 777.213714 84.103561 
L 779.670584 78.217499 
L 782.127453 78.11303 
L 784.425815 82.077056 
L 786.882685 77.10903 
L 789.2603 78.631057 
L 791.71717 76.254269 
L 794.094786 73.510011 
L 796.551655 76.141529 
L 799.008525 75.358072 
L 801.386141 76.412962 
L 803.84301 79.41313 
L 806.220626 87.226769 
L 808.677496 88.535756 
L 811.134365 86.106198 
L 815.810343 86.745773 
L 818.187959 86.033091 
L 820.644828 85.025298 
L 823.022444 88.163347 
L 825.479314 93.302655 
L 827.936183 95.354071 
L 830.313799 94.456441 
L 832.770669 94.733154 
L 835.148285 92.819459 
L 840.062024 97.296501 
L 842.281132 98.737385 
L 844.738001 99.889019 
L 849.572487 102.957517 
L 851.950103 99.166328 
L 854.406972 101.312104 
L 856.863842 100.578298 
L 859.241458 102.349871 
L 861.698327 100.457947 
L 864.075943 102.078449 
L 866.532813 96.688647 
L 866.532813 96.688647 
" clip-path="url(#p09acfb4e52)" style="fill: none; stroke: #e69f00; stroke-width: 2; stroke-linecap: square"/>
   </g>
   <g id="line2d_23">
    <path d="M 29.532812 40.945686 
L 31.751921 43.303685 
L 34.20879 45.195574 
L 36.586406 45.655441 
L 39.043276 47.258698 
L 41.420891 46.889759 
L 43.877761 38.010867 
L 46.334631 40.69084 
L 48.712246 39.088489 
L 51.169116 34.301155 
L 53.546732 36.485813 
L 56.003601 33.761352 
L 58.460471 35.258003 
L 60.679579 34.723337 
L 63.136449 31.202786 
L 65.514064 25.8751 
L 67.970934 27.949042 
L 70.34855 26.152303 
L 72.805419 28.734832 
L 75.262289 26.037695 
L 77.639905 28.796773 
L 80.096774 24.437229 
L 82.47439 31.468463 
L 84.93126 34.896811 
L 87.388129 31.605593 
L 89.686491 20.590356 
L 92.143361 18.222839 
L 94.520976 22.244859 
L 96.977846 21.527008 
L 99.355462 23.639148 
L 101.812331 23.573641 
L 104.269201 21.549203 
L 106.646817 22.531437 
L 109.103686 25.2614 
L 111.481302 27.047884 
L 113.938172 34.744912 
L 116.395041 38.325054 
L 118.614149 34.488788 
L 121.071019 37.998026 
L 123.448635 35.465558 
L 125.905504 42.485844 
L 128.28312 37.398975 
L 130.73999 34.904501 
L 133.196859 38.216087 
L 135.574475 38.354077 
L 140.408961 40.06544 
L 142.86583 38.331622 
L 145.3227 39.496226 
L 147.541808 39.808192 
L 149.998677 40.976988 
L 152.376293 40.157565 
L 154.833163 40.964535 
L 157.210779 41.324189 
L 159.667648 40.146027 
L 162.124518 43.76727 
L 164.502134 47.996317 
L 166.959003 43.895512 
L 169.336619 45.095265 
L 171.793489 44.115574 
L 174.250358 46.540991 
L 176.469466 43.616064 
L 178.926336 48.995138 
L 181.303952 49.804061 
L 183.760821 49.488536 
L 186.138437 52.552359 
L 188.595307 58.541094 
L 191.052176 55.508912 
L 193.429792 56.745696 
L 195.886662 63.643699 
L 198.264277 64.472174 
L 200.721147 64.923831 
L 203.178017 72.901998 
L 205.476378 74.6976 
L 207.933248 75.263921 
L 210.310864 81.184714 
L 212.767733 81.839387 
L 215.145349 79.338634 
L 217.602219 79.463095 
L 220.059088 81.885242 
L 222.436704 80.727349 
L 224.893574 78.752875 
L 227.27119 81.064526 
L 229.728059 78.872276 
L 232.184929 78.503905 
L 234.404037 90.325329 
L 236.860906 83.365835 
L 239.238522 87.872648 
L 241.695392 81.731705 
L 244.073008 80.437182 
L 246.529877 80.852874 
L 248.986747 79.025988 
L 253.821232 78.936735 
L 256.198848 76.887176 
L 258.655718 78.103287 
L 261.112587 81.150425 
L 263.331695 79.827176 
L 265.788565 80.059475 
L 268.166181 80.554076 
L 270.62305 82.054091 
L 273.000666 89.393465 
L 275.457536 90.127431 
L 277.914405 81.232323 
L 280.292021 92.178523 
L 282.748891 67.808746 
L 285.126506 68.681892 
L 287.583376 67.320519 
L 290.040246 62.292676 
L 292.259354 56.409959 
L 294.716223 54.20999 
L 297.093839 50.617882 
L 299.550709 62.140721 
L 301.928324 68.857419 
L 304.385194 62.733186 
L 306.842064 64.244302 
L 309.219679 58.911895 
L 311.676549 62.899142 
L 314.054165 61.936488 
L 316.511034 51.843451 
L 318.967904 57.959304 
L 321.266266 59.22326 
L 323.723135 56.231911 
L 326.100751 58.059634 
L 328.557621 57.486689 
L 330.935237 64.453213 
L 333.392106 53.972811 
L 335.848976 51.315589 
L 338.226591 57.675744 
L 340.683461 59.467592 
L 343.061077 59.615207 
L 345.517946 56.997405 
L 347.974816 58.946103 
L 350.193924 56.931113 
L 352.650794 59.302362 
L 355.02841 56.541224 
L 357.485279 55.423192 
L 359.862895 60.028282 
L 364.776634 60.874758 
L 367.15425 68.132871 
L 369.611119 59.705542 
L 371.988735 67.836632 
L 374.445605 63.458266 
L 376.902474 63.993676 
L 379.121583 62.077209 
L 381.578452 62.825064 
L 383.956068 65.196208 
L 386.412937 72.858207 
L 388.790553 68.610869 
L 391.247423 75.17718 
L 393.704292 68.550448 
L 396.081908 73.481285 
L 398.538778 75.114379 
L 400.916394 73.183271 
L 403.373263 69.033931 
L 405.830133 73.110741 
L 408.049241 70.154677 
L 410.50611 72.185406 
L 412.883726 73.881909 
L 415.340596 71.970542 
L 417.718212 71.655559 
L 420.175081 69.993542 
L 422.631951 68.981893 
L 425.009567 69.595957 
L 427.466436 83.548938 
L 429.844052 85.274944 
L 432.300922 84.723901 
L 434.757791 93.801592 
L 437.056153 99.796136 
L 439.513023 97.280725 
L 441.890638 98.559552 
L 444.347508 94.919521 
L 446.725124 90.073906 
L 449.181993 90.55468 
L 451.638863 95.978151 
L 454.016479 93.899061 
L 456.473348 96.908552 
L 458.850964 95.167424 
L 461.307834 108.019536 
L 463.764703 105.653254 
L 465.983811 100.799429 
L 468.440681 103.263333 
L 470.818297 108.406373 
L 473.275166 108.974023 
L 478.109652 107.713883 
L 480.566521 107.90306 
L 482.944137 107.556217 
L 485.401007 109.68691 
L 487.778623 107.169632 
L 490.235492 111.000735 
L 492.692362 107.277607 
L 494.91147 109.954662 
L 497.368339 104.202353 
L 499.745955 102.717324 
L 502.202825 108.631544 
L 504.580441 106.193876 
L 507.03731 108.538266 
L 509.49418 104.93843 
L 511.871796 106.413799 
L 514.328665 104.394286 
L 516.706281 97.897184 
L 521.62002 107.631436 
L 523.839128 104.734658 
L 526.295998 103.315167 
L 528.673614 103.313236 
L 531.130483 99.905823 
L 533.508099 101.547671 
L 535.964969 100.400012 
L 538.421838 109.36674 
L 540.799454 97.749231 
L 543.256324 98.739124 
L 545.633939 101.467605 
L 548.090809 103.063502 
L 550.547679 110.803792 
L 552.84604 107.207321 
L 555.30291 113.785279 
L 557.680526 106.738342 
L 560.137395 108.78228 
L 562.515011 115.445935 
L 564.971881 125.049803 
L 567.42875 113.278686 
L 569.806366 115.317603 
L 572.263236 112.341615 
L 574.640852 116.04371 
L 577.097721 130.297556 
L 579.554591 121.27407 
L 581.773699 117.43322 
L 584.230568 116.52469 
L 586.608184 122.375402 
L 589.065054 115.437636 
L 591.44267 118.895209 
L 596.356409 117.315742 
L 598.734025 119.228632 
L 601.190894 119.305302 
L 603.56851 120.944726 
L 606.025379 120.083508 
L 608.482249 118.836821 
L 610.701357 118.580202 
L 613.158227 121.670262 
L 615.535843 115.757111 
L 617.992712 117.336252 
L 620.370328 116.317604 
L 622.827198 117.248207 
L 625.284067 120.558756 
L 627.661683 121.529947 
L 630.118552 120.904374 
L 632.496168 118.028594 
L 634.953038 114.684583 
L 637.409907 113.349636 
L 639.629016 116.164972 
L 642.085885 114.620949 
L 644.463501 116.682564 
L 646.92037 117.702076 
L 649.297986 114.665335 
L 651.754856 114.644939 
L 654.211725 117.034202 
L 656.589341 118.133625 
L 659.046211 113.891081 
L 661.423827 122.761432 
L 663.880696 128.364966 
L 666.337566 127.411086 
L 668.635928 125.916147 
L 671.092797 128.285875 
L 673.470413 127.819274 
L 675.927283 127.027512 
L 678.304898 124.917598 
L 680.761768 125.727787 
L 683.218638 125.139619 
L 685.596253 128.38505 
L 688.053123 127.639371 
L 690.430739 127.535629 
L 692.887608 123.979181 
L 695.344478 125.888056 
L 697.563586 128.124061 
L 700.020456 128.284241 
L 702.398071 129.860628 
L 704.854941 126.960739 
L 707.232557 126.015029 
L 709.689426 125.214081 
L 712.146296 132.011958 
L 714.523912 134.415122 
L 716.980781 133.591982 
L 719.358397 123.574183 
L 721.815267 117.323527 
L 724.272136 130.448288 
L 726.491244 131.693328 
L 728.948114 136.020364 
L 731.32573 126.632852 
L 733.782599 135.1697 
L 736.160215 133.499397 
L 738.617085 132.79288 
L 741.073954 131.956264 
L 743.45157 135.33803 
L 745.90844 135.169332 
L 748.286056 138.085245 
L 750.742925 136.111801 
L 753.199795 135.128091 
L 755.418903 134.701748 
L 757.875772 133.37021 
L 760.253388 128.983102 
L 762.710258 133.57405 
L 765.087874 132.534579 
L 767.544743 131.888019 
L 770.001613 130.223285 
L 772.379229 127.129239 
L 774.836098 124.144398 
L 777.213714 126.773651 
L 779.670584 130.163514 
L 782.127453 127.770904 
L 784.425815 128.533896 
L 786.882685 121.617122 
L 789.2603 119.304526 
L 791.71717 124.679782 
L 794.094786 122.977334 
L 796.551655 125.183852 
L 799.008525 123.240743 
L 801.386141 122.123338 
L 803.84301 120.775389 
L 806.220626 114.491061 
L 808.677496 106.360663 
L 811.134365 108.91902 
L 813.353473 109.114946 
L 815.810343 109.825805 
L 818.187959 108.508255 
L 820.644828 110.727487 
L 823.022444 110.521876 
L 825.479314 106.55971 
L 827.936183 108.145703 
L 830.313799 106.20074 
L 835.148285 109.371138 
L 837.605154 109.957462 
L 840.062024 112.413169 
L 842.281132 111.983143 
L 844.738001 103.546365 
L 847.115617 107.391321 
L 849.572487 106.434741 
L 851.950103 107.022326 
L 854.406972 106.898627 
L 856.863842 109.870397 
L 859.241458 105.898816 
L 861.698327 106.113826 
L 864.075943 104.861677 
L 866.532813 106.24351 
L 866.532813 106.24351 
" clip-path="url(#p09acfb4e52)" style="fill: none; stroke-dasharray: 7.4,3.2; stroke-dashoffset: 0; stroke: #56b4e9; stroke-width: 2"/>
   </g>
   <g id="line2d_24">
    <path d="M 29.532812 113.919141 
L 31.751921 112.990919 
L 34.20879 107.623462 
L 36.586406 109.441778 
L 39.043276 107.784778 
L 41.420891 110.129879 
L 43.877761 117.646251 
L 46.334631 117.06195 
L 48.712246 116.314373 
L 51.169116 120.76774 
L 53.546732 114.806861 
L 56.003601 114.356487 
L 58.460471 109.250901 
L 63.136449 109.952269 
L 65.514064 108.408436 
L 67.970934 114.120115 
L 72.805419 116.28579 
L 75.262289 116.910628 
L 77.639905 114.888809 
L 80.096774 113.052743 
L 82.47439 115.638558 
L 84.93126 119.733302 
L 87.388129 117.641608 
L 89.686491 113.3674 
L 92.143361 112.028358 
L 94.520976 109.686883 
L 99.355462 112.934309 
L 101.812331 113.980255 
L 104.269201 115.677148 
L 106.646817 115.942373 
L 109.103686 114.561839 
L 111.481302 114.755784 
L 113.938172 125.179983 
L 118.614149 117.549796 
L 121.071019 120.32429 
L 123.448635 121.070419 
L 125.905504 115.999849 
L 128.28312 117.219005 
L 130.73999 120.698146 
L 133.196859 116.606307 
L 135.574475 116.382568 
L 138.031345 114.203715 
L 140.408961 114.720062 
L 142.86583 114.307905 
L 145.3227 114.943544 
L 147.541808 114.26486 
L 149.998677 112.572492 
L 152.376293 112.138835 
L 154.833163 109.963999 
L 157.210779 107.485227 
L 159.667648 107.430297 
L 162.124518 106.088918 
L 164.502134 111.124928 
L 166.959003 111.389074 
L 169.336619 112.258519 
L 171.793489 112.705008 
L 174.250358 114.045551 
L 176.469466 112.612035 
L 178.926336 110.505609 
L 181.303952 109.008922 
L 183.760821 110.732295 
L 186.138437 108.194774 
L 188.595307 105.177875 
L 191.052176 108.212254 
L 193.429792 108.973812 
L 195.886662 100.374666 
L 198.264277 110.005338 
L 200.721147 109.032026 
L 203.178017 106.296169 
L 205.476378 105.065664 
L 207.933248 107.268578 
L 210.310864 106.867308 
L 212.767733 111.590545 
L 215.145349 114.793853 
L 217.602219 117.151592 
L 220.059088 115.731997 
L 222.436704 120.317134 
L 224.893574 123.603342 
L 227.27119 122.756896 
L 232.184929 126.441133 
L 234.404037 137.507886 
L 236.860906 138.522278 
L 239.238522 138.008259 
L 241.695392 139.829047 
L 244.073008 142.776886 
L 246.529877 142.496943 
L 248.986747 140.919672 
L 251.364363 149.196995 
L 253.821232 146.292153 
L 256.198848 143.891477 
L 258.655718 148.719518 
L 261.112587 145.506918 
L 263.331695 146.658023 
L 265.788565 146.536486 
L 268.166181 147.439324 
L 270.62305 148.239508 
L 273.000666 143.960384 
L 275.457536 145.544726 
L 277.914405 150.028374 
L 280.292021 142.36139 
L 285.126506 154.41532 
L 287.583376 151.479699 
L 290.040246 152.288247 
L 292.259354 163.437413 
L 294.716223 158.356869 
L 297.093839 165.531941 
L 299.550709 166.677688 
L 301.928324 165.779302 
L 304.385194 165.733 
L 306.842064 166.96018 
L 309.219679 165.348291 
L 311.676549 166.671805 
L 314.054165 159.5814 
L 316.511034 155.607659 
L 318.967904 157.234416 
L 321.266266 156.032572 
L 323.723135 162.916492 
L 326.100751 155.675385 
L 328.557621 153.719506 
L 330.935237 148.950277 
L 333.392106 154.92378 
L 335.848976 153.303283 
L 338.226591 160.555487 
L 340.683461 160.444023 
L 343.061077 165.853713 
L 345.517946 164.583885 
L 347.974816 167.729301 
L 350.193924 170.757837 
L 352.650794 164.505997 
L 355.02841 168.301286 
L 357.485279 173.686294 
L 359.862895 175.525779 
L 362.319764 176.445225 
L 364.776634 175.585982 
L 367.15425 174.359504 
L 369.611119 175.703711 
L 371.988735 178.787286 
L 374.445605 179.78145 
L 376.902474 180.583682 
L 379.121583 180.985354 
L 381.578452 179.997574 
L 383.956068 180.005004 
L 386.412937 178.994658 
L 388.790553 181.578059 
L 391.247423 180.524956 
L 393.704292 184.345686 
L 396.081908 184.026781 
L 398.538778 185.037561 
L 400.916394 188.559197 
L 405.830133 193.291855 
L 408.049241 195.516682 
L 410.50611 194.743252 
L 412.883726 195.05259 
L 415.340596 195.003696 
L 417.718212 195.130429 
L 420.175081 196.396433 
L 422.631951 195.66424 
L 425.009567 196.251453 
L 427.466436 197.005534 
L 429.844052 193.515882 
L 432.300922 194.639342 
L 434.757791 193.939576 
L 437.056153 190.926453 
L 439.513023 192.201458 
L 441.890638 190.507994 
L 444.347508 190.510217 
L 446.725124 190.365323 
L 449.181993 190.571836 
L 451.638863 189.156246 
L 454.016479 191.020452 
L 456.473348 191.499681 
L 458.850964 193.553238 
L 461.307834 194.194716 
L 463.764703 194.474935 
L 465.983811 195.359551 
L 468.440681 196.080693 
L 470.818297 205.077027 
L 473.275166 208.821061 
L 475.652782 208.035045 
L 478.109652 212.024338 
L 480.566521 210.713502 
L 482.944137 210.783218 
L 485.401007 208.71861 
L 487.778623 212.134768 
L 490.235492 211.187165 
L 492.692362 212.355168 
L 494.91147 220.015129 
L 497.368339 231.6294 
L 499.745955 230.834631 
L 502.202825 225.141983 
L 504.580441 221.692474 
L 507.03731 223.115661 
L 509.49418 228.141859 
L 511.871796 227.495014 
L 514.328665 224.276644 
L 516.706281 217.992549 
L 519.163151 217.958891 
L 521.62002 213.426243 
L 523.839128 213.321777 
L 526.295998 213.612275 
L 528.673614 216.148123 
L 531.130483 216.43955 
L 533.508099 211.104414 
L 535.964969 211.366857 
L 538.421838 201.061149 
L 540.799454 194.693704 
L 543.256324 194.985095 
L 545.633939 184.132313 
L 548.090809 171.859915 
L 550.547679 169.123302 
L 552.84604 156.732108 
L 555.30291 166.703056 
L 557.680526 168.083209 
L 560.137395 167.884018 
L 562.515011 166.73097 
L 564.971881 163.821325 
L 567.42875 166.002011 
L 569.806366 166.582281 
L 572.263236 165.847359 
L 574.640852 173.889722 
L 577.097721 174.215306 
L 579.554591 175.757073 
L 581.773699 177.459842 
L 584.230568 171.606741 
L 586.608184 162.787359 
L 589.065054 167.835875 
L 591.44267 170.763143 
L 593.899539 168.026947 
L 596.356409 169.380598 
L 598.734025 164.799012 
L 601.190894 164.734005 
L 603.56851 166.055011 
L 606.025379 165.475903 
L 608.482249 165.856506 
L 610.701357 166.669422 
L 613.158227 166.986898 
L 615.535843 169.543313 
L 617.992712 170.619856 
L 620.370328 170.283464 
L 622.827198 167.308014 
L 625.284067 168.845809 
L 627.661683 168.272725 
L 630.118552 169.326595 
L 632.496168 174.403453 
L 634.953038 175.754111 
L 637.409907 175.033385 
L 639.629016 175.159475 
L 642.085885 175.059442 
L 644.463501 174.700595 
L 646.92037 173.858143 
L 649.297986 172.773524 
L 651.754856 170.473711 
L 654.211725 171.422052 
L 656.589341 171.053937 
L 659.046211 170.417965 
L 661.423827 167.417617 
L 663.880696 166.400886 
L 666.337566 164.843255 
L 668.635928 164.250992 
L 671.092797 166.316169 
L 675.927283 168.004441 
L 678.304898 168.071406 
L 680.761768 168.581209 
L 683.218638 168.744277 
L 685.596253 170.95683 
L 688.053123 171.461827 
L 690.430739 170.496035 
L 692.887608 172.333677 
L 695.344478 171.284174 
L 697.563586 172.163812 
L 700.020456 157.773184 
L 702.398071 157.057604 
L 704.854941 155.227261 
L 707.232557 155.083473 
L 709.689426 153.171946 
L 712.146296 149.677995 
L 714.523912 149.705122 
L 716.980781 146.779846 
L 719.358397 135.75364 
L 721.815267 127.636552 
L 724.272136 125.626794 
L 726.491244 126.221155 
L 728.948114 127.909236 
L 731.32573 140.191784 
L 733.782599 136.874359 
L 736.160215 134.910246 
L 738.617085 136.487882 
L 741.073954 138.288208 
L 743.45157 135.203045 
L 745.90844 135.330449 
L 748.286056 132.674444 
L 750.742925 133.203554 
L 753.199795 135.647464 
L 755.418903 132.091639 
L 757.875772 129.16943 
L 760.253388 129.770014 
L 762.710258 131.237076 
L 765.087874 131.315702 
L 767.544743 131.536135 
L 770.001613 131.996973 
L 772.379229 128.985316 
L 774.836098 127.871348 
L 777.213714 120.527646 
L 779.670584 124.203585 
L 782.127453 122.266417 
L 784.425815 124.511822 
L 786.882685 120.346252 
L 789.2603 124.358226 
L 791.71717 122.482725 
L 794.094786 124.559243 
L 796.551655 122.674659 
L 799.008525 122.745781 
L 801.386141 125.871832 
L 803.84301 123.634967 
L 806.220626 130.257823 
L 808.677496 128.365328 
L 811.134365 123.917801 
L 813.353473 125.234681 
L 815.810343 122.519602 
L 818.187959 120.767514 
L 820.644828 119.197422 
L 823.022444 121.810325 
L 825.479314 116.682993 
L 827.936183 117.753383 
L 830.313799 120.800674 
L 832.770669 116.41249 
L 835.148285 118.805016 
L 837.605154 114.907336 
L 840.062024 111.944766 
L 842.281132 110.73245 
L 844.738001 119.454373 
L 847.115617 115.337206 
L 849.572487 114.966813 
L 851.950103 117.806673 
L 854.406972 119.294553 
L 856.863842 116.044792 
L 859.241458 118.805438 
L 861.698327 122.580197 
L 864.075943 124.843054 
L 866.532813 124.394487 
L 866.532813 124.394487 
" clip-path="url(#p09acfb4e52)" style="fill: none; stroke-dasharray: 12.8,3.2,2,3.2; stroke-dashoffset: 0; stroke: #009e73; stroke-width: 2"/>
   </g>
   <g id="line2d_25">
    <path d="M 29.532812 134.274251 
L 31.751921 135.92872 
L 34.20879 135.736332 
L 36.586406 134.616061 
L 39.043276 135.81943 
L 41.420891 131.706834 
L 43.877761 135.762181 
L 46.334631 133.789648 
L 48.712246 132.760464 
L 51.169116 124.804396 
L 53.546732 121.998782 
L 56.003601 124.089656 
L 60.679579 123.097697 
L 63.136449 121.020229 
L 65.514064 128.562827 
L 67.970934 121.926448 
L 70.34855 123.35741 
L 72.805419 119.889021 
L 75.262289 121.677129 
L 77.639905 125.512791 
L 80.096774 127.673403 
L 82.47439 117.083912 
L 84.93126 114.283304 
L 87.388129 120.670266 
L 89.686491 130.46856 
L 92.143361 135.090553 
L 94.520976 131.720502 
L 96.977846 133.236668 
L 99.355462 132.526128 
L 101.812331 130.530396 
L 104.269201 134.760594 
L 106.646817 137.442348 
L 109.103686 136.255585 
L 111.481302 136.253738 
L 113.938172 147.989257 
L 116.395041 145.854829 
L 118.614149 149.451543 
L 121.071019 146.051585 
L 123.448635 145.906558 
L 125.905504 146.155778 
L 128.28312 144.778277 
L 133.196859 146.544479 
L 135.574475 148.172372 
L 138.031345 147.974672 
L 140.408961 148.514012 
L 142.86583 149.917663 
L 145.3227 149.053261 
L 147.541808 150.012913 
L 149.998677 149.217218 
L 154.833163 152.107768 
L 157.210779 153.156746 
L 159.667648 154.110283 
L 162.124518 151.290491 
L 164.502134 143.490596 
L 166.959003 150.217198 
L 169.336619 147.316225 
L 171.793489 150.95056 
L 174.250358 145.136815 
L 176.469466 147.501145 
L 178.926336 147.674124 
L 181.303952 146.931083 
L 183.760821 147.302444 
L 186.138437 148.157764 
L 188.595307 142.028818 
L 191.052176 144.204174 
L 193.429792 145.698001 
L 195.886662 153.227248 
L 198.264277 157.121616 
L 200.721147 156.36596 
L 203.178017 154.67973 
L 205.476378 156.769887 
L 207.933248 158.102314 
L 212.767733 154.321819 
L 215.145349 153.59873 
L 217.602219 153.954273 
L 220.059088 153.849132 
L 222.436704 151.705486 
L 227.27119 155.149916 
L 232.184929 155.332935 
L 234.404037 145.83441 
L 236.860906 149.353676 
L 239.238522 147.478696 
L 241.695392 148.905551 
L 244.073008 148.7169 
L 246.529877 151.888944 
L 248.986747 151.922838 
L 251.364363 143.394414 
L 253.821232 144.229026 
L 256.198848 146.128933 
L 258.655718 142.093856 
L 261.112587 140.050714 
L 263.331695 143.205368 
L 265.788565 140.369848 
L 268.166181 132.32082 
L 270.62305 131.90803 
L 273.000666 134.05901 
L 275.457536 134.867717 
L 277.914405 134.17489 
L 280.292021 127.030881 
L 282.748891 123.895674 
L 285.126506 126.863723 
L 287.583376 119.208956 
L 290.040246 120.069875 
L 292.259354 116.765323 
L 294.716223 120.499286 
L 297.093839 120.283929 
L 299.550709 108.478478 
L 301.928324 102.627024 
L 304.385194 105.628441 
L 306.842064 99.304522 
L 309.219679 107.379662 
L 311.676549 93.97553 
L 314.054165 105.182025 
L 316.511034 115.630371 
L 318.967904 104.871969 
L 321.266266 108.513003 
L 323.723135 103.571016 
L 326.100751 95.443602 
L 328.557621 88.417638 
L 330.935237 82.666851 
L 333.392106 93.532982 
L 335.848976 93.142397 
L 338.226591 93.094558 
L 340.683461 93.39425 
L 343.061077 89.556463 
L 345.517946 93.779148 
L 347.974816 96.398065 
L 350.193924 86.523941 
L 352.650794 95.814685 
L 355.02841 91.917472 
L 357.485279 93.289104 
L 359.862895 91.85829 
L 362.319764 91.006094 
L 364.776634 92.649439 
L 367.15425 85.254361 
L 369.611119 91.624052 
L 371.988735 81.631296 
L 374.445605 85.512743 
L 376.902474 82.348273 
L 379.121583 81.448021 
L 381.578452 80.263868 
L 383.956068 81.675139 
L 386.412937 73.614746 
L 388.790553 79.246349 
L 391.247423 69.636621 
L 393.704292 76.723426 
L 396.081908 70.760198 
L 398.538778 70.151055 
L 400.916394 66.543618 
L 403.373263 69.009385 
L 405.830133 65.258222 
L 408.049241 67.661327 
L 410.50611 64.447779 
L 412.883726 69.130769 
L 415.340596 71.486359 
L 417.718212 65.416056 
L 420.175081 66.243408 
L 422.631951 70.455232 
L 425.009567 64.492246 
L 427.466436 74.138428 
L 429.844052 63.699201 
L 432.300922 64.125427 
L 434.757791 62.333158 
L 437.056153 66.92138 
L 439.513023 68.018252 
L 441.890638 61.783764 
L 444.347508 66.505529 
L 446.725124 71.360066 
L 449.181993 71.535307 
L 451.638863 67.268318 
L 454.016479 71.850471 
L 456.473348 73.005322 
L 458.850964 70.951327 
L 461.307834 61.283404 
L 463.764703 64.257022 
L 465.983811 63.117367 
L 468.440681 65.779242 
L 470.818297 62.705393 
L 473.275166 80.136988 
L 475.652782 77.508875 
L 478.109652 73.90305 
L 480.566521 70.622804 
L 482.944137 71.933205 
L 485.401007 71.384831 
L 487.778623 69.804854 
L 490.235492 67.207759 
L 492.692362 69.207674 
L 494.91147 69.906395 
L 497.368339 63.546863 
L 499.745955 64.329129 
L 502.202825 58.391909 
L 504.580441 59.808904 
L 507.03731 54.733753 
L 509.49418 56.263617 
L 511.871796 57.929301 
L 514.328665 61.065629 
L 516.706281 71.80432 
L 519.163151 70.621952 
L 521.62002 69.23889 
L 523.839128 73.108694 
L 526.295998 73.229736 
L 528.673614 69.903846 
L 531.130483 76.017267 
L 533.508099 75.951724 
L 535.964969 73.561983 
L 538.421838 68.730094 
L 540.799454 80.673254 
L 543.256324 80.846172 
L 545.633939 88.97762 
L 548.090809 94.800958 
L 550.547679 88.695715 
L 552.84604 90.959965 
L 555.30291 93.893956 
L 557.680526 94.106982 
L 560.137395 91.00287 
L 562.515011 89.350718 
L 564.971881 90.867741 
L 567.42875 83.335708 
L 569.806366 82.960679 
L 572.263236 80.779815 
L 574.640852 82.399839 
L 577.097721 62.639886 
L 579.554591 60.674898 
L 581.773699 67.644546 
L 584.230568 59.567751 
L 586.608184 69.558384 
L 591.44267 41.330126 
L 593.899539 47.735093 
L 596.356409 47.286122 
L 598.734025 44.0977 
L 601.190894 45.503409 
L 603.56851 39.316479 
L 606.025379 42.605015 
L 608.482249 45.407369 
L 610.701357 49.013496 
L 613.158227 45.24238 
L 615.535843 45.960234 
L 617.992712 41.59902 
L 620.370328 38.798423 
L 622.827198 48.720716 
L 625.284067 39.596899 
L 627.661683 37.490003 
L 630.118552 37.559065 
L 632.496168 39.183279 
L 634.953038 31.556523 
L 637.409907 34.404806 
L 639.629016 32.921343 
L 642.085885 33.379586 
L 644.463501 31.840173 
L 646.92037 32.571707 
L 649.297986 37.003524 
L 651.754856 38.383945 
L 654.211725 36.090824 
L 656.589341 35.058025 
L 659.046211 38.707144 
L 661.423827 31.906524 
L 663.880696 22.801569 
L 666.337566 24.905061 
L 668.635928 28.411323 
L 671.092797 23.607573 
L 673.470413 22.830063 
L 675.927283 22.992906 
L 678.304898 16.94175 
L 680.761768 20.361841 
L 683.218638 21.822311 
L 685.596253 18.246547 
L 688.053123 20.780697 
L 690.430739 21.906583 
L 695.344478 20.758856 
L 697.563586 21.918557 
L 700.020456 23.857115 
L 702.398071 26.192145 
L 704.854941 26.242662 
L 707.232557 29.534817 
L 709.689426 27.089737 
L 712.146296 35.591299 
L 714.523912 36.362002 
L 716.980781 38.719552 
L 719.358397 40.449864 
L 721.815267 61.315187 
L 724.272136 55.03322 
L 726.491244 56.70866 
L 728.948114 61.132959 
L 731.32573 58.755867 
L 733.782599 61.803454 
L 736.160215 72.496754 
L 738.617085 70.112106 
L 741.073954 71.258594 
L 743.45157 72.218177 
L 745.90844 72.135022 
L 748.286056 75.380513 
L 750.742925 74.946806 
L 753.199795 68.109335 
L 755.418903 73.025338 
L 757.875772 70.639896 
L 760.253388 72.596178 
L 762.710258 70.217002 
L 765.087874 71.843021 
L 767.544743 70.293098 
L 770.001613 78.561042 
L 772.379229 85.301415 
L 774.836098 91.150589 
L 777.213714 99.153273 
L 779.670584 98.591157 
L 782.127453 102.835446 
L 784.425815 100.032404 
L 786.882685 110.016773 
L 789.2603 106.358216 
L 791.71717 104.016169 
L 794.094786 103.542773 
L 796.551655 101.811999 
L 799.008525 105.118557 
L 801.386141 102.704851 
L 803.84301 111.183697 
L 806.220626 114.166536 
L 808.677496 133.490413 
L 811.134365 131.492073 
L 813.353473 129.895072 
L 815.810343 133.159242 
L 818.187959 137.635906 
L 820.644828 138.147132 
L 823.022444 135.552754 
L 825.479314 142.138544 
L 827.936183 138.140065 
L 830.313799 139.388254 
L 832.770669 140.896971 
L 835.148285 138.530472 
L 837.605154 137.374103 
L 840.062024 135.610665 
L 842.281132 135.549362 
L 844.738001 134.091594 
L 847.115617 133.819983 
L 849.572487 132.083893 
L 851.950103 131.739436 
L 854.406972 131.095276 
L 856.863842 131.576759 
L 859.241458 130.042556 
L 861.698327 131.164731 
L 864.075943 127.901327 
L 866.532813 134.099764 
L 866.532813 134.099764 
" clip-path="url(#p09acfb4e52)" style="fill: none; stroke-dasharray: 2,3.3; stroke-dashoffset: 0; stroke: #0072b2; stroke-width: 2"/>
   </g>
   <g id="line2d_26">
    <path d="M 29.532812 120.629871 
L 31.751921 117.555386 
L 34.20879 120.940736 
L 36.586406 119.760491 
L 39.043276 118.394593 
L 41.420891 121.54809 
L 43.877761 121.717916 
L 46.334631 122.093626 
L 48.712246 125.204766 
L 51.169116 130.261555 
L 53.546732 132.252389 
L 56.003601 133.245608 
L 58.460471 139.207902 
L 60.679579 140.57923 
L 63.136449 144.544638 
L 65.514064 145.859928 
L 67.970934 145.825109 
L 70.34855 145.439633 
L 72.805419 146.315805 
L 75.262289 146.324945 
L 77.639905 146.898162 
L 80.096774 144.609288 
L 82.47439 145.94117 
L 84.93126 146.004501 
L 87.388129 148.631671 
L 89.686491 152.737738 
L 92.143361 157.577283 
L 94.520976 159.100999 
L 96.977846 158.653427 
L 99.355462 156.456596 
L 101.812331 157.284167 
L 104.269201 154.701397 
L 106.646817 153.186297 
L 109.103686 153.983053 
L 111.481302 154.352377 
L 113.938172 146.585334 
L 116.395041 151.294058 
L 118.614149 155.801497 
L 121.071019 153.061277 
L 123.448635 155.087292 
L 125.905504 156.420225 
L 128.28312 155.667582 
L 130.73999 154.509402 
L 133.196859 154.218133 
L 135.574475 152.212643 
L 138.031345 155.954415 
L 142.86583 153.388389 
L 145.3227 154.000346 
L 147.541808 155.460321 
L 149.998677 155.626216 
L 152.376293 158.287528 
L 154.833163 157.10734 
L 157.210779 158.642398 
L 159.667648 158.81385 
L 162.124518 159.651111 
L 164.502134 160.300407 
L 166.959003 158.080361 
L 169.336619 160.126093 
L 171.793489 157.161498 
L 174.250358 159.220035 
L 176.469466 161.389281 
L 178.926336 158.970465 
L 181.303952 159.613497 
L 183.760821 160.485385 
L 186.138437 159.180724 
L 188.595307 160.964934 
L 191.052176 158.793022 
L 193.429792 158.54323 
L 195.886662 152.73983 
L 198.264277 142.389591 
L 200.721147 140.287342 
L 203.178017 135.913621 
L 205.476378 135.091801 
L 210.310864 131.553764 
L 212.767733 131.226486 
L 215.145349 129.777683 
L 217.602219 127.811711 
L 220.059088 126.447222 
L 224.893574 123.566206 
L 227.27119 123.875716 
L 229.728059 124.937885 
L 232.184929 121.514585 
L 234.404037 117.992696 
L 236.860906 121.836643 
L 239.238522 119.682155 
L 241.695392 123.227163 
L 244.073008 122.577086 
L 246.529877 119.711175 
L 248.986747 123.967939 
L 251.364363 126.034 
L 253.821232 127.609449 
L 256.198848 130.929561 
L 258.655718 128.88279 
L 261.112587 130.070826 
L 263.331695 128.725126 
L 265.788565 130.73763 
L 270.62305 134.216176 
L 273.000666 132.068777 
L 275.457536 133.508269 
L 277.914405 138.998559 
L 280.292021 137.76415 
L 282.748891 169.1046 
L 285.126506 165.181682 
L 287.583376 170.631543 
L 290.040246 169.032617 
L 292.259354 166.905847 
L 294.716223 167.358133 
L 297.093839 161.941329 
L 299.550709 163.516 
L 301.928324 164.82993 
L 304.385194 168.031549 
L 306.842064 167.859661 
L 309.219679 170.902031 
L 311.676549 174.325824 
L 314.054165 174.621351 
L 316.511034 180.239227 
L 318.967904 177.984155 
L 321.266266 177.449069 
L 323.723135 178.357459 
L 326.100751 183.209098 
L 328.557621 191.200338 
L 330.935237 191.3839 
L 333.392106 190.976797 
L 335.848976 189.364807 
L 338.226591 182.070822 
L 340.683461 186.81393 
L 343.061077 186.711287 
L 345.517946 186.751839 
L 347.974816 188.441073 
L 350.193924 190.448572 
L 352.650794 190.382774 
L 355.02841 191.073665 
L 359.862895 190.51552 
L 362.319764 191.169101 
L 364.776634 188.313782 
L 367.15425 189.908073 
L 369.611119 190.933628 
L 371.988735 191.420693 
L 376.902474 189.771149 
L 379.121583 189.522187 
L 381.578452 188.947899 
L 383.956068 188.865331 
L 386.412937 187.151158 
L 388.790553 186.325512 
L 391.247423 186.719232 
L 393.704292 184.999894 
L 396.081908 178.296965 
L 398.538778 177.090773 
L 400.916394 176.933372 
L 403.373263 177.955757 
L 405.830133 178.270801 
L 408.049241 177.396797 
L 410.50611 177.108113 
L 412.883726 175.158619 
L 415.340596 174.546512 
L 417.718212 180.46474 
L 420.175081 178.914103 
L 422.631951 178.707872 
L 425.009567 179.920894 
L 427.466436 155.137058 
L 429.844052 158.171757 
L 432.300922 156.842624 
L 434.757791 155.711469 
L 437.056153 156.907291 
L 439.513023 156.887093 
L 441.890638 159.024225 
L 444.347508 157.714785 
L 446.725124 156.942306 
L 449.181993 155.06695 
L 451.638863 155.765764 
L 454.016479 151.720622 
L 456.473348 150.576366 
L 458.850964 148.964024 
L 461.307834 139.73669 
L 463.764703 139.682488 
L 465.983811 141.245902 
L 468.440681 140.522141 
L 470.818297 129.975478 
L 473.275166 118.410357 
L 475.652782 118.711864 
L 478.109652 117.345111 
L 480.566521 118.212358 
L 482.944137 117.657439 
L 485.401007 112.581495 
L 487.778623 112.820793 
L 490.235492 112.913124 
L 492.692362 113.801002 
L 494.91147 105.920314 
L 497.368339 102.008092 
L 499.745955 101.564199 
L 502.202825 106.282211 
L 504.580441 106.84555 
L 507.03731 107.163846 
L 509.49418 107.126798 
L 511.871796 106.486821 
L 514.328665 107.069143 
L 516.706281 106.801137 
L 519.163151 104.71513 
L 521.62002 107.225408 
L 523.839128 106.671238 
L 526.295998 105.704563 
L 528.673614 106.27781 
L 531.130483 103.682026 
L 535.964969 105.90526 
L 538.421838 110.59376 
L 540.799454 117.599773 
L 543.256324 117.882461 
L 545.633939 116.31999 
L 548.090809 117.146431 
L 550.547679 118.319945 
L 552.84604 127.137036 
L 555.30291 117.624483 
L 557.680526 121.25706 
L 560.137395 124.591036 
L 562.515011 119.729787 
L 564.971881 112.139134 
L 567.42875 130.572072 
L 569.806366 129.077711 
L 572.263236 132.759776 
L 574.640852 129.068367 
L 577.097721 141.93119 
L 579.554591 153.995846 
L 581.773699 149.05236 
L 584.230568 160.981802 
L 589.065054 182.714237 
L 591.44267 192.167934 
L 593.899539 196.454274 
L 596.356409 196.038193 
L 598.734025 201.718063 
L 601.190894 202.842142 
L 603.56851 203.277839 
L 606.025379 204.35018 
L 608.482249 205.282825 
L 610.701357 203.338012 
L 613.158227 202.605769 
L 615.535843 203.351051 
L 617.992712 205.073891 
L 620.370328 205.219319 
L 622.827198 207.836174 
L 625.284067 206.872047 
L 627.661683 210.009798 
L 630.118552 211.35903 
L 632.496168 211.047857 
L 634.953038 214.329546 
L 637.409907 212.971385 
L 639.629016 215.953817 
L 642.085885 215.380398 
L 644.463501 215.358948 
L 649.297986 214.755829 
L 651.754856 214.625384 
L 654.211725 213.460393 
L 656.589341 213.3787 
L 659.046211 219.001365 
L 661.423827 219.970173 
L 663.880696 226.93184 
L 666.337566 228.663032 
L 668.635928 228.264886 
L 671.092797 230.299774 
L 673.470413 228.942622 
L 675.927283 229.181556 
L 678.304898 231.400097 
L 680.761768 230.749365 
L 683.218638 234.372327 
L 685.596253 232.367183 
L 688.053123 233.377155 
L 690.430739 231.898739 
L 692.887608 233.586579 
L 697.563586 228.486906 
L 700.020456 236.101313 
L 702.398071 234.443409 
L 704.854941 238.118062 
L 707.232557 235.437629 
L 709.689426 237.101708 
L 712.146296 229.377641 
L 714.523912 229.120065 
L 716.980781 230.203412 
L 719.358397 238.70175 
L 724.272136 218.718611 
L 726.491244 219.283418 
L 728.948114 207.514207 
L 731.32573 191.955417 
L 736.160215 176.887647 
L 738.617085 174.999821 
L 741.073954 174.960119 
L 743.45157 172.185121 
L 745.90844 170.842946 
L 748.286056 170.438827 
L 750.742925 167.380602 
L 753.199795 168.648107 
L 755.418903 167.608976 
L 757.875772 174.157617 
L 760.253388 175.660483 
L 762.710258 172.614933 
L 765.087874 172.370076 
L 767.544743 170.37801 
L 770.001613 166.549524 
L 772.379229 166.302156 
L 774.836098 162.747519 
L 777.213714 164.674606 
L 779.670584 164.056982 
L 782.127453 164.246939 
L 784.425815 160.077558 
L 786.882685 166.143558 
L 789.2603 166.580712 
L 791.71717 167.799792 
L 794.094786 170.643376 
L 796.551655 169.420698 
L 801.386141 168.119754 
L 803.84301 160.225554 
L 806.220626 149.090548 
L 808.677496 138.480576 
L 811.134365 144.797645 
L 813.353473 144.590833 
L 815.810343 142.982315 
L 818.187959 142.287971 
L 820.644828 142.135398 
L 823.022444 139.184435 
L 825.479314 136.548835 
L 827.936183 135.839514 
L 830.313799 134.386627 
L 832.770669 135.360291 
L 835.148285 135.706652 
L 837.605154 137.887189 
L 840.062024 137.967636 
L 842.281132 138.230396 
L 844.738001 138.251386 
L 847.115617 137.225253 
L 849.572487 138.789773 
L 851.950103 139.497973 
L 854.406972 136.632176 
L 856.863842 137.16249 
L 859.241458 138.136056 
L 861.698327 134.916035 
L 864.075943 135.54823 
L 866.532813 133.806328 
L 866.532813 133.806328 
" clip-path="url(#p09acfb4e52)" style="fill: none; stroke: #d55e00; stroke-width: 2; stroke-linecap: square"/>
   </g>
   <g id="patch_3">
    <path d="M 29.532813 238.70175 
L 29.532813 16.94175 
" style="fill: none; stroke: #000000; stroke-width: 0.8; stroke-linejoin: miter; stroke-linecap: square"/>
   </g>
   <g id="patch_4">
    <path d="M 29.532812 238.70175 
L 866.532813 238.70175 
" style="fill: none; stroke: #000000; stroke-width: 0.8; stroke-linejoin: miter; stroke-linecap: square"/>
   </g>
   <g id="text_15">
    <!-- 5_Industry_Portfolios - Portfolio Allocation for Ridge -->
    <g transform="translate(263.648687 10.94175) scale(0.144 -0.144)">
     <defs>
      <path id="DejaVuSans-5f" d="M 3263 -1063 
L 3263 -1509 
L -63 -1509 
L -63 -1063 
L 3263 -1063 
z
" transform="scale(0.015625)"/>
      <path id="DejaVuSans-49" d="M 628 4666 
L 1259 4666 
L 1259 0 
L 628 0 
L 628 4666 
z
" transform="scale(0.015625)"/>
      <path id="DejaVuSans-6e" d="M 3513 2113 
L 3513 0 
L 2938 0 
L 2938 2094 
Q 2938 2591 2744 2837 
Q 2550 3084 2163 3084 
Q 1697 3084 1428 2787 
Q 1159 2491 1159 1978 
L 1159 0 
L 581 0 
L 581 3500 
L 1159 3500 
L 1159 2956 
Q 1366 3272 1645 3428 
Q 1925 3584 2291 3584 
Q 2894 3584 3203 3211 
Q 3513 2838 3513 2113 
z
" transform="scale(0.015625)"/>
      <path id="DejaVuSans-64" d="M 2906 2969 
L 2906 4863 
L 3481 4863 
L 3481 0 
L 2906 0 
L 2906 525 
Q 2725 213 2448 61 
Q 2172 -91 1784 -91 
Q 1150 -91 751 415 
Q 353 922 353 1747 
Q 353 2572 751 3078 
Q 1150 3584 1784 3584 
Q 2172 3584 2448 3432 
Q 2725 3281 2906 2969 
z
M 947 1747 
Q 947 1113 1208 752 
Q 1469 391 1925 391 
Q 2381 391 2643 752 
Q 2906 1113 2906 1747 
Q 2906 2381 2643 2742 
Q 2381 3103 1925 3103 
Q 1469 3103 1208 2742 
Q 947 2381 947 1747 
z
" transform="scale(0.015625)"/>
      <path id="DejaVuSans-75" d="M 544 1381 
L 544 3500 
L 1119 3500 
L 1119 1403 
Q 1119 906 1312 657 
Q 1506 409 1894 409 
Q 2359 409 2629 706 
Q 2900 1003 2900 1516 
L 2900 3500 
L 3475 3500 
L 3475 0 
L 2900 0 
L 2900 538 
Q 2691 219 2414 64 
Q 2138 -91 1772 -91 
Q 1169 -91 856 284 
Q 544 659 544 1381 
z
M 1991 3584 
L 1991 3584 
z
" transform="scale(0.015625)"/>
      <path id="DejaVuSans-73" d="M 2834 3397 
L 2834 2853 
Q 2591 2978 2328 3040 
Q 2066 3103 1784 3103 
Q 1356 3103 1142 2972 
Q 928 2841 928 2578 
Q 928 2378 1081 2264 
Q 1234 2150 1697 2047 
L 1894 2003 
Q 2506 1872 2764 1633 
Q 3022 1394 3022 966 
Q 3022 478 2636 193 
Q 2250 -91 1575 -91 
Q 1294 -91 989 -36 
Q 684 19 347 128 
L 347 722 
Q 666 556 975 473 
Q 1284 391 1588 391 
Q 1994 391 2212 530 
Q 2431 669 2431 922 
Q 2431 1156 2273 1281 
Q 2116 1406 1581 1522 
L 1381 1569 
Q 847 1681 609 1914 
Q 372 2147 372 2553 
Q 372 3047 722 3315 
Q 1072 3584 1716 3584 
Q 2034 3584 2315 3537 
Q 2597 3491 2834 3397 
z
" transform="scale(0.015625)"/>
      <path id="DejaVuSans-74" d="M 1172 4494 
L 1172 3500 
L 2356 3500 
L 2356 3053 
L 1172 3053 
L 1172 1153 
Q 1172 725 1289 603 
Q 1406 481 1766 481 
L 2356 481 
L 2356 0 
L 1766 0 
Q 1100 0 847 248 
Q 594 497 594 1153 
L 594 3053 
L 172 3053 
L 172 3500 
L 594 3500 
L 594 4494 
L 1172 4494 
z
" transform="scale(0.015625)"/>
      <path id="DejaVuSans-72" d="M 2631 2963 
Q 2534 3019 2420 3045 
Q 2306 3072 2169 3072 
Q 1681 3072 1420 2755 
Q 1159 2438 1159 1844 
L 1159 0 
L 581 0 
L 581 3500 
L 1159 3500 
L 1159 2956 
Q 1341 3275 1631 3429 
Q 1922 3584 2338 3584 
Q 2397 3584 2469 3576 
Q 2541 3569 2628 3553 
L 2631 2963 
z
" transform="scale(0.015625)"/>
      <path id="DejaVuSans-79" d="M 2059 -325 
Q 1816 -950 1584 -1140 
Q 1353 -1331 966 -1331 
L 506 -1331 
L 506 -850 
L 844 -850 
Q 1081 -850 1212 -737 
Q 1344 -625 1503 -206 
L 1606 56 
L 191 3500 
L 800 3500 
L 1894 763 
L 2988 3500 
L 3597 3500 
L 2059 -325 
z
" transform="scale(0.015625)"/>
      <path id="DejaVuSans-50" d="M 1259 4147 
L 1259 2394 
L 2053 2394 
Q 2494 2394 2734 2622 
Q 2975 2850 2975 3272 
Q 2975 3691 2734 3919 
Q 2494 4147 2053 4147 
L 1259 4147 
z
M 628 4666 
L 2053 4666 
Q 2838 4666 3239 4311 
Q 3641 3956 3641 3272 
Q 3641 2581 3239 2228 
Q 2838 1875 2053 1875 
L 1259 1875 
L 1259 0 
L 628 0 
L 628 4666 
z
" transform="scale(0.015625)"/>
      <path id="DejaVuSans-6f" d="M 1959 3097 
Q 1497 3097 1228 2736 
Q 959 2375 959 1747 
Q 959 1119 1226 758 
Q 1494 397 1959 397 
Q 2419 397 2687 759 
Q 2956 1122 2956 1747 
Q 2956 2369 2687 2733 
Q 2419 3097 1959 3097 
z
M 1959 3584 
Q 2709 3584 3137 3096 
Q 3566 2609 3566 1747 
Q 3566 888 3137 398 
Q 2709 -91 1959 -91 
Q 1206 -91 779 398 
Q 353 888 353 1747 
Q 353 2609 779 3096 
Q 1206 3584 1959 3584 
z
" transform="scale(0.015625)"/>
      <path id="DejaVuSans-66" d="M 2375 4863 
L 2375 4384 
L 1825 4384 
Q 1516 4384 1395 4259 
Q 1275 4134 1275 3809 
L 1275 3500 
L 2222 3500 
L 2222 3053 
L 1275 3053 
L 1275 0 
L 697 0 
L 697 3053 
L 147 3053 
L 147 3500 
L 697 3500 
L 697 3744 
Q 697 4328 969 4595 
Q 1241 4863 1831 4863 
L 2375 4863 
z
" transform="scale(0.015625)"/>
      <path id="DejaVuSans-6c" d="M 603 4863 
L 1178 4863 
L 1178 0 
L 603 0 
L 603 4863 
z
" transform="scale(0.015625)"/>
      <path id="DejaVuSans-69" d="M 603 3500 
L 1178 3500 
L 1178 0 
L 603 0 
L 603 3500 
z
M 603 4863 
L 1178 4863 
L 1178 4134 
L 603 4134 
L 603 4863 
z
" transform="scale(0.015625)"/>
      <path id="DejaVuSans-20" transform="scale(0.015625)"/>
      <path id="DejaVuSans-2d" d="M 313 2009 
L 1997 2009 
L 1997 1497 
L 313 1497 
L 313 2009 
z
" transform="scale(0.015625)"/>
      <path id="DejaVuSans-41" d="M 2188 4044 
L 1331 1722 
L 3047 1722 
L 2188 4044 
z
M 1831 4666 
L 2547 4666 
L 4325 0 
L 3669 0 
L 3244 1197 
L 1141 1197 
L 716 0 
L 50 0 
L 1831 4666 
z
" transform="scale(0.015625)"/>
      <path id="DejaVuSans-63" d="M 3122 3366 
L 3122 2828 
Q 2878 2963 2633 3030 
Q 2388 3097 2138 3097 
Q 1578 3097 1268 2742 
Q 959 2388 959 1747 
Q 959 1106 1268 751 
Q 1578 397 2138 397 
Q 2388 397 2633 464 
Q 2878 531 3122 666 
L 3122 134 
Q 2881 22 2623 -34 
Q 2366 -91 2075 -91 
Q 1284 -91 818 406 
Q 353 903 353 1747 
Q 353 2603 823 3093 
Q 1294 3584 2113 3584 
Q 2378 3584 2631 3529 
Q 2884 3475 3122 3366 
z
" transform="scale(0.015625)"/>
      <path id="DejaVuSans-61" d="M 2194 1759 
Q 1497 1759 1228 1600 
Q 959 1441 959 1056 
Q 959 750 1161 570 
Q 1363 391 1709 391 
Q 2188 391 2477 730 
Q 2766 1069 2766 1631 
L 2766 1759 
L 2194 1759 
z
M 3341 1997 
L 3341 0 
L 2766 0 
L 2766 531 
Q 2569 213 2275 61 
Q 1981 -91 1556 -91 
Q 1019 -91 701 211 
Q 384 513 384 1019 
Q 384 1609 779 1909 
Q 1175 2209 1959 2209 
L 2766 2209 
L 2766 2266 
Q 2766 2663 2505 2880 
Q 2244 3097 1772 3097 
Q 1472 3097 1187 3025 
Q 903 2953 641 2809 
L 641 3341 
Q 956 3463 1253 3523 
Q 1550 3584 1831 3584 
Q 2591 3584 2966 3190 
Q 3341 2797 3341 1997 
z
" transform="scale(0.015625)"/>
      <path id="DejaVuSans-52" d="M 2841 2188 
Q 3044 2119 3236 1894 
Q 3428 1669 3622 1275 
L 4263 0 
L 3584 0 
L 2988 1197 
Q 2756 1666 2539 1819 
Q 2322 1972 1947 1972 
L 1259 1972 
L 1259 0 
L 628 0 
L 628 4666 
L 2053 4666 
Q 2853 4666 3247 4331 
Q 3641 3997 3641 3322 
Q 3641 2881 3436 2590 
Q 3231 2300 2841 2188 
z
M 1259 4147 
L 1259 2491 
L 2053 2491 
Q 2509 2491 2742 2702 
Q 2975 2913 2975 3322 
Q 2975 3731 2742 3939 
Q 2509 4147 2053 4147 
L 1259 4147 
z
" transform="scale(0.015625)"/>
      <path id="DejaVuSans-67" d="M 2906 1791 
Q 2906 2416 2648 2759 
Q 2391 3103 1925 3103 
Q 1463 3103 1205 2759 
Q 947 2416 947 1791 
Q 947 1169 1205 825 
Q 1463 481 1925 481 
Q 2391 481 2648 825 
Q 2906 1169 2906 1791 
z
M 3481 434 
Q 3481 -459 3084 -895 
Q 2688 -1331 1869 -1331 
Q 1566 -1331 1297 -1286 
Q 1028 -1241 775 -1147 
L 775 -588 
Q 1028 -725 1275 -790 
Q 1522 -856 1778 -856 
Q 2344 -856 2625 -561 
Q 2906 -266 2906 331 
L 2906 616 
Q 2728 306 2450 153 
Q 2172 0 1784 0 
Q 1141 0 747 490 
Q 353 981 353 1791 
Q 353 2603 747 3093 
Q 1141 3584 1784 3584 
Q 2172 3584 2450 3431 
Q 2728 3278 2906 2969 
L 2906 3500 
L 3481 3500 
L 3481 434 
z
" transform="scale(0.015625)"/>
      <path id="DejaVuSans-65" d="M 3597 1894 
L 3597 1613 
L 953 1613 
Q 991 1019 1311 708 
Q 1631 397 2203 397 
Q 2534 397 2845 478 
Q 3156 559 3463 722 
L 3463 178 
Q 3153 47 2828 -22 
Q 2503 -91 2169 -91 
Q 1331 -91 842 396 
Q 353 884 353 1716 
Q 353 2575 817 3079 
Q 1281 3584 2069 3584 
Q 2775 3584 3186 3129 
Q 3597 2675 3597 1894 
z
M 3022 2063 
Q 3016 2534 2758 2815 
Q 2500 3097 2075 3097 
Q 1594 3097 1305 2825 
Q 1016 2553 972 2059 
L 3022 2063 
z
" transform="scale(0.015625)"/>
     </defs>
     <use xlink:href="#DejaVuSans-35"/>
     <use xlink:href="#DejaVuSans-5f" x="63.623047"/>
     <use xlink:href="#DejaVuSans-49" x="113.623047"/>
     <use xlink:href="#DejaVuSans-6e" x="143.115234"/>
     <use xlink:href="#DejaVuSans-64" x="206.494141"/>
     <use xlink:href="#DejaVuSans-75" x="269.970703"/>
     <use xlink:href="#DejaVuSans-73" x="333.349609"/>
     <use xlink:href="#DejaVuSans-74" x="385.449219"/>
     <use xlink:href="#DejaVuSans-72" x="424.658203"/>
     <use xlink:href="#DejaVuSans-79" x="465.771484"/>
     <use xlink:href="#DejaVuSans-5f" x="524.951172"/>
     <use xlink:href="#DejaVuSans-50" x="574.951172"/>
     <use xlink:href="#DejaVuSans-6f" x="631.628906"/>
     <use xlink:href="#DejaVuSans-72" x="692.810547"/>
     <use xlink:href="#DejaVuSans-74" x="733.923828"/>
     <use xlink:href="#DejaVuSans-66" x="773.132812"/>
     <use xlink:href="#DejaVuSans-6f" x="808.337891"/>
     <use xlink:href="#DejaVuSans-6c" x="869.519531"/>
     <use xlink:href="#DejaVuSans-69" x="897.302734"/>
     <use xlink:href="#DejaVuSans-6f" x="925.085938"/>
     <use xlink:href="#DejaVuSans-73" x="986.267578"/>
     <use xlink:href="#DejaVuSans-20" x="1038.367188"/>
     <use xlink:href="#DejaVuSans-2d" x="1070.154297"/>
     <use xlink:href="#DejaVuSans-20" x="1106.238281"/>
     <use xlink:href="#DejaVuSans-50" x="1138.025391"/>
     <use xlink:href="#DejaVuSans-6f" x="1194.703125"/>
     <use xlink:href="#DejaVuSans-72" x="1255.884766"/>
     <use xlink:href="#DejaVuSans-74" x="1296.998047"/>
     <use xlink:href="#DejaVuSans-66" x="1336.207031"/>
     <use xlink:href="#DejaVuSans-6f" x="1371.412109"/>
     <use xlink:href="#DejaVuSans-6c" x="1432.59375"/>
     <use xlink:href="#DejaVuSans-69" x="1460.376953"/>
     <use xlink:href="#DejaVuSans-6f" x="1488.160156"/>
     <use xlink:href="#DejaVuSans-20" x="1549.341797"/>
     <use xlink:href="#DejaVuSans-41" x="1581.128906"/>
     <use xlink:href="#DejaVuSans-6c" x="1649.537109"/>
     <use xlink:href="#DejaVuSans-6c" x="1677.320312"/>
     <use xlink:href="#DejaVuSans-6f" x="1705.103516"/>
     <use xlink:href="#DejaVuSans-63" x="1766.285156"/>
     <use xlink:href="#DejaVuSans-61" x="1821.265625"/>
     <use xlink:href="#DejaVuSans-74" x="1882.544922"/>
     <use xlink:href="#DejaVuSans-69" x="1921.753906"/>
     <use xlink:href="#DejaVuSans-6f" x="1949.537109"/>
     <use xlink:href="#DejaVuSans-6e" x="2010.71875"/>
     <use xlink:href="#DejaVuSans-20" x="2074.097656"/>
     <use xlink:href="#DejaVuSans-66" x="2105.884766"/>
     <use xlink:href="#DejaVuSans-6f" x="2141.089844"/>
     <use xlink:href="#DejaVuSans-72" x="2202.271484"/>
     <use xlink:href="#DejaVuSans-20" x="2243.384766"/>
     <use xlink:href="#DejaVuSans-52" x="2275.171875"/>
     <use xlink:href="#DejaVuSans-69" x="2344.654297"/>
     <use xlink:href="#DejaVuSans-64" x="2372.4375"/>
     <use xlink:href="#DejaVuSans-67" x="2435.914062"/>
     <use xlink:href="#DejaVuSans-65" x="2499.390625"/>
    </g>
   </g>
  </g>
 </g>
 <defs>
  <clipPath id="p09acfb4e52">
   <rect x="29.532813" y="16.94175" width="837" height="221.76"/>
  </clipPath>
 </defs>
</svg>
