<?xml version="1.0" encoding="utf-8" standalone="no"?>
<!DOCTYPE svg PUBLIC "-//W3C//DTD SVG 1.1//EN"
  "http://www.w3.org/Graphics/SVG/1.1/DTD/svg11.dtd">
<svg xmlns:xlink="http://www.w3.org/1999/xlink" width="866.532812pt" height="253.629875pt" viewBox="0 0 866.532812 253.629875" xmlns="http://www.w3.org/2000/svg" version="1.1">
 <metadata>
  <rdf:RDF xmlns:dc="http://purl.org/dc/elements/1.1/" xmlns:cc="http://creativecommons.org/ns#" xmlns:rdf="http://www.w3.org/1999/02/22-rdf-syntax-ns#">
   <cc:Work>
    <dc:type rdf:resource="http://purl.org/dc/dcmitype/StillImage"/>
    <dc:date>2025-08-06T21:52:45.092475</dc:date>
    <dc:format>image/svg+xml</dc:format>
    <dc:creator>
     <cc:Agent>
      <dc:title>Matplotlib v3.9.2, https://matplotlib.org/</dc:title>
     </cc:Agent>
    </dc:creator>
   </cc:Work>
  </rdf:RDF>
 </metadata>
 <defs>
  <style type="text/css">*{stroke-linejoin: round; stroke-linecap: butt}</style>
 </defs>
 <g id="figure_1">
  <g id="patch_1">
   <path d="M 0 253.629875 
L 866.532812 253.629875 
L 866.532812 0 
L 0 0 
z
" style="fill: #ffffff"/>
  </g>
  <g id="axes_1">
   <g id="patch_2">
    <path d="M 29.532813 238.70175 
L 866.532812 238.70175 
L 866.532812 16.94175 
L 29.532813 16.94175 
z
" style="fill: #ffffff"/>
   </g>
   <g id="matplotlib.axis_1">
    <g id="xtick_1">
     <g id="line2d_1">
      <defs>
       <path id="m5bd01b1ff5" d="M 0 1.75 
L 0 -1.75 
" style="stroke: #000000; stroke-width: 0.8"/>
      </defs>
      <g>
       <use xlink:href="#m5bd01b1ff5" x="85.010513" y="238.70175" style="stroke: #000000; stroke-width: 0.8"/>
      </g>
     </g>
     <g id="text_1">
      <!-- 1992 -->
      <g transform="translate(72.285513 251.550188) scale(0.1 -0.1)">
       <defs>
        <path id="DejaVuSans-31" d="M 794 531 
L 1825 531 
L 1825 4091 
L 703 3866 
L 703 4441 
L 1819 4666 
L 2450 4666 
L 2450 531 
L 3481 531 
L 3481 0 
L 794 0 
L 794 531 
z
" transform="scale(0.015625)"/>
        <path id="DejaVuSans-39" d="M 703 97 
L 703 672 
Q 941 559 1184 500 
Q 1428 441 1663 441 
Q 2288 441 2617 861 
Q 2947 1281 2994 2138 
Q 2813 1869 2534 1725 
Q 2256 1581 1919 1581 
Q 1219 1581 811 2004 
Q 403 2428 403 3163 
Q 403 3881 828 4315 
Q 1253 4750 1959 4750 
Q 2769 4750 3195 4129 
Q 3622 3509 3622 2328 
Q 3622 1225 3098 567 
Q 2575 -91 1691 -91 
Q 1453 -91 1209 -44 
Q 966 3 703 97 
z
M 1959 2075 
Q 2384 2075 2632 2365 
Q 2881 2656 2881 3163 
Q 2881 3666 2632 3958 
Q 2384 4250 1959 4250 
Q 1534 4250 1286 3958 
Q 1038 3666 1038 3163 
Q 1038 2656 1286 2365 
Q 1534 2075 1959 2075 
z
" transform="scale(0.015625)"/>
        <path id="DejaVuSans-32" d="M 1228 531 
L 3431 531 
L 3431 0 
L 469 0 
L 469 531 
Q 828 903 1448 1529 
Q 2069 2156 2228 2338 
Q 2531 2678 2651 2914 
Q 2772 3150 2772 3378 
Q 2772 3750 2511 3984 
Q 2250 4219 1831 4219 
Q 1534 4219 1204 4116 
Q 875 4013 500 3803 
L 500 4441 
Q 881 4594 1212 4672 
Q 1544 4750 1819 4750 
Q 2544 4750 2975 4387 
Q 3406 4025 3406 3419 
Q 3406 3131 3298 2873 
Q 3191 2616 2906 2266 
Q 2828 2175 2409 1742 
Q 1991 1309 1228 531 
z
" transform="scale(0.015625)"/>
       </defs>
       <use xlink:href="#DejaVuSans-31"/>
       <use xlink:href="#DejaVuSans-39" x="63.623047"/>
       <use xlink:href="#DejaVuSans-39" x="127.246094"/>
       <use xlink:href="#DejaVuSans-32" x="190.869141"/>
      </g>
     </g>
    </g>
    <g id="xtick_2">
     <g id="line2d_2">
      <g>
       <use xlink:href="#m5bd01b1ff5" x="200.800401" y="238.70175" style="stroke: #000000; stroke-width: 0.8"/>
      </g>
     </g>
     <g id="text_2">
      <!-- 1996 -->
      <g transform="translate(188.075401 251.550188) scale(0.1 -0.1)">
       <defs>
        <path id="DejaVuSans-36" d="M 2113 2584 
Q 1688 2584 1439 2293 
Q 1191 2003 1191 1497 
Q 1191 994 1439 701 
Q 1688 409 2113 409 
Q 2538 409 2786 701 
Q 3034 994 3034 1497 
Q 3034 2003 2786 2293 
Q 2538 2584 2113 2584 
z
M 3366 4563 
L 3366 3988 
Q 3128 4100 2886 4159 
Q 2644 4219 2406 4219 
Q 1781 4219 1451 3797 
Q 1122 3375 1075 2522 
Q 1259 2794 1537 2939 
Q 1816 3084 2150 3084 
Q 2853 3084 3261 2657 
Q 3669 2231 3669 1497 
Q 3669 778 3244 343 
Q 2819 -91 2113 -91 
Q 1303 -91 875 529 
Q 447 1150 447 2328 
Q 447 3434 972 4092 
Q 1497 4750 2381 4750 
Q 2619 4750 2861 4703 
Q 3103 4656 3366 4563 
z
" transform="scale(0.015625)"/>
       </defs>
       <use xlink:href="#DejaVuSans-31"/>
       <use xlink:href="#DejaVuSans-39" x="63.623047"/>
       <use xlink:href="#DejaVuSans-39" x="127.246094"/>
       <use xlink:href="#DejaVuSans-36" x="190.869141"/>
      </g>
     </g>
    </g>
    <g id="xtick_3">
     <g id="line2d_3">
      <g>
       <use xlink:href="#m5bd01b1ff5" x="316.590288" y="238.70175" style="stroke: #000000; stroke-width: 0.8"/>
      </g>
     </g>
     <g id="text_3">
      <!-- 2000 -->
      <g transform="translate(303.865288 251.550188) scale(0.1 -0.1)">
       <defs>
        <path id="DejaVuSans-30" d="M 2034 4250 
Q 1547 4250 1301 3770 
Q 1056 3291 1056 2328 
Q 1056 1369 1301 889 
Q 1547 409 2034 409 
Q 2525 409 2770 889 
Q 3016 1369 3016 2328 
Q 3016 3291 2770 3770 
Q 2525 4250 2034 4250 
z
M 2034 4750 
Q 2819 4750 3233 4129 
Q 3647 3509 3647 2328 
Q 3647 1150 3233 529 
Q 2819 -91 2034 -91 
Q 1250 -91 836 529 
Q 422 1150 422 2328 
Q 422 3509 836 4129 
Q 1250 4750 2034 4750 
z
" transform="scale(0.015625)"/>
       </defs>
       <use xlink:href="#DejaVuSans-32"/>
       <use xlink:href="#DejaVuSans-30" x="63.623047"/>
       <use xlink:href="#DejaVuSans-30" x="127.246094"/>
       <use xlink:href="#DejaVuSans-30" x="190.869141"/>
      </g>
     </g>
    </g>
    <g id="xtick_4">
     <g id="line2d_4">
      <g>
       <use xlink:href="#m5bd01b1ff5" x="432.380175" y="238.70175" style="stroke: #000000; stroke-width: 0.8"/>
      </g>
     </g>
     <g id="text_4">
      <!-- 2004 -->
      <g transform="translate(419.655175 251.550188) scale(0.1 -0.1)">
       <defs>
        <path id="DejaVuSans-34" d="M 2419 4116 
L 825 1625 
L 2419 1625 
L 2419 4116 
z
M 2253 4666 
L 3047 4666 
L 3047 1625 
L 3713 1625 
L 3713 1100 
L 3047 1100 
L 3047 0 
L 2419 0 
L 2419 1100 
L 313 1100 
L 313 1709 
L 2253 4666 
z
" transform="scale(0.015625)"/>
       </defs>
       <use xlink:href="#DejaVuSans-32"/>
       <use xlink:href="#DejaVuSans-30" x="63.623047"/>
       <use xlink:href="#DejaVuSans-30" x="127.246094"/>
       <use xlink:href="#DejaVuSans-34" x="190.869141"/>
      </g>
     </g>
    </g>
    <g id="xtick_5">
     <g id="line2d_5">
      <g>
       <use xlink:href="#m5bd01b1ff5" x="548.170063" y="238.70175" style="stroke: #000000; stroke-width: 0.8"/>
      </g>
     </g>
     <g id="text_5">
      <!-- 2008 -->
      <g transform="translate(535.445063 251.550188) scale(0.1 -0.1)">
       <defs>
        <path id="DejaVuSans-38" d="M 2034 2216 
Q 1584 2216 1326 1975 
Q 1069 1734 1069 1313 
Q 1069 891 1326 650 
Q 1584 409 2034 409 
Q 2484 409 2743 651 
Q 3003 894 3003 1313 
Q 3003 1734 2745 1975 
Q 2488 2216 2034 2216 
z
M 1403 2484 
Q 997 2584 770 2862 
Q 544 3141 544 3541 
Q 544 4100 942 4425 
Q 1341 4750 2034 4750 
Q 2731 4750 3128 4425 
Q 3525 4100 3525 3541 
Q 3525 3141 3298 2862 
Q 3072 2584 2669 2484 
Q 3125 2378 3379 2068 
Q 3634 1759 3634 1313 
Q 3634 634 3220 271 
Q 2806 -91 2034 -91 
Q 1263 -91 848 271 
Q 434 634 434 1313 
Q 434 1759 690 2068 
Q 947 2378 1403 2484 
z
M 1172 3481 
Q 1172 3119 1398 2916 
Q 1625 2713 2034 2713 
Q 2441 2713 2670 2916 
Q 2900 3119 2900 3481 
Q 2900 3844 2670 4047 
Q 2441 4250 2034 4250 
Q 1625 4250 1398 4047 
Q 1172 3844 1172 3481 
z
" transform="scale(0.015625)"/>
       </defs>
       <use xlink:href="#DejaVuSans-32"/>
       <use xlink:href="#DejaVuSans-30" x="63.623047"/>
       <use xlink:href="#DejaVuSans-30" x="127.246094"/>
       <use xlink:href="#DejaVuSans-38" x="190.869141"/>
      </g>
     </g>
    </g>
    <g id="xtick_6">
     <g id="line2d_6">
      <g>
       <use xlink:href="#m5bd01b1ff5" x="663.95995" y="238.70175" style="stroke: #000000; stroke-width: 0.8"/>
      </g>
     </g>
     <g id="text_6">
      <!-- 2012 -->
      <g transform="translate(651.23495 251.550188) scale(0.1 -0.1)">
       <use xlink:href="#DejaVuSans-32"/>
       <use xlink:href="#DejaVuSans-30" x="63.623047"/>
       <use xlink:href="#DejaVuSans-31" x="127.246094"/>
       <use xlink:href="#DejaVuSans-32" x="190.869141"/>
      </g>
     </g>
    </g>
    <g id="xtick_7">
     <g id="line2d_7">
      <g>
       <use xlink:href="#m5bd01b1ff5" x="779.749837" y="238.70175" style="stroke: #000000; stroke-width: 0.8"/>
      </g>
     </g>
     <g id="text_7">
      <!-- 2016 -->
      <g transform="translate(767.024837 251.550188) scale(0.1 -0.1)">
       <use xlink:href="#DejaVuSans-32"/>
       <use xlink:href="#DejaVuSans-30" x="63.623047"/>
       <use xlink:href="#DejaVuSans-31" x="127.246094"/>
       <use xlink:href="#DejaVuSans-36" x="190.869141"/>
      </g>
     </g>
    </g>
   </g>
   <g id="matplotlib.axis_2">
    <g id="ytick_1">
     <g id="line2d_8">
      <path d="M 29.532813 218.374681 
L 866.532812 218.374681 
" clip-path="url(#p5802afc373)" style="fill: none; stroke-dasharray: 1.85,0.8; stroke-dashoffset: 0; stroke: #b2b2b2; stroke-width: 0.5"/>
     </g>
     <g id="line2d_9">
      <defs>
       <path id="md731dbc5fc" d="M 1.75 0 
L -1.75 -0 
" style="stroke: #000000; stroke-width: 0.8"/>
      </defs>
      <g>
       <use xlink:href="#md731dbc5fc" x="29.532813" y="218.374681" style="stroke: #000000; stroke-width: 0.8"/>
      </g>
     </g>
     <g id="text_8">
      <!-- −0.4 -->
      <g transform="translate(0 222.1739) scale(0.1 -0.1)">
       <defs>
        <path id="DejaVuSans-2212" d="M 678 2272 
L 4684 2272 
L 4684 1741 
L 678 1741 
L 678 2272 
z
" transform="scale(0.015625)"/>
        <path id="DejaVuSans-2e" d="M 684 794 
L 1344 794 
L 1344 0 
L 684 0 
L 684 794 
z
" transform="scale(0.015625)"/>
       </defs>
       <use xlink:href="#DejaVuSans-2212"/>
       <use xlink:href="#DejaVuSans-30" x="83.789062"/>
       <use xlink:href="#DejaVuSans-2e" x="147.412109"/>
       <use xlink:href="#DejaVuSans-34" x="179.199219"/>
      </g>
     </g>
    </g>
    <g id="ytick_2">
     <g id="line2d_10">
      <path d="M 29.532813 192.605356 
L 866.532812 192.605356 
" clip-path="url(#p5802afc373)" style="fill: none; stroke-dasharray: 1.85,0.8; stroke-dashoffset: 0; stroke: #b2b2b2; stroke-width: 0.5"/>
     </g>
     <g id="line2d_11">
      <g>
       <use xlink:href="#md731dbc5fc" x="29.532813" y="192.605356" style="stroke: #000000; stroke-width: 0.8"/>
      </g>
     </g>
     <g id="text_9">
      <!-- −0.2 -->
      <g transform="translate(0 196.404575) scale(0.1 -0.1)">
       <use xlink:href="#DejaVuSans-2212"/>
       <use xlink:href="#DejaVuSans-30" x="83.789062"/>
       <use xlink:href="#DejaVuSans-2e" x="147.412109"/>
       <use xlink:href="#DejaVuSans-32" x="179.199219"/>
      </g>
     </g>
    </g>
    <g id="ytick_3">
     <g id="line2d_12">
      <path d="M 29.532813 166.836032 
L 866.532812 166.836032 
" clip-path="url(#p5802afc373)" style="fill: none; stroke-dasharray: 1.85,0.8; stroke-dashoffset: 0; stroke: #b2b2b2; stroke-width: 0.5"/>
     </g>
     <g id="line2d_13">
      <g>
       <use xlink:href="#md731dbc5fc" x="29.532813" y="166.836032" style="stroke: #000000; stroke-width: 0.8"/>
      </g>
     </g>
     <g id="text_10">
      <!-- 0.0 -->
      <g transform="translate(8.379688 170.635251) scale(0.1 -0.1)">
       <use xlink:href="#DejaVuSans-30"/>
       <use xlink:href="#DejaVuSans-2e" x="63.623047"/>
       <use xlink:href="#DejaVuSans-30" x="95.410156"/>
      </g>
     </g>
    </g>
    <g id="ytick_4">
     <g id="line2d_14">
      <path d="M 29.532813 141.066708 
L 866.532812 141.066708 
" clip-path="url(#p5802afc373)" style="fill: none; stroke-dasharray: 1.85,0.8; stroke-dashoffset: 0; stroke: #b2b2b2; stroke-width: 0.5"/>
     </g>
     <g id="line2d_15">
      <g>
       <use xlink:href="#md731dbc5fc" x="29.532813" y="141.066708" style="stroke: #000000; stroke-width: 0.8"/>
      </g>
     </g>
     <g id="text_11">
      <!-- 0.2 -->
      <g transform="translate(8.379688 144.865926) scale(0.1 -0.1)">
       <use xlink:href="#DejaVuSans-30"/>
       <use xlink:href="#DejaVuSans-2e" x="63.623047"/>
       <use xlink:href="#DejaVuSans-32" x="95.410156"/>
      </g>
     </g>
    </g>
    <g id="ytick_5">
     <g id="line2d_16">
      <path d="M 29.532813 115.297383 
L 866.532812 115.297383 
" clip-path="url(#p5802afc373)" style="fill: none; stroke-dasharray: 1.85,0.8; stroke-dashoffset: 0; stroke: #b2b2b2; stroke-width: 0.5"/>
     </g>
     <g id="line2d_17">
      <g>
       <use xlink:href="#md731dbc5fc" x="29.532813" y="115.297383" style="stroke: #000000; stroke-width: 0.8"/>
      </g>
     </g>
     <g id="text_12">
      <!-- 0.4 -->
      <g transform="translate(8.379688 119.096602) scale(0.1 -0.1)">
       <use xlink:href="#DejaVuSans-30"/>
       <use xlink:href="#DejaVuSans-2e" x="63.623047"/>
       <use xlink:href="#DejaVuSans-34" x="95.410156"/>
      </g>
     </g>
    </g>
    <g id="ytick_6">
     <g id="line2d_18">
      <path d="M 29.532813 89.528059 
L 866.532812 89.528059 
" clip-path="url(#p5802afc373)" style="fill: none; stroke-dasharray: 1.85,0.8; stroke-dashoffset: 0; stroke: #b2b2b2; stroke-width: 0.5"/>
     </g>
     <g id="line2d_19">
      <g>
       <use xlink:href="#md731dbc5fc" x="29.532813" y="89.528059" style="stroke: #000000; stroke-width: 0.8"/>
      </g>
     </g>
     <g id="text_13">
      <!-- 0.6 -->
      <g transform="translate(8.379688 93.327277) scale(0.1 -0.1)">
       <use xlink:href="#DejaVuSans-30"/>
       <use xlink:href="#DejaVuSans-2e" x="63.623047"/>
       <use xlink:href="#DejaVuSans-36" x="95.410156"/>
      </g>
     </g>
    </g>
    <g id="ytick_7">
     <g id="line2d_20">
      <path d="M 29.532813 63.758734 
L 866.532812 63.758734 
" clip-path="url(#p5802afc373)" style="fill: none; stroke-dasharray: 1.85,0.8; stroke-dashoffset: 0; stroke: #b2b2b2; stroke-width: 0.5"/>
     </g>
     <g id="line2d_21">
      <g>
       <use xlink:href="#md731dbc5fc" x="29.532813" y="63.758734" style="stroke: #000000; stroke-width: 0.8"/>
      </g>
     </g>
     <g id="text_14">
      <!-- 0.8 -->
      <g transform="translate(8.379688 67.557953) scale(0.1 -0.1)">
       <use xlink:href="#DejaVuSans-30"/>
       <use xlink:href="#DejaVuSans-2e" x="63.623047"/>
       <use xlink:href="#DejaVuSans-38" x="95.410156"/>
      </g>
     </g>
    </g>
    <g id="ytick_8">
     <g id="line2d_22">
      <path d="M 29.532813 37.98941 
L 866.532812 37.98941 
" clip-path="url(#p5802afc373)" style="fill: none; stroke-dasharray: 1.85,0.8; stroke-dashoffset: 0; stroke: #b2b2b2; stroke-width: 0.5"/>
     </g>
     <g id="line2d_23">
      <g>
       <use xlink:href="#md731dbc5fc" x="29.532813" y="37.98941" style="stroke: #000000; stroke-width: 0.8"/>
      </g>
     </g>
     <g id="text_15">
      <!-- 1.0 -->
      <g transform="translate(8.379688 41.788629) scale(0.1 -0.1)">
       <use xlink:href="#DejaVuSans-31"/>
       <use xlink:href="#DejaVuSans-2e" x="63.623047"/>
       <use xlink:href="#DejaVuSans-30" x="95.410156"/>
      </g>
     </g>
    </g>
   </g>
   <g id="line2d_24">
    <path d="M 29.532812 198.942788 
L 31.751921 198.766345 
L 34.20879 201.807053 
L 36.586406 201.392454 
L 39.043276 201.104788 
L 41.420891 201.202482 
L 43.877761 197.651656 
L 46.334631 197.607262 
L 48.712246 197.244357 
L 51.169116 204.337579 
L 53.546732 209.475031 
L 56.003601 209.046026 
L 58.460471 208.319152 
L 60.679579 207.282703 
L 63.136449 209.220727 
L 65.514064 205.378601 
L 67.970934 205.400106 
L 70.34855 203.451128 
L 72.805419 202.460652 
L 75.262289 204.85336 
L 77.639905 197.454616 
L 80.096774 204.560806 
L 82.47439 203.912482 
L 84.93126 198.136804 
L 87.388129 193.941522 
L 89.686491 195.903842 
L 92.143361 188.694011 
L 94.520976 186.684894 
L 96.977846 186.281167 
L 99.355462 184.89743 
L 101.812331 184.604175 
L 104.269201 183.962461 
L 106.646817 181.854556 
L 109.103686 181.016269 
L 111.481302 179.45249 
L 113.938172 170.440878 
L 116.395041 166.781028 
L 118.614149 163.034708 
L 121.071019 164.103099 
L 123.448635 158.344896 
L 125.905504 156.780828 
L 128.28312 159.617078 
L 130.73999 159.37402 
L 133.196859 159.777539 
L 135.574475 160.377666 
L 138.031345 159.511986 
L 140.408961 160.190057 
L 142.86583 160.018617 
L 145.3227 157.360102 
L 147.541808 156.168627 
L 149.998677 156.375132 
L 152.376293 152.677535 
L 154.833163 152.96915 
L 159.667648 155.752721 
L 162.124518 155.938396 
L 164.502134 153.413829 
L 166.959003 152.865428 
L 169.336619 150.415354 
L 171.793489 149.349139 
L 174.250358 149.376984 
L 176.469466 149.699447 
L 178.926336 150.791529 
L 181.303952 150.133379 
L 183.760821 148.137436 
L 186.138437 147.072538 
L 188.595307 148.536339 
L 191.052176 149.00916 
L 193.429792 147.135928 
L 195.886662 147.211852 
L 198.264277 144.537046 
L 200.721147 147.315536 
L 203.178017 148.19473 
L 205.476378 147.451789 
L 207.933248 145.519231 
L 210.310864 142.55321 
L 212.767733 140.868352 
L 215.145349 141.827555 
L 217.602219 140.61545 
L 220.059088 140.711615 
L 222.436704 140.242475 
L 224.893574 139.015533 
L 227.27119 134.188613 
L 229.728059 133.47779 
L 232.184929 135.261452 
L 234.404037 122.192787 
L 236.860906 121.090883 
L 239.238522 119.163973 
L 241.695392 119.223125 
L 244.073008 119.951186 
L 246.529877 118.276318 
L 248.986747 118.998544 
L 251.364363 116.743949 
L 253.821232 117.184822 
L 256.198848 116.926739 
L 258.655718 115.545957 
L 261.112587 116.543198 
L 263.331695 116.309245 
L 265.788565 118.311073 
L 268.166181 123.805882 
L 270.62305 124.776939 
L 273.000666 116.675703 
L 275.457536 111.129573 
L 277.914405 113.264051 
L 280.292021 111.917817 
L 282.748891 113.780287 
L 285.126506 107.563785 
L 287.583376 110.221604 
L 290.040246 114.22795 
L 292.259354 116.384289 
L 294.716223 119.099117 
L 297.093839 121.981832 
L 299.550709 119.197326 
L 301.928324 116.967098 
L 304.385194 115.782247 
L 306.842064 118.851401 
L 309.219679 115.488495 
L 311.676549 116.513735 
L 314.054165 114.122702 
L 316.511034 112.890735 
L 318.967904 117.605804 
L 321.266266 116.429264 
L 323.723135 116.856713 
L 326.100751 124.525838 
L 328.557621 124.263341 
L 330.935237 125.907644 
L 333.392106 122.183994 
L 335.848976 126.448749 
L 338.226591 125.089035 
L 340.683461 120.669044 
L 343.061077 120.908765 
L 345.517946 120.170315 
L 347.974816 115.003585 
L 350.193924 120.021995 
L 352.650794 115.512301 
L 355.02841 115.829283 
L 359.862895 107.207628 
L 362.319764 107.133019 
L 364.776634 107.393669 
L 367.15425 107.97026 
L 369.611119 107.3738 
L 371.988735 104.510087 
L 374.445605 104.88462 
L 376.902474 107.345945 
L 379.121583 109.242564 
L 381.578452 110.184355 
L 383.956068 108.861293 
L 386.412937 110.291655 
L 388.790553 108.030207 
L 391.247423 109.935182 
L 393.704292 109.03011 
L 396.081908 115.642411 
L 398.538778 114.514442 
L 400.916394 115.440324 
L 403.373263 115.160173 
L 405.830133 111.973766 
L 408.049241 111.555481 
L 410.50611 113.247653 
L 412.883726 109.559232 
L 415.340596 110.504247 
L 420.175081 109.209337 
L 422.631951 108.915502 
L 425.009567 110.199224 
L 427.466436 110.999902 
L 429.844052 118.545048 
L 432.300922 117.112805 
L 434.757791 112.30433 
L 437.056153 105.30883 
L 439.513023 105.404154 
L 441.890638 109.685811 
L 444.347508 109.42229 
L 449.181993 111.349086 
L 451.638863 110.622715 
L 454.016479 111.609202 
L 456.473348 109.571345 
L 458.850964 112.176052 
L 461.307834 116.578558 
L 463.764703 115.820293 
L 465.983811 118.32905 
L 468.440681 115.032457 
L 470.818297 114.190103 
L 473.275166 107.613429 
L 475.652782 110.666569 
L 478.109652 113.53012 
L 480.566521 114.899708 
L 482.944137 114.383115 
L 485.401007 119.978309 
L 487.778623 118.871033 
L 490.235492 117.47002 
L 492.692362 113.018514 
L 494.91147 113.730169 
L 497.368339 127.268162 
L 499.745955 128.262529 
L 502.202825 129.719428 
L 504.580441 131.453994 
L 507.03731 132.247652 
L 509.49418 130.916061 
L 511.871796 125.142492 
L 514.328665 125.658709 
L 516.706281 127.231222 
L 519.163151 127.457064 
L 521.62002 125.950237 
L 523.839128 125.642714 
L 526.295998 128.627558 
L 528.673614 126.151634 
L 533.508099 126.829226 
L 535.964969 128.162295 
L 538.421838 128.048018 
L 540.799454 124.819022 
L 543.256324 123.463565 
L 545.633939 126.256719 
L 548.090809 124.911764 
L 550.547679 119.79804 
L 552.84604 124.393618 
L 555.30291 112.234129 
L 557.680526 111.341799 
L 560.137395 108.120357 
L 562.515011 110.585224 
L 564.971881 110.183818 
L 567.42875 106.386095 
L 569.806366 107.915932 
L 572.263236 110.213864 
L 574.640852 99.286273 
L 577.097721 109.992235 
L 579.554591 105.676633 
L 581.773699 107.581349 
L 584.230568 107.017967 
L 586.608184 86.4148 
L 589.065054 87.711823 
L 591.44267 85.539487 
L 593.899539 76.843006 
L 596.356409 76.617938 
L 598.734025 75.613605 
L 601.190894 75.126419 
L 603.56851 75.279527 
L 608.482249 70.287245 
L 610.701357 67.497437 
L 613.158227 68.286711 
L 615.535843 69.297421 
L 617.992712 69.428567 
L 620.370328 71.22446 
L 622.827198 57.87451 
L 625.284067 64.782343 
L 627.661683 60.752067 
L 630.118552 56.336376 
L 632.496168 51.518072 
L 634.953038 53.772445 
L 637.409907 54.991914 
L 639.629016 52.874799 
L 642.085885 59.919087 
L 644.463501 58.810175 
L 646.92037 59.791059 
L 649.297986 58.207338 
L 651.754856 59.29214 
L 654.211725 61.158823 
L 656.589341 60.44327 
L 659.046211 51.832468 
L 661.423827 54.446874 
L 663.880696 51.397922 
L 666.337566 45.926463 
L 668.635928 46.3494 
L 671.092797 46.621949 
L 673.470413 49.951525 
L 675.927283 50.542997 
L 678.304898 53.993629 
L 680.761768 51.794354 
L 683.218638 44.630123 
L 685.596253 43.943896 
L 688.053123 42.885484 
L 690.430739 44.267784 
L 692.887608 40.519731 
L 695.344478 46.13761 
L 697.563586 45.978389 
L 700.020456 51.1909 
L 702.398071 50.96238 
L 704.854941 47.477617 
L 707.232557 51.475906 
L 709.689426 55.848804 
L 712.146296 52.585961 
L 714.523912 48.047065 
L 716.980781 48.941576 
L 719.358397 63.024856 
L 721.815267 52.40191 
L 724.272136 59.84851 
L 726.491244 58.943208 
L 728.948114 64.045038 
L 731.32573 80.942541 
L 733.782599 76.758409 
L 736.160215 73.219232 
L 738.617085 76.276708 
L 741.073954 75.733181 
L 743.45157 76.705049 
L 745.90844 79.019643 
L 748.286056 76.928515 
L 750.742925 80.440439 
L 753.199795 94.888175 
L 755.418903 92.117052 
L 757.875772 95.910863 
L 762.710258 94.587947 
L 765.087874 95.88945 
L 767.544743 106.227607 
L 770.001613 98.973287 
L 772.379229 99.431754 
L 774.836098 95.704845 
L 777.213714 84.843476 
L 779.670584 77.076965 
L 782.127453 77.42837 
L 784.425815 78.89576 
L 786.882685 65.816463 
L 789.2603 67.428335 
L 791.71717 64.159343 
L 794.094786 65.527279 
L 796.551655 64.473575 
L 799.008525 64.935263 
L 801.386141 67.544465 
L 803.84301 73.342255 
L 806.220626 83.013974 
L 808.677496 77.264061 
L 813.353473 76.848652 
L 815.810343 78.791866 
L 820.644828 76.822285 
L 823.022444 77.712559 
L 825.479314 90.402493 
L 827.936183 95.095189 
L 830.313799 94.99378 
L 832.770669 97.621162 
L 835.148285 96.672724 
L 837.605154 100.503336 
L 840.062024 105.241722 
L 842.281132 105.467755 
L 844.738001 108.038531 
L 847.115617 111.801971 
L 849.572487 111.739519 
L 851.950103 108.796612 
L 854.406972 108.603427 
L 856.863842 110.529419 
L 859.241458 112.537555 
L 861.698327 110.814822 
L 864.075943 111.861642 
L 866.532813 101.67575 
L 866.532813 101.67575 
" clip-path="url(#p5802afc373)" style="fill: none; stroke: #e69f00; stroke-width: 2; stroke-linecap: square"/>
   </g>
   <g id="line2d_25">
    <path d="M 29.532812 75.139039 
L 31.751921 77.506611 
L 34.20879 76.055405 
L 36.586406 76.602833 
L 39.043276 77.742447 
L 41.420891 77.603113 
L 43.877761 71.747163 
L 46.334631 72.772894 
L 48.712246 73.000594 
L 51.169116 64.618614 
L 53.546732 64.050111 
L 56.003601 62.898573 
L 58.460471 63.071027 
L 60.679579 63.651455 
L 63.136449 60.792747 
L 65.514064 58.575641 
L 67.970934 59.373743 
L 70.34855 59.092492 
L 72.805419 60.342319 
L 75.262289 56.228863 
L 77.639905 60.884361 
L 80.096774 55.857006 
L 82.47439 63.301804 
L 84.93126 65.20048 
L 87.388129 63.282448 
L 89.686491 54.839968 
L 92.143361 55.91401 
L 94.520976 60.060242 
L 96.977846 55.896299 
L 99.355462 59.052715 
L 101.812331 59.595273 
L 104.269201 58.167406 
L 106.646817 58.388261 
L 109.103686 59.404596 
L 111.481302 60.865178 
L 113.938172 16.94175 
L 116.395041 28.673397 
L 118.614149 30.319844 
L 121.071019 29.664018 
L 123.448635 36.429419 
L 125.905504 40.197457 
L 128.28312 36.732125 
L 130.73999 35.728871 
L 133.196859 38.868287 
L 135.574475 38.488763 
L 138.031345 41.094268 
L 140.408961 42.315721 
L 142.86583 42.014217 
L 145.3227 43.051322 
L 147.541808 44.348795 
L 149.998677 46.421964 
L 152.376293 45.094987 
L 154.833163 41.855883 
L 157.210779 45.612419 
L 159.667648 47.227454 
L 162.124518 46.970181 
L 164.502134 52.758475 
L 166.959003 48.921609 
L 169.336619 47.733484 
L 171.793489 48.809981 
L 174.250358 46.455735 
L 176.469466 42.972279 
L 178.926336 53.160584 
L 181.303952 53.18902 
L 183.760821 53.376037 
L 186.138437 54.135273 
L 188.595307 60.824936 
L 193.429792 55.016796 
L 195.886662 70.347877 
L 198.264277 73.834128 
L 200.721147 74.30013 
L 203.178017 81.577469 
L 207.933248 86.791858 
L 210.310864 91.941171 
L 212.767733 93.196013 
L 215.145349 92.048382 
L 217.602219 92.24724 
L 220.059088 97.41862 
L 222.436704 92.575309 
L 224.893574 91.921339 
L 227.27119 92.562318 
L 229.728059 92.391924 
L 232.184929 91.171513 
L 234.404037 91.956306 
L 236.860906 86.966429 
L 239.238522 88.906288 
L 241.695392 81.925056 
L 244.073008 76.753605 
L 246.529877 79.165111 
L 248.986747 78.210247 
L 253.821232 76.811219 
L 256.198848 73.496617 
L 258.655718 71.959725 
L 261.112587 72.90164 
L 263.331695 73.495148 
L 265.788565 75.079475 
L 268.166181 69.924829 
L 270.62305 72.112071 
L 273.000666 82.05878 
L 275.457536 82.451009 
L 277.914405 82.108388 
L 280.292021 95.02695 
L 282.748891 79.150652 
L 285.126506 81.145226 
L 287.583376 78.083356 
L 290.040246 72.719546 
L 292.259354 72.270657 
L 294.716223 74.439654 
L 297.093839 72.849219 
L 299.550709 85.446558 
L 301.928324 92.365155 
L 304.385194 88.853522 
L 306.842064 90.767199 
L 309.219679 84.199407 
L 311.676549 85.953614 
L 314.054165 86.377214 
L 316.511034 80.23266 
L 318.967904 86.12939 
L 321.266266 88.804359 
L 323.723135 84.933474 
L 326.100751 90.417711 
L 328.557621 88.878547 
L 330.935237 94.176853 
L 333.392106 86.545283 
L 335.848976 86.538998 
L 338.226591 93.018473 
L 340.683461 93.965601 
L 343.061077 95.216526 
L 345.517946 92.662664 
L 347.974816 92.539224 
L 350.193924 93.993509 
L 352.650794 97.3646 
L 355.02841 94.317532 
L 357.485279 91.701881 
L 364.776634 98.449189 
L 367.15425 102.658176 
L 369.611119 97.308625 
L 371.988735 100.585656 
L 374.445605 99.482831 
L 376.902474 99.958233 
L 379.121583 99.554315 
L 381.578452 99.241565 
L 383.956068 101.587632 
L 386.412937 106.33013 
L 388.790553 104.388144 
L 391.247423 107.318887 
L 393.704292 102.903953 
L 396.081908 107.431173 
L 398.538778 107.584789 
L 400.916394 106.571931 
L 403.373263 104.832072 
L 405.830133 106.512635 
L 408.049241 104.553881 
L 410.50611 105.814062 
L 415.340596 106.872379 
L 417.718212 106.227006 
L 420.175081 105.041708 
L 422.631951 105.626841 
L 425.009567 103.847149 
L 427.466436 113.984994 
L 429.844052 114.089686 
L 432.300922 115.273918 
L 434.757791 121.773226 
L 437.056153 128.430395 
L 439.513023 126.461083 
L 441.890638 126.851357 
L 444.347508 123.684708 
L 446.725124 121.951241 
L 449.181993 122.019931 
L 451.638863 125.949163 
L 454.016479 124.99023 
L 456.473348 126.449144 
L 458.850964 125.952964 
L 461.307834 135.525027 
L 463.764703 135.49294 
L 465.983811 133.321775 
L 468.440681 133.538112 
L 470.818297 140.393691 
L 473.275166 144.103084 
L 475.652782 143.699173 
L 478.109652 144.017221 
L 480.566521 144.468265 
L 482.944137 144.429993 
L 485.401007 143.006693 
L 487.778623 143.784574 
L 490.235492 147.954748 
L 492.692362 147.130496 
L 494.91147 147.744493 
L 497.368339 142.023466 
L 499.745955 140.068888 
L 502.202825 142.51137 
L 504.580441 140.802475 
L 507.03731 143.59896 
L 509.49418 138.566107 
L 511.871796 140.955324 
L 514.328665 140.36067 
L 516.706281 136.502226 
L 519.163151 140.00618 
L 521.62002 142.476846 
L 523.839128 141.024726 
L 526.295998 139.661915 
L 528.673614 137.081608 
L 531.130483 134.624149 
L 533.508099 134.832245 
L 535.964969 134.183242 
L 538.421838 139.051729 
L 540.799454 128.695181 
L 543.256324 129.022704 
L 545.633939 130.777732 
L 548.090809 128.80451 
L 550.547679 132.729536 
L 552.84604 128.866635 
L 555.30291 131.18224 
L 557.680526 125.955744 
L 560.137395 127.66907 
L 562.515011 133.698231 
L 564.971881 138.768768 
L 567.42875 132.535542 
L 569.806366 132.173967 
L 572.263236 130.282406 
L 574.640852 133.074542 
L 577.097721 145.343777 
L 581.773699 136.348663 
L 584.230568 135.866328 
L 586.608184 140.696383 
L 589.065054 137.012901 
L 591.44267 138.314709 
L 593.899539 138.180845 
L 596.356409 137.348457 
L 598.734025 139.979795 
L 603.56851 141.267078 
L 606.025379 140.404481 
L 608.482249 139.92319 
L 610.701357 139.99647 
L 613.158227 141.389273 
L 615.535843 136.76462 
L 617.992712 137.616391 
L 620.370328 136.528623 
L 622.827198 137.704789 
L 625.284067 139.83814 
L 627.661683 139.904168 
L 630.118552 140.19575 
L 632.496168 138.96742 
L 634.953038 134.371051 
L 637.409907 133.686086 
L 639.629016 135.402266 
L 642.085885 133.57359 
L 646.92037 135.851513 
L 649.297986 134.414627 
L 651.754856 133.710503 
L 654.211725 135.360581 
L 656.589341 135.3777 
L 659.046211 131.43217 
L 661.423827 137.796648 
L 663.880696 140.724658 
L 666.337566 141.263272 
L 668.635928 140.545053 
L 671.092797 143.070988 
L 673.470413 143.630608 
L 675.927283 142.859749 
L 678.304898 140.949646 
L 680.761768 141.921536 
L 683.218638 141.105076 
L 685.596253 144.37535 
L 688.053123 144.655127 
L 690.430739 144.739863 
L 692.887608 141.85692 
L 695.344478 142.29558 
L 700.020456 146.332592 
L 702.398071 145.744636 
L 704.854941 143.168954 
L 707.232557 143.798179 
L 709.689426 143.538304 
L 712.146296 147.445098 
L 714.523912 150.35755 
L 716.980781 150.206908 
L 719.358397 139.869743 
L 721.815267 134.395837 
L 724.272136 147.421804 
L 726.491244 151.469818 
L 728.948114 153.445375 
L 731.32573 144.653562 
L 733.782599 153.098232 
L 738.617085 149.612851 
L 741.073954 150.603033 
L 743.45157 156.19328 
L 745.90844 154.38399 
L 748.286056 158.275601 
L 750.742925 157.486345 
L 753.199795 149.60417 
L 755.418903 148.467932 
L 757.875772 147.066658 
L 760.253388 142.459024 
L 762.710258 146.663257 
L 765.087874 145.929293 
L 767.544743 142.550517 
L 770.001613 146.037565 
L 772.379229 140.648394 
L 774.836098 138.067254 
L 777.213714 142.163146 
L 779.670584 145.852125 
L 782.127453 145.317936 
L 784.425815 145.769886 
L 786.882685 141.144487 
L 789.2603 138.101584 
L 791.71717 141.262147 
L 794.094786 139.230697 
L 796.551655 139.882955 
L 799.008525 142.208442 
L 803.84301 140.808873 
L 806.220626 134.64968 
L 808.677496 125.679589 
L 811.134365 126.709958 
L 813.353473 126.557622 
L 815.810343 128.431098 
L 818.187959 127.099883 
L 820.644828 130.335283 
L 823.022444 129.29446 
L 825.479314 125.579569 
L 827.936183 126.411589 
L 830.313799 125.344372 
L 832.770669 126.613652 
L 835.148285 128.511238 
L 840.062024 130.143679 
L 842.281132 130.25417 
L 844.738001 120.59099 
L 847.115617 125.505604 
L 849.572487 123.086229 
L 851.950103 124.025731 
L 854.406972 123.864639 
L 856.863842 125.3895 
L 859.241458 122.960397 
L 861.698327 122.534699 
L 864.075943 121.805364 
L 866.532813 124.798098 
L 866.532813 124.798098 
" clip-path="url(#p5802afc373)" style="fill: none; stroke-dasharray: 7.4,3.2; stroke-dashoffset: 0; stroke: #56b4e9; stroke-width: 2"/>
   </g>
   <g id="line2d_26">
    <path d="M 29.532812 139.791142 
L 31.751921 139.697955 
L 34.20879 136.31706 
L 36.586406 137.228293 
L 39.043276 136.133696 
L 41.420891 136.933703 
L 43.877761 142.352078 
L 46.334631 142.719498 
L 48.712246 141.857771 
L 51.169116 144.503972 
L 53.546732 139.474669 
L 56.003601 139.596502 
L 58.460471 136.547708 
L 60.679579 136.341617 
L 63.136449 135.931362 
L 65.514064 135.789889 
L 67.970934 138.873658 
L 70.34855 140.762025 
L 72.805419 141.623567 
L 75.262289 141.831289 
L 77.639905 140.94445 
L 80.096774 139.047322 
L 82.47439 139.918837 
L 84.93126 142.849079 
L 87.388129 142.694407 
L 89.686491 140.020445 
L 92.143361 138.854537 
L 94.520976 137.876824 
L 96.977846 138.428977 
L 99.355462 140.623312 
L 101.812331 141.196096 
L 104.269201 142.721208 
L 106.646817 143.676585 
L 109.103686 142.170624 
L 111.481302 142.332875 
L 113.938172 169.686721 
L 116.395041 162.303857 
L 118.614149 157.07902 
L 121.071019 159.580441 
L 123.448635 160.898947 
L 125.905504 157.740569 
L 128.28312 157.759272 
L 130.73999 159.565426 
L 133.196859 156.242361 
L 135.574475 155.167602 
L 138.031345 151.380841 
L 140.408961 150.745274 
L 142.86583 150.882996 
L 145.3227 152.216835 
L 147.541808 151.255199 
L 149.998677 148.567878 
L 154.833163 146.080265 
L 157.210779 141.83042 
L 159.667648 141.175929 
L 162.124518 139.212958 
L 164.502134 143.482237 
L 166.959003 145.97073 
L 169.336619 145.987501 
L 171.793489 148.034151 
L 174.250358 148.779899 
L 176.469466 147.136565 
L 178.926336 143.593011 
L 181.303952 143.622263 
L 183.760821 142.596366 
L 186.138437 144.057409 
L 188.595307 137.155722 
L 191.052176 138.492223 
L 193.429792 142.634672 
L 195.886662 132.303675 
L 198.264277 139.180036 
L 200.721147 137.856101 
L 203.178017 133.803722 
L 205.476378 133.020198 
L 207.933248 133.098452 
L 210.310864 136.778358 
L 212.767733 137.82506 
L 215.145349 141.042528 
L 217.602219 143.702313 
L 220.059088 142.344713 
L 222.436704 149.110748 
L 224.893574 150.285948 
L 227.27119 152.608736 
L 229.728059 152.460407 
L 232.184929 154.574045 
L 234.404037 167.864978 
L 236.860906 170.372081 
L 239.238522 171.376458 
L 241.695392 173.429144 
L 244.073008 173.651541 
L 246.529877 177.592452 
L 248.986747 173.748599 
L 251.364363 178.914531 
L 253.821232 175.386036 
L 256.198848 174.494328 
L 258.655718 177.871651 
L 261.112587 179.046567 
L 263.331695 178.280052 
L 265.788565 174.786305 
L 268.166181 175.575666 
L 270.62305 173.53983 
L 273.000666 172.293728 
L 275.457536 173.581752 
L 277.914405 173.742473 
L 280.292021 167.954076 
L 282.748891 165.776887 
L 285.126506 170.775851 
L 287.583376 171.184152 
L 290.040246 172.603282 
L 292.259354 173.222996 
L 294.716223 167.540866 
L 297.093839 172.158248 
L 299.550709 173.331184 
L 301.928324 173.584883 
L 304.385194 172.753256 
L 306.842064 173.124839 
L 309.219679 173.142377 
L 311.676549 173.546793 
L 314.054165 170.612226 
L 316.511034 169.50647 
L 318.967904 167.393844 
L 321.266266 169.113481 
L 323.723135 169.892265 
L 326.100751 163.503167 
L 328.557621 162.733774 
L 330.935237 161.011511 
L 333.392106 162.568123 
L 335.848976 162.512118 
L 338.226591 164.301962 
L 343.061077 165.398902 
L 345.517946 165.173299 
L 347.974816 167.183076 
L 350.193924 165.677021 
L 352.650794 162.86731 
L 355.02841 164.625968 
L 357.485279 166.67901 
L 359.862895 168.008391 
L 362.319764 167.933322 
L 364.776634 167.382588 
L 367.15425 166.514995 
L 369.611119 167.656237 
L 371.988735 169.295538 
L 376.902474 169.633514 
L 379.121583 169.295741 
L 381.578452 169.461348 
L 383.956068 168.531235 
L 386.412937 168.440983 
L 388.790553 169.290242 
L 391.247423 168.953993 
L 393.704292 170.75928 
L 396.081908 170.578317 
L 400.916394 173.486022 
L 403.373263 173.117295 
L 405.830133 174.504183 
L 408.049241 175.262997 
L 410.50611 174.723758 
L 412.883726 175.299376 
L 417.718212 174.860635 
L 420.175081 175.816082 
L 422.631951 175.403763 
L 425.009567 175.680743 
L 427.466436 176.78584 
L 429.844052 174.808946 
L 432.300922 175.380396 
L 434.757791 175.361778 
L 437.056153 173.70982 
L 439.513023 174.752005 
L 441.890638 173.552873 
L 444.347508 173.980367 
L 446.725124 173.768194 
L 449.181993 173.671285 
L 451.638863 172.943485 
L 454.016479 174.152934 
L 456.473348 174.464516 
L 458.850964 175.318375 
L 461.307834 175.616055 
L 463.764703 175.509616 
L 465.983811 176.446729 
L 468.440681 176.895081 
L 470.818297 182.365649 
L 473.275166 185.588649 
L 475.652782 184.895679 
L 478.109652 187.699279 
L 480.566521 187.038281 
L 482.944137 186.803707 
L 485.401007 185.996829 
L 487.778623 189.097087 
L 490.235492 188.505348 
L 492.692362 191.737923 
L 494.91147 197.423712 
L 497.368339 207.753782 
L 499.745955 212.971786 
L 502.202825 208.462194 
L 504.580441 208.553473 
L 507.03731 209.47758 
L 509.49418 214.820833 
L 511.871796 214.098284 
L 514.328665 212.607788 
L 516.706281 210.12804 
L 519.163151 211.173358 
L 521.62002 209.384867 
L 523.839128 209.158257 
L 526.295998 209.998587 
L 528.673614 214.957412 
L 531.130483 216.279003 
L 533.508099 214.925577 
L 535.964969 214.982428 
L 538.421838 205.600629 
L 540.799454 199.813241 
L 543.256324 201.071609 
L 545.633939 191.79932 
L 548.090809 195.220506 
L 550.547679 196.586072 
L 552.84604 187.250063 
L 555.30291 200.131394 
L 557.680526 202.26611 
L 560.137395 203.245401 
L 562.515011 200.992693 
L 564.971881 196.697501 
L 567.42875 196.65052 
L 569.806366 193.118981 
L 572.263236 194.259499 
L 574.640852 201.40225 
L 577.097721 182.945919 
L 579.554591 185.834749 
L 581.773699 188.261416 
L 584.230568 184.626935 
L 586.608184 181.597084 
L 589.065054 184.589359 
L 591.44267 188.504922 
L 593.899539 187.959059 
L 596.356409 188.853627 
L 598.734025 185.830791 
L 601.190894 185.342749 
L 603.56851 186.791531 
L 606.025379 189.210086 
L 608.482249 186.681028 
L 610.701357 190.002085 
L 613.158227 189.761973 
L 615.535843 192.950469 
L 617.992712 193.259379 
L 620.370328 192.772834 
L 622.827198 193.929619 
L 625.284067 192.596829 
L 627.661683 194.60716 
L 630.118552 196.307133 
L 632.496168 200.069291 
L 634.953038 203.495692 
L 637.409907 203.869299 
L 639.629016 203.468877 
L 642.085885 200.375316 
L 644.463501 200.893222 
L 646.92037 198.954861 
L 649.297986 198.439662 
L 651.754856 198.066317 
L 654.211725 196.82828 
L 656.589341 198.820642 
L 659.046211 202.028702 
L 661.423827 196.852789 
L 663.880696 196.321699 
L 666.337566 197.881465 
L 668.635928 196.497555 
L 671.092797 195.437172 
L 673.470413 193.788131 
L 675.927283 194.08957 
L 678.304898 195.183527 
L 680.761768 195.322097 
L 683.218638 198.67879 
L 685.596253 199.332897 
L 688.053123 197.538235 
L 690.430739 198.090542 
L 692.887608 202.39257 
L 695.344478 200.660899 
L 697.563586 203.453684 
L 700.020456 189.437184 
L 702.398071 189.531007 
L 704.854941 190.153155 
L 707.232557 188.323912 
L 709.689426 185.279947 
L 712.146296 184.162809 
L 714.523912 183.90415 
L 716.980781 179.647874 
L 719.358397 167.659232 
L 721.815267 166.70131 
L 724.272136 161.656527 
L 726.491244 160.134323 
L 728.948114 156.73403 
L 731.32573 166.801395 
L 733.782599 165.973772 
L 736.160215 168.144494 
L 738.617085 169.936595 
L 741.073954 168.504775 
L 743.45157 163.928113 
L 745.90844 160.879529 
L 748.286056 158.729597 
L 750.742925 157.433939 
L 753.199795 160.672812 
L 755.418903 158.999604 
L 757.875772 147.998174 
L 760.253388 150.852929 
L 762.710258 152.646633 
L 765.087874 151.167814 
L 767.544743 152.495256 
L 770.001613 154.854871 
L 772.379229 152.671713 
L 774.836098 152.901796 
L 777.213714 137.907905 
L 779.670584 143.211046 
L 782.127453 142.733523 
L 784.425815 144.350743 
L 786.882685 141.966489 
L 789.2603 143.482152 
L 791.71717 146.885244 
L 794.094786 149.713876 
L 796.551655 148.838732 
L 799.008525 147.142274 
L 801.386141 151.739194 
L 803.84301 149.216603 
L 806.220626 155.246703 
L 808.677496 160.681644 
L 811.134365 158.342596 
L 813.353473 158.211712 
L 815.810343 156.065415 
L 818.187959 152.661563 
L 820.644828 151.804101 
L 823.022444 151.707732 
L 825.479314 147.825512 
L 827.936183 150.648072 
L 830.313799 151.654635 
L 832.770669 148.204743 
L 835.148285 147.716551 
L 840.062024 138.586757 
L 842.281132 137.65371 
L 844.738001 147.196455 
L 847.115617 139.646128 
L 849.572487 142.117143 
L 854.406972 145.512485 
L 856.863842 143.205006 
L 859.241458 144.696684 
L 861.698327 150.022345 
L 864.075943 150.724414 
L 866.532813 154.184873 
L 866.532813 154.184873 
" clip-path="url(#p5802afc373)" style="fill: none; stroke-dasharray: 12.8,3.2,2,3.2; stroke-dashoffset: 0; stroke: #009e73; stroke-width: 2"/>
   </g>
   <g id="line2d_27">
    <path d="M 29.532812 147.44183 
L 31.751921 148.003993 
L 34.20879 148.183625 
L 36.586406 147.375585 
L 39.043276 148.084765 
L 41.420891 145.227096 
L 43.877761 148.746248 
L 46.334631 146.746502 
L 48.712246 146.912006 
L 51.169116 140.898503 
L 53.546732 137.702741 
L 56.003601 139.229537 
L 58.460471 138.609623 
L 60.679579 138.67021 
L 63.136449 137.358617 
L 65.514064 142.310393 
L 67.970934 138.355078 
L 70.34855 139.693216 
L 72.805419 137.888119 
L 75.262289 138.856434 
L 77.639905 142.361628 
L 80.096774 145.519203 
L 82.47439 137.559116 
L 84.93126 137.356548 
L 87.388129 140.255715 
L 89.686491 146.561822 
L 92.143361 150.669282 
L 94.520976 149.807627 
L 96.977846 152.427536 
L 99.355462 149.990916 
L 101.812331 149.445984 
L 104.269201 152.219986 
L 106.646817 153.345893 
L 109.103686 153.981578 
L 111.481302 153.811709 
L 113.938172 171.89559 
L 116.395041 167.757103 
L 118.614149 170.176274 
L 121.071019 169.129471 
L 123.448635 165.697444 
L 125.905504 164.941514 
L 128.28312 164.569552 
L 130.73999 164.710723 
L 133.196859 166.144143 
L 135.574475 167.12272 
L 138.031345 167.73149 
L 140.408961 167.260945 
L 142.86583 167.558217 
L 145.3227 166.791129 
L 147.541808 167.11211 
L 149.998677 166.494284 
L 154.833163 171.116623 
L 157.210779 170.22838 
L 159.667648 169.541168 
L 162.124518 169.624358 
L 164.502134 164.076358 
L 166.959003 167.224715 
L 169.336619 167.389054 
L 171.793489 168.288373 
L 174.250358 164.793803 
L 176.469466 165.44328 
L 178.926336 164.203921 
L 183.760821 164.029101 
L 186.138437 165.646891 
L 188.595307 161.352507 
L 191.052176 162.630081 
L 193.429792 162.988756 
L 195.886662 167.653205 
L 198.264277 169.269556 
L 200.721147 168.786717 
L 203.178017 167.871578 
L 205.476378 168.13831 
L 207.933248 169.215068 
L 210.310864 167.903593 
L 212.767733 167.50729 
L 215.145349 166.504098 
L 217.602219 166.610305 
L 220.059088 166.407374 
L 222.436704 165.93275 
L 224.893574 166.414514 
L 227.27119 168.429639 
L 229.728059 168.500387 
L 232.184929 169.491925 
L 234.404037 166.209443 
L 236.860906 166.666183 
L 241.695392 167.343746 
L 244.073008 169.020954 
L 246.529877 168.799317 
L 248.986747 169.096586 
L 251.364363 163.369945 
L 253.821232 164.93405 
L 256.198848 165.368197 
L 258.655718 163.23026 
L 261.112587 162.622721 
L 263.331695 162.822362 
L 265.788565 158.623983 
L 268.166181 154.955432 
L 270.62305 153.678506 
L 273.000666 156.448794 
L 275.457536 157.341823 
L 277.914405 155.776522 
L 282.748891 143.408983 
L 285.126506 146.376072 
L 287.583376 138.181665 
L 290.040246 138.251228 
L 292.259354 137.632156 
L 294.716223 141.545107 
L 297.093839 139.585864 
L 299.550709 132.053058 
L 301.928324 126.599206 
L 304.385194 129.259897 
L 306.842064 126.024744 
L 309.219679 129.329264 
L 311.676549 120.651813 
L 314.054165 128.746304 
L 316.511034 133.43503 
L 318.967904 129.428835 
L 321.266266 130.49498 
L 323.723135 126.670862 
L 326.100751 124.549839 
L 328.557621 121.134766 
L 330.935237 119.814346 
L 333.392106 124.123842 
L 335.848976 124.979383 
L 338.226591 127.346136 
L 340.683461 127.602064 
L 343.061077 126.691227 
L 345.517946 128.015102 
L 347.974816 129.163073 
L 350.193924 125.601708 
L 352.650794 130.434799 
L 355.02841 128.718344 
L 357.485279 129.891741 
L 359.862895 128.805303 
L 362.319764 129.290215 
L 364.776634 129.990744 
L 367.15425 126.528425 
L 369.611119 129.468973 
L 371.988735 123.380887 
L 374.445605 125.062761 
L 376.902474 124.039274 
L 379.121583 123.818535 
L 381.578452 122.455215 
L 383.956068 123.156117 
L 386.412937 118.998991 
L 388.790553 121.848976 
L 391.247423 117.289285 
L 393.704292 120.838679 
L 396.081908 117.224962 
L 398.538778 115.82503 
L 400.916394 114.086178 
L 403.373263 116.121879 
L 405.830133 113.964098 
L 408.049241 115.326147 
L 410.50611 113.486142 
L 412.883726 114.806855 
L 415.340596 117.028267 
L 417.718212 114.667676 
L 420.175081 114.277089 
L 422.631951 116.871902 
L 425.009567 114.185604 
L 427.466436 117.554047 
L 429.844052 111.711686 
L 432.300922 112.108856 
L 434.757791 110.879881 
L 437.056153 113.620785 
L 439.513023 113.886475 
L 441.890638 111.56387 
L 444.347508 112.985853 
L 446.725124 115.464777 
L 449.181993 115.444636 
L 451.638863 113.311418 
L 454.016479 115.766167 
L 456.473348 116.094386 
L 458.850964 114.769948 
L 461.307834 109.830422 
L 463.764703 111.012862 
L 465.983811 109.990704 
L 468.440681 111.417509 
L 470.818297 110.52004 
L 473.275166 120.434703 
L 480.566521 113.333168 
L 482.944137 112.700036 
L 485.401007 112.477568 
L 487.778623 110.897144 
L 490.235492 109.891407 
L 492.692362 108.46353 
L 494.91147 112.593475 
L 497.368339 103.31411 
L 499.745955 101.269021 
L 502.202825 97.737615 
L 504.580441 97.768227 
L 507.03731 95.340482 
L 509.49418 94.434517 
L 511.871796 95.955708 
L 514.328665 97.286393 
L 516.706281 102.312146 
L 519.163151 102.330167 
L 521.62002 101.530497 
L 523.839128 103.688883 
L 526.295998 103.934924 
L 528.673614 102.758466 
L 531.130483 106.169724 
L 533.508099 108.157681 
L 535.964969 106.544511 
L 538.421838 102.636154 
L 540.799454 111.374221 
L 543.256324 111.307469 
L 545.633939 119.419264 
L 548.090809 120.019754 
L 550.547679 117.194407 
L 552.84604 117.58432 
L 555.30291 122.276309 
L 557.680526 121.728045 
L 560.137395 119.287835 
L 562.515011 120.959935 
L 564.971881 121.5754 
L 567.42875 111.558447 
L 569.806366 113.591533 
L 572.263236 112.203625 
L 574.640852 114.323485 
L 577.097721 104.689464 
L 579.554591 103.594798 
L 581.773699 107.055912 
L 584.230568 101.678479 
L 586.608184 108.205531 
L 589.065054 101.538548 
L 591.44267 96.40487 
L 593.899539 99.869374 
L 596.356409 99.421654 
L 598.734025 97.280016 
L 601.190894 99.303292 
L 603.56851 95.105327 
L 606.025379 95.692046 
L 608.482249 99.438043 
L 610.701357 99.707888 
L 613.158227 97.388099 
L 615.535843 97.779756 
L 617.992712 96.620073 
L 620.370328 96.158393 
L 622.827198 101.717771 
L 625.284067 97.613561 
L 627.661683 94.92344 
L 630.118552 95.995228 
L 632.496168 97.426833 
L 634.953038 90.761694 
L 637.409907 90.998242 
L 639.629016 92.095814 
L 642.085885 93.637499 
L 644.463501 92.862035 
L 646.92037 93.307286 
L 649.297986 95.379461 
L 651.754856 96.285941 
L 654.211725 96.755633 
L 656.589341 95.449989 
L 659.046211 95.229519 
L 661.423827 94.580491 
L 663.880696 89.880617 
L 666.337566 88.729165 
L 668.635928 91.660531 
L 671.092797 89.991999 
L 673.470413 90.861658 
L 675.927283 92.100821 
L 678.304898 85.276297 
L 680.761768 88.745932 
L 685.596253 87.259088 
L 688.053123 89.580918 
L 690.430739 90.489307 
L 692.887608 87.94062 
L 695.344478 88.305011 
L 697.563586 87.451087 
L 700.020456 89.549756 
L 702.398071 90.728182 
L 704.854941 89.040808 
L 707.232557 91.833558 
L 709.689426 90.328759 
L 712.146296 93.700005 
L 716.980781 97.535416 
L 719.358397 97.594892 
L 721.815267 113.13273 
L 724.272136 108.607663 
L 726.491244 107.950184 
L 728.948114 102.865695 
L 731.32573 100.493395 
L 733.782599 102.465797 
L 736.160215 102.180806 
L 738.617085 100.212161 
L 741.073954 101.03837 
L 743.45157 101.224826 
L 745.90844 101.171448 
L 748.286056 103.431899 
L 750.742925 102.516544 
L 753.199795 96.139615 
L 755.418903 96.923396 
L 757.875772 99.648046 
L 760.253388 99.40762 
L 765.087874 98.631332 
L 767.544743 95.780311 
L 770.001613 103.697911 
L 772.379229 109.108624 
L 774.836098 118.188267 
L 777.213714 130.386928 
L 779.670584 133.038517 
L 782.127453 135.222108 
L 784.425815 133.09692 
L 786.882685 142.32827 
L 789.2603 141.008436 
L 794.094786 134.252647 
L 796.551655 131.989238 
L 799.008525 132.135588 
L 801.386141 131.717847 
L 803.84301 138.072564 
L 806.220626 140.255204 
L 808.677496 165.602 
L 811.134365 164.713832 
L 813.353473 164.831069 
L 815.810343 165.851288 
L 818.187959 170.888091 
L 820.644828 170.99999 
L 823.022444 171.450327 
L 825.479314 172.916924 
L 827.936183 168.097255 
L 830.313799 167.923636 
L 832.770669 166.879716 
L 835.148285 166.009756 
L 837.605154 163.498679 
L 840.062024 161.73364 
L 842.281132 161.108848 
L 844.738001 158.690099 
L 847.115617 158.420644 
L 849.572487 156.600245 
L 851.950103 156.480201 
L 854.406972 156.481882 
L 856.863842 156.30081 
L 859.241458 154.598817 
L 861.698327 154.299256 
L 864.075943 153.263499 
L 866.532813 159.480924 
L 866.532813 159.480924 
" clip-path="url(#p5802afc373)" style="fill: none; stroke-dasharray: 2,3.3; stroke-dashoffset: 0; stroke: #0072b2; stroke-width: 2"/>
   </g>
   <g id="line2d_28">
    <path d="M 29.532812 144.01874 
L 31.751921 141.358635 
L 34.20879 142.970394 
L 36.586406 142.734373 
L 39.043276 142.267842 
L 41.420891 144.367143 
L 43.877761 144.836392 
L 46.334631 145.487383 
L 48.712246 146.31881 
L 51.169116 150.97487 
L 53.546732 154.630986 
L 56.003601 154.5629 
L 58.460471 158.786028 
L 60.679579 159.387553 
L 63.136449 162.030085 
L 65.514064 163.279013 
L 67.970934 163.330953 
L 70.34855 162.334677 
L 72.805419 163.018881 
L 75.262289 163.563591 
L 77.639905 163.688482 
L 80.096774 160.349201 
L 82.47439 160.641298 
L 84.93126 161.790627 
L 87.388129 165.159446 
L 92.143361 171.201698 
L 94.520976 170.903951 
L 96.977846 172.299558 
L 99.355462 170.769164 
L 101.812331 170.492011 
L 104.269201 168.262477 
L 106.646817 168.068242 
L 109.103686 168.76047 
L 111.481302 168.871286 
L 113.938172 176.368599 
L 116.395041 179.818153 
L 118.614149 184.723692 
L 121.071019 182.856509 
L 123.448635 183.962832 
L 125.905504 185.67317 
L 128.28312 186.655511 
L 130.73999 185.954498 
L 133.196859 184.301207 
L 135.574475 184.176787 
L 138.031345 185.614953 
L 140.408961 184.82154 
L 142.86583 184.859491 
L 145.3227 185.914151 
L 147.541808 186.448807 
L 149.998677 187.47428 
L 152.376293 191.406948 
L 154.833163 193.311616 
L 157.210779 193.339014 
L 159.667648 191.636266 
L 162.124518 193.587645 
L 164.502134 191.602639 
L 166.959003 190.351057 
L 169.336619 193.808145 
L 171.793489 190.851894 
L 174.250358 195.927116 
L 176.469466 200.081966 
L 178.926336 193.584492 
L 181.303952 194.3256 
L 183.760821 197.194598 
L 186.138437 194.421426 
L 188.595307 197.464034 
L 191.052176 197.292317 
L 193.429792 197.557387 
L 198.264277 178.512771 
L 200.721147 177.075055 
L 203.178017 173.88604 
L 205.476378 172.588288 
L 207.933248 170.708929 
L 210.310864 166.157206 
L 212.767733 165.936823 
L 215.145349 163.910975 
L 217.602219 162.15823 
L 220.059088 158.451216 
L 222.436704 157.472256 
L 224.893574 157.696204 
L 227.27119 157.544232 
L 229.728059 158.503029 
L 232.184929 154.834603 
L 234.404037 157.110024 
L 236.860906 160.237961 
L 239.238522 158.903783 
L 241.695392 163.412467 
L 244.073008 165.956253 
L 246.529877 161.50034 
L 251.364363 168.839978 
L 253.821232 171.01741 
L 256.198848 175.047656 
L 258.655718 176.725945 
L 261.112587 174.219412 
L 263.331695 174.426731 
L 265.788565 178.532702 
L 268.166181 181.071728 
L 270.62305 181.226192 
L 273.000666 177.856532 
L 275.457536 180.82938 
L 277.914405 180.442104 
L 280.292021 180.801237 
L 282.748891 203.216729 
L 285.126506 199.472604 
L 287.583376 207.662761 
L 290.040246 207.531532 
L 292.259354 205.823441 
L 294.716223 202.708793 
L 297.093839 198.758373 
L 299.550709 195.305412 
L 301.928324 195.817195 
L 304.385194 198.684616 
L 306.842064 196.565355 
L 309.219679 203.173994 
L 311.676549 208.667584 
L 314.054165 205.475092 
L 316.511034 209.268642 
L 321.266266 200.491454 
L 323.723135 206.980223 
L 326.100751 202.336983 
L 328.557621 208.32311 
L 330.935237 204.423183 
L 333.392106 209.912296 
L 335.848976 204.854291 
L 338.226591 195.577933 
L 340.683461 198.270214 
L 343.061077 197.118119 
L 347.974816 201.444579 
L 350.193924 200.039305 
L 352.650794 199.154528 
L 355.02841 201.842411 
L 357.485279 205.521285 
L 359.862895 207.400816 
L 364.776634 202.117347 
L 367.15425 201.661682 
L 369.611119 203.525903 
L 371.988735 207.56137 
L 374.445605 206.481185 
L 376.902474 204.356572 
L 379.121583 203.422382 
L 381.578452 203.991055 
L 383.956068 203.19726 
L 386.412937 201.271778 
L 388.790553 201.775968 
L 393.704292 201.801516 
L 396.081908 194.456675 
L 398.538778 195.299264 
L 403.373263 196.102118 
L 405.830133 198.378857 
L 408.049241 198.635031 
L 410.50611 198.061923 
L 412.883726 199.280049 
L 415.340596 195.824527 
L 417.718212 199.691519 
L 420.175081 200.989322 
L 422.631951 198.51553 
L 425.009567 201.420819 
L 427.466436 186.008755 
L 429.844052 186.178172 
L 432.300922 185.457562 
L 434.757791 185.014323 
L 437.056153 184.263707 
L 439.513023 184.829821 
L 441.890638 183.679627 
L 444.347508 185.260319 
L 446.725124 183.757071 
L 449.181993 182.8486 
L 451.638863 182.506757 
L 454.016479 178.815005 
L 456.473348 178.754147 
L 458.850964 177.1162 
L 461.307834 167.783476 
L 465.983811 167.24528 
L 468.440681 168.450379 
L 470.818297 157.864055 
L 473.275166 147.593672 
L 475.652782 147.995992 
L 478.109652 144.389423 
L 480.566521 145.594116 
L 482.944137 147.016688 
L 485.401007 143.87414 
L 490.235492 141.512015 
L 492.692362 144.983074 
L 494.91147 133.841689 
L 497.368339 124.974017 
L 499.745955 122.761314 
L 502.202825 126.902931 
L 504.580441 126.755368 
L 507.03731 124.668864 
L 509.49418 126.59602 
L 511.871796 129.181731 
L 514.328665 129.419978 
L 516.706281 129.159904 
L 519.163151 124.366769 
L 521.62002 125.991091 
L 523.839128 125.818958 
L 526.295998 123.110553 
L 528.673614 124.384418 
L 531.130483 121.754897 
L 533.508099 120.588809 
L 535.964969 121.461062 
L 538.421838 129.997008 
L 540.799454 140.631873 
L 543.256324 140.468191 
L 545.633939 137.080503 
L 548.090809 136.377003 
L 550.547679 139.025483 
L 552.84604 147.238902 
L 555.30291 139.509466 
L 557.680526 144.041839 
L 560.137395 147.010875 
L 562.515011 139.097455 
L 564.971881 138.108051 
L 567.42875 158.202933 
L 569.806366 158.533126 
L 572.263236 158.374144 
L 574.640852 157.246988 
L 577.097721 162.362142 
L 579.554591 169.56003 
L 581.773699 166.086197 
L 584.230568 176.143828 
L 586.608184 188.41974 
L 589.065054 194.480907 
L 591.44267 196.569549 
L 593.899539 202.481254 
L 596.356409 203.091861 
L 598.734025 206.62933 
L 601.190894 204.878698 
L 603.56851 206.890075 
L 606.025379 207.238201 
L 608.482249 209.004032 
L 610.701357 208.129659 
L 613.158227 208.507481 
L 615.535843 208.541271 
L 617.992712 208.409127 
L 620.370328 208.649228 
L 622.827198 214.106848 
L 625.284067 210.502665 
L 627.661683 215.146703 
L 630.118552 216.499051 
L 632.496168 217.351922 
L 634.953038 222.932655 
L 637.409907 221.787997 
L 639.629016 221.491782 
L 642.085885 217.828045 
L 644.463501 218.068584 
L 646.92037 217.42882 
L 649.297986 218.89245 
L 651.754856 217.978636 
L 654.211725 215.230221 
L 656.589341 215.241936 
L 659.046211 224.81068 
L 661.423827 221.656736 
L 663.880696 227.008641 
L 666.337566 231.533172 
L 668.635928 230.280999 
L 671.092797 230.21143 
L 673.470413 227.101616 
L 675.927283 225.740401 
L 678.304898 229.930439 
L 680.761768 227.549619 
L 683.218638 232.942501 
L 685.596253 230.422306 
L 688.053123 230.673774 
L 690.430739 227.746042 
L 692.887608 232.623697 
L 695.344478 227.934438 
L 697.563586 224.262053 
L 700.020456 228.823106 
L 702.398071 228.367332 
L 704.854941 235.493004 
L 707.232557 229.901983 
L 709.689426 230.337724 
L 712.146296 227.439665 
L 714.523912 227.40183 
L 716.980781 229.001764 
L 719.358397 237.184815 
L 721.815267 238.70175 
L 724.272136 227.799035 
L 726.491244 226.836005 
L 728.948114 228.243399 
L 731.32573 212.442645 
L 733.782599 207.037328 
L 736.160215 210.470287 
L 738.617085 209.295222 
L 741.073954 209.454178 
L 743.45157 207.28227 
L 745.90844 209.878929 
L 748.286056 207.967926 
L 750.742925 207.456271 
L 753.199795 204.028765 
L 755.418903 208.825554 
L 757.875772 214.709797 
L 760.253388 217.315124 
L 762.710258 212.408448 
L 765.087874 213.715649 
L 767.544743 208.279846 
L 770.001613 201.769903 
L 772.379229 203.473053 
L 774.836098 200.471376 
L 777.213714 210.032081 
L 779.670584 206.154886 
L 784.425815 203.220229 
L 786.882685 214.07783 
L 789.2603 215.313032 
L 791.71717 215.537641 
L 794.094786 216.609038 
L 796.551655 220.149038 
L 799.008525 218.911972 
L 801.386141 212.852694 
L 803.84301 203.893244 
L 806.220626 192.167976 
L 808.677496 176.106243 
L 811.134365 178.514964 
L 813.353473 178.884483 
L 815.810343 176.193871 
L 818.187959 176.818401 
L 820.644828 175.371878 
L 823.022444 175.16846 
L 825.479314 168.609039 
L 827.936183 165.081433 
L 830.313799 165.417115 
L 832.770669 166.014265 
L 835.148285 166.423269 
L 837.605154 168.829844 
L 840.062024 169.627741 
L 842.281132 170.849056 
L 844.738001 170.817463 
L 847.115617 169.959191 
L 849.572487 171.790401 
L 851.950103 172.215396 
L 854.406972 170.871105 
L 856.863842 169.908802 
L 859.241458 170.540084 
L 861.698327 167.662415 
L 864.075943 167.678619 
L 866.532813 165.193893 
L 866.532813 165.193893 
" clip-path="url(#p5802afc373)" style="fill: none; stroke: #d55e00; stroke-width: 2; stroke-linecap: square"/>
   </g>
   <g id="patch_3">
    <path d="M 29.532813 238.70175 
L 29.532813 16.94175 
" style="fill: none; stroke: #000000; stroke-width: 0.8; stroke-linejoin: miter; stroke-linecap: square"/>
   </g>
   <g id="patch_4">
    <path d="M 29.532812 238.70175 
L 866.532813 238.70175 
" style="fill: none; stroke: #000000; stroke-width: 0.8; stroke-linejoin: miter; stroke-linecap: square"/>
   </g>
   <g id="text_16">
    <!-- 5_Industry_Portfolios - Portfolio Allocation for LW -->
    <g transform="translate(273.750063 10.94175) scale(0.144 -0.144)">
     <defs>
      <path id="DejaVuSans-35" d="M 691 4666 
L 3169 4666 
L 3169 4134 
L 1269 4134 
L 1269 2991 
Q 1406 3038 1543 3061 
Q 1681 3084 1819 3084 
Q 2600 3084 3056 2656 
Q 3513 2228 3513 1497 
Q 3513 744 3044 326 
Q 2575 -91 1722 -91 
Q 1428 -91 1123 -41 
Q 819 9 494 109 
L 494 744 
Q 775 591 1075 516 
Q 1375 441 1709 441 
Q 2250 441 2565 725 
Q 2881 1009 2881 1497 
Q 2881 1984 2565 2268 
Q 2250 2553 1709 2553 
Q 1456 2553 1204 2497 
Q 953 2441 691 2322 
L 691 4666 
z
" transform="scale(0.015625)"/>
      <path id="DejaVuSans-5f" d="M 3263 -1063 
L 3263 -1509 
L -63 -1509 
L -63 -1063 
L 3263 -1063 
z
" transform="scale(0.015625)"/>
      <path id="DejaVuSans-49" d="M 628 4666 
L 1259 4666 
L 1259 0 
L 628 0 
L 628 4666 
z
" transform="scale(0.015625)"/>
      <path id="DejaVuSans-6e" d="M 3513 2113 
L 3513 0 
L 2938 0 
L 2938 2094 
Q 2938 2591 2744 2837 
Q 2550 3084 2163 3084 
Q 1697 3084 1428 2787 
Q 1159 2491 1159 1978 
L 1159 0 
L 581 0 
L 581 3500 
L 1159 3500 
L 1159 2956 
Q 1366 3272 1645 3428 
Q 1925 3584 2291 3584 
Q 2894 3584 3203 3211 
Q 3513 2838 3513 2113 
z
" transform="scale(0.015625)"/>
      <path id="DejaVuSans-64" d="M 2906 2969 
L 2906 4863 
L 3481 4863 
L 3481 0 
L 2906 0 
L 2906 525 
Q 2725 213 2448 61 
Q 2172 -91 1784 -91 
Q 1150 -91 751 415 
Q 353 922 353 1747 
Q 353 2572 751 3078 
Q 1150 3584 1784 3584 
Q 2172 3584 2448 3432 
Q 2725 3281 2906 2969 
z
M 947 1747 
Q 947 1113 1208 752 
Q 1469 391 1925 391 
Q 2381 391 2643 752 
Q 2906 1113 2906 1747 
Q 2906 2381 2643 2742 
Q 2381 3103 1925 3103 
Q 1469 3103 1208 2742 
Q 947 2381 947 1747 
z
" transform="scale(0.015625)"/>
      <path id="DejaVuSans-75" d="M 544 1381 
L 544 3500 
L 1119 3500 
L 1119 1403 
Q 1119 906 1312 657 
Q 1506 409 1894 409 
Q 2359 409 2629 706 
Q 2900 1003 2900 1516 
L 2900 3500 
L 3475 3500 
L 3475 0 
L 2900 0 
L 2900 538 
Q 2691 219 2414 64 
Q 2138 -91 1772 -91 
Q 1169 -91 856 284 
Q 544 659 544 1381 
z
M 1991 3584 
L 1991 3584 
z
" transform="scale(0.015625)"/>
      <path id="DejaVuSans-73" d="M 2834 3397 
L 2834 2853 
Q 2591 2978 2328 3040 
Q 2066 3103 1784 3103 
Q 1356 3103 1142 2972 
Q 928 2841 928 2578 
Q 928 2378 1081 2264 
Q 1234 2150 1697 2047 
L 1894 2003 
Q 2506 1872 2764 1633 
Q 3022 1394 3022 966 
Q 3022 478 2636 193 
Q 2250 -91 1575 -91 
Q 1294 -91 989 -36 
Q 684 19 347 128 
L 347 722 
Q 666 556 975 473 
Q 1284 391 1588 391 
Q 1994 391 2212 530 
Q 2431 669 2431 922 
Q 2431 1156 2273 1281 
Q 2116 1406 1581 1522 
L 1381 1569 
Q 847 1681 609 1914 
Q 372 2147 372 2553 
Q 372 3047 722 3315 
Q 1072 3584 1716 3584 
Q 2034 3584 2315 3537 
Q 2597 3491 2834 3397 
z
" transform="scale(0.015625)"/>
      <path id="DejaVuSans-74" d="M 1172 4494 
L 1172 3500 
L 2356 3500 
L 2356 3053 
L 1172 3053 
L 1172 1153 
Q 1172 725 1289 603 
Q 1406 481 1766 481 
L 2356 481 
L 2356 0 
L 1766 0 
Q 1100 0 847 248 
Q 594 497 594 1153 
L 594 3053 
L 172 3053 
L 172 3500 
L 594 3500 
L 594 4494 
L 1172 4494 
z
" transform="scale(0.015625)"/>
      <path id="DejaVuSans-72" d="M 2631 2963 
Q 2534 3019 2420 3045 
Q 2306 3072 2169 3072 
Q 1681 3072 1420 2755 
Q 1159 2438 1159 1844 
L 1159 0 
L 581 0 
L 581 3500 
L 1159 3500 
L 1159 2956 
Q 1341 3275 1631 3429 
Q 1922 3584 2338 3584 
Q 2397 3584 2469 3576 
Q 2541 3569 2628 3553 
L 2631 2963 
z
" transform="scale(0.015625)"/>
      <path id="DejaVuSans-79" d="M 2059 -325 
Q 1816 -950 1584 -1140 
Q 1353 -1331 966 -1331 
L 506 -1331 
L 506 -850 
L 844 -850 
Q 1081 -850 1212 -737 
Q 1344 -625 1503 -206 
L 1606 56 
L 191 3500 
L 800 3500 
L 1894 763 
L 2988 3500 
L 3597 3500 
L 2059 -325 
z
" transform="scale(0.015625)"/>
      <path id="DejaVuSans-50" d="M 1259 4147 
L 1259 2394 
L 2053 2394 
Q 2494 2394 2734 2622 
Q 2975 2850 2975 3272 
Q 2975 3691 2734 3919 
Q 2494 4147 2053 4147 
L 1259 4147 
z
M 628 4666 
L 2053 4666 
Q 2838 4666 3239 4311 
Q 3641 3956 3641 3272 
Q 3641 2581 3239 2228 
Q 2838 1875 2053 1875 
L 1259 1875 
L 1259 0 
L 628 0 
L 628 4666 
z
" transform="scale(0.015625)"/>
      <path id="DejaVuSans-6f" d="M 1959 3097 
Q 1497 3097 1228 2736 
Q 959 2375 959 1747 
Q 959 1119 1226 758 
Q 1494 397 1959 397 
Q 2419 397 2687 759 
Q 2956 1122 2956 1747 
Q 2956 2369 2687 2733 
Q 2419 3097 1959 3097 
z
M 1959 3584 
Q 2709 3584 3137 3096 
Q 3566 2609 3566 1747 
Q 3566 888 3137 398 
Q 2709 -91 1959 -91 
Q 1206 -91 779 398 
Q 353 888 353 1747 
Q 353 2609 779 3096 
Q 1206 3584 1959 3584 
z
" transform="scale(0.015625)"/>
      <path id="DejaVuSans-66" d="M 2375 4863 
L 2375 4384 
L 1825 4384 
Q 1516 4384 1395 4259 
Q 1275 4134 1275 3809 
L 1275 3500 
L 2222 3500 
L 2222 3053 
L 1275 3053 
L 1275 0 
L 697 0 
L 697 3053 
L 147 3053 
L 147 3500 
L 697 3500 
L 697 3744 
Q 697 4328 969 4595 
Q 1241 4863 1831 4863 
L 2375 4863 
z
" transform="scale(0.015625)"/>
      <path id="DejaVuSans-6c" d="M 603 4863 
L 1178 4863 
L 1178 0 
L 603 0 
L 603 4863 
z
" transform="scale(0.015625)"/>
      <path id="DejaVuSans-69" d="M 603 3500 
L 1178 3500 
L 1178 0 
L 603 0 
L 603 3500 
z
M 603 4863 
L 1178 4863 
L 1178 4134 
L 603 4134 
L 603 4863 
z
" transform="scale(0.015625)"/>
      <path id="DejaVuSans-20" transform="scale(0.015625)"/>
      <path id="DejaVuSans-2d" d="M 313 2009 
L 1997 2009 
L 1997 1497 
L 313 1497 
L 313 2009 
z
" transform="scale(0.015625)"/>
      <path id="DejaVuSans-41" d="M 2188 4044 
L 1331 1722 
L 3047 1722 
L 2188 4044 
z
M 1831 4666 
L 2547 4666 
L 4325 0 
L 3669 0 
L 3244 1197 
L 1141 1197 
L 716 0 
L 50 0 
L 1831 4666 
z
" transform="scale(0.015625)"/>
      <path id="DejaVuSans-63" d="M 3122 3366 
L 3122 2828 
Q 2878 2963 2633 3030 
Q 2388 3097 2138 3097 
Q 1578 3097 1268 2742 
Q 959 2388 959 1747 
Q 959 1106 1268 751 
Q 1578 397 2138 397 
Q 2388 397 2633 464 
Q 2878 531 3122 666 
L 3122 134 
Q 2881 22 2623 -34 
Q 2366 -91 2075 -91 
Q 1284 -91 818 406 
Q 353 903 353 1747 
Q 353 2603 823 3093 
Q 1294 3584 2113 3584 
Q 2378 3584 2631 3529 
Q 2884 3475 3122 3366 
z
" transform="scale(0.015625)"/>
      <path id="DejaVuSans-61" d="M 2194 1759 
Q 1497 1759 1228 1600 
Q 959 1441 959 1056 
Q 959 750 1161 570 
Q 1363 391 1709 391 
Q 2188 391 2477 730 
Q 2766 1069 2766 1631 
L 2766 1759 
L 2194 1759 
z
M 3341 1997 
L 3341 0 
L 2766 0 
L 2766 531 
Q 2569 213 2275 61 
Q 1981 -91 1556 -91 
Q 1019 -91 701 211 
Q 384 513 384 1019 
Q 384 1609 779 1909 
Q 1175 2209 1959 2209 
L 2766 2209 
L 2766 2266 
Q 2766 2663 2505 2880 
Q 2244 3097 1772 3097 
Q 1472 3097 1187 3025 
Q 903 2953 641 2809 
L 641 3341 
Q 956 3463 1253 3523 
Q 1550 3584 1831 3584 
Q 2591 3584 2966 3190 
Q 3341 2797 3341 1997 
z
" transform="scale(0.015625)"/>
      <path id="DejaVuSans-4c" d="M 628 4666 
L 1259 4666 
L 1259 531 
L 3531 531 
L 3531 0 
L 628 0 
L 628 4666 
z
" transform="scale(0.015625)"/>
      <path id="DejaVuSans-57" d="M 213 4666 
L 850 4666 
L 1831 722 
L 2809 4666 
L 3519 4666 
L 4500 722 
L 5478 4666 
L 6119 4666 
L 4947 0 
L 4153 0 
L 3169 4050 
L 2175 0 
L 1381 0 
L 213 4666 
z
" transform="scale(0.015625)"/>
     </defs>
     <use xlink:href="#DejaVuSans-35"/>
     <use xlink:href="#DejaVuSans-5f" x="63.623047"/>
     <use xlink:href="#DejaVuSans-49" x="113.623047"/>
     <use xlink:href="#DejaVuSans-6e" x="143.115234"/>
     <use xlink:href="#DejaVuSans-64" x="206.494141"/>
     <use xlink:href="#DejaVuSans-75" x="269.970703"/>
     <use xlink:href="#DejaVuSans-73" x="333.349609"/>
     <use xlink:href="#DejaVuSans-74" x="385.449219"/>
     <use xlink:href="#DejaVuSans-72" x="424.658203"/>
     <use xlink:href="#DejaVuSans-79" x="465.771484"/>
     <use xlink:href="#DejaVuSans-5f" x="524.951172"/>
     <use xlink:href="#DejaVuSans-50" x="574.951172"/>
     <use xlink:href="#DejaVuSans-6f" x="631.628906"/>
     <use xlink:href="#DejaVuSans-72" x="692.810547"/>
     <use xlink:href="#DejaVuSans-74" x="733.923828"/>
     <use xlink:href="#DejaVuSans-66" x="773.132812"/>
     <use xlink:href="#DejaVuSans-6f" x="808.337891"/>
     <use xlink:href="#DejaVuSans-6c" x="869.519531"/>
     <use xlink:href="#DejaVuSans-69" x="897.302734"/>
     <use xlink:href="#DejaVuSans-6f" x="925.085938"/>
     <use xlink:href="#DejaVuSans-73" x="986.267578"/>
     <use xlink:href="#DejaVuSans-20" x="1038.367188"/>
     <use xlink:href="#DejaVuSans-2d" x="1070.154297"/>
     <use xlink:href="#DejaVuSans-20" x="1106.238281"/>
     <use xlink:href="#DejaVuSans-50" x="1138.025391"/>
     <use xlink:href="#DejaVuSans-6f" x="1194.703125"/>
     <use xlink:href="#DejaVuSans-72" x="1255.884766"/>
     <use xlink:href="#DejaVuSans-74" x="1296.998047"/>
     <use xlink:href="#DejaVuSans-66" x="1336.207031"/>
     <use xlink:href="#DejaVuSans-6f" x="1371.412109"/>
     <use xlink:href="#DejaVuSans-6c" x="1432.59375"/>
     <use xlink:href="#DejaVuSans-69" x="1460.376953"/>
     <use xlink:href="#DejaVuSans-6f" x="1488.160156"/>
     <use xlink:href="#DejaVuSans-20" x="1549.341797"/>
     <use xlink:href="#DejaVuSans-41" x="1581.128906"/>
     <use xlink:href="#DejaVuSans-6c" x="1649.537109"/>
     <use xlink:href="#DejaVuSans-6c" x="1677.320312"/>
     <use xlink:href="#DejaVuSans-6f" x="1705.103516"/>
     <use xlink:href="#DejaVuSans-63" x="1766.285156"/>
     <use xlink:href="#DejaVuSans-61" x="1821.265625"/>
     <use xlink:href="#DejaVuSans-74" x="1882.544922"/>
     <use xlink:href="#DejaVuSans-69" x="1921.753906"/>
     <use xlink:href="#DejaVuSans-6f" x="1949.537109"/>
     <use xlink:href="#DejaVuSans-6e" x="2010.71875"/>
     <use xlink:href="#DejaVuSans-20" x="2074.097656"/>
     <use xlink:href="#DejaVuSans-66" x="2105.884766"/>
     <use xlink:href="#DejaVuSans-6f" x="2141.089844"/>
     <use xlink:href="#DejaVuSans-72" x="2202.271484"/>
     <use xlink:href="#DejaVuSans-20" x="2243.384766"/>
     <use xlink:href="#DejaVuSans-4c" x="2275.171875"/>
     <use xlink:href="#DejaVuSans-57" x="2321.759766"/>
    </g>
   </g>
  </g>
 </g>
 <defs>
  <clipPath id="p5802afc373">
   <rect x="29.532813" y="16.94175" width="837" height="221.76"/>
  </clipPath>
 </defs>
</svg>
