<?xml version="1.0" encoding="utf-8" standalone="no"?>
<!DOCTYPE svg PUBLIC "-//W3C//DTD SVG 1.1//EN"
  "http://www.w3.org/Graphics/SVG/1.1/DTD/svg11.dtd">
<svg xmlns:xlink="http://www.w3.org/1999/xlink" width="864.515625pt" height="253.629875pt" viewBox="0 0 864.515625 253.629875" xmlns="http://www.w3.org/2000/svg" version="1.1">
 <metadata>
  <rdf:RDF xmlns:dc="http://purl.org/dc/elements/1.1/" xmlns:cc="http://creativecommons.org/ns#" xmlns:rdf="http://www.w3.org/1999/02/22-rdf-syntax-ns#">
   <cc:Work>
    <dc:type rdf:resource="http://purl.org/dc/dcmitype/StillImage"/>
    <dc:date>2025-08-06T21:52:44.736382</dc:date>
    <dc:format>image/svg+xml</dc:format>
    <dc:creator>
     <cc:Agent>
      <dc:title>Matplotlib v3.9.2, https://matplotlib.org/</dc:title>
     </cc:Agent>
    </dc:creator>
   </cc:Work>
  </rdf:RDF>
 </metadata>
 <defs>
  <style type="text/css">*{stroke-linejoin: round; stroke-linecap: butt}</style>
 </defs>
 <g id="figure_1">
  <g id="patch_1">
   <path d="M 0 253.629875 
L 864.515625 253.629875 
L 864.515625 0 
L 0 0 
z
" style="fill: #ffffff"/>
  </g>
  <g id="axes_1">
   <g id="patch_2">
    <path d="M 27.515625 238.70175 
L 864.515625 238.70175 
L 864.515625 16.94175 
L 27.515625 16.94175 
z
" style="fill: #ffffff"/>
   </g>
   <g id="matplotlib.axis_1">
    <g id="xtick_1">
     <g id="line2d_1">
      <defs>
       <path id="mb135514ed5" d="M 0 1.75 
L 0 -1.75 
" style="stroke: #000000; stroke-width: 0.8"/>
      </defs>
      <g>
       <use xlink:href="#mb135514ed5" x="82.993326" y="238.70175" style="stroke: #000000; stroke-width: 0.8"/>
      </g>
     </g>
     <g id="text_1">
      <!-- 1992 -->
      <g transform="translate(70.268326 251.550188) scale(0.1 -0.1)">
       <defs>
        <path id="DejaVuSans-31" d="M 794 531 
L 1825 531 
L 1825 4091 
L 703 3866 
L 703 4441 
L 1819 4666 
L 2450 4666 
L 2450 531 
L 3481 531 
L 3481 0 
L 794 0 
L 794 531 
z
" transform="scale(0.015625)"/>
        <path id="DejaVuSans-39" d="M 703 97 
L 703 672 
Q 941 559 1184 500 
Q 1428 441 1663 441 
Q 2288 441 2617 861 
Q 2947 1281 2994 2138 
Q 2813 1869 2534 1725 
Q 2256 1581 1919 1581 
Q 1219 1581 811 2004 
Q 403 2428 403 3163 
Q 403 3881 828 4315 
Q 1253 4750 1959 4750 
Q 2769 4750 3195 4129 
Q 3622 3509 3622 2328 
Q 3622 1225 3098 567 
Q 2575 -91 1691 -91 
Q 1453 -91 1209 -44 
Q 966 3 703 97 
z
M 1959 2075 
Q 2384 2075 2632 2365 
Q 2881 2656 2881 3163 
Q 2881 3666 2632 3958 
Q 2384 4250 1959 4250 
Q 1534 4250 1286 3958 
Q 1038 3666 1038 3163 
Q 1038 2656 1286 2365 
Q 1534 2075 1959 2075 
z
" transform="scale(0.015625)"/>
        <path id="DejaVuSans-32" d="M 1228 531 
L 3431 531 
L 3431 0 
L 469 0 
L 469 531 
Q 828 903 1448 1529 
Q 2069 2156 2228 2338 
Q 2531 2678 2651 2914 
Q 2772 3150 2772 3378 
Q 2772 3750 2511 3984 
Q 2250 4219 1831 4219 
Q 1534 4219 1204 4116 
Q 875 4013 500 3803 
L 500 4441 
Q 881 4594 1212 4672 
Q 1544 4750 1819 4750 
Q 2544 4750 2975 4387 
Q 3406 4025 3406 3419 
Q 3406 3131 3298 2873 
Q 3191 2616 2906 2266 
Q 2828 2175 2409 1742 
Q 1991 1309 1228 531 
z
" transform="scale(0.015625)"/>
       </defs>
       <use xlink:href="#DejaVuSans-31"/>
       <use xlink:href="#DejaVuSans-39" x="63.623047"/>
       <use xlink:href="#DejaVuSans-39" x="127.246094"/>
       <use xlink:href="#DejaVuSans-32" x="190.869141"/>
      </g>
     </g>
    </g>
    <g id="xtick_2">
     <g id="line2d_2">
      <g>
       <use xlink:href="#mb135514ed5" x="198.783213" y="238.70175" style="stroke: #000000; stroke-width: 0.8"/>
      </g>
     </g>
     <g id="text_2">
      <!-- 1996 -->
      <g transform="translate(186.058213 251.550188) scale(0.1 -0.1)">
       <defs>
        <path id="DejaVuSans-36" d="M 2113 2584 
Q 1688 2584 1439 2293 
Q 1191 2003 1191 1497 
Q 1191 994 1439 701 
Q 1688 409 2113 409 
Q 2538 409 2786 701 
Q 3034 994 3034 1497 
Q 3034 2003 2786 2293 
Q 2538 2584 2113 2584 
z
M 3366 4563 
L 3366 3988 
Q 3128 4100 2886 4159 
Q 2644 4219 2406 4219 
Q 1781 4219 1451 3797 
Q 1122 3375 1075 2522 
Q 1259 2794 1537 2939 
Q 1816 3084 2150 3084 
Q 2853 3084 3261 2657 
Q 3669 2231 3669 1497 
Q 3669 778 3244 343 
Q 2819 -91 2113 -91 
Q 1303 -91 875 529 
Q 447 1150 447 2328 
Q 447 3434 972 4092 
Q 1497 4750 2381 4750 
Q 2619 4750 2861 4703 
Q 3103 4656 3366 4563 
z
" transform="scale(0.015625)"/>
       </defs>
       <use xlink:href="#DejaVuSans-31"/>
       <use xlink:href="#DejaVuSans-39" x="63.623047"/>
       <use xlink:href="#DejaVuSans-39" x="127.246094"/>
       <use xlink:href="#DejaVuSans-36" x="190.869141"/>
      </g>
     </g>
    </g>
    <g id="xtick_3">
     <g id="line2d_3">
      <g>
       <use xlink:href="#mb135514ed5" x="314.573101" y="238.70175" style="stroke: #000000; stroke-width: 0.8"/>
      </g>
     </g>
     <g id="text_3">
      <!-- 2000 -->
      <g transform="translate(301.848101 251.550188) scale(0.1 -0.1)">
       <defs>
        <path id="DejaVuSans-30" d="M 2034 4250 
Q 1547 4250 1301 3770 
Q 1056 3291 1056 2328 
Q 1056 1369 1301 889 
Q 1547 409 2034 409 
Q 2525 409 2770 889 
Q 3016 1369 3016 2328 
Q 3016 3291 2770 3770 
Q 2525 4250 2034 4250 
z
M 2034 4750 
Q 2819 4750 3233 4129 
Q 3647 3509 3647 2328 
Q 3647 1150 3233 529 
Q 2819 -91 2034 -91 
Q 1250 -91 836 529 
Q 422 1150 422 2328 
Q 422 3509 836 4129 
Q 1250 4750 2034 4750 
z
" transform="scale(0.015625)"/>
       </defs>
       <use xlink:href="#DejaVuSans-32"/>
       <use xlink:href="#DejaVuSans-30" x="63.623047"/>
       <use xlink:href="#DejaVuSans-30" x="127.246094"/>
       <use xlink:href="#DejaVuSans-30" x="190.869141"/>
      </g>
     </g>
    </g>
    <g id="xtick_4">
     <g id="line2d_4">
      <g>
       <use xlink:href="#mb135514ed5" x="430.362988" y="238.70175" style="stroke: #000000; stroke-width: 0.8"/>
      </g>
     </g>
     <g id="text_4">
      <!-- 2004 -->
      <g transform="translate(417.637988 251.550188) scale(0.1 -0.1)">
       <defs>
        <path id="DejaVuSans-34" d="M 2419 4116 
L 825 1625 
L 2419 1625 
L 2419 4116 
z
M 2253 4666 
L 3047 4666 
L 3047 1625 
L 3713 1625 
L 3713 1100 
L 3047 1100 
L 3047 0 
L 2419 0 
L 2419 1100 
L 313 1100 
L 313 1709 
L 2253 4666 
z
" transform="scale(0.015625)"/>
       </defs>
       <use xlink:href="#DejaVuSans-32"/>
       <use xlink:href="#DejaVuSans-30" x="63.623047"/>
       <use xlink:href="#DejaVuSans-30" x="127.246094"/>
       <use xlink:href="#DejaVuSans-34" x="190.869141"/>
      </g>
     </g>
    </g>
    <g id="xtick_5">
     <g id="line2d_5">
      <g>
       <use xlink:href="#mb135514ed5" x="546.152875" y="238.70175" style="stroke: #000000; stroke-width: 0.8"/>
      </g>
     </g>
     <g id="text_5">
      <!-- 2008 -->
      <g transform="translate(533.427875 251.550188) scale(0.1 -0.1)">
       <defs>
        <path id="DejaVuSans-38" d="M 2034 2216 
Q 1584 2216 1326 1975 
Q 1069 1734 1069 1313 
Q 1069 891 1326 650 
Q 1584 409 2034 409 
Q 2484 409 2743 651 
Q 3003 894 3003 1313 
Q 3003 1734 2745 1975 
Q 2488 2216 2034 2216 
z
M 1403 2484 
Q 997 2584 770 2862 
Q 544 3141 544 3541 
Q 544 4100 942 4425 
Q 1341 4750 2034 4750 
Q 2731 4750 3128 4425 
Q 3525 4100 3525 3541 
Q 3525 3141 3298 2862 
Q 3072 2584 2669 2484 
Q 3125 2378 3379 2068 
Q 3634 1759 3634 1313 
Q 3634 634 3220 271 
Q 2806 -91 2034 -91 
Q 1263 -91 848 271 
Q 434 634 434 1313 
Q 434 1759 690 2068 
Q 947 2378 1403 2484 
z
M 1172 3481 
Q 1172 3119 1398 2916 
Q 1625 2713 2034 2713 
Q 2441 2713 2670 2916 
Q 2900 3119 2900 3481 
Q 2900 3844 2670 4047 
Q 2441 4250 2034 4250 
Q 1625 4250 1398 4047 
Q 1172 3844 1172 3481 
z
" transform="scale(0.015625)"/>
       </defs>
       <use xlink:href="#DejaVuSans-32"/>
       <use xlink:href="#DejaVuSans-30" x="63.623047"/>
       <use xlink:href="#DejaVuSans-30" x="127.246094"/>
       <use xlink:href="#DejaVuSans-38" x="190.869141"/>
      </g>
     </g>
    </g>
    <g id="xtick_6">
     <g id="line2d_6">
      <g>
       <use xlink:href="#mb135514ed5" x="661.942763" y="238.70175" style="stroke: #000000; stroke-width: 0.8"/>
      </g>
     </g>
     <g id="text_6">
      <!-- 2012 -->
      <g transform="translate(649.217763 251.550188) scale(0.1 -0.1)">
       <use xlink:href="#DejaVuSans-32"/>
       <use xlink:href="#DejaVuSans-30" x="63.623047"/>
       <use xlink:href="#DejaVuSans-31" x="127.246094"/>
       <use xlink:href="#DejaVuSans-32" x="190.869141"/>
      </g>
     </g>
    </g>
    <g id="xtick_7">
     <g id="line2d_7">
      <g>
       <use xlink:href="#mb135514ed5" x="777.73265" y="238.70175" style="stroke: #000000; stroke-width: 0.8"/>
      </g>
     </g>
     <g id="text_7">
      <!-- 2016 -->
      <g transform="translate(765.00765 251.550188) scale(0.1 -0.1)">
       <use xlink:href="#DejaVuSans-32"/>
       <use xlink:href="#DejaVuSans-30" x="63.623047"/>
       <use xlink:href="#DejaVuSans-31" x="127.246094"/>
       <use xlink:href="#DejaVuSans-36" x="190.869141"/>
      </g>
     </g>
    </g>
   </g>
   <g id="matplotlib.axis_2">
    <g id="ytick_1">
     <g id="line2d_8">
      <path d="M 27.515625 225.529754 
L 864.515625 225.529754 
" clip-path="url(#p97c2be142e)" style="fill: none; stroke-dasharray: 1.85,0.8; stroke-dashoffset: 0; stroke: #b2b2b2; stroke-width: 0.5"/>
     </g>
     <g id="line2d_9">
      <defs>
       <path id="mb887b464ce" d="M 1.75 0 
L -1.75 -0 
" style="stroke: #000000; stroke-width: 0.8"/>
      </defs>
      <g>
       <use xlink:href="#mb887b464ce" x="27.515625" y="225.529754" style="stroke: #000000; stroke-width: 0.8"/>
      </g>
     </g>
     <g id="text_8">
      <!-- 0.05 -->
      <g transform="translate(0 229.328972) scale(0.1 -0.1)">
       <defs>
        <path id="DejaVuSans-2e" d="M 684 794 
L 1344 794 
L 1344 0 
L 684 0 
L 684 794 
z
" transform="scale(0.015625)"/>
        <path id="DejaVuSans-35" d="M 691 4666 
L 3169 4666 
L 3169 4134 
L 1269 4134 
L 1269 2991 
Q 1406 3038 1543 3061 
Q 1681 3084 1819 3084 
Q 2600 3084 3056 2656 
Q 3513 2228 3513 1497 
Q 3513 744 3044 326 
Q 2575 -91 1722 -91 
Q 1428 -91 1123 -41 
Q 819 9 494 109 
L 494 744 
Q 775 591 1075 516 
Q 1375 441 1709 441 
Q 2250 441 2565 725 
Q 2881 1009 2881 1497 
Q 2881 1984 2565 2268 
Q 2250 2553 1709 2553 
Q 1456 2553 1204 2497 
Q 953 2441 691 2322 
L 691 4666 
z
" transform="scale(0.015625)"/>
       </defs>
       <use xlink:href="#DejaVuSans-30"/>
       <use xlink:href="#DejaVuSans-2e" x="63.623047"/>
       <use xlink:href="#DejaVuSans-30" x="95.410156"/>
       <use xlink:href="#DejaVuSans-35" x="159.033203"/>
      </g>
     </g>
    </g>
    <g id="ytick_2">
     <g id="line2d_10">
      <path d="M 27.515625 194.58186 
L 864.515625 194.58186 
" clip-path="url(#p97c2be142e)" style="fill: none; stroke-dasharray: 1.85,0.8; stroke-dashoffset: 0; stroke: #b2b2b2; stroke-width: 0.5"/>
     </g>
     <g id="line2d_11">
      <g>
       <use xlink:href="#mb887b464ce" x="27.515625" y="194.58186" style="stroke: #000000; stroke-width: 0.8"/>
      </g>
     </g>
     <g id="text_9">
      <!-- 0.10 -->
      <g transform="translate(0 198.381079) scale(0.1 -0.1)">
       <use xlink:href="#DejaVuSans-30"/>
       <use xlink:href="#DejaVuSans-2e" x="63.623047"/>
       <use xlink:href="#DejaVuSans-31" x="95.410156"/>
       <use xlink:href="#DejaVuSans-30" x="159.033203"/>
      </g>
     </g>
    </g>
    <g id="ytick_3">
     <g id="line2d_12">
      <path d="M 27.515625 163.633967 
L 864.515625 163.633967 
" clip-path="url(#p97c2be142e)" style="fill: none; stroke-dasharray: 1.85,0.8; stroke-dashoffset: 0; stroke: #b2b2b2; stroke-width: 0.5"/>
     </g>
     <g id="line2d_13">
      <g>
       <use xlink:href="#mb887b464ce" x="27.515625" y="163.633967" style="stroke: #000000; stroke-width: 0.8"/>
      </g>
     </g>
     <g id="text_10">
      <!-- 0.15 -->
      <g transform="translate(0 167.433186) scale(0.1 -0.1)">
       <use xlink:href="#DejaVuSans-30"/>
       <use xlink:href="#DejaVuSans-2e" x="63.623047"/>
       <use xlink:href="#DejaVuSans-31" x="95.410156"/>
       <use xlink:href="#DejaVuSans-35" x="159.033203"/>
      </g>
     </g>
    </g>
    <g id="ytick_4">
     <g id="line2d_14">
      <path d="M 27.515625 132.686074 
L 864.515625 132.686074 
" clip-path="url(#p97c2be142e)" style="fill: none; stroke-dasharray: 1.85,0.8; stroke-dashoffset: 0; stroke: #b2b2b2; stroke-width: 0.5"/>
     </g>
     <g id="line2d_15">
      <g>
       <use xlink:href="#mb887b464ce" x="27.515625" y="132.686074" style="stroke: #000000; stroke-width: 0.8"/>
      </g>
     </g>
     <g id="text_11">
      <!-- 0.20 -->
      <g transform="translate(0 136.485292) scale(0.1 -0.1)">
       <use xlink:href="#DejaVuSans-30"/>
       <use xlink:href="#DejaVuSans-2e" x="63.623047"/>
       <use xlink:href="#DejaVuSans-32" x="95.410156"/>
       <use xlink:href="#DejaVuSans-30" x="159.033203"/>
      </g>
     </g>
    </g>
    <g id="ytick_5">
     <g id="line2d_16">
      <path d="M 27.515625 101.73818 
L 864.515625 101.73818 
" clip-path="url(#p97c2be142e)" style="fill: none; stroke-dasharray: 1.85,0.8; stroke-dashoffset: 0; stroke: #b2b2b2; stroke-width: 0.5"/>
     </g>
     <g id="line2d_17">
      <g>
       <use xlink:href="#mb887b464ce" x="27.515625" y="101.73818" style="stroke: #000000; stroke-width: 0.8"/>
      </g>
     </g>
     <g id="text_12">
      <!-- 0.25 -->
      <g transform="translate(0 105.537399) scale(0.1 -0.1)">
       <use xlink:href="#DejaVuSans-30"/>
       <use xlink:href="#DejaVuSans-2e" x="63.623047"/>
       <use xlink:href="#DejaVuSans-32" x="95.410156"/>
       <use xlink:href="#DejaVuSans-35" x="159.033203"/>
      </g>
     </g>
    </g>
    <g id="ytick_6">
     <g id="line2d_18">
      <path d="M 27.515625 70.790287 
L 864.515625 70.790287 
" clip-path="url(#p97c2be142e)" style="fill: none; stroke-dasharray: 1.85,0.8; stroke-dashoffset: 0; stroke: #b2b2b2; stroke-width: 0.5"/>
     </g>
     <g id="line2d_19">
      <g>
       <use xlink:href="#mb887b464ce" x="27.515625" y="70.790287" style="stroke: #000000; stroke-width: 0.8"/>
      </g>
     </g>
     <g id="text_13">
      <!-- 0.30 -->
      <g transform="translate(0 74.589506) scale(0.1 -0.1)">
       <defs>
        <path id="DejaVuSans-33" d="M 2597 2516 
Q 3050 2419 3304 2112 
Q 3559 1806 3559 1356 
Q 3559 666 3084 287 
Q 2609 -91 1734 -91 
Q 1441 -91 1130 -33 
Q 819 25 488 141 
L 488 750 
Q 750 597 1062 519 
Q 1375 441 1716 441 
Q 2309 441 2620 675 
Q 2931 909 2931 1356 
Q 2931 1769 2642 2001 
Q 2353 2234 1838 2234 
L 1294 2234 
L 1294 2753 
L 1863 2753 
Q 2328 2753 2575 2939 
Q 2822 3125 2822 3475 
Q 2822 3834 2567 4026 
Q 2313 4219 1838 4219 
Q 1578 4219 1281 4162 
Q 984 4106 628 3988 
L 628 4550 
Q 988 4650 1302 4700 
Q 1616 4750 1894 4750 
Q 2613 4750 3031 4423 
Q 3450 4097 3450 3541 
Q 3450 3153 3228 2886 
Q 3006 2619 2597 2516 
z
" transform="scale(0.015625)"/>
       </defs>
       <use xlink:href="#DejaVuSans-30"/>
       <use xlink:href="#DejaVuSans-2e" x="63.623047"/>
       <use xlink:href="#DejaVuSans-33" x="95.410156"/>
       <use xlink:href="#DejaVuSans-30" x="159.033203"/>
      </g>
     </g>
    </g>
    <g id="ytick_7">
     <g id="line2d_20">
      <path d="M 27.515625 39.842394 
L 864.515625 39.842394 
" clip-path="url(#p97c2be142e)" style="fill: none; stroke-dasharray: 1.85,0.8; stroke-dashoffset: 0; stroke: #b2b2b2; stroke-width: 0.5"/>
     </g>
     <g id="line2d_21">
      <g>
       <use xlink:href="#mb887b464ce" x="27.515625" y="39.842394" style="stroke: #000000; stroke-width: 0.8"/>
      </g>
     </g>
     <g id="text_14">
      <!-- 0.35 -->
      <g transform="translate(0 43.641612) scale(0.1 -0.1)">
       <use xlink:href="#DejaVuSans-30"/>
       <use xlink:href="#DejaVuSans-2e" x="63.623047"/>
       <use xlink:href="#DejaVuSans-33" x="95.410156"/>
       <use xlink:href="#DejaVuSans-35" x="159.033203"/>
      </g>
     </g>
    </g>
   </g>
   <g id="line2d_22">
    <path d="M 27.515625 227.689621 
L 29.734733 227.142212 
L 32.191603 226.246161 
L 34.569218 226.859276 
L 37.026088 225.709128 
L 39.403704 226.103154 
L 41.860573 224.08399 
L 44.317443 223.275348 
L 46.695059 220.845472 
L 49.151928 223.110711 
L 51.529544 228.329154 
L 53.986414 229.114213 
L 56.443283 227.130971 
L 58.662391 227.420182 
L 63.496877 225.70594 
L 65.953746 220.93323 
L 68.331362 220.87535 
L 70.788232 218.886581 
L 73.245101 219.42865 
L 75.622717 217.986444 
L 78.079587 238.70175 
L 80.457203 232.961532 
L 82.914072 217.887211 
L 85.370942 209.318134 
L 87.669304 209.053464 
L 90.126173 200.117467 
L 92.503789 200.280453 
L 97.338274 190.795245 
L 99.795144 191.322978 
L 102.252014 188.440025 
L 104.629629 184.988302 
L 107.086499 184.506005 
L 109.464115 183.243417 
L 111.920984 154.446788 
L 114.377854 151.006562 
L 116.596962 149.015104 
L 119.053832 149.358874 
L 121.431447 147.956298 
L 123.888317 140.418987 
L 126.265933 141.394781 
L 128.722802 139.492115 
L 131.179672 141.200624 
L 133.557288 142.33349 
L 136.014157 136.950625 
L 138.391773 140.99416 
L 140.848643 143.624057 
L 143.305512 141.355627 
L 145.52462 136.047373 
L 147.98149 138.777654 
L 150.359106 136.484475 
L 152.815975 139.450907 
L 155.193591 136.982488 
L 157.650461 141.187048 
L 160.10733 141.452028 
L 162.484946 139.236926 
L 164.941816 139.130002 
L 167.319431 135.200092 
L 169.776301 135.946389 
L 172.233171 136.940718 
L 174.452279 135.624247 
L 176.909148 136.918692 
L 179.286764 138.87487 
L 181.743634 134.144438 
L 184.121249 134.588054 
L 186.578119 137.542815 
L 189.034989 137.975214 
L 191.412604 136.397792 
L 193.869474 139.251513 
L 196.24709 134.851031 
L 198.703959 138.382923 
L 201.160829 139.383111 
L 203.459191 135.051282 
L 205.916061 134.759857 
L 208.293676 133.78672 
L 210.750546 131.723845 
L 213.128162 134.326963 
L 215.585031 133.639837 
L 220.419517 135.852299 
L 222.876386 133.10501 
L 225.254002 130.664546 
L 227.710872 127.323624 
L 230.167741 132.164505 
L 232.386849 117.795431 
L 234.843719 118.770226 
L 237.221335 120.40164 
L 239.678204 120.973309 
L 242.05582 121.912595 
L 244.51269 121.258949 
L 246.969559 120.002613 
L 251.804045 118.636172 
L 254.18166 117.525095 
L 256.63853 118.151026 
L 259.0954 122.597782 
L 261.314508 118.593579 
L 263.771377 119.816642 
L 266.148993 128.863825 
L 268.605863 121.848575 
L 270.983478 124.210994 
L 273.440348 121.874753 
L 275.897218 118.702175 
L 278.274833 122.874083 
L 280.731703 116.20437 
L 283.109319 111.838647 
L 285.566188 112.696342 
L 288.023058 116.034244 
L 290.242166 113.916618 
L 292.699036 118.313224 
L 295.076651 118.656977 
L 297.533521 111.737993 
L 299.911137 108.738555 
L 302.368006 105.999537 
L 304.824876 111.739086 
L 307.202492 104.951348 
L 309.659361 106.912209 
L 312.036977 102.680845 
L 314.493847 104.949358 
L 316.950716 112.150626 
L 319.249078 109.165624 
L 321.705948 100.661556 
L 324.083564 109.446809 
L 326.540433 107.079867 
L 328.918049 113.532117 
L 331.374919 104.196077 
L 333.831788 117.105361 
L 336.209404 105.277236 
L 338.666274 105.986855 
L 341.043889 103.393257 
L 343.500759 108.104605 
L 345.957629 107.505992 
L 348.176737 107.878689 
L 350.633606 103.258783 
L 353.011222 111.472636 
L 355.468092 104.874297 
L 357.845707 102.097655 
L 360.302577 96.636064 
L 362.759447 98.863136 
L 365.137062 100.785341 
L 367.593932 103.366842 
L 369.971548 100.868352 
L 372.428417 98.8549 
L 374.885287 98.381116 
L 377.104395 99.410308 
L 379.561265 105.411395 
L 381.93888 97.516262 
L 384.39575 103.173173 
L 386.773366 100.92878 
L 389.230235 106.457905 
L 391.687105 103.061494 
L 394.064721 108.413357 
L 396.52159 113.206438 
L 398.899206 115.159536 
L 401.356076 108.554459 
L 403.812945 110.052482 
L 406.032053 108.418587 
L 408.488923 109.416604 
L 410.866539 107.282034 
L 413.323408 107.748394 
L 415.701024 105.429518 
L 418.157894 106.445846 
L 420.614763 103.18764 
L 422.992379 107.983432 
L 425.449249 107.877615 
L 427.826864 114.781236 
L 430.283734 117.720255 
L 432.740604 112.469024 
L 435.038966 100.894353 
L 437.495835 103.337832 
L 439.873451 107.1138 
L 442.330321 109.693948 
L 444.707936 109.204904 
L 447.164806 109.877264 
L 449.621676 108.744312 
L 451.999291 110.30141 
L 454.456161 107.376493 
L 456.833777 110.570785 
L 459.290646 112.965653 
L 461.747516 110.830108 
L 463.966624 116.099996 
L 466.423494 111.545051 
L 468.801109 114.736011 
L 471.257979 107.847834 
L 476.092464 113.524278 
L 478.549334 117.483825 
L 480.92695 116.330945 
L 483.383819 114.827803 
L 485.761435 117.17686 
L 488.218305 115.26385 
L 490.675174 112.433191 
L 492.894282 111.771448 
L 495.351152 125.61831 
L 497.728768 128.313367 
L 500.185637 125.104773 
L 502.563253 128.543476 
L 505.020123 131.248176 
L 507.476992 128.991226 
L 509.854608 122.443209 
L 512.311478 123.590599 
L 514.689093 126.8198 
L 517.145963 125.381386 
L 519.602833 124.245239 
L 521.821941 123.920576 
L 524.27881 127.497666 
L 526.656426 126.520382 
L 529.113296 126.65878 
L 531.490911 125.293934 
L 533.947781 128.231106 
L 536.404651 124.478766 
L 538.782266 122.154066 
L 541.239136 119.581406 
L 543.616752 119.842616 
L 546.073621 122.028404 
L 548.530491 112.187929 
L 550.828853 118.156962 
L 553.285723 107.806564 
L 555.663338 110.318888 
L 558.120208 106.565802 
L 560.497824 110.886923 
L 562.954693 108.413292 
L 565.411563 101.881488 
L 567.789179 98.506688 
L 570.246048 103.30295 
L 572.623664 94.811662 
L 575.080534 82.936057 
L 577.537403 78.737983 
L 579.756511 76.124284 
L 582.213381 79.655814 
L 584.590997 53.207448 
L 587.047866 57.843352 
L 589.425482 53.241686 
L 591.882352 45.6105 
L 594.339221 47.227836 
L 596.716837 48.171132 
L 599.173707 44.29056 
L 601.551322 49.230882 
L 604.008192 49.891586 
L 606.465062 44.789775 
L 608.68417 44.513789 
L 611.141039 44.346387 
L 613.518655 46.224035 
L 615.975525 43.198533 
L 618.35314 44.32239 
L 620.81001 34.430315 
L 623.26688 39.568697 
L 625.644495 40.159651 
L 628.101365 35.540243 
L 630.478981 28.325502 
L 632.93585 38.621725 
L 635.39272 43.235759 
L 637.611828 40.72703 
L 640.068698 45.784722 
L 642.446313 45.384109 
L 644.903183 46.050297 
L 647.280799 47.646459 
L 649.737668 46.018991 
L 652.194538 43.544965 
L 654.572154 44.030506 
L 657.029023 47.96964 
L 659.406639 45.589273 
L 661.863509 45.084854 
L 664.320378 45.024592 
L 666.61874 43.085631 
L 669.07561 43.848876 
L 671.453226 45.1103 
L 673.910095 42.024784 
L 676.287711 52.619246 
L 678.744581 48.114715 
L 681.20145 48.28667 
L 683.579066 45.686 
L 686.035936 42.67695 
L 688.413551 41.4412 
L 690.870421 45.665138 
L 693.327291 44.443698 
L 695.546399 45.367909 
L 698.003268 46.12821 
L 700.380884 44.462085 
L 702.837754 48.32351 
L 705.215369 45.396115 
L 707.672239 53.097375 
L 710.129109 50.883897 
L 712.506724 46.551195 
L 714.963594 47.874217 
L 717.34121 58.805996 
L 719.798079 62.239926 
L 722.254949 67.085452 
L 724.474057 63.646635 
L 729.308542 82.109421 
L 731.765412 79.826274 
L 734.143028 82.131709 
L 736.599897 83.436226 
L 739.056767 80.738935 
L 741.434383 82.916347 
L 743.891252 85.46087 
L 746.268868 79.53167 
L 748.725738 85.615176 
L 751.182607 95.524657 
L 753.401715 97.342974 
L 755.858585 100.094154 
L 758.236201 102.215135 
L 760.69307 99.756333 
L 763.070686 100.650752 
L 765.527556 105.576754 
L 767.984425 100.022601 
L 770.362041 99.989409 
L 772.818911 99.725288 
L 775.196526 91.525122 
L 777.653396 81.966944 
L 780.110266 79.92839 
L 782.408628 83.541384 
L 784.865497 77.465007 
L 787.243113 79.573449 
L 789.699983 76.080841 
L 792.077598 73.265664 
L 794.534468 76.932902 
L 796.991338 78.277955 
L 799.368953 79.118293 
L 801.825823 79.622866 
L 804.203439 88.63099 
L 806.660308 86.570956 
L 809.117178 86.533331 
L 811.336286 87.23819 
L 813.793156 86.052439 
L 816.170771 85.700565 
L 818.627641 84.273936 
L 821.005257 90.148017 
L 823.462126 95.834242 
L 825.918996 99.197837 
L 828.296612 98.186126 
L 830.753481 99.602482 
L 833.131097 96.197393 
L 835.587967 100.303784 
L 838.044836 105.222285 
L 840.263944 107.685541 
L 842.720814 108.056406 
L 845.09843 111.116715 
L 847.555299 113.693825 
L 849.932915 106.894495 
L 852.389785 110.284486 
L 854.846654 109.604341 
L 857.22427 112.460569 
L 859.68114 108.549935 
L 862.058755 111.469814 
L 864.515625 103.730382 
L 864.515625 103.730382 
" clip-path="url(#p97c2be142e)" style="fill: none; stroke: #e69f00; stroke-width: 2; stroke-linecap: square"/>
   </g>
   <g id="line2d_23">
    <path d="M 27.515625 27.960323 
L 29.734733 37.795053 
L 32.191603 40.187087 
L 34.569218 40.901538 
L 37.026088 43.374561 
L 39.403704 40.884024 
L 41.860573 27.361981 
L 44.317443 30.322069 
L 46.695059 43.447185 
L 49.151928 38.856128 
L 51.529544 45.402869 
L 53.986414 41.894332 
L 56.443283 44.635082 
L 58.662391 41.666583 
L 61.119261 44.560362 
L 63.496877 38.65998 
L 65.953746 42.76666 
L 68.331362 39.094662 
L 70.788232 43.297787 
L 73.245101 39.840353 
L 75.622717 38.169637 
L 78.079587 29.562692 
L 80.457203 33.161275 
L 82.914072 38.098209 
L 85.370942 32.462958 
L 87.669304 28.429041 
L 90.126173 25.51283 
L 92.503789 18.764727 
L 94.960659 16.94175 
L 97.338274 26.162199 
L 99.795144 25.852063 
L 102.252014 22.282721 
L 104.629629 23.333668 
L 107.086499 27.734481 
L 109.464115 29.545677 
L 111.920984 33.587735 
L 114.377854 40.258661 
L 116.596962 34.834531 
L 119.053832 41.430566 
L 121.431447 43.744265 
L 123.888317 52.57758 
L 126.265933 48.620948 
L 128.722802 46.771767 
L 131.179672 51.216266 
L 133.557288 52.996741 
L 136.014157 55.375759 
L 138.391773 54.557722 
L 140.848643 51.729924 
L 143.305512 52.176724 
L 145.52462 52.719431 
L 147.98149 54.264327 
L 150.359106 54.65573 
L 152.815975 56.864134 
L 155.193591 56.899677 
L 157.650461 55.714914 
L 160.10733 62.789455 
L 162.484946 63.507367 
L 164.941816 59.432401 
L 167.319431 61.339954 
L 169.776301 57.999864 
L 172.233171 60.736413 
L 174.452279 53.118037 
L 176.909148 58.615272 
L 181.743634 59.116528 
L 184.121249 63.611751 
L 186.578119 68.525508 
L 189.034989 67.950883 
L 191.412604 60.970193 
L 193.869474 70.712523 
L 196.24709 69.766874 
L 198.703959 69.00893 
L 201.160829 76.957263 
L 203.459191 79.566634 
L 205.916061 76.007252 
L 208.293676 83.293264 
L 210.750546 85.577787 
L 213.128162 80.652519 
L 215.585031 80.890532 
L 218.041901 85.671554 
L 220.419517 84.537769 
L 222.876386 80.466609 
L 225.254002 85.826339 
L 227.710872 82.511262 
L 230.167741 85.535138 
L 232.386849 97.466737 
L 234.843719 87.602721 
L 237.221335 96.043474 
L 239.678204 90.532424 
L 242.05582 87.148121 
L 244.51269 88.063032 
L 246.969559 84.452043 
L 249.347175 83.886475 
L 251.804045 82.914153 
L 254.18166 80.212349 
L 256.63853 80.164037 
L 259.0954 81.860562 
L 261.314508 79.106071 
L 263.771377 78.166175 
L 266.148993 71.961174 
L 268.605863 72.449931 
L 270.983478 82.372559 
L 273.440348 84.300783 
L 275.897218 74.199572 
L 278.274833 97.17787 
L 280.731703 71.452031 
L 283.109319 77.552934 
L 285.566188 77.321322 
L 288.023058 75.303935 
L 290.242166 67.61835 
L 292.699036 67.653807 
L 295.076651 61.077889 
L 297.533521 80.169469 
L 299.911137 90.032611 
L 302.368006 80.695555 
L 304.824876 83.672691 
L 307.202492 82.734022 
L 309.659361 89.433011 
L 312.036977 89.734902 
L 314.493847 81.25223 
L 316.950716 88.317285 
L 319.249078 91.474463 
L 321.705948 83.376311 
L 324.083564 81.097712 
L 326.540433 82.046501 
L 328.918049 97.07865 
L 331.374919 85.081123 
L 333.831788 81.441031 
L 336.209404 87.100312 
L 338.666274 85.510817 
L 341.043889 81.97148 
L 343.500759 81.938181 
L 345.957629 95.944466 
L 348.176737 81.463782 
L 350.633606 87.865199 
L 353.011222 91.182241 
L 355.468092 90.633108 
L 357.845707 97.976338 
L 360.302577 94.749033 
L 362.759447 93.568579 
L 365.137062 101.630075 
L 367.593932 96.432027 
L 369.971548 105.859353 
L 372.428417 98.667 
L 374.885287 100.961673 
L 377.104395 94.524156 
L 379.561265 97.924574 
L 381.93888 98.856942 
L 384.39575 105.716692 
L 386.773366 98.881234 
L 389.230235 108.731977 
L 391.687105 104.011348 
L 394.064721 105.289147 
L 396.52159 113.32681 
L 398.899206 108.635473 
L 401.356076 100.621658 
L 403.812945 108.413034 
L 406.032053 105.631388 
L 408.488923 106.329883 
L 410.866539 111.159182 
L 413.323408 107.353478 
L 415.701024 109.668598 
L 418.157894 109.390799 
L 420.614763 106.086384 
L 422.992379 107.565625 
L 425.449249 114.668097 
L 427.826864 114.048046 
L 430.283734 111.121106 
L 432.740604 121.904785 
L 435.038966 123.159934 
L 437.495835 121.521191 
L 439.873451 121.538922 
L 442.330321 120.540567 
L 444.707936 117.17052 
L 447.164806 116.835038 
L 449.621676 122.244828 
L 451.999291 119.760921 
L 454.456161 124.343862 
L 456.833777 120.505399 
L 459.290646 131.937123 
L 461.747516 126.240848 
L 463.966624 121.411879 
L 466.423494 128.207617 
L 468.801109 135.85043 
L 471.257979 138.328279 
L 473.635595 134.804722 
L 476.092464 135.784527 
L 478.549334 134.498159 
L 480.92695 133.102396 
L 483.383819 140.362806 
L 485.761435 137.5716 
L 488.218305 138.961254 
L 490.675174 135.218535 
L 492.894282 142.654376 
L 495.351152 134.576632 
L 497.728768 130.28471 
L 500.185637 134.951303 
L 502.563253 133.17134 
L 505.020123 135.370525 
L 507.476992 135.437903 
L 509.854608 137.820696 
L 512.311478 133.05252 
L 514.689093 128.917191 
L 517.145963 136.27752 
L 519.602833 137.218722 
L 521.821941 132.987366 
L 524.27881 131.729064 
L 526.656426 132.240061 
L 529.113296 129.28849 
L 531.490911 130.260431 
L 533.947781 128.066955 
L 536.404651 134.114332 
L 538.782266 123.867341 
L 541.239136 126.353968 
L 543.616752 126.758743 
L 546.073621 121.03703 
L 548.530491 130.530529 
L 550.828853 119.277367 
L 553.285723 126.240027 
L 555.663338 119.305045 
L 558.120208 122.262216 
L 560.497824 121.809078 
L 562.954693 139.595482 
L 565.411563 128.476238 
L 567.789179 131.777367 
L 570.246048 127.097749 
L 572.623664 120.945335 
L 575.080534 136.664738 
L 577.537403 128.92137 
L 579.756511 131.601233 
L 582.213381 130.289994 
L 584.590997 128.046654 
L 587.047866 124.555535 
L 589.425482 130.400485 
L 591.882352 126.483256 
L 594.339221 128.586768 
L 596.716837 127.779396 
L 599.173707 128.543536 
L 601.551322 130.768839 
L 604.008192 130.606845 
L 606.465062 131.269775 
L 608.68417 129.834339 
L 611.141039 131.023259 
L 613.518655 123.936057 
L 615.975525 128.111261 
L 618.35314 125.173773 
L 620.81001 124.020163 
L 623.26688 127.070373 
L 625.644495 128.542213 
L 628.101365 127.666061 
L 630.478981 126.242044 
L 635.39272 122.283533 
L 637.611828 124.709779 
L 640.068698 123.514474 
L 642.446313 126.266832 
L 644.903183 128.55358 
L 647.280799 125.328366 
L 649.737668 124.251853 
L 652.194538 127.010119 
L 654.572154 129.003346 
L 657.029023 119.294211 
L 659.406639 124.196274 
L 661.863509 128.916088 
L 664.320378 130.87249 
L 666.61874 128.169528 
L 669.07561 135.640328 
L 671.453226 131.879905 
L 673.910095 133.846725 
L 676.287711 131.031892 
L 678.744581 129.375645 
L 681.20145 130.771543 
L 683.579066 132.864622 
L 686.035936 132.129728 
L 688.413551 134.521225 
L 690.870421 130.740967 
L 693.327291 130.708243 
L 695.546399 132.475268 
L 698.003268 136.073051 
L 700.380884 134.595733 
L 702.837754 132.93304 
L 705.215369 133.340371 
L 707.672239 133.30691 
L 710.129109 134.525595 
L 712.506724 137.047812 
L 714.963594 136.56728 
L 717.34121 133.116695 
L 719.798079 127.757643 
L 722.254949 137.389796 
L 724.474057 139.051112 
L 726.930927 138.228711 
L 729.308542 131.228357 
L 731.765412 141.624778 
L 734.143028 137.611784 
L 736.599897 140.422333 
L 739.056767 138.995491 
L 741.434383 146.428965 
L 743.891252 143.277159 
L 746.268868 149.367482 
L 751.182607 135.755594 
L 753.401715 136.315134 
L 755.858585 134.403068 
L 758.236201 128.960694 
L 760.69307 136.338185 
L 763.070686 134.46486 
L 765.527556 134.960453 
L 767.984425 131.607833 
L 770.362041 129.59803 
L 772.818911 126.523043 
L 775.196526 131.992452 
L 777.653396 136.7357 
L 780.110266 129.957451 
L 782.408628 131.992722 
L 784.865497 130.875141 
L 787.243113 128.338592 
L 789.699983 133.722111 
L 792.077598 126.605836 
L 794.534468 133.036812 
L 796.991338 132.498289 
L 799.368953 131.69199 
L 801.825823 132.294045 
L 804.203439 127.985202 
L 806.660308 124.415695 
L 809.117178 125.746311 
L 811.336286 126.155043 
L 813.793156 125.631971 
L 816.170771 125.4256 
L 818.627641 127.445232 
L 821.005257 127.373253 
L 823.462126 122.839603 
L 825.918996 125.067004 
L 828.296612 120.778576 
L 833.131097 125.058059 
L 835.587967 124.586513 
L 838.044836 128.604952 
L 840.263944 128.028101 
L 842.720814 116.336167 
L 845.09843 121.505807 
L 847.555299 121.134832 
L 849.932915 122.459505 
L 852.389785 121.885054 
L 854.846654 126.8179 
L 857.22427 119.558568 
L 859.68114 121.595163 
L 862.058755 120.065552 
L 864.515625 122.501922 
L 864.515625 122.501922 
" clip-path="url(#p97c2be142e)" style="fill: none; stroke-dasharray: 7.4,3.2; stroke-dashoffset: 0; stroke: #56b4e9; stroke-width: 2"/>
   </g>
   <g id="line2d_24">
    <path d="M 27.515625 137.70603 
L 29.734733 136.894156 
L 32.191603 134.252179 
L 34.569218 137.355085 
L 37.026088 135.167903 
L 39.403704 139.873758 
L 41.860573 146.65989 
L 44.317443 144.234994 
L 46.695059 130.921627 
L 49.151928 134.542762 
L 51.529544 133.903841 
L 53.986414 133.555779 
L 56.443283 129.964946 
L 58.662391 135.984393 
L 61.119261 131.648269 
L 63.496877 131.474071 
L 65.953746 135.489551 
L 68.331362 136.110785 
L 70.788232 137.894651 
L 75.622717 135.848761 
L 78.079587 133.521763 
L 80.457203 134.330759 
L 82.914072 140.174575 
L 85.370942 136.789828 
L 87.669304 138.559606 
L 90.126173 138.973363 
L 92.503789 139.667832 
L 94.960659 144.599404 
L 97.338274 145.808472 
L 99.795144 146.622596 
L 102.252014 149.911104 
L 104.629629 149.750749 
L 107.086499 151.786709 
L 109.464115 149.999079 
L 111.920984 163.207829 
L 114.377854 156.30973 
L 116.596962 152.333722 
L 119.053832 157.389886 
L 121.431447 160.396512 
L 123.888317 155.051485 
L 126.265933 155.865611 
L 128.722802 157.534028 
L 131.179672 153.353565 
L 133.557288 154.097235 
L 136.014157 151.64117 
L 138.391773 152.428428 
L 140.848643 151.631044 
L 143.305512 151.779944 
L 145.52462 150.436187 
L 147.98149 148.261451 
L 150.359106 149.376349 
L 152.815975 146.38551 
L 155.193591 143.096085 
L 157.650461 141.167031 
L 160.10733 140.001729 
L 162.484946 141.917772 
L 164.941816 142.395313 
L 167.319431 145.658136 
L 169.776301 146.861141 
L 172.233171 149.470789 
L 174.452279 145.786447 
L 176.909148 144.145457 
L 179.286764 141.608914 
L 181.743634 143.992696 
L 184.121249 141.023217 
L 186.578119 135.754361 
L 189.034989 136.674973 
L 191.412604 145.952604 
L 193.869474 134.164669 
L 196.24709 144.272015 
L 198.703959 141.555815 
L 201.160829 134.023504 
L 203.459191 129.49032 
L 205.916061 135.496273 
L 208.293676 128.819197 
L 210.750546 133.377429 
L 213.128162 138.745872 
L 215.585031 140.624552 
L 218.041901 137.817968 
L 220.419517 140.196015 
L 222.876386 145.642804 
L 225.254002 141.815353 
L 227.710872 144.189898 
L 230.167741 144.450146 
L 232.386849 155.612913 
L 234.843719 154.13766 
L 237.221335 151.26694 
L 239.678204 151.3733 
L 242.05582 156.121914 
L 244.51269 151.005609 
L 246.969559 151.622406 
L 249.347175 158.020161 
L 251.804045 157.794131 
L 254.18166 154.154747 
L 256.63853 160.104024 
L 259.0954 152.589682 
L 261.314508 156.714791 
L 263.771377 156.054819 
L 266.148993 153.60026 
L 268.605863 157.575487 
L 270.983478 149.980819 
L 273.440348 149.625861 
L 275.897218 155.594552 
L 278.274833 141.970155 
L 280.731703 150.173084 
L 283.109319 149.956651 
L 285.566188 144.135584 
L 288.023058 142.346026 
L 290.242166 160.380959 
L 292.699036 145.88309 
L 295.076651 151.680153 
L 297.533521 151.439931 
L 299.911137 147.969738 
L 302.368006 151.77937 
L 304.824876 151.030058 
L 307.202492 148.432088 
L 309.659361 155.729101 
L 312.036977 143.162448 
L 314.493847 139.838411 
L 316.950716 153.951341 
L 319.249078 137.7858 
L 321.705948 155.894655 
L 324.083564 159.692156 
L 326.540433 161.162426 
L 328.918049 139.761814 
L 331.374919 152.633211 
L 333.831788 144.437469 
L 336.209404 162.975902 
L 338.666274 156.672121 
L 341.043889 168.481052 
L 343.500759 160.126107 
L 345.957629 132.649635 
L 348.176737 167.238274 
L 353.011222 139.100754 
L 355.468092 151.548989 
L 357.845707 144.619919 
L 360.302577 153.841894 
L 362.759447 155.529095 
L 365.137062 154.589807 
L 367.593932 142.067429 
L 369.971548 141.538074 
L 372.428417 149.872508 
L 374.885287 150.00905 
L 377.104395 159.240928 
L 379.561265 147.456796 
L 381.93888 156.22463 
L 384.39575 148.289523 
L 386.773366 154.618086 
L 389.230235 150.555782 
L 391.687105 150.051844 
L 394.064721 155.218493 
L 396.52159 136.36537 
L 398.899206 140.072071 
L 401.356076 158.002176 
L 403.812945 149.812116 
L 406.032053 149.714697 
L 408.488923 153.043553 
L 410.866539 147.709949 
L 413.323408 147.582865 
L 415.701024 151.627121 
L 418.157894 148.990175 
L 420.614763 148.171654 
L 422.992379 151.716003 
L 425.449249 148.967492 
L 427.826864 150.760354 
L 430.283734 152.002741 
L 432.740604 148.626961 
L 435.038966 154.594074 
L 437.495835 151.708248 
L 439.873451 153.520903 
L 442.330321 147.71493 
L 444.707936 149.434217 
L 447.164806 152.728792 
L 449.621676 153.060589 
L 451.999291 148.44725 
L 454.456161 146.200303 
L 456.833777 149.598031 
L 459.290646 151.312705 
L 461.747516 154.571562 
L 463.966624 154.024569 
L 466.423494 152.094787 
L 468.801109 157.035625 
L 471.257979 153.399481 
L 473.635595 158.15654 
L 476.092464 156.495814 
L 480.92695 156.864716 
L 483.383819 156.484889 
L 485.761435 155.850695 
L 488.218305 160.830441 
L 490.675174 159.09266 
L 492.894282 164.10074 
L 495.351152 167.929239 
L 497.728768 174.109924 
L 500.185637 174.128844 
L 502.563253 171.548049 
L 505.020123 174.951837 
L 507.476992 169.759453 
L 509.854608 171.994428 
L 512.311478 171.997662 
L 514.689093 171.303496 
L 517.145963 174.344915 
L 519.602833 172.682796 
L 521.821941 173.377116 
L 524.27881 172.787119 
L 526.656426 176.675737 
L 529.113296 175.155713 
L 531.490911 174.802727 
L 533.947781 174.578512 
L 536.404651 171.279992 
L 538.782266 167.643898 
L 541.239136 165.839464 
L 543.616752 168.588754 
L 546.073621 163.67859 
L 548.530491 175.133106 
L 550.828853 164.945321 
L 553.285723 169.901765 
L 555.663338 170.045191 
L 558.120208 169.260968 
L 560.497824 172.786174 
L 562.954693 170.200308 
L 565.411563 167.967464 
L 567.789179 173.264373 
L 570.246048 171.037207 
L 572.623664 175.090944 
L 575.080534 172.18144 
L 577.537403 171.531554 
L 579.756511 171.810125 
L 582.213381 173.134365 
L 584.590997 176.47349 
L 587.047866 182.394954 
L 589.425482 180.356712 
L 591.882352 184.900087 
L 594.339221 185.184252 
L 596.716837 179.407654 
L 599.173707 180.787029 
L 601.551322 181.971716 
L 604.008192 179.46523 
L 606.465062 186.230207 
L 608.68417 181.565443 
L 611.141039 182.44173 
L 613.518655 184.955084 
L 618.35314 187.427352 
L 620.81001 185.470455 
L 623.26688 187.380001 
L 625.644495 184.213676 
L 628.101365 184.827113 
L 630.478981 190.840896 
L 632.93585 190.190519 
L 635.39272 187.396039 
L 637.611828 189.234781 
L 640.068698 188.445951 
L 642.446313 187.411772 
L 644.903183 185.36767 
L 647.280799 183.914406 
L 649.737668 184.198027 
L 652.194538 186.414126 
L 654.572154 184.226536 
L 657.029023 186.016878 
L 659.406639 185.712256 
L 661.863509 184.700475 
L 664.320378 180.033906 
L 666.61874 179.802182 
L 669.07561 178.553034 
L 673.910095 180.433588 
L 676.287711 178.762877 
L 678.744581 179.199754 
L 681.20145 178.335428 
L 683.579066 182.519271 
L 686.035936 184.192792 
L 688.413551 181.198951 
L 690.870421 182.563396 
L 693.327291 187.032021 
L 695.546399 186.163964 
L 698.003268 180.16162 
L 700.380884 180.399219 
L 702.837754 178.395097 
L 705.215369 179.416516 
L 710.129109 173.374614 
L 712.506724 175.036372 
L 714.963594 170.646907 
L 719.798079 157.035015 
L 722.254949 154.906656 
L 724.474057 154.387599 
L 726.930927 149.102793 
L 729.308542 154.820923 
L 731.765412 151.815923 
L 734.143028 154.046948 
L 736.599897 152.135332 
L 739.056767 154.838116 
L 741.434383 148.932591 
L 743.891252 147.996261 
L 746.268868 143.911252 
L 748.725738 145.404382 
L 751.182607 148.173071 
L 753.401715 142.49831 
L 755.858585 137.176875 
L 758.236201 135.66094 
L 760.69307 139.212556 
L 763.070686 139.387503 
L 765.527556 138.102719 
L 767.984425 141.719753 
L 770.362041 137.701203 
L 772.818911 138.465458 
L 775.196526 128.858283 
L 777.653396 133.259009 
L 780.110266 131.553201 
L 782.408628 134.45814 
L 784.865497 132.330927 
L 787.243113 139.454132 
L 789.699983 135.032651 
L 792.077598 141.488457 
L 794.534468 137.129789 
L 796.991338 137.369713 
L 799.368953 139.206915 
L 801.825823 138.688863 
L 804.203439 146.085339 
L 806.660308 147.089267 
L 809.117178 144.41831 
L 811.336286 146.872099 
L 813.793156 143.931059 
L 818.627641 140.779197 
L 821.005257 146.469157 
L 823.462126 138.393932 
L 825.918996 141.506526 
L 828.296612 146.070544 
L 830.753481 137.773348 
L 833.131097 142.232146 
L 835.587967 138.087839 
L 838.044836 132.232391 
L 840.263944 129.925519 
L 842.720814 140.331117 
L 845.09843 134.306464 
L 847.555299 131.643075 
L 849.932915 136.489752 
L 852.389785 138.23313 
L 854.846654 132.30605 
L 857.22427 136.751301 
L 859.68114 140.266895 
L 862.058755 144.273291 
L 864.515625 143.30563 
L 864.515625 143.30563 
" clip-path="url(#p97c2be142e)" style="fill: none; stroke-dasharray: 12.8,3.2,2,3.2; stroke-dashoffset: 0; stroke: #009e73; stroke-width: 2"/>
   </g>
   <g id="line2d_25">
    <path d="M 27.515625 117.411514 
L 29.734733 122.549345 
L 32.191603 116.887674 
L 34.569218 114.353965 
L 37.026088 113.499795 
L 39.403704 108.860655 
L 41.860573 114.586423 
L 44.317443 113.623629 
L 46.695059 121.150531 
L 49.151928 114.852491 
L 51.529544 112.36064 
L 53.986414 116.604981 
L 56.443283 116.806591 
L 58.662391 113.303916 
L 61.119261 112.911609 
L 63.496877 119.837491 
L 65.953746 115.820156 
L 68.331362 117.817222 
L 70.788232 114.062746 
L 73.245101 118.977064 
L 75.622717 121.805064 
L 78.079587 120.789238 
L 80.457203 118.869296 
L 82.914072 121.672043 
L 85.370942 134.410613 
L 87.669304 135.35241 
L 90.126173 140.164848 
L 92.503789 146.031334 
L 94.960659 145.847933 
L 97.338274 143.679868 
L 99.795144 139.104191 
L 102.252014 144.935444 
L 104.629629 151.276535 
L 107.086499 143.528588 
L 109.464115 145.389961 
L 111.920984 157.827942 
L 114.377854 160.296528 
L 116.596962 163.930429 
L 121.431447 146.421514 
L 123.888317 149.37089 
L 126.265933 153.817966 
L 128.722802 156.112259 
L 131.179672 152.112118 
L 133.557288 150.53464 
L 136.014157 148.030105 
L 138.391773 148.542789 
L 140.848643 150.960962 
L 143.305512 152.43182 
L 145.52462 154.88152 
L 147.98149 153.570539 
L 150.359106 151.43219 
L 152.815975 150.449323 
L 155.193591 153.861008 
L 157.650461 153.885704 
L 160.10733 145.87219 
L 162.484946 145.390986 
L 164.941816 151.149967 
L 167.319431 146.873269 
L 169.776301 152.09885 
L 172.233171 144.995168 
L 174.452279 151.168558 
L 176.909148 148.19415 
L 179.286764 148.020981 
L 181.743634 150.066941 
L 184.121249 148.130658 
L 186.578119 145.446021 
L 189.034989 146.86289 
L 191.412604 142.674527 
L 193.869474 146.468056 
L 196.24709 148.873388 
L 198.703959 144.56937 
L 201.160829 145.254056 
L 203.459191 151.915031 
L 205.916061 150.455449 
L 208.293676 152.188853 
L 210.750546 147.898769 
L 213.128162 148.140756 
L 215.585031 149.320721 
L 218.041901 147.567899 
L 220.419517 146.394548 
L 222.876386 150.664089 
L 225.254002 149.830241 
L 227.710872 151.582045 
L 230.167741 146.673485 
L 232.386849 146.695802 
L 234.843719 150.68091 
L 237.221335 145.969696 
L 239.678204 147.448327 
L 242.05582 144.090181 
L 244.51269 153.383181 
L 246.969559 151.006697 
L 249.347175 144.802084 
L 251.804045 143.153274 
L 254.18166 147.249078 
L 259.0954 139.778118 
L 261.314508 146.500908 
L 266.148993 139.946776 
L 268.605863 140.262377 
L 270.983478 137.967392 
L 273.440348 138.869044 
L 275.897218 137.257757 
L 278.274833 131.027012 
L 280.731703 136.186376 
L 283.109319 135.394005 
L 285.566188 130.18799 
L 288.023058 131.564742 
L 290.242166 125.658316 
L 292.699036 133.682135 
L 295.076651 141.024036 
L 297.533521 125.715356 
L 299.911137 121.132899 
L 302.368006 124.530933 
L 304.824876 116.022711 
L 307.202492 127.25161 
L 309.659361 114.106981 
L 312.036977 123.692475 
L 314.493847 135.375179 
L 316.950716 109.347676 
L 319.249078 123.228474 
L 321.705948 127.366008 
L 324.083564 109.94349 
L 326.540433 112.303389 
L 328.918049 109.294004 
L 331.374919 126.2822 
L 333.831788 123.985511 
L 336.209404 118.466762 
L 338.666274 121.802249 
L 341.043889 116.834138 
L 343.500759 124.947022 
L 345.957629 137.867039 
L 348.176737 117.634662 
L 350.633606 130.501444 
L 353.011222 130.356783 
L 355.468092 126.293743 
L 357.845707 128.511142 
L 360.302577 124.211704 
L 362.759447 125.435197 
L 365.137062 117.17 
L 367.593932 129.354165 
L 369.971548 126.417895 
L 372.428417 129.481328 
L 374.885287 125.848919 
L 377.104395 123.127953 
L 379.561265 127.063789 
L 381.93888 126.43874 
L 384.39575 122.310574 
L 386.773366 125.659778 
L 389.230235 114.015007 
L 391.687105 122.33932 
L 394.064721 114.624993 
L 396.52159 121.595431 
L 398.899206 120.35781 
L 401.356076 117.377253 
L 403.812945 115.786088 
L 406.032053 119.032861 
L 408.488923 114.963305 
L 410.866539 121.962948 
L 413.323408 121.982727 
L 415.701024 115.940722 
L 418.157894 120.288674 
L 420.614763 125.436042 
L 422.992379 116.989186 
L 425.449249 125.228876 
L 427.826864 116.277545 
L 430.283734 115.646922 
L 432.740604 115.153115 
L 435.038966 118.305311 
L 437.495835 120.612671 
L 439.873451 111.15935 
L 442.330321 118.861764 
L 444.707936 120.971981 
L 447.164806 120.443601 
L 449.621676 115.442208 
L 451.999291 121.870728 
L 454.456161 122.898803 
L 456.833777 121.94041 
L 459.290646 113.214019 
L 461.747516 117.479633 
L 463.966624 115.114381 
L 466.423494 115.177534 
L 468.801109 109.084892 
L 471.257979 123.96985 
L 473.635595 121.159788 
L 476.092464 119.292608 
L 478.549334 116.494967 
L 480.92695 119.000072 
L 483.383819 117.411885 
L 485.761435 117.472781 
L 488.218305 112.086563 
L 490.675174 114.664165 
L 492.894282 115.586984 
L 495.351152 114.392821 
L 497.728768 113.080524 
L 500.185637 106.942873 
L 502.563253 108.103531 
L 505.020123 101.715431 
L 507.476992 106.829537 
L 509.854608 107.728827 
L 512.311478 109.514849 
L 514.689093 111.68022 
L 517.145963 110.790121 
L 519.602833 107.898893 
L 521.821941 111.984313 
L 524.27881 112.492566 
L 526.656426 107.795298 
L 529.113296 114.979491 
L 531.490911 116.310311 
L 533.947781 114.16263 
L 536.404651 109.465013 
L 538.782266 114.761748 
L 541.239136 115.619786 
L 543.616752 115.482695 
L 546.073621 124.298446 
L 548.530491 118.515242 
L 550.828853 118.00846 
L 553.285723 124.846246 
L 555.663338 127.169558 
L 558.120208 122.460972 
L 560.497824 117.251756 
L 562.954693 116.356863 
L 565.411563 117.083475 
L 567.789179 114.899128 
L 570.246048 110.333654 
L 572.623664 118.898662 
L 575.080534 106.121395 
L 577.537403 104.895042 
L 579.756511 114.291223 
L 582.213381 114.6596 
L 584.590997 132.186187 
L 587.047866 118.550245 
L 589.425482 115.311469 
L 591.882352 123.127055 
L 594.339221 121.296568 
L 596.716837 119.993429 
L 599.173707 120.693445 
L 601.551322 114.606882 
L 604.008192 116.453496 
L 606.465062 115.87315 
L 608.68417 121.941662 
L 611.141039 121.287178 
L 613.518655 122.754168 
L 615.975525 118.400512 
L 618.35314 117.222901 
L 620.81001 129.655443 
L 623.26688 117.868558 
L 625.644495 119.800521 
L 628.101365 123.216635 
L 630.478981 126.188646 
L 632.93585 119.967659 
L 635.39272 118.901984 
L 637.611828 116.49851 
L 640.068698 114.240475 
L 642.446313 112.485579 
L 644.903183 112.58233 
L 647.280799 117.310505 
L 649.737668 119.561819 
L 652.194538 115.54387 
L 654.572154 114.167225 
L 657.029023 123.754696 
L 659.406639 116.125318 
L 661.863509 113.001394 
L 664.320378 117.40597 
L 666.61874 119.959403 
L 669.07561 114.848873 
L 671.453226 114.427698 
L 673.910095 113.375797 
L 676.287711 110.28862 
L 678.744581 113.632235 
L 681.20145 115.303833 
L 683.579066 112.13924 
L 686.035936 115.467893 
L 688.413551 114.58111 
L 690.870421 116.46952 
L 693.327291 111.596368 
L 695.546399 112.587007 
L 698.003268 111.542353 
L 700.380884 113.287697 
L 702.837754 115.864153 
L 705.215369 115.099322 
L 707.672239 111.238573 
L 710.129109 116.536013 
L 712.506724 116.90363 
L 714.963594 118.880651 
L 717.34121 116.109716 
L 719.798079 126.866414 
L 722.254949 116.923291 
L 724.474057 119.612963 
L 726.930927 118.684898 
L 729.308542 114.024354 
L 731.765412 115.107129 
L 734.143028 112.69982 
L 736.599897 110.4793 
L 739.056767 111.402696 
L 741.434383 110.892446 
L 743.891252 109.029686 
L 746.268868 113.495661 
L 748.725738 114.297743 
L 751.182607 102.424872 
L 753.401715 110.222431 
L 755.858585 108.673956 
L 758.236201 112.72666 
L 760.69307 106.550368 
L 763.070686 108.041516 
L 765.527556 104.462602 
L 767.984425 114.845096 
L 770.362041 119.458738 
L 772.818911 122.068782 
L 775.196526 130.37469 
L 777.653396 130.613305 
L 780.110266 139.804111 
L 782.408628 134.982649 
L 784.865497 140.945864 
L 787.243113 133.859631 
L 789.699983 134.624482 
L 792.077598 132.650942 
L 794.534468 128.582608 
L 796.991338 134.171463 
L 799.368953 130.16012 
L 801.825823 140.037154 
L 804.203439 137.562077 
L 806.660308 150.813127 
L 809.117178 149.535749 
L 811.336286 146.594241 
L 813.793156 150.522687 
L 816.170771 153.381674 
L 818.627641 154.651988 
L 821.005257 148.605188 
L 823.462126 155.094228 
L 825.918996 148.401134 
L 828.296612 151.426543 
L 830.753481 154.001316 
L 833.131097 150.465192 
L 835.587967 149.170654 
L 838.044836 145.420981 
L 840.263944 145.219951 
L 842.720814 144.458164 
L 845.09843 144.193394 
L 847.555299 142.485024 
L 849.932915 141.767356 
L 852.389785 139.868652 
L 854.846654 141.052598 
L 857.22427 139.424434 
L 859.68114 142.462171 
L 862.058755 136.429774 
L 864.515625 144.508373 
L 864.515625 144.508373 
" clip-path="url(#p97c2be142e)" style="fill: none; stroke-dasharray: 2,3.3; stroke-dashoffset: 0; stroke: #0072b2; stroke-width: 2"/>
   </g>
   <g id="line2d_26">
    <path d="M 27.515625 152.66288 
L 29.734733 139.049602 
L 32.191603 145.857266 
L 34.569218 143.960503 
L 37.026088 145.678982 
L 39.403704 147.708777 
L 41.860573 150.738083 
L 44.317443 151.974328 
L 46.695059 147.065553 
L 49.151928 152.068275 
L 51.529544 143.433863 
L 53.986414 142.261064 
L 56.443283 144.892777 
L 58.662391 145.055294 
L 61.119261 147.777411 
L 63.496877 147.752885 
L 65.953746 148.420771 
L 68.331362 149.532348 
L 70.788232 149.288602 
L 73.245101 148.29542 
L 75.622717 149.620462 
L 78.079587 140.854925 
L 80.457203 144.107505 
L 82.914072 145.598331 
L 85.370942 150.448834 
L 87.669304 152.035847 
L 90.126173 158.661861 
L 92.503789 158.686022 
L 94.960659 160.584568 
L 97.338274 156.984584 
L 99.795144 160.528541 
L 102.252014 157.861074 
L 104.629629 154.081114 
L 107.086499 155.874585 
L 109.464115 155.252234 
L 111.920984 154.360074 
L 114.377854 155.558886 
L 116.596962 163.316583 
L 119.053832 160.038791 
L 121.431447 164.911778 
L 123.888317 166.011426 
L 126.265933 163.731062 
L 128.722802 163.520198 
L 131.179672 165.547795 
L 133.557288 163.468261 
L 136.014157 171.432709 
L 138.391773 166.907269 
L 140.848643 165.48438 
L 143.305512 165.686254 
L 145.52462 169.345857 
L 147.98149 168.556397 
L 150.359106 171.481624 
L 152.815975 170.280495 
L 155.193591 172.591109 
L 157.650461 171.475671 
L 160.10733 173.314965 
L 162.484946 173.377318 
L 164.941816 171.322684 
L 167.319431 174.358916 
L 169.776301 170.524124 
L 172.233171 171.28728 
L 174.452279 177.733079 
L 176.909148 175.556798 
L 179.286764 176.013388 
L 181.743634 176.109766 
L 184.121249 176.076687 
L 186.578119 176.161663 
L 189.034989 173.966408 
L 191.412604 177.435251 
L 193.869474 172.833607 
L 196.24709 165.66706 
L 198.703959 169.913329 
L 201.160829 167.812435 
L 203.459191 167.407101 
L 205.916061 166.711537 
L 208.293676 165.342334 
L 210.750546 164.852538 
L 213.128162 161.564259 
L 215.585031 158.954726 
L 218.041901 157.57694 
L 220.419517 156.449737 
L 222.876386 153.551856 
L 225.254002 155.29389 
L 227.710872 157.823539 
L 230.167741 154.607095 
L 232.386849 145.859484 
L 234.843719 152.23885 
L 237.221335 149.748618 
L 239.678204 153.103007 
L 242.05582 154.157557 
L 244.51269 149.719597 
L 246.969559 156.346609 
L 249.347175 157.348306 
L 254.18166 164.289098 
L 256.63853 161.487042 
L 259.0954 166.604224 
L 261.314508 162.515019 
L 263.771377 166.295795 
L 266.148993 169.058332 
L 268.605863 171.293998 
L 270.983478 168.898603 
L 273.440348 168.759927 
L 275.897218 177.676311 
L 278.274833 170.381248 
L 280.731703 189.414507 
L 283.109319 188.688131 
L 285.566188 199.08913 
L 288.023058 198.181421 
L 290.242166 195.856126 
L 292.699036 197.898113 
L 295.076651 190.991313 
L 297.533521 194.367618 
L 299.911137 195.556565 
L 302.368006 200.424973 
L 304.824876 200.965822 
L 307.202492 200.061301 
L 309.659361 197.249067 
L 312.036977 204.159698 
L 314.493847 202.015189 
L 316.950716 199.66344 
L 319.249078 201.776007 
L 321.705948 196.131838 
L 324.083564 203.250201 
L 326.540433 200.838185 
L 328.918049 203.763783 
L 331.374919 195.237757 
L 333.831788 196.460997 
L 336.209404 189.610155 
L 338.666274 193.458327 
L 341.043889 192.75044 
L 343.500759 188.314453 
L 345.957629 189.463236 
L 348.176737 189.214961 
L 350.633606 189.179404 
L 353.011222 191.317953 
L 355.468092 190.08023 
L 357.845707 190.225315 
L 360.302577 193.991672 
L 362.759447 190.034361 
L 365.137062 189.255145 
L 367.593932 192.209905 
L 369.971548 188.746694 
L 372.428417 186.554632 
L 374.885287 188.22961 
L 377.104395 187.127023 
L 379.561265 185.573814 
L 381.93888 184.393794 
L 384.39575 183.940405 
L 386.773366 183.342489 
L 391.687105 183.966361 
L 394.064721 179.884378 
L 396.52159 178.936319 
L 398.899206 179.205479 
L 401.356076 178.874822 
L 403.812945 179.366649 
L 406.032053 180.632834 
L 408.488923 179.677022 
L 410.866539 175.316255 
L 413.323408 178.762903 
L 415.701024 180.764409 
L 418.157894 178.314874 
L 420.614763 180.548649 
L 422.992379 179.176121 
L 425.449249 166.688288 
L 427.826864 167.563187 
L 430.283734 166.939344 
L 432.740604 165.276484 
L 435.038966 166.476696 
L 437.495835 166.250426 
L 439.873451 170.097392 
L 442.330321 166.619159 
L 444.707936 166.648747 
L 447.164806 163.545672 
L 449.621676 163.93843 
L 451.999291 163.050059 
L 454.456161 162.610906 
L 456.833777 160.815744 
L 459.290646 154.000868 
L 461.747516 154.308217 
L 463.966624 156.779543 
L 466.423494 156.405379 
L 468.801109 146.72341 
L 471.257979 139.884924 
L 473.635595 138.653468 
L 476.092464 138.333142 
L 480.92695 138.132238 
L 483.383819 134.342985 
L 488.218305 136.288259 
L 490.675174 142.021817 
L 492.894282 129.31682 
L 495.351152 120.913365 
L 497.728768 117.641844 
L 500.185637 122.302575 
L 502.563253 122.063972 
L 505.020123 120.144399 
L 507.476992 122.412249 
L 509.854608 123.443209 
L 512.311478 125.274739 
L 514.689093 124.709661 
L 517.145963 116.636426 
L 519.602833 121.384719 
L 521.821941 121.160997 
L 524.27881 118.923953 
L 526.656426 120.19889 
L 529.113296 117.347893 
L 531.490911 116.762965 
L 533.947781 118.391164 
L 536.404651 124.092265 
L 538.782266 135.003315 
L 541.239136 136.035744 
L 543.616752 132.75756 
L 546.073621 132.387897 
L 548.530491 127.063561 
L 550.828853 143.042257 
L 553.285723 134.635765 
L 555.663338 136.591685 
L 558.120208 142.88041 
L 560.497824 140.696437 
L 562.954693 128.864423 
L 565.411563 148.021704 
L 567.789179 144.982812 
L 570.246048 151.658807 
L 572.623664 153.683764 
L 575.080534 165.526737 
L 577.537403 179.344419 
L 579.756511 169.603503 
L 582.213381 165.690593 
L 584.590997 173.516588 
L 587.047866 180.086282 
L 589.425482 184.120017 
L 591.882352 183.30947 
L 594.339221 181.134944 
L 596.716837 188.078757 
L 599.173707 189.115797 
L 601.551322 186.852049 
L 604.008192 187.01321 
L 606.465062 185.26746 
L 608.68417 185.575135 
L 611.141039 184.331814 
L 613.518655 185.561023 
L 615.975525 187.554274 
L 618.35314 189.283953 
L 620.81001 189.853992 
L 623.26688 191.542738 
L 625.644495 190.714307 
L 628.101365 192.180316 
L 630.478981 191.833281 
L 632.93585 190.391355 
L 635.39272 191.613053 
L 637.611828 192.260268 
L 640.068698 191.444746 
L 642.446313 191.882076 
L 644.903183 190.876491 
L 647.280799 189.230632 
L 649.737668 189.399678 
L 652.194538 190.917287 
L 654.572154 192.002755 
L 657.029023 186.394943 
L 659.406639 191.807246 
L 661.863509 191.727556 
L 664.320378 190.09341 
L 666.61874 192.413624 
L 669.07561 190.539258 
L 671.453226 192.489324 
L 673.910095 193.749474 
L 676.287711 190.727733 
L 678.744581 193.108019 
L 681.20145 190.732895 
L 683.579066 190.221235 
L 686.035936 188.963005 
L 688.413551 191.687881 
L 690.870421 187.991348 
L 693.327291 189.650038 
L 695.546399 186.83622 
L 698.003268 189.525133 
L 700.380884 190.685633 
L 702.837754 187.914569 
L 705.215369 190.178043 
L 707.672239 189.333171 
L 710.129109 188.110249 
L 712.506724 187.891358 
L 714.963594 189.461313 
L 717.34121 191.498529 
L 719.798079 189.531369 
L 722.254949 187.125174 
L 724.474057 186.732059 
L 726.930927 184.370367 
L 729.308542 181.247313 
L 731.765412 175.056264 
L 734.143028 176.940107 
L 736.599897 176.957177 
L 739.056767 177.455129 
L 741.434383 174.260019 
L 743.891252 177.666391 
L 746.268868 177.124304 
L 748.725738 175.4471 
L 751.182607 181.552174 
L 753.401715 177.051519 
L 755.858585 183.082315 
L 758.236201 183.866939 
L 760.69307 181.572925 
L 763.070686 180.885737 
L 765.527556 180.327839 
L 767.984425 175.235086 
L 770.362041 176.682988 
L 772.818911 176.647796 
L 775.196526 180.679821 
L 777.653396 180.85541 
L 780.110266 182.187215 
L 782.408628 178.455473 
L 784.865497 181.813429 
L 787.243113 182.204564 
L 789.699983 183.970283 
L 792.077598 189.419469 
L 794.534468 187.748257 
L 796.991338 181.112948 
L 799.368953 183.25305 
L 801.825823 172.78744 
L 804.203439 163.16676 
L 806.660308 154.541323 
L 809.117178 157.196666 
L 811.336286 156.570795 
L 813.793156 157.292212 
L 816.170771 156.578392 
L 818.627641 156.280016 
L 821.005257 150.834753 
L 823.462126 151.268363 
L 825.918996 149.257866 
L 828.296612 146.968578 
L 830.753481 149.102327 
L 833.131097 149.477578 
L 835.587967 151.281578 
L 840.263944 152.571256 
L 842.720814 154.248514 
L 845.09843 152.307988 
L 847.555299 154.473612 
L 849.932915 155.81926 
L 852.389785 153.159046 
L 854.846654 153.649478 
L 857.22427 155.235495 
L 859.68114 150.556204 
L 862.058755 151.191937 
L 864.515625 149.38406 
L 864.515625 149.38406 
" clip-path="url(#p97c2be142e)" style="fill: none; stroke: #d55e00; stroke-width: 2; stroke-linecap: square"/>
   </g>
   <g id="patch_3">
    <path d="M 27.515625 238.70175 
L 27.515625 16.94175 
" style="fill: none; stroke: #000000; stroke-width: 0.8; stroke-linejoin: miter; stroke-linecap: square"/>
   </g>
   <g id="patch_4">
    <path d="M 27.515625 238.70175 
L 864.515625 238.70175 
" style="fill: none; stroke: #000000; stroke-width: 0.8; stroke-linejoin: miter; stroke-linecap: square"/>
   </g>
   <g id="text_15">
    <!-- 5_Industry_Portfolios - Portfolio Allocation for Empirical Bayes -->
    <g transform="translate(224.658375 10.94175) scale(0.144 -0.144)">
     <defs>
      <path id="DejaVuSans-5f" d="M 3263 -1063 
L 3263 -1509 
L -63 -1509 
L -63 -1063 
L 3263 -1063 
z
" transform="scale(0.015625)"/>
      <path id="DejaVuSans-49" d="M 628 4666 
L 1259 4666 
L 1259 0 
L 628 0 
L 628 4666 
z
" transform="scale(0.015625)"/>
      <path id="DejaVuSans-6e" d="M 3513 2113 
L 3513 0 
L 2938 0 
L 2938 2094 
Q 2938 2591 2744 2837 
Q 2550 3084 2163 3084 
Q 1697 3084 1428 2787 
Q 1159 2491 1159 1978 
L 1159 0 
L 581 0 
L 581 3500 
L 1159 3500 
L 1159 2956 
Q 1366 3272 1645 3428 
Q 1925 3584 2291 3584 
Q 2894 3584 3203 3211 
Q 3513 2838 3513 2113 
z
" transform="scale(0.015625)"/>
      <path id="DejaVuSans-64" d="M 2906 2969 
L 2906 4863 
L 3481 4863 
L 3481 0 
L 2906 0 
L 2906 525 
Q 2725 213 2448 61 
Q 2172 -91 1784 -91 
Q 1150 -91 751 415 
Q 353 922 353 1747 
Q 353 2572 751 3078 
Q 1150 3584 1784 3584 
Q 2172 3584 2448 3432 
Q 2725 3281 2906 2969 
z
M 947 1747 
Q 947 1113 1208 752 
Q 1469 391 1925 391 
Q 2381 391 2643 752 
Q 2906 1113 2906 1747 
Q 2906 2381 2643 2742 
Q 2381 3103 1925 3103 
Q 1469 3103 1208 2742 
Q 947 2381 947 1747 
z
" transform="scale(0.015625)"/>
      <path id="DejaVuSans-75" d="M 544 1381 
L 544 3500 
L 1119 3500 
L 1119 1403 
Q 1119 906 1312 657 
Q 1506 409 1894 409 
Q 2359 409 2629 706 
Q 2900 1003 2900 1516 
L 2900 3500 
L 3475 3500 
L 3475 0 
L 2900 0 
L 2900 538 
Q 2691 219 2414 64 
Q 2138 -91 1772 -91 
Q 1169 -91 856 284 
Q 544 659 544 1381 
z
M 1991 3584 
L 1991 3584 
z
" transform="scale(0.015625)"/>
      <path id="DejaVuSans-73" d="M 2834 3397 
L 2834 2853 
Q 2591 2978 2328 3040 
Q 2066 3103 1784 3103 
Q 1356 3103 1142 2972 
Q 928 2841 928 2578 
Q 928 2378 1081 2264 
Q 1234 2150 1697 2047 
L 1894 2003 
Q 2506 1872 2764 1633 
Q 3022 1394 3022 966 
Q 3022 478 2636 193 
Q 2250 -91 1575 -91 
Q 1294 -91 989 -36 
Q 684 19 347 128 
L 347 722 
Q 666 556 975 473 
Q 1284 391 1588 391 
Q 1994 391 2212 530 
Q 2431 669 2431 922 
Q 2431 1156 2273 1281 
Q 2116 1406 1581 1522 
L 1381 1569 
Q 847 1681 609 1914 
Q 372 2147 372 2553 
Q 372 3047 722 3315 
Q 1072 3584 1716 3584 
Q 2034 3584 2315 3537 
Q 2597 3491 2834 3397 
z
" transform="scale(0.015625)"/>
      <path id="DejaVuSans-74" d="M 1172 4494 
L 1172 3500 
L 2356 3500 
L 2356 3053 
L 1172 3053 
L 1172 1153 
Q 1172 725 1289 603 
Q 1406 481 1766 481 
L 2356 481 
L 2356 0 
L 1766 0 
Q 1100 0 847 248 
Q 594 497 594 1153 
L 594 3053 
L 172 3053 
L 172 3500 
L 594 3500 
L 594 4494 
L 1172 4494 
z
" transform="scale(0.015625)"/>
      <path id="DejaVuSans-72" d="M 2631 2963 
Q 2534 3019 2420 3045 
Q 2306 3072 2169 3072 
Q 1681 3072 1420 2755 
Q 1159 2438 1159 1844 
L 1159 0 
L 581 0 
L 581 3500 
L 1159 3500 
L 1159 2956 
Q 1341 3275 1631 3429 
Q 1922 3584 2338 3584 
Q 2397 3584 2469 3576 
Q 2541 3569 2628 3553 
L 2631 2963 
z
" transform="scale(0.015625)"/>
      <path id="DejaVuSans-79" d="M 2059 -325 
Q 1816 -950 1584 -1140 
Q 1353 -1331 966 -1331 
L 506 -1331 
L 506 -850 
L 844 -850 
Q 1081 -850 1212 -737 
Q 1344 -625 1503 -206 
L 1606 56 
L 191 3500 
L 800 3500 
L 1894 763 
L 2988 3500 
L 3597 3500 
L 2059 -325 
z
" transform="scale(0.015625)"/>
      <path id="DejaVuSans-50" d="M 1259 4147 
L 1259 2394 
L 2053 2394 
Q 2494 2394 2734 2622 
Q 2975 2850 2975 3272 
Q 2975 3691 2734 3919 
Q 2494 4147 2053 4147 
L 1259 4147 
z
M 628 4666 
L 2053 4666 
Q 2838 4666 3239 4311 
Q 3641 3956 3641 3272 
Q 3641 2581 3239 2228 
Q 2838 1875 2053 1875 
L 1259 1875 
L 1259 0 
L 628 0 
L 628 4666 
z
" transform="scale(0.015625)"/>
      <path id="DejaVuSans-6f" d="M 1959 3097 
Q 1497 3097 1228 2736 
Q 959 2375 959 1747 
Q 959 1119 1226 758 
Q 1494 397 1959 397 
Q 2419 397 2687 759 
Q 2956 1122 2956 1747 
Q 2956 2369 2687 2733 
Q 2419 3097 1959 3097 
z
M 1959 3584 
Q 2709 3584 3137 3096 
Q 3566 2609 3566 1747 
Q 3566 888 3137 398 
Q 2709 -91 1959 -91 
Q 1206 -91 779 398 
Q 353 888 353 1747 
Q 353 2609 779 3096 
Q 1206 3584 1959 3584 
z
" transform="scale(0.015625)"/>
      <path id="DejaVuSans-66" d="M 2375 4863 
L 2375 4384 
L 1825 4384 
Q 1516 4384 1395 4259 
Q 1275 4134 1275 3809 
L 1275 3500 
L 2222 3500 
L 2222 3053 
L 1275 3053 
L 1275 0 
L 697 0 
L 697 3053 
L 147 3053 
L 147 3500 
L 697 3500 
L 697 3744 
Q 697 4328 969 4595 
Q 1241 4863 1831 4863 
L 2375 4863 
z
" transform="scale(0.015625)"/>
      <path id="DejaVuSans-6c" d="M 603 4863 
L 1178 4863 
L 1178 0 
L 603 0 
L 603 4863 
z
" transform="scale(0.015625)"/>
      <path id="DejaVuSans-69" d="M 603 3500 
L 1178 3500 
L 1178 0 
L 603 0 
L 603 3500 
z
M 603 4863 
L 1178 4863 
L 1178 4134 
L 603 4134 
L 603 4863 
z
" transform="scale(0.015625)"/>
      <path id="DejaVuSans-20" transform="scale(0.015625)"/>
      <path id="DejaVuSans-2d" d="M 313 2009 
L 1997 2009 
L 1997 1497 
L 313 1497 
L 313 2009 
z
" transform="scale(0.015625)"/>
      <path id="DejaVuSans-41" d="M 2188 4044 
L 1331 1722 
L 3047 1722 
L 2188 4044 
z
M 1831 4666 
L 2547 4666 
L 4325 0 
L 3669 0 
L 3244 1197 
L 1141 1197 
L 716 0 
L 50 0 
L 1831 4666 
z
" transform="scale(0.015625)"/>
      <path id="DejaVuSans-63" d="M 3122 3366 
L 3122 2828 
Q 2878 2963 2633 3030 
Q 2388 3097 2138 3097 
Q 1578 3097 1268 2742 
Q 959 2388 959 1747 
Q 959 1106 1268 751 
Q 1578 397 2138 397 
Q 2388 397 2633 464 
Q 2878 531 3122 666 
L 3122 134 
Q 2881 22 2623 -34 
Q 2366 -91 2075 -91 
Q 1284 -91 818 406 
Q 353 903 353 1747 
Q 353 2603 823 3093 
Q 1294 3584 2113 3584 
Q 2378 3584 2631 3529 
Q 2884 3475 3122 3366 
z
" transform="scale(0.015625)"/>
      <path id="DejaVuSans-61" d="M 2194 1759 
Q 1497 1759 1228 1600 
Q 959 1441 959 1056 
Q 959 750 1161 570 
Q 1363 391 1709 391 
Q 2188 391 2477 730 
Q 2766 1069 2766 1631 
L 2766 1759 
L 2194 1759 
z
M 3341 1997 
L 3341 0 
L 2766 0 
L 2766 531 
Q 2569 213 2275 61 
Q 1981 -91 1556 -91 
Q 1019 -91 701 211 
Q 384 513 384 1019 
Q 384 1609 779 1909 
Q 1175 2209 1959 2209 
L 2766 2209 
L 2766 2266 
Q 2766 2663 2505 2880 
Q 2244 3097 1772 3097 
Q 1472 3097 1187 3025 
Q 903 2953 641 2809 
L 641 3341 
Q 956 3463 1253 3523 
Q 1550 3584 1831 3584 
Q 2591 3584 2966 3190 
Q 3341 2797 3341 1997 
z
" transform="scale(0.015625)"/>
      <path id="DejaVuSans-45" d="M 628 4666 
L 3578 4666 
L 3578 4134 
L 1259 4134 
L 1259 2753 
L 3481 2753 
L 3481 2222 
L 1259 2222 
L 1259 531 
L 3634 531 
L 3634 0 
L 628 0 
L 628 4666 
z
" transform="scale(0.015625)"/>
      <path id="DejaVuSans-6d" d="M 3328 2828 
Q 3544 3216 3844 3400 
Q 4144 3584 4550 3584 
Q 5097 3584 5394 3201 
Q 5691 2819 5691 2113 
L 5691 0 
L 5113 0 
L 5113 2094 
Q 5113 2597 4934 2840 
Q 4756 3084 4391 3084 
Q 3944 3084 3684 2787 
Q 3425 2491 3425 1978 
L 3425 0 
L 2847 0 
L 2847 2094 
Q 2847 2600 2669 2842 
Q 2491 3084 2119 3084 
Q 1678 3084 1418 2786 
Q 1159 2488 1159 1978 
L 1159 0 
L 581 0 
L 581 3500 
L 1159 3500 
L 1159 2956 
Q 1356 3278 1631 3431 
Q 1906 3584 2284 3584 
Q 2666 3584 2933 3390 
Q 3200 3197 3328 2828 
z
" transform="scale(0.015625)"/>
      <path id="DejaVuSans-70" d="M 1159 525 
L 1159 -1331 
L 581 -1331 
L 581 3500 
L 1159 3500 
L 1159 2969 
Q 1341 3281 1617 3432 
Q 1894 3584 2278 3584 
Q 2916 3584 3314 3078 
Q 3713 2572 3713 1747 
Q 3713 922 3314 415 
Q 2916 -91 2278 -91 
Q 1894 -91 1617 61 
Q 1341 213 1159 525 
z
M 3116 1747 
Q 3116 2381 2855 2742 
Q 2594 3103 2138 3103 
Q 1681 3103 1420 2742 
Q 1159 2381 1159 1747 
Q 1159 1113 1420 752 
Q 1681 391 2138 391 
Q 2594 391 2855 752 
Q 3116 1113 3116 1747 
z
" transform="scale(0.015625)"/>
      <path id="DejaVuSans-42" d="M 1259 2228 
L 1259 519 
L 2272 519 
Q 2781 519 3026 730 
Q 3272 941 3272 1375 
Q 3272 1813 3026 2020 
Q 2781 2228 2272 2228 
L 1259 2228 
z
M 1259 4147 
L 1259 2741 
L 2194 2741 
Q 2656 2741 2882 2914 
Q 3109 3088 3109 3444 
Q 3109 3797 2882 3972 
Q 2656 4147 2194 4147 
L 1259 4147 
z
M 628 4666 
L 2241 4666 
Q 2963 4666 3353 4366 
Q 3744 4066 3744 3513 
Q 3744 3084 3544 2831 
Q 3344 2578 2956 2516 
Q 3422 2416 3680 2098 
Q 3938 1781 3938 1306 
Q 3938 681 3513 340 
Q 3088 0 2303 0 
L 628 0 
L 628 4666 
z
" transform="scale(0.015625)"/>
      <path id="DejaVuSans-65" d="M 3597 1894 
L 3597 1613 
L 953 1613 
Q 991 1019 1311 708 
Q 1631 397 2203 397 
Q 2534 397 2845 478 
Q 3156 559 3463 722 
L 3463 178 
Q 3153 47 2828 -22 
Q 2503 -91 2169 -91 
Q 1331 -91 842 396 
Q 353 884 353 1716 
Q 353 2575 817 3079 
Q 1281 3584 2069 3584 
Q 2775 3584 3186 3129 
Q 3597 2675 3597 1894 
z
M 3022 2063 
Q 3016 2534 2758 2815 
Q 2500 3097 2075 3097 
Q 1594 3097 1305 2825 
Q 1016 2553 972 2059 
L 3022 2063 
z
" transform="scale(0.015625)"/>
     </defs>
     <use xlink:href="#DejaVuSans-35"/>
     <use xlink:href="#DejaVuSans-5f" x="63.623047"/>
     <use xlink:href="#DejaVuSans-49" x="113.623047"/>
     <use xlink:href="#DejaVuSans-6e" x="143.115234"/>
     <use xlink:href="#DejaVuSans-64" x="206.494141"/>
     <use xlink:href="#DejaVuSans-75" x="269.970703"/>
     <use xlink:href="#DejaVuSans-73" x="333.349609"/>
     <use xlink:href="#DejaVuSans-74" x="385.449219"/>
     <use xlink:href="#DejaVuSans-72" x="424.658203"/>
     <use xlink:href="#DejaVuSans-79" x="465.771484"/>
     <use xlink:href="#DejaVuSans-5f" x="524.951172"/>
     <use xlink:href="#DejaVuSans-50" x="574.951172"/>
     <use xlink:href="#DejaVuSans-6f" x="631.628906"/>
     <use xlink:href="#DejaVuSans-72" x="692.810547"/>
     <use xlink:href="#DejaVuSans-74" x="733.923828"/>
     <use xlink:href="#DejaVuSans-66" x="773.132812"/>
     <use xlink:href="#DejaVuSans-6f" x="808.337891"/>
     <use xlink:href="#DejaVuSans-6c" x="869.519531"/>
     <use xlink:href="#DejaVuSans-69" x="897.302734"/>
     <use xlink:href="#DejaVuSans-6f" x="925.085938"/>
     <use xlink:href="#DejaVuSans-73" x="986.267578"/>
     <use xlink:href="#DejaVuSans-20" x="1038.367188"/>
     <use xlink:href="#DejaVuSans-2d" x="1070.154297"/>
     <use xlink:href="#DejaVuSans-20" x="1106.238281"/>
     <use xlink:href="#DejaVuSans-50" x="1138.025391"/>
     <use xlink:href="#DejaVuSans-6f" x="1194.703125"/>
     <use xlink:href="#DejaVuSans-72" x="1255.884766"/>
     <use xlink:href="#DejaVuSans-74" x="1296.998047"/>
     <use xlink:href="#DejaVuSans-66" x="1336.207031"/>
     <use xlink:href="#DejaVuSans-6f" x="1371.412109"/>
     <use xlink:href="#DejaVuSans-6c" x="1432.59375"/>
     <use xlink:href="#DejaVuSans-69" x="1460.376953"/>
     <use xlink:href="#DejaVuSans-6f" x="1488.160156"/>
     <use xlink:href="#DejaVuSans-20" x="1549.341797"/>
     <use xlink:href="#DejaVuSans-41" x="1581.128906"/>
     <use xlink:href="#DejaVuSans-6c" x="1649.537109"/>
     <use xlink:href="#DejaVuSans-6c" x="1677.320312"/>
     <use xlink:href="#DejaVuSans-6f" x="1705.103516"/>
     <use xlink:href="#DejaVuSans-63" x="1766.285156"/>
     <use xlink:href="#DejaVuSans-61" x="1821.265625"/>
     <use xlink:href="#DejaVuSans-74" x="1882.544922"/>
     <use xlink:href="#DejaVuSans-69" x="1921.753906"/>
     <use xlink:href="#DejaVuSans-6f" x="1949.537109"/>
     <use xlink:href="#DejaVuSans-6e" x="2010.71875"/>
     <use xlink:href="#DejaVuSans-20" x="2074.097656"/>
     <use xlink:href="#DejaVuSans-66" x="2105.884766"/>
     <use xlink:href="#DejaVuSans-6f" x="2141.089844"/>
     <use xlink:href="#DejaVuSans-72" x="2202.271484"/>
     <use xlink:href="#DejaVuSans-20" x="2243.384766"/>
     <use xlink:href="#DejaVuSans-45" x="2275.171875"/>
     <use xlink:href="#DejaVuSans-6d" x="2338.355469"/>
     <use xlink:href="#DejaVuSans-70" x="2435.767578"/>
     <use xlink:href="#DejaVuSans-69" x="2499.244141"/>
     <use xlink:href="#DejaVuSans-72" x="2527.027344"/>
     <use xlink:href="#DejaVuSans-69" x="2568.140625"/>
     <use xlink:href="#DejaVuSans-63" x="2595.923828"/>
     <use xlink:href="#DejaVuSans-61" x="2650.904297"/>
     <use xlink:href="#DejaVuSans-6c" x="2712.183594"/>
     <use xlink:href="#DejaVuSans-20" x="2739.966797"/>
     <use xlink:href="#DejaVuSans-42" x="2771.753906"/>
     <use xlink:href="#DejaVuSans-61" x="2840.357422"/>
     <use xlink:href="#DejaVuSans-79" x="2901.636719"/>
     <use xlink:href="#DejaVuSans-65" x="2960.816406"/>
     <use xlink:href="#DejaVuSans-73" x="3022.339844"/>
    </g>
   </g>
  </g>
 </g>
 <defs>
  <clipPath id="p97c2be142e">
   <rect x="27.515625" y="16.94175" width="837" height="221.76"/>
  </clipPath>
 </defs>
</svg>
