<?xml version="1.0" encoding="utf-8" standalone="no"?>
<!DOCTYPE svg PUBLIC "-//W3C//DTD SVG 1.1//EN"
  "http://www.w3.org/Graphics/SVG/1.1/DTD/svg11.dtd">
<svg xmlns:xlink="http://www.w3.org/1999/xlink" width="856.992188pt" height="253.629875pt" viewBox="0 0 856.992188 253.629875" xmlns="http://www.w3.org/2000/svg" version="1.1">
 <metadata>
  <rdf:RDF xmlns:dc="http://purl.org/dc/elements/1.1/" xmlns:cc="http://creativecommons.org/ns#" xmlns:rdf="http://www.w3.org/1999/02/22-rdf-syntax-ns#">
   <cc:Work>
    <dc:type rdf:resource="http://purl.org/dc/dcmitype/StillImage"/>
    <dc:date>2025-08-06T21:52:45.231541</dc:date>
    <dc:format>image/svg+xml</dc:format>
    <dc:creator>
     <cc:Agent>
      <dc:title>Matplotlib v3.9.2, https://matplotlib.org/</dc:title>
     </cc:Agent>
    </dc:creator>
   </cc:Work>
  </rdf:RDF>
 </metadata>
 <defs>
  <style type="text/css">*{stroke-linejoin: round; stroke-linecap: butt}</style>
 </defs>
 <g id="figure_1">
  <g id="patch_1">
   <path d="M 0 253.629875 
L 856.992188 253.629875 
L 856.992188 0 
L 0 0 
z
" style="fill: #ffffff"/>
  </g>
  <g id="axes_1">
   <g id="patch_2">
    <path d="M 19.992188 238.70175 
L 856.992188 238.70175 
L 856.992188 16.94175 
L 19.992188 16.94175 
z
" style="fill: #ffffff"/>
   </g>
   <g id="matplotlib.axis_1">
    <g id="xtick_1">
     <g id="line2d_1">
      <defs>
       <path id="m73074b5148" d="M 0 1.75 
L 0 -1.75 
" style="stroke: #000000; stroke-width: 0.8"/>
      </defs>
      <g>
       <use xlink:href="#m73074b5148" x="75.469888" y="238.70175" style="stroke: #000000; stroke-width: 0.8"/>
      </g>
     </g>
     <g id="text_1">
      <!-- 1992 -->
      <g transform="translate(62.744888 251.550188) scale(0.1 -0.1)">
       <defs>
        <path id="DejaVuSans-31" d="M 794 531 
L 1825 531 
L 1825 4091 
L 703 3866 
L 703 4441 
L 1819 4666 
L 2450 4666 
L 2450 531 
L 3481 531 
L 3481 0 
L 794 0 
L 794 531 
z
" transform="scale(0.015625)"/>
        <path id="DejaVuSans-39" d="M 703 97 
L 703 672 
Q 941 559 1184 500 
Q 1428 441 1663 441 
Q 2288 441 2617 861 
Q 2947 1281 2994 2138 
Q 2813 1869 2534 1725 
Q 2256 1581 1919 1581 
Q 1219 1581 811 2004 
Q 403 2428 403 3163 
Q 403 3881 828 4315 
Q 1253 4750 1959 4750 
Q 2769 4750 3195 4129 
Q 3622 3509 3622 2328 
Q 3622 1225 3098 567 
Q 2575 -91 1691 -91 
Q 1453 -91 1209 -44 
Q 966 3 703 97 
z
M 1959 2075 
Q 2384 2075 2632 2365 
Q 2881 2656 2881 3163 
Q 2881 3666 2632 3958 
Q 2384 4250 1959 4250 
Q 1534 4250 1286 3958 
Q 1038 3666 1038 3163 
Q 1038 2656 1286 2365 
Q 1534 2075 1959 2075 
z
" transform="scale(0.015625)"/>
        <path id="DejaVuSans-32" d="M 1228 531 
L 3431 531 
L 3431 0 
L 469 0 
L 469 531 
Q 828 903 1448 1529 
Q 2069 2156 2228 2338 
Q 2531 2678 2651 2914 
Q 2772 3150 2772 3378 
Q 2772 3750 2511 3984 
Q 2250 4219 1831 4219 
Q 1534 4219 1204 4116 
Q 875 4013 500 3803 
L 500 4441 
Q 881 4594 1212 4672 
Q 1544 4750 1819 4750 
Q 2544 4750 2975 4387 
Q 3406 4025 3406 3419 
Q 3406 3131 3298 2873 
Q 3191 2616 2906 2266 
Q 2828 2175 2409 1742 
Q 1991 1309 1228 531 
z
" transform="scale(0.015625)"/>
       </defs>
       <use xlink:href="#DejaVuSans-31"/>
       <use xlink:href="#DejaVuSans-39" x="63.623047"/>
       <use xlink:href="#DejaVuSans-39" x="127.246094"/>
       <use xlink:href="#DejaVuSans-32" x="190.869141"/>
      </g>
     </g>
    </g>
    <g id="xtick_2">
     <g id="line2d_2">
      <g>
       <use xlink:href="#m73074b5148" x="191.259776" y="238.70175" style="stroke: #000000; stroke-width: 0.8"/>
      </g>
     </g>
     <g id="text_2">
      <!-- 1996 -->
      <g transform="translate(178.534776 251.550188) scale(0.1 -0.1)">
       <defs>
        <path id="DejaVuSans-36" d="M 2113 2584 
Q 1688 2584 1439 2293 
Q 1191 2003 1191 1497 
Q 1191 994 1439 701 
Q 1688 409 2113 409 
Q 2538 409 2786 701 
Q 3034 994 3034 1497 
Q 3034 2003 2786 2293 
Q 2538 2584 2113 2584 
z
M 3366 4563 
L 3366 3988 
Q 3128 4100 2886 4159 
Q 2644 4219 2406 4219 
Q 1781 4219 1451 3797 
Q 1122 3375 1075 2522 
Q 1259 2794 1537 2939 
Q 1816 3084 2150 3084 
Q 2853 3084 3261 2657 
Q 3669 2231 3669 1497 
Q 3669 778 3244 343 
Q 2819 -91 2113 -91 
Q 1303 -91 875 529 
Q 447 1150 447 2328 
Q 447 3434 972 4092 
Q 1497 4750 2381 4750 
Q 2619 4750 2861 4703 
Q 3103 4656 3366 4563 
z
" transform="scale(0.015625)"/>
       </defs>
       <use xlink:href="#DejaVuSans-31"/>
       <use xlink:href="#DejaVuSans-39" x="63.623047"/>
       <use xlink:href="#DejaVuSans-39" x="127.246094"/>
       <use xlink:href="#DejaVuSans-36" x="190.869141"/>
      </g>
     </g>
    </g>
    <g id="xtick_3">
     <g id="line2d_3">
      <g>
       <use xlink:href="#m73074b5148" x="307.049663" y="238.70175" style="stroke: #000000; stroke-width: 0.8"/>
      </g>
     </g>
     <g id="text_3">
      <!-- 2000 -->
      <g transform="translate(294.324663 251.550188) scale(0.1 -0.1)">
       <defs>
        <path id="DejaVuSans-30" d="M 2034 4250 
Q 1547 4250 1301 3770 
Q 1056 3291 1056 2328 
Q 1056 1369 1301 889 
Q 1547 409 2034 409 
Q 2525 409 2770 889 
Q 3016 1369 3016 2328 
Q 3016 3291 2770 3770 
Q 2525 4250 2034 4250 
z
M 2034 4750 
Q 2819 4750 3233 4129 
Q 3647 3509 3647 2328 
Q 3647 1150 3233 529 
Q 2819 -91 2034 -91 
Q 1250 -91 836 529 
Q 422 1150 422 2328 
Q 422 3509 836 4129 
Q 1250 4750 2034 4750 
z
" transform="scale(0.015625)"/>
       </defs>
       <use xlink:href="#DejaVuSans-32"/>
       <use xlink:href="#DejaVuSans-30" x="63.623047"/>
       <use xlink:href="#DejaVuSans-30" x="127.246094"/>
       <use xlink:href="#DejaVuSans-30" x="190.869141"/>
      </g>
     </g>
    </g>
    <g id="xtick_4">
     <g id="line2d_4">
      <g>
       <use xlink:href="#m73074b5148" x="422.83955" y="238.70175" style="stroke: #000000; stroke-width: 0.8"/>
      </g>
     </g>
     <g id="text_4">
      <!-- 2004 -->
      <g transform="translate(410.11455 251.550188) scale(0.1 -0.1)">
       <defs>
        <path id="DejaVuSans-34" d="M 2419 4116 
L 825 1625 
L 2419 1625 
L 2419 4116 
z
M 2253 4666 
L 3047 4666 
L 3047 1625 
L 3713 1625 
L 3713 1100 
L 3047 1100 
L 3047 0 
L 2419 0 
L 2419 1100 
L 313 1100 
L 313 1709 
L 2253 4666 
z
" transform="scale(0.015625)"/>
       </defs>
       <use xlink:href="#DejaVuSans-32"/>
       <use xlink:href="#DejaVuSans-30" x="63.623047"/>
       <use xlink:href="#DejaVuSans-30" x="127.246094"/>
       <use xlink:href="#DejaVuSans-34" x="190.869141"/>
      </g>
     </g>
    </g>
    <g id="xtick_5">
     <g id="line2d_5">
      <g>
       <use xlink:href="#m73074b5148" x="538.629438" y="238.70175" style="stroke: #000000; stroke-width: 0.8"/>
      </g>
     </g>
     <g id="text_5">
      <!-- 2008 -->
      <g transform="translate(525.904438 251.550188) scale(0.1 -0.1)">
       <defs>
        <path id="DejaVuSans-38" d="M 2034 2216 
Q 1584 2216 1326 1975 
Q 1069 1734 1069 1313 
Q 1069 891 1326 650 
Q 1584 409 2034 409 
Q 2484 409 2743 651 
Q 3003 894 3003 1313 
Q 3003 1734 2745 1975 
Q 2488 2216 2034 2216 
z
M 1403 2484 
Q 997 2584 770 2862 
Q 544 3141 544 3541 
Q 544 4100 942 4425 
Q 1341 4750 2034 4750 
Q 2731 4750 3128 4425 
Q 3525 4100 3525 3541 
Q 3525 3141 3298 2862 
Q 3072 2584 2669 2484 
Q 3125 2378 3379 2068 
Q 3634 1759 3634 1313 
Q 3634 634 3220 271 
Q 2806 -91 2034 -91 
Q 1263 -91 848 271 
Q 434 634 434 1313 
Q 434 1759 690 2068 
Q 947 2378 1403 2484 
z
M 1172 3481 
Q 1172 3119 1398 2916 
Q 1625 2713 2034 2713 
Q 2441 2713 2670 2916 
Q 2900 3119 2900 3481 
Q 2900 3844 2670 4047 
Q 2441 4250 2034 4250 
Q 1625 4250 1398 4047 
Q 1172 3844 1172 3481 
z
" transform="scale(0.015625)"/>
       </defs>
       <use xlink:href="#DejaVuSans-32"/>
       <use xlink:href="#DejaVuSans-30" x="63.623047"/>
       <use xlink:href="#DejaVuSans-30" x="127.246094"/>
       <use xlink:href="#DejaVuSans-38" x="190.869141"/>
      </g>
     </g>
    </g>
    <g id="xtick_6">
     <g id="line2d_6">
      <g>
       <use xlink:href="#m73074b5148" x="654.419325" y="238.70175" style="stroke: #000000; stroke-width: 0.8"/>
      </g>
     </g>
     <g id="text_6">
      <!-- 2012 -->
      <g transform="translate(641.694325 251.550188) scale(0.1 -0.1)">
       <use xlink:href="#DejaVuSans-32"/>
       <use xlink:href="#DejaVuSans-30" x="63.623047"/>
       <use xlink:href="#DejaVuSans-31" x="127.246094"/>
       <use xlink:href="#DejaVuSans-32" x="190.869141"/>
      </g>
     </g>
    </g>
    <g id="xtick_7">
     <g id="line2d_7">
      <g>
       <use xlink:href="#m73074b5148" x="770.209212" y="238.70175" style="stroke: #000000; stroke-width: 0.8"/>
      </g>
     </g>
     <g id="text_7">
      <!-- 2016 -->
      <g transform="translate(757.484212 251.550188) scale(0.1 -0.1)">
       <use xlink:href="#DejaVuSans-32"/>
       <use xlink:href="#DejaVuSans-30" x="63.623047"/>
       <use xlink:href="#DejaVuSans-31" x="127.246094"/>
       <use xlink:href="#DejaVuSans-36" x="190.869141"/>
      </g>
     </g>
    </g>
   </g>
   <g id="matplotlib.axis_2">
    <g id="ytick_1">
     <g id="line2d_8">
      <path d="M 19.992188 203.210176 
L 856.992188 203.210176 
" clip-path="url(#pb1947e920a)" style="fill: none; stroke-dasharray: 1.85,0.8; stroke-dashoffset: 0; stroke: #b2b2b2; stroke-width: 0.5"/>
     </g>
     <g id="line2d_9">
      <defs>
       <path id="mf3b74d31df" d="M 1.75 0 
L -1.75 -0 
" style="stroke: #000000; stroke-width: 0.8"/>
      </defs>
      <g>
       <use xlink:href="#mf3b74d31df" x="19.992188" y="203.210176" style="stroke: #000000; stroke-width: 0.8"/>
      </g>
     </g>
     <g id="text_8">
      <!-- −2 -->
      <g transform="translate(0 207.009394) scale(0.1 -0.1)">
       <defs>
        <path id="DejaVuSans-2212" d="M 678 2272 
L 4684 2272 
L 4684 1741 
L 678 1741 
L 678 2272 
z
" transform="scale(0.015625)"/>
       </defs>
       <use xlink:href="#DejaVuSans-2212"/>
       <use xlink:href="#DejaVuSans-32" x="83.789062"/>
      </g>
     </g>
    </g>
    <g id="ytick_2">
     <g id="line2d_10">
      <path d="M 19.992188 163.634871 
L 856.992188 163.634871 
" clip-path="url(#pb1947e920a)" style="fill: none; stroke-dasharray: 1.85,0.8; stroke-dashoffset: 0; stroke: #b2b2b2; stroke-width: 0.5"/>
     </g>
     <g id="line2d_11">
      <g>
       <use xlink:href="#mf3b74d31df" x="19.992188" y="163.634871" style="stroke: #000000; stroke-width: 0.8"/>
      </g>
     </g>
     <g id="text_9">
      <!-- 0 -->
      <g transform="translate(8.379688 167.43409) scale(0.1 -0.1)">
       <use xlink:href="#DejaVuSans-30"/>
      </g>
     </g>
    </g>
    <g id="ytick_3">
     <g id="line2d_12">
      <path d="M 19.992188 124.059566 
L 856.992188 124.059566 
" clip-path="url(#pb1947e920a)" style="fill: none; stroke-dasharray: 1.85,0.8; stroke-dashoffset: 0; stroke: #b2b2b2; stroke-width: 0.5"/>
     </g>
     <g id="line2d_13">
      <g>
       <use xlink:href="#mf3b74d31df" x="19.992188" y="124.059566" style="stroke: #000000; stroke-width: 0.8"/>
      </g>
     </g>
     <g id="text_10">
      <!-- 2 -->
      <g transform="translate(8.379688 127.858785) scale(0.1 -0.1)">
       <use xlink:href="#DejaVuSans-32"/>
      </g>
     </g>
    </g>
    <g id="ytick_4">
     <g id="line2d_14">
      <path d="M 19.992188 84.484262 
L 856.992188 84.484262 
" clip-path="url(#pb1947e920a)" style="fill: none; stroke-dasharray: 1.85,0.8; stroke-dashoffset: 0; stroke: #b2b2b2; stroke-width: 0.5"/>
     </g>
     <g id="line2d_15">
      <g>
       <use xlink:href="#mf3b74d31df" x="19.992188" y="84.484262" style="stroke: #000000; stroke-width: 0.8"/>
      </g>
     </g>
     <g id="text_11">
      <!-- 4 -->
      <g transform="translate(8.379688 88.28348) scale(0.1 -0.1)">
       <use xlink:href="#DejaVuSans-34"/>
      </g>
     </g>
    </g>
    <g id="ytick_5">
     <g id="line2d_16">
      <path d="M 19.992188 44.908957 
L 856.992188 44.908957 
" clip-path="url(#pb1947e920a)" style="fill: none; stroke-dasharray: 1.85,0.8; stroke-dashoffset: 0; stroke: #b2b2b2; stroke-width: 0.5"/>
     </g>
     <g id="line2d_17">
      <g>
       <use xlink:href="#mf3b74d31df" x="19.992188" y="44.908957" style="stroke: #000000; stroke-width: 0.8"/>
      </g>
     </g>
     <g id="text_12">
      <!-- 6 -->
      <g transform="translate(8.379688 48.708176) scale(0.1 -0.1)">
       <use xlink:href="#DejaVuSans-36"/>
      </g>
     </g>
    </g>
   </g>
   <g id="line2d_18">
    <path d="M 19.992188 168.583083 
L 22.211296 170.875291 
L 24.668165 172.111737 
L 27.045781 170.058601 
L 29.502651 169.504242 
L 31.880266 170.328161 
L 34.337136 169.321493 
L 36.794006 171.152801 
L 39.171621 172.512245 
L 41.628491 173.776545 
L 44.006107 175.469927 
L 46.462976 176.95922 
L 48.919846 175.937052 
L 53.595824 174.772275 
L 55.973439 174.055287 
L 58.430309 173.465774 
L 60.807925 172.336529 
L 65.721664 171.067254 
L 68.09928 171.021845 
L 70.556149 174.486588 
L 72.933765 176.307107 
L 75.390635 173.492918 
L 77.847504 171.847475 
L 80.145866 172.778852 
L 82.602736 167.345387 
L 84.980351 164.320055 
L 87.437221 163.015979 
L 89.814837 162.480696 
L 92.271706 162.989375 
L 94.728576 158.824616 
L 97.106192 157.651418 
L 99.563061 160.839823 
L 101.940677 161.447082 
L 104.397547 162.745073 
L 106.854416 162.609644 
L 109.073524 161.788986 
L 111.530394 161.638616 
L 113.90801 160.86676 
L 118.742495 160.294503 
L 126.03385 160.065044 
L 128.49072 160.165545 
L 140.458052 159.860561 
L 145.292538 159.735003 
L 147.670154 159.448198 
L 150.127023 158.635842 
L 152.583893 158.401515 
L 154.961509 158.621668 
L 157.418378 158.585939 
L 159.795994 159.252351 
L 162.252864 159.581346 
L 164.709733 159.407249 
L 166.928841 159.056487 
L 169.385711 159.06273 
L 171.763327 159.44433 
L 174.220196 159.421615 
L 176.597812 159.69434 
L 179.054682 159.682036 
L 183.889167 159.943161 
L 186.346037 160.40369 
L 188.723652 160.193135 
L 191.180522 160.496346 
L 193.637392 160.603807 
L 195.935753 160.392511 
L 198.392623 160.293612 
L 200.770239 159.888118 
L 203.227108 159.826667 
L 205.604724 160.005908 
L 208.061594 159.85141 
L 210.518463 159.912681 
L 215.352949 159.652342 
L 217.730565 159.01908 
L 220.187434 158.811268 
L 222.644304 159.050107 
L 224.863412 157.51738 
L 229.697897 157.309992 
L 234.532383 157.707981 
L 236.989252 157.392116 
L 239.446122 157.343157 
L 241.823738 157.065431 
L 246.658223 157.109227 
L 249.115093 157.156549 
L 251.571962 157.520837 
L 253.79107 157.402015 
L 256.24794 157.673568 
L 258.625556 158.498141 
L 261.082425 158.603797 
L 265.916911 157.538421 
L 268.37378 157.376687 
L 270.751396 156.841948 
L 273.208266 157.865102 
L 275.585881 156.721534 
L 278.042751 156.639501 
L 280.499621 156.797992 
L 282.718729 156.773761 
L 287.553214 157.279658 
L 290.010084 155.934802 
L 292.387699 155.375217 
L 294.844569 155.097942 
L 297.301439 155.166434 
L 302.135924 154.516496 
L 306.970409 154.902197 
L 309.427279 155.238236 
L 311.725641 154.698959 
L 314.18251 154.385451 
L 316.560126 155.509114 
L 319.016996 155.217518 
L 321.394612 155.698313 
L 323.851481 155.210394 
L 326.308351 155.83306 
L 328.685966 156.579481 
L 331.142836 156.228275 
L 333.520452 156.682178 
L 338.434191 156.951832 
L 343.110169 157.636569 
L 345.487785 158.18079 
L 347.944654 159.701033 
L 350.32227 158.967797 
L 352.779139 159.322405 
L 355.236009 161.516672 
L 357.613625 158.88844 
L 360.070494 160.244084 
L 362.44811 163.139482 
L 364.90498 161.610233 
L 367.361849 161.546853 
L 369.580958 161.339082 
L 372.037827 162.374139 
L 374.415443 161.383411 
L 376.872312 160.029979 
L 379.249928 161.804137 
L 381.706798 164.57859 
L 384.163667 172.086491 
L 386.541283 183.751091 
L 388.998153 171.962531 
L 391.375769 175.941263 
L 396.289508 191.33666 
L 398.508616 190.428663 
L 400.965485 210.430293 
L 403.343101 200.080342 
L 405.799971 202.247945 
L 408.177587 238.70175 
L 410.634456 212.769882 
L 413.091326 214.837928 
L 415.468942 193.442511 
L 417.925811 177.010687 
L 420.303427 182.832124 
L 422.760297 189.263234 
L 425.217166 188.646643 
L 427.515528 178.118185 
L 429.972398 171.052203 
L 432.350013 169.316076 
L 434.806883 170.99995 
L 437.184499 173.215435 
L 439.641368 172.455362 
L 442.098238 168.927915 
L 446.932723 166.571393 
L 449.310339 163.297583 
L 451.767209 164.269373 
L 454.224078 161.344248 
L 456.443186 160.971951 
L 458.900056 159.934045 
L 461.277672 157.419394 
L 463.734541 157.583023 
L 468.569027 159.137335 
L 471.025896 157.389612 
L 473.403512 157.604767 
L 475.860382 157.967884 
L 480.694867 158.146293 
L 483.151737 158.018449 
L 485.370845 158.768263 
L 487.827714 158.905407 
L 490.20533 159.250243 
L 495.039816 159.315936 
L 497.496685 159.534084 
L 499.953555 159.322618 
L 502.331171 158.744779 
L 504.78804 159.063724 
L 512.079395 158.551834 
L 514.298503 158.557968 
L 516.755373 158.962036 
L 519.132989 158.769056 
L 521.589858 158.935649 
L 528.881213 158.745809 
L 531.258829 157.872079 
L 538.550184 157.423708 
L 541.007054 156.545474 
L 543.305415 156.962802 
L 545.762285 155.351805 
L 550.59677 154.674447 
L 552.974386 155.384846 
L 555.431256 155.311729 
L 557.888125 154.339289 
L 560.265741 154.932256 
L 562.722611 155.364457 
L 565.100227 154.569035 
L 567.557096 155.950789 
L 570.013966 154.673821 
L 572.233074 154.881766 
L 574.689943 151.978645 
L 577.067559 148.391882 
L 579.524429 151.614766 
L 581.902045 155.60912 
L 584.358914 153.568903 
L 586.815784 155.799267 
L 589.1934 152.304019 
L 591.650269 154.615248 
L 594.027885 154.029218 
L 596.484754 152.092872 
L 598.941624 151.501645 
L 601.160732 151.583556 
L 605.995218 154.556219 
L 608.452087 154.347039 
L 610.829703 149.92207 
L 613.286573 151.458506 
L 615.743442 157.181975 
L 618.121058 157.838199 
L 620.577927 152.134151 
L 622.955543 147.691525 
L 625.412413 145.582202 
L 627.869282 144.211668 
L 630.088391 145.72141 
L 632.54526 149.531248 
L 634.922876 148.747256 
L 637.379745 148.125934 
L 639.757361 146.586409 
L 642.214231 146.324897 
L 644.6711 146.651329 
L 647.048716 146.140465 
L 649.505586 145.085254 
L 651.883202 145.202679 
L 654.340071 145.065237 
L 656.796941 143.261807 
L 659.095303 143.000103 
L 661.552172 145.015661 
L 663.929788 145.551758 
L 668.764273 146.250921 
L 671.221143 145.747101 
L 673.678013 145.640164 
L 676.055628 143.509773 
L 678.512498 144.007954 
L 683.346983 143.959022 
L 685.803853 144.454032 
L 688.022961 146.088803 
L 690.479831 145.672189 
L 692.857446 145.900427 
L 697.691932 144.718379 
L 700.148801 147.162323 
L 702.605671 145.946278 
L 704.983287 145.62055 
L 707.440156 148.591351 
L 709.817772 149.034383 
L 712.274642 146.073606 
L 714.731511 146.019881 
L 716.950619 146.729347 
L 719.407489 149.21365 
L 721.785105 150.417885 
L 726.61959 150.649991 
L 731.533329 150.903587 
L 733.910945 151.837909 
L 736.367815 151.525788 
L 741.2023 151.597317 
L 743.65917 153.718438 
L 748.335147 154.071089 
L 753.169633 153.91511 
L 755.547249 154.208048 
L 758.004118 154.949185 
L 760.460988 153.432118 
L 762.838604 153.439277 
L 765.295473 153.297034 
L 767.673089 152.804651 
L 770.129959 151.549298 
L 772.586828 151.173094 
L 774.88519 151.143521 
L 777.34206 149.749312 
L 779.719675 150.126355 
L 782.176545 149.758893 
L 784.554161 150.860657 
L 787.01103 151.116436 
L 789.4679 150.818822 
L 791.845516 150.300518 
L 794.302385 151.451128 
L 796.680001 152.369021 
L 799.136871 154.090024 
L 801.59374 153.491777 
L 803.812848 153.547286 
L 806.269718 153.917975 
L 808.647334 153.731544 
L 811.104203 154.345649 
L 813.481819 154.142262 
L 815.938689 154.093753 
L 818.395558 154.826786 
L 820.773174 154.622419 
L 823.230044 155.144206 
L 825.60766 155.227129 
L 828.064529 154.944112 
L 830.521399 155.550945 
L 832.740507 155.576648 
L 835.197376 155.750475 
L 840.031862 157.083475 
L 842.409478 156.95862 
L 847.323217 156.941277 
L 849.700833 157.24773 
L 852.157702 156.472131 
L 856.992188 157.278372 
L 856.992188 157.278372 
" clip-path="url(#pb1947e920a)" style="fill: none; stroke: #e69f00; stroke-width: 2; stroke-linecap: square"/>
   </g>
   <g id="line2d_19">
    <path d="M 19.992188 150.024467 
L 22.211296 148.555726 
L 24.668165 147.456754 
L 27.045781 149.488033 
L 29.502651 149.995106 
L 31.880266 149.258342 
L 34.337136 148.79885 
L 36.794006 146.808027 
L 39.171621 146.691918 
L 41.628491 145.287995 
L 44.006107 144.77279 
L 46.462976 143.20387 
L 48.919846 144.166287 
L 51.138954 144.501417 
L 53.595824 145.522822 
L 55.973439 145.274034 
L 65.721664 147.551585 
L 68.09928 146.863544 
L 70.556149 144.725273 
L 72.933765 143.416939 
L 75.390635 143.946342 
L 77.847504 143.721782 
L 80.145866 142.136909 
L 82.602736 147.862552 
L 84.980351 151.911752 
L 87.437221 153.528109 
L 89.814837 154.541872 
L 92.271706 153.62189 
L 94.728576 161.141658 
L 97.106192 163.664788 
L 99.563061 157.352519 
L 101.940677 156.062528 
L 104.397547 145.185826 
L 106.854416 145.335467 
L 111.530394 148.668787 
L 113.90801 150.24299 
L 116.364879 150.769166 
L 118.742495 153.058378 
L 121.199365 153.498592 
L 123.656234 156.289962 
L 126.03385 156.357292 
L 128.49072 153.846643 
L 130.868336 156.121719 
L 133.325205 156.437036 
L 135.782075 156.236777 
L 138.001183 156.341373 
L 140.458052 157.318116 
L 142.835668 156.470029 
L 145.292538 161.66866 
L 147.670154 163.194074 
L 150.127023 169.854609 
L 152.583893 172.334618 
L 154.961509 172.26815 
L 157.418378 173.252147 
L 159.795994 170.768381 
L 162.252864 165.617037 
L 166.928841 183.769626 
L 169.385711 169.42382 
L 171.763327 166.770563 
L 174.220196 167.019134 
L 176.597812 160.333342 
L 179.054682 161.650884 
L 181.511551 158.207561 
L 186.346037 149.854885 
L 188.723652 149.029246 
L 191.180522 148.53583 
L 193.637392 149.711396 
L 195.935753 150.534837 
L 198.392623 150.735442 
L 200.770239 151.714239 
L 203.227108 152.143657 
L 205.604724 151.480706 
L 208.061594 151.548213 
L 210.518463 151.348037 
L 212.896079 152.662273 
L 217.730565 152.052126 
L 220.187434 151.983631 
L 222.644304 150.217958 
L 224.863412 153.05901 
L 227.320281 152.158843 
L 229.697897 152.784721 
L 232.154767 152.434718 
L 234.532383 151.714519 
L 236.989252 151.640645 
L 239.446122 150.731087 
L 241.823738 150.140128 
L 244.280607 150.32742 
L 246.658223 149.714194 
L 249.115093 150.264187 
L 251.571962 150.176325 
L 256.24794 150.341428 
L 258.625556 148.75004 
L 261.082425 148.767051 
L 263.460041 149.426356 
L 265.916911 150.434187 
L 268.37378 150.378708 
L 270.751396 152.649257 
L 273.208266 151.261634 
L 275.585881 150.818466 
L 278.042751 151.084425 
L 282.718729 149.613566 
L 285.175598 149.75097 
L 287.553214 149.182975 
L 290.010084 150.176236 
L 292.387699 151.643397 
L 294.844569 151.526681 
L 297.301439 150.99665 
L 299.679054 150.722394 
L 302.135924 151.142582 
L 304.51354 152.188778 
L 306.970409 151.601416 
L 311.725641 151.611284 
L 314.18251 150.72665 
L 316.560126 151.221485 
L 319.016996 151.19154 
L 321.394612 152.711302 
L 323.851481 151.890128 
L 326.308351 151.391358 
L 328.685966 153.90051 
L 331.142836 153.168789 
L 333.520452 153.898661 
L 335.977321 153.666144 
L 338.434191 154.8296 
L 340.653299 154.525541 
L 343.110169 156.511837 
L 345.487785 157.001123 
L 347.944654 159.75308 
L 350.32227 158.919417 
L 352.779139 159.433296 
L 355.236009 161.563225 
L 357.613625 158.927014 
L 360.070494 160.226167 
L 362.44811 163.316883 
L 364.90498 161.542694 
L 367.361849 161.744892 
L 369.580958 161.382524 
L 372.037827 162.555929 
L 374.415443 161.576532 
L 376.872312 160.069437 
L 379.249928 161.550423 
L 381.706798 164.301884 
L 384.163667 172.748565 
L 386.541283 186.814321 
L 388.998153 173.14832 
L 391.375769 177.804307 
L 393.832638 187.788658 
L 396.289508 192.080145 
L 398.508616 192.610617 
L 400.965485 215.469499 
L 403.343101 199.625571 
L 405.799971 200.976421 
L 408.177587 235.430842 
L 410.634456 208.446156 
L 413.091326 209.208097 
L 415.468942 193.253662 
L 417.925811 173.771245 
L 420.303427 184.346902 
L 422.760297 185.540658 
L 425.217166 176.752144 
L 427.515528 165.149202 
L 429.972398 163.517718 
L 432.350013 163.369442 
L 434.806883 164.962261 
L 437.184499 166.087038 
L 439.641368 165.972817 
L 442.098238 163.185543 
L 444.475854 163.107899 
L 446.932723 162.537591 
L 449.310339 161.132634 
L 451.767209 160.727077 
L 454.224078 159.806884 
L 456.443186 159.693616 
L 461.277672 159.834031 
L 463.734541 160.08418 
L 466.112157 159.862219 
L 468.569027 159.759385 
L 471.025896 160.203924 
L 473.403512 160.069966 
L 480.694867 160.267105 
L 483.151737 160.089311 
L 487.827714 159.964026 
L 490.20533 159.684071 
L 492.6622 159.856407 
L 495.039816 159.796201 
L 497.496685 159.870926 
L 499.953555 159.756632 
L 502.331171 159.946742 
L 507.165656 159.576458 
L 509.622526 159.996354 
L 512.079395 160.195066 
L 519.132989 159.643177 
L 521.589858 159.450798 
L 523.967474 159.48429 
L 526.424344 159.371833 
L 528.881213 159.763477 
L 531.258829 158.748813 
L 533.715699 158.82404 
L 536.093314 158.711456 
L 538.550184 158.306802 
L 541.007054 158.849616 
L 543.305415 158.181399 
L 545.762285 158.380258 
L 548.139901 157.704239 
L 550.59677 157.996861 
L 552.974386 158.588932 
L 555.431256 159.342747 
L 557.888125 158.669112 
L 560.265741 158.806259 
L 562.722611 158.574282 
L 565.100227 158.707463 
L 567.557096 159.808463 
L 574.689943 158.864275 
L 577.067559 159.056917 
L 579.524429 159.015731 
L 581.902045 159.498411 
L 584.358914 159.252971 
L 586.815784 159.46775 
L 589.1934 159.341333 
L 594.027885 159.530518 
L 598.941624 159.447609 
L 603.617602 159.495648 
L 605.995218 159.225861 
L 608.452087 159.362751 
L 610.829703 158.855895 
L 613.286573 159.081836 
L 615.743442 159.524023 
L 618.121058 159.606647 
L 622.955543 159.145164 
L 625.412413 158.554811 
L 627.869282 158.399272 
L 630.088391 158.6689 
L 634.922876 158.762512 
L 637.379745 158.873208 
L 642.214231 158.417904 
L 644.6711 158.639523 
L 647.048716 158.631074 
L 649.505586 157.847998 
L 651.883202 158.533062 
L 654.340071 158.864471 
L 656.796941 159.008591 
L 659.095303 158.917209 
L 661.552172 159.534319 
L 666.386658 159.529596 
L 668.764273 159.255578 
L 671.221143 159.31913 
L 673.678013 159.267818 
L 676.055628 159.635138 
L 680.890114 159.842438 
L 683.346983 159.490398 
L 685.803853 159.422604 
L 688.022961 159.626202 
L 690.479831 160.00302 
L 695.314316 159.53464 
L 697.691932 159.704333 
L 700.148801 159.72107 
L 704.983287 160.318459 
L 707.440156 160.219483 
L 712.274642 158.845009 
L 714.731511 160.354408 
L 716.950619 160.905548 
L 719.407489 160.876888 
L 721.785105 159.980445 
L 724.241974 161.037043 
L 726.61959 160.62823 
L 731.533329 160.684096 
L 733.910945 161.411543 
L 736.367815 161.156147 
L 738.745431 161.667158 
L 741.2023 161.497051 
L 743.65917 160.097501 
L 748.335147 159.808722 
L 750.712763 159.242318 
L 753.169633 159.816854 
L 755.547249 159.678901 
L 758.004118 159.144044 
L 760.460988 159.764561 
L 762.838604 158.945448 
L 765.295473 158.722947 
L 767.673089 159.444036 
L 770.129959 159.902037 
L 772.586828 159.712511 
L 774.88519 159.786145 
L 777.34206 159.620225 
L 779.719675 159.269736 
L 782.176545 159.5682 
L 784.554161 159.139434 
L 787.01103 159.326631 
L 789.4679 159.700477 
L 794.302385 159.670386 
L 796.680001 159.073754 
L 799.136871 158.666541 
L 803.812848 158.602827 
L 806.269718 158.753759 
L 808.647334 158.652416 
L 811.104203 159.019921 
L 813.481819 158.897977 
L 815.938689 158.335308 
L 818.395558 158.488431 
L 820.773174 158.243393 
L 825.60766 158.660237 
L 828.064529 158.527211 
L 832.740507 158.607963 
L 835.197376 157.446228 
L 837.574992 158.088972 
L 844.866347 158.38915 
L 847.323217 158.472832 
L 852.157702 157.940863 
L 854.535318 158.023485 
L 856.992188 158.833587 
L 856.992188 158.833587 
" clip-path="url(#pb1947e920a)" style="fill: none; stroke-dasharray: 7.4,3.2; stroke-dashoffset: 0; stroke: #56b4e9; stroke-width: 2"/>
   </g>
   <g id="line2d_20">
    <path d="M 19.992188 160.087851 
L 22.211296 160.234109 
L 24.668165 160.064613 
L 27.045781 160.136746 
L 29.502651 160.008094 
L 31.880266 160.175185 
L 34.337136 160.749326 
L 36.794006 160.928303 
L 39.171621 159.919 
L 41.628491 160.150421 
L 44.006107 159.643613 
L 46.462976 159.731151 
L 48.919846 159.44179 
L 51.138954 159.743526 
L 53.595824 159.24547 
L 55.973439 159.340351 
L 63.264794 160.244294 
L 65.721664 160.10315 
L 68.09928 160.178586 
L 70.556149 159.762472 
L 72.933765 159.795146 
L 75.390635 160.527327 
L 77.847504 160.734188 
L 80.145866 160.716233 
L 82.602736 160.32712 
L 84.980351 160.239661 
L 89.814837 160.321168 
L 92.271706 160.46548 
L 94.728576 159.462189 
L 97.106192 158.902759 
L 99.563061 160.114318 
L 101.940677 160.284091 
L 104.397547 164.321845 
L 106.854416 163.808758 
L 109.073524 162.7961 
L 113.90801 162.618849 
L 116.364879 162.398302 
L 118.742495 161.618719 
L 121.199365 161.490042 
L 123.656234 160.557903 
L 126.03385 160.567193 
L 128.49072 161.065807 
L 130.868336 160.542784 
L 133.325205 160.431497 
L 135.782075 160.50243 
L 138.001183 160.43239 
L 140.458052 160.143247 
L 142.835668 160.350335 
L 145.292538 159.312503 
L 147.670154 159.173422 
L 150.127023 158.374776 
L 152.583893 158.416284 
L 157.418378 157.244676 
L 162.252864 158.438823 
L 164.709733 156.579967 
L 166.928841 155.396335 
L 169.385711 158.139609 
L 174.220196 158.694188 
L 176.597812 159.424063 
L 179.054682 159.414157 
L 181.511551 159.763468 
L 183.889167 160.636975 
L 186.346037 160.187196 
L 188.723652 161.029873 
L 191.180522 160.708332 
L 193.637392 159.731114 
L 195.935753 159.378094 
L 198.392623 159.513496 
L 200.770239 159.870674 
L 203.227108 159.72942 
L 205.604724 160.260366 
L 208.061594 160.597855 
L 210.518463 160.451686 
L 212.896079 161.032092 
L 215.352949 161.217314 
L 217.730565 161.590996 
L 220.187434 161.543356 
L 222.644304 162.184206 
L 224.863412 162.947859 
L 227.320281 163.297114 
L 234.532383 163.229832 
L 236.989252 163.773839 
L 239.446122 163.679624 
L 241.823738 164.320441 
L 244.280607 163.823153 
L 249.115093 163.846677 
L 253.79107 163.922518 
L 256.24794 163.526476 
L 258.625556 163.670337 
L 265.916911 163.292538 
L 268.37378 163.478977 
L 270.751396 162.611215 
L 273.208266 161.945217 
L 275.585881 162.67809 
L 278.042751 162.517023 
L 282.718729 163.00061 
L 285.175598 162.105433 
L 290.010084 163.392972 
L 294.844569 163.127694 
L 297.301439 163.474947 
L 299.679054 163.308246 
L 302.135924 163.46055 
L 304.51354 162.750481 
L 306.970409 162.747265 
L 314.18251 163.427443 
L 316.560126 162.90657 
L 319.016996 162.826528 
L 321.394612 162.184311 
L 326.308351 162.346686 
L 328.685966 162.184329 
L 331.142836 162.305869 
L 335.977321 161.983125 
L 338.434191 161.154884 
L 340.653299 161.805946 
L 343.110169 160.850732 
L 347.944654 159.816433 
L 352.779139 159.975867 
L 355.236009 159.11338 
L 357.613625 160.279078 
L 360.070494 159.214932 
L 362.44811 157.710936 
L 364.90498 158.771089 
L 367.361849 158.678912 
L 369.580958 159.167817 
L 372.037827 158.176776 
L 374.415443 159.029656 
L 376.872312 159.498383 
L 379.249928 158.827304 
L 381.706798 157.34952 
L 384.163667 152.702116 
L 386.541283 143.472153 
L 388.998153 149.935046 
L 391.375769 146.439724 
L 393.832638 142.466461 
L 396.289508 137.194478 
L 398.508616 137.065816 
L 400.965485 121.796461 
L 403.343101 131.675651 
L 405.799971 129.11776 
L 408.177587 105.890043 
L 410.634456 123.650688 
L 413.091326 121.46489 
L 415.468942 136.721321 
L 417.925811 144.910838 
L 420.303427 136.205959 
L 422.760297 132.151528 
L 425.217166 136.279782 
L 427.515528 148.471353 
L 429.972398 152.362378 
L 432.350013 153.232152 
L 434.806883 151.772843 
L 437.184499 150.089178 
L 439.641368 150.724333 
L 442.098238 153.719137 
L 444.475854 153.457555 
L 446.932723 154.327194 
L 449.310339 156.698173 
L 451.767209 155.336222 
L 454.224078 158.271776 
L 456.443186 158.547815 
L 458.900056 159.437201 
L 461.277672 162.232081 
L 466.112157 161.138238 
L 468.569027 160.341769 
L 471.025896 162.857115 
L 473.403512 162.460952 
L 475.860382 162.184024 
L 480.694867 161.947261 
L 483.151737 161.751405 
L 485.370845 161.063723 
L 487.827714 163.884514 
L 490.20533 163.029654 
L 492.6622 162.639062 
L 495.039816 163.23211 
L 497.496685 162.202752 
L 499.953555 163.481489 
L 502.331171 163.70047 
L 504.78804 162.387113 
L 507.165656 163.854691 
L 509.622526 165.108088 
L 512.079395 165.434993 
L 514.298503 165.190966 
L 516.755373 165.433482 
L 519.132989 165.113036 
L 521.589858 164.568352 
L 523.967474 164.641401 
L 526.424344 165.370184 
L 528.881213 164.051014 
L 531.258829 164.751185 
L 533.715699 164.830802 
L 536.093314 165.709891 
L 538.550184 166.080232 
L 541.007054 166.286939 
L 543.305415 165.370656 
L 545.762285 166.886686 
L 548.139901 167.469845 
L 550.59677 167.313796 
L 552.974386 166.922283 
L 555.431256 166.308313 
L 557.888125 166.342204 
L 560.265741 165.34356 
L 562.722611 165.306083 
L 565.100227 165.388212 
L 567.557096 162.662067 
L 570.013966 163.514358 
L 572.233074 163.569352 
L 574.689943 165.72965 
L 577.067559 166.214733 
L 579.524429 164.649508 
L 581.902045 162.184604 
L 584.358914 163.34436 
L 586.815784 162.032403 
L 589.1934 163.831087 
L 591.650269 162.487221 
L 594.027885 162.960262 
L 596.484754 164.186837 
L 598.941624 164.324554 
L 601.160732 164.28537 
L 603.617602 163.430606 
L 605.995218 162.81156 
L 608.452087 162.921993 
L 610.829703 165.576129 
L 613.286573 164.184266 
L 615.743442 161.147579 
L 618.121058 160.671843 
L 620.577927 163.856951 
L 622.955543 166.370858 
L 625.412413 168.061844 
L 627.869282 169.114796 
L 630.088391 168.201043 
L 632.54526 166.091046 
L 634.922876 166.552147 
L 637.379745 166.769609 
L 639.757361 167.546582 
L 642.214231 167.86207 
L 644.6711 167.618943 
L 647.048716 168.057486 
L 649.505586 168.794816 
L 651.883202 168.292674 
L 654.340071 168.093515 
L 656.796941 168.815589 
L 659.095303 168.83961 
L 661.552172 167.453623 
L 663.929788 167.177004 
L 666.386658 167.04747 
L 673.678013 167.485967 
L 676.055628 168.640547 
L 678.512498 168.035405 
L 685.803853 168.510054 
L 688.022961 167.987801 
L 690.479831 167.249372 
L 692.857446 167.191425 
L 695.314316 167.359528 
L 697.691932 167.703244 
L 700.148801 166.385219 
L 702.605671 166.760321 
L 704.983287 166.604394 
L 707.440156 164.675592 
L 709.817772 164.083725 
L 712.274642 164.61192 
L 714.731511 164.288379 
L 716.950619 163.686291 
L 719.407489 162.460338 
L 721.785105 163.597088 
L 724.241974 163.260099 
L 729.07646 163.515616 
L 731.533329 163.291293 
L 733.910945 162.303782 
L 736.367815 162.083152 
L 738.745431 161.700127 
L 741.2023 161.640244 
L 743.65917 162.068524 
L 745.878278 161.656834 
L 748.335147 160.19435 
L 753.169633 160.79497 
L 755.547249 160.556739 
L 758.004118 160.797969 
L 760.460988 161.422376 
L 762.838604 161.101029 
L 765.295473 161.123397 
L 767.673089 159.032812 
L 770.129959 159.652485 
L 779.719675 160.041534 
L 784.554161 160.904583 
L 789.4679 160.534487 
L 791.845516 161.063235 
L 794.302385 160.788351 
L 796.680001 161.376587 
L 803.812848 161.540843 
L 811.104203 160.797166 
L 813.481819 160.982028 
L 815.938689 160.81802 
L 820.773174 161.265377 
L 823.230044 160.752883 
L 825.60766 160.702118 
L 828.064529 160.418253 
L 830.521399 159.799869 
L 832.740507 159.671044 
L 835.197376 160.727957 
L 837.574992 159.780585 
L 844.866347 160.214452 
L 847.323217 159.971257 
L 849.700833 160.12647 
L 852.157702 160.743057 
L 854.535318 160.767454 
L 856.992188 160.557167 
L 856.992188 160.557167 
" clip-path="url(#pb1947e920a)" style="fill: none; stroke-dasharray: 12.8,3.2,2,3.2; stroke-dashoffset: 0; stroke: #009e73; stroke-width: 2"/>
   </g>
   <g id="line2d_21">
    <path d="M 19.992188 158.264077 
L 22.211296 158.141313 
L 24.668165 157.734497 
L 27.045781 157.912732 
L 29.502651 157.889712 
L 31.880266 157.429714 
L 34.337136 158.119029 
L 36.794006 157.59858 
L 39.171621 158.151332 
L 44.006107 156.595387 
L 48.919846 156.79742 
L 53.595824 156.861583 
L 55.973439 157.512566 
L 58.430309 157.184115 
L 60.807925 157.601443 
L 63.264794 157.496513 
L 68.09928 158.287714 
L 70.556149 158.549455 
L 72.933765 157.62909 
L 75.390635 158.570875 
L 77.847504 159.180016 
L 80.145866 159.494137 
L 82.602736 160.224244 
L 84.980351 160.45155 
L 87.437221 160.391702 
L 89.814837 160.152769 
L 92.271706 160.086986 
L 94.728576 159.564969 
L 97.106192 159.489535 
L 99.563061 159.899725 
L 101.940677 160.121965 
L 104.397547 162.959877 
L 109.073524 162.863252 
L 113.90801 161.543877 
L 116.364879 161.513314 
L 118.742495 161.164318 
L 121.199365 161.12574 
L 123.656234 160.474261 
L 126.03385 160.424768 
L 128.49072 160.997051 
L 130.868336 160.433664 
L 133.325205 160.41531 
L 138.001183 160.57001 
L 140.458052 160.310215 
L 142.835668 160.462141 
L 145.292538 159.040437 
L 147.670154 158.763568 
L 150.127023 157.123619 
L 152.583893 156.100406 
L 154.961509 156.551056 
L 157.418378 156.431725 
L 159.795994 156.700485 
L 162.252864 158.182046 
L 164.709733 156.081488 
L 166.928841 154.661346 
L 169.385711 157.598769 
L 171.763327 158.152363 
L 174.220196 158.17324 
L 176.597812 159.516948 
L 179.054682 159.232689 
L 181.511551 160.002657 
L 183.889167 160.61995 
L 186.346037 162.138706 
L 188.723652 162.537585 
L 208.061594 162.248853 
L 210.518463 162.489569 
L 212.896079 161.858859 
L 215.352949 162.035972 
L 217.730565 162.366137 
L 220.187434 162.472158 
L 222.644304 163.03243 
L 224.863412 162.352915 
L 227.320281 162.44562 
L 232.154767 162.20029 
L 236.989252 162.510067 
L 239.446122 162.683205 
L 241.823738 162.111566 
L 246.658223 162.276395 
L 249.115093 161.846859 
L 251.571962 161.705169 
L 253.79107 161.783184 
L 256.24794 161.23472 
L 261.082425 160.992511 
L 265.916911 161.07328 
L 268.37378 161.009082 
L 270.751396 160.292812 
L 273.208266 159.739564 
L 275.585881 160.066271 
L 278.042751 159.184982 
L 282.718729 159.057565 
L 285.175598 159.704327 
L 287.553214 159.607533 
L 290.010084 158.38594 
L 292.387699 157.603579 
L 294.844569 158.134613 
L 297.301439 157.508575 
L 299.679054 158.016444 
L 302.135924 156.930018 
L 304.51354 158.120853 
L 306.970409 158.553053 
L 309.427279 157.543284 
L 311.725641 157.7059 
L 314.18251 157.394602 
L 316.560126 156.940733 
L 319.016996 156.931348 
L 321.394612 157.103584 
L 323.851481 157.781405 
L 326.308351 157.798567 
L 328.685966 158.463866 
L 333.520452 158.521599 
L 335.977321 158.73749 
L 338.434191 159.236403 
L 340.653299 158.611542 
L 343.110169 159.388204 
L 345.487785 159.408558 
L 347.944654 159.628001 
L 352.779139 159.522308 
L 355.236009 159.843156 
L 357.613625 159.221441 
L 360.070494 159.815768 
L 362.44811 160.716396 
L 364.90498 160.380252 
L 369.580958 160.16694 
L 372.037827 160.732713 
L 374.415443 160.434452 
L 376.872312 159.874035 
L 379.249928 160.55002 
L 381.706798 161.406259 
L 384.163667 164.265221 
L 386.541283 172.838699 
L 388.998153 166.998577 
L 391.375769 170.182969 
L 396.289508 177.885522 
L 398.508616 176.891635 
L 400.965485 191.610875 
L 403.343101 182.727692 
L 405.799971 181.896174 
L 408.177587 201.422318 
L 410.634456 188.085195 
L 413.091326 187.450208 
L 415.468942 177.308315 
L 417.925811 170.046658 
L 420.303427 180.85318 
L 422.760297 183.70159 
L 425.217166 180.518085 
L 427.515528 169.921933 
L 429.972398 166.108931 
L 432.350013 165.547972 
L 437.184499 167.78525 
L 439.641368 167.570859 
L 442.098238 165.343263 
L 444.475854 164.822726 
L 446.932723 163.978943 
L 449.310339 162.276031 
L 451.767209 163.699309 
L 454.224078 161.219011 
L 456.443186 160.830558 
L 458.900056 159.858858 
L 461.277672 157.604772 
L 463.734541 158.761818 
L 466.112157 158.949975 
L 468.569027 159.303454 
L 471.025896 157.632596 
L 473.403512 157.849239 
L 478.237998 158.028841 
L 480.694867 158.051084 
L 483.151737 158.224572 
L 485.370845 158.934677 
L 487.827714 157.292656 
L 490.20533 157.895172 
L 492.6622 157.777801 
L 495.039816 157.384243 
L 497.496685 157.912864 
L 499.953555 157.193764 
L 502.331171 157.147314 
L 504.78804 158.024464 
L 507.165656 157.273252 
L 509.622526 156.678688 
L 512.079395 156.299487 
L 514.298503 156.651342 
L 516.755373 156.600487 
L 519.132989 156.852071 
L 521.589858 157.48548 
L 523.967474 157.635488 
L 526.424344 157.181946 
L 533.715699 157.121951 
L 536.093314 157.191909 
L 538.550184 157.455047 
L 543.305415 157.313207 
L 545.762285 157.978267 
L 548.139901 157.885814 
L 550.59677 157.633428 
L 555.431256 157.777539 
L 557.888125 156.800134 
L 560.265741 157.299517 
L 562.722611 157.190095 
L 565.100227 157.822186 
L 567.557096 157.8977 
L 570.013966 157.508145 
L 572.233074 157.979544 
L 574.689943 156.840142 
L 577.067559 158.363985 
L 579.524429 158.300855 
L 581.902045 158.856195 
L 584.358914 158.916462 
L 586.815784 159.146373 
L 589.1934 158.480981 
L 591.650269 158.938081 
L 596.484754 158.173974 
L 603.617602 158.713278 
L 605.995218 158.96858 
L 608.452087 158.802089 
L 610.829703 158.339686 
L 613.286573 159.17048 
L 618.121058 159.428505 
L 620.577927 158.853381 
L 622.955543 158.534709 
L 625.412413 157.6822 
L 627.869282 157.00132 
L 630.088391 157.21348 
L 632.54526 157.654077 
L 637.379745 157.289144 
L 639.757361 157.259763 
L 642.214231 157.441935 
L 644.6711 157.450001 
L 647.048716 157.29108 
L 649.505586 157.378849 
L 656.796941 156.60993 
L 659.095303 156.823217 
L 663.929788 156.894389 
L 666.386658 157.045179 
L 668.764273 156.427964 
L 671.221143 156.64565 
L 673.678013 156.58757 
L 676.055628 156.231884 
L 678.512498 156.596024 
L 683.346983 156.551263 
L 685.803853 156.422552 
L 692.857446 156.732055 
L 700.148801 156.652557 
L 704.983287 157.157608 
L 707.440156 157.794848 
L 709.817772 157.473969 
L 712.274642 158.244382 
L 714.731511 157.563739 
L 716.950619 157.513447 
L 719.407489 156.701943 
L 721.785105 156.180304 
L 724.241974 156.605096 
L 726.61959 156.24468 
L 729.07646 156.057861 
L 731.533329 156.212231 
L 733.910945 156.485793 
L 736.367815 156.110693 
L 738.745431 156.53791 
L 741.2023 156.3829 
L 743.65917 155.288966 
L 745.878278 155.786223 
L 753.169633 155.72277 
L 755.547249 155.684317 
L 758.004118 154.541003 
L 760.460988 155.633102 
L 762.838604 156.228649 
L 765.295473 157.706524 
L 767.673089 159.293809 
L 772.586828 160.154541 
L 774.88519 159.909296 
L 777.34206 160.695783 
L 779.719675 160.478382 
L 782.176545 160.133589 
L 784.554161 159.634485 
L 787.01103 159.362471 
L 789.4679 159.407921 
L 791.845516 159.306436 
L 794.302385 160.052491 
L 796.680001 160.12627 
L 799.136871 161.759431 
L 801.59374 161.936641 
L 806.269718 161.891446 
L 808.647334 162.31107 
L 811.104203 162.028815 
L 813.481819 162.108861 
L 815.938689 162.797202 
L 818.395558 162.132289 
L 820.773174 162.281075 
L 825.60766 161.877227 
L 828.064529 161.979914 
L 830.521399 161.750976 
L 832.740507 161.680439 
L 837.574992 161.372213 
L 840.031862 160.893089 
L 844.866347 160.741254 
L 847.323217 160.833464 
L 849.700833 160.645613 
L 852.157702 160.886853 
L 854.535318 160.622431 
L 856.992188 160.656814 
L 856.992188 160.656814 
" clip-path="url(#pb1947e920a)" style="fill: none; stroke-dasharray: 2,3.3; stroke-dashoffset: 0; stroke: #0072b2; stroke-width: 2"/>
   </g>
   <g id="line2d_22">
    <path d="M 19.992188 161.427225 
L 22.211296 160.580264 
L 24.668165 161.019102 
L 27.045781 160.790591 
L 34.337136 161.398005 
L 36.794006 161.898992 
L 39.171621 161.112208 
L 41.628491 161.859241 
L 44.006107 161.904985 
L 46.462976 161.780133 
L 48.919846 162.044154 
L 51.138954 161.952491 
L 53.595824 161.984552 
L 55.973439 162.204465 
L 58.430309 162.200707 
L 60.807925 162.00556 
L 63.264794 161.945474 
L 65.721664 161.749758 
L 68.09928 162.035014 
L 70.556149 160.862915 
L 72.933765 161.23842 
L 75.390635 161.84924 
L 77.847504 162.903241 
L 80.145866 163.260573 
L 82.602736 162.6274 
L 84.980351 161.463684 
L 89.814837 160.890197 
L 92.271706 161.222972 
L 94.728576 159.393271 
L 97.106192 158.678202 
L 99.563061 160.180317 
L 101.940677 160.471037 
L 104.397547 163.174082 
L 106.854416 163.732648 
L 109.073524 163.997928 
L 111.530394 163.141231 
L 116.364879 163.149216 
L 118.742495 162.250785 
L 121.199365 162.075903 
L 123.656234 161.037497 
L 126.03385 160.972405 
L 128.49072 162.311656 
L 130.868336 161.202715 
L 133.325205 160.999882 
L 138.001183 161.196603 
L 140.458052 160.754563 
L 142.835668 161.276827 
L 145.292538 158.6301 
L 147.670154 157.80744 
L 150.127023 154.397856 
L 152.583893 153.13388 
L 154.961509 153.104558 
L 157.418378 152.872216 
L 159.795994 153.84707 
L 162.252864 156.567449 
L 164.709733 150.965863 
L 166.928841 145.502908 
L 169.385711 154.161775 
L 171.763327 155.650607 
L 174.220196 155.078526 
L 176.597812 159.41801 
L 179.054682 158.406936 
L 181.511551 160.594495 
L 186.346037 165.802226 
L 188.723652 165.596864 
L 191.180522 166.148653 
L 193.637392 165.94149 
L 195.935753 165.612337 
L 198.392623 165.37787 
L 200.770239 164.56588 
L 205.604724 164.406139 
L 208.061594 164.140372 
L 210.518463 164.184731 
L 212.896079 163.009559 
L 215.352949 163.122675 
L 222.644304 163.902002 
L 224.863412 162.509538 
L 227.320281 163.049771 
L 229.697897 162.773874 
L 232.154767 163.034786 
L 234.532383 163.432128 
L 236.989252 163.070034 
L 241.823738 164.749136 
L 244.280607 164.907777 
L 246.658223 165.488418 
L 251.571962 165.099936 
L 253.79107 164.99413 
L 256.24794 165.61051 
L 258.625556 166.359112 
L 261.082425 166.467384 
L 263.460041 166.324358 
L 265.916911 166.048277 
L 268.37378 166.143249 
L 270.751396 165.991471 
L 273.208266 167.575186 
L 275.585881 168.102341 
L 278.042751 168.960772 
L 282.718729 169.941201 
L 285.175598 169.848516 
L 287.553214 169.551515 
L 290.010084 170.496752 
L 294.844569 170.499773 
L 297.301439 171.240097 
L 299.679054 171.526428 
L 302.135924 172.337057 
L 304.51354 170.634702 
L 306.970409 170.582772 
L 309.427279 170.938735 
L 311.725641 171.047599 
L 314.18251 172.452557 
L 316.560126 171.808802 
L 319.016996 172.219768 
L 321.394612 170.689193 
L 323.851481 171.206272 
L 326.308351 171.017032 
L 328.685966 167.258517 
L 331.142836 168.185727 
L 333.520452 167.087342 
L 335.977321 167.229144 
L 338.434191 166.213984 
L 340.653299 166.180227 
L 343.110169 163.999362 
L 345.487785 163.442906 
L 347.944654 159.488155 
L 350.32227 160.981206 
L 352.779139 160.132828 
L 355.236009 156.35027 
L 357.613625 161.070729 
L 360.070494 158.885752 
L 362.44811 153.503007 
L 364.90498 156.082435 
L 367.361849 156.109503 
L 369.580958 156.330339 
L 372.037827 154.547145 
L 374.415443 155.962652 
L 376.872312 158.914868 
L 379.249928 155.65482 
L 381.706798 150.750449 
L 384.163667 136.58431 
L 386.541283 111.510439 
L 388.998153 136.342229 
L 391.375769 128.018439 
L 393.832638 110.290109 
L 396.289508 99.889898 
L 398.508616 101.389971 
L 400.965485 59.079576 
L 403.343101 84.277448 
L 405.799971 84.148402 
L 408.177587 16.94175 
L 410.634456 65.434781 
L 413.091326 65.425581 
L 415.468942 97.660894 
L 417.925811 132.647275 
L 420.303427 114.148538 
L 422.760297 107.729692 
L 425.217166 116.190049 
L 427.515528 136.726029 
L 429.972398 145.345471 
L 432.350013 146.921062 
L 437.184499 141.209801 
L 439.641368 141.663332 
L 442.098238 147.210845 
L 444.475854 149.170452 
L 446.932723 150.971581 
L 449.310339 154.982283 
L 451.767209 154.354722 
L 454.224078 157.744785 
L 456.443186 158.342763 
L 458.900056 159.401525 
L 461.277672 161.296424 
L 463.734541 160.276107 
L 468.569027 159.84476 
L 471.025896 160.303456 
L 473.403512 160.401778 
L 478.237998 160.049276 
L 480.694867 159.97496 
L 483.151737 160.302966 
L 485.370845 159.540725 
L 487.827714 158.3401 
L 490.20533 158.527564 
L 492.6622 158.872211 
L 495.039816 158.658213 
L 497.496685 158.866076 
L 499.953555 158.632199 
L 504.78804 159.151107 
L 507.165656 158.805336 
L 509.622526 157.828957 
L 514.298503 157.996019 
L 516.755373 157.522962 
L 519.132989 158.009363 
L 521.589858 157.946423 
L 526.424344 157.564837 
L 528.881213 158.680829 
L 531.258829 159.909579 
L 533.715699 159.909777 
L 536.093314 159.233328 
L 538.550184 159.120914 
L 541.007054 159.373441 
L 543.305415 160.558639 
L 545.762285 159.789688 
L 548.139901 160.348114 
L 550.59677 160.768172 
L 552.974386 159.736162 
L 555.431256 159.646374 
L 557.888125 162.235963 
L 560.265741 162.005111 
L 565.100227 161.899807 
L 567.557096 162.067684 
L 570.013966 163.197158 
L 572.233074 162.641079 
L 574.689943 164.973991 
L 577.067559 166.359186 
L 579.524429 164.805842 
L 581.902045 162.238372 
L 584.358914 163.304006 
L 586.815784 161.940909 
L 589.1934 164.429282 
L 591.650269 162.857342 
L 594.027885 163.307041 
L 596.484754 164.493622 
L 598.941624 164.790384 
L 601.160732 164.602933 
L 603.617602 163.631514 
L 605.995218 162.824483 
L 608.452087 162.95283 
L 610.829703 165.692922 
L 613.286573 164.491615 
L 615.743442 161.269548 
L 618.121058 160.841508 
L 620.577927 164.211242 
L 622.955543 166.644446 
L 625.412413 168.505645 
L 627.869282 169.659647 
L 630.088391 168.581869 
L 632.54526 166.411211 
L 637.379745 167.328808 
L 639.757361 168.385714 
L 642.214231 168.339897 
L 644.6711 168.026907 
L 647.048716 168.266597 
L 649.505586 169.279785 
L 651.883202 169.224196 
L 654.340071 169.577289 
L 656.796941 170.690786 
L 659.095303 170.806564 
L 661.552172 169.567891 
L 666.386658 168.906588 
L 668.764273 169.285495 
L 673.678013 169.405184 
L 676.055628 170.36936 
L 680.890114 169.7864 
L 683.346983 169.95142 
L 685.803853 169.57746 
L 688.022961 168.147438 
L 690.479831 168.889303 
L 692.857446 168.742148 
L 695.314316 169.431646 
L 697.691932 169.66906 
L 700.148801 168.465534 
L 702.605671 168.738297 
L 704.983287 168.685691 
L 707.440156 167.105429 
L 709.817772 168.298114 
L 712.274642 170.611786 
L 714.731511 170.160296 
L 716.950619 169.55207 
L 719.407489 169.133885 
L 721.785105 168.210981 
L 724.241974 167.003285 
L 726.61959 167.425993 
L 729.07646 167.425752 
L 731.533329 167.295496 
L 733.910945 166.347676 
L 736.367815 167.510922 
L 738.745431 166.880775 
L 741.2023 167.269191 
L 745.878278 167.087527 
L 748.335147 168.520307 
L 750.712763 168.921177 
L 753.169633 168.136998 
L 755.547249 168.258698 
L 758.004118 168.954502 
L 760.460988 168.134547 
L 762.838604 168.672299 
L 765.295473 167.536801 
L 767.673089 167.811394 
L 770.129959 167.574991 
L 774.88519 167.646962 
L 777.34206 168.472012 
L 782.176545 168.428331 
L 784.554161 167.847544 
L 791.845516 168.056123 
L 794.302385 166.424347 
L 796.680001 165.44107 
L 799.136871 162.448899 
L 801.59374 162.822635 
L 803.812848 162.811157 
L 806.269718 162.54563 
L 808.647334 162.659863 
L 811.104203 162.195152 
L 815.938689 162.342419 
L 818.395558 161.838191 
L 820.773174 161.974439 
L 825.60766 161.919992 
L 828.064529 162.517213 
L 835.197376 162.98353 
L 837.574992 162.719036 
L 840.031862 162.292435 
L 844.866347 162.06776 
L 847.323217 162.167874 
L 849.700833 162.142385 
L 852.157702 162.343799 
L 854.535318 162.11525 
L 856.992188 161.060763 
L 856.992188 161.060763 
" clip-path="url(#pb1947e920a)" style="fill: none; stroke: #d55e00; stroke-width: 2; stroke-linecap: square"/>
   </g>
   <g id="patch_3">
    <path d="M 19.992188 238.70175 
L 19.992188 16.94175 
" style="fill: none; stroke: #000000; stroke-width: 0.8; stroke-linejoin: miter; stroke-linecap: square"/>
   </g>
   <g id="patch_4">
    <path d="M 19.992188 238.70175 
L 856.992188 238.70175 
" style="fill: none; stroke: #000000; stroke-width: 0.8; stroke-linejoin: miter; stroke-linecap: square"/>
   </g>
   <g id="text_13">
    <!-- 5_Industry_Portfolios - Portfolio Allocation for TZ -->
    <g transform="translate(265.353563 10.94175) scale(0.144 -0.144)">
     <defs>
      <path id="DejaVuSans-35" d="M 691 4666 
L 3169 4666 
L 3169 4134 
L 1269 4134 
L 1269 2991 
Q 1406 3038 1543 3061 
Q 1681 3084 1819 3084 
Q 2600 3084 3056 2656 
Q 3513 2228 3513 1497 
Q 3513 744 3044 326 
Q 2575 -91 1722 -91 
Q 1428 -91 1123 -41 
Q 819 9 494 109 
L 494 744 
Q 775 591 1075 516 
Q 1375 441 1709 441 
Q 2250 441 2565 725 
Q 2881 1009 2881 1497 
Q 2881 1984 2565 2268 
Q 2250 2553 1709 2553 
Q 1456 2553 1204 2497 
Q 953 2441 691 2322 
L 691 4666 
z
" transform="scale(0.015625)"/>
      <path id="DejaVuSans-5f" d="M 3263 -1063 
L 3263 -1509 
L -63 -1509 
L -63 -1063 
L 3263 -1063 
z
" transform="scale(0.015625)"/>
      <path id="DejaVuSans-49" d="M 628 4666 
L 1259 4666 
L 1259 0 
L 628 0 
L 628 4666 
z
" transform="scale(0.015625)"/>
      <path id="DejaVuSans-6e" d="M 3513 2113 
L 3513 0 
L 2938 0 
L 2938 2094 
Q 2938 2591 2744 2837 
Q 2550 3084 2163 3084 
Q 1697 3084 1428 2787 
Q 1159 2491 1159 1978 
L 1159 0 
L 581 0 
L 581 3500 
L 1159 3500 
L 1159 2956 
Q 1366 3272 1645 3428 
Q 1925 3584 2291 3584 
Q 2894 3584 3203 3211 
Q 3513 2838 3513 2113 
z
" transform="scale(0.015625)"/>
      <path id="DejaVuSans-64" d="M 2906 2969 
L 2906 4863 
L 3481 4863 
L 3481 0 
L 2906 0 
L 2906 525 
Q 2725 213 2448 61 
Q 2172 -91 1784 -91 
Q 1150 -91 751 415 
Q 353 922 353 1747 
Q 353 2572 751 3078 
Q 1150 3584 1784 3584 
Q 2172 3584 2448 3432 
Q 2725 3281 2906 2969 
z
M 947 1747 
Q 947 1113 1208 752 
Q 1469 391 1925 391 
Q 2381 391 2643 752 
Q 2906 1113 2906 1747 
Q 2906 2381 2643 2742 
Q 2381 3103 1925 3103 
Q 1469 3103 1208 2742 
Q 947 2381 947 1747 
z
" transform="scale(0.015625)"/>
      <path id="DejaVuSans-75" d="M 544 1381 
L 544 3500 
L 1119 3500 
L 1119 1403 
Q 1119 906 1312 657 
Q 1506 409 1894 409 
Q 2359 409 2629 706 
Q 2900 1003 2900 1516 
L 2900 3500 
L 3475 3500 
L 3475 0 
L 2900 0 
L 2900 538 
Q 2691 219 2414 64 
Q 2138 -91 1772 -91 
Q 1169 -91 856 284 
Q 544 659 544 1381 
z
M 1991 3584 
L 1991 3584 
z
" transform="scale(0.015625)"/>
      <path id="DejaVuSans-73" d="M 2834 3397 
L 2834 2853 
Q 2591 2978 2328 3040 
Q 2066 3103 1784 3103 
Q 1356 3103 1142 2972 
Q 928 2841 928 2578 
Q 928 2378 1081 2264 
Q 1234 2150 1697 2047 
L 1894 2003 
Q 2506 1872 2764 1633 
Q 3022 1394 3022 966 
Q 3022 478 2636 193 
Q 2250 -91 1575 -91 
Q 1294 -91 989 -36 
Q 684 19 347 128 
L 347 722 
Q 666 556 975 473 
Q 1284 391 1588 391 
Q 1994 391 2212 530 
Q 2431 669 2431 922 
Q 2431 1156 2273 1281 
Q 2116 1406 1581 1522 
L 1381 1569 
Q 847 1681 609 1914 
Q 372 2147 372 2553 
Q 372 3047 722 3315 
Q 1072 3584 1716 3584 
Q 2034 3584 2315 3537 
Q 2597 3491 2834 3397 
z
" transform="scale(0.015625)"/>
      <path id="DejaVuSans-74" d="M 1172 4494 
L 1172 3500 
L 2356 3500 
L 2356 3053 
L 1172 3053 
L 1172 1153 
Q 1172 725 1289 603 
Q 1406 481 1766 481 
L 2356 481 
L 2356 0 
L 1766 0 
Q 1100 0 847 248 
Q 594 497 594 1153 
L 594 3053 
L 172 3053 
L 172 3500 
L 594 3500 
L 594 4494 
L 1172 4494 
z
" transform="scale(0.015625)"/>
      <path id="DejaVuSans-72" d="M 2631 2963 
Q 2534 3019 2420 3045 
Q 2306 3072 2169 3072 
Q 1681 3072 1420 2755 
Q 1159 2438 1159 1844 
L 1159 0 
L 581 0 
L 581 3500 
L 1159 3500 
L 1159 2956 
Q 1341 3275 1631 3429 
Q 1922 3584 2338 3584 
Q 2397 3584 2469 3576 
Q 2541 3569 2628 3553 
L 2631 2963 
z
" transform="scale(0.015625)"/>
      <path id="DejaVuSans-79" d="M 2059 -325 
Q 1816 -950 1584 -1140 
Q 1353 -1331 966 -1331 
L 506 -1331 
L 506 -850 
L 844 -850 
Q 1081 -850 1212 -737 
Q 1344 -625 1503 -206 
L 1606 56 
L 191 3500 
L 800 3500 
L 1894 763 
L 2988 3500 
L 3597 3500 
L 2059 -325 
z
" transform="scale(0.015625)"/>
      <path id="DejaVuSans-50" d="M 1259 4147 
L 1259 2394 
L 2053 2394 
Q 2494 2394 2734 2622 
Q 2975 2850 2975 3272 
Q 2975 3691 2734 3919 
Q 2494 4147 2053 4147 
L 1259 4147 
z
M 628 4666 
L 2053 4666 
Q 2838 4666 3239 4311 
Q 3641 3956 3641 3272 
Q 3641 2581 3239 2228 
Q 2838 1875 2053 1875 
L 1259 1875 
L 1259 0 
L 628 0 
L 628 4666 
z
" transform="scale(0.015625)"/>
      <path id="DejaVuSans-6f" d="M 1959 3097 
Q 1497 3097 1228 2736 
Q 959 2375 959 1747 
Q 959 1119 1226 758 
Q 1494 397 1959 397 
Q 2419 397 2687 759 
Q 2956 1122 2956 1747 
Q 2956 2369 2687 2733 
Q 2419 3097 1959 3097 
z
M 1959 3584 
Q 2709 3584 3137 3096 
Q 3566 2609 3566 1747 
Q 3566 888 3137 398 
Q 2709 -91 1959 -91 
Q 1206 -91 779 398 
Q 353 888 353 1747 
Q 353 2609 779 3096 
Q 1206 3584 1959 3584 
z
" transform="scale(0.015625)"/>
      <path id="DejaVuSans-66" d="M 2375 4863 
L 2375 4384 
L 1825 4384 
Q 1516 4384 1395 4259 
Q 1275 4134 1275 3809 
L 1275 3500 
L 2222 3500 
L 2222 3053 
L 1275 3053 
L 1275 0 
L 697 0 
L 697 3053 
L 147 3053 
L 147 3500 
L 697 3500 
L 697 3744 
Q 697 4328 969 4595 
Q 1241 4863 1831 4863 
L 2375 4863 
z
" transform="scale(0.015625)"/>
      <path id="DejaVuSans-6c" d="M 603 4863 
L 1178 4863 
L 1178 0 
L 603 0 
L 603 4863 
z
" transform="scale(0.015625)"/>
      <path id="DejaVuSans-69" d="M 603 3500 
L 1178 3500 
L 1178 0 
L 603 0 
L 603 3500 
z
M 603 4863 
L 1178 4863 
L 1178 4134 
L 603 4134 
L 603 4863 
z
" transform="scale(0.015625)"/>
      <path id="DejaVuSans-20" transform="scale(0.015625)"/>
      <path id="DejaVuSans-2d" d="M 313 2009 
L 1997 2009 
L 1997 1497 
L 313 1497 
L 313 2009 
z
" transform="scale(0.015625)"/>
      <path id="DejaVuSans-41" d="M 2188 4044 
L 1331 1722 
L 3047 1722 
L 2188 4044 
z
M 1831 4666 
L 2547 4666 
L 4325 0 
L 3669 0 
L 3244 1197 
L 1141 1197 
L 716 0 
L 50 0 
L 1831 4666 
z
" transform="scale(0.015625)"/>
      <path id="DejaVuSans-63" d="M 3122 3366 
L 3122 2828 
Q 2878 2963 2633 3030 
Q 2388 3097 2138 3097 
Q 1578 3097 1268 2742 
Q 959 2388 959 1747 
Q 959 1106 1268 751 
Q 1578 397 2138 397 
Q 2388 397 2633 464 
Q 2878 531 3122 666 
L 3122 134 
Q 2881 22 2623 -34 
Q 2366 -91 2075 -91 
Q 1284 -91 818 406 
Q 353 903 353 1747 
Q 353 2603 823 3093 
Q 1294 3584 2113 3584 
Q 2378 3584 2631 3529 
Q 2884 3475 3122 3366 
z
" transform="scale(0.015625)"/>
      <path id="DejaVuSans-61" d="M 2194 1759 
Q 1497 1759 1228 1600 
Q 959 1441 959 1056 
Q 959 750 1161 570 
Q 1363 391 1709 391 
Q 2188 391 2477 730 
Q 2766 1069 2766 1631 
L 2766 1759 
L 2194 1759 
z
M 3341 1997 
L 3341 0 
L 2766 0 
L 2766 531 
Q 2569 213 2275 61 
Q 1981 -91 1556 -91 
Q 1019 -91 701 211 
Q 384 513 384 1019 
Q 384 1609 779 1909 
Q 1175 2209 1959 2209 
L 2766 2209 
L 2766 2266 
Q 2766 2663 2505 2880 
Q 2244 3097 1772 3097 
Q 1472 3097 1187 3025 
Q 903 2953 641 2809 
L 641 3341 
Q 956 3463 1253 3523 
Q 1550 3584 1831 3584 
Q 2591 3584 2966 3190 
Q 3341 2797 3341 1997 
z
" transform="scale(0.015625)"/>
      <path id="DejaVuSans-54" d="M -19 4666 
L 3928 4666 
L 3928 4134 
L 2272 4134 
L 2272 0 
L 1638 0 
L 1638 4134 
L -19 4134 
L -19 4666 
z
" transform="scale(0.015625)"/>
      <path id="DejaVuSans-5a" d="M 359 4666 
L 4025 4666 
L 4025 4184 
L 1075 531 
L 4097 531 
L 4097 0 
L 288 0 
L 288 481 
L 3238 4134 
L 359 4134 
L 359 4666 
z
" transform="scale(0.015625)"/>
     </defs>
     <use xlink:href="#DejaVuSans-35"/>
     <use xlink:href="#DejaVuSans-5f" x="63.623047"/>
     <use xlink:href="#DejaVuSans-49" x="113.623047"/>
     <use xlink:href="#DejaVuSans-6e" x="143.115234"/>
     <use xlink:href="#DejaVuSans-64" x="206.494141"/>
     <use xlink:href="#DejaVuSans-75" x="269.970703"/>
     <use xlink:href="#DejaVuSans-73" x="333.349609"/>
     <use xlink:href="#DejaVuSans-74" x="385.449219"/>
     <use xlink:href="#DejaVuSans-72" x="424.658203"/>
     <use xlink:href="#DejaVuSans-79" x="465.771484"/>
     <use xlink:href="#DejaVuSans-5f" x="524.951172"/>
     <use xlink:href="#DejaVuSans-50" x="574.951172"/>
     <use xlink:href="#DejaVuSans-6f" x="631.628906"/>
     <use xlink:href="#DejaVuSans-72" x="692.810547"/>
     <use xlink:href="#DejaVuSans-74" x="733.923828"/>
     <use xlink:href="#DejaVuSans-66" x="773.132812"/>
     <use xlink:href="#DejaVuSans-6f" x="808.337891"/>
     <use xlink:href="#DejaVuSans-6c" x="869.519531"/>
     <use xlink:href="#DejaVuSans-69" x="897.302734"/>
     <use xlink:href="#DejaVuSans-6f" x="925.085938"/>
     <use xlink:href="#DejaVuSans-73" x="986.267578"/>
     <use xlink:href="#DejaVuSans-20" x="1038.367188"/>
     <use xlink:href="#DejaVuSans-2d" x="1070.154297"/>
     <use xlink:href="#DejaVuSans-20" x="1106.238281"/>
     <use xlink:href="#DejaVuSans-50" x="1138.025391"/>
     <use xlink:href="#DejaVuSans-6f" x="1194.703125"/>
     <use xlink:href="#DejaVuSans-72" x="1255.884766"/>
     <use xlink:href="#DejaVuSans-74" x="1296.998047"/>
     <use xlink:href="#DejaVuSans-66" x="1336.207031"/>
     <use xlink:href="#DejaVuSans-6f" x="1371.412109"/>
     <use xlink:href="#DejaVuSans-6c" x="1432.59375"/>
     <use xlink:href="#DejaVuSans-69" x="1460.376953"/>
     <use xlink:href="#DejaVuSans-6f" x="1488.160156"/>
     <use xlink:href="#DejaVuSans-20" x="1549.341797"/>
     <use xlink:href="#DejaVuSans-41" x="1581.128906"/>
     <use xlink:href="#DejaVuSans-6c" x="1649.537109"/>
     <use xlink:href="#DejaVuSans-6c" x="1677.320312"/>
     <use xlink:href="#DejaVuSans-6f" x="1705.103516"/>
     <use xlink:href="#DejaVuSans-63" x="1766.285156"/>
     <use xlink:href="#DejaVuSans-61" x="1821.265625"/>
     <use xlink:href="#DejaVuSans-74" x="1882.544922"/>
     <use xlink:href="#DejaVuSans-69" x="1921.753906"/>
     <use xlink:href="#DejaVuSans-6f" x="1949.537109"/>
     <use xlink:href="#DejaVuSans-6e" x="2010.71875"/>
     <use xlink:href="#DejaVuSans-20" x="2074.097656"/>
     <use xlink:href="#DejaVuSans-66" x="2105.884766"/>
     <use xlink:href="#DejaVuSans-6f" x="2141.089844"/>
     <use xlink:href="#DejaVuSans-72" x="2202.271484"/>
     <use xlink:href="#DejaVuSans-20" x="2243.384766"/>
     <use xlink:href="#DejaVuSans-54" x="2275.171875"/>
     <use xlink:href="#DejaVuSans-5a" x="2336.255859"/>
    </g>
   </g>
  </g>
 </g>
 <defs>
  <clipPath id="pb1947e920a">
   <rect x="19.992188" y="16.94175" width="837" height="221.76"/>
  </clipPath>
 </defs>
</svg>
