<?xml version="1.0" encoding="utf-8" standalone="no"?>
<!DOCTYPE svg PUBLIC "-//W3C//DTD SVG 1.1//EN"
  "http://www.w3.org/Graphics/SVG/1.1/DTD/svg11.dtd">
<svg xmlns:xlink="http://www.w3.org/1999/xlink" width="866.532812pt" height="253.629875pt" viewBox="0 0 866.532812 253.629875" xmlns="http://www.w3.org/2000/svg" version="1.1">
 <metadata>
  <rdf:RDF xmlns:dc="http://purl.org/dc/elements/1.1/" xmlns:cc="http://creativecommons.org/ns#" xmlns:rdf="http://www.w3.org/1999/02/22-rdf-syntax-ns#">
   <cc:Work>
    <dc:type rdf:resource="http://purl.org/dc/dcmitype/StillImage"/>
    <dc:date>2025-08-06T21:52:44.666968</dc:date>
    <dc:format>image/svg+xml</dc:format>
    <dc:creator>
     <cc:Agent>
      <dc:title>Matplotlib v3.9.2, https://matplotlib.org/</dc:title>
     </cc:Agent>
    </dc:creator>
   </cc:Work>
  </rdf:RDF>
 </metadata>
 <defs>
  <style type="text/css">*{stroke-linejoin: round; stroke-linecap: butt}</style>
 </defs>
 <g id="figure_1">
  <g id="patch_1">
   <path d="M 0 253.629875 
L 866.532812 253.629875 
L 866.532812 0 
L 0 0 
z
" style="fill: #ffffff"/>
  </g>
  <g id="axes_1">
   <g id="patch_2">
    <path d="M 29.532813 238.70175 
L 866.532812 238.70175 
L 866.532812 16.94175 
L 29.532813 16.94175 
z
" style="fill: #ffffff"/>
   </g>
   <g id="matplotlib.axis_1">
    <g id="xtick_1">
     <g id="line2d_1">
      <defs>
       <path id="m6907aedf8a" d="M 0 1.75 
L 0 -1.75 
" style="stroke: #000000; stroke-width: 0.8"/>
      </defs>
      <g>
       <use xlink:href="#m6907aedf8a" x="85.010513" y="238.70175" style="stroke: #000000; stroke-width: 0.8"/>
      </g>
     </g>
     <g id="text_1">
      <!-- 1992 -->
      <g transform="translate(72.285513 251.550188) scale(0.1 -0.1)">
       <defs>
        <path id="DejaVuSans-31" d="M 794 531 
L 1825 531 
L 1825 4091 
L 703 3866 
L 703 4441 
L 1819 4666 
L 2450 4666 
L 2450 531 
L 3481 531 
L 3481 0 
L 794 0 
L 794 531 
z
" transform="scale(0.015625)"/>
        <path id="DejaVuSans-39" d="M 703 97 
L 703 672 
Q 941 559 1184 500 
Q 1428 441 1663 441 
Q 2288 441 2617 861 
Q 2947 1281 2994 2138 
Q 2813 1869 2534 1725 
Q 2256 1581 1919 1581 
Q 1219 1581 811 2004 
Q 403 2428 403 3163 
Q 403 3881 828 4315 
Q 1253 4750 1959 4750 
Q 2769 4750 3195 4129 
Q 3622 3509 3622 2328 
Q 3622 1225 3098 567 
Q 2575 -91 1691 -91 
Q 1453 -91 1209 -44 
Q 966 3 703 97 
z
M 1959 2075 
Q 2384 2075 2632 2365 
Q 2881 2656 2881 3163 
Q 2881 3666 2632 3958 
Q 2384 4250 1959 4250 
Q 1534 4250 1286 3958 
Q 1038 3666 1038 3163 
Q 1038 2656 1286 2365 
Q 1534 2075 1959 2075 
z
" transform="scale(0.015625)"/>
        <path id="DejaVuSans-32" d="M 1228 531 
L 3431 531 
L 3431 0 
L 469 0 
L 469 531 
Q 828 903 1448 1529 
Q 2069 2156 2228 2338 
Q 2531 2678 2651 2914 
Q 2772 3150 2772 3378 
Q 2772 3750 2511 3984 
Q 2250 4219 1831 4219 
Q 1534 4219 1204 4116 
Q 875 4013 500 3803 
L 500 4441 
Q 881 4594 1212 4672 
Q 1544 4750 1819 4750 
Q 2544 4750 2975 4387 
Q 3406 4025 3406 3419 
Q 3406 3131 3298 2873 
Q 3191 2616 2906 2266 
Q 2828 2175 2409 1742 
Q 1991 1309 1228 531 
z
" transform="scale(0.015625)"/>
       </defs>
       <use xlink:href="#DejaVuSans-31"/>
       <use xlink:href="#DejaVuSans-39" x="63.623047"/>
       <use xlink:href="#DejaVuSans-39" x="127.246094"/>
       <use xlink:href="#DejaVuSans-32" x="190.869141"/>
      </g>
     </g>
    </g>
    <g id="xtick_2">
     <g id="line2d_2">
      <g>
       <use xlink:href="#m6907aedf8a" x="200.800401" y="238.70175" style="stroke: #000000; stroke-width: 0.8"/>
      </g>
     </g>
     <g id="text_2">
      <!-- 1996 -->
      <g transform="translate(188.075401 251.550188) scale(0.1 -0.1)">
       <defs>
        <path id="DejaVuSans-36" d="M 2113 2584 
Q 1688 2584 1439 2293 
Q 1191 2003 1191 1497 
Q 1191 994 1439 701 
Q 1688 409 2113 409 
Q 2538 409 2786 701 
Q 3034 994 3034 1497 
Q 3034 2003 2786 2293 
Q 2538 2584 2113 2584 
z
M 3366 4563 
L 3366 3988 
Q 3128 4100 2886 4159 
Q 2644 4219 2406 4219 
Q 1781 4219 1451 3797 
Q 1122 3375 1075 2522 
Q 1259 2794 1537 2939 
Q 1816 3084 2150 3084 
Q 2853 3084 3261 2657 
Q 3669 2231 3669 1497 
Q 3669 778 3244 343 
Q 2819 -91 2113 -91 
Q 1303 -91 875 529 
Q 447 1150 447 2328 
Q 447 3434 972 4092 
Q 1497 4750 2381 4750 
Q 2619 4750 2861 4703 
Q 3103 4656 3366 4563 
z
" transform="scale(0.015625)"/>
       </defs>
       <use xlink:href="#DejaVuSans-31"/>
       <use xlink:href="#DejaVuSans-39" x="63.623047"/>
       <use xlink:href="#DejaVuSans-39" x="127.246094"/>
       <use xlink:href="#DejaVuSans-36" x="190.869141"/>
      </g>
     </g>
    </g>
    <g id="xtick_3">
     <g id="line2d_3">
      <g>
       <use xlink:href="#m6907aedf8a" x="316.590288" y="238.70175" style="stroke: #000000; stroke-width: 0.8"/>
      </g>
     </g>
     <g id="text_3">
      <!-- 2000 -->
      <g transform="translate(303.865288 251.550188) scale(0.1 -0.1)">
       <defs>
        <path id="DejaVuSans-30" d="M 2034 4250 
Q 1547 4250 1301 3770 
Q 1056 3291 1056 2328 
Q 1056 1369 1301 889 
Q 1547 409 2034 409 
Q 2525 409 2770 889 
Q 3016 1369 3016 2328 
Q 3016 3291 2770 3770 
Q 2525 4250 2034 4250 
z
M 2034 4750 
Q 2819 4750 3233 4129 
Q 3647 3509 3647 2328 
Q 3647 1150 3233 529 
Q 2819 -91 2034 -91 
Q 1250 -91 836 529 
Q 422 1150 422 2328 
Q 422 3509 836 4129 
Q 1250 4750 2034 4750 
z
" transform="scale(0.015625)"/>
       </defs>
       <use xlink:href="#DejaVuSans-32"/>
       <use xlink:href="#DejaVuSans-30" x="63.623047"/>
       <use xlink:href="#DejaVuSans-30" x="127.246094"/>
       <use xlink:href="#DejaVuSans-30" x="190.869141"/>
      </g>
     </g>
    </g>
    <g id="xtick_4">
     <g id="line2d_4">
      <g>
       <use xlink:href="#m6907aedf8a" x="432.380175" y="238.70175" style="stroke: #000000; stroke-width: 0.8"/>
      </g>
     </g>
     <g id="text_4">
      <!-- 2004 -->
      <g transform="translate(419.655175 251.550188) scale(0.1 -0.1)">
       <defs>
        <path id="DejaVuSans-34" d="M 2419 4116 
L 825 1625 
L 2419 1625 
L 2419 4116 
z
M 2253 4666 
L 3047 4666 
L 3047 1625 
L 3713 1625 
L 3713 1100 
L 3047 1100 
L 3047 0 
L 2419 0 
L 2419 1100 
L 313 1100 
L 313 1709 
L 2253 4666 
z
" transform="scale(0.015625)"/>
       </defs>
       <use xlink:href="#DejaVuSans-32"/>
       <use xlink:href="#DejaVuSans-30" x="63.623047"/>
       <use xlink:href="#DejaVuSans-30" x="127.246094"/>
       <use xlink:href="#DejaVuSans-34" x="190.869141"/>
      </g>
     </g>
    </g>
    <g id="xtick_5">
     <g id="line2d_5">
      <g>
       <use xlink:href="#m6907aedf8a" x="548.170063" y="238.70175" style="stroke: #000000; stroke-width: 0.8"/>
      </g>
     </g>
     <g id="text_5">
      <!-- 2008 -->
      <g transform="translate(535.445063 251.550188) scale(0.1 -0.1)">
       <defs>
        <path id="DejaVuSans-38" d="M 2034 2216 
Q 1584 2216 1326 1975 
Q 1069 1734 1069 1313 
Q 1069 891 1326 650 
Q 1584 409 2034 409 
Q 2484 409 2743 651 
Q 3003 894 3003 1313 
Q 3003 1734 2745 1975 
Q 2488 2216 2034 2216 
z
M 1403 2484 
Q 997 2584 770 2862 
Q 544 3141 544 3541 
Q 544 4100 942 4425 
Q 1341 4750 2034 4750 
Q 2731 4750 3128 4425 
Q 3525 4100 3525 3541 
Q 3525 3141 3298 2862 
Q 3072 2584 2669 2484 
Q 3125 2378 3379 2068 
Q 3634 1759 3634 1313 
Q 3634 634 3220 271 
Q 2806 -91 2034 -91 
Q 1263 -91 848 271 
Q 434 634 434 1313 
Q 434 1759 690 2068 
Q 947 2378 1403 2484 
z
M 1172 3481 
Q 1172 3119 1398 2916 
Q 1625 2713 2034 2713 
Q 2441 2713 2670 2916 
Q 2900 3119 2900 3481 
Q 2900 3844 2670 4047 
Q 2441 4250 2034 4250 
Q 1625 4250 1398 4047 
Q 1172 3844 1172 3481 
z
" transform="scale(0.015625)"/>
       </defs>
       <use xlink:href="#DejaVuSans-32"/>
       <use xlink:href="#DejaVuSans-30" x="63.623047"/>
       <use xlink:href="#DejaVuSans-30" x="127.246094"/>
       <use xlink:href="#DejaVuSans-38" x="190.869141"/>
      </g>
     </g>
    </g>
    <g id="xtick_6">
     <g id="line2d_6">
      <g>
       <use xlink:href="#m6907aedf8a" x="663.95995" y="238.70175" style="stroke: #000000; stroke-width: 0.8"/>
      </g>
     </g>
     <g id="text_6">
      <!-- 2012 -->
      <g transform="translate(651.23495 251.550188) scale(0.1 -0.1)">
       <use xlink:href="#DejaVuSans-32"/>
       <use xlink:href="#DejaVuSans-30" x="63.623047"/>
       <use xlink:href="#DejaVuSans-31" x="127.246094"/>
       <use xlink:href="#DejaVuSans-32" x="190.869141"/>
      </g>
     </g>
    </g>
    <g id="xtick_7">
     <g id="line2d_7">
      <g>
       <use xlink:href="#m6907aedf8a" x="779.749837" y="238.70175" style="stroke: #000000; stroke-width: 0.8"/>
      </g>
     </g>
     <g id="text_7">
      <!-- 2016 -->
      <g transform="translate(767.024837 251.550188) scale(0.1 -0.1)">
       <use xlink:href="#DejaVuSans-32"/>
       <use xlink:href="#DejaVuSans-30" x="63.623047"/>
       <use xlink:href="#DejaVuSans-31" x="127.246094"/>
       <use xlink:href="#DejaVuSans-36" x="190.869141"/>
      </g>
     </g>
    </g>
   </g>
   <g id="matplotlib.axis_2">
    <g id="ytick_1">
     <g id="line2d_8">
      <path d="M 29.532813 210.324433 
L 866.532812 210.324433 
" clip-path="url(#pb70662669a)" style="fill: none; stroke-dasharray: 1.85,0.8; stroke-dashoffset: 0; stroke: #b2b2b2; stroke-width: 0.5"/>
     </g>
     <g id="line2d_9">
      <defs>
       <path id="me6541b19a9" d="M 1.75 0 
L -1.75 -0 
" style="stroke: #000000; stroke-width: 0.8"/>
      </defs>
      <g>
       <use xlink:href="#me6541b19a9" x="29.532813" y="210.324433" style="stroke: #000000; stroke-width: 0.8"/>
      </g>
     </g>
     <g id="text_8">
      <!-- −1.0 -->
      <g transform="translate(0 214.123652) scale(0.1 -0.1)">
       <defs>
        <path id="DejaVuSans-2212" d="M 678 2272 
L 4684 2272 
L 4684 1741 
L 678 1741 
L 678 2272 
z
" transform="scale(0.015625)"/>
        <path id="DejaVuSans-2e" d="M 684 794 
L 1344 794 
L 1344 0 
L 684 0 
L 684 794 
z
" transform="scale(0.015625)"/>
       </defs>
       <use xlink:href="#DejaVuSans-2212"/>
       <use xlink:href="#DejaVuSans-31" x="83.789062"/>
       <use xlink:href="#DejaVuSans-2e" x="147.412109"/>
       <use xlink:href="#DejaVuSans-30" x="179.199219"/>
      </g>
     </g>
    </g>
    <g id="ytick_2">
     <g id="line2d_10">
      <path d="M 29.532813 177.451409 
L 866.532812 177.451409 
" clip-path="url(#pb70662669a)" style="fill: none; stroke-dasharray: 1.85,0.8; stroke-dashoffset: 0; stroke: #b2b2b2; stroke-width: 0.5"/>
     </g>
     <g id="line2d_11">
      <g>
       <use xlink:href="#me6541b19a9" x="29.532813" y="177.451409" style="stroke: #000000; stroke-width: 0.8"/>
      </g>
     </g>
     <g id="text_9">
      <!-- −0.5 -->
      <g transform="translate(0 181.250628) scale(0.1 -0.1)">
       <defs>
        <path id="DejaVuSans-35" d="M 691 4666 
L 3169 4666 
L 3169 4134 
L 1269 4134 
L 1269 2991 
Q 1406 3038 1543 3061 
Q 1681 3084 1819 3084 
Q 2600 3084 3056 2656 
Q 3513 2228 3513 1497 
Q 3513 744 3044 326 
Q 2575 -91 1722 -91 
Q 1428 -91 1123 -41 
Q 819 9 494 109 
L 494 744 
Q 775 591 1075 516 
Q 1375 441 1709 441 
Q 2250 441 2565 725 
Q 2881 1009 2881 1497 
Q 2881 1984 2565 2268 
Q 2250 2553 1709 2553 
Q 1456 2553 1204 2497 
Q 953 2441 691 2322 
L 691 4666 
z
" transform="scale(0.015625)"/>
       </defs>
       <use xlink:href="#DejaVuSans-2212"/>
       <use xlink:href="#DejaVuSans-30" x="83.789062"/>
       <use xlink:href="#DejaVuSans-2e" x="147.412109"/>
       <use xlink:href="#DejaVuSans-35" x="179.199219"/>
      </g>
     </g>
    </g>
    <g id="ytick_3">
     <g id="line2d_12">
      <path d="M 29.532813 144.578386 
L 866.532812 144.578386 
" clip-path="url(#pb70662669a)" style="fill: none; stroke-dasharray: 1.85,0.8; stroke-dashoffset: 0; stroke: #b2b2b2; stroke-width: 0.5"/>
     </g>
     <g id="line2d_13">
      <g>
       <use xlink:href="#me6541b19a9" x="29.532813" y="144.578386" style="stroke: #000000; stroke-width: 0.8"/>
      </g>
     </g>
     <g id="text_10">
      <!-- 0.0 -->
      <g transform="translate(8.379688 148.377604) scale(0.1 -0.1)">
       <use xlink:href="#DejaVuSans-30"/>
       <use xlink:href="#DejaVuSans-2e" x="63.623047"/>
       <use xlink:href="#DejaVuSans-30" x="95.410156"/>
      </g>
     </g>
    </g>
    <g id="ytick_4">
     <g id="line2d_14">
      <path d="M 29.532813 111.705362 
L 866.532812 111.705362 
" clip-path="url(#pb70662669a)" style="fill: none; stroke-dasharray: 1.85,0.8; stroke-dashoffset: 0; stroke: #b2b2b2; stroke-width: 0.5"/>
     </g>
     <g id="line2d_15">
      <g>
       <use xlink:href="#me6541b19a9" x="29.532813" y="111.705362" style="stroke: #000000; stroke-width: 0.8"/>
      </g>
     </g>
     <g id="text_11">
      <!-- 0.5 -->
      <g transform="translate(8.379688 115.504581) scale(0.1 -0.1)">
       <use xlink:href="#DejaVuSans-30"/>
       <use xlink:href="#DejaVuSans-2e" x="63.623047"/>
       <use xlink:href="#DejaVuSans-35" x="95.410156"/>
      </g>
     </g>
    </g>
    <g id="ytick_5">
     <g id="line2d_16">
      <path d="M 29.532813 78.832339 
L 866.532812 78.832339 
" clip-path="url(#pb70662669a)" style="fill: none; stroke-dasharray: 1.85,0.8; stroke-dashoffset: 0; stroke: #b2b2b2; stroke-width: 0.5"/>
     </g>
     <g id="line2d_17">
      <g>
       <use xlink:href="#me6541b19a9" x="29.532813" y="78.832339" style="stroke: #000000; stroke-width: 0.8"/>
      </g>
     </g>
     <g id="text_12">
      <!-- 1.0 -->
      <g transform="translate(8.379688 82.631557) scale(0.1 -0.1)">
       <use xlink:href="#DejaVuSans-31"/>
       <use xlink:href="#DejaVuSans-2e" x="63.623047"/>
       <use xlink:href="#DejaVuSans-30" x="95.410156"/>
      </g>
     </g>
    </g>
    <g id="ytick_6">
     <g id="line2d_18">
      <path d="M 29.532813 45.959315 
L 866.532812 45.959315 
" clip-path="url(#pb70662669a)" style="fill: none; stroke-dasharray: 1.85,0.8; stroke-dashoffset: 0; stroke: #b2b2b2; stroke-width: 0.5"/>
     </g>
     <g id="line2d_19">
      <g>
       <use xlink:href="#me6541b19a9" x="29.532813" y="45.959315" style="stroke: #000000; stroke-width: 0.8"/>
      </g>
     </g>
     <g id="text_13">
      <!-- 1.5 -->
      <g transform="translate(8.379688 49.758534) scale(0.1 -0.1)">
       <use xlink:href="#DejaVuSans-31"/>
       <use xlink:href="#DejaVuSans-2e" x="63.623047"/>
       <use xlink:href="#DejaVuSans-35" x="95.410156"/>
      </g>
     </g>
    </g>
   </g>
   <g id="line2d_20">
    <path d="M 29.532812 224.538815 
L 31.751921 226.963143 
L 34.20879 230.869979 
L 36.586406 229.27962 
L 39.043276 227.933162 
L 41.420891 227.859217 
L 43.877761 215.604541 
L 46.334631 218.25155 
L 48.712246 216.008451 
L 51.169116 222.443139 
L 53.546732 231.820532 
L 56.003601 231.023649 
L 58.460471 234.398444 
L 60.679579 232.24323 
L 63.136449 233.707301 
L 65.514064 224.675483 
L 67.970934 226.041626 
L 70.34855 219.074831 
L 72.805419 218.544458 
L 75.262289 221.939042 
L 77.639905 212.618886 
L 80.096774 229.54451 
L 82.47439 238.70175 
L 84.93126 224.781479 
L 87.388129 209.815436 
L 89.686491 212.541397 
L 92.143361 200.407411 
L 94.520976 193.95162 
L 96.977846 193.885573 
L 99.355462 190.899178 
L 101.812331 189.452621 
L 104.269201 188.470346 
L 106.646817 185.789726 
L 109.103686 184.930055 
L 111.481302 186.352043 
L 113.938172 152.776536 
L 116.395041 150.652358 
L 118.614149 146.363252 
L 121.071019 148.084613 
L 123.448635 141.408893 
L 128.28312 139.428593 
L 130.73999 139.227273 
L 133.196859 140.15007 
L 135.574475 140.625376 
L 138.031345 140.038831 
L 140.408961 142.527572 
L 142.86583 141.4459 
L 145.3227 139.056002 
L 147.541808 137.850794 
L 149.998677 137.989713 
L 152.376293 135.165593 
L 154.833163 135.229632 
L 157.210779 136.542038 
L 159.667648 139.558715 
L 162.124518 139.806627 
L 164.502134 137.860399 
L 166.959003 137.729096 
L 169.336619 134.603174 
L 171.793489 133.791044 
L 174.250358 133.821462 
L 176.469466 133.971829 
L 178.926336 136.317306 
L 181.303952 135.481883 
L 183.760821 134.009106 
L 186.138437 133.135346 
L 188.595307 134.666794 
L 191.052176 135.30127 
L 193.429792 135.181711 
L 195.886662 136.328966 
L 198.264277 135.096436 
L 200.721147 136.425323 
L 203.178017 137.209589 
L 205.476378 136.52745 
L 207.933248 135.935784 
L 210.310864 133.322596 
L 212.767733 133.202765 
L 215.145349 134.064877 
L 217.602219 133.085846 
L 220.059088 133.313675 
L 222.436704 132.658082 
L 224.893574 131.693385 
L 227.27119 127.489923 
L 229.728059 126.548951 
L 232.184929 128.505044 
L 234.404037 120.364593 
L 236.860906 120.145522 
L 239.238522 118.475749 
L 241.695392 119.069821 
L 244.073008 120.339982 
L 246.529877 118.856954 
L 248.986747 119.642674 
L 251.364363 117.960283 
L 256.198848 118.369822 
L 258.655718 117.42914 
L 261.112587 119.219318 
L 263.331695 118.838009 
L 265.788565 120.491876 
L 268.166181 125.190484 
L 270.62305 126.636181 
L 273.000666 123.410671 
L 275.457536 119.230195 
L 277.914405 119.722958 
L 280.292021 116.131098 
L 282.748891 118.985083 
L 285.126506 111.934406 
L 287.583376 109.98267 
L 290.040246 111.603594 
L 292.259354 113.259668 
L 294.716223 114.845053 
L 297.093839 117.341864 
L 299.550709 111.74041 
L 301.928324 107.129914 
L 304.385194 105.310244 
L 306.842064 107.505361 
L 309.219679 104.751817 
L 311.676549 102.087808 
L 314.054165 101.374785 
L 316.511034 102.464756 
L 318.967904 105.894617 
L 321.266266 103.403391 
L 323.723135 101.915633 
L 326.100751 109.543413 
L 328.557621 106.53167 
L 330.935237 108.21253 
L 333.392106 103.773396 
L 335.848976 107.368317 
L 338.226591 109.54896 
L 340.683461 108.850537 
L 343.061077 110.621569 
L 345.517946 110.020386 
L 347.974816 108.178764 
L 350.193924 112.382097 
L 352.650794 106.395749 
L 355.02841 107.304293 
L 357.485279 104.522352 
L 359.862895 100.575293 
L 362.319764 101.002056 
L 364.776634 100.513925 
L 367.15425 100.765083 
L 369.611119 101.766036 
L 371.988735 99.244317 
L 374.445605 99.646679 
L 376.902474 101.755324 
L 379.121583 103.093528 
L 381.578452 103.469053 
L 383.956068 103.330016 
L 386.412937 103.492884 
L 388.790553 102.49924 
L 391.247423 102.999812 
L 393.704292 103.691069 
L 396.081908 109.336603 
L 398.538778 108.012895 
L 400.916394 108.909915 
L 403.373263 109.472174 
L 405.830133 107.007875 
L 408.049241 107.224374 
L 410.50611 108.59906 
L 412.883726 105.193192 
L 415.340596 106.257577 
L 417.718212 105.779527 
L 420.175081 104.468836 
L 422.631951 104.822458 
L 425.009567 105.309519 
L 427.466436 108.905985 
L 429.844052 114.254609 
L 432.300922 113.048895 
L 434.757791 109.223365 
L 437.056153 104.019104 
L 439.513023 104.030284 
L 441.890638 107.159369 
L 444.347508 106.580422 
L 446.725124 107.432727 
L 449.181993 108.168044 
L 451.638863 107.062099 
L 454.016479 108.568439 
L 456.473348 107.536121 
L 458.850964 109.463561 
L 461.307834 112.450721 
L 463.764703 111.755563 
L 465.983811 113.60731 
L 468.440681 111.451357 
L 470.818297 111.647167 
L 473.275166 108.214782 
L 475.652782 110.204322 
L 478.109652 112.866295 
L 480.566521 113.731551 
L 482.944137 113.40248 
L 485.401007 116.023376 
L 487.778623 115.201669 
L 490.235492 113.88227 
L 492.692362 109.29546 
L 494.91147 112.185684 
L 497.368339 125.167644 
L 499.745955 126.23298 
L 502.202825 127.029573 
L 504.580441 127.953225 
L 507.03731 128.717424 
L 509.49418 127.95306 
L 511.871796 122.587569 
L 514.328665 122.694801 
L 516.706281 123.756075 
L 519.163151 125.128417 
L 521.62002 124.080668 
L 523.839128 123.815729 
L 526.295998 126.836191 
L 528.673614 124.280885 
L 531.130483 124.921076 
L 533.508099 124.708771 
L 535.964969 125.490131 
L 538.421838 123.523095 
L 540.799454 119.03697 
L 543.256324 118.05281 
L 545.633939 120.950755 
L 548.090809 120.063382 
L 550.547679 115.51198 
L 552.84604 117.267381 
L 555.30291 109.03383 
L 557.680526 107.740517 
L 560.137395 105.389095 
L 562.515011 109.440195 
L 564.971881 108.813827 
L 567.42875 103.096904 
L 569.806366 102.966214 
L 572.263236 104.728954 
L 574.640852 95.821132 
L 577.097721 83.758207 
L 579.554591 81.776254 
L 581.773699 81.817389 
L 584.230568 76.545843 
L 586.608184 46.375811 
L 589.065054 51.831813 
L 591.44267 51.66487 
L 593.899539 43.975378 
L 596.356409 42.765334 
L 598.734025 45.216641 
L 601.190894 49.46466 
L 603.56851 47.312141 
L 606.025379 47.773294 
L 608.482249 47.551362 
L 610.701357 43.778456 
L 613.158227 42.053548 
L 615.535843 44.238853 
L 617.992712 47.156198 
L 620.370328 42.046269 
L 622.827198 32.322008 
L 625.284067 44.256626 
L 627.661683 39.434758 
L 630.118552 34.137882 
L 632.496168 33.806709 
L 634.953038 30.265488 
L 637.409907 33.82956 
L 639.629016 38.888047 
L 642.085885 49.612918 
L 644.463501 48.409116 
L 646.92037 50.40957 
L 649.297986 48.776376 
L 651.754856 47.440215 
L 654.211725 50.736497 
L 656.589341 49.020413 
L 659.046211 42.230698 
L 661.423827 48.196841 
L 663.880696 45.214031 
L 666.337566 37.384421 
L 668.635928 39.435719 
L 671.092797 42.974336 
L 673.470413 47.215995 
L 675.927283 48.535849 
L 678.304898 47.796459 
L 680.761768 49.465963 
L 683.218638 44.571284 
L 685.596253 42.270256 
L 688.053123 43.915627 
L 690.430739 44.197828 
L 692.887608 38.551562 
L 695.344478 43.720792 
L 697.563586 45.226757 
L 700.020456 47.046562 
L 702.398071 47.405129 
L 704.854941 41.426897 
L 707.232557 47.059734 
L 709.689426 51.390302 
L 712.146296 47.15947 
L 714.523912 45.435634 
L 716.980781 47.795783 
L 719.358397 56.204417 
L 721.815267 58.120346 
L 724.272136 61.514187 
L 726.491244 63.57265 
L 728.948114 71.813437 
L 731.32573 82.059708 
L 733.782599 78.665272 
L 736.160215 79.992004 
L 738.617085 80.990798 
L 741.073954 81.429926 
L 743.45157 82.494854 
L 745.90844 84.958565 
L 748.286056 83.969307 
L 750.742925 84.745934 
L 753.199795 98.363738 
L 755.418903 95.866038 
L 757.875772 100.082848 
L 760.253388 99.668324 
L 762.710258 98.852704 
L 765.087874 100.390749 
L 767.544743 108.263883 
L 770.001613 100.746963 
L 772.379229 101.211953 
L 774.836098 96.793947 
L 779.670584 84.143498 
L 784.425815 83.685796 
L 786.882685 75.260069 
L 789.2603 75.932806 
L 791.71717 73.831995 
L 794.094786 76.236011 
L 796.551655 74.044687 
L 799.008525 74.531392 
L 801.386141 76.203493 
L 803.84301 77.697189 
L 806.220626 82.204789 
L 808.677496 85.275439 
L 813.353473 84.839544 
L 815.810343 86.211578 
L 818.187959 85.881697 
L 820.644828 85.251484 
L 823.022444 85.051912 
L 825.479314 92.929329 
L 827.936183 95.805687 
L 830.313799 96.36214 
L 832.770669 98.956814 
L 835.148285 98.401067 
L 837.605154 100.833222 
L 840.062024 105.189175 
L 842.281132 105.155994 
L 844.738001 107.150802 
L 847.115617 110.997168 
L 849.572487 110.796866 
L 851.950103 108.897882 
L 854.406972 108.329171 
L 856.863842 110.077337 
L 859.241458 111.524569 
L 861.698327 109.659826 
L 864.075943 110.121202 
L 866.532813 102.90221 
L 866.532813 102.90221 
" clip-path="url(#pb70662669a)" style="fill: none; stroke: #e69f00; stroke-width: 2; stroke-linecap: square"/>
   </g>
   <g id="line2d_21">
    <path d="M 29.532812 31.650339 
L 31.751921 37.325438 
L 34.20879 34.297381 
L 36.586406 35.690832 
L 39.043276 36.130589 
L 41.420891 37.626694 
L 43.877761 37.513796 
L 46.334631 34.705023 
L 48.712246 46.299127 
L 51.169116 39.172607 
L 53.546732 36.773203 
L 56.003601 36.790337 
L 58.460471 33.400083 
L 63.136449 35.963134 
L 65.514064 38.548489 
L 67.970934 37.349346 
L 70.34855 39.884719 
L 72.805419 39.787321 
L 75.262289 35.614789 
L 77.639905 39.90471 
L 80.096774 32.071745 
L 82.47439 27.067518 
L 84.93126 25.299922 
L 87.388129 29.131021 
L 89.686491 23.599101 
L 92.143361 26.415923 
L 94.520976 27.793738 
L 96.977846 16.94175 
L 99.355462 23.224446 
L 101.812331 25.559327 
L 104.269201 23.337854 
L 106.646817 21.656229 
L 109.103686 20.793146 
L 111.481302 18.554357 
L 113.938172 32.544036 
L 116.395041 40.498825 
L 118.614149 44.130081 
L 121.071019 40.214337 
L 123.448635 48.220529 
L 125.905504 47.086967 
L 128.28312 46.861242 
L 130.73999 48.080649 
L 133.196859 49.170119 
L 135.574475 48.608448 
L 138.031345 51.150705 
L 140.408961 51.698537 
L 145.3227 51.350175 
L 147.541808 53.113503 
L 149.998677 53.957955 
L 152.376293 53.59644 
L 154.833163 51.667518 
L 157.210779 55.543219 
L 159.667648 57.632603 
L 162.124518 56.73396 
L 164.502134 61.733188 
L 166.959003 59.647692 
L 169.336619 58.112273 
L 171.793489 58.319512 
L 176.469466 52.661014 
L 178.926336 57.976003 
L 181.303952 57.713912 
L 183.760821 58.821662 
L 186.138437 56.556198 
L 188.595307 63.739563 
L 191.052176 63.255875 
L 193.429792 56.552392 
L 195.886662 68.599062 
L 198.264277 68.997904 
L 200.721147 69.237515 
L 203.178017 73.685773 
L 205.476378 76.203961 
L 207.933248 77.278944 
L 210.310864 81.225711 
L 212.767733 82.559493 
L 215.145349 81.150731 
L 217.602219 81.09582 
L 220.059088 83.748839 
L 222.436704 81.532784 
L 224.893574 81.663648 
L 227.27119 82.025167 
L 229.728059 83.156779 
L 232.184929 80.216804 
L 234.404037 94.731379 
L 236.860906 91.397726 
L 239.238522 91.946698 
L 241.695392 88.868794 
L 244.073008 84.378081 
L 246.529877 85.327698 
L 248.986747 83.525072 
L 251.364363 79.705426 
L 253.821232 79.857475 
L 256.198848 77.586603 
L 258.655718 76.534145 
L 261.112587 75.290871 
L 263.331695 76.213063 
L 265.788565 76.873664 
L 268.166181 69.711901 
L 270.62305 71.080161 
L 273.000666 73.817504 
L 275.457536 75.68624 
L 277.914405 81.512505 
L 280.292021 92.554081 
L 282.748891 68.157091 
L 285.126506 69.953364 
L 287.583376 68.62345 
L 290.040246 64.759518 
L 292.259354 66.149897 
L 294.716223 69.602481 
L 297.093839 68.256465 
L 299.550709 79.438737 
L 301.928324 84.209858 
L 304.385194 83.908807 
L 306.842064 84.438489 
L 309.219679 80.56971 
L 311.676549 81.467375 
L 314.054165 84.818096 
L 316.511034 81.625178 
L 318.967904 84.587535 
L 321.266266 84.95954 
L 323.723135 79.535359 
L 326.100751 85.877242 
L 328.557621 82.766824 
L 330.935237 89.583418 
L 333.392106 81.443108 
L 335.848976 79.881758 
L 338.226591 88.345737 
L 340.683461 86.993034 
L 343.061077 88.895483 
L 345.517946 85.521086 
L 347.974816 86.571078 
L 350.193924 88.758144 
L 352.650794 90.96053 
L 355.02841 89.735039 
L 357.485279 88.639792 
L 359.862895 90.567461 
L 362.319764 94.268616 
L 364.776634 97.270772 
L 367.15425 98.720285 
L 369.611119 96.672441 
L 371.988735 99.037885 
L 374.445605 99.540909 
L 376.902474 100.335685 
L 379.121583 100.050499 
L 381.578452 98.993892 
L 386.412937 103.809933 
L 388.790553 103.140498 
L 391.247423 104.228617 
L 393.704292 102.117316 
L 396.081908 106.135763 
L 398.538778 105.616149 
L 400.916394 105.335808 
L 403.373263 104.916584 
L 405.830133 105.949407 
L 408.049241 105.04037 
L 410.50611 105.96421 
L 412.883726 105.75479 
L 415.340596 106.721314 
L 417.718212 107.021266 
L 420.175081 106.534891 
L 422.631951 107.302162 
L 425.009567 105.096124 
L 427.466436 113.063401 
L 429.844052 112.854159 
L 432.300922 114.053859 
L 434.757791 118.32093 
L 437.056153 123.175542 
L 439.513023 121.837713 
L 441.890638 121.737038 
L 444.347508 119.427452 
L 449.181993 119.058569 
L 451.638863 121.803446 
L 454.016479 121.024982 
L 456.473348 121.78742 
L 458.850964 121.58392 
L 461.307834 127.781158 
L 463.764703 128.1897 
L 465.983811 126.785745 
L 468.440681 126.615793 
L 470.818297 132.271231 
L 473.275166 135.585007 
L 475.652782 135.320605 
L 478.109652 135.625447 
L 480.566521 135.80685 
L 482.944137 135.456034 
L 485.401007 134.44032 
L 487.778623 135.500085 
L 490.235492 138.402429 
L 492.692362 138.253949 
L 494.91147 138.407753 
L 497.368339 133.969654 
L 499.745955 132.559887 
L 502.202825 133.748416 
L 504.580441 132.915508 
L 507.03731 134.777534 
L 509.49418 131.516923 
L 511.871796 133.301736 
L 514.328665 133.172059 
L 516.706281 131.176301 
L 519.163151 133.518913 
L 521.62002 134.789168 
L 526.295998 133.012584 
L 528.673614 131.103131 
L 531.130483 129.64479 
L 533.508099 129.78716 
L 535.964969 129.373415 
L 538.421838 131.93122 
L 540.799454 125.228158 
L 543.256324 125.455629 
L 545.633939 126.323182 
L 548.090809 124.4196 
L 550.547679 126.699088 
L 552.84604 123.630844 
L 555.30291 124.328647 
L 557.680526 121.370214 
L 560.137395 122.49163 
L 562.515011 126.003449 
L 564.971881 128.894446 
L 567.42875 125.777387 
L 569.806366 125.411539 
L 572.263236 124.155536 
L 574.640852 125.2039 
L 577.097721 131.869983 
L 579.554591 130.115904 
L 581.773699 126.44091 
L 584.230568 125.02943 
L 586.608184 126.72624 
L 589.065054 125.396993 
L 591.44267 126.169018 
L 593.899539 125.352554 
L 596.356409 125.440736 
L 598.734025 127.826388 
L 601.190894 129.062883 
L 603.56851 128.952792 
L 606.025379 128.485731 
L 610.701357 128.666141 
L 613.158227 128.377394 
L 615.535843 124.677056 
L 617.992712 125.708336 
L 620.370328 123.764258 
L 622.827198 124.810689 
L 625.284067 126.522658 
L 627.661683 126.346241 
L 630.118552 127.135835 
L 632.496168 127.336186 
L 634.953038 123.328883 
L 637.409907 123.509767 
L 639.629016 124.733304 
L 642.085885 123.535437 
L 644.463501 124.143771 
L 646.92037 125.314612 
L 649.297986 124.514105 
L 651.754856 123.311388 
L 654.211725 124.626988 
L 656.589341 124.50598 
L 659.046211 120.303578 
L 661.423827 124.80716 
L 663.880696 126.32485 
L 666.337566 127.222464 
L 668.635928 127.052221 
L 671.092797 129.979779 
L 673.470413 130.388934 
L 675.927283 130.1426 
L 678.304898 128.520395 
L 680.761768 129.263919 
L 683.218638 128.639778 
L 685.596253 130.971164 
L 690.430739 132.0931 
L 692.887608 130.219197 
L 695.344478 129.819485 
L 697.563586 130.914914 
L 700.020456 133.070061 
L 702.398071 132.011177 
L 704.854941 130.18657 
L 707.232557 131.326588 
L 709.689426 131.47475 
L 712.146296 133.785834 
L 714.523912 135.129809 
L 716.980781 135.414273 
L 719.358397 129.670223 
L 721.815267 126.695089 
L 724.272136 134.601305 
L 726.491244 137.735769 
L 728.948114 138.262078 
L 731.32573 133.085848 
L 733.782599 139.028615 
L 736.160215 136.752124 
L 738.617085 136.347649 
L 741.073954 137.010875 
L 743.45157 141.904308 
L 745.90844 139.605919 
L 748.286056 142.740318 
L 750.742925 141.981754 
L 753.199795 133.569256 
L 755.418903 132.649466 
L 757.875772 131.878141 
L 760.253388 128.84982 
L 762.710258 131.757846 
L 765.087874 131.056278 
L 767.544743 128.121685 
L 770.001613 131.734711 
L 772.379229 127.501961 
L 774.836098 126.027594 
L 777.213714 129.76425 
L 779.670584 132.307569 
L 782.127453 131.726335 
L 784.425815 131.996904 
L 786.882685 131.07263 
L 789.2603 129.077388 
L 791.71717 130.457533 
L 794.094786 128.17102 
L 796.551655 128.537912 
L 799.008525 131.450411 
L 801.386141 131.247322 
L 803.84301 131.258323 
L 806.220626 127.278429 
L 808.677496 122.84038 
L 811.134365 122.905115 
L 813.353473 122.779151 
L 815.810343 123.883097 
L 818.187959 123.212418 
L 820.644828 125.376904 
L 823.022444 124.554607 
L 825.479314 122.050681 
L 827.936183 122.334682 
L 830.313799 121.523619 
L 832.770669 122.146746 
L 835.148285 123.504234 
L 837.605154 123.752318 
L 842.281132 124.033054 
L 844.738001 117.446442 
L 847.115617 121.121641 
L 849.572487 119.563909 
L 851.950103 120.361475 
L 854.406972 120.102031 
L 856.863842 120.799297 
L 859.241458 119.34208 
L 864.075943 118.539553 
L 866.532813 121.158064 
L 866.532813 121.158064 
" clip-path="url(#pb70662669a)" style="fill: none; stroke-dasharray: 7.4,3.2; stroke-dashoffset: 0; stroke: #56b4e9; stroke-width: 2"/>
   </g>
   <g id="line2d_22">
    <path d="M 29.532812 135.309196 
L 31.751921 136.071096 
L 34.20879 134.596662 
L 36.586406 135.431761 
L 39.043276 134.685807 
L 41.420891 135.056956 
L 43.877761 139.654401 
L 46.334631 140.38761 
L 48.712246 133.315094 
L 51.169116 134.465628 
L 53.546732 130.891221 
L 56.003601 131.542514 
L 58.460471 129.947884 
L 60.679579 131.355146 
L 63.136449 128.145014 
L 65.514064 128.99501 
L 67.970934 130.799482 
L 70.34855 133.902445 
L 72.805419 135.186611 
L 75.262289 134.470947 
L 77.639905 134.955036 
L 80.096774 131.883947 
L 82.47439 131.952323 
L 84.93126 136.700183 
L 87.388129 138.389064 
L 92.143361 137.01457 
L 94.520976 139.616294 
L 96.977846 141.275826 
L 99.355462 145.275799 
L 101.812331 145.068027 
L 104.269201 147.946755 
L 106.646817 150.455168 
L 109.103686 150.131913 
L 111.481302 150.271432 
L 113.938172 163.113967 
L 116.395041 157.791134 
L 118.614149 153.288357 
L 121.071019 156.478138 
L 123.448635 157.207918 
L 125.905504 157.56889 
L 130.73999 155.905818 
L 133.196859 154.119074 
L 135.574475 153.296647 
L 138.031345 150.037238 
L 140.408961 149.16846 
L 142.86583 149.517599 
L 145.3227 150.998156 
L 147.541808 149.939883 
L 149.998677 147.894968 
L 152.376293 146.643518 
L 154.833163 145.772699 
L 157.210779 141.954378 
L 162.124518 138.842093 
L 164.502134 141.267067 
L 166.959003 143.368733 
L 169.336619 143.86052 
L 171.793489 146.039099 
L 174.250358 146.941816 
L 176.469466 145.125514 
L 178.926336 142.84324 
L 181.303952 143.367492 
L 183.760821 141.502331 
L 186.138437 144.427775 
L 188.595307 137.095419 
L 191.052176 135.959879 
L 193.429792 143.43183 
L 195.886662 134.76899 
L 198.264277 138.847616 
L 200.721147 136.78362 
L 203.178017 131.500124 
L 205.476378 129.628155 
L 207.933248 129.879202 
L 210.310864 133.100759 
L 212.767733 131.577526 
L 215.145349 134.590146 
L 217.602219 136.737282 
L 220.059088 135.624697 
L 222.436704 141.183987 
L 224.893574 141.463938 
L 227.27119 143.976378 
L 229.728059 143.037522 
L 232.184929 144.848332 
L 234.404037 148.886225 
L 236.860906 150.509082 
L 239.238522 151.655427 
L 241.695392 152.285174 
L 244.073008 151.90823 
L 246.529877 155.103764 
L 248.986747 152.821871 
L 251.364363 156.243645 
L 253.821232 153.82025 
L 256.198848 153.489136 
L 258.655718 155.125263 
L 261.112587 156.311424 
L 263.331695 156.17248 
L 265.788565 153.615003 
L 268.166181 153.873973 
L 270.62305 152.35025 
L 273.000666 152.599548 
L 275.457536 153.189925 
L 277.914405 151.690317 
L 280.292021 147.867041 
L 282.748891 148.125377 
L 285.126506 152.245837 
L 287.583376 153.055998 
L 290.040246 154.036873 
L 292.259354 152.001517 
L 294.716223 146.686406 
L 297.093839 150.057497 
L 299.550709 151.662253 
L 301.928324 152.686806 
L 304.385194 151.573073 
L 306.842064 151.960049 
L 309.219679 152.174746 
L 311.676549 152.928952 
L 314.054165 151.102627 
L 316.511034 151.509988 
L 318.967904 150.391611 
L 321.266266 153.39688 
L 323.723135 152.655493 
L 326.100751 148.015504 
L 328.557621 148.35619 
L 330.935237 146.823011 
L 335.848976 148.341437 
L 338.226591 148.074544 
L 340.683461 148.443856 
L 343.061077 147.335009 
L 345.517946 147.316797 
L 347.974816 147.627773 
L 350.193924 145.754428 
L 352.650794 144.384776 
L 355.02841 144.896654 
L 359.862895 146.580968 
L 362.319764 146.40742 
L 364.776634 146.067224 
L 367.15425 145.504918 
L 369.611119 146.016027 
L 371.988735 146.953496 
L 376.902474 147.035162 
L 379.121583 146.754192 
L 381.578452 147.011276 
L 383.956068 146.128922 
L 386.412937 146.225565 
L 388.790553 146.519636 
L 391.247423 146.407333 
L 393.704292 147.263405 
L 396.081908 147.237977 
L 398.538778 148.293349 
L 400.916394 148.888659 
L 403.373263 148.299891 
L 405.830133 149.0312 
L 408.049241 149.242898 
L 410.50611 148.927321 
L 412.883726 149.354915 
L 417.718212 148.996472 
L 420.175081 149.625085 
L 422.631951 149.352352 
L 425.009567 149.574218 
L 427.466436 150.128435 
L 429.844052 149.022173 
L 432.300922 149.353422 
L 434.757791 149.42436 
L 437.056153 148.53443 
L 439.513023 149.159318 
L 441.890638 148.412063 
L 444.347508 148.710931 
L 449.181993 148.477289 
L 451.638863 148.090759 
L 454.016479 148.747328 
L 456.473348 148.892534 
L 458.850964 149.337354 
L 461.307834 149.518015 
L 463.764703 149.346752 
L 465.983811 149.848228 
L 468.440681 150.045046 
L 470.818297 153.190987 
L 473.275166 155.153349 
L 475.652782 154.760688 
L 478.109652 156.359069 
L 480.566521 155.854489 
L 485.401007 155.10206 
L 487.778623 157.029684 
L 490.235492 156.779578 
L 492.692362 158.758416 
L 494.91147 162.118183 
L 497.368339 168.125336 
L 499.745955 171.408616 
L 502.202825 168.949557 
L 507.03731 169.959941 
L 509.49418 173.018187 
L 511.871796 172.389272 
L 514.328665 171.89644 
L 516.706281 170.9647 
L 519.163151 171.967213 
L 521.62002 171.238744 
L 523.839128 171.044799 
L 526.295998 171.808702 
L 528.673614 174.783052 
L 531.130483 175.858366 
L 533.508099 175.982914 
L 535.964969 175.993208 
L 538.421838 170.315192 
L 540.799454 166.570185 
L 543.256324 167.480979 
L 545.633939 162.420294 
L 548.090809 165.098215 
L 550.547679 166.072332 
L 552.84604 161.963265 
L 555.30291 169.872066 
L 557.680526 171.502567 
L 560.137395 172.109384 
L 562.515011 168.972943 
L 564.971881 166.287619 
L 567.42875 167.449145 
L 569.806366 165.841434 
L 572.263236 166.72034 
L 574.640852 171.562902 
L 577.097721 169.933959 
L 579.554591 170.434362 
L 581.773699 174.294608 
L 584.230568 174.922394 
L 586.608184 181.170752 
L 589.065054 179.559871 
L 591.44267 182.473098 
L 593.899539 184.077877 
L 596.356409 184.109509 
L 598.734025 180.502557 
L 601.190894 177.944952 
L 603.56851 179.908585 
L 606.025379 182.248006 
L 608.482249 178.03627 
L 610.701357 181.960287 
L 613.158227 183.143154 
L 615.535843 185.562913 
L 617.992712 183.744425 
L 620.370328 185.298591 
L 622.827198 186.401267 
L 625.284067 182.0129 
L 627.661683 184.956573 
L 630.118552 186.338657 
L 632.496168 186.126693 
L 634.953038 191.56256 
L 637.409907 191.195586 
L 639.629016 188.107965 
L 642.085885 183.164419 
L 644.463501 183.878173 
L 646.92037 181.456262 
L 649.297986 181.32792 
L 651.754856 183.345172 
L 654.211725 180.92197 
L 656.589341 183.043766 
L 659.046211 187.365588 
L 661.423827 181.061229 
L 663.880696 181.136254 
L 666.337566 184.141034 
L 668.635928 182.371068 
L 671.092797 178.667885 
L 673.470413 176.289024 
L 675.927283 175.886883 
L 678.304898 178.117281 
L 680.761768 176.80969 
L 683.218638 180.106315 
L 685.596253 180.95304 
L 688.053123 178.005303 
L 690.430739 179.027211 
L 692.887608 183.265418 
L 695.344478 182.25233 
L 697.563586 184.389548 
L 700.020456 177.200289 
L 702.398071 177.52537 
L 704.854941 179.88724 
L 707.232557 176.947032 
L 709.689426 174.413839 
L 712.146296 175.282586 
L 714.523912 174.022439 
L 716.980781 169.338638 
L 719.358397 162.611648 
L 721.815267 158.224756 
L 726.491244 152.469889 
L 728.948114 147.247466 
L 731.32573 152.435873 
L 733.782599 152.254839 
L 736.160215 152.980498 
L 738.617085 153.511117 
L 741.073954 152.098336 
L 743.45157 147.945444 
L 745.90844 145.053323 
L 748.286056 143.536112 
L 750.742925 142.637234 
L 753.199795 144.770831 
L 755.418903 143.997302 
L 757.875772 134.044623 
L 760.253388 136.002437 
L 762.710258 137.687391 
L 765.087874 136.194785 
L 767.544743 136.975257 
L 770.001613 140.036058 
L 772.379229 138.456963 
L 774.836098 139.401383 
L 777.213714 127.341664 
L 779.670584 131.028196 
L 784.425815 132.484019 
L 786.882685 132.367803 
L 789.2603 132.946412 
L 791.71717 136.309983 
L 794.094786 138.980682 
L 796.551655 138.321013 
L 799.008525 136.902627 
L 801.386141 139.663097 
L 803.84301 138.76007 
L 806.220626 142.429172 
L 808.677496 145.870385 
L 811.134365 145.803519 
L 813.353473 145.553336 
L 815.810343 144.348844 
L 818.187959 141.990391 
L 820.644828 141.613177 
L 823.022444 141.539227 
L 825.479314 139.537412 
L 827.936183 142.077599 
L 830.313799 142.095456 
L 832.770669 139.578716 
L 835.148285 138.817325 
L 837.605154 136.122871 
L 840.062024 132.239514 
L 842.281132 131.582104 
L 844.738001 137.809457 
L 847.115617 131.840142 
L 849.572487 133.691909 
L 854.406972 135.738334 
L 856.863842 134.229427 
L 859.241458 135.005401 
L 861.698327 138.779018 
L 864.075943 139.112957 
L 866.532813 141.937628 
L 866.532813 141.937628 
" clip-path="url(#pb70662669a)" style="fill: none; stroke-dasharray: 12.8,3.2,2,3.2; stroke-dashoffset: 0; stroke: #009e73; stroke-width: 2"/>
   </g>
   <g id="line2d_23">
    <path d="M 29.532812 116.661273 
L 31.751921 117.613709 
L 34.20879 116.056026 
L 36.586406 115.372186 
L 39.043276 114.493864 
L 41.420891 112.08722 
L 43.877761 118.590367 
L 46.334631 116.132745 
L 48.712246 121.435775 
L 51.169116 116.444244 
L 53.546732 111.997343 
L 56.003601 114.25459 
L 58.460471 113.048536 
L 60.679579 113.029325 
L 63.136449 112.616866 
L 65.514064 117.189606 
L 67.970934 114.407277 
L 70.34855 117.067819 
L 72.805419 116.071737 
L 75.262289 117.427215 
L 77.639905 121.484133 
L 80.096774 124.420184 
L 82.47439 118.33406 
L 84.93126 124.419646 
L 87.388129 127.534723 
L 89.686491 129.766769 
L 92.143361 135.57129 
L 94.520976 140.483392 
L 96.977846 145.009937 
L 99.355462 139.438286 
L 101.812331 139.327254 
L 104.269201 142.370047 
L 106.646817 143.573121 
L 109.103686 144.485588 
L 111.481302 145.042492 
L 113.938172 153.27708 
L 116.395041 150.863064 
L 118.614149 152.10901 
L 121.071019 152.116953 
L 123.448635 148.69968 
L 125.905504 148.58241 
L 128.28312 149.117847 
L 130.73999 148.880141 
L 133.196859 149.865781 
L 135.574475 150.176114 
L 138.031345 150.647149 
L 140.408961 149.767293 
L 142.86583 150.016577 
L 145.3227 149.867101 
L 147.541808 150.015968 
L 149.998677 149.75132 
L 152.376293 151.346209 
L 154.833163 152.718454 
L 157.210779 151.695201 
L 159.667648 150.329876 
L 162.124518 150.751925 
L 164.502134 147.525665 
L 166.959003 148.688973 
L 169.336619 149.662988 
L 171.793489 149.911324 
L 174.250358 147.813918 
L 176.469466 148.090652 
L 178.926336 146.896662 
L 181.303952 146.984319 
L 183.760821 146.920512 
L 186.138437 148.348338 
L 188.595307 145.543978 
L 191.052176 145.867883 
L 193.429792 144.832485 
L 195.886662 147.228111 
L 198.264277 148.090671 
L 200.721147 147.374796 
L 203.178017 147.266969 
L 205.476378 147.78027 
L 207.933248 148.115783 
L 210.310864 147.740034 
L 212.767733 147.65663 
L 215.145349 147.00555 
L 217.602219 147.137308 
L 220.059088 147.41319 
L 222.436704 146.969026 
L 224.893574 147.132278 
L 227.27119 148.582911 
L 229.728059 148.691633 
L 232.184929 149.580628 
L 234.404037 146.079747 
L 236.860906 145.864702 
L 239.238522 146.167212 
L 241.695392 146.056436 
L 244.073008 147.110263 
L 246.529877 147.01779 
L 248.986747 147.142534 
L 251.364363 144.45162 
L 253.821232 145.347361 
L 256.198848 145.201976 
L 258.655718 144.013168 
L 261.112587 143.583926 
L 263.331695 143.437721 
L 265.788565 140.22 
L 270.62305 138.476413 
L 275.457536 139.760767 
L 277.914405 138.697033 
L 282.748891 131.22482 
L 285.126506 133.926272 
L 287.583376 127.57423 
L 290.040246 127.349966 
L 292.259354 127.641896 
L 294.716223 131.358331 
L 297.093839 129.914079 
L 299.550709 124.197717 
L 301.928324 119.148561 
L 304.385194 122.122528 
L 306.842064 119.896175 
L 309.219679 121.495137 
L 311.676549 115.649939 
L 314.054165 121.609248 
L 316.511034 123.249802 
L 318.967904 119.944849 
L 321.266266 119.880085 
L 323.723135 117.371702 
L 326.100751 117.056212 
L 328.557621 115.937638 
L 330.935237 116.880227 
L 333.392106 118.491285 
L 335.848976 119.276663 
L 338.226591 123.063664 
L 340.683461 123.580815 
L 345.517946 124.068276 
L 347.974816 125.076936 
L 350.193924 123.485846 
L 352.650794 126.538321 
L 355.02841 125.680285 
L 357.485279 126.434287 
L 359.862895 125.667284 
L 362.319764 126.436671 
L 364.776634 126.744366 
L 367.15425 124.777212 
L 369.611119 126.527728 
L 371.988735 122.532094 
L 374.445605 123.286202 
L 376.902474 122.98208 
L 379.121583 122.889963 
L 381.578452 121.849181 
L 383.956068 122.199687 
L 386.412937 119.810184 
L 388.790553 121.425908 
L 391.247423 118.730518 
L 393.704292 121.029706 
L 396.081908 118.494721 
L 398.538778 117.270042 
L 400.916394 116.51668 
L 403.373263 117.980385 
L 405.830133 116.662077 
L 408.049241 117.668892 
L 410.50611 116.517193 
L 412.883726 116.811412 
L 415.340596 118.482693 
L 417.718212 117.492358 
L 420.175081 117.049825 
L 422.631951 118.799902 
L 425.009567 117.251821 
L 427.466436 118.721243 
L 429.844052 115.423474 
L 432.300922 115.658731 
L 434.757791 114.878791 
L 437.056153 116.524789 
L 439.513023 116.530319 
L 441.890638 115.396567 
L 444.347508 115.86414 
L 446.725124 117.212185 
L 449.181993 117.12983 
L 451.638863 115.850849 
L 454.016479 117.405325 
L 456.473348 117.496858 
L 458.850964 116.694681 
L 461.307834 114.097768 
L 463.764703 114.682423 
L 465.983811 114.139538 
L 468.440681 115.179328 
L 470.818297 114.517726 
L 473.275166 120.153005 
L 475.652782 118.628732 
L 478.109652 117.302274 
L 480.566521 115.727481 
L 482.944137 114.949186 
L 485.401007 114.734534 
L 487.778623 113.8603 
L 490.235492 113.344629 
L 492.692362 111.93499 
L 494.91147 115.493773 
L 497.368339 110.097194 
L 499.745955 108.953947 
L 502.202825 106.773734 
L 504.580441 106.616251 
L 507.03731 105.577908 
L 509.49418 104.72705 
L 511.871796 105.619951 
L 514.328665 106.059929 
L 516.706281 108.200555 
L 519.163151 108.701552 
L 521.62002 108.126237 
L 523.839128 109.282307 
L 526.295998 109.500826 
L 528.673614 109.169425 
L 531.130483 111.055004 
L 533.508099 112.726206 
L 535.964969 111.775039 
L 538.421838 108.979535 
L 540.799454 113.481349 
L 543.256324 113.480165 
L 545.633939 118.641691 
L 548.090809 119.385447 
L 550.547679 118.883743 
L 552.84604 118.665139 
L 555.30291 122.12527 
L 557.680526 121.831399 
L 560.137395 120.403639 
L 562.515011 121.661505 
L 564.971881 121.72001 
L 567.42875 115.76857 
L 569.806366 116.925062 
L 572.263236 116.331961 
L 574.640852 118.265904 
L 577.097721 109.972806 
L 579.554591 111.179904 
L 581.773699 113.11893 
L 584.230568 110.789628 
L 586.608184 119.918554 
L 589.065054 118.125941 
L 591.44267 117.078428 
L 593.899539 119.584423 
L 596.356409 118.508753 
L 598.734025 116.839095 
L 601.190894 118.452235 
L 603.56851 115.702817 
L 606.025379 114.584904 
L 608.482249 118.10296 
L 610.701357 117.527664 
L 613.158227 117.205884 
L 615.535843 117.253617 
L 617.992712 117.056068 
L 620.370328 119.872981 
L 622.827198 123.8099 
L 625.284067 120.106274 
L 627.661683 117.944949 
L 630.118552 120.06275 
L 632.496168 121.212438 
L 634.953038 116.789957 
L 637.409907 114.080017 
L 639.629016 114.836738 
L 642.085885 115.125043 
L 644.463501 114.683485 
L 646.92037 114.764787 
L 651.754856 116.92682 
L 654.211725 117.593483 
L 656.589341 116.967585 
L 659.046211 116.626715 
L 661.423827 116.671669 
L 663.880696 114.324157 
L 666.337566 113.434655 
L 668.635928 115.150713 
L 671.092797 113.914403 
L 673.470413 114.650016 
L 675.927283 115.576184 
L 678.304898 111.217354 
L 680.761768 113.363392 
L 683.218638 111.849533 
L 685.596253 112.248246 
L 688.053123 113.852499 
L 690.430739 114.138784 
L 692.887608 112.510702 
L 695.344478 112.559337 
L 697.563586 111.16121 
L 700.020456 112.575223 
L 702.398071 113.175915 
L 704.854941 112.302278 
L 707.232557 113.602522 
L 709.689426 111.975967 
L 712.146296 113.708252 
L 714.523912 115.688895 
L 716.980781 116.801744 
L 719.358397 115.678205 
L 721.815267 123.239599 
L 724.272136 120.598514 
L 726.491244 119.816617 
L 728.948114 113.713245 
L 731.32573 112.151192 
L 733.782599 113.257088 
L 736.160215 111.363558 
L 738.617085 110.522953 
L 741.073954 111.172925 
L 743.45157 111.142752 
L 745.90844 110.773793 
L 748.286056 112.276305 
L 750.742925 111.726386 
L 753.199795 106.522307 
L 755.418903 106.470463 
L 757.875772 109.019171 
L 762.710258 108.621881 
L 765.087874 108.061867 
L 767.544743 104.941219 
L 770.001613 110.502204 
L 772.379229 113.690206 
L 774.836098 120.314396 
L 777.213714 128.929688 
L 779.670584 131.658688 
L 782.127453 133.57972 
L 784.425815 132.489338 
L 786.882685 136.854763 
L 789.2603 136.298388 
L 791.71717 134.00713 
L 794.094786 130.976392 
L 796.551655 129.4267 
L 799.008525 129.116202 
L 801.386141 129.086928 
L 803.84301 133.095118 
L 806.220626 134.024216 
L 808.677496 148.487221 
L 811.134365 148.44285 
L 815.810343 148.899568 
L 818.187959 151.721647 
L 820.644828 151.738572 
L 823.022444 152.49818 
L 825.479314 152.843885 
L 827.936183 149.802753 
L 830.313799 149.483523 
L 832.770669 148.253509 
L 835.148285 147.929188 
L 837.605154 146.347542 
L 840.062024 144.901614 
L 842.281132 144.366308 
L 844.738001 142.628233 
L 847.115617 142.1961 
L 849.572487 141.025521 
L 856.863842 140.822529 
L 859.241458 139.724066 
L 861.698327 139.610966 
L 864.075943 139.236625 
L 866.532813 143.138975 
L 866.532813 143.138975 
" clip-path="url(#pb70662669a)" style="fill: none; stroke-dasharray: 2,3.3; stroke-dashoffset: 0; stroke: #0072b2; stroke-width: 2"/>
   </g>
   <g id="line2d_24">
    <path d="M 29.532812 148.986259 
L 31.751921 139.172495 
L 34.20879 141.325833 
L 36.586406 141.371483 
L 39.043276 143.90246 
L 41.420891 144.515794 
L 43.877761 145.782776 
L 46.334631 147.668954 
L 48.712246 140.087434 
L 51.169116 144.620263 
L 53.546732 145.663582 
L 56.003601 143.534791 
L 58.460471 146.350934 
L 60.679579 145.926066 
L 63.136449 146.713567 
L 65.514064 147.737293 
L 67.970934 148.54815 
L 70.34855 147.216067 
L 72.805419 147.555756 
L 75.262289 147.693889 
L 77.639905 148.183116 
L 80.096774 139.225496 
L 82.47439 141.09023 
L 84.93126 145.944651 
L 87.388129 152.275637 
L 89.686491 153.521522 
L 92.143361 157.736687 
L 94.520976 155.300838 
L 96.977846 160.032795 
L 99.355462 158.308172 
L 101.812331 157.738652 
L 104.269201 155.02088 
L 106.646817 155.671637 
L 109.103686 156.805178 
L 111.481302 156.925557 
L 113.938172 155.434263 
L 116.395041 157.340501 
L 118.614149 161.25518 
L 121.071019 160.251842 
L 123.448635 161.608862 
L 125.905504 163.516122 
L 128.28312 164.941174 
L 130.73999 165.052001 
L 133.196859 163.840838 
L 135.574475 164.439296 
L 138.031345 165.271958 
L 140.408961 163.98402 
L 142.86583 164.691469 
L 145.3227 165.874448 
L 147.541808 166.225733 
L 149.998677 167.551924 
L 152.376293 170.394121 
L 154.833163 171.757579 
L 157.210779 171.411046 
L 159.667648 169.24197 
L 162.124518 171.011277 
L 164.502134 168.759562 
L 166.959003 167.711387 
L 169.336619 170.906926 
L 171.793489 169.084903 
L 174.250358 173.270215 
L 176.469466 177.296873 
L 178.926336 173.112671 
L 181.303952 173.598275 
L 183.760821 175.89227 
L 186.138437 174.678224 
L 188.595307 176.100128 
L 191.052176 176.760974 
L 193.429792 177.147463 
L 195.886662 170.220753 
L 198.264277 166.113254 
L 200.721147 167.324627 
L 203.178017 167.483426 
L 205.476378 167.006046 
L 207.933248 165.936169 
L 210.310864 161.756782 
L 212.767733 162.149468 
L 215.145349 160.334577 
L 217.602219 159.089626 
L 220.059088 157.045481 
L 222.436704 154.802003 
L 224.893574 155.192632 
L 227.27119 155.071502 
L 229.728059 155.710995 
L 232.184929 153.995074 
L 234.404037 147.083937 
L 236.860906 149.22885 
L 239.238522 148.900795 
L 241.695392 150.865657 
L 244.073008 153.409326 
L 246.529877 150.839675 
L 248.986747 154.01373 
L 251.364363 158.784908 
L 253.821232 160.00153 
L 256.198848 162.498344 
L 258.655718 164.044166 
L 261.112587 162.740342 
L 263.331695 162.484608 
L 265.788565 165.945338 
L 268.166181 168.974924 
L 273.000666 168.180023 
L 275.457536 169.278755 
L 277.914405 165.523068 
L 280.292021 165.557007 
L 282.748891 190.65351 
L 285.126506 189.086003 
L 287.583376 197.909534 
L 290.040246 199.39593 
L 292.259354 198.092905 
L 294.716223 194.65361 
L 297.093839 191.575975 
L 299.550709 190.106764 
L 301.928324 193.970742 
L 304.385194 194.23123 
L 306.842064 193.345807 
L 309.219679 198.154471 
L 311.676549 205.011809 
L 314.054165 198.241127 
L 316.511034 198.296157 
L 318.967904 196.32727 
L 321.266266 195.505985 
L 323.723135 205.667695 
L 326.100751 196.65351 
L 328.557621 203.553559 
L 330.935237 195.646695 
L 333.392106 205.910871 
L 335.848976 202.277706 
L 338.226591 188.112976 
L 340.683461 189.277641 
L 343.061077 186.489249 
L 345.517946 190.219337 
L 347.974816 189.69133 
L 350.193924 186.765366 
L 352.650794 188.866505 
L 355.02841 189.52961 
L 357.485279 191.785609 
L 359.862895 193.754876 
L 362.319764 189.031118 
L 364.776634 186.549594 
L 367.15425 187.378384 
L 369.611119 186.16365 
L 371.988735 189.378089 
L 374.445605 187.678835 
L 376.902474 185.037629 
L 379.121583 184.357699 
L 381.578452 185.822479 
L 383.956068 184.049703 
L 388.790553 183.560599 
L 391.247423 184.779601 
L 393.704292 183.044386 
L 396.081908 175.940817 
L 398.538778 177.953446 
L 400.916394 177.494819 
L 403.373263 176.476847 
L 405.830133 178.495323 
L 408.049241 177.969348 
L 410.50611 177.138098 
L 412.883726 180.031573 
L 415.340596 176.498938 
L 417.718212 177.856258 
L 420.175081 179.467245 
L 422.631951 176.869007 
L 425.009567 179.914199 
L 427.466436 166.326817 
L 429.844052 165.591467 
L 432.300922 165.030974 
L 434.757791 165.298436 
L 437.056153 164.892016 
L 439.513023 165.588247 
L 441.890638 164.440845 
L 444.347508 166.562937 
L 446.725124 164.739496 
L 449.181993 164.31215 
L 451.638863 164.338729 
L 454.016479 161.399807 
L 456.473348 161.432949 
L 458.850964 160.066365 
L 461.307834 153.298218 
L 463.764703 153.171444 
L 465.983811 152.76506 
L 468.440681 153.854358 
L 470.818297 145.51877 
L 473.275166 138.039738 
L 475.652782 138.231534 
L 478.109652 134.992796 
L 480.566521 136.025509 
L 482.944137 137.829642 
L 485.401007 136.845591 
L 487.778623 135.554144 
L 490.235492 134.736976 
L 492.692362 138.903067 
L 494.91147 128.940489 
L 497.368339 119.786054 
L 499.745955 117.990452 
L 502.202825 120.644601 
L 504.580441 120.246641 
L 507.03731 118.113075 
L 509.49418 119.930661 
L 511.871796 123.247354 
L 514.328665 123.322653 
L 516.706281 123.04825 
L 519.163151 117.829787 
L 521.62002 118.911064 
L 523.839128 119.086752 
L 526.295998 115.987579 
L 528.673614 117.809388 
L 531.130483 115.666645 
L 533.508099 113.940831 
L 535.964969 114.514088 
L 538.421838 122.39684 
L 540.799454 132.82922 
L 543.256324 132.676299 
L 545.633939 128.809959 
L 548.090809 128.179239 
L 550.547679 129.978739 
L 552.84604 135.619252 
L 555.30291 131.78607 
L 557.680526 134.701184 
L 560.137395 136.752134 
L 562.515011 131.067789 
L 564.971881 131.429979 
L 567.42875 145.053875 
L 569.806366 146.001632 
L 572.263236 145.209091 
L 574.640852 146.292043 
L 577.097721 161.610927 
L 579.554591 163.639458 
L 581.773699 161.474044 
L 584.230568 169.858586 
L 586.608184 182.954524 
L 589.065054 182.231264 
L 591.44267 179.760468 
L 593.899539 184.15565 
L 596.356409 186.32155 
L 598.734025 186.7612 
L 601.190894 182.221151 
L 603.56851 185.269547 
L 606.025379 184.053947 
L 608.482249 184.866656 
L 610.701357 185.213333 
L 613.158227 186.365901 
L 615.535843 185.413443 
L 617.992712 183.480854 
L 620.370328 186.163782 
L 622.827198 189.802018 
L 625.284067 184.247424 
L 627.661683 188.463361 
L 630.118552 189.470757 
L 632.496168 188.663856 
L 634.953038 195.198994 
L 637.409907 194.530951 
L 639.629016 190.579827 
L 642.085885 185.708063 
L 644.463501 186.031337 
L 646.92037 185.20065 
L 649.297986 186.683853 
L 651.754856 186.122286 
L 654.211725 183.266943 
L 656.589341 183.608137 
L 659.046211 190.619302 
L 661.423827 186.408983 
L 663.880696 190.146589 
L 666.337566 194.963308 
L 668.635928 193.13616 
L 671.092797 191.609478 
L 673.470413 188.601913 
L 675.927283 187.004365 
L 678.304898 191.494393 
L 680.761768 188.242917 
L 683.218638 191.978972 
L 685.596253 190.703176 
L 688.053123 189.783174 
L 690.430739 187.688958 
L 692.887608 192.599002 
L 697.563586 185.453451 
L 700.020456 187.253746 
L 702.398071 187.028291 
L 704.854941 193.342897 
L 707.232557 188.210006 
L 709.689426 187.891024 
L 712.146296 187.209739 
L 714.523912 186.869105 
L 716.980781 187.795444 
L 719.358397 192.981388 
L 721.815267 190.866091 
L 724.272136 185.317716 
L 726.491244 183.550957 
L 728.948114 186.109656 
L 731.32573 177.413261 
L 733.782599 173.940068 
L 736.160215 176.057697 
L 741.073954 175.43382 
L 743.45157 173.658523 
L 745.90844 176.754281 
L 748.286056 174.623838 
L 750.742925 176.054573 
L 753.199795 173.91975 
L 755.418903 178.162612 
L 757.875772 182.1211 
L 760.253388 183.818232 
L 762.710258 180.226059 
L 765.087874 181.442202 
L 767.544743 178.843839 
L 770.001613 174.125945 
L 772.379229 176.284799 
L 774.836098 174.608561 
L 777.213714 180.667298 
L 779.670584 178.00793 
L 782.127453 176.197771 
L 784.425815 176.489825 
L 786.882685 181.590617 
L 789.2603 182.890887 
L 791.71717 182.53924 
L 794.094786 182.781777 
L 796.551655 186.815571 
L 799.008525 185.14525 
L 801.386141 180.94504 
L 803.84301 176.33518 
L 806.220626 171.209276 
L 808.677496 154.672456 
L 813.353473 155.265763 
L 815.810343 153.802795 
L 818.187959 154.339728 
L 820.644828 153.165744 
L 823.022444 153.501955 
L 825.479314 149.784574 
L 827.936183 147.12516 
L 832.770669 148.210096 
L 835.148285 148.494068 
L 837.605154 150.089928 
L 840.062024 150.961478 
L 842.281132 152.008423 
L 844.738001 152.110948 
L 847.115617 150.99083 
L 849.572487 152.067676 
L 851.950103 152.256256 
L 854.406972 152.005261 
L 856.863842 151.217291 
L 859.241458 151.549766 
L 861.698327 150.186551 
L 864.075943 150.135545 
L 866.532813 148.009004 
L 866.532813 148.009004 
" clip-path="url(#pb70662669a)" style="fill: none; stroke: #d55e00; stroke-width: 2; stroke-linecap: square"/>
   </g>
   <g id="patch_3">
    <path d="M 29.532813 238.70175 
L 29.532813 16.94175 
" style="fill: none; stroke: #000000; stroke-width: 0.8; stroke-linejoin: miter; stroke-linecap: square"/>
   </g>
   <g id="patch_4">
    <path d="M 29.532812 238.70175 
L 866.532813 238.70175 
" style="fill: none; stroke: #000000; stroke-width: 0.8; stroke-linejoin: miter; stroke-linecap: square"/>
   </g>
   <g id="text_14">
    <!-- 5_Industry_Portfolios - Portfolio Allocation for GMVP -->
    <g transform="translate(263.166062 10.94175) scale(0.144 -0.144)">
     <defs>
      <path id="DejaVuSans-5f" d="M 3263 -1063 
L 3263 -1509 
L -63 -1509 
L -63 -1063 
L 3263 -1063 
z
" transform="scale(0.015625)"/>
      <path id="DejaVuSans-49" d="M 628 4666 
L 1259 4666 
L 1259 0 
L 628 0 
L 628 4666 
z
" transform="scale(0.015625)"/>
      <path id="DejaVuSans-6e" d="M 3513 2113 
L 3513 0 
L 2938 0 
L 2938 2094 
Q 2938 2591 2744 2837 
Q 2550 3084 2163 3084 
Q 1697 3084 1428 2787 
Q 1159 2491 1159 1978 
L 1159 0 
L 581 0 
L 581 3500 
L 1159 3500 
L 1159 2956 
Q 1366 3272 1645 3428 
Q 1925 3584 2291 3584 
Q 2894 3584 3203 3211 
Q 3513 2838 3513 2113 
z
" transform="scale(0.015625)"/>
      <path id="DejaVuSans-64" d="M 2906 2969 
L 2906 4863 
L 3481 4863 
L 3481 0 
L 2906 0 
L 2906 525 
Q 2725 213 2448 61 
Q 2172 -91 1784 -91 
Q 1150 -91 751 415 
Q 353 922 353 1747 
Q 353 2572 751 3078 
Q 1150 3584 1784 3584 
Q 2172 3584 2448 3432 
Q 2725 3281 2906 2969 
z
M 947 1747 
Q 947 1113 1208 752 
Q 1469 391 1925 391 
Q 2381 391 2643 752 
Q 2906 1113 2906 1747 
Q 2906 2381 2643 2742 
Q 2381 3103 1925 3103 
Q 1469 3103 1208 2742 
Q 947 2381 947 1747 
z
" transform="scale(0.015625)"/>
      <path id="DejaVuSans-75" d="M 544 1381 
L 544 3500 
L 1119 3500 
L 1119 1403 
Q 1119 906 1312 657 
Q 1506 409 1894 409 
Q 2359 409 2629 706 
Q 2900 1003 2900 1516 
L 2900 3500 
L 3475 3500 
L 3475 0 
L 2900 0 
L 2900 538 
Q 2691 219 2414 64 
Q 2138 -91 1772 -91 
Q 1169 -91 856 284 
Q 544 659 544 1381 
z
M 1991 3584 
L 1991 3584 
z
" transform="scale(0.015625)"/>
      <path id="DejaVuSans-73" d="M 2834 3397 
L 2834 2853 
Q 2591 2978 2328 3040 
Q 2066 3103 1784 3103 
Q 1356 3103 1142 2972 
Q 928 2841 928 2578 
Q 928 2378 1081 2264 
Q 1234 2150 1697 2047 
L 1894 2003 
Q 2506 1872 2764 1633 
Q 3022 1394 3022 966 
Q 3022 478 2636 193 
Q 2250 -91 1575 -91 
Q 1294 -91 989 -36 
Q 684 19 347 128 
L 347 722 
Q 666 556 975 473 
Q 1284 391 1588 391 
Q 1994 391 2212 530 
Q 2431 669 2431 922 
Q 2431 1156 2273 1281 
Q 2116 1406 1581 1522 
L 1381 1569 
Q 847 1681 609 1914 
Q 372 2147 372 2553 
Q 372 3047 722 3315 
Q 1072 3584 1716 3584 
Q 2034 3584 2315 3537 
Q 2597 3491 2834 3397 
z
" transform="scale(0.015625)"/>
      <path id="DejaVuSans-74" d="M 1172 4494 
L 1172 3500 
L 2356 3500 
L 2356 3053 
L 1172 3053 
L 1172 1153 
Q 1172 725 1289 603 
Q 1406 481 1766 481 
L 2356 481 
L 2356 0 
L 1766 0 
Q 1100 0 847 248 
Q 594 497 594 1153 
L 594 3053 
L 172 3053 
L 172 3500 
L 594 3500 
L 594 4494 
L 1172 4494 
z
" transform="scale(0.015625)"/>
      <path id="DejaVuSans-72" d="M 2631 2963 
Q 2534 3019 2420 3045 
Q 2306 3072 2169 3072 
Q 1681 3072 1420 2755 
Q 1159 2438 1159 1844 
L 1159 0 
L 581 0 
L 581 3500 
L 1159 3500 
L 1159 2956 
Q 1341 3275 1631 3429 
Q 1922 3584 2338 3584 
Q 2397 3584 2469 3576 
Q 2541 3569 2628 3553 
L 2631 2963 
z
" transform="scale(0.015625)"/>
      <path id="DejaVuSans-79" d="M 2059 -325 
Q 1816 -950 1584 -1140 
Q 1353 -1331 966 -1331 
L 506 -1331 
L 506 -850 
L 844 -850 
Q 1081 -850 1212 -737 
Q 1344 -625 1503 -206 
L 1606 56 
L 191 3500 
L 800 3500 
L 1894 763 
L 2988 3500 
L 3597 3500 
L 2059 -325 
z
" transform="scale(0.015625)"/>
      <path id="DejaVuSans-50" d="M 1259 4147 
L 1259 2394 
L 2053 2394 
Q 2494 2394 2734 2622 
Q 2975 2850 2975 3272 
Q 2975 3691 2734 3919 
Q 2494 4147 2053 4147 
L 1259 4147 
z
M 628 4666 
L 2053 4666 
Q 2838 4666 3239 4311 
Q 3641 3956 3641 3272 
Q 3641 2581 3239 2228 
Q 2838 1875 2053 1875 
L 1259 1875 
L 1259 0 
L 628 0 
L 628 4666 
z
" transform="scale(0.015625)"/>
      <path id="DejaVuSans-6f" d="M 1959 3097 
Q 1497 3097 1228 2736 
Q 959 2375 959 1747 
Q 959 1119 1226 758 
Q 1494 397 1959 397 
Q 2419 397 2687 759 
Q 2956 1122 2956 1747 
Q 2956 2369 2687 2733 
Q 2419 3097 1959 3097 
z
M 1959 3584 
Q 2709 3584 3137 3096 
Q 3566 2609 3566 1747 
Q 3566 888 3137 398 
Q 2709 -91 1959 -91 
Q 1206 -91 779 398 
Q 353 888 353 1747 
Q 353 2609 779 3096 
Q 1206 3584 1959 3584 
z
" transform="scale(0.015625)"/>
      <path id="DejaVuSans-66" d="M 2375 4863 
L 2375 4384 
L 1825 4384 
Q 1516 4384 1395 4259 
Q 1275 4134 1275 3809 
L 1275 3500 
L 2222 3500 
L 2222 3053 
L 1275 3053 
L 1275 0 
L 697 0 
L 697 3053 
L 147 3053 
L 147 3500 
L 697 3500 
L 697 3744 
Q 697 4328 969 4595 
Q 1241 4863 1831 4863 
L 2375 4863 
z
" transform="scale(0.015625)"/>
      <path id="DejaVuSans-6c" d="M 603 4863 
L 1178 4863 
L 1178 0 
L 603 0 
L 603 4863 
z
" transform="scale(0.015625)"/>
      <path id="DejaVuSans-69" d="M 603 3500 
L 1178 3500 
L 1178 0 
L 603 0 
L 603 3500 
z
M 603 4863 
L 1178 4863 
L 1178 4134 
L 603 4134 
L 603 4863 
z
" transform="scale(0.015625)"/>
      <path id="DejaVuSans-20" transform="scale(0.015625)"/>
      <path id="DejaVuSans-2d" d="M 313 2009 
L 1997 2009 
L 1997 1497 
L 313 1497 
L 313 2009 
z
" transform="scale(0.015625)"/>
      <path id="DejaVuSans-41" d="M 2188 4044 
L 1331 1722 
L 3047 1722 
L 2188 4044 
z
M 1831 4666 
L 2547 4666 
L 4325 0 
L 3669 0 
L 3244 1197 
L 1141 1197 
L 716 0 
L 50 0 
L 1831 4666 
z
" transform="scale(0.015625)"/>
      <path id="DejaVuSans-63" d="M 3122 3366 
L 3122 2828 
Q 2878 2963 2633 3030 
Q 2388 3097 2138 3097 
Q 1578 3097 1268 2742 
Q 959 2388 959 1747 
Q 959 1106 1268 751 
Q 1578 397 2138 397 
Q 2388 397 2633 464 
Q 2878 531 3122 666 
L 3122 134 
Q 2881 22 2623 -34 
Q 2366 -91 2075 -91 
Q 1284 -91 818 406 
Q 353 903 353 1747 
Q 353 2603 823 3093 
Q 1294 3584 2113 3584 
Q 2378 3584 2631 3529 
Q 2884 3475 3122 3366 
z
" transform="scale(0.015625)"/>
      <path id="DejaVuSans-61" d="M 2194 1759 
Q 1497 1759 1228 1600 
Q 959 1441 959 1056 
Q 959 750 1161 570 
Q 1363 391 1709 391 
Q 2188 391 2477 730 
Q 2766 1069 2766 1631 
L 2766 1759 
L 2194 1759 
z
M 3341 1997 
L 3341 0 
L 2766 0 
L 2766 531 
Q 2569 213 2275 61 
Q 1981 -91 1556 -91 
Q 1019 -91 701 211 
Q 384 513 384 1019 
Q 384 1609 779 1909 
Q 1175 2209 1959 2209 
L 2766 2209 
L 2766 2266 
Q 2766 2663 2505 2880 
Q 2244 3097 1772 3097 
Q 1472 3097 1187 3025 
Q 903 2953 641 2809 
L 641 3341 
Q 956 3463 1253 3523 
Q 1550 3584 1831 3584 
Q 2591 3584 2966 3190 
Q 3341 2797 3341 1997 
z
" transform="scale(0.015625)"/>
      <path id="DejaVuSans-47" d="M 3809 666 
L 3809 1919 
L 2778 1919 
L 2778 2438 
L 4434 2438 
L 4434 434 
Q 4069 175 3628 42 
Q 3188 -91 2688 -91 
Q 1594 -91 976 548 
Q 359 1188 359 2328 
Q 359 3472 976 4111 
Q 1594 4750 2688 4750 
Q 3144 4750 3555 4637 
Q 3966 4525 4313 4306 
L 4313 3634 
Q 3963 3931 3569 4081 
Q 3175 4231 2741 4231 
Q 1884 4231 1454 3753 
Q 1025 3275 1025 2328 
Q 1025 1384 1454 906 
Q 1884 428 2741 428 
Q 3075 428 3337 486 
Q 3600 544 3809 666 
z
" transform="scale(0.015625)"/>
      <path id="DejaVuSans-4d" d="M 628 4666 
L 1569 4666 
L 2759 1491 
L 3956 4666 
L 4897 4666 
L 4897 0 
L 4281 0 
L 4281 4097 
L 3078 897 
L 2444 897 
L 1241 4097 
L 1241 0 
L 628 0 
L 628 4666 
z
" transform="scale(0.015625)"/>
      <path id="DejaVuSans-56" d="M 1831 0 
L 50 4666 
L 709 4666 
L 2188 738 
L 3669 4666 
L 4325 4666 
L 2547 0 
L 1831 0 
z
" transform="scale(0.015625)"/>
     </defs>
     <use xlink:href="#DejaVuSans-35"/>
     <use xlink:href="#DejaVuSans-5f" x="63.623047"/>
     <use xlink:href="#DejaVuSans-49" x="113.623047"/>
     <use xlink:href="#DejaVuSans-6e" x="143.115234"/>
     <use xlink:href="#DejaVuSans-64" x="206.494141"/>
     <use xlink:href="#DejaVuSans-75" x="269.970703"/>
     <use xlink:href="#DejaVuSans-73" x="333.349609"/>
     <use xlink:href="#DejaVuSans-74" x="385.449219"/>
     <use xlink:href="#DejaVuSans-72" x="424.658203"/>
     <use xlink:href="#DejaVuSans-79" x="465.771484"/>
     <use xlink:href="#DejaVuSans-5f" x="524.951172"/>
     <use xlink:href="#DejaVuSans-50" x="574.951172"/>
     <use xlink:href="#DejaVuSans-6f" x="631.628906"/>
     <use xlink:href="#DejaVuSans-72" x="692.810547"/>
     <use xlink:href="#DejaVuSans-74" x="733.923828"/>
     <use xlink:href="#DejaVuSans-66" x="773.132812"/>
     <use xlink:href="#DejaVuSans-6f" x="808.337891"/>
     <use xlink:href="#DejaVuSans-6c" x="869.519531"/>
     <use xlink:href="#DejaVuSans-69" x="897.302734"/>
     <use xlink:href="#DejaVuSans-6f" x="925.085938"/>
     <use xlink:href="#DejaVuSans-73" x="986.267578"/>
     <use xlink:href="#DejaVuSans-20" x="1038.367188"/>
     <use xlink:href="#DejaVuSans-2d" x="1070.154297"/>
     <use xlink:href="#DejaVuSans-20" x="1106.238281"/>
     <use xlink:href="#DejaVuSans-50" x="1138.025391"/>
     <use xlink:href="#DejaVuSans-6f" x="1194.703125"/>
     <use xlink:href="#DejaVuSans-72" x="1255.884766"/>
     <use xlink:href="#DejaVuSans-74" x="1296.998047"/>
     <use xlink:href="#DejaVuSans-66" x="1336.207031"/>
     <use xlink:href="#DejaVuSans-6f" x="1371.412109"/>
     <use xlink:href="#DejaVuSans-6c" x="1432.59375"/>
     <use xlink:href="#DejaVuSans-69" x="1460.376953"/>
     <use xlink:href="#DejaVuSans-6f" x="1488.160156"/>
     <use xlink:href="#DejaVuSans-20" x="1549.341797"/>
     <use xlink:href="#DejaVuSans-41" x="1581.128906"/>
     <use xlink:href="#DejaVuSans-6c" x="1649.537109"/>
     <use xlink:href="#DejaVuSans-6c" x="1677.320312"/>
     <use xlink:href="#DejaVuSans-6f" x="1705.103516"/>
     <use xlink:href="#DejaVuSans-63" x="1766.285156"/>
     <use xlink:href="#DejaVuSans-61" x="1821.265625"/>
     <use xlink:href="#DejaVuSans-74" x="1882.544922"/>
     <use xlink:href="#DejaVuSans-69" x="1921.753906"/>
     <use xlink:href="#DejaVuSans-6f" x="1949.537109"/>
     <use xlink:href="#DejaVuSans-6e" x="2010.71875"/>
     <use xlink:href="#DejaVuSans-20" x="2074.097656"/>
     <use xlink:href="#DejaVuSans-66" x="2105.884766"/>
     <use xlink:href="#DejaVuSans-6f" x="2141.089844"/>
     <use xlink:href="#DejaVuSans-72" x="2202.271484"/>
     <use xlink:href="#DejaVuSans-20" x="2243.384766"/>
     <use xlink:href="#DejaVuSans-47" x="2275.171875"/>
     <use xlink:href="#DejaVuSans-4d" x="2352.662109"/>
     <use xlink:href="#DejaVuSans-56" x="2438.941406"/>
     <use xlink:href="#DejaVuSans-50" x="2507.349609"/>
    </g>
   </g>
  </g>
 </g>
 <defs>
  <clipPath id="pb70662669a">
   <rect x="29.532813" y="16.94175" width="837" height="221.76"/>
  </clipPath>
 </defs>
</svg>
