<?xml version="1.0" encoding="utf-8" standalone="no"?>
<!DOCTYPE svg PUBLIC "-//W3C//DTD SVG 1.1//EN"
  "http://www.w3.org/Graphics/SVG/1.1/DTD/svg11.dtd">
<svg xmlns:xlink="http://www.w3.org/1999/xlink" width="866.532812pt" height="253.629875pt" viewBox="0 0 866.532812 253.629875" xmlns="http://www.w3.org/2000/svg" version="1.1">
 <metadata>
  <rdf:RDF xmlns:dc="http://purl.org/dc/elements/1.1/" xmlns:cc="http://creativecommons.org/ns#" xmlns:rdf="http://www.w3.org/1999/02/22-rdf-syntax-ns#">
   <cc:Work>
    <dc:type rdf:resource="http://purl.org/dc/dcmitype/StillImage"/>
    <dc:date>2025-08-06T21:52:45.163585</dc:date>
    <dc:format>image/svg+xml</dc:format>
    <dc:creator>
     <cc:Agent>
      <dc:title>Matplotlib v3.9.2, https://matplotlib.org/</dc:title>
     </cc:Agent>
    </dc:creator>
   </cc:Work>
  </rdf:RDF>
 </metadata>
 <defs>
  <style type="text/css">*{stroke-linejoin: round; stroke-linecap: butt}</style>
 </defs>
 <g id="figure_1">
  <g id="patch_1">
   <path d="M 0 253.629875 
L 866.532812 253.629875 
L 866.532812 0 
L 0 0 
z
" style="fill: #ffffff"/>
  </g>
  <g id="axes_1">
   <g id="patch_2">
    <path d="M 29.532813 238.70175 
L 866.532812 238.70175 
L 866.532812 16.94175 
L 29.532813 16.94175 
z
" style="fill: #ffffff"/>
   </g>
   <g id="matplotlib.axis_1">
    <g id="xtick_1">
     <g id="line2d_1">
      <defs>
       <path id="m01160eeed2" d="M 0 1.75 
L 0 -1.75 
" style="stroke: #000000; stroke-width: 0.8"/>
      </defs>
      <g>
       <use xlink:href="#m01160eeed2" x="85.010513" y="238.70175" style="stroke: #000000; stroke-width: 0.8"/>
      </g>
     </g>
     <g id="text_1">
      <!-- 1992 -->
      <g transform="translate(72.285513 251.550188) scale(0.1 -0.1)">
       <defs>
        <path id="DejaVuSans-31" d="M 794 531 
L 1825 531 
L 1825 4091 
L 703 3866 
L 703 4441 
L 1819 4666 
L 2450 4666 
L 2450 531 
L 3481 531 
L 3481 0 
L 794 0 
L 794 531 
z
" transform="scale(0.015625)"/>
        <path id="DejaVuSans-39" d="M 703 97 
L 703 672 
Q 941 559 1184 500 
Q 1428 441 1663 441 
Q 2288 441 2617 861 
Q 2947 1281 2994 2138 
Q 2813 1869 2534 1725 
Q 2256 1581 1919 1581 
Q 1219 1581 811 2004 
Q 403 2428 403 3163 
Q 403 3881 828 4315 
Q 1253 4750 1959 4750 
Q 2769 4750 3195 4129 
Q 3622 3509 3622 2328 
Q 3622 1225 3098 567 
Q 2575 -91 1691 -91 
Q 1453 -91 1209 -44 
Q 966 3 703 97 
z
M 1959 2075 
Q 2384 2075 2632 2365 
Q 2881 2656 2881 3163 
Q 2881 3666 2632 3958 
Q 2384 4250 1959 4250 
Q 1534 4250 1286 3958 
Q 1038 3666 1038 3163 
Q 1038 2656 1286 2365 
Q 1534 2075 1959 2075 
z
" transform="scale(0.015625)"/>
        <path id="DejaVuSans-32" d="M 1228 531 
L 3431 531 
L 3431 0 
L 469 0 
L 469 531 
Q 828 903 1448 1529 
Q 2069 2156 2228 2338 
Q 2531 2678 2651 2914 
Q 2772 3150 2772 3378 
Q 2772 3750 2511 3984 
Q 2250 4219 1831 4219 
Q 1534 4219 1204 4116 
Q 875 4013 500 3803 
L 500 4441 
Q 881 4594 1212 4672 
Q 1544 4750 1819 4750 
Q 2544 4750 2975 4387 
Q 3406 4025 3406 3419 
Q 3406 3131 3298 2873 
Q 3191 2616 2906 2266 
Q 2828 2175 2409 1742 
Q 1991 1309 1228 531 
z
" transform="scale(0.015625)"/>
       </defs>
       <use xlink:href="#DejaVuSans-31"/>
       <use xlink:href="#DejaVuSans-39" x="63.623047"/>
       <use xlink:href="#DejaVuSans-39" x="127.246094"/>
       <use xlink:href="#DejaVuSans-32" x="190.869141"/>
      </g>
     </g>
    </g>
    <g id="xtick_2">
     <g id="line2d_2">
      <g>
       <use xlink:href="#m01160eeed2" x="200.800401" y="238.70175" style="stroke: #000000; stroke-width: 0.8"/>
      </g>
     </g>
     <g id="text_2">
      <!-- 1996 -->
      <g transform="translate(188.075401 251.550188) scale(0.1 -0.1)">
       <defs>
        <path id="DejaVuSans-36" d="M 2113 2584 
Q 1688 2584 1439 2293 
Q 1191 2003 1191 1497 
Q 1191 994 1439 701 
Q 1688 409 2113 409 
Q 2538 409 2786 701 
Q 3034 994 3034 1497 
Q 3034 2003 2786 2293 
Q 2538 2584 2113 2584 
z
M 3366 4563 
L 3366 3988 
Q 3128 4100 2886 4159 
Q 2644 4219 2406 4219 
Q 1781 4219 1451 3797 
Q 1122 3375 1075 2522 
Q 1259 2794 1537 2939 
Q 1816 3084 2150 3084 
Q 2853 3084 3261 2657 
Q 3669 2231 3669 1497 
Q 3669 778 3244 343 
Q 2819 -91 2113 -91 
Q 1303 -91 875 529 
Q 447 1150 447 2328 
Q 447 3434 972 4092 
Q 1497 4750 2381 4750 
Q 2619 4750 2861 4703 
Q 3103 4656 3366 4563 
z
" transform="scale(0.015625)"/>
       </defs>
       <use xlink:href="#DejaVuSans-31"/>
       <use xlink:href="#DejaVuSans-39" x="63.623047"/>
       <use xlink:href="#DejaVuSans-39" x="127.246094"/>
       <use xlink:href="#DejaVuSans-36" x="190.869141"/>
      </g>
     </g>
    </g>
    <g id="xtick_3">
     <g id="line2d_3">
      <g>
       <use xlink:href="#m01160eeed2" x="316.590288" y="238.70175" style="stroke: #000000; stroke-width: 0.8"/>
      </g>
     </g>
     <g id="text_3">
      <!-- 2000 -->
      <g transform="translate(303.865288 251.550188) scale(0.1 -0.1)">
       <defs>
        <path id="DejaVuSans-30" d="M 2034 4250 
Q 1547 4250 1301 3770 
Q 1056 3291 1056 2328 
Q 1056 1369 1301 889 
Q 1547 409 2034 409 
Q 2525 409 2770 889 
Q 3016 1369 3016 2328 
Q 3016 3291 2770 3770 
Q 2525 4250 2034 4250 
z
M 2034 4750 
Q 2819 4750 3233 4129 
Q 3647 3509 3647 2328 
Q 3647 1150 3233 529 
Q 2819 -91 2034 -91 
Q 1250 -91 836 529 
Q 422 1150 422 2328 
Q 422 3509 836 4129 
Q 1250 4750 2034 4750 
z
" transform="scale(0.015625)"/>
       </defs>
       <use xlink:href="#DejaVuSans-32"/>
       <use xlink:href="#DejaVuSans-30" x="63.623047"/>
       <use xlink:href="#DejaVuSans-30" x="127.246094"/>
       <use xlink:href="#DejaVuSans-30" x="190.869141"/>
      </g>
     </g>
    </g>
    <g id="xtick_4">
     <g id="line2d_4">
      <g>
       <use xlink:href="#m01160eeed2" x="432.380175" y="238.70175" style="stroke: #000000; stroke-width: 0.8"/>
      </g>
     </g>
     <g id="text_4">
      <!-- 2004 -->
      <g transform="translate(419.655175 251.550188) scale(0.1 -0.1)">
       <defs>
        <path id="DejaVuSans-34" d="M 2419 4116 
L 825 1625 
L 2419 1625 
L 2419 4116 
z
M 2253 4666 
L 3047 4666 
L 3047 1625 
L 3713 1625 
L 3713 1100 
L 3047 1100 
L 3047 0 
L 2419 0 
L 2419 1100 
L 313 1100 
L 313 1709 
L 2253 4666 
z
" transform="scale(0.015625)"/>
       </defs>
       <use xlink:href="#DejaVuSans-32"/>
       <use xlink:href="#DejaVuSans-30" x="63.623047"/>
       <use xlink:href="#DejaVuSans-30" x="127.246094"/>
       <use xlink:href="#DejaVuSans-34" x="190.869141"/>
      </g>
     </g>
    </g>
    <g id="xtick_5">
     <g id="line2d_5">
      <g>
       <use xlink:href="#m01160eeed2" x="548.170063" y="238.70175" style="stroke: #000000; stroke-width: 0.8"/>
      </g>
     </g>
     <g id="text_5">
      <!-- 2008 -->
      <g transform="translate(535.445063 251.550188) scale(0.1 -0.1)">
       <defs>
        <path id="DejaVuSans-38" d="M 2034 2216 
Q 1584 2216 1326 1975 
Q 1069 1734 1069 1313 
Q 1069 891 1326 650 
Q 1584 409 2034 409 
Q 2484 409 2743 651 
Q 3003 894 3003 1313 
Q 3003 1734 2745 1975 
Q 2488 2216 2034 2216 
z
M 1403 2484 
Q 997 2584 770 2862 
Q 544 3141 544 3541 
Q 544 4100 942 4425 
Q 1341 4750 2034 4750 
Q 2731 4750 3128 4425 
Q 3525 4100 3525 3541 
Q 3525 3141 3298 2862 
Q 3072 2584 2669 2484 
Q 3125 2378 3379 2068 
Q 3634 1759 3634 1313 
Q 3634 634 3220 271 
Q 2806 -91 2034 -91 
Q 1263 -91 848 271 
Q 434 634 434 1313 
Q 434 1759 690 2068 
Q 947 2378 1403 2484 
z
M 1172 3481 
Q 1172 3119 1398 2916 
Q 1625 2713 2034 2713 
Q 2441 2713 2670 2916 
Q 2900 3119 2900 3481 
Q 2900 3844 2670 4047 
Q 2441 4250 2034 4250 
Q 1625 4250 1398 4047 
Q 1172 3844 1172 3481 
z
" transform="scale(0.015625)"/>
       </defs>
       <use xlink:href="#DejaVuSans-32"/>
       <use xlink:href="#DejaVuSans-30" x="63.623047"/>
       <use xlink:href="#DejaVuSans-30" x="127.246094"/>
       <use xlink:href="#DejaVuSans-38" x="190.869141"/>
      </g>
     </g>
    </g>
    <g id="xtick_6">
     <g id="line2d_6">
      <g>
       <use xlink:href="#m01160eeed2" x="663.95995" y="238.70175" style="stroke: #000000; stroke-width: 0.8"/>
      </g>
     </g>
     <g id="text_6">
      <!-- 2012 -->
      <g transform="translate(651.23495 251.550188) scale(0.1 -0.1)">
       <use xlink:href="#DejaVuSans-32"/>
       <use xlink:href="#DejaVuSans-30" x="63.623047"/>
       <use xlink:href="#DejaVuSans-31" x="127.246094"/>
       <use xlink:href="#DejaVuSans-32" x="190.869141"/>
      </g>
     </g>
    </g>
    <g id="xtick_7">
     <g id="line2d_7">
      <g>
       <use xlink:href="#m01160eeed2" x="779.749837" y="238.70175" style="stroke: #000000; stroke-width: 0.8"/>
      </g>
     </g>
     <g id="text_7">
      <!-- 2016 -->
      <g transform="translate(767.024837 251.550188) scale(0.1 -0.1)">
       <use xlink:href="#DejaVuSans-32"/>
       <use xlink:href="#DejaVuSans-30" x="63.623047"/>
       <use xlink:href="#DejaVuSans-31" x="127.246094"/>
       <use xlink:href="#DejaVuSans-36" x="190.869141"/>
      </g>
     </g>
    </g>
   </g>
   <g id="matplotlib.axis_2">
    <g id="ytick_1">
     <g id="line2d_8">
      <path d="M 29.532813 218.974249 
L 866.532812 218.974249 
" clip-path="url(#p70a9044e96)" style="fill: none; stroke-dasharray: 1.85,0.8; stroke-dashoffset: 0; stroke: #b2b2b2; stroke-width: 0.5"/>
     </g>
     <g id="line2d_9">
      <defs>
       <path id="m4d912e9852" d="M 1.75 0 
L -1.75 -0 
" style="stroke: #000000; stroke-width: 0.8"/>
      </defs>
      <g>
       <use xlink:href="#m4d912e9852" x="29.532813" y="218.974249" style="stroke: #000000; stroke-width: 0.8"/>
      </g>
     </g>
     <g id="text_8">
      <!-- −1.0 -->
      <g transform="translate(0 222.773468) scale(0.1 -0.1)">
       <defs>
        <path id="DejaVuSans-2212" d="M 678 2272 
L 4684 2272 
L 4684 1741 
L 678 1741 
L 678 2272 
z
" transform="scale(0.015625)"/>
        <path id="DejaVuSans-2e" d="M 684 794 
L 1344 794 
L 1344 0 
L 684 0 
L 684 794 
z
" transform="scale(0.015625)"/>
       </defs>
       <use xlink:href="#DejaVuSans-2212"/>
       <use xlink:href="#DejaVuSans-31" x="83.789062"/>
       <use xlink:href="#DejaVuSans-2e" x="147.412109"/>
       <use xlink:href="#DejaVuSans-30" x="179.199219"/>
      </g>
     </g>
    </g>
    <g id="ytick_2">
     <g id="line2d_10">
      <path d="M 29.532813 182.85449 
L 866.532812 182.85449 
" clip-path="url(#p70a9044e96)" style="fill: none; stroke-dasharray: 1.85,0.8; stroke-dashoffset: 0; stroke: #b2b2b2; stroke-width: 0.5"/>
     </g>
     <g id="line2d_11">
      <g>
       <use xlink:href="#m4d912e9852" x="29.532813" y="182.85449" style="stroke: #000000; stroke-width: 0.8"/>
      </g>
     </g>
     <g id="text_9">
      <!-- −0.5 -->
      <g transform="translate(0 186.653709) scale(0.1 -0.1)">
       <defs>
        <path id="DejaVuSans-35" d="M 691 4666 
L 3169 4666 
L 3169 4134 
L 1269 4134 
L 1269 2991 
Q 1406 3038 1543 3061 
Q 1681 3084 1819 3084 
Q 2600 3084 3056 2656 
Q 3513 2228 3513 1497 
Q 3513 744 3044 326 
Q 2575 -91 1722 -91 
Q 1428 -91 1123 -41 
Q 819 9 494 109 
L 494 744 
Q 775 591 1075 516 
Q 1375 441 1709 441 
Q 2250 441 2565 725 
Q 2881 1009 2881 1497 
Q 2881 1984 2565 2268 
Q 2250 2553 1709 2553 
Q 1456 2553 1204 2497 
Q 953 2441 691 2322 
L 691 4666 
z
" transform="scale(0.015625)"/>
       </defs>
       <use xlink:href="#DejaVuSans-2212"/>
       <use xlink:href="#DejaVuSans-30" x="83.789062"/>
       <use xlink:href="#DejaVuSans-2e" x="147.412109"/>
       <use xlink:href="#DejaVuSans-35" x="179.199219"/>
      </g>
     </g>
    </g>
    <g id="ytick_3">
     <g id="line2d_12">
      <path d="M 29.532813 146.734731 
L 866.532812 146.734731 
" clip-path="url(#p70a9044e96)" style="fill: none; stroke-dasharray: 1.85,0.8; stroke-dashoffset: 0; stroke: #b2b2b2; stroke-width: 0.5"/>
     </g>
     <g id="line2d_13">
      <g>
       <use xlink:href="#m4d912e9852" x="29.532813" y="146.734731" style="stroke: #000000; stroke-width: 0.8"/>
      </g>
     </g>
     <g id="text_10">
      <!-- 0.0 -->
      <g transform="translate(8.379688 150.53395) scale(0.1 -0.1)">
       <use xlink:href="#DejaVuSans-30"/>
       <use xlink:href="#DejaVuSans-2e" x="63.623047"/>
       <use xlink:href="#DejaVuSans-30" x="95.410156"/>
      </g>
     </g>
    </g>
    <g id="ytick_4">
     <g id="line2d_14">
      <path d="M 29.532813 110.614972 
L 866.532812 110.614972 
" clip-path="url(#p70a9044e96)" style="fill: none; stroke-dasharray: 1.85,0.8; stroke-dashoffset: 0; stroke: #b2b2b2; stroke-width: 0.5"/>
     </g>
     <g id="line2d_15">
      <g>
       <use xlink:href="#m4d912e9852" x="29.532813" y="110.614972" style="stroke: #000000; stroke-width: 0.8"/>
      </g>
     </g>
     <g id="text_11">
      <!-- 0.5 -->
      <g transform="translate(8.379688 114.41419) scale(0.1 -0.1)">
       <use xlink:href="#DejaVuSans-30"/>
       <use xlink:href="#DejaVuSans-2e" x="63.623047"/>
       <use xlink:href="#DejaVuSans-35" x="95.410156"/>
      </g>
     </g>
    </g>
    <g id="ytick_5">
     <g id="line2d_16">
      <path d="M 29.532813 74.495212 
L 866.532812 74.495212 
" clip-path="url(#p70a9044e96)" style="fill: none; stroke-dasharray: 1.85,0.8; stroke-dashoffset: 0; stroke: #b2b2b2; stroke-width: 0.5"/>
     </g>
     <g id="line2d_17">
      <g>
       <use xlink:href="#m4d912e9852" x="29.532813" y="74.495212" style="stroke: #000000; stroke-width: 0.8"/>
      </g>
     </g>
     <g id="text_12">
      <!-- 1.0 -->
      <g transform="translate(8.379688 78.294431) scale(0.1 -0.1)">
       <use xlink:href="#DejaVuSans-31"/>
       <use xlink:href="#DejaVuSans-2e" x="63.623047"/>
       <use xlink:href="#DejaVuSans-30" x="95.410156"/>
      </g>
     </g>
    </g>
    <g id="ytick_6">
     <g id="line2d_18">
      <path d="M 29.532813 38.375453 
L 866.532812 38.375453 
" clip-path="url(#p70a9044e96)" style="fill: none; stroke-dasharray: 1.85,0.8; stroke-dashoffset: 0; stroke: #b2b2b2; stroke-width: 0.5"/>
     </g>
     <g id="line2d_19">
      <g>
       <use xlink:href="#m4d912e9852" x="29.532813" y="38.375453" style="stroke: #000000; stroke-width: 0.8"/>
      </g>
     </g>
     <g id="text_13">
      <!-- 1.5 -->
      <g transform="translate(8.379688 42.174672) scale(0.1 -0.1)">
       <use xlink:href="#DejaVuSans-31"/>
       <use xlink:href="#DejaVuSans-2e" x="63.623047"/>
       <use xlink:href="#DejaVuSans-35" x="95.410156"/>
      </g>
     </g>
    </g>
   </g>
   <g id="line2d_20">
    <path d="M 29.532812 223.909618 
L 31.751921 225.40693 
L 34.20879 228.918128 
L 39.043276 226.169273 
L 41.420891 226.052064 
L 43.877761 214.939594 
L 46.334631 217.1388 
L 48.712246 214.471199 
L 51.169116 220.960413 
L 53.546732 230.163309 
L 56.003601 229.852788 
L 58.460471 232.575902 
L 60.679579 230.696727 
L 63.136449 232.17811 
L 65.514064 224.047779 
L 67.970934 224.657737 
L 70.34855 218.399511 
L 72.805419 217.638066 
L 75.262289 220.932152 
L 77.639905 211.857012 
L 80.096774 231.196772 
L 82.47439 238.70175 
L 87.388129 209.191217 
L 89.686491 212.287823 
L 92.143361 201.137829 
L 94.520976 195.001222 
L 96.977846 194.998032 
L 99.355462 191.163063 
L 101.812331 189.855238 
L 104.269201 188.995785 
L 106.646817 186.066617 
L 109.103686 185.120139 
L 111.481302 186.311798 
L 113.938172 153.134791 
L 116.395041 150.882412 
L 118.614149 146.872174 
L 121.071019 148.509699 
L 123.448635 141.844314 
L 125.905504 140.608187 
L 128.28312 139.737194 
L 130.73999 139.531724 
L 133.196859 140.479172 
L 135.574475 140.939781 
L 138.031345 140.234884 
L 140.408961 142.759018 
L 142.86583 141.766699 
L 145.3227 139.367379 
L 147.541808 138.116325 
L 149.998677 138.316679 
L 152.376293 135.490791 
L 154.833163 135.616835 
L 157.210779 136.93049 
L 159.667648 140.044591 
L 162.124518 140.251635 
L 164.502134 138.283532 
L 166.959003 138.186975 
L 169.336619 135.031495 
L 171.793489 134.211903 
L 174.250358 134.30434 
L 176.469466 134.506725 
L 178.926336 136.799356 
L 181.303952 135.9755 
L 183.760821 134.452261 
L 186.138437 133.526568 
L 188.595307 135.088003 
L 191.052176 135.703966 
L 193.429792 135.625635 
L 195.886662 136.692981 
L 198.264277 135.351033 
L 200.721147 136.729472 
L 203.178017 137.385267 
L 205.476378 136.627359 
L 207.933248 136.055015 
L 210.310864 133.576545 
L 212.767733 133.396113 
L 215.145349 134.2371 
L 217.602219 133.32224 
L 220.059088 133.506388 
L 222.436704 132.998329 
L 224.893574 132.057961 
L 227.27119 128.065844 
L 229.728059 127.116022 
L 232.184929 128.912439 
L 234.404037 121.409506 
L 236.860906 120.956894 
L 239.238522 119.48045 
L 241.695392 119.842912 
L 244.073008 120.961771 
L 246.529877 119.584662 
L 248.986747 120.206448 
L 251.364363 118.522668 
L 256.198848 118.915804 
L 258.655718 118.106576 
L 261.112587 119.958765 
L 263.331695 119.50374 
L 265.788565 121.163608 
L 268.166181 125.764027 
L 270.62305 126.964342 
L 273.000666 124.12996 
L 275.457536 120.205853 
L 277.914405 120.411857 
L 280.292021 118.025625 
L 282.748891 119.381796 
L 285.126506 112.397902 
L 287.583376 110.401504 
L 294.716223 115.222312 
L 297.093839 117.74332 
L 299.550709 112.085592 
L 301.928324 107.618739 
L 304.385194 105.603576 
L 306.842064 107.761584 
L 309.219679 104.927728 
L 311.676549 102.339429 
L 314.054165 101.618784 
L 316.511034 102.654979 
L 318.967904 106.150933 
L 321.266266 103.70193 
L 323.723135 102.148572 
L 326.100751 109.698084 
L 328.557621 106.668323 
L 330.935237 108.420008 
L 333.392106 104.025969 
L 335.848976 107.749084 
L 338.226591 109.920916 
L 340.683461 109.099619 
L 343.061077 110.727236 
L 345.517946 110.249395 
L 347.974816 108.380623 
L 350.193924 112.416043 
L 352.650794 106.607549 
L 355.02841 107.525058 
L 357.485279 104.676117 
L 359.862895 100.790434 
L 362.319764 100.968968 
L 364.776634 100.742559 
L 367.15425 100.952704 
L 369.611119 101.904912 
L 371.988735 99.558441 
L 374.445605 99.879053 
L 376.902474 101.902131 
L 379.121583 103.189145 
L 381.578452 103.753567 
L 383.956068 103.459526 
L 386.412937 103.756984 
L 388.790553 102.698863 
L 393.704292 103.951796 
L 396.081908 109.900185 
L 398.538778 108.728591 
L 400.916394 109.634458 
L 403.373263 109.872385 
L 405.830133 107.451727 
L 408.049241 107.603483 
L 410.50611 109.023906 
L 412.883726 105.733007 
L 415.340596 106.726839 
L 417.718212 106.101604 
L 420.175081 104.874333 
L 422.631951 105.158237 
L 425.009567 105.643132 
L 427.466436 109.34111 
L 429.844052 114.748709 
L 432.300922 113.557469 
L 434.757791 109.725578 
L 437.056153 104.410863 
L 439.513023 104.463623 
L 441.890638 107.58513 
L 444.347508 107.156365 
L 446.725124 108.003692 
L 449.181993 108.745773 
L 451.638863 107.652731 
L 454.016479 109.236828 
L 456.473348 108.195594 
L 458.850964 110.008808 
L 461.307834 113.008613 
L 463.764703 112.272466 
L 465.983811 114.185232 
L 468.440681 112.020544 
L 470.818297 112.035131 
L 473.275166 108.55572 
L 475.652782 110.564583 
L 478.109652 113.215683 
L 480.566521 114.152757 
L 482.944137 113.790128 
L 485.401007 116.451111 
L 487.778623 115.658307 
L 490.235492 114.313877 
L 492.692362 109.775862 
L 494.91147 112.458608 
L 497.368339 125.519953 
L 499.745955 126.640561 
L 502.202825 127.405478 
L 504.580441 128.398686 
L 507.03731 129.239143 
L 509.49418 128.389441 
L 511.871796 122.879017 
L 514.328665 123.0108 
L 516.706281 124.12503 
L 519.163151 125.451073 
L 521.62002 124.424684 
L 523.839128 124.150882 
L 526.295998 127.199881 
L 528.673614 124.634255 
L 531.130483 125.295277 
L 533.508099 125.05735 
L 535.964969 125.85352 
L 538.421838 123.893288 
L 540.799454 119.473597 
L 543.256324 118.474378 
L 545.633939 121.342845 
L 548.090809 120.778272 
L 550.547679 116.238074 
L 552.84604 118.667496 
L 555.30291 110.107493 
L 557.680526 108.713553 
L 560.137395 106.356115 
L 562.515011 110.372878 
L 564.971881 109.906877 
L 567.42875 103.976157 
L 569.806366 103.758727 
L 572.263236 105.58552 
L 574.640852 96.369 
L 577.097721 84.385732 
L 579.554591 81.968498 
L 581.773699 82.397577 
L 584.230568 77.096228 
L 586.608184 46.136041 
L 589.065054 51.013167 
L 591.44267 50.155542 
L 593.899539 42.13708 
L 596.356409 41.044201 
L 598.734025 43.389446 
L 601.190894 47.392197 
L 603.56851 45.414219 
L 606.025379 45.938385 
L 608.482249 45.59225 
L 610.701357 41.867706 
L 613.158227 40.170603 
L 615.535843 42.276851 
L 617.992712 45.002605 
L 620.370328 39.874075 
L 622.827198 29.950065 
L 625.284067 41.937654 
L 627.661683 37.15943 
L 630.118552 31.589359 
L 632.496168 31.197991 
L 634.953038 28.129385 
L 637.409907 31.915655 
L 639.629016 36.626626 
L 642.085885 47.520918 
L 644.463501 46.342438 
L 646.92037 48.498804 
L 651.754856 45.901356 
L 654.211725 48.968374 
L 656.589341 47.310041 
L 659.046211 40.853499 
L 661.423827 46.39223 
L 663.880696 43.351391 
L 666.337566 35.860044 
L 668.635928 37.755911 
L 671.092797 41.160257 
L 673.470413 45.277351 
L 675.927283 46.444632 
L 678.304898 46.106477 
L 680.761768 47.510538 
L 683.218638 42.737404 
L 685.596253 40.193219 
L 688.053123 41.715235 
L 690.430739 41.947658 
L 692.887608 36.61006 
L 695.344478 41.572903 
L 697.563586 43.185902 
L 700.020456 45.195722 
L 702.398071 45.505846 
L 704.854941 40.030844 
L 707.232557 45.436282 
L 709.689426 49.974651 
L 712.146296 45.958954 
L 714.523912 44.166083 
L 716.980781 46.6221 
L 719.358397 55.406022 
L 721.815267 57.443128 
L 724.272136 60.996381 
L 726.491244 62.821657 
L 728.948114 71.743072 
L 731.32573 82.4425 
L 733.782599 79.494362 
L 736.160215 81.30997 
L 738.617085 82.423038 
L 741.073954 82.704399 
L 743.45157 84.065806 
L 745.90844 86.645026 
L 748.286056 85.624921 
L 750.742925 86.887687 
L 753.199795 99.691467 
L 755.418903 97.675168 
L 757.875772 101.364298 
L 760.253388 100.968375 
L 762.710258 100.272532 
L 765.087874 101.835014 
L 767.544743 109.161138 
L 770.001613 102.17077 
L 772.379229 102.845219 
L 774.836098 99.654488 
L 777.213714 92.953997 
L 779.670584 86.672412 
L 782.127453 86.390434 
L 784.425815 86.889663 
L 786.882685 77.864044 
L 789.2603 78.575284 
L 791.71717 76.225579 
L 794.094786 77.731021 
L 796.551655 75.945103 
L 799.008525 76.808097 
L 801.386141 78.292081 
L 803.84301 81.295678 
L 806.220626 87.467923 
L 808.677496 90.723977 
L 811.134365 89.898082 
L 813.353473 89.791013 
L 815.810343 91.408147 
L 818.187959 90.514074 
L 820.644828 89.909431 
L 823.022444 90.335355 
L 825.479314 97.959918 
L 827.936183 101.939989 
L 830.313799 102.226845 
L 832.770669 104.900527 
L 835.148285 104.580822 
L 837.605154 106.9951 
L 840.062024 111.549792 
L 842.281132 111.450812 
L 844.738001 113.06087 
L 847.115617 118.013831 
L 849.572487 117.582296 
L 851.950103 115.66947 
L 854.406972 115.790471 
L 856.863842 117.364295 
L 859.241458 118.334352 
L 861.698327 116.681742 
L 864.075943 116.950568 
L 866.532813 110.696657 
L 866.532813 110.696657 
" clip-path="url(#p70a9044e96)" style="fill: none; stroke: #e69f00; stroke-width: 2; stroke-linecap: square"/>
   </g>
   <g id="line2d_21">
    <path d="M 29.532812 33.541681 
L 31.751921 40.021814 
L 34.20879 37.4121 
L 36.586406 38.610494 
L 39.043276 39.152692 
L 41.420891 40.658202 
L 43.877761 39.558264 
L 46.334631 37.251896 
L 48.712246 49.143804 
L 51.169116 41.952346 
L 53.546732 39.612985 
L 56.003601 39.197415 
L 58.460471 36.413309 
L 60.679579 37.344559 
L 63.136449 38.633668 
L 65.514064 40.456738 
L 67.970934 39.986062 
L 70.34855 41.893748 
L 72.805419 42.07833 
L 75.262289 38.001761 
L 77.639905 42.151785 
L 80.096774 31.931542 
L 82.47439 28.396211 
L 84.93126 27.722249 
L 87.388129 31.435799 
L 89.686491 25.375176 
L 92.143361 26.978741 
L 94.520976 27.895409 
L 96.977846 16.94175 
L 99.355462 24.55257 
L 101.812331 26.656349 
L 104.269201 24.264318 
L 106.646817 23.04643 
L 109.103686 22.483302 
L 111.481302 20.686105 
L 113.938172 33.3235 
L 116.395041 41.639332 
L 118.614149 44.223121 
L 121.071019 40.75627 
L 123.448635 48.826705 
L 125.905504 48.447399 
L 128.28312 47.804557 
L 130.73999 48.829752 
L 133.196859 50.096818 
L 135.574475 49.651728 
L 138.031345 52.13894 
L 140.408961 52.807554 
L 142.86583 52.403029 
L 145.3227 52.401613 
L 147.541808 54.071536 
L 149.998677 54.881046 
L 152.376293 54.375676 
L 154.833163 52.715059 
L 157.210779 56.311191 
L 159.667648 58.195964 
L 162.124518 57.695674 
L 164.502134 62.993689 
L 166.959003 60.580585 
L 169.336619 59.099344 
L 171.793489 59.331618 
L 174.250358 56.570252 
L 176.469466 53.055808 
L 178.926336 58.725467 
L 181.303952 58.603987 
L 183.760821 59.730442 
L 186.138437 57.677938 
L 188.595307 65.075651 
L 191.052176 64.563248 
L 193.429792 57.534527 
L 195.886662 69.790486 
L 198.264277 70.57024 
L 200.721147 70.842571 
L 203.178017 76.187 
L 205.476378 78.777377 
L 207.933248 79.95839 
L 210.310864 84.301541 
L 212.767733 85.901296 
L 215.145349 84.598944 
L 217.602219 84.578619 
L 220.059088 87.225139 
L 222.436704 85.383565 
L 224.893574 85.318783 
L 227.27119 85.686413 
L 229.728059 86.586878 
L 232.184929 83.628155 
L 234.404037 98.366523 
L 236.860906 94.203328 
L 239.238522 95.059662 
L 241.695392 91.393826 
L 244.073008 86.656456 
L 246.529877 87.93776 
L 248.986747 85.963923 
L 251.364363 82.039616 
L 253.821232 82.419699 
L 256.198848 80.024196 
L 261.112587 78.46786 
L 263.331695 79.158342 
L 265.788565 80.045907 
L 268.166181 73.5394 
L 270.62305 75.115984 
L 273.000666 78.86038 
L 275.457536 80.206782 
L 277.914405 84.409272 
L 280.292021 97.492145 
L 282.748891 69.964305 
L 285.126506 71.743874 
L 287.583376 70.211816 
L 290.040246 66.459715 
L 292.259354 67.224139 
L 294.716223 70.801255 
L 297.093839 69.600748 
L 299.550709 80.957213 
L 301.928324 86.053276 
L 304.385194 85.178613 
L 306.842064 85.674605 
L 309.219679 81.832951 
L 311.676549 82.812786 
L 314.054165 86.011097 
L 316.511034 82.62597 
L 318.967904 85.659747 
L 321.266266 86.217471 
L 323.723135 80.917498 
L 326.100751 86.768027 
L 328.557621 83.699184 
L 330.935237 90.687479 
L 333.392106 82.798238 
L 335.848976 81.170427 
L 338.226591 89.700136 
L 340.683461 88.112864 
L 343.061077 89.733945 
L 345.517946 86.694244 
L 347.974816 87.896928 
L 350.193924 89.502373 
L 352.650794 92.017999 
L 355.02841 90.696808 
L 357.485279 89.472465 
L 359.862895 91.63269 
L 364.776634 98.085387 
L 367.15425 99.668149 
L 369.611119 97.442742 
L 371.988735 100.025376 
L 374.445605 100.438047 
L 376.902474 101.17572 
L 379.121583 100.771922 
L 381.578452 99.888289 
L 386.412937 104.863932 
L 388.790553 104.010574 
L 391.247423 105.161564 
L 393.704292 102.886027 
L 396.081908 107.04657 
L 398.538778 106.793661 
L 400.916394 106.33565 
L 403.373263 105.595635 
L 405.830133 106.71492 
L 408.049241 105.704143 
L 410.50611 106.613647 
L 412.883726 106.516737 
L 415.340596 107.338225 
L 417.718212 107.577153 
L 420.175081 107.212706 
L 422.631951 107.912475 
L 425.009567 105.715041 
L 427.466436 113.957022 
L 429.844052 113.661627 
L 432.300922 114.770899 
L 434.757791 119.146194 
L 437.056153 124.000823 
L 439.513023 122.666953 
L 441.890638 122.577366 
L 444.347508 120.307838 
L 449.181993 119.922169 
L 451.638863 122.690736 
L 454.016479 121.918212 
L 456.473348 122.732945 
L 458.850964 122.46844 
L 461.307834 128.709227 
L 463.764703 129.057184 
L 465.983811 127.633902 
L 468.440681 127.547925 
L 470.818297 133.254808 
L 473.275166 136.573629 
L 475.652782 136.272319 
L 478.109652 136.593932 
L 480.566521 136.753717 
L 482.944137 136.395559 
L 485.401007 135.444014 
L 487.778623 136.468254 
L 490.235492 139.387229 
L 492.692362 139.176003 
L 494.91147 139.473305 
L 497.368339 134.969731 
L 499.745955 133.499219 
L 502.202825 134.75107 
L 504.580441 133.880185 
L 507.03731 135.790138 
L 509.49418 132.480804 
L 511.871796 134.314545 
L 514.328665 134.142237 
L 516.706281 132.08617 
L 519.163151 134.531691 
L 521.62002 135.812225 
L 526.295998 133.977613 
L 528.673614 132.040725 
L 531.130483 130.539624 
L 533.508099 130.714802 
L 535.964969 130.282526 
L 538.421838 132.90329 
L 540.799454 126.157204 
L 543.256324 126.417333 
L 545.633939 127.348012 
L 548.090809 125.571308 
L 550.547679 127.850952 
L 552.84604 125.066113 
L 555.30291 125.577305 
L 557.680526 122.593192 
L 560.137395 123.67369 
L 562.515011 127.027259 
L 564.971881 130.0684 
L 567.42875 126.835417 
L 569.806366 126.523501 
L 572.263236 125.257694 
L 574.640852 126.11183 
L 577.097721 132.828575 
L 579.554591 130.991324 
L 581.773699 127.411719 
L 584.230568 125.995911 
L 586.608184 127.595022 
L 589.065054 126.198934 
L 591.44267 126.973786 
L 593.899539 126.124002 
L 596.356409 126.238969 
L 598.734025 128.683315 
L 601.190894 129.932496 
L 603.56851 129.849349 
L 606.025379 129.381036 
L 610.701357 129.562884 
L 613.158227 129.279439 
L 615.535843 125.442117 
L 617.992712 126.514897 
L 620.370328 124.523949 
L 622.827198 125.576267 
L 625.284067 127.304852 
L 627.661683 127.14664 
L 630.118552 127.957878 
L 632.496168 128.182052 
L 634.953038 124.13396 
L 637.409907 124.327483 
L 639.629016 125.547281 
L 642.085885 124.278497 
L 644.463501 124.932882 
L 646.92037 126.166427 
L 649.297986 125.385614 
L 651.754856 124.168247 
L 654.211725 125.488382 
L 656.589341 125.38233 
L 659.046211 121.108764 
L 661.423827 125.641541 
L 663.880696 127.233081 
L 666.337566 128.207857 
L 668.635928 128.011896 
L 671.092797 131.009391 
L 673.470413 131.389538 
L 675.927283 131.148429 
L 678.304898 129.485522 
L 680.761768 130.216539 
L 683.218638 129.615144 
L 685.596253 132.014398 
L 690.430739 133.162218 
L 692.887608 131.235043 
L 695.344478 130.814281 
L 697.563586 131.937736 
L 700.020456 134.171485 
L 702.398071 133.083915 
L 704.854941 131.248216 
L 707.232557 132.401464 
L 709.689426 132.534189 
L 712.146296 134.879015 
L 714.523912 136.260849 
L 716.980781 136.522079 
L 719.358397 130.733086 
L 721.815267 127.751432 
L 724.272136 135.735017 
L 726.491244 138.888225 
L 728.948114 139.335581 
L 731.32573 134.127357 
L 733.782599 140.000549 
L 736.160215 137.687484 
L 738.617085 137.320743 
L 741.073954 137.94872 
L 743.45157 142.679961 
L 745.90844 140.412177 
L 748.286056 143.474067 
L 750.742925 142.559223 
L 753.199795 134.552478 
L 755.418903 133.6826 
L 757.875772 132.941687 
L 760.253388 130.003007 
L 762.710258 132.849206 
L 765.087874 132.162072 
L 767.544743 129.419561 
L 770.001613 132.776431 
L 772.379229 128.801824 
L 774.836098 127.474634 
L 777.213714 130.893953 
L 779.670584 133.340451 
L 782.127453 132.681834 
L 784.425815 132.951947 
L 786.882685 132.080046 
L 789.2603 130.154215 
L 791.71717 131.540107 
L 794.094786 129.212175 
L 796.551655 129.666959 
L 799.008525 132.466004 
L 801.386141 132.263184 
L 803.84301 132.27934 
L 806.220626 128.689696 
L 808.677496 124.755816 
L 813.353473 124.640539 
L 815.810343 125.668385 
L 818.187959 124.965031 
L 820.644828 126.92048 
L 823.022444 126.267198 
L 825.479314 124.136318 
L 827.936183 124.785597 
L 830.313799 123.95871 
L 832.770669 124.663197 
L 835.148285 125.875188 
L 837.605154 126.157175 
L 840.062024 126.680826 
L 842.281132 126.747477 
L 844.738001 121.480611 
L 847.115617 125.33359 
L 849.572487 124.061075 
L 851.950103 124.472572 
L 854.406972 124.439185 
L 856.863842 125.378516 
L 859.241458 124.037821 
L 861.698327 123.730694 
L 864.075943 123.303283 
L 866.532813 124.69324 
L 866.532813 124.69324 
" clip-path="url(#p70a9044e96)" style="fill: none; stroke-dasharray: 7.4,3.2; stroke-dashoffset: 0; stroke: #56b4e9; stroke-width: 2"/>
   </g>
   <g id="line2d_22">
    <path d="M 29.532812 136.30385 
L 31.751921 137.016528 
L 34.20879 135.530225 
L 36.586406 136.378331 
L 39.043276 135.622377 
L 41.420891 136.023808 
L 43.877761 140.613302 
L 46.334631 141.268807 
L 48.712246 134.220325 
L 51.169116 135.387084 
L 53.546732 131.934215 
L 56.003601 132.546415 
L 58.460471 130.967669 
L 60.679579 132.401904 
L 63.136449 129.233923 
L 65.514064 130.02955 
L 67.970934 131.852521 
L 70.34855 134.879305 
L 72.805419 136.146395 
L 75.262289 135.433198 
L 77.639905 135.88836 
L 80.096774 132.827011 
L 82.47439 132.938976 
L 84.93126 137.654765 
L 87.388129 139.237617 
L 92.143361 137.985331 
L 94.520976 140.593231 
L 96.977846 142.293103 
L 99.355462 146.175479 
L 101.812331 146.002968 
L 104.269201 148.88684 
L 106.646817 151.297927 
L 109.103686 150.957087 
L 111.481302 151.011372 
L 113.938172 164.165522 
L 116.395041 158.722027 
L 118.614149 154.446466 
L 121.071019 157.58264 
L 123.448635 158.313483 
L 125.905504 158.438873 
L 128.28312 157.790502 
L 130.73999 156.973892 
L 133.196859 155.109221 
L 135.574475 154.281791 
L 138.031345 151.067089 
L 140.408961 150.173703 
L 142.86583 150.535432 
L 145.3227 151.973894 
L 147.541808 150.935532 
L 149.998677 148.888148 
L 152.376293 147.693505 
L 154.833163 146.744632 
L 157.210779 142.958602 
L 162.124518 139.809644 
L 164.502134 142.178408 
L 166.959003 144.304363 
L 169.336619 144.829082 
L 171.793489 146.991115 
L 174.250358 147.855605 
L 176.469466 146.15721 
L 178.926336 143.827449 
L 181.303952 144.30082 
L 183.760821 142.479689 
L 186.138437 145.336948 
L 188.595307 138.005901 
L 191.052176 136.905158 
L 193.429792 144.40869 
L 195.886662 135.719613 
L 198.264277 139.82225 
L 200.721147 137.755534 
L 203.178017 132.509683 
L 205.476378 130.661369 
L 207.933248 130.988314 
L 210.310864 133.931685 
L 212.767733 132.570861 
L 215.145349 135.47383 
L 217.602219 137.504513 
L 220.059088 136.423814 
L 222.436704 141.567127 
L 224.893574 141.943698 
L 227.27119 144.23941 
L 229.728059 143.432322 
L 232.184929 145.223584 
L 234.404037 148.735207 
L 236.860906 150.63629 
L 241.695392 152.496872 
L 244.073008 152.390293 
L 246.529877 155.213905 
L 248.986747 153.166153 
L 251.364363 156.651718 
L 253.821232 154.201218 
L 256.198848 153.919091 
L 258.655718 155.479292 
L 261.112587 156.320211 
L 263.331695 156.314382 
L 265.788565 153.757333 
L 268.166181 153.839569 
L 270.62305 152.396688 
L 273.000666 152.126783 
L 275.457536 152.807624 
L 277.914405 151.921131 
L 280.292021 147.086424 
L 282.748891 148.927422 
L 285.126506 152.972877 
L 290.040246 154.712515 
L 292.259354 153.067802 
L 294.716223 147.605617 
L 297.093839 150.927526 
L 299.550709 152.481839 
L 301.928324 153.32783 
L 304.385194 152.478025 
L 306.842064 152.886381 
L 309.219679 153.091905 
L 311.676549 153.900363 
L 314.054165 151.985163 
L 316.511034 152.408162 
L 318.967904 151.430037 
L 321.266266 154.173956 
L 323.723135 153.602643 
L 326.100751 149.167533 
L 328.557621 149.524508 
L 330.935237 147.766797 
L 335.848976 149.231463 
L 338.226591 149.096628 
L 340.683461 149.482906 
L 343.061077 148.582871 
L 345.517946 148.401747 
L 347.974816 148.426474 
L 352.650794 145.452038 
L 355.02841 145.859396 
L 357.485279 146.871819 
L 359.862895 147.569485 
L 362.319764 147.598421 
L 364.776634 147.181989 
L 367.15425 146.620755 
L 369.611119 147.046284 
L 371.988735 147.890438 
L 376.902474 148.113839 
L 379.121583 147.953232 
L 381.578452 148.023992 
L 383.956068 147.264175 
L 386.412937 147.225721 
L 388.790553 147.623887 
L 391.247423 147.45766 
L 393.704292 148.339837 
L 396.081908 148.234969 
L 400.916394 149.651897 
L 403.373263 149.4349 
L 405.830133 150.069412 
L 408.049241 150.323329 
L 410.50611 150.03682 
L 412.883726 150.34153 
L 417.718212 150.158573 
L 420.175081 150.691018 
L 422.631951 150.435678 
L 427.466436 151.096532 
L 429.844052 150.054381 
L 432.300922 150.438857 
L 434.757791 150.455098 
L 437.056153 149.631246 
L 439.513023 150.206216 
L 441.890638 149.48822 
L 444.347508 149.650651 
L 449.181993 149.455771 
L 451.638863 149.076906 
L 454.016479 149.624758 
L 456.473348 149.730251 
L 458.850964 150.282314 
L 461.307834 150.508072 
L 463.764703 150.382323 
L 465.983811 150.826565 
L 468.440681 150.977798 
L 470.818297 154.279527 
L 473.275166 156.205972 
L 475.652782 155.893705 
L 478.109652 157.506087 
L 480.566521 156.987466 
L 485.401007 156.151072 
L 487.778623 158.119668 
L 490.235492 157.992796 
L 492.692362 159.867335 
L 494.91147 163.581588 
L 497.368339 169.925261 
L 499.745955 173.374701 
L 502.202825 170.886912 
L 504.580441 171.206375 
L 507.03731 171.977796 
L 509.49418 174.980624 
L 514.328665 173.845869 
L 516.706281 172.698473 
L 519.163151 173.797042 
L 521.62002 172.952869 
L 523.839128 172.744875 
L 526.295998 173.459874 
L 528.673614 176.701918 
L 531.130483 177.712589 
L 533.508099 177.571809 
L 535.964969 177.59002 
L 538.421838 171.681503 
L 540.799454 167.573885 
L 543.256324 168.423777 
L 545.633939 163.197778 
L 548.090809 164.9452 
L 550.547679 166.205103 
L 552.84604 160.757053 
L 555.30291 169.498902 
L 557.680526 171.368468 
L 560.137395 172.061445 
L 562.515011 169.089967 
L 564.971881 166.242901 
L 567.42875 167.840356 
L 569.806366 166.376075 
L 572.263236 167.134355 
L 574.640852 172.432549 
L 577.097721 170.832755 
L 579.554591 171.663328 
L 581.773699 175.125885 
L 584.230568 175.853807 
L 586.608184 182.562067 
L 589.065054 181.36939 
L 591.44267 184.721899 
L 593.899539 186.444197 
L 596.356409 186.403108 
L 598.734025 182.744401 
L 601.190894 180.327472 
L 603.56851 182.2278 
L 606.025379 184.556754 
L 608.482249 180.352274 
L 610.701357 184.251945 
L 613.158227 185.428568 
L 615.535843 188.000703 
L 617.992712 186.290251 
L 620.370328 187.823527 
L 622.827198 188.903768 
L 625.284067 184.604257 
L 627.661683 187.501977 
L 630.118552 188.971274 
L 632.496168 188.766851 
L 634.953038 194.009416 
L 637.409907 193.521287 
L 639.629016 190.662289 
L 642.085885 185.699227 
L 644.463501 186.377695 
L 646.92037 183.807884 
L 649.297986 183.420456 
L 651.754856 185.422467 
L 654.211725 183.153338 
L 656.589341 185.247635 
L 659.046211 189.375642 
L 661.423827 183.304174 
L 663.880696 183.361095 
L 666.337566 186.090422 
L 668.635928 184.385213 
L 671.092797 180.745838 
L 673.470413 178.448493 
L 675.927283 178.130268 
L 678.304898 180.2045 
L 680.761768 179.028179 
L 683.218638 182.241991 
L 685.596253 183.216558 
L 688.053123 180.306278 
L 690.430739 181.352368 
L 692.887608 185.459927 
L 695.344478 184.634919 
L 697.563586 186.770173 
L 700.020456 179.304269 
L 702.398071 179.661295 
L 704.854941 181.715742 
L 707.232557 178.893315 
L 709.689426 176.274706 
L 712.146296 176.974873 
L 714.523912 175.721905 
L 716.980781 170.957694 
L 719.358397 164.025088 
L 721.815267 159.520829 
L 724.272136 156.351652 
L 726.491244 153.773087 
L 728.948114 148.343243 
L 731.32573 153.338497 
L 733.782599 152.974226 
L 736.160215 153.498496 
L 738.617085 153.925744 
L 741.073954 152.650532 
L 743.45157 148.4852 
L 745.90844 145.652425 
L 748.286056 144.153032 
L 750.742925 143.216562 
L 753.199795 145.324904 
L 755.418903 144.394967 
L 757.875772 135.029745 
L 760.253388 136.864733 
L 762.710258 138.485853 
L 765.087874 137.066205 
L 767.544743 137.816855 
L 770.001613 140.706019 
L 772.379229 139.106628 
L 774.836098 139.777527 
L 777.213714 128.5955 
L 779.670584 132.090314 
L 782.127453 132.709317 
L 784.425815 133.443708 
L 786.882685 133.323261 
L 789.2603 133.971108 
L 791.71717 137.106385 
L 794.094786 139.825819 
L 796.551655 139.098349 
L 799.008525 137.71528 
L 801.386141 140.382368 
L 803.84301 139.292977 
L 806.220626 142.397415 
L 808.677496 145.262683 
L 811.134365 145.330745 
L 813.353473 145.154425 
L 815.810343 143.902147 
L 818.187959 141.953698 
L 820.644828 141.589107 
L 823.022444 141.549895 
L 825.479314 139.483736 
L 827.936183 141.301601 
L 830.313799 141.49133 
L 832.770669 139.05992 
L 835.148285 138.53927 
L 837.605154 136.222795 
L 840.062024 132.973444 
L 842.281132 132.409445 
L 844.738001 137.378091 
L 847.115617 132.711993 
L 849.572487 133.798164 
L 851.950103 134.719976 
L 854.406972 135.44763 
L 856.863842 134.115579 
L 859.241458 134.836285 
L 861.698327 137.498228 
L 864.075943 137.962015 
L 866.532813 140.205065 
L 866.532813 140.205065 
" clip-path="url(#p70a9044e96)" style="fill: none; stroke-dasharray: 12.8,3.2,2,3.2; stroke-dashoffset: 0; stroke: #009e73; stroke-width: 2"/>
   </g>
   <g id="line2d_23">
    <path d="M 29.532812 117.810952 
L 31.751921 118.937668 
L 34.20879 117.393084 
L 39.043276 115.821234 
L 41.420891 113.440958 
L 43.877761 119.683416 
L 46.334631 117.340603 
L 48.712246 122.634322 
L 51.169116 117.696701 
L 53.546732 113.353709 
L 56.003601 115.51174 
L 58.460471 114.439759 
L 60.679579 114.339005 
L 63.136449 113.921999 
L 65.514064 118.343763 
L 67.970934 115.695698 
L 70.34855 118.218563 
L 72.805419 117.23899 
L 75.262289 118.620689 
L 77.639905 122.601195 
L 80.096774 125.233644 
L 82.47439 119.339517 
L 84.93126 125.449261 
L 87.388129 128.62552 
L 89.686491 130.807867 
L 92.143361 136.564915 
L 94.520976 141.522648 
L 96.977846 146.031264 
L 99.355462 140.398937 
L 101.812331 140.250986 
L 104.269201 143.317664 
L 106.646817 144.539983 
L 109.103686 145.315087 
L 111.481302 145.83978 
L 113.938172 154.35304 
L 116.395041 151.921402 
L 118.614149 153.378383 
L 121.071019 153.222071 
L 123.448635 149.717014 
L 125.905504 149.521028 
L 128.28312 150.164341 
L 130.73999 149.986221 
L 133.196859 150.88357 
L 135.574475 151.157212 
L 138.031345 151.634167 
L 140.408961 150.724566 
L 142.86583 151.022604 
L 145.3227 150.862558 
L 147.541808 151.057223 
L 149.998677 150.781957 
L 152.376293 152.382057 
L 154.833163 153.657744 
L 157.210779 152.736893 
L 159.667648 151.408664 
L 162.124518 151.663309 
L 164.502134 148.379008 
L 166.959003 149.662437 
L 169.336619 150.581851 
L 171.793489 150.874932 
L 174.250358 148.664267 
L 176.469466 149.167224 
L 178.926336 147.891699 
L 183.760821 147.907876 
L 186.138437 149.28755 
L 188.595307 146.427507 
L 191.052176 146.77305 
L 193.429792 145.759146 
L 195.886662 148.137308 
L 198.264277 148.925219 
L 200.721147 148.14875 
L 203.178017 147.811029 
L 205.476378 148.365274 
L 207.933248 148.599777 
L 210.310864 148.100494 
L 212.767733 147.860879 
L 215.145349 147.226184 
L 220.059088 147.569093 
L 222.436704 147.029819 
L 224.893574 147.291222 
L 227.27119 148.658278 
L 229.728059 148.825893 
L 232.184929 149.700651 
L 234.404037 146.012663 
L 239.238522 146.363116 
L 241.695392 146.525674 
L 244.073008 147.622132 
L 246.529877 147.558048 
L 248.986747 147.726197 
L 251.364363 145.132633 
L 253.821232 145.893871 
L 256.198848 145.866807 
L 258.655718 144.62041 
L 261.112587 144.065239 
L 263.331695 144.057193 
L 265.788565 140.900831 
L 270.62305 139.158984 
L 273.000666 139.599412 
L 275.457536 140.23781 
L 277.914405 139.371893 
L 280.292021 135.570282 
L 282.748891 132.270912 
L 285.126506 134.908325 
L 287.583376 128.633045 
L 290.040246 128.436665 
L 292.259354 128.622529 
L 294.716223 132.369722 
L 297.093839 131.032775 
L 299.550709 125.298666 
L 301.928324 120.396805 
L 304.385194 123.226255 
L 306.842064 120.937577 
L 309.219679 122.63343 
L 311.676549 116.742425 
L 314.054165 122.67504 
L 316.511034 124.385442 
L 318.967904 120.852387 
L 321.266266 120.978499 
L 323.723135 118.597878 
L 326.100751 117.971398 
L 328.557621 116.8915 
L 330.935237 117.824919 
L 333.392106 119.680626 
L 335.848976 120.403738 
L 338.226591 124.079928 
L 340.683461 124.587724 
L 343.061077 124.718164 
L 345.517946 125.124773 
L 347.974816 126.269239 
L 350.193924 124.407245 
L 352.650794 127.597154 
L 355.02841 126.723333 
L 357.485279 127.403025 
L 359.862895 126.697851 
L 362.319764 127.358573 
L 364.776634 127.683485 
L 367.15425 125.677106 
L 369.611119 127.507331 
L 371.988735 123.526752 
L 374.445605 124.309385 
L 376.902474 123.948861 
L 379.121583 123.815206 
L 381.578452 122.857236 
L 383.956068 123.200144 
L 386.412937 120.849486 
L 388.790553 122.428133 
L 391.247423 119.610005 
L 393.704292 121.917677 
L 396.081908 119.368148 
L 398.538778 118.335304 
L 400.916394 117.497634 
L 403.373263 118.791371 
L 405.830133 117.465216 
L 408.049241 118.459815 
L 410.50611 117.250918 
L 412.883726 117.646588 
L 415.340596 119.254814 
L 417.718212 118.158852 
L 420.175081 117.834859 
L 422.631951 119.617688 
L 425.009567 117.986362 
L 427.466436 119.682931 
L 429.844052 116.242952 
L 432.300922 116.419693 
L 434.757791 115.642102 
L 437.056153 117.31383 
L 439.513023 117.368982 
L 441.890638 116.152068 
L 444.347508 116.755016 
L 446.725124 118.131079 
L 449.181993 118.051452 
L 451.638863 116.717685 
L 454.016479 118.367151 
L 456.473348 118.482497 
L 458.850964 117.640199 
L 461.307834 114.916508 
L 463.764703 115.542377 
L 465.983811 115.043626 
L 468.440681 116.095909 
L 470.818297 115.321972 
L 473.275166 121.065844 
L 475.652782 119.48957 
L 478.109652 118.130987 
L 480.566521 116.530709 
L 482.944137 115.805079 
L 485.401007 115.615874 
L 487.778623 114.688383 
L 490.235492 114.047234 
L 492.692362 112.721423 
L 494.91147 116.116997 
L 497.368339 110.563687 
L 499.745955 109.344648 
L 502.202825 107.076056 
L 504.580441 107.006297 
L 507.03731 105.749892 
L 509.49418 104.994935 
L 511.871796 105.865529 
L 514.328665 106.374406 
L 516.706281 108.69658 
L 519.163151 109.179328 
L 521.62002 108.614606 
L 523.839128 109.831048 
L 526.295998 110.099547 
L 528.673614 109.596612 
L 533.508099 113.432345 
L 535.964969 112.457552 
L 538.421838 109.692639 
L 540.799454 114.424627 
L 543.256324 114.452808 
L 545.633939 119.691672 
L 548.090809 120.82196 
L 550.547679 120.193996 
L 552.84604 120.53221 
L 555.30291 123.462952 
L 557.680526 123.143511 
L 560.137395 121.666695 
L 562.515011 122.78498 
L 564.971881 122.878491 
L 567.42875 116.962533 
L 569.806366 118.055683 
L 572.263236 117.449545 
L 574.640852 119.247393 
L 577.097721 110.85174 
L 579.554591 111.848015 
L 581.773699 114.059496 
L 584.230568 111.728686 
L 586.608184 120.823106 
L 589.065054 118.80837 
L 591.44267 117.593767 
L 593.899539 120.217753 
L 596.356409 119.125506 
L 598.734025 117.429974 
L 601.190894 119.018726 
L 603.56851 116.208124 
L 606.025379 115.103295 
L 608.482249 118.681438 
L 610.701357 118.155004 
L 613.158227 117.831509 
L 615.535843 117.86167 
L 617.992712 117.595769 
L 620.370328 120.49193 
L 622.827198 124.59629 
L 625.284067 120.663331 
L 627.661683 118.489616 
L 630.118552 120.6855 
L 632.496168 121.918446 
L 634.953038 117.452944 
L 637.409907 114.731057 
L 639.629016 115.392272 
L 642.085885 115.614565 
L 644.463501 115.172391 
L 646.92037 115.296192 
L 649.297986 116.535926 
L 651.754856 117.667054 
L 654.211725 118.253517 
L 656.589341 117.614279 
L 661.423827 117.308511 
L 663.880696 114.916627 
L 666.337566 114.174181 
L 668.635928 115.905857 
L 671.092797 114.5482 
L 673.470413 115.245154 
L 675.927283 116.148249 
L 678.304898 111.760219 
L 680.761768 113.89926 
L 683.218638 112.446729 
L 685.596253 112.819295 
L 688.053123 114.43615 
L 690.430739 114.713086 
L 692.887608 113.155343 
L 695.344478 113.093288 
L 697.563586 111.682059 
L 700.020456 113.181497 
L 702.398071 113.791653 
L 704.854941 113.082367 
L 707.232557 114.336281 
L 709.689426 112.6523 
L 712.146296 114.518112 
L 714.523912 116.526502 
L 716.980781 117.637367 
L 719.358397 116.558571 
L 721.815267 124.289595 
L 724.272136 121.586568 
L 726.491244 120.779086 
L 728.948114 114.823977 
L 731.32573 113.432521 
L 733.782599 114.643391 
L 736.160215 112.962119 
L 738.617085 112.174469 
L 741.073954 112.765259 
L 743.45157 112.808948 
L 745.90844 112.545456 
L 748.286056 114.022367 
L 750.742925 113.714254 
L 753.199795 108.492532 
L 755.418903 108.783195 
L 757.875772 110.962096 
L 762.710258 110.579217 
L 765.087874 110.149276 
L 767.544743 107.105162 
L 770.001613 112.635576 
L 772.379229 115.811079 
L 774.836098 122.231448 
L 777.213714 130.093031 
L 779.670584 132.635567 
L 782.127453 134.572713 
L 784.425815 133.457926 
L 786.882685 137.6849 
L 789.2603 137.043304 
L 791.71717 134.917722 
L 794.094786 131.995418 
L 796.551655 130.457481 
L 801.386141 130.184595 
L 803.84301 134.106232 
L 806.220626 134.826669 
L 808.677496 147.620016 
L 815.810343 148.015586 
L 818.187959 150.807219 
L 820.644828 150.857906 
L 823.022444 151.176593 
L 825.479314 151.283344 
L 827.936183 147.777778 
L 830.313799 147.679332 
L 832.770669 146.498485 
L 835.148285 146.011649 
L 837.605154 144.539819 
L 840.062024 142.767336 
L 842.281132 142.446496 
L 847.115617 139.718968 
L 849.572487 139.103279 
L 851.950103 139.17417 
L 856.863842 138.701802 
L 859.241458 137.967792 
L 861.698327 138.141274 
L 864.075943 137.681655 
L 866.532813 141.101863 
L 866.532813 141.101863 
" clip-path="url(#p70a9044e96)" style="fill: none; stroke-dasharray: 2,3.3; stroke-dashoffset: 0; stroke: #0072b2; stroke-width: 2"/>
   </g>
   <g id="line2d_24">
    <path d="M 29.532812 149.868035 
L 31.751921 140.051196 
L 34.20879 142.180599 
L 36.586406 142.211416 
L 39.043276 144.66856 
L 41.420891 145.259105 
L 43.877761 146.63956 
L 46.334631 148.43403 
L 48.712246 140.964486 
L 51.169116 145.437592 
L 53.546732 146.369918 
L 56.003601 144.325778 
L 58.460471 147.037497 
L 60.679579 146.651941 
L 63.136449 147.466436 
L 65.514064 148.556305 
L 67.970934 149.242118 
L 70.34855 148.043009 
L 72.805419 148.332355 
L 75.262289 148.446335 
L 77.639905 148.935783 
L 80.096774 140.245167 
L 82.47439 142.057682 
L 84.93126 146.740966 
L 87.388129 152.943983 
L 89.686491 154.315152 
L 92.143361 158.767321 
L 94.520976 156.421626 
L 96.977846 161.169986 
L 99.355462 159.144088 
L 101.812331 158.668594 
L 104.269201 155.969528 
L 106.646817 156.483179 
L 109.103686 157.558522 
L 111.481302 157.585082 
L 113.938172 156.457283 
L 116.395041 158.268963 
L 118.614149 162.513992 
L 121.071019 161.363456 
L 123.448635 162.732619 
L 128.28312 165.937542 
L 130.73999 166.112547 
L 133.196859 164.865355 
L 135.574475 165.403623 
L 138.031345 166.359056 
L 140.408961 164.969295 
L 142.86583 165.706371 
L 145.3227 166.828691 
L 147.541808 167.25352 
L 149.998677 168.566306 
L 152.376293 171.492107 
L 154.833163 172.699866 
L 157.210779 172.49696 
L 159.667648 170.401018 
L 162.124518 172.013875 
L 164.502134 169.5995 
L 166.959003 168.699775 
L 169.336619 171.892364 
L 171.793489 170.024568 
L 174.250358 174.039672 
L 176.469466 178.547168 
L 178.926336 174.190165 
L 181.303952 174.602961 
L 183.760821 176.863868 
L 186.138437 175.605132 
L 188.595307 176.837075 
L 193.429792 178.106138 
L 195.886662 171.093747 
L 198.264277 166.765393 
L 200.721147 167.95781 
L 203.178017 167.541156 
L 205.476378 167.002757 
L 207.933248 165.83264 
L 210.310864 161.523872 
L 212.767733 161.704987 
L 215.145349 159.898077 
L 217.602219 158.67251 
L 220.059088 156.709702 
L 222.436704 154.455296 
L 224.893574 154.822472 
L 227.27119 154.78419 
L 229.728059 155.473021 
L 232.184929 153.969306 
L 234.404037 146.910237 
L 236.860906 149.406674 
L 239.238522 148.970762 
L 241.695392 151.174852 
L 244.073008 153.803483 
L 246.529877 151.139762 
L 248.986747 154.371415 
L 251.364363 159.087501 
L 253.821232 160.156813 
L 256.198848 162.708238 
L 258.655718 164.028819 
L 261.112587 162.62206 
L 263.331695 162.40048 
L 265.788565 165.566458 
L 268.166181 168.260359 
L 270.62305 167.798138 
L 273.000666 166.717601 
L 275.457536 167.976068 
L 277.914405 165.319983 
L 280.292021 163.25966 
L 282.748891 190.8897 
L 285.126506 189.411158 
L 287.583376 198.402118 
L 290.040246 199.797463 
L 292.259354 199.005021 
L 297.093839 192.129766 
L 299.550709 190.610826 
L 301.928324 194.037486 
L 304.385194 194.947668 
L 306.842064 194.173989 
L 309.219679 198.948121 
L 311.676549 205.639133 
L 314.054165 199.144052 
L 316.511034 199.359583 
L 318.967904 197.341031 
L 321.266266 196.36228 
L 323.723135 206.167545 
L 326.100751 197.829094 
L 328.557621 204.65062 
L 330.935237 196.734932 
L 333.392106 206.406293 
L 335.848976 202.879424 
L 338.226591 188.636528 
L 340.683461 190.151023 
L 343.061077 187.67192 
L 345.517946 190.963977 
L 347.974816 190.460871 
L 350.193924 188.064299 
L 352.650794 189.759396 
L 355.02841 190.62954 
L 357.485279 193.010711 
L 359.862895 194.743675 
L 362.319764 190.579476 
L 364.776634 187.740716 
L 367.15425 188.515422 
L 369.611119 187.532868 
L 371.988735 190.433128 
L 374.445605 188.771872 
L 376.902474 186.293585 
L 379.121583 185.704632 
L 381.578452 186.911052 
L 383.956068 185.206753 
L 386.412937 184.738013 
L 388.790553 184.672679 
L 391.247423 185.885814 
L 393.704292 184.338798 
L 396.081908 176.884264 
L 398.538778 178.601678 
L 400.916394 178.314498 
L 403.373263 177.739845 
L 405.830133 179.732861 
L 408.049241 179.343366 
L 410.50611 178.508845 
L 412.883726 181.196275 
L 415.340596 177.879905 
L 417.718212 179.437954 
L 420.175081 180.821219 
L 422.631951 178.310059 
L 425.009567 181.378431 
L 427.466436 167.356541 
L 429.844052 166.726468 
L 432.300922 166.247217 
L 434.757791 166.465164 
L 437.056153 166.077373 
L 439.513023 166.728363 
L 441.890638 165.631351 
L 444.347508 167.564266 
L 446.725124 165.730399 
L 449.181993 165.25897 
L 451.638863 165.296078 
L 454.016479 162.287187 
L 456.473348 162.292849 
L 458.850964 161.034374 
L 461.307834 154.291715 
L 463.764703 154.179786 
L 465.983811 153.74481 
L 468.440681 154.791961 
L 470.818297 146.542698 
L 473.275166 139.032971 
L 475.652782 139.213958 
L 478.109652 135.987447 
L 480.566521 137.009486 
L 482.944137 138.813071 
L 485.401007 137.772064 
L 487.778623 136.499524 
L 490.235492 135.693 
L 492.692362 139.893513 
L 494.91147 129.803638 
L 497.368339 120.455504 
L 499.745955 118.575007 
L 502.202825 121.31462 
L 504.580441 120.942593 
L 507.03731 118.677166 
L 509.49418 120.588332 
L 511.871796 123.954567 
L 514.328665 124.060824 
L 516.706281 123.827883 
L 519.163151 118.475003 
L 521.62002 119.629753 
L 523.839128 119.813321 
L 526.295998 116.697222 
L 528.673614 118.460625 
L 531.130483 116.287661 
L 533.508099 114.657831 
L 535.964969 115.250518 
L 538.421838 123.263416 
L 540.799454 133.804823 
L 543.256324 133.66584 
L 545.633939 129.853829 
L 548.090809 129.317396 
L 550.547679 130.946012 
L 552.84604 136.411264 
L 555.30291 132.787484 
L 557.680526 135.615411 
L 560.137395 137.676192 
L 562.515011 132.159053 
L 564.971881 132.337467 
L 567.42875 145.819672 
L 569.806366 146.72015 
L 572.263236 146.007022 
L 574.640852 147.273364 
L 577.097721 162.535334 
L 579.554591 164.962972 
L 581.773699 162.43946 
L 584.230568 170.759503 
L 586.608184 184.317899 
L 589.065054 184.044274 
L 591.44267 181.989143 
L 593.899539 186.511103 
L 596.356409 188.622352 
L 598.734025 189.187 
L 601.190894 184.763244 
L 603.56851 187.734644 
L 606.025379 186.454667 
L 608.482249 187.314232 
L 610.701357 187.596597 
L 613.158227 188.724016 
L 615.535843 187.852795 
L 617.992712 186.030615 
L 620.370328 188.720655 
L 622.827198 192.407746 
L 625.284067 186.924041 
L 627.661683 191.136473 
L 630.118552 192.230124 
L 632.496168 191.368795 
L 634.953038 197.708431 
L 637.409907 196.938655 
L 639.629016 193.205668 
L 642.085885 188.320928 
L 644.463501 188.60873 
L 646.92037 187.664829 
L 649.297986 188.8899 
L 651.754856 188.275012 
L 654.211725 185.570524 
L 656.589341 185.879851 
L 659.046211 192.664667 
L 661.423827 188.787679 
L 663.880696 192.571943 
L 666.337566 197.101632 
L 668.635928 195.375259 
L 671.092797 193.97045 
L 673.470413 191.0736 
L 675.927283 189.562558 
L 678.304898 193.877417 
L 680.761768 190.77962 
L 683.218638 194.392868 
L 685.596253 193.190665 
L 688.053123 192.344976 
L 690.430739 190.258806 
L 692.887608 194.973763 
L 697.563586 187.858266 
L 700.020456 189.581164 
L 702.398071 189.391427 
L 704.854941 195.356966 
L 707.232557 190.366793 
L 709.689426 189.99829 
L 712.146296 189.103181 
L 714.523912 188.758798 
L 716.980781 189.694896 
L 719.358397 194.711368 
L 721.815267 192.429152 
L 724.272136 186.764518 
L 726.491244 185.172081 
L 728.948114 187.188263 
L 731.32573 178.093261 
L 733.782599 174.321609 
L 736.160215 175.976066 
L 738.617085 175.590141 
L 741.073954 175.365225 
L 743.45157 173.39422 
L 745.90844 176.179052 
L 748.286056 174.159748 
L 750.742925 175.05641 
L 753.199795 173.372755 
L 755.418903 176.898206 
L 757.875772 181.13631 
L 760.253388 182.78563 
L 762.710258 179.247329 
L 765.087874 180.221569 
L 767.544743 177.93142 
L 770.001613 173.14534 
L 772.379229 174.869386 
L 774.836098 172.29604 
L 777.213714 178.897654 
L 779.670584 176.695392 
L 782.127453 175.079838 
L 784.425815 174.690892 
L 786.882685 180.481885 
L 789.2603 181.690226 
L 791.71717 181.644342 
L 794.094786 182.669703 
L 796.551655 186.266244 
L 799.008525 184.171516 
L 801.386141 180.311907 
L 803.84301 174.459909 
L 806.220626 168.052432 
L 808.677496 153.071645 
L 811.134365 153.700923 
L 813.353473 153.922124 
L 815.810343 152.439871 
L 818.187959 153.194114 
L 820.644828 152.157212 
L 823.022444 152.105095 
L 825.479314 148.57082 
L 827.936183 145.629172 
L 830.313799 146.077918 
L 835.148285 146.427206 
L 837.605154 147.519247 
L 840.062024 147.462738 
L 842.281132 148.379907 
L 844.738001 148.432832 
L 847.115617 145.655754 
L 849.572487 146.889322 
L 851.950103 147.397947 
L 854.406972 146.803365 
L 856.863842 145.873944 
L 859.241458 146.257886 
L 861.698327 145.382198 
L 864.075943 145.536614 
L 866.532813 144.737311 
L 866.532813 144.737311 
" clip-path="url(#p70a9044e96)" style="fill: none; stroke: #d55e00; stroke-width: 2; stroke-linecap: square"/>
   </g>
   <g id="patch_3">
    <path d="M 29.532813 238.70175 
L 29.532813 16.94175 
" style="fill: none; stroke: #000000; stroke-width: 0.8; stroke-linejoin: miter; stroke-linecap: square"/>
   </g>
   <g id="patch_4">
    <path d="M 29.532812 238.70175 
L 866.532813 238.70175 
" style="fill: none; stroke: #000000; stroke-width: 0.8; stroke-linejoin: miter; stroke-linecap: square"/>
   </g>
   <g id="text_14">
    <!-- 5_Industry_Portfolios - Portfolio Allocation for FM -->
    <g transform="translate(273.870437 10.94175) scale(0.144 -0.144)">
     <defs>
      <path id="DejaVuSans-5f" d="M 3263 -1063 
L 3263 -1509 
L -63 -1509 
L -63 -1063 
L 3263 -1063 
z
" transform="scale(0.015625)"/>
      <path id="DejaVuSans-49" d="M 628 4666 
L 1259 4666 
L 1259 0 
L 628 0 
L 628 4666 
z
" transform="scale(0.015625)"/>
      <path id="DejaVuSans-6e" d="M 3513 2113 
L 3513 0 
L 2938 0 
L 2938 2094 
Q 2938 2591 2744 2837 
Q 2550 3084 2163 3084 
Q 1697 3084 1428 2787 
Q 1159 2491 1159 1978 
L 1159 0 
L 581 0 
L 581 3500 
L 1159 3500 
L 1159 2956 
Q 1366 3272 1645 3428 
Q 1925 3584 2291 3584 
Q 2894 3584 3203 3211 
Q 3513 2838 3513 2113 
z
" transform="scale(0.015625)"/>
      <path id="DejaVuSans-64" d="M 2906 2969 
L 2906 4863 
L 3481 4863 
L 3481 0 
L 2906 0 
L 2906 525 
Q 2725 213 2448 61 
Q 2172 -91 1784 -91 
Q 1150 -91 751 415 
Q 353 922 353 1747 
Q 353 2572 751 3078 
Q 1150 3584 1784 3584 
Q 2172 3584 2448 3432 
Q 2725 3281 2906 2969 
z
M 947 1747 
Q 947 1113 1208 752 
Q 1469 391 1925 391 
Q 2381 391 2643 752 
Q 2906 1113 2906 1747 
Q 2906 2381 2643 2742 
Q 2381 3103 1925 3103 
Q 1469 3103 1208 2742 
Q 947 2381 947 1747 
z
" transform="scale(0.015625)"/>
      <path id="DejaVuSans-75" d="M 544 1381 
L 544 3500 
L 1119 3500 
L 1119 1403 
Q 1119 906 1312 657 
Q 1506 409 1894 409 
Q 2359 409 2629 706 
Q 2900 1003 2900 1516 
L 2900 3500 
L 3475 3500 
L 3475 0 
L 2900 0 
L 2900 538 
Q 2691 219 2414 64 
Q 2138 -91 1772 -91 
Q 1169 -91 856 284 
Q 544 659 544 1381 
z
M 1991 3584 
L 1991 3584 
z
" transform="scale(0.015625)"/>
      <path id="DejaVuSans-73" d="M 2834 3397 
L 2834 2853 
Q 2591 2978 2328 3040 
Q 2066 3103 1784 3103 
Q 1356 3103 1142 2972 
Q 928 2841 928 2578 
Q 928 2378 1081 2264 
Q 1234 2150 1697 2047 
L 1894 2003 
Q 2506 1872 2764 1633 
Q 3022 1394 3022 966 
Q 3022 478 2636 193 
Q 2250 -91 1575 -91 
Q 1294 -91 989 -36 
Q 684 19 347 128 
L 347 722 
Q 666 556 975 473 
Q 1284 391 1588 391 
Q 1994 391 2212 530 
Q 2431 669 2431 922 
Q 2431 1156 2273 1281 
Q 2116 1406 1581 1522 
L 1381 1569 
Q 847 1681 609 1914 
Q 372 2147 372 2553 
Q 372 3047 722 3315 
Q 1072 3584 1716 3584 
Q 2034 3584 2315 3537 
Q 2597 3491 2834 3397 
z
" transform="scale(0.015625)"/>
      <path id="DejaVuSans-74" d="M 1172 4494 
L 1172 3500 
L 2356 3500 
L 2356 3053 
L 1172 3053 
L 1172 1153 
Q 1172 725 1289 603 
Q 1406 481 1766 481 
L 2356 481 
L 2356 0 
L 1766 0 
Q 1100 0 847 248 
Q 594 497 594 1153 
L 594 3053 
L 172 3053 
L 172 3500 
L 594 3500 
L 594 4494 
L 1172 4494 
z
" transform="scale(0.015625)"/>
      <path id="DejaVuSans-72" d="M 2631 2963 
Q 2534 3019 2420 3045 
Q 2306 3072 2169 3072 
Q 1681 3072 1420 2755 
Q 1159 2438 1159 1844 
L 1159 0 
L 581 0 
L 581 3500 
L 1159 3500 
L 1159 2956 
Q 1341 3275 1631 3429 
Q 1922 3584 2338 3584 
Q 2397 3584 2469 3576 
Q 2541 3569 2628 3553 
L 2631 2963 
z
" transform="scale(0.015625)"/>
      <path id="DejaVuSans-79" d="M 2059 -325 
Q 1816 -950 1584 -1140 
Q 1353 -1331 966 -1331 
L 506 -1331 
L 506 -850 
L 844 -850 
Q 1081 -850 1212 -737 
Q 1344 -625 1503 -206 
L 1606 56 
L 191 3500 
L 800 3500 
L 1894 763 
L 2988 3500 
L 3597 3500 
L 2059 -325 
z
" transform="scale(0.015625)"/>
      <path id="DejaVuSans-50" d="M 1259 4147 
L 1259 2394 
L 2053 2394 
Q 2494 2394 2734 2622 
Q 2975 2850 2975 3272 
Q 2975 3691 2734 3919 
Q 2494 4147 2053 4147 
L 1259 4147 
z
M 628 4666 
L 2053 4666 
Q 2838 4666 3239 4311 
Q 3641 3956 3641 3272 
Q 3641 2581 3239 2228 
Q 2838 1875 2053 1875 
L 1259 1875 
L 1259 0 
L 628 0 
L 628 4666 
z
" transform="scale(0.015625)"/>
      <path id="DejaVuSans-6f" d="M 1959 3097 
Q 1497 3097 1228 2736 
Q 959 2375 959 1747 
Q 959 1119 1226 758 
Q 1494 397 1959 397 
Q 2419 397 2687 759 
Q 2956 1122 2956 1747 
Q 2956 2369 2687 2733 
Q 2419 3097 1959 3097 
z
M 1959 3584 
Q 2709 3584 3137 3096 
Q 3566 2609 3566 1747 
Q 3566 888 3137 398 
Q 2709 -91 1959 -91 
Q 1206 -91 779 398 
Q 353 888 353 1747 
Q 353 2609 779 3096 
Q 1206 3584 1959 3584 
z
" transform="scale(0.015625)"/>
      <path id="DejaVuSans-66" d="M 2375 4863 
L 2375 4384 
L 1825 4384 
Q 1516 4384 1395 4259 
Q 1275 4134 1275 3809 
L 1275 3500 
L 2222 3500 
L 2222 3053 
L 1275 3053 
L 1275 0 
L 697 0 
L 697 3053 
L 147 3053 
L 147 3500 
L 697 3500 
L 697 3744 
Q 697 4328 969 4595 
Q 1241 4863 1831 4863 
L 2375 4863 
z
" transform="scale(0.015625)"/>
      <path id="DejaVuSans-6c" d="M 603 4863 
L 1178 4863 
L 1178 0 
L 603 0 
L 603 4863 
z
" transform="scale(0.015625)"/>
      <path id="DejaVuSans-69" d="M 603 3500 
L 1178 3500 
L 1178 0 
L 603 0 
L 603 3500 
z
M 603 4863 
L 1178 4863 
L 1178 4134 
L 603 4134 
L 603 4863 
z
" transform="scale(0.015625)"/>
      <path id="DejaVuSans-20" transform="scale(0.015625)"/>
      <path id="DejaVuSans-2d" d="M 313 2009 
L 1997 2009 
L 1997 1497 
L 313 1497 
L 313 2009 
z
" transform="scale(0.015625)"/>
      <path id="DejaVuSans-41" d="M 2188 4044 
L 1331 1722 
L 3047 1722 
L 2188 4044 
z
M 1831 4666 
L 2547 4666 
L 4325 0 
L 3669 0 
L 3244 1197 
L 1141 1197 
L 716 0 
L 50 0 
L 1831 4666 
z
" transform="scale(0.015625)"/>
      <path id="DejaVuSans-63" d="M 3122 3366 
L 3122 2828 
Q 2878 2963 2633 3030 
Q 2388 3097 2138 3097 
Q 1578 3097 1268 2742 
Q 959 2388 959 1747 
Q 959 1106 1268 751 
Q 1578 397 2138 397 
Q 2388 397 2633 464 
Q 2878 531 3122 666 
L 3122 134 
Q 2881 22 2623 -34 
Q 2366 -91 2075 -91 
Q 1284 -91 818 406 
Q 353 903 353 1747 
Q 353 2603 823 3093 
Q 1294 3584 2113 3584 
Q 2378 3584 2631 3529 
Q 2884 3475 3122 3366 
z
" transform="scale(0.015625)"/>
      <path id="DejaVuSans-61" d="M 2194 1759 
Q 1497 1759 1228 1600 
Q 959 1441 959 1056 
Q 959 750 1161 570 
Q 1363 391 1709 391 
Q 2188 391 2477 730 
Q 2766 1069 2766 1631 
L 2766 1759 
L 2194 1759 
z
M 3341 1997 
L 3341 0 
L 2766 0 
L 2766 531 
Q 2569 213 2275 61 
Q 1981 -91 1556 -91 
Q 1019 -91 701 211 
Q 384 513 384 1019 
Q 384 1609 779 1909 
Q 1175 2209 1959 2209 
L 2766 2209 
L 2766 2266 
Q 2766 2663 2505 2880 
Q 2244 3097 1772 3097 
Q 1472 3097 1187 3025 
Q 903 2953 641 2809 
L 641 3341 
Q 956 3463 1253 3523 
Q 1550 3584 1831 3584 
Q 2591 3584 2966 3190 
Q 3341 2797 3341 1997 
z
" transform="scale(0.015625)"/>
      <path id="DejaVuSans-46" d="M 628 4666 
L 3309 4666 
L 3309 4134 
L 1259 4134 
L 1259 2759 
L 3109 2759 
L 3109 2228 
L 1259 2228 
L 1259 0 
L 628 0 
L 628 4666 
z
" transform="scale(0.015625)"/>
      <path id="DejaVuSans-4d" d="M 628 4666 
L 1569 4666 
L 2759 1491 
L 3956 4666 
L 4897 4666 
L 4897 0 
L 4281 0 
L 4281 4097 
L 3078 897 
L 2444 897 
L 1241 4097 
L 1241 0 
L 628 0 
L 628 4666 
z
" transform="scale(0.015625)"/>
     </defs>
     <use xlink:href="#DejaVuSans-35"/>
     <use xlink:href="#DejaVuSans-5f" x="63.623047"/>
     <use xlink:href="#DejaVuSans-49" x="113.623047"/>
     <use xlink:href="#DejaVuSans-6e" x="143.115234"/>
     <use xlink:href="#DejaVuSans-64" x="206.494141"/>
     <use xlink:href="#DejaVuSans-75" x="269.970703"/>
     <use xlink:href="#DejaVuSans-73" x="333.349609"/>
     <use xlink:href="#DejaVuSans-74" x="385.449219"/>
     <use xlink:href="#DejaVuSans-72" x="424.658203"/>
     <use xlink:href="#DejaVuSans-79" x="465.771484"/>
     <use xlink:href="#DejaVuSans-5f" x="524.951172"/>
     <use xlink:href="#DejaVuSans-50" x="574.951172"/>
     <use xlink:href="#DejaVuSans-6f" x="631.628906"/>
     <use xlink:href="#DejaVuSans-72" x="692.810547"/>
     <use xlink:href="#DejaVuSans-74" x="733.923828"/>
     <use xlink:href="#DejaVuSans-66" x="773.132812"/>
     <use xlink:href="#DejaVuSans-6f" x="808.337891"/>
     <use xlink:href="#DejaVuSans-6c" x="869.519531"/>
     <use xlink:href="#DejaVuSans-69" x="897.302734"/>
     <use xlink:href="#DejaVuSans-6f" x="925.085938"/>
     <use xlink:href="#DejaVuSans-73" x="986.267578"/>
     <use xlink:href="#DejaVuSans-20" x="1038.367188"/>
     <use xlink:href="#DejaVuSans-2d" x="1070.154297"/>
     <use xlink:href="#DejaVuSans-20" x="1106.238281"/>
     <use xlink:href="#DejaVuSans-50" x="1138.025391"/>
     <use xlink:href="#DejaVuSans-6f" x="1194.703125"/>
     <use xlink:href="#DejaVuSans-72" x="1255.884766"/>
     <use xlink:href="#DejaVuSans-74" x="1296.998047"/>
     <use xlink:href="#DejaVuSans-66" x="1336.207031"/>
     <use xlink:href="#DejaVuSans-6f" x="1371.412109"/>
     <use xlink:href="#DejaVuSans-6c" x="1432.59375"/>
     <use xlink:href="#DejaVuSans-69" x="1460.376953"/>
     <use xlink:href="#DejaVuSans-6f" x="1488.160156"/>
     <use xlink:href="#DejaVuSans-20" x="1549.341797"/>
     <use xlink:href="#DejaVuSans-41" x="1581.128906"/>
     <use xlink:href="#DejaVuSans-6c" x="1649.537109"/>
     <use xlink:href="#DejaVuSans-6c" x="1677.320312"/>
     <use xlink:href="#DejaVuSans-6f" x="1705.103516"/>
     <use xlink:href="#DejaVuSans-63" x="1766.285156"/>
     <use xlink:href="#DejaVuSans-61" x="1821.265625"/>
     <use xlink:href="#DejaVuSans-74" x="1882.544922"/>
     <use xlink:href="#DejaVuSans-69" x="1921.753906"/>
     <use xlink:href="#DejaVuSans-6f" x="1949.537109"/>
     <use xlink:href="#DejaVuSans-6e" x="2010.71875"/>
     <use xlink:href="#DejaVuSans-20" x="2074.097656"/>
     <use xlink:href="#DejaVuSans-66" x="2105.884766"/>
     <use xlink:href="#DejaVuSans-6f" x="2141.089844"/>
     <use xlink:href="#DejaVuSans-72" x="2202.271484"/>
     <use xlink:href="#DejaVuSans-20" x="2243.384766"/>
     <use xlink:href="#DejaVuSans-46" x="2275.171875"/>
     <use xlink:href="#DejaVuSans-4d" x="2332.691406"/>
    </g>
   </g>
  </g>
 </g>
 <defs>
  <clipPath id="p70a9044e96">
   <rect x="29.532813" y="16.94175" width="837" height="221.76"/>
  </clipPath>
 </defs>
</svg>
