<?xml version="1.0" encoding="utf-8" standalone="no"?>
<!DOCTYPE svg PUBLIC "-//W3C//DTD SVG 1.1//EN"
  "http://www.w3.org/Graphics/SVG/1.1/DTD/svg11.dtd">
<svg xmlns:xlink="http://www.w3.org/1999/xlink" width="866.532812pt" height="253.629875pt" viewBox="0 0 866.532812 253.629875" xmlns="http://www.w3.org/2000/svg" version="1.1">
 <metadata>
  <rdf:RDF xmlns:dc="http://purl.org/dc/elements/1.1/" xmlns:cc="http://creativecommons.org/ns#" xmlns:rdf="http://www.w3.org/1999/02/22-rdf-syntax-ns#">
   <cc:Work>
    <dc:type rdf:resource="http://purl.org/dc/dcmitype/StillImage"/>
    <dc:date>2025-08-06T21:52:45.307347</dc:date>
    <dc:format>image/svg+xml</dc:format>
    <dc:creator>
     <cc:Agent>
      <dc:title>Matplotlib v3.9.2, https://matplotlib.org/</dc:title>
     </cc:Agent>
    </dc:creator>
   </cc:Work>
  </rdf:RDF>
 </metadata>
 <defs>
  <style type="text/css">*{stroke-linejoin: round; stroke-linecap: butt}</style>
 </defs>
 <g id="figure_1">
  <g id="patch_1">
   <path d="M 0 253.629875 
L 866.532812 253.629875 
L 866.532812 0 
L 0 0 
z
" style="fill: #ffffff"/>
  </g>
  <g id="axes_1">
   <g id="patch_2">
    <path d="M 29.532813 238.70175 
L 866.532812 238.70175 
L 866.532812 16.94175 
L 29.532813 16.94175 
z
" style="fill: #ffffff"/>
   </g>
   <g id="matplotlib.axis_1">
    <g id="xtick_1">
     <g id="line2d_1">
      <defs>
       <path id="m4f20a49d21" d="M 0 1.75 
L 0 -1.75 
" style="stroke: #000000; stroke-width: 0.8"/>
      </defs>
      <g>
       <use xlink:href="#m4f20a49d21" x="85.010513" y="238.70175" style="stroke: #000000; stroke-width: 0.8"/>
      </g>
     </g>
     <g id="text_1">
      <!-- 1992 -->
      <g transform="translate(72.285513 251.550188) scale(0.1 -0.1)">
       <defs>
        <path id="DejaVuSans-31" d="M 794 531 
L 1825 531 
L 1825 4091 
L 703 3866 
L 703 4441 
L 1819 4666 
L 2450 4666 
L 2450 531 
L 3481 531 
L 3481 0 
L 794 0 
L 794 531 
z
" transform="scale(0.015625)"/>
        <path id="DejaVuSans-39" d="M 703 97 
L 703 672 
Q 941 559 1184 500 
Q 1428 441 1663 441 
Q 2288 441 2617 861 
Q 2947 1281 2994 2138 
Q 2813 1869 2534 1725 
Q 2256 1581 1919 1581 
Q 1219 1581 811 2004 
Q 403 2428 403 3163 
Q 403 3881 828 4315 
Q 1253 4750 1959 4750 
Q 2769 4750 3195 4129 
Q 3622 3509 3622 2328 
Q 3622 1225 3098 567 
Q 2575 -91 1691 -91 
Q 1453 -91 1209 -44 
Q 966 3 703 97 
z
M 1959 2075 
Q 2384 2075 2632 2365 
Q 2881 2656 2881 3163 
Q 2881 3666 2632 3958 
Q 2384 4250 1959 4250 
Q 1534 4250 1286 3958 
Q 1038 3666 1038 3163 
Q 1038 2656 1286 2365 
Q 1534 2075 1959 2075 
z
" transform="scale(0.015625)"/>
        <path id="DejaVuSans-32" d="M 1228 531 
L 3431 531 
L 3431 0 
L 469 0 
L 469 531 
Q 828 903 1448 1529 
Q 2069 2156 2228 2338 
Q 2531 2678 2651 2914 
Q 2772 3150 2772 3378 
Q 2772 3750 2511 3984 
Q 2250 4219 1831 4219 
Q 1534 4219 1204 4116 
Q 875 4013 500 3803 
L 500 4441 
Q 881 4594 1212 4672 
Q 1544 4750 1819 4750 
Q 2544 4750 2975 4387 
Q 3406 4025 3406 3419 
Q 3406 3131 3298 2873 
Q 3191 2616 2906 2266 
Q 2828 2175 2409 1742 
Q 1991 1309 1228 531 
z
" transform="scale(0.015625)"/>
       </defs>
       <use xlink:href="#DejaVuSans-31"/>
       <use xlink:href="#DejaVuSans-39" x="63.623047"/>
       <use xlink:href="#DejaVuSans-39" x="127.246094"/>
       <use xlink:href="#DejaVuSans-32" x="190.869141"/>
      </g>
     </g>
    </g>
    <g id="xtick_2">
     <g id="line2d_2">
      <g>
       <use xlink:href="#m4f20a49d21" x="200.800401" y="238.70175" style="stroke: #000000; stroke-width: 0.8"/>
      </g>
     </g>
     <g id="text_2">
      <!-- 1996 -->
      <g transform="translate(188.075401 251.550188) scale(0.1 -0.1)">
       <defs>
        <path id="DejaVuSans-36" d="M 2113 2584 
Q 1688 2584 1439 2293 
Q 1191 2003 1191 1497 
Q 1191 994 1439 701 
Q 1688 409 2113 409 
Q 2538 409 2786 701 
Q 3034 994 3034 1497 
Q 3034 2003 2786 2293 
Q 2538 2584 2113 2584 
z
M 3366 4563 
L 3366 3988 
Q 3128 4100 2886 4159 
Q 2644 4219 2406 4219 
Q 1781 4219 1451 3797 
Q 1122 3375 1075 2522 
Q 1259 2794 1537 2939 
Q 1816 3084 2150 3084 
Q 2853 3084 3261 2657 
Q 3669 2231 3669 1497 
Q 3669 778 3244 343 
Q 2819 -91 2113 -91 
Q 1303 -91 875 529 
Q 447 1150 447 2328 
Q 447 3434 972 4092 
Q 1497 4750 2381 4750 
Q 2619 4750 2861 4703 
Q 3103 4656 3366 4563 
z
" transform="scale(0.015625)"/>
       </defs>
       <use xlink:href="#DejaVuSans-31"/>
       <use xlink:href="#DejaVuSans-39" x="63.623047"/>
       <use xlink:href="#DejaVuSans-39" x="127.246094"/>
       <use xlink:href="#DejaVuSans-36" x="190.869141"/>
      </g>
     </g>
    </g>
    <g id="xtick_3">
     <g id="line2d_3">
      <g>
       <use xlink:href="#m4f20a49d21" x="316.590288" y="238.70175" style="stroke: #000000; stroke-width: 0.8"/>
      </g>
     </g>
     <g id="text_3">
      <!-- 2000 -->
      <g transform="translate(303.865288 251.550188) scale(0.1 -0.1)">
       <defs>
        <path id="DejaVuSans-30" d="M 2034 4250 
Q 1547 4250 1301 3770 
Q 1056 3291 1056 2328 
Q 1056 1369 1301 889 
Q 1547 409 2034 409 
Q 2525 409 2770 889 
Q 3016 1369 3016 2328 
Q 3016 3291 2770 3770 
Q 2525 4250 2034 4250 
z
M 2034 4750 
Q 2819 4750 3233 4129 
Q 3647 3509 3647 2328 
Q 3647 1150 3233 529 
Q 2819 -91 2034 -91 
Q 1250 -91 836 529 
Q 422 1150 422 2328 
Q 422 3509 836 4129 
Q 1250 4750 2034 4750 
z
" transform="scale(0.015625)"/>
       </defs>
       <use xlink:href="#DejaVuSans-32"/>
       <use xlink:href="#DejaVuSans-30" x="63.623047"/>
       <use xlink:href="#DejaVuSans-30" x="127.246094"/>
       <use xlink:href="#DejaVuSans-30" x="190.869141"/>
      </g>
     </g>
    </g>
    <g id="xtick_4">
     <g id="line2d_4">
      <g>
       <use xlink:href="#m4f20a49d21" x="432.380175" y="238.70175" style="stroke: #000000; stroke-width: 0.8"/>
      </g>
     </g>
     <g id="text_4">
      <!-- 2004 -->
      <g transform="translate(419.655175 251.550188) scale(0.1 -0.1)">
       <defs>
        <path id="DejaVuSans-34" d="M 2419 4116 
L 825 1625 
L 2419 1625 
L 2419 4116 
z
M 2253 4666 
L 3047 4666 
L 3047 1625 
L 3713 1625 
L 3713 1100 
L 3047 1100 
L 3047 0 
L 2419 0 
L 2419 1100 
L 313 1100 
L 313 1709 
L 2253 4666 
z
" transform="scale(0.015625)"/>
       </defs>
       <use xlink:href="#DejaVuSans-32"/>
       <use xlink:href="#DejaVuSans-30" x="63.623047"/>
       <use xlink:href="#DejaVuSans-30" x="127.246094"/>
       <use xlink:href="#DejaVuSans-34" x="190.869141"/>
      </g>
     </g>
    </g>
    <g id="xtick_5">
     <g id="line2d_5">
      <g>
       <use xlink:href="#m4f20a49d21" x="548.170063" y="238.70175" style="stroke: #000000; stroke-width: 0.8"/>
      </g>
     </g>
     <g id="text_5">
      <!-- 2008 -->
      <g transform="translate(535.445063 251.550188) scale(0.1 -0.1)">
       <defs>
        <path id="DejaVuSans-38" d="M 2034 2216 
Q 1584 2216 1326 1975 
Q 1069 1734 1069 1313 
Q 1069 891 1326 650 
Q 1584 409 2034 409 
Q 2484 409 2743 651 
Q 3003 894 3003 1313 
Q 3003 1734 2745 1975 
Q 2488 2216 2034 2216 
z
M 1403 2484 
Q 997 2584 770 2862 
Q 544 3141 544 3541 
Q 544 4100 942 4425 
Q 1341 4750 2034 4750 
Q 2731 4750 3128 4425 
Q 3525 4100 3525 3541 
Q 3525 3141 3298 2862 
Q 3072 2584 2669 2484 
Q 3125 2378 3379 2068 
Q 3634 1759 3634 1313 
Q 3634 634 3220 271 
Q 2806 -91 2034 -91 
Q 1263 -91 848 271 
Q 434 634 434 1313 
Q 434 1759 690 2068 
Q 947 2378 1403 2484 
z
M 1172 3481 
Q 1172 3119 1398 2916 
Q 1625 2713 2034 2713 
Q 2441 2713 2670 2916 
Q 2900 3119 2900 3481 
Q 2900 3844 2670 4047 
Q 2441 4250 2034 4250 
Q 1625 4250 1398 4047 
Q 1172 3844 1172 3481 
z
" transform="scale(0.015625)"/>
       </defs>
       <use xlink:href="#DejaVuSans-32"/>
       <use xlink:href="#DejaVuSans-30" x="63.623047"/>
       <use xlink:href="#DejaVuSans-30" x="127.246094"/>
       <use xlink:href="#DejaVuSans-38" x="190.869141"/>
      </g>
     </g>
    </g>
    <g id="xtick_6">
     <g id="line2d_6">
      <g>
       <use xlink:href="#m4f20a49d21" x="663.95995" y="238.70175" style="stroke: #000000; stroke-width: 0.8"/>
      </g>
     </g>
     <g id="text_6">
      <!-- 2012 -->
      <g transform="translate(651.23495 251.550188) scale(0.1 -0.1)">
       <use xlink:href="#DejaVuSans-32"/>
       <use xlink:href="#DejaVuSans-30" x="63.623047"/>
       <use xlink:href="#DejaVuSans-31" x="127.246094"/>
       <use xlink:href="#DejaVuSans-32" x="190.869141"/>
      </g>
     </g>
    </g>
    <g id="xtick_7">
     <g id="line2d_7">
      <g>
       <use xlink:href="#m4f20a49d21" x="779.749837" y="238.70175" style="stroke: #000000; stroke-width: 0.8"/>
      </g>
     </g>
     <g id="text_7">
      <!-- 2016 -->
      <g transform="translate(767.024837 251.550188) scale(0.1 -0.1)">
       <use xlink:href="#DejaVuSans-32"/>
       <use xlink:href="#DejaVuSans-30" x="63.623047"/>
       <use xlink:href="#DejaVuSans-31" x="127.246094"/>
       <use xlink:href="#DejaVuSans-36" x="190.869141"/>
      </g>
     </g>
    </g>
   </g>
   <g id="matplotlib.axis_2">
    <g id="ytick_1">
     <g id="line2d_8">
      <path d="M 29.532813 218.003273 
L 866.532812 218.003273 
" clip-path="url(#p9a64d55aba)" style="fill: none; stroke-dasharray: 1.85,0.8; stroke-dashoffset: 0; stroke: #b2b2b2; stroke-width: 0.5"/>
     </g>
     <g id="line2d_9">
      <defs>
       <path id="md3fac40195" d="M 1.75 0 
L -1.75 -0 
" style="stroke: #000000; stroke-width: 0.8"/>
      </defs>
      <g>
       <use xlink:href="#md3fac40195" x="29.532813" y="218.003273" style="stroke: #000000; stroke-width: 0.8"/>
      </g>
     </g>
     <g id="text_8">
      <!-- −1.0 -->
      <g transform="translate(0 221.802492) scale(0.1 -0.1)">
       <defs>
        <path id="DejaVuSans-2212" d="M 678 2272 
L 4684 2272 
L 4684 1741 
L 678 1741 
L 678 2272 
z
" transform="scale(0.015625)"/>
        <path id="DejaVuSans-2e" d="M 684 794 
L 1344 794 
L 1344 0 
L 684 0 
L 684 794 
z
" transform="scale(0.015625)"/>
       </defs>
       <use xlink:href="#DejaVuSans-2212"/>
       <use xlink:href="#DejaVuSans-31" x="83.789062"/>
       <use xlink:href="#DejaVuSans-2e" x="147.412109"/>
       <use xlink:href="#DejaVuSans-30" x="179.199219"/>
      </g>
     </g>
    </g>
    <g id="ytick_2">
     <g id="line2d_10">
      <path d="M 29.532813 187.099512 
L 866.532812 187.099512 
" clip-path="url(#p9a64d55aba)" style="fill: none; stroke-dasharray: 1.85,0.8; stroke-dashoffset: 0; stroke: #b2b2b2; stroke-width: 0.5"/>
     </g>
     <g id="line2d_11">
      <g>
       <use xlink:href="#md3fac40195" x="29.532813" y="187.099512" style="stroke: #000000; stroke-width: 0.8"/>
      </g>
     </g>
     <g id="text_9">
      <!-- −0.5 -->
      <g transform="translate(0 190.89873) scale(0.1 -0.1)">
       <defs>
        <path id="DejaVuSans-35" d="M 691 4666 
L 3169 4666 
L 3169 4134 
L 1269 4134 
L 1269 2991 
Q 1406 3038 1543 3061 
Q 1681 3084 1819 3084 
Q 2600 3084 3056 2656 
Q 3513 2228 3513 1497 
Q 3513 744 3044 326 
Q 2575 -91 1722 -91 
Q 1428 -91 1123 -41 
Q 819 9 494 109 
L 494 744 
Q 775 591 1075 516 
Q 1375 441 1709 441 
Q 2250 441 2565 725 
Q 2881 1009 2881 1497 
Q 2881 1984 2565 2268 
Q 2250 2553 1709 2553 
Q 1456 2553 1204 2497 
Q 953 2441 691 2322 
L 691 4666 
z
" transform="scale(0.015625)"/>
       </defs>
       <use xlink:href="#DejaVuSans-2212"/>
       <use xlink:href="#DejaVuSans-30" x="83.789062"/>
       <use xlink:href="#DejaVuSans-2e" x="147.412109"/>
       <use xlink:href="#DejaVuSans-35" x="179.199219"/>
      </g>
     </g>
    </g>
    <g id="ytick_3">
     <g id="line2d_12">
      <path d="M 29.532813 156.19575 
L 866.532812 156.19575 
" clip-path="url(#p9a64d55aba)" style="fill: none; stroke-dasharray: 1.85,0.8; stroke-dashoffset: 0; stroke: #b2b2b2; stroke-width: 0.5"/>
     </g>
     <g id="line2d_13">
      <g>
       <use xlink:href="#md3fac40195" x="29.532813" y="156.19575" style="stroke: #000000; stroke-width: 0.8"/>
      </g>
     </g>
     <g id="text_10">
      <!-- 0.0 -->
      <g transform="translate(8.379688 159.994969) scale(0.1 -0.1)">
       <use xlink:href="#DejaVuSans-30"/>
       <use xlink:href="#DejaVuSans-2e" x="63.623047"/>
       <use xlink:href="#DejaVuSans-30" x="95.410156"/>
      </g>
     </g>
    </g>
    <g id="ytick_4">
     <g id="line2d_14">
      <path d="M 29.532813 125.291989 
L 866.532812 125.291989 
" clip-path="url(#p9a64d55aba)" style="fill: none; stroke-dasharray: 1.85,0.8; stroke-dashoffset: 0; stroke: #b2b2b2; stroke-width: 0.5"/>
     </g>
     <g id="line2d_15">
      <g>
       <use xlink:href="#md3fac40195" x="29.532813" y="125.291989" style="stroke: #000000; stroke-width: 0.8"/>
      </g>
     </g>
     <g id="text_11">
      <!-- 0.5 -->
      <g transform="translate(8.379688 129.091207) scale(0.1 -0.1)">
       <use xlink:href="#DejaVuSans-30"/>
       <use xlink:href="#DejaVuSans-2e" x="63.623047"/>
       <use xlink:href="#DejaVuSans-35" x="95.410156"/>
      </g>
     </g>
    </g>
    <g id="ytick_5">
     <g id="line2d_16">
      <path d="M 29.532813 94.388227 
L 866.532812 94.388227 
" clip-path="url(#p9a64d55aba)" style="fill: none; stroke-dasharray: 1.85,0.8; stroke-dashoffset: 0; stroke: #b2b2b2; stroke-width: 0.5"/>
     </g>
     <g id="line2d_17">
      <g>
       <use xlink:href="#md3fac40195" x="29.532813" y="94.388227" style="stroke: #000000; stroke-width: 0.8"/>
      </g>
     </g>
     <g id="text_12">
      <!-- 1.0 -->
      <g transform="translate(8.379688 98.187446) scale(0.1 -0.1)">
       <use xlink:href="#DejaVuSans-31"/>
       <use xlink:href="#DejaVuSans-2e" x="63.623047"/>
       <use xlink:href="#DejaVuSans-30" x="95.410156"/>
      </g>
     </g>
    </g>
    <g id="ytick_6">
     <g id="line2d_18">
      <path d="M 29.532813 63.484466 
L 866.532812 63.484466 
" clip-path="url(#p9a64d55aba)" style="fill: none; stroke-dasharray: 1.85,0.8; stroke-dashoffset: 0; stroke: #b2b2b2; stroke-width: 0.5"/>
     </g>
     <g id="line2d_19">
      <g>
       <use xlink:href="#md3fac40195" x="29.532813" y="63.484466" style="stroke: #000000; stroke-width: 0.8"/>
      </g>
     </g>
     <g id="text_13">
      <!-- 1.5 -->
      <g transform="translate(8.379688 67.283684) scale(0.1 -0.1)">
       <use xlink:href="#DejaVuSans-31"/>
       <use xlink:href="#DejaVuSans-2e" x="63.623047"/>
       <use xlink:href="#DejaVuSans-35" x="95.410156"/>
      </g>
     </g>
    </g>
    <g id="ytick_7">
     <g id="line2d_20">
      <path d="M 29.532813 32.580704 
L 866.532812 32.580704 
" clip-path="url(#p9a64d55aba)" style="fill: none; stroke-dasharray: 1.85,0.8; stroke-dashoffset: 0; stroke: #b2b2b2; stroke-width: 0.5"/>
     </g>
     <g id="line2d_21">
      <g>
       <use xlink:href="#md3fac40195" x="29.532813" y="32.580704" style="stroke: #000000; stroke-width: 0.8"/>
      </g>
     </g>
     <g id="text_14">
      <!-- 2.0 -->
      <g transform="translate(8.379688 36.379923) scale(0.1 -0.1)">
       <use xlink:href="#DejaVuSans-32"/>
       <use xlink:href="#DejaVuSans-2e" x="63.623047"/>
       <use xlink:href="#DejaVuSans-30" x="95.410156"/>
      </g>
     </g>
    </g>
   </g>
   <g id="line2d_22">
    <path d="M 29.532812 229.125568 
L 31.751921 230.742855 
L 34.20879 235.18119 
L 36.586406 235.052482 
L 41.420891 233.33927 
L 43.877761 223.157144 
L 46.334631 224.233774 
L 48.712246 219.8066 
L 51.169116 224.327033 
L 53.546732 232.911737 
L 56.003601 231.115827 
L 58.460471 233.345217 
L 60.679579 232.753442 
L 63.136449 231.31697 
L 65.514064 221.290178 
L 67.970934 225.572161 
L 70.34855 218.307114 
L 72.805419 219.199956 
L 75.262289 221.744968 
L 77.639905 214.792086 
L 80.096774 229.638732 
L 82.47439 238.70175 
L 84.93126 232.592966 
L 87.388129 217.709346 
L 89.686491 216.658793 
L 92.143361 205.898632 
L 94.520976 200.949111 
L 96.977846 201.939663 
L 99.355462 201.962852 
L 101.812331 200.617922 
L 104.269201 199.922461 
L 106.646817 198.286935 
L 109.103686 198.998721 
L 111.481302 200.9913 
L 113.938172 177.656787 
L 116.395041 175.203808 
L 118.614149 168.918138 
L 121.071019 170.864038 
L 123.448635 164.137612 
L 125.905504 163.736315 
L 128.28312 161.524407 
L 130.73999 161.932516 
L 133.196859 160.870089 
L 135.574475 161.356828 
L 138.031345 160.066622 
L 140.408961 159.808997 
L 142.86583 156.661422 
L 145.3227 154.807588 
L 149.998677 154.120991 
L 152.376293 151.461333 
L 154.833163 151.122243 
L 157.210779 151.962326 
L 159.667648 149.919346 
L 162.124518 148.829165 
L 164.502134 146.058628 
L 166.959003 145.83578 
L 169.336619 145.934852 
L 171.793489 145.193638 
L 174.250358 145.901208 
L 176.469466 147.338181 
L 178.926336 146.040938 
L 181.303952 145.175624 
L 183.760821 142.696176 
L 186.138437 142.223732 
L 188.595307 144.162636 
L 191.052176 143.80708 
L 193.429792 144.391628 
L 195.886662 143.280328 
L 198.264277 140.696375 
L 200.721147 139.713453 
L 203.178017 140.181923 
L 205.476378 139.338576 
L 207.933248 138.828867 
L 210.310864 137.244228 
L 212.767733 135.097974 
L 215.145349 136.757827 
L 217.602219 135.638302 
L 220.059088 135.622711 
L 222.436704 135.199005 
L 224.893574 134.212596 
L 227.27119 129.055571 
L 229.728059 129.263229 
L 232.184929 126.986919 
L 234.404037 119.834355 
L 236.860906 119.263082 
L 239.238522 119.506985 
L 241.695392 119.600537 
L 244.073008 121.214395 
L 246.529877 118.219053 
L 248.986747 118.619071 
L 251.364363 116.779978 
L 256.198848 116.635398 
L 258.655718 116.051503 
L 261.112587 116.284402 
L 263.331695 117.096862 
L 265.788565 116.626019 
L 268.166181 119.840393 
L 270.62305 121.063014 
L 273.000666 115.699934 
L 275.457536 116.978401 
L 277.914405 123.104435 
L 280.292021 117.397202 
L 282.748891 118.313971 
L 285.126506 116.722198 
L 287.583376 118.226539 
L 292.259354 124.213478 
L 294.716223 126.92814 
L 297.093839 129.364161 
L 299.550709 122.975657 
L 301.928324 113.805623 
L 306.842064 116.327198 
L 309.219679 114.523104 
L 311.676549 116.737583 
L 314.054165 116.384684 
L 316.511034 118.693979 
L 318.967904 121.26375 
L 321.266266 118.210077 
L 323.723135 121.127944 
L 326.100751 128.622477 
L 328.557621 128.886993 
L 330.935237 128.970731 
L 333.392106 128.569337 
L 335.848976 130.007304 
L 338.226591 128.18486 
L 340.683461 126.077114 
L 343.061077 127.841194 
L 345.517946 127.907802 
L 347.974816 126.351354 
L 350.193924 129.546345 
L 352.650794 128.581528 
L 355.02841 128.561884 
L 357.485279 126.97795 
L 359.862895 123.214906 
L 362.319764 122.823035 
L 364.776634 121.37373 
L 367.15425 121.323834 
L 369.611119 122.088444 
L 371.988735 120.136308 
L 374.445605 120.536072 
L 376.902474 122.923583 
L 379.121583 124.018426 
L 381.578452 125.070866 
L 383.956068 124.112507 
L 386.412937 123.580033 
L 388.790553 123.410036 
L 391.247423 123.815878 
L 393.704292 123.691951 
L 396.081908 128.249783 
L 398.538778 127.591858 
L 400.916394 128.621912 
L 403.373263 129.26724 
L 405.830133 126.978177 
L 408.049241 127.79856 
L 410.50611 128.908201 
L 412.883726 126.378074 
L 415.340596 127.196691 
L 417.718212 127.076035 
L 420.175081 125.483418 
L 422.631951 125.281133 
L 425.009567 126.465337 
L 427.466436 126.844781 
L 429.844052 129.287497 
L 432.300922 127.702871 
L 434.757791 124.254503 
L 437.056153 120.453997 
L 439.513023 120.271669 
L 441.890638 122.335991 
L 444.347508 122.307236 
L 446.725124 126.974346 
L 449.181993 126.992777 
L 451.638863 126.213196 
L 454.016479 126.42552 
L 456.473348 124.047066 
L 458.850964 125.21735 
L 461.307834 127.63317 
L 463.764703 127.172987 
L 465.983811 129.538519 
L 468.440681 125.221601 
L 470.818297 124.856857 
L 473.275166 121.060639 
L 475.652782 123.507558 
L 480.566521 126.530286 
L 482.944137 129.017809 
L 485.401007 135.259846 
L 487.778623 133.673203 
L 490.235492 132.605111 
L 492.692362 128.93244 
L 494.91147 131.938531 
L 497.368339 136.671744 
L 499.745955 137.410239 
L 502.202825 137.785841 
L 504.580441 137.786954 
L 507.03731 139.378169 
L 509.49418 139.821113 
L 511.871796 134.729323 
L 514.328665 134.647187 
L 516.706281 136.182808 
L 519.163151 136.971767 
L 521.62002 133.837576 
L 523.839128 133.713027 
L 526.295998 132.63445 
L 528.673614 131.886862 
L 531.130483 132.096306 
L 533.508099 130.650532 
L 535.964969 129.611078 
L 538.421838 130.415967 
L 540.799454 127.592214 
L 543.256324 125.841804 
L 545.633939 127.654898 
L 548.090809 125.224407 
L 550.547679 124.341129 
L 552.84604 124.007385 
L 555.30291 117.945284 
L 557.680526 116.270285 
L 560.137395 116.078632 
L 562.515011 118.551479 
L 564.971881 119.503947 
L 567.42875 116.607262 
L 569.806366 115.785817 
L 572.263236 116.564408 
L 574.640852 110.127592 
L 577.097721 100.938174 
L 579.554591 99.686488 
L 581.773699 97.381454 
L 584.230568 92.316323 
L 586.608184 75.614491 
L 589.065054 81.207908 
L 591.44267 82.94574 
L 593.899539 78.330754 
L 596.356409 77.157593 
L 598.734025 78.382848 
L 601.190894 80.438882 
L 603.56851 80.32294 
L 606.025379 80.810186 
L 608.482249 79.507416 
L 610.701357 76.249072 
L 613.158227 77.124052 
L 615.535843 77.471256 
L 617.992712 80.122741 
L 620.370328 80.348374 
L 622.827198 70.328994 
L 625.284067 78.696781 
L 627.661683 75.350563 
L 630.118552 70.539681 
L 632.496168 68.783709 
L 634.953038 67.577919 
L 637.409907 68.500755 
L 639.629016 71.705509 
L 642.085885 77.096152 
L 644.463501 76.449451 
L 646.92037 77.750857 
L 649.297986 74.971126 
L 651.754856 74.078371 
L 654.211725 77.431931 
L 656.589341 76.686979 
L 659.046211 69.272843 
L 661.423827 74.330002 
L 663.880696 72.998748 
L 666.337566 67.47014 
L 668.635928 67.680831 
L 671.092797 69.913656 
L 673.470413 72.317085 
L 675.927283 74.559232 
L 678.304898 74.825219 
L 680.761768 75.75819 
L 683.218638 71.638868 
L 685.596253 72.093911 
L 688.053123 71.965028 
L 690.430739 72.615631 
L 692.887608 68.454364 
L 695.344478 72.893124 
L 697.563586 73.09336 
L 700.020456 73.068127 
L 702.398071 71.553963 
L 704.854941 65.850751 
L 707.232557 70.595401 
L 709.689426 72.34585 
L 712.146296 64.317337 
L 714.523912 63.748152 
L 716.980781 62.556493 
L 719.358397 68.710377 
L 721.815267 72.998958 
L 724.272136 76.758085 
L 726.491244 77.317085 
L 728.948114 80.400589 
L 731.32573 85.091539 
L 733.782599 79.917704 
L 736.160215 80.390423 
L 738.617085 81.221174 
L 741.073954 81.658437 
L 743.45157 82.375127 
L 745.90844 84.919669 
L 748.286056 85.169665 
L 750.742925 85.703055 
L 753.199795 100.79299 
L 755.418903 98.10346 
L 757.875772 102.996358 
L 760.253388 101.853308 
L 762.710258 101.058816 
L 765.087874 103.320775 
L 767.544743 107.910557 
L 770.001613 103.227965 
L 772.379229 108.131107 
L 774.836098 107.398648 
L 777.213714 105.554265 
L 779.670584 100.428518 
L 782.127453 99.788517 
L 784.425815 100.332888 
L 786.882685 95.035821 
L 789.2603 96.819503 
L 791.71717 91.481963 
L 794.094786 91.372593 
L 796.551655 87.646047 
L 799.008525 87.468555 
L 801.386141 87.687951 
L 803.84301 89.223151 
L 806.220626 94.68664 
L 808.677496 100.941828 
L 811.134365 100.183914 
L 813.353473 100.040724 
L 815.810343 100.745098 
L 818.187959 101.728064 
L 820.644828 99.59507 
L 823.022444 99.582098 
L 825.479314 106.700667 
L 827.936183 108.653881 
L 830.313799 109.39648 
L 832.770669 110.401779 
L 835.148285 109.970913 
L 837.605154 110.975649 
L 840.062024 115.929559 
L 842.281132 116.212849 
L 844.738001 118.906356 
L 847.115617 119.509129 
L 849.572487 117.64607 
L 851.950103 115.535347 
L 854.406972 113.905098 
L 856.863842 115.146164 
L 859.241458 117.197471 
L 861.698327 115.083408 
L 864.075943 115.650952 
L 866.532813 109.308749 
L 866.532813 109.308749 
" clip-path="url(#p9a64d55aba)" style="fill: none; stroke: #e69f00; stroke-width: 2; stroke-linecap: square"/>
   </g>
   <g id="line2d_23">
    <path d="M 29.532812 28.894704 
L 31.751921 35.621202 
L 34.20879 33.17883 
L 36.586406 32.717871 
L 39.043276 33.467236 
L 41.420891 32.425824 
L 43.877761 36.639763 
L 46.334631 34.804079 
L 48.712246 46.727101 
L 51.169116 36.954314 
L 53.546732 29.468674 
L 56.003601 32.257576 
L 58.460471 29.580785 
L 60.679579 30.909816 
L 63.136449 33.061223 
L 65.514064 37.933363 
L 67.970934 35.391531 
L 70.34855 41.099423 
L 72.805419 38.839829 
L 75.262289 36.368886 
L 77.639905 41.051792 
L 80.096774 29.415336 
L 82.47439 23.73759 
L 84.93126 18.63217 
L 87.388129 27.516037 
L 89.686491 24.165382 
L 92.143361 27.111397 
L 94.520976 29.402031 
L 96.977846 16.94175 
L 99.355462 25.863894 
L 101.812331 28.186313 
L 104.269201 26.718926 
L 106.646817 24.499928 
L 109.103686 20.276355 
L 111.481302 18.293053 
L 113.938172 42.303175 
L 116.395041 50.110671 
L 118.614149 55.947542 
L 121.071019 50.155309 
L 123.448635 60.87678 
L 125.905504 60.980319 
L 128.28312 61.640834 
L 130.73999 61.409892 
L 133.196859 63.075749 
L 135.574475 62.093982 
L 138.031345 64.294121 
L 140.408961 64.867007 
L 142.86583 64.718722 
L 145.3227 64.786967 
L 147.541808 66.45614 
L 149.998677 67.282425 
L 152.376293 66.57434 
L 154.833163 64.331872 
L 157.210779 68.308901 
L 159.667648 68.981963 
L 162.124518 67.740057 
L 164.502134 72.477845 
L 166.959003 70.328338 
L 169.336619 68.890808 
L 171.793489 69.124086 
L 174.250358 65.061288 
L 176.469466 62.951847 
L 178.926336 67.332702 
L 181.303952 67.113287 
L 183.760821 67.729588 
L 186.138437 66.391577 
L 188.595307 72.934007 
L 191.052176 71.763292 
L 193.429792 66.563895 
L 195.886662 76.821026 
L 198.264277 77.307792 
L 200.721147 75.014879 
L 205.476378 80.512365 
L 207.933248 81.135556 
L 210.310864 85.219748 
L 212.767733 87.577767 
L 215.145349 85.020285 
L 217.602219 85.029328 
L 220.059088 88.120642 
L 222.436704 85.690319 
L 224.893574 86.608071 
L 227.27119 86.757234 
L 229.728059 88.716221 
L 232.184929 86.654512 
L 234.404037 104.54381 
L 236.860906 100.545199 
L 239.238522 100.581135 
L 241.695392 98.059419 
L 244.073008 92.846376 
L 246.529877 94.554388 
L 248.986747 94.488424 
L 251.364363 91.493821 
L 253.821232 91.212925 
L 256.198848 88.456274 
L 258.655718 87.494329 
L 261.112587 86.081451 
L 263.331695 88.124484 
L 265.788565 89.795165 
L 268.166181 78.854428 
L 270.62305 82.149159 
L 273.000666 80.665847 
L 275.457536 78.692506 
L 277.914405 86.11308 
L 280.292021 90.811192 
L 282.748891 73.14852 
L 285.126506 73.749505 
L 287.583376 68.022213 
L 290.040246 64.117041 
L 292.259354 70.938813 
L 294.716223 74.792251 
L 297.093839 77.42858 
L 299.550709 85.868168 
L 301.928324 98.526203 
L 304.385194 98.87868 
L 306.842064 99.442605 
L 309.219679 96.501113 
L 311.676549 95.62976 
L 314.054165 96.655027 
L 316.511034 94.021692 
L 318.967904 98.310392 
L 321.266266 98.736829 
L 323.723135 96.647749 
L 326.100751 99.655219 
L 328.557621 96.238495 
L 330.935237 99.670672 
L 333.392106 96.879469 
L 335.848976 96.924045 
L 338.226591 102.445149 
L 343.061077 107.109344 
L 345.517946 104.453862 
L 347.974816 104.395873 
L 350.193924 107.350426 
L 355.02841 106.356652 
L 357.485279 105.417263 
L 359.862895 107.642848 
L 362.319764 110.309976 
L 364.776634 110.999249 
L 367.15425 112.875815 
L 369.611119 111.424328 
L 371.988735 113.500794 
L 376.902474 116.328678 
L 379.121583 116.510427 
L 381.578452 116.15397 
L 386.412937 121.515643 
L 388.790553 120.904769 
L 391.247423 121.870627 
L 393.704292 121.22677 
L 396.081908 123.62418 
L 400.916394 123.370282 
L 403.373263 122.679124 
L 405.830133 123.955363 
L 408.049241 123.416995 
L 410.50611 123.990278 
L 415.340596 124.520254 
L 417.718212 124.076152 
L 420.175081 123.777556 
L 422.631951 124.040038 
L 425.009567 122.747952 
L 427.466436 128.942215 
L 432.300922 131.435132 
L 434.757791 134.565105 
L 437.056153 138.325564 
L 439.513023 137.276924 
L 441.890638 137.400122 
L 444.347508 135.05565 
L 446.725124 129.781139 
L 449.181993 129.773415 
L 451.638863 132.300173 
L 454.016479 131.739062 
L 456.473348 133.140199 
L 458.850964 133.559422 
L 461.307834 136.591143 
L 463.764703 136.445148 
L 465.983811 134.146494 
L 468.440681 135.621279 
L 473.275166 145.517598 
L 475.652782 145.328903 
L 478.109652 144.813031 
L 480.566521 144.791053 
L 482.944137 147.871021 
L 485.401007 146.869147 
L 487.778623 148.399932 
L 490.235492 150.503015 
L 492.692362 150.033494 
L 494.91147 150.275018 
L 499.745955 149.685642 
L 502.202825 149.926189 
L 504.580441 149.484642 
L 507.03731 149.795899 
L 509.49418 148.251724 
L 511.871796 150.140975 
L 514.328665 150.326872 
L 516.706281 147.614967 
L 519.163151 149.973415 
L 521.62002 153.490645 
L 523.839128 153.0555 
L 526.295998 154.348288 
L 528.673614 152.169218 
L 531.130483 151.615102 
L 533.508099 151.665752 
L 535.964969 152.30515 
L 538.421838 153.712853 
L 540.799454 150.109463 
L 543.256324 150.739127 
L 545.633939 152.447217 
L 548.090809 152.987463 
L 550.547679 150.725895 
L 552.84604 149.664615 
L 555.30291 152.929392 
L 557.680526 150.360272 
L 560.137395 149.686299 
L 562.515011 155.316047 
L 564.971881 155.058817 
L 567.42875 148.635621 
L 569.806366 148.504876 
L 572.263236 147.876527 
L 574.640852 150.302058 
L 577.097721 155.710519 
L 581.773699 150.831964 
L 584.230568 151.624796 
L 586.608184 154.612742 
L 589.065054 152.52165 
L 591.44267 148.229551 
L 593.899539 148.735001 
L 596.356409 148.11157 
L 598.734025 151.411432 
L 601.190894 151.669412 
L 603.56851 151.118707 
L 606.025379 151.754796 
L 608.482249 152.865693 
L 610.701357 152.730172 
L 613.158227 153.058908 
L 615.535843 151.063851 
L 617.992712 150.667007 
L 620.370328 151.051369 
L 622.827198 153.045605 
L 625.284067 152.946881 
L 627.661683 153.844384 
L 630.118552 154.186756 
L 632.496168 153.694223 
L 634.953038 152.474284 
L 637.409907 152.787019 
L 639.629016 153.456688 
L 642.085885 151.77695 
L 644.463501 151.875217 
L 646.92037 152.18026 
L 649.297986 153.119808 
L 651.754856 153.434587 
L 654.211725 153.472652 
L 656.589341 152.810242 
L 659.046211 153.855337 
L 661.423827 157.859338 
L 663.880696 160.407973 
L 666.337566 161.17086 
L 668.635928 161.186094 
L 671.092797 160.103207 
L 673.470413 160.09891 
L 675.927283 158.927929 
L 678.304898 158.446011 
L 680.761768 159.057147 
L 683.218638 158.610599 
L 685.596253 160.522964 
L 688.053123 160.534851 
L 690.430739 160.004508 
L 692.887608 159.701985 
L 695.344478 159.225702 
L 697.563586 159.966204 
L 700.020456 160.499282 
L 702.398071 162.126277 
L 704.854941 162.419405 
L 709.689426 162.420476 
L 712.146296 166.889574 
L 714.523912 167.243015 
L 716.980781 168.075363 
L 719.358397 159.486544 
L 721.815267 155.16914 
L 724.272136 156.474104 
L 726.491244 158.41727 
L 728.948114 158.92349 
L 731.32573 154.537553 
L 733.782599 163.635326 
L 736.160215 168.157856 
L 738.617085 163.539053 
L 741.073954 164.151128 
L 743.45157 164.927484 
L 745.90844 163.151331 
L 748.286056 162.202331 
L 750.742925 159.86907 
L 753.199795 149.389561 
L 755.418903 148.983795 
L 757.875772 146.109475 
L 760.253388 140.316192 
L 762.710258 144.943821 
L 765.087874 144.176776 
L 767.544743 142.224372 
L 770.001613 141.531115 
L 772.379229 133.6365 
L 774.836098 131.605884 
L 777.213714 133.805478 
L 779.670584 137.204357 
L 782.127453 135.956725 
L 784.425815 136.742014 
L 786.882685 131.50385 
L 789.2603 129.814988 
L 791.71717 131.332432 
L 794.094786 130.994242 
L 796.551655 131.287453 
L 799.008525 134.22984 
L 801.386141 132.58973 
L 803.84301 131.925647 
L 806.220626 129.821214 
L 808.677496 126.469842 
L 811.134365 122.405176 
L 813.353473 122.329737 
L 815.810343 124.560771 
L 818.187959 123.606623 
L 820.644828 125.462197 
L 823.022444 123.849485 
L 825.479314 122.33611 
L 827.936183 122.88644 
L 830.313799 121.936386 
L 832.770669 122.46852 
L 835.148285 124.507857 
L 837.605154 124.045979 
L 840.062024 122.991076 
L 842.281132 122.796566 
L 844.738001 117.458377 
L 847.115617 119.163981 
L 849.572487 119.540079 
L 851.950103 121.210908 
L 854.406972 122.073695 
L 856.863842 122.635729 
L 859.241458 121.63029 
L 861.698327 121.508338 
L 864.075943 122.498268 
L 866.532813 125.421503 
L 866.532813 125.421503 
" clip-path="url(#p9a64d55aba)" style="fill: none; stroke-dasharray: 7.4,3.2; stroke-dashoffset: 0; stroke: #56b4e9; stroke-width: 2"/>
   </g>
   <g id="line2d_24">
    <path d="M 29.532812 130.680789 
L 31.751921 129.29484 
L 34.20879 125.602973 
L 36.586406 125.668722 
L 39.043276 124.142729 
L 41.420891 126.053341 
L 43.877761 132.159772 
L 46.334631 132.143812 
L 48.712246 132.672413 
L 51.169116 135.251407 
L 53.546732 131.020831 
L 56.003601 132.353648 
L 58.460471 129.120158 
L 60.679579 128.321845 
L 63.136449 128.288078 
L 65.514064 129.900329 
L 67.970934 131.702834 
L 70.34855 135.992501 
L 72.805419 137.063027 
L 75.262289 138.48626 
L 77.639905 138.120977 
L 80.096774 136.3299 
L 82.47439 137.383938 
L 84.93126 142.484407 
L 87.388129 144.138737 
L 89.686491 137.221848 
L 92.143361 139.645687 
L 94.520976 142.546146 
L 96.977846 143.808845 
L 99.355462 141.159635 
L 101.812331 141.017334 
L 104.269201 143.773853 
L 106.646817 146.102875 
L 109.103686 145.588985 
L 111.481302 145.905272 
L 113.938172 153.611186 
L 116.395041 149.324048 
L 118.614149 148.502982 
L 121.071019 154.342216 
L 123.448635 156.697623 
L 125.905504 152.72038 
L 128.28312 152.46634 
L 130.73999 154.073024 
L 133.196859 153.457702 
L 135.574475 153.085325 
L 138.031345 153.340762 
L 140.408961 152.850804 
L 142.86583 154.135066 
L 145.3227 155.056739 
L 147.541808 155.350802 
L 152.376293 150.647762 
L 154.833163 150.511332 
L 157.210779 146.614667 
L 159.667648 147.769101 
L 162.124518 147.104127 
L 164.502134 151.80595 
L 166.959003 153.775052 
L 169.336619 151.994589 
L 171.793489 153.932533 
L 174.250358 154.554795 
L 176.469466 153.923903 
L 178.926336 150.506201 
L 181.303952 150.88113 
L 183.760821 150.808278 
L 186.138437 152.941233 
L 188.595307 145.386058 
L 191.052176 146.059409 
L 193.429792 149.796309 
L 195.886662 145.489534 
L 198.264277 148.764123 
L 200.721147 149.212912 
L 203.178017 144.891857 
L 205.476378 143.763389 
L 207.933248 143.177997 
L 210.310864 146.652155 
L 212.767733 147.585618 
L 215.145349 149.819751 
L 217.602219 152.522866 
L 220.059088 151.722347 
L 222.436704 156.765995 
L 224.893574 156.913036 
L 227.27119 160.965716 
L 229.728059 159.774483 
L 232.184929 164.324764 
L 234.404037 170.053663 
L 236.860906 172.171438 
L 239.238522 172.431727 
L 241.695392 172.346121 
L 244.073008 172.386191 
L 246.529877 177.838439 
L 248.986747 174.107317 
L 251.364363 177.978719 
L 253.821232 175.391589 
L 256.198848 174.423895 
L 258.655718 176.224336 
L 261.112587 179.306699 
L 263.331695 176.740414 
L 265.788565 175.093119 
L 268.166181 178.930438 
L 270.62305 175.729126 
L 273.000666 179.20109 
L 275.457536 178.713044 
L 277.914405 173.259326 
L 280.292021 172.938034 
L 282.748891 169.790086 
L 285.126506 172.944755 
L 287.583376 173.252132 
L 290.040246 173.91969 
L 292.259354 170.319912 
L 294.716223 167.292074 
L 297.093839 169.364064 
L 299.550709 171.296246 
L 301.928324 173.002935 
L 304.385194 171.592745 
L 306.842064 172.30116 
L 309.219679 172.280267 
L 311.676549 171.661478 
L 316.511034 169.58346 
L 318.967904 167.578925 
L 321.266266 171.887696 
L 323.723135 168.488825 
L 326.100751 162.036067 
L 328.557621 162.11478 
L 330.935237 161.612065 
L 333.392106 161.347321 
L 335.848976 161.395664 
L 340.683461 162.187988 
L 343.061077 160.885569 
L 345.517946 161.111194 
L 347.974816 162.19837 
L 350.193924 158.895862 
L 352.650794 158.524976 
L 355.02841 159.102127 
L 357.485279 159.507186 
L 359.862895 160.639466 
L 362.319764 159.943223 
L 364.776634 159.711668 
L 367.15425 159.063845 
L 369.611119 159.70017 
L 371.988735 160.503108 
L 374.445605 160.471242 
L 376.902474 160.624391 
L 379.121583 160.056562 
L 381.578452 160.720839 
L 383.956068 159.798206 
L 386.412937 160.191937 
L 391.247423 159.876536 
L 393.704292 160.511296 
L 396.081908 160.074694 
L 398.538778 161.390474 
L 400.916394 161.840894 
L 403.373263 161.183372 
L 405.830133 162.040524 
L 408.049241 162.342328 
L 410.50611 162.088472 
L 412.883726 162.489116 
L 415.340596 162.379339 
L 417.718212 162.048466 
L 420.175081 162.775753 
L 422.631951 162.557928 
L 425.009567 162.546425 
L 427.466436 163.082668 
L 429.844052 162.201056 
L 432.300922 162.236697 
L 434.757791 162.115237 
L 437.056153 161.047227 
L 439.513023 161.570955 
L 441.890638 160.972098 
L 444.347508 161.407466 
L 446.725124 161.497662 
L 449.181993 161.332111 
L 451.638863 160.983698 
L 454.016479 161.890946 
L 458.850964 162.426641 
L 463.764703 162.113428 
L 465.983811 162.606319 
L 468.440681 162.907861 
L 470.818297 165.652545 
L 473.275166 167.522851 
L 475.652782 167.43787 
L 478.109652 168.779666 
L 480.566521 168.727923 
L 485.401007 169.501697 
L 487.778623 171.368176 
L 490.235492 170.50299 
L 492.692362 173.116359 
L 494.91147 175.872571 
L 497.368339 180.872995 
L 499.745955 184.530702 
L 502.202825 181.92727 
L 504.580441 182.632572 
L 507.03731 182.542676 
L 509.49418 186.148947 
L 511.871796 185.679839 
L 514.328665 185.529881 
L 516.706281 184.922523 
L 519.163151 185.928889 
L 521.62002 185.564235 
L 523.839128 185.523232 
L 526.295998 186.091144 
L 528.673614 188.740128 
L 531.130483 190.146193 
L 533.508099 190.9291 
L 535.964969 191.244257 
L 538.421838 186.490717 
L 540.799454 183.35696 
L 543.256324 184.728487 
L 545.633939 178.815799 
L 548.090809 180.221286 
L 550.547679 179.03345 
L 552.84604 177.049116 
L 555.30291 182.294706 
L 557.680526 182.904424 
L 560.137395 183.117953 
L 562.515011 180.987072 
L 564.971881 177.345977 
L 567.42875 178.613411 
L 569.806366 174.861037 
L 572.263236 175.473612 
L 574.640852 179.341211 
L 577.097721 178.348935 
L 579.554591 178.763315 
L 581.773699 181.46782 
L 584.230568 181.417643 
L 586.608184 182.227917 
L 589.065054 181.538926 
L 591.44267 185.015433 
L 593.899539 183.927647 
L 596.356409 184.92751 
L 598.734025 180.511054 
L 601.190894 179.647225 
L 603.56851 181.456882 
L 606.025379 181.924497 
L 608.482249 178.59002 
L 610.701357 181.825977 
L 613.158227 181.634587 
L 615.535843 183.228588 
L 617.992712 182.698062 
L 620.370328 183.077798 
L 622.827198 183.822379 
L 625.284067 180.799369 
L 627.661683 181.470859 
L 630.118552 182.309305 
L 632.496168 186.168873 
L 634.953038 189.508629 
L 637.409907 189.369311 
L 639.629016 186.819069 
L 642.085885 185.326338 
L 644.463501 186.067555 
L 646.92037 185.606359 
L 649.297986 186.543846 
L 651.754856 188.059894 
L 654.211725 185.838046 
L 656.589341 188.895035 
L 659.046211 191.417642 
L 661.423827 184.393763 
L 663.880696 182.338788 
L 666.337566 185.288837 
L 668.635928 184.074163 
L 671.092797 182.902196 
L 673.470413 181.995449 
L 675.927283 181.207841 
L 678.304898 183.225263 
L 680.761768 182.006935 
L 683.218638 184.284002 
L 685.596253 183.75237 
L 688.053123 182.103747 
L 690.430739 182.92805 
L 692.887608 185.660175 
L 695.344478 183.840464 
L 697.563586 185.225409 
L 700.020456 181.23042 
L 702.398071 180.230365 
L 704.854941 182.926248 
L 707.232557 179.764418 
L 709.689426 178.291348 
L 712.146296 180.405071 
L 714.523912 182.249682 
L 716.980781 180.017048 
L 719.358397 176.173487 
L 721.815267 170.979221 
L 724.272136 170.985804 
L 726.491244 170.184701 
L 728.948114 167.15054 
L 731.32573 174.364174 
L 733.782599 174.774341 
L 736.160215 172.683989 
L 738.617085 179.047279 
L 741.073954 177.744568 
L 743.45157 177.245403 
L 745.90844 175.090479 
L 748.286056 173.72374 
L 750.742925 173.621697 
L 753.199795 174.098882 
L 755.418903 174.797078 
L 757.875772 166.26385 
L 760.253388 170.857912 
L 762.710258 170.079717 
L 765.087874 165.169807 
L 767.544743 164.288238 
L 770.001613 168.042972 
L 772.379229 163.255769 
L 774.836098 163.138264 
L 777.213714 150.568008 
L 779.670584 153.633252 
L 782.127453 155.753379 
L 784.425815 156.688945 
L 786.882685 155.316282 
L 789.2603 154.980288 
L 791.71717 163.020937 
L 794.094786 166.117457 
L 796.551655 168.195064 
L 799.008525 167.788919 
L 801.386141 171.445704 
L 803.84301 170.219298 
L 806.220626 172.306904 
L 808.677496 169.148538 
L 811.134365 169.5575 
L 813.353473 170.280581 
L 815.810343 167.942622 
L 818.187959 162.969971 
L 820.644828 164.407382 
L 823.022444 164.798223 
L 825.479314 161.604629 
L 827.936183 162.459282 
L 830.313799 162.509592 
L 832.770669 160.338165 
L 835.148285 158.973161 
L 837.605154 157.989704 
L 840.062024 153.264921 
L 842.281132 152.429163 
L 844.738001 156.994674 
L 847.115617 154.662284 
L 849.572487 157.71648 
L 851.950103 158.36278 
L 854.406972 160.505165 
L 856.863842 159.139053 
L 859.241458 158.728009 
L 861.698327 162.497607 
L 864.075943 162.506339 
L 866.532813 165.365218 
L 866.532813 165.365218 
" clip-path="url(#p9a64d55aba)" style="fill: none; stroke-dasharray: 12.8,3.2,2,3.2; stroke-dashoffset: 0; stroke: #009e73; stroke-width: 2"/>
   </g>
   <g id="line2d_25">
    <path d="M 29.532812 158.18585 
L 31.751921 158.292659 
L 34.20879 159.196763 
L 36.586406 158.589089 
L 39.043276 158.727074 
L 41.420891 156.662992 
L 43.877761 157.938546 
L 46.334631 156.734071 
L 48.712246 156.244845 
L 51.169116 153.212523 
L 53.546732 153.082762 
L 56.003601 153.599656 
L 58.460471 153.777146 
L 60.679579 154.865584 
L 63.136449 154.9867 
L 65.514064 158.478348 
L 67.970934 155.646147 
L 70.34855 155.974169 
L 72.805419 155.013749 
L 75.262289 152.767739 
L 80.096774 158.181263 
L 82.47439 155.05791 
L 84.93126 156.058279 
L 87.388129 155.212264 
L 89.686491 161.29109 
L 92.143361 161.650393 
L 94.520976 163.430492 
L 96.977846 168.00436 
L 99.355462 164.061588 
L 101.812331 164.513282 
L 104.269201 164.438131 
L 106.646817 163.73446 
L 109.103686 165.834504 
L 111.481302 165.092101 
L 113.938172 167.113017 
L 116.395041 165.737527 
L 118.614149 164.76226 
L 121.071019 162.63984 
L 123.448635 158.12645 
L 125.905504 159.327324 
L 128.28312 159.798863 
L 130.73999 159.454689 
L 133.196859 160.210532 
L 135.574475 159.985188 
L 140.408961 159.940763 
L 142.86583 160.450978 
L 145.3227 160.248772 
L 147.541808 159.731669 
L 149.998677 159.572409 
L 152.376293 161.561406 
L 154.833163 162.364373 
L 157.210779 161.832247 
L 159.667648 162.449236 
L 162.124518 163.338341 
L 164.502134 159.818075 
L 166.959003 160.865623 
L 169.336619 160.797246 
L 171.793489 161.051583 
L 174.250358 159.222972 
L 176.469466 158.86782 
L 178.926336 160.960597 
L 183.760821 161.158434 
L 186.138437 162.313308 
L 188.595307 159.640239 
L 191.052176 160.222907 
L 193.429792 160.414238 
L 195.886662 162.905104 
L 198.264277 164.330778 
L 200.721147 164.398585 
L 203.178017 164.736753 
L 205.476378 164.385048 
L 207.933248 165.347745 
L 210.310864 164.21311 
L 212.767733 164.284658 
L 215.145349 163.74962 
L 217.602219 163.569197 
L 220.059088 163.837147 
L 222.436704 163.29012 
L 224.893574 163.12677 
L 227.27119 164.756113 
L 229.728059 164.120265 
L 232.184929 165.629998 
L 234.404037 160.396243 
L 236.860906 160.112989 
L 239.238522 160.131981 
L 241.695392 159.975923 
L 244.073008 160.604555 
L 246.529877 160.141511 
L 248.986747 160.8009 
L 251.364363 157.661655 
L 253.821232 159.052493 
L 256.198848 159.949724 
L 258.655718 159.192932 
L 263.331695 159.010989 
L 270.62305 156.994153 
L 273.000666 158.215503 
L 275.457536 157.950963 
L 277.914405 156.853709 
L 280.292021 154.234873 
L 282.748891 151.097691 
L 285.126506 152.519279 
L 287.583376 150.648465 
L 290.040246 150.289802 
L 292.259354 149.553347 
L 294.716223 149.643311 
L 297.093839 148.836406 
L 299.550709 146.42492 
L 301.928324 141.034774 
L 304.385194 142.515412 
L 306.842064 141.107377 
L 309.219679 142.4439 
L 311.676549 137.098299 
L 314.054165 140.561625 
L 316.511034 142.815924 
L 318.967904 141.152954 
L 321.266266 142.339079 
L 323.723135 142.510263 
L 326.100751 142.185682 
L 328.557621 139.207144 
L 330.935237 138.086221 
L 333.392106 140.314401 
L 335.848976 140.746509 
L 338.226591 140.989654 
L 343.061077 139.89328 
L 345.517946 140.44467 
L 347.974816 140.812663 
L 350.193924 139.870581 
L 352.650794 141.044909 
L 355.02841 140.510582 
L 357.485279 140.819109 
L 359.862895 140.125267 
L 362.319764 140.919365 
L 364.776634 140.993706 
L 367.15425 139.788032 
L 369.611119 140.80183 
L 371.988735 137.308015 
L 374.445605 138.103847 
L 376.902474 137.313508 
L 379.121583 137.278434 
L 381.578452 135.794175 
L 383.956068 136.229403 
L 386.412937 133.743687 
L 388.790553 134.816584 
L 391.247423 132.39836 
L 393.704292 133.715742 
L 396.081908 131.504583 
L 398.538778 130.582303 
L 400.916394 129.421027 
L 403.373263 130.865728 
L 405.830133 129.653525 
L 408.049241 130.172405 
L 410.50611 129.106934 
L 412.883726 129.604341 
L 415.340596 130.802356 
L 417.718212 129.774277 
L 420.175081 129.379623 
L 422.631951 130.841008 
L 425.009567 129.563575 
L 427.466436 130.927554 
L 429.844052 127.801333 
L 432.300922 127.979884 
L 434.757791 127.435281 
L 437.056153 128.881649 
L 439.513023 129.038388 
L 441.890638 127.868963 
L 444.347508 128.314557 
L 446.725124 129.455112 
L 449.181993 129.385783 
L 451.638863 127.921653 
L 454.016479 129.141379 
L 456.473348 129.391024 
L 458.850964 128.706676 
L 461.307834 126.318801 
L 463.764703 127.169322 
L 465.983811 126.307282 
L 468.440681 126.774448 
L 470.818297 126.453487 
L 473.275166 132.215977 
L 475.652782 130.54103 
L 478.109652 129.305116 
L 480.566521 126.701396 
L 482.944137 127.583112 
L 485.401007 128.180109 
L 487.778623 127.208514 
L 490.235492 126.396828 
L 492.692362 124.932475 
L 494.91147 127.54447 
L 497.368339 122.326955 
L 499.745955 120.474326 
L 502.202825 118.839063 
L 504.580441 118.353456 
L 507.03731 117.64944 
L 509.49418 116.712375 
L 511.871796 117.292007 
L 514.328665 117.545991 
L 519.163151 119.486616 
L 521.62002 119.2104 
L 523.839128 119.962013 
L 526.295998 120.089113 
L 528.673614 119.4309 
L 531.130483 120.889515 
L 533.508099 123.093592 
L 535.964969 122.222994 
L 538.421838 120.06502 
L 540.799454 122.878477 
L 543.256324 122.794083 
L 545.633939 127.018906 
L 548.090809 128.16267 
L 552.84604 126.692754 
L 555.30291 128.393024 
L 557.680526 127.104986 
L 560.137395 125.62447 
L 562.515011 127.436505 
L 564.971881 129.729812 
L 567.42875 123.401449 
L 569.806366 127.491305 
L 572.263236 126.004289 
L 574.640852 126.676488 
L 577.097721 118.42301 
L 579.554591 118.517449 
L 581.773699 121.321734 
L 584.230568 117.60156 
L 586.608184 122.465502 
L 589.065054 119.247142 
L 591.44267 118.001402 
L 593.899539 119.745686 
L 596.356409 119.514994 
L 598.734025 118.554925 
L 601.190894 120.385778 
L 603.56851 117.517584 
L 606.025379 116.749238 
L 608.482249 119.530036 
L 610.701357 119.479748 
L 613.158227 118.268598 
L 615.535843 118.669197 
L 617.992712 118.639336 
L 620.370328 116.972566 
L 622.827198 120.146379 
L 627.661683 117.427043 
L 630.118552 119.28143 
L 632.496168 119.466051 
L 634.953038 114.750706 
L 637.409907 114.654928 
L 639.629016 115.781501 
L 642.085885 116.774774 
L 644.463501 116.411198 
L 646.92037 116.482109 
L 649.297986 116.691758 
L 651.754856 117.141574 
L 654.211725 118.158164 
L 656.589341 116.712578 
L 659.046211 115.064321 
L 661.423827 116.216492 
L 663.880696 114.541324 
L 666.337566 113.257003 
L 668.635928 115.103792 
L 673.470413 115.822154 
L 675.927283 116.738248 
L 678.304898 111.645621 
L 680.761768 113.59306 
L 683.218638 113.285132 
L 685.596253 113.480751 
L 688.053123 115.214351 
L 690.430739 115.724864 
L 692.887608 113.714455 
L 695.344478 114.334075 
L 697.563586 113.630642 
L 700.020456 115.104215 
L 702.398071 116.084396 
L 704.854941 114.443208 
L 707.232557 116.205601 
L 709.689426 114.99537 
L 712.146296 116.144484 
L 714.523912 116.508827 
L 716.980781 117.74795 
L 719.358397 119.843565 
L 721.815267 126.23848 
L 726.491244 125.379679 
L 728.948114 122.23898 
L 731.32573 121.738099 
L 733.782599 122.099632 
L 736.160215 122.275025 
L 738.617085 120.638616 
L 741.073954 121.414986 
L 743.45157 121.729506 
L 745.90844 122.584613 
L 748.286056 123.769612 
L 750.742925 124.637205 
L 753.199795 120.1649 
L 755.418903 118.620267 
L 757.875772 121.940985 
L 760.253388 120.761816 
L 765.087874 122.104871 
L 767.544743 122.618117 
L 770.001613 127.167717 
L 772.379229 130.447154 
L 774.836098 134.61728 
L 777.213714 140.774687 
L 779.670584 142.68147 
L 782.127453 143.931235 
L 784.425815 142.406788 
L 786.882685 147.310994 
L 789.2603 146.321406 
L 791.71717 142.763098 
L 794.094786 139.757511 
L 796.551655 137.2849 
L 799.008525 138.280921 
L 801.386141 139.656178 
L 803.84301 142.816028 
L 806.220626 143.871392 
L 808.677496 154.912328 
L 811.134365 154.959355 
L 813.353473 154.438611 
L 815.810343 156.048304 
L 818.187959 159.88876 
L 820.644828 159.614465 
L 823.022444 159.543024 
L 825.479314 160.133334 
L 827.936183 158.249691 
L 830.313799 157.572904 
L 832.770669 157.723621 
L 835.148285 157.436901 
L 837.605154 156.280248 
L 840.062024 155.605375 
L 842.281132 155.334576 
L 844.738001 153.123127 
L 847.115617 152.9326 
L 849.572487 151.228185 
L 851.950103 151.386886 
L 854.406972 150.551173 
L 856.863842 150.774236 
L 859.241458 150.595047 
L 861.698327 150.035708 
L 864.075943 149.658828 
L 866.532813 152.804629 
L 866.532813 152.804629 
" clip-path="url(#p9a64d55aba)" style="fill: none; stroke-dasharray: 2,3.3; stroke-dashoffset: 0; stroke: #0072b2; stroke-width: 2"/>
   </g>
   <g id="line2d_26">
    <path d="M 29.532812 172.284317 
L 31.751921 165.219673 
L 34.20879 166.011473 
L 36.586406 167.143064 
L 39.043276 168.653415 
L 41.420891 170.689801 
L 43.877761 169.276004 
L 46.334631 171.255491 
L 48.712246 163.720269 
L 51.169116 169.425951 
L 53.546732 172.687224 
L 56.003601 169.844522 
L 58.460471 173.347922 
L 60.679579 172.320541 
L 63.136449 171.518257 
L 65.514064 171.56901 
L 67.970934 170.858555 
L 70.34855 167.798021 
L 72.805419 169.054667 
L 75.262289 169.803375 
L 77.639905 169.742312 
L 80.096774 165.605997 
L 82.47439 164.29004 
L 87.388129 174.594843 
L 89.686491 179.834114 
L 92.143361 184.865119 
L 94.520976 182.843448 
L 96.977846 188.476611 
L 99.355462 186.123259 
L 101.812331 184.836377 
L 104.269201 184.317858 
L 106.646817 186.54703 
L 109.103686 188.472664 
L 111.481302 188.889502 
L 113.938172 178.487063 
L 116.395041 178.795174 
L 118.614149 181.040306 
L 121.071019 181.169825 
L 123.448635 179.332763 
L 125.905504 182.40689 
L 128.28312 183.740784 
L 130.73999 182.301107 
L 133.196859 181.557155 
L 135.574475 182.649905 
L 138.031345 181.475551 
L 140.408961 181.703657 
L 142.86583 183.20504 
L 145.3227 184.271162 
L 147.541808 183.123795 
L 149.998677 185.2477 
L 152.376293 188.926387 
L 154.833163 190.841408 
L 159.667648 190.051583 
L 162.124518 192.159539 
L 164.502134 189.010731 
L 166.959003 188.366435 
L 169.336619 191.553733 
L 171.793489 189.869387 
L 174.250358 194.430964 
L 176.469466 196.089478 
L 178.926336 194.33079 
L 181.303952 194.937685 
L 183.760821 196.778752 
L 186.138437 195.301379 
L 188.595307 197.048288 
L 191.052176 197.318539 
L 193.429792 198.005158 
L 195.886662 190.675236 
L 198.264277 188.07216 
L 200.721147 190.831398 
L 203.178017 191.56511 
L 207.933248 190.681063 
L 210.310864 185.841987 
L 212.767733 184.625212 
L 215.145349 183.823746 
L 217.602219 182.411535 
L 220.059088 179.868381 
L 222.436704 178.225789 
L 224.893574 178.310755 
L 227.27119 177.636594 
L 229.728059 177.29703 
L 232.184929 175.575035 
L 234.404037 164.343158 
L 236.860906 167.07852 
L 239.238522 166.5194 
L 241.695392 169.189229 
L 244.073008 172.119711 
L 246.529877 168.417838 
L 248.986747 171.155516 
L 251.364363 175.257055 
L 253.821232 176.761755 
L 256.198848 179.705937 
L 258.655718 180.208129 
L 261.112587 178.375392 
L 263.331695 178.198479 
L 265.788565 179.351109 
L 268.166181 184.028705 
L 270.62305 183.235777 
L 273.000666 185.388854 
L 275.457536 186.836313 
L 277.914405 179.840679 
L 280.292021 183.789927 
L 282.748891 206.82096 
L 285.126506 203.235491 
L 287.583376 209.021879 
L 290.040246 209.50654 
L 292.259354 204.145678 
L 294.716223 200.515452 
L 297.093839 194.178016 
L 299.550709 192.606236 
L 301.928324 192.801692 
L 304.385194 191.063317 
L 306.842064 189.992888 
L 309.219679 193.422845 
L 311.676549 198.044109 
L 314.054165 194.971888 
L 316.511034 194.056173 
L 321.266266 187.997547 
L 323.723135 190.396448 
L 326.100751 186.671784 
L 328.557621 192.723817 
L 330.935237 190.831538 
L 333.392106 192.0607 
L 335.848976 190.097706 
L 338.226591 185.757185 
L 340.683461 185.626273 
L 343.061077 183.441841 
L 345.517946 185.2537 
L 347.974816 185.412969 
L 350.193924 183.508014 
L 352.650794 184.160474 
L 355.02841 184.639983 
L 357.485279 186.44972 
L 359.862895 187.548741 
L 362.319764 185.175629 
L 364.776634 186.092875 
L 367.15425 186.119701 
L 369.611119 185.156456 
L 371.988735 187.723003 
L 374.445605 185.186897 
L 376.902474 181.981067 
L 379.121583 181.307378 
L 381.578452 181.431378 
L 383.956068 180.211158 
L 388.790553 179.997669 
L 391.247423 181.209827 
L 393.704292 180.02547 
L 396.081908 175.717988 
L 398.538778 176.15828 
L 400.916394 175.917113 
L 403.373263 175.175764 
L 405.830133 176.543639 
L 408.049241 175.44094 
L 410.50611 175.077343 
L 412.883726 176.499858 
L 415.340596 174.272588 
L 417.718212 176.196298 
L 420.175081 177.754877 
L 422.631951 176.451121 
L 425.009567 177.847939 
L 427.466436 169.37401 
L 429.844052 169.72068 
L 432.300922 169.816645 
L 434.757791 170.801102 
L 437.056153 170.462791 
L 439.513023 171.013293 
L 441.890638 170.594054 
L 444.347508 172.086319 
L 446.725124 171.462969 
L 449.181993 171.687142 
L 451.638863 171.752508 
L 454.016479 169.974321 
L 456.473348 170.445925 
L 458.850964 169.261139 
L 461.307834 166.395232 
L 463.764703 166.270342 
L 465.983811 166.572614 
L 468.440681 168.646039 
L 470.818297 161.752312 
L 473.275166 152.854163 
L 475.652782 152.355867 
L 478.109652 151.260674 
L 480.566521 152.420571 
L 482.944137 145.618823 
L 485.401007 139.360429 
L 487.778623 138.521404 
L 490.235492 139.163284 
L 492.692362 142.156461 
L 494.91147 133.540638 
L 497.368339 129.34163 
L 499.745955 127.070319 
L 502.202825 130.692864 
L 504.580441 130.913604 
L 507.03731 129.805043 
L 509.49418 128.23707 
L 511.871796 131.329084 
L 514.328665 131.121298 
L 516.706281 131.949425 
L 519.163151 126.81054 
L 521.62002 127.068372 
L 523.839128 126.917457 
L 526.295998 126.008234 
L 528.673614 126.94412 
L 531.130483 124.424112 
L 533.508099 122.832252 
L 535.964969 123.78775 
L 538.421838 128.486671 
L 540.799454 135.234115 
L 543.256324 135.067728 
L 545.633939 133.234408 
L 548.090809 132.575402 
L 550.547679 137.6517 
L 552.84604 141.757358 
L 555.30291 137.608822 
L 557.680526 142.531261 
L 560.137395 144.663874 
L 562.515011 136.880126 
L 564.971881 137.532674 
L 567.42875 151.913485 
L 572.263236 153.252392 
L 574.640852 152.72388 
L 577.097721 165.750591 
L 579.554591 169.099258 
L 581.773699 168.168256 
L 586.608184 184.250576 
L 591.44267 184.979102 
L 593.899539 188.43214 
L 596.356409 189.459561 
L 598.734025 190.31097 
L 601.190894 187.029932 
L 603.56851 188.755114 
L 606.025379 187.932511 
L 608.482249 188.678063 
L 613.158227 189.085084 
L 615.535843 188.738336 
L 617.992712 187.044082 
L 620.370328 187.721121 
L 622.827198 191.827871 
L 625.284067 187.995152 
L 627.661683 191.078379 
L 630.118552 192.854056 
L 632.496168 191.058372 
L 634.953038 194.859689 
L 637.409907 193.859215 
L 639.629016 191.408462 
L 642.085885 188.197014 
L 644.463501 188.367808 
L 646.92037 187.151643 
L 649.297986 187.84469 
L 651.754856 186.456801 
L 654.211725 184.270435 
L 656.589341 184.066394 
L 659.046211 189.561084 
L 661.423827 186.371633 
L 663.880696 188.884395 
L 666.337566 191.984387 
L 668.635928 191.126349 
L 671.092797 190.824684 
L 673.470413 188.937631 
L 675.927283 187.737978 
L 678.304898 191.029114 
L 680.761768 188.755897 
L 683.218638 191.352628 
L 685.596253 189.321232 
L 688.053123 189.353251 
L 690.430739 187.898174 
L 692.887608 191.640248 
L 695.344478 188.877863 
L 697.563586 187.255612 
L 700.020456 189.269184 
L 702.398071 189.176228 
L 704.854941 193.531616 
L 707.232557 190.170343 
L 709.689426 191.118184 
L 712.146296 191.414762 
L 714.523912 189.421552 
L 716.980781 190.774374 
L 719.358397 194.957255 
L 721.815267 193.785428 
L 724.272136 189.174152 
L 726.491244 187.872494 
L 728.948114 190.457628 
L 731.32573 183.439864 
L 733.782599 178.744224 
L 736.160215 175.663935 
L 738.617085 174.725106 
L 741.073954 174.202108 
L 743.45157 172.893708 
L 745.90844 173.425136 
L 748.286056 174.305879 
L 750.742925 175.340202 
L 753.199795 174.724895 
L 755.418903 178.666627 
L 757.875772 181.86056 
L 760.253388 185.382 
L 762.710258 181.598692 
L 765.087874 184.398999 
L 767.544743 182.129944 
L 770.001613 179.201459 
L 772.379229 183.700698 
L 774.836098 182.411152 
L 777.213714 188.46879 
L 779.670584 185.22363 
L 782.127453 183.741373 
L 784.425815 183.000594 
L 786.882685 190.00428 
L 789.2603 191.235044 
L 791.71717 190.572799 
L 794.094786 190.929424 
L 796.551655 194.757763 
L 799.008525 191.402993 
L 801.386141 187.791665 
L 803.84301 184.987103 
L 806.220626 178.485078 
L 808.677496 167.698693 
L 811.134365 172.065283 
L 813.353473 172.081574 
L 815.810343 169.874432 
L 818.187959 170.97781 
L 820.644828 170.092114 
L 823.022444 171.398397 
L 825.479314 168.396487 
L 827.936183 166.921934 
L 830.313799 167.755866 
L 832.770669 168.239142 
L 835.148285 168.282396 
L 840.062024 171.380297 
L 842.281132 172.398075 
L 847.115617 172.903234 
L 849.572487 173.040413 
L 851.950103 172.675308 
L 854.406972 172.136097 
L 856.863842 171.476045 
L 859.241458 171.020411 
L 861.698327 170.046167 
L 864.075943 168.85684 
L 866.532813 166.271129 
L 866.532813 166.271129 
" clip-path="url(#p9a64d55aba)" style="fill: none; stroke: #d55e00; stroke-width: 2; stroke-linecap: square"/>
   </g>
   <g id="patch_3">
    <path d="M 29.532813 238.70175 
L 29.532813 16.94175 
" style="fill: none; stroke: #000000; stroke-width: 0.8; stroke-linejoin: miter; stroke-linecap: square"/>
   </g>
   <g id="patch_4">
    <path d="M 29.532812 238.70175 
L 866.532813 238.70175 
" style="fill: none; stroke: #000000; stroke-width: 0.8; stroke-linejoin: miter; stroke-linecap: square"/>
   </g>
   <g id="text_15">
    <!-- 5_Industry_Portfolios - Portfolio Allocation for FF -->
    <g transform="translate(275.941563 10.94175) scale(0.144 -0.144)">
     <defs>
      <path id="DejaVuSans-5f" d="M 3263 -1063 
L 3263 -1509 
L -63 -1509 
L -63 -1063 
L 3263 -1063 
z
" transform="scale(0.015625)"/>
      <path id="DejaVuSans-49" d="M 628 4666 
L 1259 4666 
L 1259 0 
L 628 0 
L 628 4666 
z
" transform="scale(0.015625)"/>
      <path id="DejaVuSans-6e" d="M 3513 2113 
L 3513 0 
L 2938 0 
L 2938 2094 
Q 2938 2591 2744 2837 
Q 2550 3084 2163 3084 
Q 1697 3084 1428 2787 
Q 1159 2491 1159 1978 
L 1159 0 
L 581 0 
L 581 3500 
L 1159 3500 
L 1159 2956 
Q 1366 3272 1645 3428 
Q 1925 3584 2291 3584 
Q 2894 3584 3203 3211 
Q 3513 2838 3513 2113 
z
" transform="scale(0.015625)"/>
      <path id="DejaVuSans-64" d="M 2906 2969 
L 2906 4863 
L 3481 4863 
L 3481 0 
L 2906 0 
L 2906 525 
Q 2725 213 2448 61 
Q 2172 -91 1784 -91 
Q 1150 -91 751 415 
Q 353 922 353 1747 
Q 353 2572 751 3078 
Q 1150 3584 1784 3584 
Q 2172 3584 2448 3432 
Q 2725 3281 2906 2969 
z
M 947 1747 
Q 947 1113 1208 752 
Q 1469 391 1925 391 
Q 2381 391 2643 752 
Q 2906 1113 2906 1747 
Q 2906 2381 2643 2742 
Q 2381 3103 1925 3103 
Q 1469 3103 1208 2742 
Q 947 2381 947 1747 
z
" transform="scale(0.015625)"/>
      <path id="DejaVuSans-75" d="M 544 1381 
L 544 3500 
L 1119 3500 
L 1119 1403 
Q 1119 906 1312 657 
Q 1506 409 1894 409 
Q 2359 409 2629 706 
Q 2900 1003 2900 1516 
L 2900 3500 
L 3475 3500 
L 3475 0 
L 2900 0 
L 2900 538 
Q 2691 219 2414 64 
Q 2138 -91 1772 -91 
Q 1169 -91 856 284 
Q 544 659 544 1381 
z
M 1991 3584 
L 1991 3584 
z
" transform="scale(0.015625)"/>
      <path id="DejaVuSans-73" d="M 2834 3397 
L 2834 2853 
Q 2591 2978 2328 3040 
Q 2066 3103 1784 3103 
Q 1356 3103 1142 2972 
Q 928 2841 928 2578 
Q 928 2378 1081 2264 
Q 1234 2150 1697 2047 
L 1894 2003 
Q 2506 1872 2764 1633 
Q 3022 1394 3022 966 
Q 3022 478 2636 193 
Q 2250 -91 1575 -91 
Q 1294 -91 989 -36 
Q 684 19 347 128 
L 347 722 
Q 666 556 975 473 
Q 1284 391 1588 391 
Q 1994 391 2212 530 
Q 2431 669 2431 922 
Q 2431 1156 2273 1281 
Q 2116 1406 1581 1522 
L 1381 1569 
Q 847 1681 609 1914 
Q 372 2147 372 2553 
Q 372 3047 722 3315 
Q 1072 3584 1716 3584 
Q 2034 3584 2315 3537 
Q 2597 3491 2834 3397 
z
" transform="scale(0.015625)"/>
      <path id="DejaVuSans-74" d="M 1172 4494 
L 1172 3500 
L 2356 3500 
L 2356 3053 
L 1172 3053 
L 1172 1153 
Q 1172 725 1289 603 
Q 1406 481 1766 481 
L 2356 481 
L 2356 0 
L 1766 0 
Q 1100 0 847 248 
Q 594 497 594 1153 
L 594 3053 
L 172 3053 
L 172 3500 
L 594 3500 
L 594 4494 
L 1172 4494 
z
" transform="scale(0.015625)"/>
      <path id="DejaVuSans-72" d="M 2631 2963 
Q 2534 3019 2420 3045 
Q 2306 3072 2169 3072 
Q 1681 3072 1420 2755 
Q 1159 2438 1159 1844 
L 1159 0 
L 581 0 
L 581 3500 
L 1159 3500 
L 1159 2956 
Q 1341 3275 1631 3429 
Q 1922 3584 2338 3584 
Q 2397 3584 2469 3576 
Q 2541 3569 2628 3553 
L 2631 2963 
z
" transform="scale(0.015625)"/>
      <path id="DejaVuSans-79" d="M 2059 -325 
Q 1816 -950 1584 -1140 
Q 1353 -1331 966 -1331 
L 506 -1331 
L 506 -850 
L 844 -850 
Q 1081 -850 1212 -737 
Q 1344 -625 1503 -206 
L 1606 56 
L 191 3500 
L 800 3500 
L 1894 763 
L 2988 3500 
L 3597 3500 
L 2059 -325 
z
" transform="scale(0.015625)"/>
      <path id="DejaVuSans-50" d="M 1259 4147 
L 1259 2394 
L 2053 2394 
Q 2494 2394 2734 2622 
Q 2975 2850 2975 3272 
Q 2975 3691 2734 3919 
Q 2494 4147 2053 4147 
L 1259 4147 
z
M 628 4666 
L 2053 4666 
Q 2838 4666 3239 4311 
Q 3641 3956 3641 3272 
Q 3641 2581 3239 2228 
Q 2838 1875 2053 1875 
L 1259 1875 
L 1259 0 
L 628 0 
L 628 4666 
z
" transform="scale(0.015625)"/>
      <path id="DejaVuSans-6f" d="M 1959 3097 
Q 1497 3097 1228 2736 
Q 959 2375 959 1747 
Q 959 1119 1226 758 
Q 1494 397 1959 397 
Q 2419 397 2687 759 
Q 2956 1122 2956 1747 
Q 2956 2369 2687 2733 
Q 2419 3097 1959 3097 
z
M 1959 3584 
Q 2709 3584 3137 3096 
Q 3566 2609 3566 1747 
Q 3566 888 3137 398 
Q 2709 -91 1959 -91 
Q 1206 -91 779 398 
Q 353 888 353 1747 
Q 353 2609 779 3096 
Q 1206 3584 1959 3584 
z
" transform="scale(0.015625)"/>
      <path id="DejaVuSans-66" d="M 2375 4863 
L 2375 4384 
L 1825 4384 
Q 1516 4384 1395 4259 
Q 1275 4134 1275 3809 
L 1275 3500 
L 2222 3500 
L 2222 3053 
L 1275 3053 
L 1275 0 
L 697 0 
L 697 3053 
L 147 3053 
L 147 3500 
L 697 3500 
L 697 3744 
Q 697 4328 969 4595 
Q 1241 4863 1831 4863 
L 2375 4863 
z
" transform="scale(0.015625)"/>
      <path id="DejaVuSans-6c" d="M 603 4863 
L 1178 4863 
L 1178 0 
L 603 0 
L 603 4863 
z
" transform="scale(0.015625)"/>
      <path id="DejaVuSans-69" d="M 603 3500 
L 1178 3500 
L 1178 0 
L 603 0 
L 603 3500 
z
M 603 4863 
L 1178 4863 
L 1178 4134 
L 603 4134 
L 603 4863 
z
" transform="scale(0.015625)"/>
      <path id="DejaVuSans-20" transform="scale(0.015625)"/>
      <path id="DejaVuSans-2d" d="M 313 2009 
L 1997 2009 
L 1997 1497 
L 313 1497 
L 313 2009 
z
" transform="scale(0.015625)"/>
      <path id="DejaVuSans-41" d="M 2188 4044 
L 1331 1722 
L 3047 1722 
L 2188 4044 
z
M 1831 4666 
L 2547 4666 
L 4325 0 
L 3669 0 
L 3244 1197 
L 1141 1197 
L 716 0 
L 50 0 
L 1831 4666 
z
" transform="scale(0.015625)"/>
      <path id="DejaVuSans-63" d="M 3122 3366 
L 3122 2828 
Q 2878 2963 2633 3030 
Q 2388 3097 2138 3097 
Q 1578 3097 1268 2742 
Q 959 2388 959 1747 
Q 959 1106 1268 751 
Q 1578 397 2138 397 
Q 2388 397 2633 464 
Q 2878 531 3122 666 
L 3122 134 
Q 2881 22 2623 -34 
Q 2366 -91 2075 -91 
Q 1284 -91 818 406 
Q 353 903 353 1747 
Q 353 2603 823 3093 
Q 1294 3584 2113 3584 
Q 2378 3584 2631 3529 
Q 2884 3475 3122 3366 
z
" transform="scale(0.015625)"/>
      <path id="DejaVuSans-61" d="M 2194 1759 
Q 1497 1759 1228 1600 
Q 959 1441 959 1056 
Q 959 750 1161 570 
Q 1363 391 1709 391 
Q 2188 391 2477 730 
Q 2766 1069 2766 1631 
L 2766 1759 
L 2194 1759 
z
M 3341 1997 
L 3341 0 
L 2766 0 
L 2766 531 
Q 2569 213 2275 61 
Q 1981 -91 1556 -91 
Q 1019 -91 701 211 
Q 384 513 384 1019 
Q 384 1609 779 1909 
Q 1175 2209 1959 2209 
L 2766 2209 
L 2766 2266 
Q 2766 2663 2505 2880 
Q 2244 3097 1772 3097 
Q 1472 3097 1187 3025 
Q 903 2953 641 2809 
L 641 3341 
Q 956 3463 1253 3523 
Q 1550 3584 1831 3584 
Q 2591 3584 2966 3190 
Q 3341 2797 3341 1997 
z
" transform="scale(0.015625)"/>
      <path id="DejaVuSans-46" d="M 628 4666 
L 3309 4666 
L 3309 4134 
L 1259 4134 
L 1259 2759 
L 3109 2759 
L 3109 2228 
L 1259 2228 
L 1259 0 
L 628 0 
L 628 4666 
z
" transform="scale(0.015625)"/>
     </defs>
     <use xlink:href="#DejaVuSans-35"/>
     <use xlink:href="#DejaVuSans-5f" x="63.623047"/>
     <use xlink:href="#DejaVuSans-49" x="113.623047"/>
     <use xlink:href="#DejaVuSans-6e" x="143.115234"/>
     <use xlink:href="#DejaVuSans-64" x="206.494141"/>
     <use xlink:href="#DejaVuSans-75" x="269.970703"/>
     <use xlink:href="#DejaVuSans-73" x="333.349609"/>
     <use xlink:href="#DejaVuSans-74" x="385.449219"/>
     <use xlink:href="#DejaVuSans-72" x="424.658203"/>
     <use xlink:href="#DejaVuSans-79" x="465.771484"/>
     <use xlink:href="#DejaVuSans-5f" x="524.951172"/>
     <use xlink:href="#DejaVuSans-50" x="574.951172"/>
     <use xlink:href="#DejaVuSans-6f" x="631.628906"/>
     <use xlink:href="#DejaVuSans-72" x="692.810547"/>
     <use xlink:href="#DejaVuSans-74" x="733.923828"/>
     <use xlink:href="#DejaVuSans-66" x="773.132812"/>
     <use xlink:href="#DejaVuSans-6f" x="808.337891"/>
     <use xlink:href="#DejaVuSans-6c" x="869.519531"/>
     <use xlink:href="#DejaVuSans-69" x="897.302734"/>
     <use xlink:href="#DejaVuSans-6f" x="925.085938"/>
     <use xlink:href="#DejaVuSans-73" x="986.267578"/>
     <use xlink:href="#DejaVuSans-20" x="1038.367188"/>
     <use xlink:href="#DejaVuSans-2d" x="1070.154297"/>
     <use xlink:href="#DejaVuSans-20" x="1106.238281"/>
     <use xlink:href="#DejaVuSans-50" x="1138.025391"/>
     <use xlink:href="#DejaVuSans-6f" x="1194.703125"/>
     <use xlink:href="#DejaVuSans-72" x="1255.884766"/>
     <use xlink:href="#DejaVuSans-74" x="1296.998047"/>
     <use xlink:href="#DejaVuSans-66" x="1336.207031"/>
     <use xlink:href="#DejaVuSans-6f" x="1371.412109"/>
     <use xlink:href="#DejaVuSans-6c" x="1432.59375"/>
     <use xlink:href="#DejaVuSans-69" x="1460.376953"/>
     <use xlink:href="#DejaVuSans-6f" x="1488.160156"/>
     <use xlink:href="#DejaVuSans-20" x="1549.341797"/>
     <use xlink:href="#DejaVuSans-41" x="1581.128906"/>
     <use xlink:href="#DejaVuSans-6c" x="1649.537109"/>
     <use xlink:href="#DejaVuSans-6c" x="1677.320312"/>
     <use xlink:href="#DejaVuSans-6f" x="1705.103516"/>
     <use xlink:href="#DejaVuSans-63" x="1766.285156"/>
     <use xlink:href="#DejaVuSans-61" x="1821.265625"/>
     <use xlink:href="#DejaVuSans-74" x="1882.544922"/>
     <use xlink:href="#DejaVuSans-69" x="1921.753906"/>
     <use xlink:href="#DejaVuSans-6f" x="1949.537109"/>
     <use xlink:href="#DejaVuSans-6e" x="2010.71875"/>
     <use xlink:href="#DejaVuSans-20" x="2074.097656"/>
     <use xlink:href="#DejaVuSans-66" x="2105.884766"/>
     <use xlink:href="#DejaVuSans-6f" x="2141.089844"/>
     <use xlink:href="#DejaVuSans-72" x="2202.271484"/>
     <use xlink:href="#DejaVuSans-20" x="2243.384766"/>
     <use xlink:href="#DejaVuSans-46" x="2275.171875"/>
     <use xlink:href="#DejaVuSans-46" x="2332.691406"/>
    </g>
   </g>
  </g>
 </g>
 <defs>
  <clipPath id="p9a64d55aba">
   <rect x="29.532813" y="16.94175" width="837" height="221.76"/>
  </clipPath>
 </defs>
</svg>
