<?xml version="1.0" encoding="utf-8" standalone="no"?>
<!DOCTYPE svg PUBLIC "-//W3C//DTD SVG 1.1//EN"
  "http://www.w3.org/Graphics/SVG/1.1/DTD/svg11.dtd">
<svg xmlns:xlink="http://www.w3.org/1999/xlink" width="864.515625pt" height="253.629875pt" viewBox="0 0 864.515625 253.629875" xmlns="http://www.w3.org/2000/svg" version="1.1">
 <metadata>
  <rdf:RDF xmlns:dc="http://purl.org/dc/elements/1.1/" xmlns:cc="http://creativecommons.org/ns#" xmlns:rdf="http://www.w3.org/1999/02/22-rdf-syntax-ns#">
   <cc:Work>
    <dc:type rdf:resource="http://purl.org/dc/dcmitype/StillImage"/>
    <dc:date>2025-08-06T21:52:44.590783</dc:date>
    <dc:format>image/svg+xml</dc:format>
    <dc:creator>
     <cc:Agent>
      <dc:title>Matplotlib v3.9.2, https://matplotlib.org/</dc:title>
     </cc:Agent>
    </dc:creator>
   </cc:Work>
  </rdf:RDF>
 </metadata>
 <defs>
  <style type="text/css">*{stroke-linejoin: round; stroke-linecap: butt}</style>
 </defs>
 <g id="figure_1">
  <g id="patch_1">
   <path d="M 0 253.629875 
L 864.515625 253.629875 
L 864.515625 0 
L 0 0 
z
" style="fill: #ffffff"/>
  </g>
  <g id="axes_1">
   <g id="patch_2">
    <path d="M 27.515625 238.70175 
L 864.515625 238.70175 
L 864.515625 16.94175 
L 27.515625 16.94175 
z
" style="fill: #ffffff"/>
   </g>
   <g id="matplotlib.axis_1">
    <g id="xtick_1">
     <g id="line2d_1">
      <defs>
       <path id="m4f153004d7" d="M 0 1.75 
L 0 -1.75 
" style="stroke: #000000; stroke-width: 0.8"/>
      </defs>
      <g>
       <use xlink:href="#m4f153004d7" x="82.993326" y="238.70175" style="stroke: #000000; stroke-width: 0.8"/>
      </g>
     </g>
     <g id="text_1">
      <!-- 1992 -->
      <g transform="translate(70.268326 251.550188) scale(0.1 -0.1)">
       <defs>
        <path id="DejaVuSans-31" d="M 794 531 
L 1825 531 
L 1825 4091 
L 703 3866 
L 703 4441 
L 1819 4666 
L 2450 4666 
L 2450 531 
L 3481 531 
L 3481 0 
L 794 0 
L 794 531 
z
" transform="scale(0.015625)"/>
        <path id="DejaVuSans-39" d="M 703 97 
L 703 672 
Q 941 559 1184 500 
Q 1428 441 1663 441 
Q 2288 441 2617 861 
Q 2947 1281 2994 2138 
Q 2813 1869 2534 1725 
Q 2256 1581 1919 1581 
Q 1219 1581 811 2004 
Q 403 2428 403 3163 
Q 403 3881 828 4315 
Q 1253 4750 1959 4750 
Q 2769 4750 3195 4129 
Q 3622 3509 3622 2328 
Q 3622 1225 3098 567 
Q 2575 -91 1691 -91 
Q 1453 -91 1209 -44 
Q 966 3 703 97 
z
M 1959 2075 
Q 2384 2075 2632 2365 
Q 2881 2656 2881 3163 
Q 2881 3666 2632 3958 
Q 2384 4250 1959 4250 
Q 1534 4250 1286 3958 
Q 1038 3666 1038 3163 
Q 1038 2656 1286 2365 
Q 1534 2075 1959 2075 
z
" transform="scale(0.015625)"/>
        <path id="DejaVuSans-32" d="M 1228 531 
L 3431 531 
L 3431 0 
L 469 0 
L 469 531 
Q 828 903 1448 1529 
Q 2069 2156 2228 2338 
Q 2531 2678 2651 2914 
Q 2772 3150 2772 3378 
Q 2772 3750 2511 3984 
Q 2250 4219 1831 4219 
Q 1534 4219 1204 4116 
Q 875 4013 500 3803 
L 500 4441 
Q 881 4594 1212 4672 
Q 1544 4750 1819 4750 
Q 2544 4750 2975 4387 
Q 3406 4025 3406 3419 
Q 3406 3131 3298 2873 
Q 3191 2616 2906 2266 
Q 2828 2175 2409 1742 
Q 1991 1309 1228 531 
z
" transform="scale(0.015625)"/>
       </defs>
       <use xlink:href="#DejaVuSans-31"/>
       <use xlink:href="#DejaVuSans-39" x="63.623047"/>
       <use xlink:href="#DejaVuSans-39" x="127.246094"/>
       <use xlink:href="#DejaVuSans-32" x="190.869141"/>
      </g>
     </g>
    </g>
    <g id="xtick_2">
     <g id="line2d_2">
      <g>
       <use xlink:href="#m4f153004d7" x="198.783213" y="238.70175" style="stroke: #000000; stroke-width: 0.8"/>
      </g>
     </g>
     <g id="text_2">
      <!-- 1996 -->
      <g transform="translate(186.058213 251.550188) scale(0.1 -0.1)">
       <defs>
        <path id="DejaVuSans-36" d="M 2113 2584 
Q 1688 2584 1439 2293 
Q 1191 2003 1191 1497 
Q 1191 994 1439 701 
Q 1688 409 2113 409 
Q 2538 409 2786 701 
Q 3034 994 3034 1497 
Q 3034 2003 2786 2293 
Q 2538 2584 2113 2584 
z
M 3366 4563 
L 3366 3988 
Q 3128 4100 2886 4159 
Q 2644 4219 2406 4219 
Q 1781 4219 1451 3797 
Q 1122 3375 1075 2522 
Q 1259 2794 1537 2939 
Q 1816 3084 2150 3084 
Q 2853 3084 3261 2657 
Q 3669 2231 3669 1497 
Q 3669 778 3244 343 
Q 2819 -91 2113 -91 
Q 1303 -91 875 529 
Q 447 1150 447 2328 
Q 447 3434 972 4092 
Q 1497 4750 2381 4750 
Q 2619 4750 2861 4703 
Q 3103 4656 3366 4563 
z
" transform="scale(0.015625)"/>
       </defs>
       <use xlink:href="#DejaVuSans-31"/>
       <use xlink:href="#DejaVuSans-39" x="63.623047"/>
       <use xlink:href="#DejaVuSans-39" x="127.246094"/>
       <use xlink:href="#DejaVuSans-36" x="190.869141"/>
      </g>
     </g>
    </g>
    <g id="xtick_3">
     <g id="line2d_3">
      <g>
       <use xlink:href="#m4f153004d7" x="314.573101" y="238.70175" style="stroke: #000000; stroke-width: 0.8"/>
      </g>
     </g>
     <g id="text_3">
      <!-- 2000 -->
      <g transform="translate(301.848101 251.550188) scale(0.1 -0.1)">
       <defs>
        <path id="DejaVuSans-30" d="M 2034 4250 
Q 1547 4250 1301 3770 
Q 1056 3291 1056 2328 
Q 1056 1369 1301 889 
Q 1547 409 2034 409 
Q 2525 409 2770 889 
Q 3016 1369 3016 2328 
Q 3016 3291 2770 3770 
Q 2525 4250 2034 4250 
z
M 2034 4750 
Q 2819 4750 3233 4129 
Q 3647 3509 3647 2328 
Q 3647 1150 3233 529 
Q 2819 -91 2034 -91 
Q 1250 -91 836 529 
Q 422 1150 422 2328 
Q 422 3509 836 4129 
Q 1250 4750 2034 4750 
z
" transform="scale(0.015625)"/>
       </defs>
       <use xlink:href="#DejaVuSans-32"/>
       <use xlink:href="#DejaVuSans-30" x="63.623047"/>
       <use xlink:href="#DejaVuSans-30" x="127.246094"/>
       <use xlink:href="#DejaVuSans-30" x="190.869141"/>
      </g>
     </g>
    </g>
    <g id="xtick_4">
     <g id="line2d_4">
      <g>
       <use xlink:href="#m4f153004d7" x="430.362988" y="238.70175" style="stroke: #000000; stroke-width: 0.8"/>
      </g>
     </g>
     <g id="text_4">
      <!-- 2004 -->
      <g transform="translate(417.637988 251.550188) scale(0.1 -0.1)">
       <defs>
        <path id="DejaVuSans-34" d="M 2419 4116 
L 825 1625 
L 2419 1625 
L 2419 4116 
z
M 2253 4666 
L 3047 4666 
L 3047 1625 
L 3713 1625 
L 3713 1100 
L 3047 1100 
L 3047 0 
L 2419 0 
L 2419 1100 
L 313 1100 
L 313 1709 
L 2253 4666 
z
" transform="scale(0.015625)"/>
       </defs>
       <use xlink:href="#DejaVuSans-32"/>
       <use xlink:href="#DejaVuSans-30" x="63.623047"/>
       <use xlink:href="#DejaVuSans-30" x="127.246094"/>
       <use xlink:href="#DejaVuSans-34" x="190.869141"/>
      </g>
     </g>
    </g>
    <g id="xtick_5">
     <g id="line2d_5">
      <g>
       <use xlink:href="#m4f153004d7" x="546.152875" y="238.70175" style="stroke: #000000; stroke-width: 0.8"/>
      </g>
     </g>
     <g id="text_5">
      <!-- 2008 -->
      <g transform="translate(533.427875 251.550188) scale(0.1 -0.1)">
       <defs>
        <path id="DejaVuSans-38" d="M 2034 2216 
Q 1584 2216 1326 1975 
Q 1069 1734 1069 1313 
Q 1069 891 1326 650 
Q 1584 409 2034 409 
Q 2484 409 2743 651 
Q 3003 894 3003 1313 
Q 3003 1734 2745 1975 
Q 2488 2216 2034 2216 
z
M 1403 2484 
Q 997 2584 770 2862 
Q 544 3141 544 3541 
Q 544 4100 942 4425 
Q 1341 4750 2034 4750 
Q 2731 4750 3128 4425 
Q 3525 4100 3525 3541 
Q 3525 3141 3298 2862 
Q 3072 2584 2669 2484 
Q 3125 2378 3379 2068 
Q 3634 1759 3634 1313 
Q 3634 634 3220 271 
Q 2806 -91 2034 -91 
Q 1263 -91 848 271 
Q 434 634 434 1313 
Q 434 1759 690 2068 
Q 947 2378 1403 2484 
z
M 1172 3481 
Q 1172 3119 1398 2916 
Q 1625 2713 2034 2713 
Q 2441 2713 2670 2916 
Q 2900 3119 2900 3481 
Q 2900 3844 2670 4047 
Q 2441 4250 2034 4250 
Q 1625 4250 1398 4047 
Q 1172 3844 1172 3481 
z
" transform="scale(0.015625)"/>
       </defs>
       <use xlink:href="#DejaVuSans-32"/>
       <use xlink:href="#DejaVuSans-30" x="63.623047"/>
       <use xlink:href="#DejaVuSans-30" x="127.246094"/>
       <use xlink:href="#DejaVuSans-38" x="190.869141"/>
      </g>
     </g>
    </g>
    <g id="xtick_6">
     <g id="line2d_6">
      <g>
       <use xlink:href="#m4f153004d7" x="661.942763" y="238.70175" style="stroke: #000000; stroke-width: 0.8"/>
      </g>
     </g>
     <g id="text_6">
      <!-- 2012 -->
      <g transform="translate(649.217763 251.550188) scale(0.1 -0.1)">
       <use xlink:href="#DejaVuSans-32"/>
       <use xlink:href="#DejaVuSans-30" x="63.623047"/>
       <use xlink:href="#DejaVuSans-31" x="127.246094"/>
       <use xlink:href="#DejaVuSans-32" x="190.869141"/>
      </g>
     </g>
    </g>
    <g id="xtick_7">
     <g id="line2d_7">
      <g>
       <use xlink:href="#m4f153004d7" x="777.73265" y="238.70175" style="stroke: #000000; stroke-width: 0.8"/>
      </g>
     </g>
     <g id="text_7">
      <!-- 2016 -->
      <g transform="translate(765.00765 251.550188) scale(0.1 -0.1)">
       <use xlink:href="#DejaVuSans-32"/>
       <use xlink:href="#DejaVuSans-30" x="63.623047"/>
       <use xlink:href="#DejaVuSans-31" x="127.246094"/>
       <use xlink:href="#DejaVuSans-36" x="190.869141"/>
      </g>
     </g>
    </g>
   </g>
   <g id="matplotlib.axis_2">
    <g id="ytick_1">
     <g id="line2d_8">
      <path d="M 27.515625 221.684412 
L 864.515625 221.684412 
" clip-path="url(#pcbd01cb489)" style="fill: none; stroke-dasharray: 1.85,0.8; stroke-dashoffset: 0; stroke: #b2b2b2; stroke-width: 0.5"/>
     </g>
     <g id="line2d_9">
      <defs>
       <path id="mc411e9c780" d="M 1.75 0 
L -1.75 -0 
" style="stroke: #000000; stroke-width: 0.8"/>
      </defs>
      <g>
       <use xlink:href="#mc411e9c780" x="27.515625" y="221.684412" style="stroke: #000000; stroke-width: 0.8"/>
      </g>
     </g>
     <g id="text_8">
      <!-- 0.17 -->
      <g transform="translate(0 225.483631) scale(0.1 -0.1)">
       <defs>
        <path id="DejaVuSans-2e" d="M 684 794 
L 1344 794 
L 1344 0 
L 684 0 
L 684 794 
z
" transform="scale(0.015625)"/>
        <path id="DejaVuSans-37" d="M 525 4666 
L 3525 4666 
L 3525 4397 
L 1831 0 
L 1172 0 
L 2766 4134 
L 525 4134 
L 525 4666 
z
" transform="scale(0.015625)"/>
       </defs>
       <use xlink:href="#DejaVuSans-30"/>
       <use xlink:href="#DejaVuSans-2e" x="63.623047"/>
       <use xlink:href="#DejaVuSans-31" x="95.410156"/>
       <use xlink:href="#DejaVuSans-37" x="159.033203"/>
      </g>
     </g>
    </g>
    <g id="ytick_2">
     <g id="line2d_10">
      <path d="M 27.515625 187.301665 
L 864.515625 187.301665 
" clip-path="url(#pcbd01cb489)" style="fill: none; stroke-dasharray: 1.85,0.8; stroke-dashoffset: 0; stroke: #b2b2b2; stroke-width: 0.5"/>
     </g>
     <g id="line2d_11">
      <g>
       <use xlink:href="#mc411e9c780" x="27.515625" y="187.301665" style="stroke: #000000; stroke-width: 0.8"/>
      </g>
     </g>
     <g id="text_9">
      <!-- 0.18 -->
      <g transform="translate(0 191.100884) scale(0.1 -0.1)">
       <use xlink:href="#DejaVuSans-30"/>
       <use xlink:href="#DejaVuSans-2e" x="63.623047"/>
       <use xlink:href="#DejaVuSans-31" x="95.410156"/>
       <use xlink:href="#DejaVuSans-38" x="159.033203"/>
      </g>
     </g>
    </g>
    <g id="ytick_3">
     <g id="line2d_12">
      <path d="M 27.515625 152.918918 
L 864.515625 152.918918 
" clip-path="url(#pcbd01cb489)" style="fill: none; stroke-dasharray: 1.85,0.8; stroke-dashoffset: 0; stroke: #b2b2b2; stroke-width: 0.5"/>
     </g>
     <g id="line2d_13">
      <g>
       <use xlink:href="#mc411e9c780" x="27.515625" y="152.918918" style="stroke: #000000; stroke-width: 0.8"/>
      </g>
     </g>
     <g id="text_10">
      <!-- 0.19 -->
      <g transform="translate(0 156.718136) scale(0.1 -0.1)">
       <use xlink:href="#DejaVuSans-30"/>
       <use xlink:href="#DejaVuSans-2e" x="63.623047"/>
       <use xlink:href="#DejaVuSans-31" x="95.410156"/>
       <use xlink:href="#DejaVuSans-39" x="159.033203"/>
      </g>
     </g>
    </g>
    <g id="ytick_4">
     <g id="line2d_14">
      <path d="M 27.515625 118.53617 
L 864.515625 118.53617 
" clip-path="url(#pcbd01cb489)" style="fill: none; stroke-dasharray: 1.85,0.8; stroke-dashoffset: 0; stroke: #b2b2b2; stroke-width: 0.5"/>
     </g>
     <g id="line2d_15">
      <g>
       <use xlink:href="#mc411e9c780" x="27.515625" y="118.53617" style="stroke: #000000; stroke-width: 0.8"/>
      </g>
     </g>
     <g id="text_11">
      <!-- 0.20 -->
      <g transform="translate(0 122.335389) scale(0.1 -0.1)">
       <use xlink:href="#DejaVuSans-30"/>
       <use xlink:href="#DejaVuSans-2e" x="63.623047"/>
       <use xlink:href="#DejaVuSans-32" x="95.410156"/>
       <use xlink:href="#DejaVuSans-30" x="159.033203"/>
      </g>
     </g>
    </g>
    <g id="ytick_5">
     <g id="line2d_16">
      <path d="M 27.515625 84.153423 
L 864.515625 84.153423 
" clip-path="url(#pcbd01cb489)" style="fill: none; stroke-dasharray: 1.85,0.8; stroke-dashoffset: 0; stroke: #b2b2b2; stroke-width: 0.5"/>
     </g>
     <g id="line2d_17">
      <g>
       <use xlink:href="#mc411e9c780" x="27.515625" y="84.153423" style="stroke: #000000; stroke-width: 0.8"/>
      </g>
     </g>
     <g id="text_12">
      <!-- 0.21 -->
      <g transform="translate(0 87.952642) scale(0.1 -0.1)">
       <use xlink:href="#DejaVuSans-30"/>
       <use xlink:href="#DejaVuSans-2e" x="63.623047"/>
       <use xlink:href="#DejaVuSans-32" x="95.410156"/>
       <use xlink:href="#DejaVuSans-31" x="159.033203"/>
      </g>
     </g>
    </g>
    <g id="ytick_6">
     <g id="line2d_18">
      <path d="M 27.515625 49.770676 
L 864.515625 49.770676 
" clip-path="url(#pcbd01cb489)" style="fill: none; stroke-dasharray: 1.85,0.8; stroke-dashoffset: 0; stroke: #b2b2b2; stroke-width: 0.5"/>
     </g>
     <g id="line2d_19">
      <g>
       <use xlink:href="#mc411e9c780" x="27.515625" y="49.770676" style="stroke: #000000; stroke-width: 0.8"/>
      </g>
     </g>
     <g id="text_13">
      <!-- 0.22 -->
      <g transform="translate(0 53.569894) scale(0.1 -0.1)">
       <use xlink:href="#DejaVuSans-30"/>
       <use xlink:href="#DejaVuSans-2e" x="63.623047"/>
       <use xlink:href="#DejaVuSans-32" x="95.410156"/>
       <use xlink:href="#DejaVuSans-32" x="159.033203"/>
      </g>
     </g>
    </g>
   </g>
   <g id="line2d_20">
    <path d="M 27.515625 118.119743 
L 29.734733 117.488662 
L 32.191603 106.925213 
L 34.569218 113.826205 
L 37.026088 118.949116 
L 39.403704 110.259784 
L 41.860573 126.22079 
L 44.317443 123.504753 
L 46.695059 126.951146 
L 49.151928 112.665793 
L 51.529544 118.689417 
L 53.986414 117.457632 
L 56.443283 110.31029 
L 58.662391 109.311453 
L 61.119261 102.962011 
L 63.496877 118.646156 
L 65.953746 103.731561 
L 68.331362 118.637101 
L 70.788232 120.327824 
L 73.245101 111.084055 
L 75.622717 133.198175 
L 78.079587 141.881857 
L 80.457203 102.831396 
L 82.914072 109.902411 
L 85.370942 118.494676 
L 87.669304 106.832563 
L 90.126173 108.048842 
L 92.503789 126.812314 
L 94.960659 118.905385 
L 97.338274 116.666893 
L 99.795144 121.544158 
L 102.252014 108.264883 
L 104.629629 109.852385 
L 107.086499 120.214566 
L 109.464115 112.305197 
L 111.920984 124.495756 
L 114.377854 115.821581 
L 116.596962 124.510234 
L 119.053832 121.896486 
L 121.431447 152.832894 
L 123.888317 115.983045 
L 126.265933 126.803631 
L 128.722802 115.328669 
L 131.179672 120.865589 
L 133.557288 125.900669 
L 136.014157 96.011905 
L 138.391773 105.360783 
L 140.848643 127.490081 
L 143.305512 128.506639 
L 145.52462 102.510643 
L 147.98149 118.752709 
L 150.359106 122.332362 
L 152.815975 140.65959 
L 155.193591 116.429272 
L 157.650461 122.456986 
L 160.10733 124.903467 
L 162.484946 121.759487 
L 164.941816 121.484635 
L 167.319431 117.21654 
L 169.776301 126.82854 
L 172.233171 132.882947 
L 174.452279 123.092808 
L 176.909148 116.660443 
L 179.286764 134.235015 
L 181.743634 114.033247 
L 186.578119 131.720032 
L 189.034989 130.757397 
L 191.412604 121.265849 
L 193.869474 132.10119 
L 196.24709 112.728785 
L 198.703959 125.969038 
L 201.160829 128.275947 
L 203.459191 105.576113 
L 205.916061 106.849836 
L 208.293676 116.947369 
L 210.750546 105.132398 
L 213.128162 115.852828 
L 215.585031 117.64688 
L 218.041901 123.810354 
L 220.419517 133.855861 
L 222.876386 122.744718 
L 225.254002 133.412392 
L 227.710872 119.442999 
L 230.167741 136.86775 
L 232.386849 98.401851 
L 234.843719 107.976892 
L 237.221335 124.686954 
L 239.678204 125.53602 
L 242.05582 123.271743 
L 244.51269 127.994602 
L 246.969559 117.060793 
L 249.347175 121.732088 
L 251.804045 117.033998 
L 254.18166 109.033401 
L 256.63853 117.578546 
L 259.0954 132.87278 
L 261.314508 112.277416 
L 263.771377 110.3732 
L 266.148993 136.96023 
L 268.605863 85.642636 
L 270.983478 117.90168 
L 273.440348 127.554734 
L 275.897218 113.635555 
L 278.274833 154.345233 
L 280.731703 95.853553 
L 283.109319 109.573 
L 285.566188 125.543127 
L 288.023058 134.037606 
L 290.242166 117.941754 
L 292.699036 137.319904 
L 295.076651 124.362405 
L 297.533521 116.265155 
L 299.911137 121.452467 
L 302.368006 124.299238 
L 304.824876 145.456528 
L 307.202492 114.791176 
L 309.659361 134.155927 
L 312.036977 121.999578 
L 314.493847 128.039519 
L 316.950716 153.52282 
L 319.249078 145.555518 
L 321.705948 97.580502 
L 324.083564 122.479451 
L 326.540433 118.826606 
L 328.918049 148.208085 
L 331.374919 107.8112 
L 333.831788 167.074993 
L 336.209404 92.711964 
L 338.666274 101.716192 
L 341.043889 80.647396 
L 343.500759 105.357184 
L 345.957629 102.918424 
L 348.176737 94.33269 
L 350.633606 98.140434 
L 353.011222 138.26072 
L 355.468092 114.804446 
L 357.845707 115.602273 
L 360.302577 93.690861 
L 362.759447 110.595213 
L 365.137062 116.397158 
L 367.593932 126.750296 
L 369.971548 117.342748 
L 372.428417 108.339562 
L 374.885287 96.418248 
L 377.104395 99.084476 
L 379.561265 124.588982 
L 381.93888 82.450333 
L 384.39575 111.466925 
L 386.773366 107.128343 
L 389.230235 132.57238 
L 391.687105 109.746894 
L 394.064721 111.662517 
L 396.52159 138.647807 
L 398.899206 147.109379 
L 401.356076 111.82635 
L 403.812945 130.665692 
L 406.032053 120.875657 
L 410.866539 118.421127 
L 413.323408 121.038242 
L 415.701024 111.965702 
L 418.157894 121.474233 
L 420.614763 103.972737 
L 422.992379 127.446864 
L 425.449249 105.186174 
L 427.826864 116.381999 
L 430.283734 142.25703 
L 432.740604 130.726626 
L 435.038966 96.484674 
L 437.495835 108.648978 
L 439.873451 117.439055 
L 442.330321 129.693075 
L 444.707936 123.68436 
L 447.164806 123.043124 
L 449.621676 123.465744 
L 451.999291 122.602328 
L 454.456161 109.946939 
L 456.833777 118.654836 
L 459.290646 116.10948 
L 461.747516 107.990095 
L 463.966624 129.621961 
L 466.423494 114.431268 
L 468.801109 133.998699 
L 471.257979 109.971804 
L 473.635595 116.293044 
L 476.092464 116.756218 
L 478.549334 135.519759 
L 480.92695 130.043893 
L 483.383819 105.575591 
L 485.761435 123.74286 
L 488.218305 122.430834 
L 490.675174 130.47467 
L 492.894282 111.106739 
L 495.351152 115.272521 
L 497.728768 125.712057 
L 500.185637 101.390067 
L 502.563253 116.502826 
L 505.020123 128.651168 
L 507.476992 118.764084 
L 509.854608 111.521481 
L 512.311478 117.765421 
L 514.689093 131.460847 
L 517.145963 114.994717 
L 519.602833 114.200711 
L 521.821941 113.713219 
L 524.27881 117.1487 
L 526.656426 127.140422 
L 529.113296 123.155414 
L 531.490911 116.186265 
L 533.947781 129.668018 
L 536.404651 119.200192 
L 538.782266 132.632365 
L 541.239136 121.918787 
L 543.616752 108.696411 
L 546.073621 125.231853 
L 548.530491 96.886477 
L 550.828853 120.710506 
L 553.285723 105.999136 
L 555.663338 127.701729 
L 558.120208 118.899888 
L 560.497824 124.543257 
L 562.954693 112.937153 
L 565.411563 106.475839 
L 567.789179 91.410068 
L 570.246048 109.781779 
L 572.623664 112.667435 
L 575.080534 114.831017 
L 577.537403 113.764402 
L 579.756511 85.596439 
L 582.213381 120.367727 
L 584.590997 118.88928 
L 587.047866 138.330453 
L 589.425482 121.825275 
L 591.882352 117.679208 
L 594.339221 123.507202 
L 596.716837 123.646976 
L 599.173707 103.157531 
L 601.551322 125.147862 
L 604.008192 120.690905 
L 606.465062 112.3787 
L 608.68417 113.561185 
L 611.141039 116.095652 
L 613.518655 117.898863 
L 615.975525 103.793573 
L 618.35314 128.840994 
L 620.81001 117.77313 
L 623.26688 111.524854 
L 625.644495 116.501391 
L 628.101365 118.496346 
L 630.478981 101.417496 
L 632.93585 133.70712 
L 635.39272 137.671577 
L 637.611828 122.815574 
L 640.068698 111.320813 
L 642.446313 112.835721 
L 644.903183 107.013626 
L 647.280799 113.640336 
L 649.737668 110.850905 
L 652.194538 99.831793 
L 654.572154 104.618605 
L 657.029023 125.799649 
L 659.406639 115.234106 
L 661.863509 118.644959 
L 664.320378 128.115182 
L 666.61874 120.414828 
L 669.07561 113.39597 
L 671.453226 113.073652 
L 673.910095 101.29086 
L 676.287711 132.305639 
L 678.744581 116.314499 
L 681.20145 121.936942 
L 683.579066 127.09996 
L 686.035936 112.777525 
L 688.413551 109.336545 
L 690.870421 130.910634 
L 693.327291 122.848464 
L 695.546399 116.296694 
L 698.003268 115.716022 
L 700.380884 108.70828 
L 702.837754 128.587646 
L 705.215369 110.378803 
L 707.672239 124.094237 
L 710.129109 125.375479 
L 712.506724 118.801137 
L 714.963594 115.5385 
L 717.34121 122.266547 
L 719.798079 126.733738 
L 722.254949 140.177197 
L 724.474057 118.54928 
L 726.930927 115.215425 
L 729.308542 118.096054 
L 731.765412 119.560891 
L 734.143028 125.00386 
L 736.599897 126.712354 
L 739.056767 113.466328 
L 741.434383 117.667901 
L 743.891252 119.418276 
L 746.268868 94.40346 
L 748.725738 117.214525 
L 751.182607 106.863081 
L 753.401715 119.601657 
L 755.858585 115.648789 
L 758.236201 127.677128 
L 763.070686 115.747626 
L 765.527556 100.054675 
L 767.984425 110.038464 
L 770.362041 105.974572 
L 772.818911 131.387146 
L 775.196526 119.083231 
L 777.653396 105.270778 
L 780.110266 99.700322 
L 782.408628 114.64342 
L 784.865497 124.251791 
L 787.243113 129.509388 
L 789.699983 125.122359 
L 792.077598 107.763651 
L 794.534468 127.447694 
L 796.991338 125.573253 
L 799.368953 129.63601 
L 801.825823 118.578546 
L 804.203439 138.840269 
L 806.660308 120.524785 
L 809.117178 121.263192 
L 811.336286 124.622198 
L 813.793156 114.37622 
L 816.170771 113.788187 
L 818.627641 110.688779 
L 821.005257 135.890709 
L 823.462126 130.007683 
L 825.918996 131.173057 
L 828.296612 124.752987 
L 830.753481 118.698458 
L 833.131097 102.56895 
L 835.587967 111.801791 
L 838.044836 113.691604 
L 840.263944 128.11772 
L 842.720814 120.516306 
L 845.09843 115.073741 
L 847.555299 131.177577 
L 849.932915 102.639629 
L 852.389785 124.931479 
L 854.846654 110.453463 
L 857.22427 120.109595 
L 859.68114 107.212645 
L 862.058755 121.754524 
L 864.515625 118.53617 
L 864.515625 118.53617 
" clip-path="url(#pcbd01cb489)" style="fill: none; stroke: #e69f00; stroke-width: 2; stroke-linecap: square"/>
   </g>
   <g id="line2d_21">
    <path d="M 27.515625 104.214054 
L 29.734733 111.366863 
L 32.191603 125.920097 
L 34.569218 128.237293 
L 37.026088 136.780869 
L 39.403704 123.389267 
L 41.860573 92.190894 
L 44.317443 107.246699 
L 46.695059 109.69899 
L 49.151928 113.709106 
L 51.529544 138.930713 
L 53.986414 127.177795 
L 56.443283 140.376403 
L 58.662391 129.796687 
L 61.119261 132.263224 
L 63.496877 112.528229 
L 65.953746 122.418914 
L 68.331362 112.004515 
L 70.788232 127.455205 
L 73.245101 122.790699 
L 75.622717 115.270226 
L 78.079587 122.909282 
L 80.457203 123.675915 
L 82.914072 145.211169 
L 85.370942 120.292756 
L 87.669304 120.373364 
L 90.126173 109.179552 
L 92.503789 95.844837 
L 94.960659 116.033717 
L 97.338274 120.74276 
L 99.795144 117.784173 
L 102.252014 111.646377 
L 104.629629 116.600381 
L 107.086499 132.261116 
L 109.464115 139.51641 
L 111.920984 116.639938 
L 114.377854 112.119867 
L 116.596962 87.155009 
L 119.053832 117.25925 
L 121.431447 99.385286 
L 123.888317 130.477348 
L 126.265933 117.052971 
L 128.722802 108.177746 
L 131.179672 120.005292 
L 133.557288 126.243523 
L 136.014157 130.261682 
L 138.391773 123.814682 
L 140.848643 113.647308 
L 143.305512 114.874095 
L 145.52462 113.89683 
L 147.98149 114.349754 
L 150.359106 116.345536 
L 152.815975 127.586044 
L 155.193591 118.479609 
L 157.650461 107.670291 
L 160.10733 135.341657 
L 162.484946 122.317638 
L 164.941816 114.586851 
L 167.319431 126.652604 
L 169.776301 112.011027 
L 172.233171 129.938646 
L 174.452279 114.946493 
L 176.909148 117.196365 
L 179.286764 118.495986 
L 181.743634 113.966636 
L 184.121249 138.995765 
L 186.578119 130.863937 
L 189.034989 127.695286 
L 191.412604 128.848291 
L 193.869474 122.045322 
L 196.24709 113.913966 
L 198.703959 110.995384 
L 201.160829 124.473432 
L 203.459191 127.24392 
L 205.916061 104.534362 
L 208.293676 124.218156 
L 210.750546 126.581106 
L 213.128162 108.660363 
L 215.585031 109.77447 
L 218.041901 119.481794 
L 220.419517 124.939983 
L 222.876386 105.311251 
L 225.254002 127.680861 
L 227.710872 108.909838 
L 230.167741 133.102766 
L 232.386849 127.018113 
L 234.843719 93.801422 
L 237.221335 130.522985 
L 239.678204 118.407733 
L 242.05582 124.189998 
L 244.51269 121.770261 
L 246.969559 115.413526 
L 249.347175 128.94239 
L 251.804045 125.82029 
L 254.18166 124.18467 
L 256.63853 126.885033 
L 259.0954 138.439078 
L 261.314508 124.01258 
L 263.771377 117.645188 
L 266.148993 118.345951 
L 268.605863 121.378127 
L 270.983478 147.180749 
L 273.440348 146.208994 
L 275.897218 85.331673 
L 278.274833 132.342539 
L 280.731703 124.431088 
L 283.109319 143.459733 
L 285.566188 146.758635 
L 288.023058 148.452868 
L 290.242166 116.384949 
L 292.699036 102.732292 
L 295.076651 73.333083 
L 297.533521 117.246458 
L 299.911137 138.004423 
L 302.368006 97.902964 
L 304.824876 111.615378 
L 307.202492 119.13423 
L 309.659361 140.133858 
L 312.036977 138.373278 
L 314.493847 103.391444 
L 316.950716 132.329529 
L 319.249078 141.372956 
L 321.705948 115.777837 
L 324.083564 96.330748 
L 326.540433 106.033605 
L 328.918049 156.276178 
L 331.374919 114.025538 
L 333.831788 102.24841 
L 336.209404 111.12793 
L 338.666274 109.80804 
L 341.043889 88.90633 
L 343.500759 91.951434 
L 345.957629 152.087913 
L 348.176737 80.307008 
L 350.633606 94.910008 
L 353.011222 114.806577 
L 355.468092 119.486064 
L 357.845707 144.5903 
L 360.302577 120.865418 
L 362.759447 94.481022 
L 365.137062 129.859471 
L 367.593932 111.407435 
L 369.971548 145.766726 
L 372.428417 103.667809 
L 374.885287 117.314339 
L 377.104395 84.057417 
L 379.561265 101.593583 
L 381.93888 98.353547 
L 384.39575 120.53006 
L 386.773366 85.868301 
L 389.230235 135.481053 
L 391.687105 122.390876 
L 394.064721 110.595652 
L 396.52159 151.066329 
L 398.899206 126.374953 
L 401.356076 89.532898 
L 403.812945 124.946884 
L 406.032053 115.272096 
L 408.488923 115.538937 
L 410.866539 137.978567 
L 413.323408 114.750652 
L 415.701024 129.338237 
L 418.157894 125.652212 
L 420.614763 104.846812 
L 422.992379 124.383813 
L 425.449249 119.173743 
L 427.826864 118.61746 
L 430.283734 93.118145 
L 432.740604 131.872852 
L 435.038966 111.501337 
L 437.495835 108.718704 
L 439.873451 111.189667 
L 442.330321 116.411046 
L 444.707936 97.875849 
L 447.164806 96.561182 
L 449.621676 113.44182 
L 451.999291 102.40708 
L 454.456161 125.779937 
L 456.833777 103.294212 
L 459.290646 136.398199 
L 461.747516 98.460509 
L 463.966624 77.216406 
L 466.423494 120.504848 
L 468.801109 132.316465 
L 471.257979 127.339172 
L 473.635595 106.855501 
L 476.092464 111.218588 
L 478.549334 102.218605 
L 480.92695 95.794718 
L 483.383819 146.998895 
L 485.761435 123.410801 
L 488.218305 113.174151 
L 490.675174 91.877513 
L 492.894282 136.237717 
L 495.351152 114.121442 
L 497.728768 96.051726 
L 500.185637 117.37612 
L 502.563253 111.762937 
L 505.020123 113.396212 
L 507.476992 134.583955 
L 509.854608 138.381951 
L 512.311478 109.592816 
L 514.689093 96.144201 
L 517.145963 127.18549 
L 519.602833 125.174 
L 521.821941 104.346909 
L 524.27881 102.185781 
L 526.656426 117.25805 
L 529.113296 107.846682 
L 531.490911 112.899196 
L 533.947781 101.767223 
L 536.404651 123.672171 
L 538.782266 101.51435 
L 541.239136 115.180507 
L 543.616752 113.266401 
L 546.073621 88.211118 
L 548.530491 134.817206 
L 550.828853 83.365579 
L 553.285723 121.566646 
L 555.663338 95.959535 
L 558.120208 107.65159 
L 560.497824 84.297265 
L 562.954693 176.91617 
L 565.411563 127.071589 
L 567.789179 151.00643 
L 570.246048 129.819973 
L 572.623664 84.515378 
L 575.080534 140.136139 
L 577.537403 103.358676 
L 579.756511 143.362742 
L 582.213381 141.588527 
L 584.590997 116.619292 
L 587.047866 104.227208 
L 589.425482 136.633071 
L 591.882352 116.911778 
L 594.339221 128.63816 
L 596.716837 109.479717 
L 599.173707 107.456784 
L 601.551322 121.380887 
L 604.008192 123.033009 
L 606.465062 127.241559 
L 608.68417 117.162381 
L 611.141039 126.091392 
L 613.518655 104.881515 
L 615.975525 126.004362 
L 618.35314 118.840532 
L 620.81001 104.581577 
L 623.26688 115.116717 
L 625.644495 123.786404 
L 628.101365 113.252848 
L 630.478981 103.95512 
L 632.93585 113.095821 
L 635.39272 99.454972 
L 637.611828 109.459051 
L 640.068698 111.798199 
L 642.446313 124.661828 
L 644.903183 131.526732 
L 647.280799 115.248967 
L 649.737668 115.997918 
L 652.194538 127.10295 
L 654.572154 139.597396 
L 657.029023 100.48941 
L 659.406639 107.254116 
L 661.863509 126.1242 
L 664.320378 130.739569 
L 666.61874 115.718183 
L 669.07561 144.756519 
L 671.453226 119.089337 
L 673.910095 133.215822 
L 676.287711 124.912636 
L 678.744581 110.658097 
L 681.20145 122.407405 
L 683.579066 121.28834 
L 686.035936 112.917298 
L 688.413551 124.601108 
L 690.870421 112.512478 
L 693.327291 115.185051 
L 695.546399 119.350525 
L 698.003268 128.103589 
L 700.380884 125.538711 
L 702.837754 126.108282 
L 705.215369 121.932753 
L 707.672239 120.912634 
L 710.129109 114.472233 
L 712.506724 121.517046 
L 714.963594 116.727004 
L 717.34121 130.659894 
L 719.798079 114.907739 
L 722.254949 127.076445 
L 724.474057 117.303908 
L 726.930927 110.138253 
L 729.308542 97.603116 
L 731.765412 126.032811 
L 734.143028 115.141304 
L 736.599897 135.126952 
L 739.056767 121.499065 
L 741.434383 137.764125 
L 743.891252 132.18208 
L 746.268868 149.274892 
L 748.725738 114.598768 
L 751.182607 122.441298 
L 753.401715 132.400496 
L 755.858585 125.088306 
L 758.236201 109.724122 
L 760.69307 137.925217 
L 763.070686 130.596623 
L 765.527556 151.902909 
L 767.984425 108.500086 
L 770.362041 121.997019 
L 772.818911 112.16178 
L 775.196526 123.391332 
L 777.653396 137.102111 
L 780.110266 98.455339 
L 782.408628 109.622736 
L 784.865497 108.446745 
L 787.243113 104.853517 
L 789.699983 129.92338 
L 792.077598 100.618613 
L 794.534468 137.496296 
L 796.991338 116.227128 
L 799.368953 112.416852 
L 801.825823 116.106644 
L 804.203439 112.785755 
L 806.660308 119.442546 
L 809.117178 127.203239 
L 811.336286 130.112853 
L 813.793156 121.034887 
L 816.170771 123.923567 
L 818.627641 123.222807 
L 821.005257 126.053304 
L 823.462126 114.247881 
L 825.918996 125.896266 
L 828.296612 105.12446 
L 830.753481 115.182218 
L 833.131097 120.132892 
L 835.587967 115.271017 
L 838.044836 139.086508 
L 840.263944 134.05256 
L 842.720814 103.242778 
L 845.09843 112.336642 
L 847.555299 119.435294 
L 849.932915 123.703228 
L 852.389785 120.61929 
L 854.846654 147.078231 
L 857.22427 111.626784 
L 859.68114 126.63078 
L 862.058755 119.139612 
L 864.515625 118.53617 
L 864.515625 118.53617 
" clip-path="url(#pcbd01cb489)" style="fill: none; stroke-dasharray: 7.4,3.2; stroke-dashoffset: 0; stroke: #56b4e9; stroke-width: 2"/>
   </g>
   <g id="line2d_22">
    <path d="M 27.515625 123.919977 
L 29.734733 114.767863 
L 32.191603 108.262881 
L 34.569218 122.261964 
L 37.026088 113.380604 
L 39.403704 140.024528 
L 41.860573 149.651211 
L 44.317443 131.481837 
L 46.695059 94.412269 
L 49.151928 110.092286 
L 51.529544 128.33117 
L 53.986414 122.38429 
L 56.443283 109.399196 
L 58.662391 138.512454 
L 61.119261 130.469272 
L 63.496877 125.314008 
L 65.953746 138.795109 
L 68.331362 123.39526 
L 70.788232 126.866706 
L 73.245101 125.332713 
L 75.622717 114.783809 
L 78.079587 120.285415 
L 80.457203 124.889465 
L 82.914072 133.605334 
L 85.370942 100.790504 
L 87.669304 116.358755 
L 90.126173 122.112038 
L 92.503789 107.142861 
L 94.960659 130.5288 
L 97.338274 114.418139 
L 99.795144 119.037502 
L 102.252014 121.227276 
L 104.629629 106.512467 
L 107.086499 124.072169 
L 109.464115 115.065755 
L 111.920984 110.34174 
L 114.377854 99.438072 
L 116.596962 94.917134 
L 119.053832 115.646299 
L 121.431447 124.346306 
L 123.888317 98.363824 
L 126.265933 105.173647 
L 128.722802 118.0363 
L 131.179672 105.843486 
L 133.557288 117.74075 
L 136.014157 121.061252 
L 138.391773 130.917692 
L 140.848643 122.493178 
L 143.305512 114.740442 
L 145.52462 111.35085 
L 147.98149 111.60693 
L 150.359106 126.890513 
L 152.815975 116.409179 
L 155.193591 117.065583 
L 157.650461 113.75893 
L 160.10733 118.510075 
L 162.484946 113.945385 
L 164.941816 103.022919 
L 167.319431 121.828151 
L 169.776301 114.322015 
L 172.233171 128.667243 
L 174.452279 113.95304 
L 176.909148 117.732287 
L 179.286764 99.006379 
L 181.743634 125.290555 
L 184.121249 91.500277 
L 186.578119 102.481098 
L 191.412604 127.134 
L 193.869474 106.233336 
L 196.24709 143.675167 
L 198.703959 139.391368 
L 201.160829 125.540805 
L 203.459191 108.826284 
L 205.916061 144.850852 
L 208.293676 83.15167 
L 210.750546 121.035179 
L 213.128162 135.562947 
L 215.585031 133.901947 
L 218.041901 123.610574 
L 220.419517 104.505052 
L 222.876386 135.343122 
L 225.254002 97.928418 
L 227.710872 116.234221 
L 230.167741 109.79881 
L 232.386849 151.585551 
L 234.843719 128.73383 
L 237.221335 109.867369 
L 239.678204 105.050222 
L 242.05582 137.307926 
L 244.51269 86.926784 
L 246.969559 102.235395 
L 249.347175 124.005607 
L 251.804045 135.740298 
L 254.18166 114.615447 
L 256.63853 143.070227 
L 259.0954 92.075893 
L 261.314508 114.778353 
L 263.771377 124.98269 
L 266.148993 109.989906 
L 268.605863 141.004508 
L 270.983478 99.131352 
L 273.440348 94.243555 
L 275.897218 125.280581 
L 278.274833 75.663085 
L 280.731703 124.110712 
L 283.109319 100.195946 
L 285.566188 60.404381 
L 288.023058 46.607364 
L 290.242166 162.664517 
L 292.699036 103.530468 
L 295.076651 117.46117 
L 297.533521 107.012872 
L 299.911137 83.75079 
L 302.368006 107.223482 
L 304.824876 100.658612 
L 307.202492 87.807284 
L 309.659361 134.991551 
L 312.036977 61.01934 
L 314.493847 38.739673 
L 316.950716 132.046007 
L 319.249078 16.94175 
L 321.705948 136.848436 
L 324.083564 176.664596 
L 326.540433 189.084387 
L 328.918049 65.660152 
L 331.374919 147.052303 
L 333.831788 91.21686 
L 336.209404 199.231583 
L 338.666274 157.460035 
L 341.043889 233.985839 
L 343.500759 187.859237 
L 345.957629 22.662439 
L 348.176737 238.70175 
L 350.633606 159.59195 
L 353.011222 75.011434 
L 355.468092 146.693724 
L 357.845707 101.775055 
L 360.302577 152.961898 
L 362.759447 165.688325 
L 365.137062 165.534601 
L 367.593932 83.937685 
L 369.971548 79.551048 
L 372.428417 128.177585 
L 374.885287 126.616918 
L 377.104395 183.611687 
L 379.561265 113.487755 
L 381.93888 170.496306 
L 384.39575 123.179284 
L 386.773366 158.908027 
L 389.230235 137.121842 
L 391.687105 127.175086 
L 394.064721 156.547018 
L 396.52159 40.955436 
L 398.899206 58.711828 
L 401.356076 166.942733 
L 403.812945 115.627344 
L 406.032053 112.400271 
L 408.488923 134.051263 
L 410.866539 104.551961 
L 413.323408 100.360497 
L 415.701024 125.147197 
L 418.157894 108.333815 
L 420.614763 101.552221 
L 422.992379 124.592658 
L 425.449249 104.015121 
L 427.826864 120.310991 
L 430.283734 125.81162 
L 432.740604 106.588445 
L 435.038966 145.660864 
L 437.495835 125.662201 
L 439.873451 138.409226 
L 442.330321 105.444857 
L 444.707936 115.509413 
L 447.164806 136.678813 
L 449.621676 140.698655 
L 451.999291 108.709624 
L 454.456161 94.521658 
L 456.833777 112.457846 
L 459.290646 120.750691 
L 461.747516 141.449531 
L 463.966624 134.59377 
L 466.423494 121.761451 
L 468.801109 132.316465 
L 471.257979 100.028655 
L 473.635595 130.586135 
L 476.092464 111.284512 
L 478.549334 116.302218 
L 480.92695 120.043134 
L 483.383819 118.494045 
L 485.761435 104.616245 
L 488.218305 133.264581 
L 490.675174 113.904511 
L 492.894282 120.239034 
L 495.351152 111.209887 
L 497.728768 126.532158 
L 500.185637 137.818463 
L 502.563253 122.547903 
L 505.020123 134.83561 
L 507.476992 94.766143 
L 509.854608 108.828702 
L 512.311478 112.981457 
L 514.689093 114.511558 
L 517.145963 123.099197 
L 519.602833 117.970676 
L 521.821941 124.337691 
L 524.27881 117.896846 
L 526.656426 120.090997 
L 529.113296 109.244435 
L 531.490911 107.024433 
L 533.947781 106.037753 
L 536.404651 115.880085 
L 538.782266 117.139849 
L 541.239136 102.579923 
L 543.616752 143.97102 
L 546.073621 104.255752 
L 548.530491 158.742743 
L 550.828853 126.005156 
L 553.285723 110.980739 
L 555.663338 105.085416 
L 558.120208 95.999161 
L 560.497824 130.505627 
L 562.954693 131.372942 
L 565.411563 112.215639 
L 567.789179 149.280087 
L 570.246048 129.98422 
L 572.623664 125.551842 
L 575.080534 118.120012 
L 577.537403 100.905898 
L 579.756511 87.194716 
L 582.213381 108.241556 
L 584.590997 102.179648 
L 587.047866 134.79576 
L 589.425482 97.327585 
L 591.882352 118.446637 
L 594.339221 126.905629 
L 596.716837 107.824663 
L 599.173707 115.139056 
L 601.551322 122.939635 
L 604.008192 96.33303 
L 606.465062 152.225318 
L 608.68417 110.160056 
L 611.141039 112.39593 
L 613.518655 111.118994 
L 615.975525 115.793362 
L 618.35314 122.608822 
L 620.81001 109.10809 
L 623.26688 127.472725 
L 625.644495 106.076287 
L 628.101365 102.633104 
L 630.478981 127.136658 
L 632.93585 120.526227 
L 635.39272 107.721684 
L 637.611828 118.629201 
L 640.068698 129.393306 
L 642.446313 120.741939 
L 644.903183 121.901529 
L 647.280799 122.243017 
L 649.737668 111.979018 
L 652.194538 125.575765 
L 654.572154 103.805144 
L 659.406639 128.648743 
L 661.863509 129.183889 
L 664.320378 103.445946 
L 666.61874 103.348147 
L 669.07561 112.663558 
L 671.453226 123.791251 
L 673.910095 123.521712 
L 676.287711 120.622053 
L 678.744581 119.040476 
L 681.20145 107.688648 
L 683.579066 124.561551 
L 686.035936 145.344622 
L 688.413551 116.968827 
L 690.870421 121.098284 
L 693.327291 137.525848 
L 695.546399 120.436332 
L 698.003268 124.743132 
L 700.380884 121.077633 
L 702.837754 116.324846 
L 705.215369 122.211162 
L 707.672239 123.315069 
L 710.129109 104.630992 
L 712.506724 117.74127 
L 714.963594 117.849479 
L 717.34121 121.46718 
L 719.798079 107.51649 
L 722.254949 111.709616 
L 724.474057 120.712294 
L 726.930927 123.174236 
L 729.308542 123.597513 
L 731.765412 108.167616 
L 734.143028 117.892085 
L 736.599897 102.870994 
L 739.056767 125.778802 
L 741.434383 115.847338 
L 743.891252 127.637899 
L 746.268868 110.14801 
L 748.725738 127.608717 
L 751.182607 127.164106 
L 753.401715 102.060102 
L 755.858585 128.905758 
L 758.236201 107.874003 
L 763.070686 129.550919 
L 765.527556 116.210774 
L 767.984425 120.294317 
L 770.362041 105.262463 
L 772.818911 104.241695 
L 775.196526 118.809701 
L 777.653396 123.500176 
L 780.110266 108.415197 
L 782.408628 121.933729 
L 784.865497 109.543422 
L 787.243113 150.372047 
L 789.699983 102.063935 
L 792.077598 123.771285 
L 794.534468 102.98728 
L 796.991338 113.821875 
L 799.368953 107.340288 
L 801.825823 110.385956 
L 804.203439 135.879529 
L 806.660308 117.954467 
L 809.117178 101.958039 
L 811.336286 119.396152 
L 813.793156 106.8938 
L 816.170771 111.883552 
L 818.627641 104.081166 
L 821.005257 142.607282 
L 823.462126 103.222783 
L 825.918996 107.530292 
L 828.296612 134.801721 
L 830.753481 98.480075 
L 833.131097 130.644646 
L 835.587967 121.937372 
L 838.044836 109.784696 
L 840.263944 99.516079 
L 842.720814 125.361321 
L 845.09843 125.201005 
L 847.555299 97.292702 
L 849.932915 121.044716 
L 852.389785 125.661235 
L 854.846654 98.023641 
L 857.22427 120.725283 
L 859.68114 119.116482 
L 862.058755 142.204481 
L 864.515625 118.53617 
L 864.515625 118.53617 
" clip-path="url(#pcbd01cb489)" style="fill: none; stroke-dasharray: 12.8,3.2,2,3.2; stroke-dashoffset: 0; stroke: #009e73; stroke-width: 2"/>
   </g>
   <g id="line2d_23">
    <path d="M 27.515625 116.929952 
L 29.734733 140.139321 
L 32.191603 111.673934 
L 34.569218 101.102269 
L 37.026088 100.429121 
L 39.403704 88.400226 
L 41.860573 90.86596 
L 44.317443 97.978088 
L 46.695059 110.062959 
L 49.151928 100.841572 
L 51.529544 107.068231 
L 53.986414 121.851678 
L 56.443283 125.798894 
L 58.662391 107.021179 
L 61.119261 105.619717 
L 63.496877 126.620082 
L 65.953746 114.825113 
L 68.331362 115.609181 
L 70.788232 96.657072 
L 73.245101 117.572881 
L 75.622717 113.60251 
L 78.079587 89.471799 
L 80.457203 110.326857 
L 82.914072 90.129507 
L 85.370942 152.312411 
L 87.669304 144.324932 
L 90.126173 138.577991 
L 92.503789 141.241116 
L 94.960659 114.871376 
L 97.338274 137.046227 
L 99.795144 108.285266 
L 102.252014 125.383695 
L 104.629629 158.519755 
L 107.086499 106.814472 
L 109.464115 117.103309 
L 111.920984 138.107992 
L 114.377854 167.714117 
L 116.596962 175.518482 
L 119.053832 129.221973 
L 121.431447 91.981594 
L 123.888317 117.445773 
L 126.265933 139.850288 
L 128.722802 153.513208 
L 131.179672 124.439129 
L 133.557288 114.586495 
L 136.014157 94.870246 
L 138.391773 103.06275 
L 140.848643 115.2004 
L 143.305512 125.833591 
L 145.52462 138.578688 
L 147.98149 133.044268 
L 150.359106 110.426743 
L 152.815975 99.813227 
L 155.193591 123.4287 
L 157.650461 129.749972 
L 160.10733 83.020227 
L 162.484946 96.503193 
L 164.941816 123.986772 
L 167.319431 93.590906 
L 169.776301 122.614385 
L 172.233171 95.677686 
L 174.452279 128.921066 
L 176.909148 117.531317 
L 179.286764 116.352799 
L 181.743634 129.220621 
L 184.121249 112.026299 
L 186.578119 111.305461 
L 189.034989 118.645045 
L 191.412604 98.254787 
L 193.869474 105.470477 
L 196.24709 114.901617 
L 198.703959 91.77245 
L 201.160829 98.923195 
L 203.459191 136.52045 
L 205.916061 123.53487 
L 208.293676 137.076679 
L 210.750546 112.014694 
L 213.128162 116.267778 
L 215.585031 123.040938 
L 218.041901 111.490607 
L 220.419517 107.498705 
L 222.876386 130.984756 
L 225.254002 119.630957 
L 227.710872 126.697626 
L 230.167741 95.128353 
L 232.386849 113.567783 
L 234.843719 137.05107 
L 237.221335 110.391956 
L 239.678204 119.11414 
L 242.05582 92.051072 
L 244.51269 151.031081 
L 246.969559 133.748318 
L 249.347175 113.612379 
L 251.804045 96.910553 
L 254.18166 122.922064 
L 256.63853 108.002307 
L 259.0954 88.817573 
L 261.314508 129.591592 
L 263.771377 127.66874 
L 266.148993 113.86222 
L 268.605863 120.322945 
L 270.983478 104.484861 
L 273.440348 106.726481 
L 275.897218 97.38104 
L 278.274833 85.377725 
L 280.731703 140.642111 
L 283.109319 119.467409 
L 285.566188 124.959214 
L 288.023058 134.238749 
L 290.242166 97.278705 
L 292.699036 124.283035 
L 295.076651 179.30685 
L 297.533521 119.489436 
L 299.911137 119.876091 
L 302.368006 126.220261 
L 304.824876 86.997328 
L 307.202492 144.551775 
L 309.659361 94.174493 
L 312.036977 122.201723 
L 314.493847 184.387393 
L 316.950716 43.587055 
L 319.249078 128.267597 
L 321.705948 166.666525 
L 324.083564 70.251962 
L 326.540433 87.293586 
L 328.918049 62.392908 
L 331.374919 153.126993 
L 333.831788 134.82393 
L 336.209404 82.736649 
L 338.666274 100.194648 
L 341.043889 69.830385 
L 343.500759 115.828342 
L 345.957629 186.560736 
L 348.176737 75.901035 
L 350.633606 134.923241 
L 353.011222 138.26072 
L 355.468092 108.63014 
L 357.845707 125.849856 
L 360.302577 96.949035 
L 362.759447 102.755877 
L 365.137062 62.772278 
L 367.593932 127.889285 
L 369.971548 132.292606 
L 372.428417 148.218728 
L 374.885287 128.699585 
L 377.104395 113.694118 
L 379.561265 141.835532 
L 381.93888 137.677856 
L 384.39575 124.852479 
L 386.773366 137.129447 
L 389.230235 79.545042 
L 391.687105 118.426817 
L 394.064721 88.95355 
L 396.52159 133.234605 
L 398.899206 131.639807 
L 401.356076 109.575219 
L 403.812945 104.472138 
L 406.032053 119.474767 
L 408.488923 102.383657 
L 410.866539 139.001178 
L 413.323408 132.446653 
L 415.701024 102.164077 
L 418.157894 129.088937 
L 420.614763 152.786462 
L 422.992379 108.024336 
L 425.449249 149.946396 
L 427.826864 116.381999 
L 430.283734 111.208096 
L 432.740604 111.105926 
L 435.038966 123.67701 
L 437.495835 136.260602 
L 439.873451 87.372553 
L 442.330321 127.854025 
L 444.707936 133.953716 
L 447.164806 131.009237 
L 449.621676 108.3612 
L 451.999291 137.985955 
L 454.456161 143.243801 
L 456.833777 142.453915 
L 459.290646 105.633606 
L 461.747516 129.096364 
L 463.966624 117.931491 
L 466.423494 111.359572 
L 468.801109 77.573788 
L 471.257979 133.503924 
L 473.635595 126.346079 
L 476.092464 122.425696 
L 478.549334 114.567783 
L 480.92695 134.359289 
L 483.383819 127.059542 
L 485.761435 131.579459 
L 488.218305 104.123173 
L 490.675174 126.282221 
L 492.894282 112.205361 
L 495.351152 135.58569 
L 497.728768 136.168348 
L 500.185637 114.263791 
L 502.563253 120.074917 
L 505.020123 90.582494 
L 507.476992 120.238817 
L 509.854608 122.696514 
L 512.311478 130.38977 
L 514.689093 130.515469 
L 517.145963 124.12077 
L 519.602833 109.420935 
L 521.821941 127.133605 
L 524.27881 127.758769 
L 526.656426 102.566258 
L 529.113296 133.00625 
L 531.490911 130.593421 
L 533.947781 122.83517 
L 536.404651 113.237552 
L 538.782266 117.804764 
L 541.239136 121.98617 
L 543.616752 91.915979 
L 546.073621 139.262225 
L 548.530491 110.30812 
L 550.828853 106.803227 
L 553.285723 126.548249 
L 555.663338 141.985716 
L 558.120208 121.661446 
L 560.497824 83.32838 
L 562.954693 77.431188 
L 565.411563 118.765762 
L 567.789179 100.342017 
L 570.246048 75.536179 
L 572.623664 116.167823 
L 575.080534 89.727262 
L 577.537403 79.351181 
L 579.756511 120.834645 
L 582.213381 130.03077 
L 584.590997 181.313942 
L 587.047866 111.034766 
L 589.425482 99.306507 
L 591.882352 131.556886 
L 594.339221 125.106462 
L 596.716837 128.347329 
L 599.173707 127.613937 
L 601.551322 103.260434 
L 604.008192 120.490154 
L 606.465062 98.577474 
L 608.68417 136.76889 
L 611.141039 133.555742 
L 613.518655 142.984376 
L 615.975525 120.936128 
L 618.35314 93.621976 
L 620.81001 145.708182 
L 623.26688 99.743544 
L 625.644495 121.588339 
L 628.101365 129.31521 
L 630.478981 143.254 
L 632.93585 124.919858 
L 635.39272 133.47046 
L 637.611828 119.625956 
L 640.068698 108.592889 
L 642.446313 99.680837 
L 644.903183 100.227511 
L 647.280799 119.93498 
L 649.737668 126.926505 
L 652.194538 101.940762 
L 654.572154 95.892394 
L 657.029023 149.866142 
L 659.406639 109.317907 
L 661.863509 102.39461 
L 664.320378 127.721524 
L 666.61874 136.356961 
L 669.07561 114.128382 
L 671.453226 110.515258 
L 673.910095 100.999307 
L 676.287711 101.017392 
L 678.744581 113.588522 
L 681.20145 127.515284 
L 683.579066 106.85949 
L 686.035936 120.674696 
L 688.413551 114.515593 
L 690.870421 128.389405 
L 693.327291 104.274429 
L 695.546399 118.604033 
L 698.003268 104.382716 
L 700.380884 112.696213 
L 702.837754 125.237154 
L 705.215369 119.705486 
L 707.672239 104.420239 
L 710.129109 124.242674 
L 712.506724 116.217711 
L 714.963594 122.40541 
L 717.34121 110.142823 
L 719.798079 130.093396 
L 722.254949 84.729148 
L 724.474057 108.258576 
L 726.930927 137.651038 
L 729.308542 121.328161 
L 731.765412 119.426059 
L 734.143028 115.812226 
L 736.599897 107.078293 
L 739.056767 111.293539 
L 741.434383 107.514757 
L 743.891252 98.501676 
L 746.268868 119.326748 
L 748.725738 123.478574 
L 751.182607 90.086539 
L 753.401715 128.957153 
L 755.858585 106.833945 
L 758.236201 130.692137 
L 760.69307 96.454576 
L 763.070686 107.939703 
L 765.527556 106.611753 
L 767.984425 134.945535 
L 770.362041 143.573914 
L 772.818911 119.570891 
L 775.196526 118.467788 
L 777.653396 103.02716 
L 780.110266 148.034926 
L 782.408628 125.166225 
L 784.865497 135.541109 
L 787.243113 95.302754 
L 789.699983 113.694578 
L 792.077598 120.267468 
L 794.534468 104.375574 
L 796.991338 140.554543 
L 799.368953 116.189974 
L 801.825823 153.043925 
L 804.203439 132.458229 
L 809.117178 117.483162 
L 811.336286 98.359666 
L 813.793156 119.456027 
L 816.170771 119.774183 
L 818.627641 126.765032 
L 821.005257 90.163738 
L 823.462126 125.070062 
L 825.918996 103.212918 
L 828.296612 122.274299 
L 830.753481 145.273123 
L 833.131097 124.523878 
L 835.587967 126.97115 
L 838.044836 113.496259 
L 840.263944 116.105031 
L 842.720814 120.937612 
L 845.09843 122.190197 
L 847.555299 119.301096 
L 849.932915 114.432518 
L 852.389785 103.503213 
L 854.846654 111.583447 
L 857.22427 107.864247 
L 859.68114 127.597967 
L 862.058755 92.655241 
L 864.515625 118.53617 
L 864.515625 118.53617 
" clip-path="url(#pcbd01cb489)" style="fill: none; stroke-dasharray: 2,3.3; stroke-dashoffset: 0; stroke: #0072b2; stroke-width: 2"/>
   </g>
   <g id="line2d_24">
    <path d="M 27.515625 129.497126 
L 29.734733 108.918143 
L 32.191603 139.898727 
L 34.569218 127.253121 
L 37.026088 123.141142 
L 39.403704 130.607046 
L 41.860573 133.751997 
L 44.317443 132.469475 
L 46.695059 151.555488 
L 49.151928 155.372096 
L 51.529544 99.661321 
L 53.986414 103.809457 
L 56.443283 106.796069 
L 58.662391 108.039078 
L 61.119261 121.366628 
L 63.496877 109.572377 
L 65.953746 112.910155 
L 68.331362 123.034794 
L 70.788232 121.374045 
L 73.245101 115.900503 
L 75.622717 115.826132 
L 78.079587 118.132499 
L 80.457203 130.957219 
L 82.914072 113.83243 
L 85.370942 100.790504 
L 87.669304 104.791237 
L 90.126173 114.762428 
L 92.503789 121.639724 
L 94.960659 112.341574 
L 97.338274 103.806831 
L 99.795144 126.029753 
L 102.252014 126.158621 
L 104.629629 101.195864 
L 107.086499 109.31853 
L 109.464115 108.690181 
L 114.377854 97.587215 
L 116.596962 110.579992 
L 119.053832 108.656843 
L 121.431447 124.134772 
L 123.888317 130.410861 
L 126.265933 103.800315 
L 128.722802 97.624928 
L 131.179672 121.527356 
L 133.557288 108.209415 
L 136.014157 150.475767 
L 138.391773 129.524945 
L 140.848643 113.849885 
L 143.305512 108.726084 
L 145.52462 126.343841 
L 147.98149 114.927191 
L 150.359106 116.685697 
L 152.815975 108.212811 
L 155.193591 117.277687 
L 157.650461 119.044672 
L 160.10733 130.905426 
L 162.484946 138.155148 
L 164.941816 129.599675 
L 167.319431 133.39265 
L 169.776301 116.904885 
L 172.233171 105.514329 
L 174.452279 111.767444 
L 176.909148 123.560439 
L 179.286764 124.590674 
L 181.743634 110.169793 
L 184.121249 127.238141 
L 186.578119 116.310324 
L 189.034989 100.340424 
L 191.412604 117.177924 
L 193.869474 126.830528 
L 196.24709 107.461316 
L 198.703959 124.552612 
L 201.160829 115.467473 
L 203.459191 114.514084 
L 205.916061 112.91093 
L 208.293676 131.286978 
L 210.750546 127.917475 
L 213.128162 116.336936 
L 215.585031 108.316617 
L 218.041901 114.287523 
L 220.419517 121.881251 
L 222.876386 98.297004 
L 225.254002 114.028224 
L 227.710872 121.396168 
L 230.167741 117.783173 
L 232.386849 102.107554 
L 234.843719 125.117639 
L 237.221335 117.211588 
L 239.678204 124.572738 
L 242.05582 115.860113 
L 244.51269 104.958123 
L 246.969559 124.22282 
L 249.347175 104.388389 
L 251.804045 117.175712 
L 254.18166 121.92527 
L 256.63853 97.144739 
L 259.0954 140.475528 
L 261.314508 112.02091 
L 263.771377 112.011035 
L 266.148993 113.522543 
L 268.605863 124.332636 
L 270.983478 123.982209 
L 273.440348 117.947088 
L 275.897218 171.052002 
L 278.274833 144.95227 
L 280.731703 107.643388 
L 283.109319 119.984764 
L 285.566188 135.015494 
L 288.023058 129.344265 
L 290.242166 98.410927 
L 292.699036 124.815152 
L 295.076651 98.217343 
L 297.533521 132.666931 
L 299.911137 129.597081 
L 302.368006 137.034907 
L 304.824876 147.953006 
L 307.202492 126.396386 
L 309.659361 89.225023 
L 312.036977 149.086933 
L 314.493847 138.122823 
L 316.950716 131.19544 
L 319.249078 160.54303 
L 321.705948 75.80755 
L 324.083564 126.954095 
L 326.540433 91.442668 
L 328.918049 160.143529 
L 331.374919 70.664818 
L 333.831788 97.316658 
L 336.209404 106.872725 
L 338.666274 123.501937 
L 341.043889 119.310902 
L 343.500759 91.684653 
L 345.957629 128.45134 
L 348.176737 103.438368 
L 350.633606 105.115218 
L 353.011222 126.341401 
L 355.468092 103.066478 
L 357.845707 104.863368 
L 360.302577 128.21364 
L 362.759447 119.160414 
L 365.137062 118.117343 
L 367.593932 142.696151 
L 369.971548 117.727723 
L 372.428417 104.277168 
L 374.885287 123.631762 
L 377.104395 112.233154 
L 379.561265 111.174999 
L 381.93888 103.702809 
L 384.39575 112.652104 
L 386.773366 103.646733 
L 389.230235 107.960535 
L 391.687105 114.941179 
L 394.064721 124.922115 
L 396.52159 128.776674 
L 398.899206 128.844885 
L 401.356076 114.803651 
L 403.812945 116.968793 
L 406.032053 124.65806 
L 408.488923 121.031605 
L 410.866539 92.728018 
L 413.323408 124.084807 
L 415.701024 124.065639 
L 418.157894 108.131654 
L 420.614763 129.52262 
L 422.992379 108.233181 
L 425.449249 114.359417 
L 427.826864 120.988403 
L 430.283734 120.285962 
L 432.740604 112.387003 
L 435.038966 115.356967 
L 437.495835 113.390368 
L 439.873451 138.270351 
L 442.330321 113.277849 
L 444.707936 121.657514 
L 447.164806 105.388496 
L 449.621676 106.713432 
L 451.999291 120.975865 
L 454.456161 119.188517 
L 456.833777 115.820043 
L 459.290646 113.788875 
L 461.747516 115.684353 
L 463.966624 133.317224 
L 468.801109 116.475434 
L 471.257979 121.837296 
L 473.635595 112.600093 
L 476.092464 130.995837 
L 478.549334 124.072487 
L 480.92695 112.439817 
L 483.383819 94.552779 
L 485.761435 109.331487 
L 490.675174 130.141936 
L 492.894282 112.892 
L 495.351152 116.491311 
L 497.728768 108.216562 
L 500.185637 121.83241 
L 502.563253 121.792268 
L 505.020123 125.215367 
L 507.476992 124.327852 
L 509.854608 111.252203 
L 512.311478 121.951389 
L 514.689093 120.048776 
L 517.145963 103.280678 
L 519.602833 125.914529 
L 521.821941 123.149428 
L 524.27881 127.690756 
L 526.656426 125.625125 
L 529.113296 119.42807 
L 531.490911 125.977536 
L 533.947781 132.372687 
L 536.404651 120.690851 
L 538.782266 123.589523 
L 541.239136 131.015465 
L 543.616752 134.831041 
L 546.073621 135.719904 
L 548.530491 91.926305 
L 550.828853 155.796383 
L 553.285723 127.586082 
L 555.663338 121.948456 
L 558.120208 148.468768 
L 560.497824 170.006322 
L 562.954693 94.023398 
L 565.411563 128.152022 
L 567.789179 100.64225 
L 570.246048 147.558701 
L 572.623664 153.778375 
L 575.080534 129.866421 
L 577.537403 195.300695 
L 579.756511 155.692309 
L 582.213381 92.452271 
L 584.590997 73.678691 
L 587.047866 104.292665 
L 589.425482 137.588413 
L 591.882352 108.086343 
L 594.339221 88.5234 
L 596.716837 123.382168 
L 599.173707 139.313544 
L 601.551322 119.952034 
L 604.008192 132.133754 
L 606.465062 102.257801 
L 608.68417 115.028339 
L 611.141039 104.542135 
L 613.518655 115.797103 
L 615.975525 126.153427 
L 618.35314 128.768527 
L 620.81001 115.509873 
L 623.26688 138.823011 
L 625.644495 124.728431 
L 628.101365 128.983343 
L 630.478981 116.917578 
L 632.93585 100.431826 
L 635.39272 114.362158 
L 637.611828 122.15107 
L 640.068698 131.575644 
L 642.446313 134.760527 
L 644.903183 132.011454 
L 647.280799 121.613552 
L 649.737668 126.926505 
L 654.572154 148.767312 
L 657.029023 99.80535 
L 659.406639 132.22598 
L 661.863509 116.333194 
L 664.320378 102.65863 
L 666.61874 116.842732 
L 669.07561 107.736423 
L 671.453226 126.211354 
L 673.910095 133.65315 
L 676.287711 113.823131 
L 678.744581 133.079257 
L 681.20145 113.132572 
L 683.579066 112.871511 
L 686.035936 100.966711 
L 688.413551 127.258778 
L 690.870421 99.770051 
L 693.327291 112.84706 
L 695.546399 117.993267 
L 698.003268 119.735392 
L 700.380884 124.660014 
L 702.837754 96.422924 
L 705.215369 118.452648 
L 707.672239 119.938673 
L 710.129109 123.959473 
L 712.506724 118.403687 
L 714.963594 120.160459 
L 717.34121 108.144407 
L 719.798079 113.429489 
L 722.254949 128.988446 
L 724.474057 127.856795 
L 726.930927 106.5019 
L 729.308542 132.056007 
L 731.765412 119.493475 
L 734.143028 118.831376 
L 736.599897 120.892258 
L 739.056767 120.643118 
L 741.434383 113.886731 
L 743.891252 114.940921 
L 746.268868 119.527742 
L 748.725738 109.780268 
L 751.182607 146.125828 
L 753.401715 109.661443 
L 755.858585 116.204054 
L 758.236201 116.713461 
L 760.69307 117.900242 
L 763.070686 108.84598 
L 765.527556 117.900742 
L 767.984425 118.902451 
L 770.362041 115.872884 
L 772.818911 125.319339 
L 775.196526 112.928801 
L 777.653396 123.780628 
L 780.110266 138.075068 
L 782.408628 121.314741 
L 784.865497 114.897784 
L 787.243113 112.643146 
L 789.699983 121.876599 
L 792.077598 140.259834 
L 794.534468 120.374007 
L 796.991338 96.504053 
L 799.368953 127.097728 
L 801.825823 94.565781 
L 804.203439 72.71707 
L 806.660308 109.837671 
L 809.117178 124.77322 
L 811.336286 120.189982 
L 813.793156 130.919918 
L 816.170771 123.311363 
L 818.627641 127.923068 
L 821.005257 97.965818 
L 823.462126 120.132442 
L 825.918996 124.868319 
L 828.296612 105.727384 
L 830.753481 115.046978 
L 833.131097 114.810486 
L 835.587967 116.699521 
L 838.044836 116.621785 
L 840.263944 114.889461 
L 842.720814 122.622834 
L 845.09843 117.879267 
L 847.555299 125.474182 
L 849.932915 130.860762 
L 852.389785 117.965634 
L 854.846654 125.54207 
L 857.22427 132.354943 
L 859.68114 112.122978 
L 862.058755 116.926993 
L 864.515625 118.53617 
L 864.515625 118.53617 
" clip-path="url(#pcbd01cb489)" style="fill: none; stroke: #d55e00; stroke-width: 2; stroke-linecap: square"/>
   </g>
   <g id="patch_3">
    <path d="M 27.515625 238.70175 
L 27.515625 16.94175 
" style="fill: none; stroke: #000000; stroke-width: 0.8; stroke-linejoin: miter; stroke-linecap: square"/>
   </g>
   <g id="patch_4">
    <path d="M 27.515625 238.70175 
L 864.515625 238.70175 
" style="fill: none; stroke: #000000; stroke-width: 0.8; stroke-linejoin: miter; stroke-linecap: square"/>
   </g>
   <g id="text_14">
    <!-- 5_Industry_Portfolios - Portfolio Allocation for 1/N -->
    <g transform="translate(269.813625 10.94175) scale(0.144 -0.144)">
     <defs>
      <path id="DejaVuSans-35" d="M 691 4666 
L 3169 4666 
L 3169 4134 
L 1269 4134 
L 1269 2991 
Q 1406 3038 1543 3061 
Q 1681 3084 1819 3084 
Q 2600 3084 3056 2656 
Q 3513 2228 3513 1497 
Q 3513 744 3044 326 
Q 2575 -91 1722 -91 
Q 1428 -91 1123 -41 
Q 819 9 494 109 
L 494 744 
Q 775 591 1075 516 
Q 1375 441 1709 441 
Q 2250 441 2565 725 
Q 2881 1009 2881 1497 
Q 2881 1984 2565 2268 
Q 2250 2553 1709 2553 
Q 1456 2553 1204 2497 
Q 953 2441 691 2322 
L 691 4666 
z
" transform="scale(0.015625)"/>
      <path id="DejaVuSans-5f" d="M 3263 -1063 
L 3263 -1509 
L -63 -1509 
L -63 -1063 
L 3263 -1063 
z
" transform="scale(0.015625)"/>
      <path id="DejaVuSans-49" d="M 628 4666 
L 1259 4666 
L 1259 0 
L 628 0 
L 628 4666 
z
" transform="scale(0.015625)"/>
      <path id="DejaVuSans-6e" d="M 3513 2113 
L 3513 0 
L 2938 0 
L 2938 2094 
Q 2938 2591 2744 2837 
Q 2550 3084 2163 3084 
Q 1697 3084 1428 2787 
Q 1159 2491 1159 1978 
L 1159 0 
L 581 0 
L 581 3500 
L 1159 3500 
L 1159 2956 
Q 1366 3272 1645 3428 
Q 1925 3584 2291 3584 
Q 2894 3584 3203 3211 
Q 3513 2838 3513 2113 
z
" transform="scale(0.015625)"/>
      <path id="DejaVuSans-64" d="M 2906 2969 
L 2906 4863 
L 3481 4863 
L 3481 0 
L 2906 0 
L 2906 525 
Q 2725 213 2448 61 
Q 2172 -91 1784 -91 
Q 1150 -91 751 415 
Q 353 922 353 1747 
Q 353 2572 751 3078 
Q 1150 3584 1784 3584 
Q 2172 3584 2448 3432 
Q 2725 3281 2906 2969 
z
M 947 1747 
Q 947 1113 1208 752 
Q 1469 391 1925 391 
Q 2381 391 2643 752 
Q 2906 1113 2906 1747 
Q 2906 2381 2643 2742 
Q 2381 3103 1925 3103 
Q 1469 3103 1208 2742 
Q 947 2381 947 1747 
z
" transform="scale(0.015625)"/>
      <path id="DejaVuSans-75" d="M 544 1381 
L 544 3500 
L 1119 3500 
L 1119 1403 
Q 1119 906 1312 657 
Q 1506 409 1894 409 
Q 2359 409 2629 706 
Q 2900 1003 2900 1516 
L 2900 3500 
L 3475 3500 
L 3475 0 
L 2900 0 
L 2900 538 
Q 2691 219 2414 64 
Q 2138 -91 1772 -91 
Q 1169 -91 856 284 
Q 544 659 544 1381 
z
M 1991 3584 
L 1991 3584 
z
" transform="scale(0.015625)"/>
      <path id="DejaVuSans-73" d="M 2834 3397 
L 2834 2853 
Q 2591 2978 2328 3040 
Q 2066 3103 1784 3103 
Q 1356 3103 1142 2972 
Q 928 2841 928 2578 
Q 928 2378 1081 2264 
Q 1234 2150 1697 2047 
L 1894 2003 
Q 2506 1872 2764 1633 
Q 3022 1394 3022 966 
Q 3022 478 2636 193 
Q 2250 -91 1575 -91 
Q 1294 -91 989 -36 
Q 684 19 347 128 
L 347 722 
Q 666 556 975 473 
Q 1284 391 1588 391 
Q 1994 391 2212 530 
Q 2431 669 2431 922 
Q 2431 1156 2273 1281 
Q 2116 1406 1581 1522 
L 1381 1569 
Q 847 1681 609 1914 
Q 372 2147 372 2553 
Q 372 3047 722 3315 
Q 1072 3584 1716 3584 
Q 2034 3584 2315 3537 
Q 2597 3491 2834 3397 
z
" transform="scale(0.015625)"/>
      <path id="DejaVuSans-74" d="M 1172 4494 
L 1172 3500 
L 2356 3500 
L 2356 3053 
L 1172 3053 
L 1172 1153 
Q 1172 725 1289 603 
Q 1406 481 1766 481 
L 2356 481 
L 2356 0 
L 1766 0 
Q 1100 0 847 248 
Q 594 497 594 1153 
L 594 3053 
L 172 3053 
L 172 3500 
L 594 3500 
L 594 4494 
L 1172 4494 
z
" transform="scale(0.015625)"/>
      <path id="DejaVuSans-72" d="M 2631 2963 
Q 2534 3019 2420 3045 
Q 2306 3072 2169 3072 
Q 1681 3072 1420 2755 
Q 1159 2438 1159 1844 
L 1159 0 
L 581 0 
L 581 3500 
L 1159 3500 
L 1159 2956 
Q 1341 3275 1631 3429 
Q 1922 3584 2338 3584 
Q 2397 3584 2469 3576 
Q 2541 3569 2628 3553 
L 2631 2963 
z
" transform="scale(0.015625)"/>
      <path id="DejaVuSans-79" d="M 2059 -325 
Q 1816 -950 1584 -1140 
Q 1353 -1331 966 -1331 
L 506 -1331 
L 506 -850 
L 844 -850 
Q 1081 -850 1212 -737 
Q 1344 -625 1503 -206 
L 1606 56 
L 191 3500 
L 800 3500 
L 1894 763 
L 2988 3500 
L 3597 3500 
L 2059 -325 
z
" transform="scale(0.015625)"/>
      <path id="DejaVuSans-50" d="M 1259 4147 
L 1259 2394 
L 2053 2394 
Q 2494 2394 2734 2622 
Q 2975 2850 2975 3272 
Q 2975 3691 2734 3919 
Q 2494 4147 2053 4147 
L 1259 4147 
z
M 628 4666 
L 2053 4666 
Q 2838 4666 3239 4311 
Q 3641 3956 3641 3272 
Q 3641 2581 3239 2228 
Q 2838 1875 2053 1875 
L 1259 1875 
L 1259 0 
L 628 0 
L 628 4666 
z
" transform="scale(0.015625)"/>
      <path id="DejaVuSans-6f" d="M 1959 3097 
Q 1497 3097 1228 2736 
Q 959 2375 959 1747 
Q 959 1119 1226 758 
Q 1494 397 1959 397 
Q 2419 397 2687 759 
Q 2956 1122 2956 1747 
Q 2956 2369 2687 2733 
Q 2419 3097 1959 3097 
z
M 1959 3584 
Q 2709 3584 3137 3096 
Q 3566 2609 3566 1747 
Q 3566 888 3137 398 
Q 2709 -91 1959 -91 
Q 1206 -91 779 398 
Q 353 888 353 1747 
Q 353 2609 779 3096 
Q 1206 3584 1959 3584 
z
" transform="scale(0.015625)"/>
      <path id="DejaVuSans-66" d="M 2375 4863 
L 2375 4384 
L 1825 4384 
Q 1516 4384 1395 4259 
Q 1275 4134 1275 3809 
L 1275 3500 
L 2222 3500 
L 2222 3053 
L 1275 3053 
L 1275 0 
L 697 0 
L 697 3053 
L 147 3053 
L 147 3500 
L 697 3500 
L 697 3744 
Q 697 4328 969 4595 
Q 1241 4863 1831 4863 
L 2375 4863 
z
" transform="scale(0.015625)"/>
      <path id="DejaVuSans-6c" d="M 603 4863 
L 1178 4863 
L 1178 0 
L 603 0 
L 603 4863 
z
" transform="scale(0.015625)"/>
      <path id="DejaVuSans-69" d="M 603 3500 
L 1178 3500 
L 1178 0 
L 603 0 
L 603 3500 
z
M 603 4863 
L 1178 4863 
L 1178 4134 
L 603 4134 
L 603 4863 
z
" transform="scale(0.015625)"/>
      <path id="DejaVuSans-20" transform="scale(0.015625)"/>
      <path id="DejaVuSans-2d" d="M 313 2009 
L 1997 2009 
L 1997 1497 
L 313 1497 
L 313 2009 
z
" transform="scale(0.015625)"/>
      <path id="DejaVuSans-41" d="M 2188 4044 
L 1331 1722 
L 3047 1722 
L 2188 4044 
z
M 1831 4666 
L 2547 4666 
L 4325 0 
L 3669 0 
L 3244 1197 
L 1141 1197 
L 716 0 
L 50 0 
L 1831 4666 
z
" transform="scale(0.015625)"/>
      <path id="DejaVuSans-63" d="M 3122 3366 
L 3122 2828 
Q 2878 2963 2633 3030 
Q 2388 3097 2138 3097 
Q 1578 3097 1268 2742 
Q 959 2388 959 1747 
Q 959 1106 1268 751 
Q 1578 397 2138 397 
Q 2388 397 2633 464 
Q 2878 531 3122 666 
L 3122 134 
Q 2881 22 2623 -34 
Q 2366 -91 2075 -91 
Q 1284 -91 818 406 
Q 353 903 353 1747 
Q 353 2603 823 3093 
Q 1294 3584 2113 3584 
Q 2378 3584 2631 3529 
Q 2884 3475 3122 3366 
z
" transform="scale(0.015625)"/>
      <path id="DejaVuSans-61" d="M 2194 1759 
Q 1497 1759 1228 1600 
Q 959 1441 959 1056 
Q 959 750 1161 570 
Q 1363 391 1709 391 
Q 2188 391 2477 730 
Q 2766 1069 2766 1631 
L 2766 1759 
L 2194 1759 
z
M 3341 1997 
L 3341 0 
L 2766 0 
L 2766 531 
Q 2569 213 2275 61 
Q 1981 -91 1556 -91 
Q 1019 -91 701 211 
Q 384 513 384 1019 
Q 384 1609 779 1909 
Q 1175 2209 1959 2209 
L 2766 2209 
L 2766 2266 
Q 2766 2663 2505 2880 
Q 2244 3097 1772 3097 
Q 1472 3097 1187 3025 
Q 903 2953 641 2809 
L 641 3341 
Q 956 3463 1253 3523 
Q 1550 3584 1831 3584 
Q 2591 3584 2966 3190 
Q 3341 2797 3341 1997 
z
" transform="scale(0.015625)"/>
      <path id="DejaVuSans-2f" d="M 1625 4666 
L 2156 4666 
L 531 -594 
L 0 -594 
L 1625 4666 
z
" transform="scale(0.015625)"/>
      <path id="DejaVuSans-4e" d="M 628 4666 
L 1478 4666 
L 3547 763 
L 3547 4666 
L 4159 4666 
L 4159 0 
L 3309 0 
L 1241 3903 
L 1241 0 
L 628 0 
L 628 4666 
z
" transform="scale(0.015625)"/>
     </defs>
     <use xlink:href="#DejaVuSans-35"/>
     <use xlink:href="#DejaVuSans-5f" x="63.623047"/>
     <use xlink:href="#DejaVuSans-49" x="113.623047"/>
     <use xlink:href="#DejaVuSans-6e" x="143.115234"/>
     <use xlink:href="#DejaVuSans-64" x="206.494141"/>
     <use xlink:href="#DejaVuSans-75" x="269.970703"/>
     <use xlink:href="#DejaVuSans-73" x="333.349609"/>
     <use xlink:href="#DejaVuSans-74" x="385.449219"/>
     <use xlink:href="#DejaVuSans-72" x="424.658203"/>
     <use xlink:href="#DejaVuSans-79" x="465.771484"/>
     <use xlink:href="#DejaVuSans-5f" x="524.951172"/>
     <use xlink:href="#DejaVuSans-50" x="574.951172"/>
     <use xlink:href="#DejaVuSans-6f" x="631.628906"/>
     <use xlink:href="#DejaVuSans-72" x="692.810547"/>
     <use xlink:href="#DejaVuSans-74" x="733.923828"/>
     <use xlink:href="#DejaVuSans-66" x="773.132812"/>
     <use xlink:href="#DejaVuSans-6f" x="808.337891"/>
     <use xlink:href="#DejaVuSans-6c" x="869.519531"/>
     <use xlink:href="#DejaVuSans-69" x="897.302734"/>
     <use xlink:href="#DejaVuSans-6f" x="925.085938"/>
     <use xlink:href="#DejaVuSans-73" x="986.267578"/>
     <use xlink:href="#DejaVuSans-20" x="1038.367188"/>
     <use xlink:href="#DejaVuSans-2d" x="1070.154297"/>
     <use xlink:href="#DejaVuSans-20" x="1106.238281"/>
     <use xlink:href="#DejaVuSans-50" x="1138.025391"/>
     <use xlink:href="#DejaVuSans-6f" x="1194.703125"/>
     <use xlink:href="#DejaVuSans-72" x="1255.884766"/>
     <use xlink:href="#DejaVuSans-74" x="1296.998047"/>
     <use xlink:href="#DejaVuSans-66" x="1336.207031"/>
     <use xlink:href="#DejaVuSans-6f" x="1371.412109"/>
     <use xlink:href="#DejaVuSans-6c" x="1432.59375"/>
     <use xlink:href="#DejaVuSans-69" x="1460.376953"/>
     <use xlink:href="#DejaVuSans-6f" x="1488.160156"/>
     <use xlink:href="#DejaVuSans-20" x="1549.341797"/>
     <use xlink:href="#DejaVuSans-41" x="1581.128906"/>
     <use xlink:href="#DejaVuSans-6c" x="1649.537109"/>
     <use xlink:href="#DejaVuSans-6c" x="1677.320312"/>
     <use xlink:href="#DejaVuSans-6f" x="1705.103516"/>
     <use xlink:href="#DejaVuSans-63" x="1766.285156"/>
     <use xlink:href="#DejaVuSans-61" x="1821.265625"/>
     <use xlink:href="#DejaVuSans-74" x="1882.544922"/>
     <use xlink:href="#DejaVuSans-69" x="1921.753906"/>
     <use xlink:href="#DejaVuSans-6f" x="1949.537109"/>
     <use xlink:href="#DejaVuSans-6e" x="2010.71875"/>
     <use xlink:href="#DejaVuSans-20" x="2074.097656"/>
     <use xlink:href="#DejaVuSans-66" x="2105.884766"/>
     <use xlink:href="#DejaVuSans-6f" x="2141.089844"/>
     <use xlink:href="#DejaVuSans-72" x="2202.271484"/>
     <use xlink:href="#DejaVuSans-20" x="2243.384766"/>
     <use xlink:href="#DejaVuSans-31" x="2275.171875"/>
     <use xlink:href="#DejaVuSans-2f" x="2338.794922"/>
     <use xlink:href="#DejaVuSans-4e" x="2372.486328"/>
    </g>
   </g>
  </g>
 </g>
 <defs>
  <clipPath id="pcbd01cb489">
   <rect x="27.515625" y="16.94175" width="837" height="221.76"/>
  </clipPath>
 </defs>
</svg>
