<?xml version="1.0" encoding="utf-8" standalone="no"?>
<!DOCTYPE svg PUBLIC "-//W3C//DTD SVG 1.1//EN"
  "http://www.w3.org/Graphics/SVG/1.1/DTD/svg11.dtd">
<svg xmlns:xlink="http://www.w3.org/1999/xlink" width="866.532812pt" height="253.629875pt" viewBox="0 0 866.532812 253.629875" xmlns="http://www.w3.org/2000/svg" version="1.1">
 <metadata>
  <rdf:RDF xmlns:dc="http://purl.org/dc/elements/1.1/" xmlns:cc="http://creativecommons.org/ns#" xmlns:rdf="http://www.w3.org/1999/02/22-rdf-syntax-ns#">
   <cc:Work>
    <dc:type rdf:resource="http://purl.org/dc/dcmitype/StillImage"/>
    <dc:date>2025-08-06T21:52:44.961216</dc:date>
    <dc:format>image/svg+xml</dc:format>
    <dc:creator>
     <cc:Agent>
      <dc:title>Matplotlib v3.9.2, https://matplotlib.org/</dc:title>
     </cc:Agent>
    </dc:creator>
   </cc:Work>
  </rdf:RDF>
 </metadata>
 <defs>
  <style type="text/css">*{stroke-linejoin: round; stroke-linecap: butt}</style>
 </defs>
 <g id="figure_1">
  <g id="patch_1">
   <path d="M 0 253.629875 
L 866.532812 253.629875 
L 866.532812 0 
L 0 0 
z
" style="fill: #ffffff"/>
  </g>
  <g id="axes_1">
   <g id="patch_2">
    <path d="M 29.532813 238.70175 
L 866.532812 238.70175 
L 866.532812 16.94175 
L 29.532813 16.94175 
z
" style="fill: #ffffff"/>
   </g>
   <g id="matplotlib.axis_1">
    <g id="xtick_1">
     <g id="line2d_1">
      <defs>
       <path id="m644f52d273" d="M 0 1.75 
L 0 -1.75 
" style="stroke: #000000; stroke-width: 0.8"/>
      </defs>
      <g>
       <use xlink:href="#m644f52d273" x="85.010513" y="238.70175" style="stroke: #000000; stroke-width: 0.8"/>
      </g>
     </g>
     <g id="text_1">
      <!-- 1992 -->
      <g transform="translate(72.285513 251.550188) scale(0.1 -0.1)">
       <defs>
        <path id="DejaVuSans-31" d="M 794 531 
L 1825 531 
L 1825 4091 
L 703 3866 
L 703 4441 
L 1819 4666 
L 2450 4666 
L 2450 531 
L 3481 531 
L 3481 0 
L 794 0 
L 794 531 
z
" transform="scale(0.015625)"/>
        <path id="DejaVuSans-39" d="M 703 97 
L 703 672 
Q 941 559 1184 500 
Q 1428 441 1663 441 
Q 2288 441 2617 861 
Q 2947 1281 2994 2138 
Q 2813 1869 2534 1725 
Q 2256 1581 1919 1581 
Q 1219 1581 811 2004 
Q 403 2428 403 3163 
Q 403 3881 828 4315 
Q 1253 4750 1959 4750 
Q 2769 4750 3195 4129 
Q 3622 3509 3622 2328 
Q 3622 1225 3098 567 
Q 2575 -91 1691 -91 
Q 1453 -91 1209 -44 
Q 966 3 703 97 
z
M 1959 2075 
Q 2384 2075 2632 2365 
Q 2881 2656 2881 3163 
Q 2881 3666 2632 3958 
Q 2384 4250 1959 4250 
Q 1534 4250 1286 3958 
Q 1038 3666 1038 3163 
Q 1038 2656 1286 2365 
Q 1534 2075 1959 2075 
z
" transform="scale(0.015625)"/>
        <path id="DejaVuSans-32" d="M 1228 531 
L 3431 531 
L 3431 0 
L 469 0 
L 469 531 
Q 828 903 1448 1529 
Q 2069 2156 2228 2338 
Q 2531 2678 2651 2914 
Q 2772 3150 2772 3378 
Q 2772 3750 2511 3984 
Q 2250 4219 1831 4219 
Q 1534 4219 1204 4116 
Q 875 4013 500 3803 
L 500 4441 
Q 881 4594 1212 4672 
Q 1544 4750 1819 4750 
Q 2544 4750 2975 4387 
Q 3406 4025 3406 3419 
Q 3406 3131 3298 2873 
Q 3191 2616 2906 2266 
Q 2828 2175 2409 1742 
Q 1991 1309 1228 531 
z
" transform="scale(0.015625)"/>
       </defs>
       <use xlink:href="#DejaVuSans-31"/>
       <use xlink:href="#DejaVuSans-39" x="63.623047"/>
       <use xlink:href="#DejaVuSans-39" x="127.246094"/>
       <use xlink:href="#DejaVuSans-32" x="190.869141"/>
      </g>
     </g>
    </g>
    <g id="xtick_2">
     <g id="line2d_2">
      <g>
       <use xlink:href="#m644f52d273" x="200.800401" y="238.70175" style="stroke: #000000; stroke-width: 0.8"/>
      </g>
     </g>
     <g id="text_2">
      <!-- 1996 -->
      <g transform="translate(188.075401 251.550188) scale(0.1 -0.1)">
       <defs>
        <path id="DejaVuSans-36" d="M 2113 2584 
Q 1688 2584 1439 2293 
Q 1191 2003 1191 1497 
Q 1191 994 1439 701 
Q 1688 409 2113 409 
Q 2538 409 2786 701 
Q 3034 994 3034 1497 
Q 3034 2003 2786 2293 
Q 2538 2584 2113 2584 
z
M 3366 4563 
L 3366 3988 
Q 3128 4100 2886 4159 
Q 2644 4219 2406 4219 
Q 1781 4219 1451 3797 
Q 1122 3375 1075 2522 
Q 1259 2794 1537 2939 
Q 1816 3084 2150 3084 
Q 2853 3084 3261 2657 
Q 3669 2231 3669 1497 
Q 3669 778 3244 343 
Q 2819 -91 2113 -91 
Q 1303 -91 875 529 
Q 447 1150 447 2328 
Q 447 3434 972 4092 
Q 1497 4750 2381 4750 
Q 2619 4750 2861 4703 
Q 3103 4656 3366 4563 
z
" transform="scale(0.015625)"/>
       </defs>
       <use xlink:href="#DejaVuSans-31"/>
       <use xlink:href="#DejaVuSans-39" x="63.623047"/>
       <use xlink:href="#DejaVuSans-39" x="127.246094"/>
       <use xlink:href="#DejaVuSans-36" x="190.869141"/>
      </g>
     </g>
    </g>
    <g id="xtick_3">
     <g id="line2d_3">
      <g>
       <use xlink:href="#m644f52d273" x="316.590288" y="238.70175" style="stroke: #000000; stroke-width: 0.8"/>
      </g>
     </g>
     <g id="text_3">
      <!-- 2000 -->
      <g transform="translate(303.865288 251.550188) scale(0.1 -0.1)">
       <defs>
        <path id="DejaVuSans-30" d="M 2034 4250 
Q 1547 4250 1301 3770 
Q 1056 3291 1056 2328 
Q 1056 1369 1301 889 
Q 1547 409 2034 409 
Q 2525 409 2770 889 
Q 3016 1369 3016 2328 
Q 3016 3291 2770 3770 
Q 2525 4250 2034 4250 
z
M 2034 4750 
Q 2819 4750 3233 4129 
Q 3647 3509 3647 2328 
Q 3647 1150 3233 529 
Q 2819 -91 2034 -91 
Q 1250 -91 836 529 
Q 422 1150 422 2328 
Q 422 3509 836 4129 
Q 1250 4750 2034 4750 
z
" transform="scale(0.015625)"/>
       </defs>
       <use xlink:href="#DejaVuSans-32"/>
       <use xlink:href="#DejaVuSans-30" x="63.623047"/>
       <use xlink:href="#DejaVuSans-30" x="127.246094"/>
       <use xlink:href="#DejaVuSans-30" x="190.869141"/>
      </g>
     </g>
    </g>
    <g id="xtick_4">
     <g id="line2d_4">
      <g>
       <use xlink:href="#m644f52d273" x="432.380175" y="238.70175" style="stroke: #000000; stroke-width: 0.8"/>
      </g>
     </g>
     <g id="text_4">
      <!-- 2004 -->
      <g transform="translate(419.655175 251.550188) scale(0.1 -0.1)">
       <defs>
        <path id="DejaVuSans-34" d="M 2419 4116 
L 825 1625 
L 2419 1625 
L 2419 4116 
z
M 2253 4666 
L 3047 4666 
L 3047 1625 
L 3713 1625 
L 3713 1100 
L 3047 1100 
L 3047 0 
L 2419 0 
L 2419 1100 
L 313 1100 
L 313 1709 
L 2253 4666 
z
" transform="scale(0.015625)"/>
       </defs>
       <use xlink:href="#DejaVuSans-32"/>
       <use xlink:href="#DejaVuSans-30" x="63.623047"/>
       <use xlink:href="#DejaVuSans-30" x="127.246094"/>
       <use xlink:href="#DejaVuSans-34" x="190.869141"/>
      </g>
     </g>
    </g>
    <g id="xtick_5">
     <g id="line2d_5">
      <g>
       <use xlink:href="#m644f52d273" x="548.170063" y="238.70175" style="stroke: #000000; stroke-width: 0.8"/>
      </g>
     </g>
     <g id="text_5">
      <!-- 2008 -->
      <g transform="translate(535.445063 251.550188) scale(0.1 -0.1)">
       <defs>
        <path id="DejaVuSans-38" d="M 2034 2216 
Q 1584 2216 1326 1975 
Q 1069 1734 1069 1313 
Q 1069 891 1326 650 
Q 1584 409 2034 409 
Q 2484 409 2743 651 
Q 3003 894 3003 1313 
Q 3003 1734 2745 1975 
Q 2488 2216 2034 2216 
z
M 1403 2484 
Q 997 2584 770 2862 
Q 544 3141 544 3541 
Q 544 4100 942 4425 
Q 1341 4750 2034 4750 
Q 2731 4750 3128 4425 
Q 3525 4100 3525 3541 
Q 3525 3141 3298 2862 
Q 3072 2584 2669 2484 
Q 3125 2378 3379 2068 
Q 3634 1759 3634 1313 
Q 3634 634 3220 271 
Q 2806 -91 2034 -91 
Q 1263 -91 848 271 
Q 434 634 434 1313 
Q 434 1759 690 2068 
Q 947 2378 1403 2484 
z
M 1172 3481 
Q 1172 3119 1398 2916 
Q 1625 2713 2034 2713 
Q 2441 2713 2670 2916 
Q 2900 3119 2900 3481 
Q 2900 3844 2670 4047 
Q 2441 4250 2034 4250 
Q 1625 4250 1398 4047 
Q 1172 3844 1172 3481 
z
" transform="scale(0.015625)"/>
       </defs>
       <use xlink:href="#DejaVuSans-32"/>
       <use xlink:href="#DejaVuSans-30" x="63.623047"/>
       <use xlink:href="#DejaVuSans-30" x="127.246094"/>
       <use xlink:href="#DejaVuSans-38" x="190.869141"/>
      </g>
     </g>
    </g>
    <g id="xtick_6">
     <g id="line2d_6">
      <g>
       <use xlink:href="#m644f52d273" x="663.95995" y="238.70175" style="stroke: #000000; stroke-width: 0.8"/>
      </g>
     </g>
     <g id="text_6">
      <!-- 2012 -->
      <g transform="translate(651.23495 251.550188) scale(0.1 -0.1)">
       <use xlink:href="#DejaVuSans-32"/>
       <use xlink:href="#DejaVuSans-30" x="63.623047"/>
       <use xlink:href="#DejaVuSans-31" x="127.246094"/>
       <use xlink:href="#DejaVuSans-32" x="190.869141"/>
      </g>
     </g>
    </g>
    <g id="xtick_7">
     <g id="line2d_7">
      <g>
       <use xlink:href="#m644f52d273" x="779.749837" y="238.70175" style="stroke: #000000; stroke-width: 0.8"/>
      </g>
     </g>
     <g id="text_7">
      <!-- 2016 -->
      <g transform="translate(767.024837 251.550188) scale(0.1 -0.1)">
       <use xlink:href="#DejaVuSans-32"/>
       <use xlink:href="#DejaVuSans-30" x="63.623047"/>
       <use xlink:href="#DejaVuSans-31" x="127.246094"/>
       <use xlink:href="#DejaVuSans-36" x="190.869141"/>
      </g>
     </g>
    </g>
   </g>
   <g id="matplotlib.axis_2">
    <g id="ytick_1">
     <g id="line2d_8">
      <path d="M 29.532813 225.856949 
L 866.532812 225.856949 
" clip-path="url(#pca532e2398)" style="fill: none; stroke-dasharray: 1.85,0.8; stroke-dashoffset: 0; stroke: #b2b2b2; stroke-width: 0.5"/>
     </g>
     <g id="line2d_9">
      <defs>
       <path id="med290e42bd" d="M 1.75 0 
L -1.75 -0 
" style="stroke: #000000; stroke-width: 0.8"/>
      </defs>
      <g>
       <use xlink:href="#med290e42bd" x="29.532813" y="225.856949" style="stroke: #000000; stroke-width: 0.8"/>
      </g>
     </g>
     <g id="text_8">
      <!-- −1.0 -->
      <g transform="translate(0 229.656168) scale(0.1 -0.1)">
       <defs>
        <path id="DejaVuSans-2212" d="M 678 2272 
L 4684 2272 
L 4684 1741 
L 678 1741 
L 678 2272 
z
" transform="scale(0.015625)"/>
        <path id="DejaVuSans-2e" d="M 684 794 
L 1344 794 
L 1344 0 
L 684 0 
L 684 794 
z
" transform="scale(0.015625)"/>
       </defs>
       <use xlink:href="#DejaVuSans-2212"/>
       <use xlink:href="#DejaVuSans-31" x="83.789062"/>
       <use xlink:href="#DejaVuSans-2e" x="147.412109"/>
       <use xlink:href="#DejaVuSans-30" x="179.199219"/>
      </g>
     </g>
    </g>
    <g id="ytick_2">
     <g id="line2d_10">
      <path d="M 29.532813 187.464274 
L 866.532812 187.464274 
" clip-path="url(#pca532e2398)" style="fill: none; stroke-dasharray: 1.85,0.8; stroke-dashoffset: 0; stroke: #b2b2b2; stroke-width: 0.5"/>
     </g>
     <g id="line2d_11">
      <g>
       <use xlink:href="#med290e42bd" x="29.532813" y="187.464274" style="stroke: #000000; stroke-width: 0.8"/>
      </g>
     </g>
     <g id="text_9">
      <!-- −0.5 -->
      <g transform="translate(0 191.263493) scale(0.1 -0.1)">
       <defs>
        <path id="DejaVuSans-35" d="M 691 4666 
L 3169 4666 
L 3169 4134 
L 1269 4134 
L 1269 2991 
Q 1406 3038 1543 3061 
Q 1681 3084 1819 3084 
Q 2600 3084 3056 2656 
Q 3513 2228 3513 1497 
Q 3513 744 3044 326 
Q 2575 -91 1722 -91 
Q 1428 -91 1123 -41 
Q 819 9 494 109 
L 494 744 
Q 775 591 1075 516 
Q 1375 441 1709 441 
Q 2250 441 2565 725 
Q 2881 1009 2881 1497 
Q 2881 1984 2565 2268 
Q 2250 2553 1709 2553 
Q 1456 2553 1204 2497 
Q 953 2441 691 2322 
L 691 4666 
z
" transform="scale(0.015625)"/>
       </defs>
       <use xlink:href="#DejaVuSans-2212"/>
       <use xlink:href="#DejaVuSans-30" x="83.789062"/>
       <use xlink:href="#DejaVuSans-2e" x="147.412109"/>
       <use xlink:href="#DejaVuSans-35" x="179.199219"/>
      </g>
     </g>
    </g>
    <g id="ytick_3">
     <g id="line2d_12">
      <path d="M 29.532813 149.071599 
L 866.532812 149.071599 
" clip-path="url(#pca532e2398)" style="fill: none; stroke-dasharray: 1.85,0.8; stroke-dashoffset: 0; stroke: #b2b2b2; stroke-width: 0.5"/>
     </g>
     <g id="line2d_13">
      <g>
       <use xlink:href="#med290e42bd" x="29.532813" y="149.071599" style="stroke: #000000; stroke-width: 0.8"/>
      </g>
     </g>
     <g id="text_10">
      <!-- 0.0 -->
      <g transform="translate(8.379688 152.870818) scale(0.1 -0.1)">
       <use xlink:href="#DejaVuSans-30"/>
       <use xlink:href="#DejaVuSans-2e" x="63.623047"/>
       <use xlink:href="#DejaVuSans-30" x="95.410156"/>
      </g>
     </g>
    </g>
    <g id="ytick_4">
     <g id="line2d_14">
      <path d="M 29.532813 110.678924 
L 866.532812 110.678924 
" clip-path="url(#pca532e2398)" style="fill: none; stroke-dasharray: 1.85,0.8; stroke-dashoffset: 0; stroke: #b2b2b2; stroke-width: 0.5"/>
     </g>
     <g id="line2d_15">
      <g>
       <use xlink:href="#med290e42bd" x="29.532813" y="110.678924" style="stroke: #000000; stroke-width: 0.8"/>
      </g>
     </g>
     <g id="text_11">
      <!-- 0.5 -->
      <g transform="translate(8.379688 114.478143) scale(0.1 -0.1)">
       <use xlink:href="#DejaVuSans-30"/>
       <use xlink:href="#DejaVuSans-2e" x="63.623047"/>
       <use xlink:href="#DejaVuSans-35" x="95.410156"/>
      </g>
     </g>
    </g>
    <g id="ytick_5">
     <g id="line2d_16">
      <path d="M 29.532813 72.286249 
L 866.532812 72.286249 
" clip-path="url(#pca532e2398)" style="fill: none; stroke-dasharray: 1.85,0.8; stroke-dashoffset: 0; stroke: #b2b2b2; stroke-width: 0.5"/>
     </g>
     <g id="line2d_17">
      <g>
       <use xlink:href="#med290e42bd" x="29.532813" y="72.286249" style="stroke: #000000; stroke-width: 0.8"/>
      </g>
     </g>
     <g id="text_12">
      <!-- 1.0 -->
      <g transform="translate(8.379688 76.085468) scale(0.1 -0.1)">
       <use xlink:href="#DejaVuSans-31"/>
       <use xlink:href="#DejaVuSans-2e" x="63.623047"/>
       <use xlink:href="#DejaVuSans-30" x="95.410156"/>
      </g>
     </g>
    </g>
    <g id="ytick_6">
     <g id="line2d_18">
      <path d="M 29.532813 33.893574 
L 866.532812 33.893574 
" clip-path="url(#pca532e2398)" style="fill: none; stroke-dasharray: 1.85,0.8; stroke-dashoffset: 0; stroke: #b2b2b2; stroke-width: 0.5"/>
     </g>
     <g id="line2d_19">
      <g>
       <use xlink:href="#med290e42bd" x="29.532813" y="33.893574" style="stroke: #000000; stroke-width: 0.8"/>
      </g>
     </g>
     <g id="text_13">
      <!-- 1.5 -->
      <g transform="translate(8.379688 37.692793) scale(0.1 -0.1)">
       <use xlink:href="#DejaVuSans-31"/>
       <use xlink:href="#DejaVuSans-2e" x="63.623047"/>
       <use xlink:href="#DejaVuSans-35" x="95.410156"/>
      </g>
     </g>
    </g>
   </g>
   <g id="line2d_20">
    <path d="M 29.532812 208.022165 
L 31.751921 204.401713 
L 34.20879 216.874904 
L 39.043276 211.248631 
L 41.420891 214.359646 
L 43.877761 202.652595 
L 46.334631 205.559951 
L 48.712246 204.598169 
L 51.169116 217.748414 
L 53.546732 232.181059 
L 56.003601 225.241285 
L 58.460471 233.252862 
L 60.679579 214.993033 
L 63.136449 234.337421 
L 65.514064 222.728081 
L 67.970934 226.332167 
L 70.34855 221.940667 
L 72.805419 215.80941 
L 75.262289 214.439017 
L 77.639905 197.731796 
L 80.096774 225.799077 
L 82.47439 238.70175 
L 84.93126 213.271753 
L 87.388129 193.584842 
L 89.686491 193.853049 
L 92.143361 187.361423 
L 96.977846 183.321563 
L 99.355462 184.094348 
L 101.812331 179.884494 
L 104.269201 176.716317 
L 106.646817 174.160759 
L 109.103686 175.677739 
L 111.481302 177.992061 
L 113.938172 155.939413 
L 116.395041 153.560294 
L 118.614149 152.854412 
L 121.071019 153.024277 
L 123.448635 148.84546 
L 125.905504 148.246542 
L 128.28312 149.295163 
L 130.73999 148.185037 
L 135.574475 148.150957 
L 138.031345 148.468064 
L 140.408961 149.644029 
L 142.86583 149.381901 
L 145.3227 142.123425 
L 147.541808 140.722788 
L 149.998677 145.465571 
L 152.376293 144.534629 
L 154.833163 144.142094 
L 157.210779 139.666146 
L 159.667648 143.539328 
L 162.124518 142.944978 
L 164.502134 143.3192 
L 166.959003 144.172281 
L 169.336619 142.738756 
L 171.793489 136.124082 
L 174.250358 136.231811 
L 176.469466 136.457564 
L 178.926336 142.725106 
L 181.303952 142.620848 
L 183.760821 139.872119 
L 186.138437 135.307979 
L 188.595307 139.140634 
L 191.052176 138.502772 
L 193.429792 139.462616 
L 195.886662 138.456942 
L 198.264277 139.469612 
L 200.721147 139.70974 
L 203.178017 139.416015 
L 205.476378 137.754455 
L 207.933248 137.216272 
L 210.310864 137.763276 
L 212.767733 136.310646 
L 215.145349 137.401738 
L 217.602219 138.084514 
L 220.059088 137.631117 
L 222.436704 138.238639 
L 224.893574 135.504564 
L 227.27119 129.335226 
L 229.728059 130.135136 
L 232.184929 129.665598 
L 234.404037 126.935867 
L 236.860906 125.1713 
L 239.238522 122.891077 
L 241.695392 130.172149 
L 244.073008 129.983367 
L 246.529877 129.016163 
L 248.986747 120.598713 
L 251.364363 117.476679 
L 256.198848 117.956618 
L 258.655718 119.262247 
L 261.112587 119.862535 
L 263.331695 119.224247 
L 265.788565 121.012569 
L 268.166181 126.650914 
L 270.62305 129.643957 
L 273.000666 124.53792 
L 275.457536 120.669732 
L 277.914405 120.868917 
L 280.292021 117.407443 
L 282.748891 119.553354 
L 285.126506 111.096811 
L 287.583376 108.294903 
L 290.040246 110.174762 
L 292.259354 112.11386 
L 294.716223 113.980129 
L 297.093839 116.877787 
L 299.550709 110.321556 
L 301.928324 105.68091 
L 304.385194 104.241849 
L 306.842064 105.417129 
L 309.219679 102.239579 
L 311.676549 99.196726 
L 314.054165 98.401647 
L 316.511034 101.986101 
L 318.967904 104.656637 
L 321.266266 100.723558 
L 323.723135 103.920194 
L 326.100751 107.817344 
L 328.557621 104.354353 
L 330.935237 106.277515 
L 333.392106 101.15336 
L 335.848976 105.323195 
L 340.683461 111.013578 
L 343.061077 113.383658 
L 345.517946 112.436467 
L 347.974816 112.82184 
L 350.193924 120.008788 
L 352.650794 118.676929 
L 355.02841 116.262551 
L 357.485279 112.386054 
L 359.862895 102.282945 
L 362.319764 104.654112 
L 364.776634 104.569053 
L 367.15425 104.102749 
L 369.611119 106.752439 
L 371.988735 102.334263 
L 374.445605 102.317352 
L 376.902474 107.067123 
L 379.121583 107.801272 
L 381.578452 109.990792 
L 383.956068 110.283432 
L 386.412937 106.660291 
L 388.790553 101.534856 
L 393.704292 104.556475 
L 396.081908 114.769949 
L 398.538778 113.438235 
L 400.916394 109.862479 
L 403.373263 112.446341 
L 405.830133 113.399571 
L 408.049241 110.839055 
L 410.50611 113.410914 
L 412.883726 117.191419 
L 415.340596 114.591402 
L 417.718212 106.818047 
L 420.175081 105.509304 
L 422.631951 104.922014 
L 425.009567 109.802778 
L 427.466436 107.532992 
L 429.844052 113.759928 
L 432.300922 116.19879 
L 434.757791 116.584654 
L 437.056153 106.361128 
L 439.513023 106.526567 
L 441.890638 116.053129 
L 444.347508 129.444903 
L 446.725124 127.873523 
L 449.181993 128.32331 
L 451.638863 128.495023 
L 454.016479 107.721701 
L 456.473348 126.160149 
L 458.850964 108.175205 
L 461.307834 112.896796 
L 463.764703 122.808709 
L 465.983811 113.01545 
L 468.440681 130.012095 
L 470.818297 129.840214 
L 473.275166 128.516466 
L 475.652782 128.933118 
L 478.109652 128.429424 
L 480.566521 129.120495 
L 482.944137 128.964878 
L 485.401007 128.3231 
L 487.778623 128.124629 
L 490.235492 128.320276 
L 492.692362 128.735104 
L 494.91147 126.962217 
L 497.368339 127.626289 
L 502.202825 128.070457 
L 504.580441 128.984002 
L 507.03731 129.726586 
L 509.49418 128.116154 
L 511.871796 127.777261 
L 514.328665 128.115849 
L 516.706281 127.914581 
L 519.163151 125.825103 
L 521.62002 124.641456 
L 523.839128 124.425421 
L 526.295998 126.724948 
L 528.673614 124.96767 
L 531.130483 125.549625 
L 533.508099 125.423628 
L 535.964969 126.330022 
L 538.421838 125.093729 
L 540.799454 127.024532 
L 543.256324 126.278544 
L 545.633939 126.198609 
L 548.090809 126.337718 
L 550.547679 126.760534 
L 552.84604 128.975746 
L 555.30291 125.243496 
L 557.680526 125.685334 
L 560.137395 123.301798 
L 562.515011 126.812488 
L 564.971881 126.921216 
L 567.42875 123.97554 
L 569.806366 119.836494 
L 572.263236 123.14094 
L 574.640852 103.756159 
L 577.097721 95.342271 
L 579.554591 88.095201 
L 581.773699 100.610248 
L 584.230568 92.552374 
L 586.608184 34.980947 
L 589.065054 41.348076 
L 591.44267 41.268196 
L 593.899539 32.375677 
L 596.356409 30.965122 
L 598.734025 33.896109 
L 601.190894 38.738604 
L 603.56851 36.305077 
L 606.025379 36.826849 
L 608.482249 36.542038 
L 610.701357 32.182304 
L 613.158227 30.222376 
L 615.535843 32.735412 
L 617.992712 36.114787 
L 620.370328 30.310902 
L 622.827198 19.029577 
L 625.284067 32.708988 
L 627.661683 27.196189 
L 630.118552 21.159118 
L 632.496168 20.831337 
L 634.953038 16.94175 
L 637.409907 21.028254 
L 639.629016 26.74346 
L 642.085885 42.224716 
L 644.463501 37.623384 
L 646.92037 39.940183 
L 649.297986 38.115861 
L 651.754856 36.620288 
L 654.211725 43.124081 
L 656.589341 38.403559 
L 659.046211 30.654542 
L 661.423827 37.461443 
L 663.880696 34.127008 
L 666.337566 25.268578 
L 668.635928 27.600407 
L 671.092797 38.047823 
L 673.470413 39.478226 
L 675.927283 39.557993 
L 678.304898 40.798698 
L 680.761768 41.642868 
L 683.218638 37.184843 
L 685.596253 31.408818 
L 688.053123 36.537998 
L 690.430739 33.01426 
L 692.887608 26.591052 
L 695.344478 32.454203 
L 697.563586 34.155532 
L 700.020456 43.989675 
L 702.398071 39.875082 
L 704.854941 34.204612 
L 707.232557 36.455062 
L 709.689426 43.267738 
L 712.146296 36.552017 
L 714.523912 36.607182 
L 716.980781 39.356716 
L 719.358397 51.04137 
L 721.815267 56.821944 
L 724.272136 58.454251 
L 726.491244 59.039334 
L 728.948114 81.03617 
L 731.32573 87.051407 
L 736.160215 74.717503 
L 738.617085 84.387863 
L 741.073954 85.126421 
L 743.45157 89.79465 
L 745.90844 91.987227 
L 748.286056 92.881689 
L 750.742925 97.489967 
L 753.199795 104.161591 
L 755.418903 106.132074 
L 757.875772 106.536278 
L 760.253388 103.90495 
L 762.710258 99.577471 
L 765.087874 101.669634 
L 767.544743 116.635468 
L 770.001613 106.357634 
L 772.379229 106.162695 
L 774.836098 107.688734 
L 777.213714 100.219956 
L 779.670584 96.669772 
L 782.127453 96.992556 
L 784.425815 96.487701 
L 786.882685 89.458614 
L 789.2603 89.527548 
L 791.71717 84.162889 
L 794.094786 84.02003 
L 796.551655 82.464315 
L 799.008525 84.741514 
L 801.386141 132.878021 
L 803.84301 113.820603 
L 806.220626 107.193513 
L 808.677496 111.667359 
L 811.134365 108.934079 
L 813.353473 110.504133 
L 815.810343 102.310035 
L 818.187959 85.996897 
L 820.644828 93.083726 
L 823.022444 93.434041 
L 825.479314 103.914727 
L 827.936183 133.996743 
L 832.770669 133.718153 
L 835.148285 114.296867 
L 837.605154 133.564134 
L 840.062024 133.606338 
L 842.281132 133.928509 
L 844.738001 125.995149 
L 847.115617 133.637204 
L 849.572487 133.996844 
L 851.950103 133.359519 
L 854.406972 133.857353 
L 856.863842 133.534022 
L 859.241458 133.749668 
L 861.698327 133.461646 
L 864.075943 133.786403 
L 866.532813 133.714529 
L 866.532813 133.714529 
" clip-path="url(#pca532e2398)" style="fill: none; stroke: #e69f00; stroke-width: 2; stroke-linecap: square"/>
   </g>
   <g id="line2d_21">
    <path d="M 29.532812 54.013663 
L 31.751921 60.792226 
L 34.20879 51.377521 
L 39.043276 56.852008 
L 41.420891 55.601174 
L 43.877761 55.277294 
L 46.334631 53.061226 
L 48.712246 57.306292 
L 51.169116 45.27657 
L 53.546732 37.76803 
L 56.003601 42.225425 
L 58.460471 34.433648 
L 60.679579 48.197088 
L 63.136449 34.521646 
L 65.514064 38.096422 
L 67.970934 35.774034 
L 70.34855 36.702667 
L 72.805419 40.938727 
L 75.262289 40.276552 
L 77.639905 50.804009 
L 80.096774 32.205823 
L 82.47439 26.12712 
L 87.388129 48.715484 
L 89.686491 43.334467 
L 92.143361 40.189807 
L 94.520976 39.837381 
L 96.977846 34.677823 
L 99.355462 35.806136 
L 101.812331 42.009585 
L 104.269201 44.51382 
L 106.646817 44.444809 
L 109.103686 39.959779 
L 111.481302 35.200988 
L 113.938172 44.593937 
L 116.395041 50.240681 
L 118.614149 45.620962 
L 121.071019 49.551293 
L 123.448635 64.599395 
L 125.905504 64.917025 
L 128.28312 58.092122 
L 130.73999 65.907997 
L 133.196859 68.093775 
L 135.574475 69.622417 
L 138.031345 62.778034 
L 140.408961 51.027239 
L 142.86583 49.712212 
L 145.3227 41.624498 
L 147.541808 43.657391 
L 149.998677 49.998256 
L 152.376293 53.62207 
L 154.833163 52.618411 
L 157.210779 46.726142 
L 159.667648 60.48684 
L 162.124518 58.367001 
L 164.502134 69.771868 
L 166.959003 72.970271 
L 169.336619 57.901642 
L 171.793489 49.435498 
L 176.469466 42.695529 
L 178.926336 59.050968 
L 181.303952 56.337001 
L 183.760821 54.958692 
L 186.138437 47.455106 
L 188.595307 61.555314 
L 193.429792 51.02531 
L 195.886662 70.387589 
L 200.721147 71.232832 
L 203.178017 70.924426 
L 205.476378 88.478592 
L 207.933248 85.791882 
L 210.310864 96.497134 
L 212.767733 93.038067 
L 215.145349 87.425811 
L 217.602219 86.831654 
L 220.059088 87.351604 
L 222.436704 85.159832 
L 224.893574 81.269157 
L 227.27119 78.656208 
L 229.728059 83.396749 
L 232.184929 75.013264 
L 234.404037 102.315977 
L 236.860906 97.564032 
L 239.238522 97.561266 
L 241.695392 104.70439 
L 244.073008 100.186376 
L 246.529877 101.973873 
L 248.986747 81.665691 
L 251.364363 74.381664 
L 253.821232 74.513176 
L 256.198848 71.929828 
L 258.655718 76.775116 
L 261.112587 72.744823 
L 263.331695 72.812086 
L 265.788565 73.515522 
L 268.166181 68.355216 
L 270.62305 78.505361 
L 273.000666 83.801183 
L 275.457536 96.684536 
L 277.914405 93.432098 
L 280.292021 99.992084 
L 282.748891 66.177525 
L 285.126506 65.445146 
L 287.583376 61.568425 
L 290.040246 57.153175 
L 292.259354 58.689643 
L 294.716223 62.58809 
L 297.093839 61.025101 
L 299.550709 74.094728 
L 301.928324 80.410374 
L 304.385194 80.448703 
L 306.842064 79.925174 
L 309.219679 75.51577 
L 311.676549 76.546992 
L 314.054165 80.272739 
L 316.511034 78.110273 
L 318.967904 80.647379 
L 321.266266 80.45875 
L 323.723135 77.650912 
L 326.100751 81.427053 
L 328.557621 77.877131 
L 330.935237 85.743904 
L 333.392106 76.465671 
L 335.848976 74.584022 
L 338.226591 84.348061 
L 340.683461 86.23838 
L 343.061077 88.967128 
L 345.517946 85.482746 
L 347.974816 89.571253 
L 352.650794 101.627377 
L 355.02841 96.950496 
L 357.485279 94.532797 
L 359.862895 91.055393 
L 362.319764 96.215407 
L 364.776634 99.491277 
L 367.15425 101.116529 
L 369.611119 99.892335 
L 371.988735 100.946332 
L 374.445605 100.93961 
L 376.902474 102.978204 
L 379.121583 102.367027 
L 381.578452 102.830369 
L 383.956068 105.347218 
L 386.412937 105.842479 
L 388.790553 102.464634 
L 391.247423 104.219025 
L 393.704292 102.187515 
L 396.081908 109.146681 
L 398.538778 108.788681 
L 400.916394 105.275125 
L 403.373263 106.099882 
L 405.830133 109.929357 
L 408.049241 106.890224 
L 410.50611 108.631993 
L 412.883726 113.654961 
L 415.340596 111.988999 
L 417.718212 107.062946 
L 420.175081 106.464212 
L 422.631951 106.848439 
L 425.009567 106.965669 
L 427.466436 112.701342 
L 429.844052 112.390606 
L 432.300922 116.33587 
L 434.757791 122.297561 
L 437.056153 125.31026 
L 439.513023 124.028005 
L 441.890638 125.636456 
L 444.347508 129.059562 
L 446.725124 127.071933 
L 449.181993 127.519011 
L 451.638863 128.192913 
L 454.016479 121.987584 
L 456.473348 126.727089 
L 458.850964 122.47097 
L 461.307834 129.750607 
L 463.764703 130.538971 
L 465.983811 128.450073 
L 468.440681 130.179435 
L 470.818297 129.792086 
L 473.275166 129.029219 
L 478.109652 128.263624 
L 482.944137 127.946404 
L 485.401007 129.549837 
L 487.778623 128.114436 
L 490.235492 128.039347 
L 492.692362 127.573476 
L 494.91147 127.761588 
L 497.368339 127.590561 
L 499.745955 126.901058 
L 502.202825 130.404303 
L 504.580441 128.84595 
L 507.03731 136.321927 
L 509.49418 128.598405 
L 511.871796 128.60064 
L 514.328665 127.867075 
L 516.706281 126.807183 
L 519.163151 135.061096 
L 521.62002 134.511447 
L 523.839128 134.977469 
L 526.295998 130.79139 
L 528.673614 131.52614 
L 531.130483 129.742468 
L 533.508099 130.793852 
L 535.964969 131.047944 
L 538.421838 132.561276 
L 540.799454 126.005971 
L 543.256324 126.054092 
L 545.633939 126.348473 
L 548.090809 125.101778 
L 550.547679 127.953639 
L 552.84604 127.880925 
L 555.30291 125.773271 
L 557.680526 124.59124 
L 560.137395 125.149115 
L 562.515011 125.498261 
L 564.971881 128.96543 
L 567.42875 128.666862 
L 569.806366 128.180423 
L 572.263236 127.236491 
L 574.640852 127.64227 
L 577.097721 134.806917 
L 579.554591 132.395199 
L 581.773699 129.08218 
L 584.230568 128.389588 
L 586.608184 128.364332 
L 589.065054 126.835271 
L 591.44267 127.731775 
L 593.899539 126.820657 
L 596.356409 126.911708 
L 598.734025 129.709408 
L 601.190894 131.120883 
L 603.56851 131.007046 
L 606.025379 130.475798 
L 610.701357 130.680623 
L 613.158227 130.360142 
L 615.535843 126.092128 
L 617.992712 127.287976 
L 620.370328 125.072717 
L 622.827198 126.262328 
L 625.284067 128.201299 
L 627.661683 128.007721 
L 630.118552 128.934733 
L 632.496168 129.188883 
L 634.953038 124.625513 
L 637.409907 124.839358 
L 639.629016 126.231282 
L 642.085885 125.385422 
L 644.463501 125.532281 
L 646.92037 126.890436 
L 649.297986 126.006605 
L 651.754856 124.642927 
L 654.211725 126.614369 
L 656.589341 125.992397 
L 659.046211 121.219854 
L 661.423827 126.364805 
L 663.880696 128.140044 
L 666.337566 129.193964 
L 668.635928 129.001162 
L 671.092797 132.970744 
L 673.470413 133.10133 
L 675.927283 132.667367 
L 678.304898 131.0603 
L 680.761768 131.794327 
L 683.218638 131.247603 
L 685.596253 133.518093 
L 688.053123 134.444583 
L 690.430739 134.729991 
L 692.887608 132.585391 
L 695.344478 132.130305 
L 697.563586 133.379284 
L 700.020456 136.201278 
L 702.398071 134.910163 
L 704.854941 132.97062 
L 707.232557 133.893902 
L 709.689426 134.156132 
L 712.146296 136.690573 
L 714.523912 138.294117 
L 716.980781 138.57726 
L 719.358397 132.170724 
L 721.815267 129.320352 
L 724.272136 137.539295 
L 726.491244 140.815706 
L 728.948114 140.073581 
L 731.32573 135.739651 
L 733.782599 141.365531 
L 736.160215 140.02806 
L 738.617085 139.006935 
L 741.073954 139.631103 
L 743.45157 142.889318 
L 745.90844 141.442446 
L 748.286056 142.613689 
L 750.742925 140.83919 
L 753.199795 137.91688 
L 755.418903 137.618879 
L 757.875772 133.913737 
L 760.253388 133.106962 
L 762.710258 135.255161 
L 765.087874 134.721083 
L 767.544743 133.637059 
L 770.001613 135.775806 
L 772.379229 132.384394 
L 774.836098 132.527497 
L 777.213714 130.50672 
L 779.670584 133.429715 
L 782.127453 132.881161 
L 784.425815 133.257332 
L 786.882685 133.972949 
L 789.2603 133.378692 
L 791.71717 134.661938 
L 794.094786 133.227593 
L 796.551655 133.390471 
L 799.008525 133.438318 
L 801.386141 132.465875 
L 803.84301 132.977842 
L 806.220626 134.397784 
L 808.677496 135.274377 
L 811.134365 135.86316 
L 813.353473 136.598842 
L 815.810343 133.731056 
L 818.187959 126.424884 
L 820.644828 132.286596 
L 823.022444 131.777461 
L 825.479314 130.08258 
L 827.936183 133.878899 
L 830.313799 133.415012 
L 832.770669 133.639627 
L 835.148285 134.897754 
L 837.605154 133.64161 
L 840.062024 134.17347 
L 842.281132 134.061049 
L 844.738001 131.85331 
L 847.115617 133.576078 
L 851.950103 133.829923 
L 854.406972 133.76105 
L 856.863842 134.351945 
L 859.241458 133.560225 
L 861.698327 133.895302 
L 864.075943 133.728006 
L 866.532813 133.714529 
L 866.532813 133.714529 
" clip-path="url(#pca532e2398)" style="fill: none; stroke-dasharray: 7.4,3.2; stroke-dashoffset: 0; stroke: #56b4e9; stroke-width: 2"/>
   </g>
   <g id="line2d_22">
    <path d="M 29.532812 135.521626 
L 31.751921 134.320743 
L 34.20879 133.17397 
L 36.586406 133.574855 
L 39.043276 133.514553 
L 41.420891 134.079345 
L 43.877761 137.326281 
L 46.334631 138.239811 
L 48.712246 135.079054 
L 51.169116 137.985445 
L 53.546732 133.985678 
L 56.003601 134.596441 
L 58.460471 132.761395 
L 60.679579 133.584814 
L 63.136449 131.327553 
L 65.514064 132.385223 
L 67.970934 133.910618 
L 70.34855 136.749966 
L 72.805419 137.587719 
L 75.262289 136.983514 
L 77.639905 136.877168 
L 80.096774 134.965788 
L 82.47439 134.783834 
L 84.93126 137.667743 
L 87.388129 138.471542 
L 89.686491 140.3425 
L 92.143361 142.1518 
L 94.520976 143.62831 
L 96.977846 146.092315 
L 99.355462 145.089589 
L 101.812331 145.141116 
L 104.269201 147.213685 
L 106.646817 148.285948 
L 111.481302 149.212429 
L 113.938172 156.082009 
L 116.395041 153.666817 
L 118.614149 153.018632 
L 121.071019 153.06038 
L 123.448635 148.8356 
L 125.905504 148.22548 
L 128.28312 149.30228 
L 130.73999 148.188512 
L 135.574475 148.139914 
L 138.031345 148.489352 
L 140.408961 149.623154 
L 142.86583 149.384186 
L 145.3227 156.235651 
L 147.541808 155.017315 
L 149.998677 148.019567 
L 152.376293 144.564869 
L 154.833163 143.962475 
L 157.210779 145.446352 
L 159.667648 143.468949 
L 162.124518 142.887484 
L 164.502134 143.253525 
L 166.959003 144.040181 
L 169.336619 142.781145 
L 171.793489 150.537327 
L 174.250358 151.577118 
L 176.469466 149.482847 
L 178.926336 142.734972 
L 183.760821 141.837847 
L 186.138437 148.689027 
L 188.595307 138.710117 
L 191.052176 138.478642 
L 193.429792 145.141171 
L 195.886662 138.04961 
L 198.264277 139.898109 
L 200.721147 139.894471 
L 203.178017 134.875391 
L 205.476378 137.780588 
L 207.933248 135.495853 
L 210.310864 137.208795 
L 212.767733 136.600115 
L 215.145349 137.734929 
L 217.602219 138.343896 
L 220.059088 137.627767 
L 222.436704 142.135031 
L 224.893574 143.775083 
L 227.27119 147.602203 
L 229.728059 145.27885 
L 232.184929 149.313379 
L 234.404037 148.596015 
L 236.860906 151.366122 
L 239.238522 153.069679 
L 241.695392 146.865743 
L 246.529877 150.07522 
L 248.986747 157.49974 
L 251.364363 162.48409 
L 253.821232 159.695513 
L 256.198848 159.304431 
L 258.655718 159.335072 
L 261.112587 161.524093 
L 263.331695 161.591664 
L 265.788565 158.730762 
L 268.166181 158.394841 
L 270.62305 154.509334 
L 273.000666 154.351622 
L 275.457536 152.295997 
L 277.914405 153.257723 
L 280.292021 150.171637 
L 282.748891 151.784236 
L 285.126506 157.274691 
L 287.583376 158.804652 
L 290.040246 159.925611 
L 292.259354 157.601483 
L 294.716223 151.483642 
L 297.093839 155.374115 
L 299.550709 157.196239 
L 301.928324 158.124055 
L 304.385194 156.715581 
L 306.842064 157.531643 
L 309.219679 157.769633 
L 311.676549 158.634751 
L 314.054165 156.546121 
L 316.511034 156.1219 
L 318.967904 155.327053 
L 321.266266 159.173095 
L 323.723135 156.736575 
L 326.100751 152.999456 
L 328.557621 153.38515 
L 330.935237 151.616494 
L 333.392106 152.424634 
L 335.848976 153.362498 
L 338.226591 153.004957 
L 340.683461 152.157042 
L 343.061077 151.053427 
L 345.517946 151.061055 
L 347.974816 150.874148 
L 352.650794 146.155332 
L 359.862895 150.770304 
L 364.776634 149.971873 
L 367.15425 149.437981 
L 369.611119 149.78908 
L 371.988735 151.070511 
L 374.445605 151.198074 
L 379.121583 150.824232 
L 381.578452 150.770724 
L 383.956068 149.970115 
L 386.412937 150.385179 
L 388.790553 151.156559 
L 391.247423 150.947885 
L 393.704292 151.887099 
L 396.081908 151.399862 
L 398.538778 152.429301 
L 400.916394 153.774982 
L 403.373263 153.0304 
L 405.830133 153.538088 
L 408.049241 154.130853 
L 410.50611 153.713249 
L 412.883726 153.510512 
L 415.340596 153.697815 
L 417.718212 154.034923 
L 420.175081 154.727077 
L 422.631951 154.482666 
L 425.009567 154.412117 
L 427.466436 155.486689 
L 429.844052 154.213571 
L 432.300922 154.308915 
L 434.757791 154.011798 
L 437.056153 153.395856 
L 439.513023 154.058127 
L 441.890638 152.815796 
L 444.347508 151.400642 
L 446.725124 151.663516 
L 449.181993 151.704013 
L 451.638863 151.342883 
L 454.016479 153.871632 
L 456.473348 152.61238 
L 458.850964 154.584482 
L 461.307834 154.753059 
L 463.764703 154.233708 
L 465.983811 155.188416 
L 468.440681 148.160733 
L 470.818297 151.37557 
L 473.275166 152.948953 
L 475.652782 152.930005 
L 478.109652 154.424656 
L 480.566521 154.04512 
L 482.944137 154.126775 
L 485.401007 153.743707 
L 487.778623 157.903693 
L 490.235492 157.125531 
L 492.692362 159.433201 
L 494.91147 164.199341 
L 497.368339 171.324678 
L 499.745955 175.484622 
L 502.202825 174.124787 
L 504.580441 173.426197 
L 507.03731 177.701958 
L 509.49418 177.68711 
L 511.871796 176.769374 
L 514.328665 175.508025 
L 516.706281 174.894218 
L 519.163151 180.058323 
L 521.62002 177.837696 
L 523.839128 178.609991 
L 526.295998 177.054256 
L 528.673614 182.643141 
L 531.130483 183.725258 
L 535.964969 185.101981 
L 538.421838 177.431927 
L 540.799454 172.668801 
L 543.256324 173.633682 
L 545.633939 167.502747 
L 548.090809 166.730371 
L 550.547679 164.463947 
L 552.84604 158.338498 
L 555.30291 165.634962 
L 557.680526 166.843716 
L 560.137395 169.770088 
L 562.515011 162.498195 
L 564.971881 160.58235 
L 567.42875 163.785303 
L 569.806366 164.414496 
L 572.263236 164.000445 
L 574.640852 175.133648 
L 577.097721 172.035798 
L 579.554591 174.346587 
L 581.773699 173.237939 
L 584.230568 173.152835 
L 586.608184 191.386587 
L 589.065054 189.486731 
L 591.44267 192.817069 
L 593.899539 194.613844 
L 596.356409 194.669006 
L 598.734025 190.396427 
L 601.190894 187.486646 
L 603.56851 189.720953 
L 606.025379 192.402075 
L 608.482249 187.551016 
L 610.701357 192.089346 
L 613.158227 193.438575 
L 615.535843 196.236547 
L 617.992712 194.127937 
L 620.370328 195.866119 
L 622.827198 197.171588 
L 625.284067 192.200565 
L 627.661683 195.559906 
L 630.118552 197.101 
L 632.496168 196.808432 
L 634.953038 202.930494 
L 637.409907 202.490113 
L 639.629016 199.002338 
L 642.085885 191.424455 
L 644.463501 194.199142 
L 646.92037 191.388927 
L 649.297986 191.167121 
L 651.754856 193.442797 
L 654.211725 189.009092 
L 656.589341 193.144807 
L 659.046211 198.020253 
L 661.423827 190.837314 
L 663.880696 190.849681 
L 666.337566 194.197633 
L 668.635928 192.169137 
L 671.092797 184.32677 
L 673.470413 183.58974 
L 675.927283 183.934344 
L 678.304898 185.313536 
L 680.761768 184.408882 
L 685.596253 190.2493 
L 688.053123 185.128332 
L 690.430739 188.402794 
L 692.887608 193.234945 
L 695.344478 192.109552 
L 697.563586 194.583033 
L 700.020456 181.388807 
L 702.398071 184.530972 
L 704.854941 186.460529 
L 707.232557 185.825803 
L 709.689426 181.689833 
L 712.146296 183.922823 
L 714.523912 181.170582 
L 716.980781 175.851232 
L 719.358397 166.569225 
L 721.815267 158.90446 
L 724.272136 157.283875 
L 726.491244 155.550426 
L 728.948114 141.821716 
L 731.32573 151.189446 
L 733.782599 153.083597 
L 736.160215 158.017753 
L 738.617085 153.60106 
L 741.073954 151.931312 
L 743.45157 146.467163 
L 745.90844 143.538521 
L 750.742925 140.994055 
L 753.199795 143.115859 
L 755.418903 138.919287 
L 757.875772 133.998694 
L 760.253388 133.875246 
L 762.710258 138.226812 
L 765.087874 136.332089 
L 767.544743 132.795088 
L 770.001613 137.688007 
L 772.379229 135.660906 
L 774.836098 132.3387 
L 777.213714 130.382149 
L 779.670584 133.11173 
L 782.127453 133.109006 
L 789.2603 134.3972 
L 794.094786 133.747498 
L 796.551655 133.219965 
L 799.008525 133.38382 
L 801.386141 132.344365 
L 803.84301 132.844427 
L 806.220626 134.886493 
L 808.677496 139.651001 
L 811.134365 138.655049 
L 813.353473 138.331567 
L 815.810343 139.610762 
L 818.187959 143.348126 
L 820.644828 139.746423 
L 823.022444 139.791299 
L 825.479314 136.90358 
L 827.936183 133.46874 
L 830.313799 134.07778 
L 832.770669 133.266626 
L 835.148285 135.114926 
L 837.605154 133.790487 
L 842.281132 133.289763 
L 844.738001 133.931128 
L 847.115617 133.863372 
L 849.572487 133.240109 
L 851.950103 133.770551 
L 854.406972 133.87365 
L 856.863842 133.256433 
L 859.241458 133.763418 
L 861.698327 133.727489 
L 864.075943 134.243102 
L 866.532813 133.714529 
L 866.532813 133.714529 
" clip-path="url(#pca532e2398)" style="fill: none; stroke-dasharray: 12.8,3.2,2,3.2; stroke-dashoffset: 0; stroke: #009e73; stroke-width: 2"/>
   </g>
   <g id="line2d_23">
    <path d="M 29.532812 135.382804 
L 31.751921 134.862019 
L 34.20879 133.251668 
L 36.586406 133.09541 
L 39.043276 133.223728 
L 41.420891 130.665078 
L 43.877761 136.274629 
L 46.334631 133.455992 
L 48.712246 135.386724 
L 53.546732 119.708773 
L 56.003601 124.658727 
L 58.460471 120.972946 
L 60.679579 128.550543 
L 63.136449 119.659246 
L 65.514064 125.812033 
L 67.970934 121.860007 
L 70.34855 123.387602 
L 72.805419 125.171162 
L 75.262289 128.603646 
L 77.639905 136.153983 
L 80.096774 134.096879 
L 82.47439 125.352242 
L 84.93126 135.147937 
L 87.388129 139.245762 
L 92.143361 142.318362 
L 94.520976 143.893823 
L 96.977846 146.023275 
L 99.355462 145.219842 
L 101.812331 145.079614 
L 104.269201 147.224959 
L 106.646817 148.344345 
L 111.481302 149.212014 
L 113.938172 155.802275 
L 116.395041 153.222895 
L 118.614149 153.912146 
L 121.071019 152.981963 
L 123.448635 148.824398 
L 125.905504 148.24829 
L 128.28312 149.29087 
L 130.73999 148.234038 
L 135.574475 148.135645 
L 138.031345 149.212141 
L 140.408961 152.062646 
L 142.86583 152.409259 
L 145.3227 155.065345 
L 147.541808 155.241051 
L 149.998677 152.702291 
L 152.376293 152.94804 
L 154.833163 154.291819 
L 157.210779 157.018348 
L 159.667648 152.348938 
L 162.124518 153.094861 
L 164.502134 147.109742 
L 166.959003 147.307861 
L 169.336619 151.547382 
L 171.793489 155.158808 
L 174.250358 152.730963 
L 176.469466 153.060912 
L 178.926336 148.957562 
L 183.760821 150.091539 
L 186.138437 153.357905 
L 188.595307 148.400241 
L 191.052176 150.151342 
L 193.429792 148.582343 
L 195.886662 150.335433 
L 198.264277 151.455896 
L 200.721147 150.926021 
L 203.178017 151.679172 
L 205.476378 149.806888 
L 207.933248 151.275015 
L 210.310864 149.172078 
L 212.767733 149.865726 
L 215.145349 150.055233 
L 217.602219 150.083239 
L 220.059088 150.791839 
L 222.436704 150.119402 
L 224.893574 151.140922 
L 227.27119 153.3762 
L 229.728059 152.727569 
L 232.184929 154.805916 
L 234.404037 147.863099 
L 236.860906 148.629425 
L 239.238522 149.078365 
L 241.695392 145.825036 
L 244.073008 147.201664 
L 246.529877 147.076061 
L 248.986747 151.572799 
L 251.364363 148.902243 
L 253.821232 149.935011 
L 256.198848 149.768304 
L 258.655718 147.493659 
L 263.331695 147.468147 
L 265.788565 143.939359 
L 268.166181 142.632559 
L 270.62305 141.061422 
L 273.000666 142.24897 
L 275.457536 142.406519 
L 277.914405 141.801183 
L 280.292021 138.381415 
L 282.748891 133.89078 
L 285.126506 136.762637 
L 287.583376 129.47223 
L 290.040246 129.226478 
L 292.259354 129.547542 
L 294.716223 133.808628 
L 297.093839 132.14184 
L 299.550709 125.629946 
L 301.928324 120.085911 
L 304.385194 123.525064 
L 306.842064 120.690804 
L 309.219679 122.550018 
L 311.676549 115.831843 
L 314.054165 122.63861 
L 316.511034 125.175307 
L 318.967904 121.105955 
L 321.266266 120.665747 
L 323.723135 119.332348 
L 326.100751 117.36596 
L 328.557621 116.084162 
L 330.935237 117.17646 
L 333.392106 119.071364 
L 335.848976 119.939523 
L 338.226591 124.264037 
L 340.683461 125.050877 
L 343.061077 125.111038 
L 345.517946 125.549239 
L 347.974816 126.574435 
L 350.193924 124.608818 
L 352.650794 127.510844 
L 355.02841 126.684848 
L 357.485279 127.43672 
L 359.862895 126.977962 
L 362.319764 127.522703 
L 364.776634 127.845591 
L 367.15425 125.700592 
L 369.611119 127.496998 
L 371.988735 123.440523 
L 374.445605 124.385346 
L 376.902474 123.888113 
L 379.121583 123.784112 
L 381.578452 122.795387 
L 383.956068 123.20114 
L 386.412937 120.547329 
L 388.790553 122.321285 
L 391.247423 119.239835 
L 393.704292 121.776419 
L 396.081908 119.309752 
L 398.538778 118.226078 
L 400.916394 116.717881 
L 403.373263 118.51994 
L 405.830133 117.520473 
L 408.049241 118.211654 
L 410.50611 117.057397 
L 412.883726 118.649257 
L 415.340596 119.575603 
L 417.718212 117.71726 
L 420.175081 117.268902 
L 422.631951 119.144294 
L 425.009567 117.68321 
L 427.466436 119.093139 
L 429.844052 115.215715 
L 432.300922 115.90573 
L 434.757791 115.728214 
L 437.056153 116.891785 
L 439.513023 116.991966 
L 441.890638 116.47059 
L 444.347508 121.196806 
L 446.725124 121.919057 
L 449.181993 122.077707 
L 451.638863 120.805304 
L 454.016479 117.568431 
L 456.473348 121.292052 
L 458.850964 116.719616 
L 461.307834 113.827402 
L 463.764703 116.179287 
L 465.983811 113.747411 
L 468.440681 129.927463 
L 470.818297 128.225901 
L 473.275166 129.211227 
L 475.652782 129.226572 
L 478.109652 128.599173 
L 480.566521 128.497216 
L 482.944137 129.093206 
L 485.401007 128.95934 
L 487.778623 126.7476 
L 490.235492 126.850455 
L 492.692362 124.105775 
L 494.91147 122.630497 
L 497.368339 114.366999 
L 499.745955 111.079067 
L 502.202825 107.293515 
L 504.580441 108.178437 
L 507.03731 104.162757 
L 511.871796 107.656364 
L 514.328665 108.838426 
L 516.706281 111.399924 
L 519.163151 107.801504 
L 521.62002 107.779536 
L 523.839128 108.678267 
L 526.295998 110.17935 
L 528.673614 108.595863 
L 531.130483 110.850084 
L 533.508099 112.453403 
L 535.964969 111.169983 
L 538.421838 108.339956 
L 540.799454 116.144802 
L 543.256324 116.024774 
L 545.633939 121.467173 
L 548.090809 123.714916 
L 550.547679 122.790015 
L 552.84604 123.373138 
L 555.30291 125.942799 
L 557.680526 125.965327 
L 560.137395 123.804687 
L 562.515011 125.466623 
L 564.971881 125.786753 
L 567.42875 118.253937 
L 569.806366 118.980993 
L 572.263236 118.201274 
L 574.640852 118.988744 
L 577.097721 109.251131 
L 579.554591 109.95072 
L 581.773699 111.761822 
L 584.230568 108.33108 
L 586.608184 120.346335 
L 589.065054 118.266245 
L 591.44267 116.984709 
L 593.899539 119.937858 
L 596.356409 118.703066 
L 598.734025 116.821342 
L 601.190894 118.671588 
L 603.56851 115.503194 
L 606.025379 114.245562 
L 608.482249 118.324689 
L 610.701357 117.659767 
L 613.158227 117.269101 
L 615.535843 117.309614 
L 617.992712 117.083134 
L 620.370328 120.321407 
L 622.827198 124.860285 
L 625.284067 120.533697 
L 627.661683 118.031659 
L 630.118552 120.492505 
L 632.496168 121.871122 
L 634.953038 116.796503 
L 637.409907 113.744059 
L 639.629016 114.596071 
L 642.085885 114.168279 
L 646.92037 114.508025 
L 651.754856 117.053676 
L 654.211725 117.129061 
L 656.589341 117.065918 
L 659.046211 116.698278 
L 661.423827 116.707183 
L 663.880696 114.009854 
L 666.337566 113.047874 
L 668.635928 115.034098 
L 671.092797 112.194067 
L 673.470413 113.659087 
L 675.927283 115.037064 
L 678.304898 109.601954 
L 680.761768 112.228617 
L 683.218638 110.440434 
L 685.596253 111.580142 
L 688.053123 112.601811 
L 690.430739 113.860096 
L 692.887608 112.00478 
L 695.344478 112.038807 
L 697.563586 110.427355 
L 700.020456 110.624304 
L 702.398071 112.153105 
L 704.854941 111.073788 
L 707.232557 113.327496 
L 709.689426 111.087209 
L 712.146296 113.45412 
L 714.523912 115.39116 
L 716.980781 116.581544 
L 719.358397 115.057449 
L 721.815267 123.33899 
L 724.272136 120.780737 
L 726.491244 120.095943 
L 728.948114 113.329504 
L 731.32573 111.317018 
L 733.782599 112.815323 
L 736.160215 111.007014 
L 738.617085 110.518963 
L 741.073954 111.068109 
L 743.45157 111.38575 
L 745.90844 111.194796 
L 748.286056 112.626288 
L 750.742925 112.220433 
L 753.199795 106.702906 
L 757.875772 109.375159 
L 760.253388 109.092025 
L 762.710258 108.317829 
L 765.087874 107.824316 
L 767.544743 106.295744 
L 770.001613 111.303113 
L 772.379229 115.154373 
L 774.836098 123.784896 
L 777.213714 130.372852 
L 779.670584 132.633115 
L 782.127453 134.015363 
L 784.425815 133.610218 
L 786.882685 134.55925 
L 789.2603 133.164987 
L 791.71717 134.316141 
L 794.094786 133.668818 
L 796.551655 132.613779 
L 799.008525 132.684918 
L 801.386141 132.556186 
L 803.84301 133.839272 
L 806.220626 134.814092 
L 808.677496 139.746364 
L 811.134365 139.024376 
L 813.353473 138.002601 
L 815.810343 143.989597 
L 818.187959 154.962298 
L 820.644828 151.231518 
L 823.022444 151.597075 
L 825.479314 151.325856 
L 827.936183 133.372322 
L 832.770669 134.311633 
L 835.148285 143.777016 
L 837.605154 133.902904 
L 840.062024 133.601975 
L 842.281132 133.660236 
L 844.738001 136.942313 
L 847.115617 133.796133 
L 851.950103 133.622884 
L 854.406972 133.378805 
L 856.863842 133.559257 
L 859.241458 133.476198 
L 861.698327 133.916902 
L 864.075943 133.136543 
L 866.532813 133.714529 
L 866.532813 133.714529 
" clip-path="url(#pca532e2398)" style="fill: none; stroke-dasharray: 2,3.3; stroke-dashoffset: 0; stroke: #0072b2; stroke-width: 2"/>
   </g>
   <g id="line2d_24">
    <path d="M 29.532812 135.632389 
L 31.751921 134.195945 
L 36.586406 133.687946 
L 41.420891 133.867402 
L 43.877761 137.041848 
L 46.334631 138.255666 
L 48.712246 136.202407 
L 51.169116 140.130837 
L 53.546732 144.929106 
L 56.003601 141.850768 
L 58.460471 147.151794 
L 60.679579 143.247168 
L 63.136449 148.72678 
L 65.514064 149.550887 
L 67.970934 150.69582 
L 70.34855 149.791744 
L 75.262289 148.269917 
L 77.639905 147.00569 
L 80.096774 141.505078 
L 82.47439 143.6077 
L 84.93126 145.22033 
L 87.388129 148.555016 
L 89.686491 150.346249 
L 92.143361 156.551254 
L 94.520976 155.780524 
L 96.977846 158.457669 
L 99.355462 158.362731 
L 101.812331 156.457837 
L 104.269201 152.903865 
L 106.646817 153.336784 
L 109.103686 155.31448 
L 111.481302 156.955154 
L 113.938172 156.155013 
L 116.395041 157.881959 
L 118.614149 163.166495 
L 121.071019 159.954733 
L 123.448635 157.467794 
L 125.905504 158.93531 
L 128.28312 162.592212 
L 130.73999 158.057061 
L 133.196859 155.939247 
L 135.574475 154.523714 
L 138.031345 159.625055 
L 140.408961 166.215578 
L 142.86583 167.685088 
L 145.3227 173.523727 
L 147.541808 173.934101 
L 149.998677 172.386961 
L 152.376293 172.903038 
L 154.833163 173.557847 
L 157.210779 179.715658 
L 159.667648 168.728591 
L 162.124518 171.278323 
L 164.502134 165.118311 
L 166.959003 160.082052 
L 169.336619 173.60372 
L 171.793489 177.316931 
L 174.250358 182.182606 
L 176.469466 186.875794 
L 178.926336 175.104038 
L 181.303952 177.855857 
L 183.760821 181.812449 
L 186.138437 183.762628 
L 188.595307 180.76634 
L 191.052176 185.258381 
L 193.429792 184.361206 
L 195.886662 171.343071 
L 198.264277 166.963219 
L 200.721147 166.809582 
L 203.178017 171.677641 
L 205.476378 154.752123 
L 207.933248 158.793623 
L 210.310864 147.931363 
L 212.767733 152.758091 
L 215.145349 155.954936 
L 217.602219 155.229343 
L 220.059088 155.170319 
L 222.436704 152.919742 
L 224.893574 156.88292 
L 227.27119 159.602809 
L 229.728059 157.034341 
L 232.184929 159.77449 
L 234.404037 142.861688 
L 236.860906 145.841767 
L 239.238522 145.972259 
L 241.695392 141.005328 
L 244.073008 142.692332 
L 246.529877 140.431329 
L 248.986747 157.235702 
L 251.364363 165.327969 
L 253.821232 166.742424 
L 256.198848 169.613465 
L 258.655718 165.706553 
L 261.112587 166.968585 
L 263.331695 167.476501 
L 265.788565 171.374434 
L 268.166181 172.539116 
L 270.62305 164.852572 
L 273.000666 163.632952 
L 275.457536 156.515863 
L 277.914405 159.212726 
L 280.292021 162.620066 
L 282.748891 197.166751 
L 285.126506 197.993361 
L 287.583376 210.432435 
L 290.040246 212.09262 
L 292.259354 210.620119 
L 294.716223 206.712155 
L 297.093839 203.153804 
L 299.550709 201.330177 
L 301.928324 204.271395 
L 304.385194 203.641449 
L 306.842064 205.007895 
L 309.219679 210.497646 
L 311.676549 218.362334 
L 314.054165 210.71353 
L 316.511034 207.179064 
L 318.967904 206.835621 
L 321.266266 207.551496 
L 323.723135 210.932617 
L 326.100751 208.962832 
L 328.557621 216.871851 
L 330.935237 207.758273 
L 333.392106 219.457616 
L 335.848976 215.363407 
L 338.226591 198.811089 
L 340.683461 194.112769 
L 343.061077 190.057396 
L 345.517946 194.043138 
L 347.974816 188.73097 
L 350.193924 180.04115 
L 352.650794 174.602164 
L 355.02841 181.033046 
L 357.485279 185.162669 
L 359.862895 197.486041 
L 362.319764 189.802558 
L 364.776634 186.694852 
L 367.15425 188.214794 
L 369.611119 184.641793 
L 371.988735 190.781017 
L 374.445605 189.732265 
L 376.902474 183.64808 
L 379.121583 183.796003 
L 381.578452 182.185373 
L 383.956068 179.77074 
L 386.412937 185.137368 
L 388.790553 191.095312 
L 391.247423 191.174429 
L 393.704292 188.165138 
L 396.081908 173.946402 
L 398.538778 175.690351 
L 400.916394 182.942179 
L 405.830133 174.185157 
L 408.049241 178.50086 
L 410.50611 175.759094 
L 412.883726 165.566497 
L 415.340596 168.718827 
L 417.718212 182.93947 
L 420.175081 184.603152 
L 422.631951 183.175233 
L 425.009567 179.708872 
L 427.466436 173.758485 
L 429.844052 172.992826 
L 432.300922 165.823341 
L 434.757791 159.950418 
L 437.056153 166.613617 
L 439.513023 166.967981 
L 441.890638 157.596677 
L 444.347508 137.470732 
L 446.725124 140.044617 
L 449.181993 138.948604 
L 451.638863 139.736523 
L 454.016479 167.423299 
L 456.473348 141.780976 
L 458.850964 166.622373 
L 461.307834 157.344783 
L 463.764703 144.811971 
L 465.983811 158.171297 
L 468.440681 130.292919 
L 470.818297 129.338875 
L 473.275166 128.866782 
L 480.566521 128.779962 
L 487.778623 127.682288 
L 492.692362 128.72509 
L 494.91147 127.019003 
L 497.368339 127.664119 
L 499.745955 127.280844 
L 502.202825 128.679583 
L 504.580441 129.13806 
L 507.03731 120.659417 
L 509.49418 128.285759 
L 511.871796 127.769007 
L 514.328665 128.243271 
L 516.706281 127.556741 
L 519.163151 119.826619 
L 521.62002 123.802511 
L 523.839128 121.881497 
L 526.295998 123.822703 
L 528.673614 120.839831 
L 531.130483 118.705211 
L 533.508099 115.455654 
L 535.964969 114.922716 
L 538.421838 125.145757 
L 540.799454 126.72854 
L 543.256324 126.581553 
L 545.633939 127.055644 
L 548.090809 126.687863 
L 550.547679 126.604512 
L 552.84604 130.004339 
L 555.30291 125.978118 
L 557.680526 125.487029 
L 560.137395 126.546958 
L 562.515011 128.297078 
L 564.971881 126.316897 
L 567.42875 133.891005 
L 569.806366 137.160241 
L 572.263236 135.993496 
L 574.640852 143.051826 
L 577.097721 157.136529 
L 579.554591 163.784939 
L 581.773699 153.880458 
L 584.230568 166.146769 
L 586.608184 193.494445 
L 589.065054 192.636323 
L 591.44267 189.770896 
L 593.899539 194.824609 
L 596.356409 197.323744 
L 598.734025 197.749361 
L 601.190894 192.554925 
L 603.56851 196.036377 
L 606.025379 194.622361 
L 608.482249 195.557157 
L 610.701357 195.960606 
L 613.158227 197.282451 
L 615.535843 196.198945 
L 617.992712 193.958812 
L 620.370328 197.001501 
L 622.827198 201.248868 
L 625.284067 194.928098 
L 627.661683 199.777172 
L 630.118552 200.88529 
L 632.496168 199.872873 
L 634.953038 207.278386 
L 637.409907 206.470862 
L 639.629016 201.999495 
L 642.085885 195.369774 
L 644.463501 196.832789 
L 646.92037 195.845076 
L 649.297986 197.472323 
L 651.754856 196.812958 
L 654.211725 192.696042 
L 656.589341 193.965964 
L 659.046211 201.979719 
L 661.423827 197.2019 
L 663.880696 201.446058 
L 666.337566 206.864597 
L 668.635928 204.767842 
L 671.092797 201.033242 
L 673.470413 198.744263 
L 675.927283 197.375878 
L 678.304898 201.798158 
L 680.761768 198.497953 
L 683.218638 202.333244 
L 685.596253 201.816293 
L 688.053123 199.859923 
L 690.430739 198.565504 
L 692.887608 204.156477 
L 697.563586 196.027442 
L 700.020456 196.368582 
L 702.398071 197.103324 
L 704.854941 203.863096 
L 707.232557 199.070383 
L 709.689426 198.371733 
L 712.146296 197.953112 
L 714.523912 197.109604 
L 716.980781 198.205893 
L 719.358397 203.733877 
L 721.815267 200.1869 
L 724.272136 194.514487 
L 726.491244 193.071236 
L 728.948114 192.311675 
L 731.32573 183.275124 
L 733.782599 180.597383 
L 736.160215 184.802315 
L 738.617085 181.057825 
L 741.073954 180.815701 
L 743.45157 178.035765 
L 745.90844 180.409656 
L 748.286056 178.221932 
L 750.742925 177.029002 
L 753.199795 176.675411 
L 755.418903 177.908161 
L 757.875772 184.748778 
L 760.253388 188.593462 
L 762.710258 187.195374 
L 765.087874 188.025524 
L 767.544743 179.209287 
L 770.001613 177.448085 
L 772.379229 179.210278 
L 774.836098 172.232819 
L 777.213714 177.090968 
L 779.670584 172.728314 
L 782.127453 171.574559 
L 784.425815 171.680566 
L 786.882685 176.585153 
L 789.2603 178.104218 
L 791.71717 181.363359 
L 794.094786 183.908707 
L 796.551655 186.884116 
L 799.008525 184.324076 
L 801.386141 138.328199 
L 803.84301 155.090502 
L 806.220626 157.280764 
L 808.677496 142.233545 
L 811.134365 146.095982 
L 813.353473 145.135502 
L 815.810343 148.931197 
L 818.187959 157.840441 
L 820.644828 152.224382 
L 823.022444 151.97277 
L 825.479314 146.345903 
L 827.936183 133.855942 
L 830.313799 133.428477 
L 832.770669 133.636607 
L 835.148285 140.486083 
L 837.605154 133.673512 
L 842.281132 133.633089 
L 844.738001 139.850746 
L 847.115617 133.699859 
L 851.950103 133.989768 
L 854.406972 133.701788 
L 859.241458 134.023137 
L 861.698327 133.571306 
L 866.532813 133.714529 
L 866.532813 133.714529 
" clip-path="url(#pca532e2398)" style="fill: none; stroke: #d55e00; stroke-width: 2; stroke-linecap: square"/>
   </g>
   <g id="patch_3">
    <path d="M 29.532813 238.70175 
L 29.532813 16.94175 
" style="fill: none; stroke: #000000; stroke-width: 0.8; stroke-linejoin: miter; stroke-linecap: square"/>
   </g>
   <g id="patch_4">
    <path d="M 29.532812 238.70175 
L 866.532813 238.70175 
" style="fill: none; stroke: #000000; stroke-width: 0.8; stroke-linejoin: miter; stroke-linecap: square"/>
   </g>
   <g id="text_14">
    <!-- 5_Industry_Portfolios - Portfolio Allocation for Elastic Net -->
    <g transform="translate(245.801687 10.94175) scale(0.144 -0.144)">
     <defs>
      <path id="DejaVuSans-5f" d="M 3263 -1063 
L 3263 -1509 
L -63 -1509 
L -63 -1063 
L 3263 -1063 
z
" transform="scale(0.015625)"/>
      <path id="DejaVuSans-49" d="M 628 4666 
L 1259 4666 
L 1259 0 
L 628 0 
L 628 4666 
z
" transform="scale(0.015625)"/>
      <path id="DejaVuSans-6e" d="M 3513 2113 
L 3513 0 
L 2938 0 
L 2938 2094 
Q 2938 2591 2744 2837 
Q 2550 3084 2163 3084 
Q 1697 3084 1428 2787 
Q 1159 2491 1159 1978 
L 1159 0 
L 581 0 
L 581 3500 
L 1159 3500 
L 1159 2956 
Q 1366 3272 1645 3428 
Q 1925 3584 2291 3584 
Q 2894 3584 3203 3211 
Q 3513 2838 3513 2113 
z
" transform="scale(0.015625)"/>
      <path id="DejaVuSans-64" d="M 2906 2969 
L 2906 4863 
L 3481 4863 
L 3481 0 
L 2906 0 
L 2906 525 
Q 2725 213 2448 61 
Q 2172 -91 1784 -91 
Q 1150 -91 751 415 
Q 353 922 353 1747 
Q 353 2572 751 3078 
Q 1150 3584 1784 3584 
Q 2172 3584 2448 3432 
Q 2725 3281 2906 2969 
z
M 947 1747 
Q 947 1113 1208 752 
Q 1469 391 1925 391 
Q 2381 391 2643 752 
Q 2906 1113 2906 1747 
Q 2906 2381 2643 2742 
Q 2381 3103 1925 3103 
Q 1469 3103 1208 2742 
Q 947 2381 947 1747 
z
" transform="scale(0.015625)"/>
      <path id="DejaVuSans-75" d="M 544 1381 
L 544 3500 
L 1119 3500 
L 1119 1403 
Q 1119 906 1312 657 
Q 1506 409 1894 409 
Q 2359 409 2629 706 
Q 2900 1003 2900 1516 
L 2900 3500 
L 3475 3500 
L 3475 0 
L 2900 0 
L 2900 538 
Q 2691 219 2414 64 
Q 2138 -91 1772 -91 
Q 1169 -91 856 284 
Q 544 659 544 1381 
z
M 1991 3584 
L 1991 3584 
z
" transform="scale(0.015625)"/>
      <path id="DejaVuSans-73" d="M 2834 3397 
L 2834 2853 
Q 2591 2978 2328 3040 
Q 2066 3103 1784 3103 
Q 1356 3103 1142 2972 
Q 928 2841 928 2578 
Q 928 2378 1081 2264 
Q 1234 2150 1697 2047 
L 1894 2003 
Q 2506 1872 2764 1633 
Q 3022 1394 3022 966 
Q 3022 478 2636 193 
Q 2250 -91 1575 -91 
Q 1294 -91 989 -36 
Q 684 19 347 128 
L 347 722 
Q 666 556 975 473 
Q 1284 391 1588 391 
Q 1994 391 2212 530 
Q 2431 669 2431 922 
Q 2431 1156 2273 1281 
Q 2116 1406 1581 1522 
L 1381 1569 
Q 847 1681 609 1914 
Q 372 2147 372 2553 
Q 372 3047 722 3315 
Q 1072 3584 1716 3584 
Q 2034 3584 2315 3537 
Q 2597 3491 2834 3397 
z
" transform="scale(0.015625)"/>
      <path id="DejaVuSans-74" d="M 1172 4494 
L 1172 3500 
L 2356 3500 
L 2356 3053 
L 1172 3053 
L 1172 1153 
Q 1172 725 1289 603 
Q 1406 481 1766 481 
L 2356 481 
L 2356 0 
L 1766 0 
Q 1100 0 847 248 
Q 594 497 594 1153 
L 594 3053 
L 172 3053 
L 172 3500 
L 594 3500 
L 594 4494 
L 1172 4494 
z
" transform="scale(0.015625)"/>
      <path id="DejaVuSans-72" d="M 2631 2963 
Q 2534 3019 2420 3045 
Q 2306 3072 2169 3072 
Q 1681 3072 1420 2755 
Q 1159 2438 1159 1844 
L 1159 0 
L 581 0 
L 581 3500 
L 1159 3500 
L 1159 2956 
Q 1341 3275 1631 3429 
Q 1922 3584 2338 3584 
Q 2397 3584 2469 3576 
Q 2541 3569 2628 3553 
L 2631 2963 
z
" transform="scale(0.015625)"/>
      <path id="DejaVuSans-79" d="M 2059 -325 
Q 1816 -950 1584 -1140 
Q 1353 -1331 966 -1331 
L 506 -1331 
L 506 -850 
L 844 -850 
Q 1081 -850 1212 -737 
Q 1344 -625 1503 -206 
L 1606 56 
L 191 3500 
L 800 3500 
L 1894 763 
L 2988 3500 
L 3597 3500 
L 2059 -325 
z
" transform="scale(0.015625)"/>
      <path id="DejaVuSans-50" d="M 1259 4147 
L 1259 2394 
L 2053 2394 
Q 2494 2394 2734 2622 
Q 2975 2850 2975 3272 
Q 2975 3691 2734 3919 
Q 2494 4147 2053 4147 
L 1259 4147 
z
M 628 4666 
L 2053 4666 
Q 2838 4666 3239 4311 
Q 3641 3956 3641 3272 
Q 3641 2581 3239 2228 
Q 2838 1875 2053 1875 
L 1259 1875 
L 1259 0 
L 628 0 
L 628 4666 
z
" transform="scale(0.015625)"/>
      <path id="DejaVuSans-6f" d="M 1959 3097 
Q 1497 3097 1228 2736 
Q 959 2375 959 1747 
Q 959 1119 1226 758 
Q 1494 397 1959 397 
Q 2419 397 2687 759 
Q 2956 1122 2956 1747 
Q 2956 2369 2687 2733 
Q 2419 3097 1959 3097 
z
M 1959 3584 
Q 2709 3584 3137 3096 
Q 3566 2609 3566 1747 
Q 3566 888 3137 398 
Q 2709 -91 1959 -91 
Q 1206 -91 779 398 
Q 353 888 353 1747 
Q 353 2609 779 3096 
Q 1206 3584 1959 3584 
z
" transform="scale(0.015625)"/>
      <path id="DejaVuSans-66" d="M 2375 4863 
L 2375 4384 
L 1825 4384 
Q 1516 4384 1395 4259 
Q 1275 4134 1275 3809 
L 1275 3500 
L 2222 3500 
L 2222 3053 
L 1275 3053 
L 1275 0 
L 697 0 
L 697 3053 
L 147 3053 
L 147 3500 
L 697 3500 
L 697 3744 
Q 697 4328 969 4595 
Q 1241 4863 1831 4863 
L 2375 4863 
z
" transform="scale(0.015625)"/>
      <path id="DejaVuSans-6c" d="M 603 4863 
L 1178 4863 
L 1178 0 
L 603 0 
L 603 4863 
z
" transform="scale(0.015625)"/>
      <path id="DejaVuSans-69" d="M 603 3500 
L 1178 3500 
L 1178 0 
L 603 0 
L 603 3500 
z
M 603 4863 
L 1178 4863 
L 1178 4134 
L 603 4134 
L 603 4863 
z
" transform="scale(0.015625)"/>
      <path id="DejaVuSans-20" transform="scale(0.015625)"/>
      <path id="DejaVuSans-2d" d="M 313 2009 
L 1997 2009 
L 1997 1497 
L 313 1497 
L 313 2009 
z
" transform="scale(0.015625)"/>
      <path id="DejaVuSans-41" d="M 2188 4044 
L 1331 1722 
L 3047 1722 
L 2188 4044 
z
M 1831 4666 
L 2547 4666 
L 4325 0 
L 3669 0 
L 3244 1197 
L 1141 1197 
L 716 0 
L 50 0 
L 1831 4666 
z
" transform="scale(0.015625)"/>
      <path id="DejaVuSans-63" d="M 3122 3366 
L 3122 2828 
Q 2878 2963 2633 3030 
Q 2388 3097 2138 3097 
Q 1578 3097 1268 2742 
Q 959 2388 959 1747 
Q 959 1106 1268 751 
Q 1578 397 2138 397 
Q 2388 397 2633 464 
Q 2878 531 3122 666 
L 3122 134 
Q 2881 22 2623 -34 
Q 2366 -91 2075 -91 
Q 1284 -91 818 406 
Q 353 903 353 1747 
Q 353 2603 823 3093 
Q 1294 3584 2113 3584 
Q 2378 3584 2631 3529 
Q 2884 3475 3122 3366 
z
" transform="scale(0.015625)"/>
      <path id="DejaVuSans-61" d="M 2194 1759 
Q 1497 1759 1228 1600 
Q 959 1441 959 1056 
Q 959 750 1161 570 
Q 1363 391 1709 391 
Q 2188 391 2477 730 
Q 2766 1069 2766 1631 
L 2766 1759 
L 2194 1759 
z
M 3341 1997 
L 3341 0 
L 2766 0 
L 2766 531 
Q 2569 213 2275 61 
Q 1981 -91 1556 -91 
Q 1019 -91 701 211 
Q 384 513 384 1019 
Q 384 1609 779 1909 
Q 1175 2209 1959 2209 
L 2766 2209 
L 2766 2266 
Q 2766 2663 2505 2880 
Q 2244 3097 1772 3097 
Q 1472 3097 1187 3025 
Q 903 2953 641 2809 
L 641 3341 
Q 956 3463 1253 3523 
Q 1550 3584 1831 3584 
Q 2591 3584 2966 3190 
Q 3341 2797 3341 1997 
z
" transform="scale(0.015625)"/>
      <path id="DejaVuSans-45" d="M 628 4666 
L 3578 4666 
L 3578 4134 
L 1259 4134 
L 1259 2753 
L 3481 2753 
L 3481 2222 
L 1259 2222 
L 1259 531 
L 3634 531 
L 3634 0 
L 628 0 
L 628 4666 
z
" transform="scale(0.015625)"/>
      <path id="DejaVuSans-4e" d="M 628 4666 
L 1478 4666 
L 3547 763 
L 3547 4666 
L 4159 4666 
L 4159 0 
L 3309 0 
L 1241 3903 
L 1241 0 
L 628 0 
L 628 4666 
z
" transform="scale(0.015625)"/>
      <path id="DejaVuSans-65" d="M 3597 1894 
L 3597 1613 
L 953 1613 
Q 991 1019 1311 708 
Q 1631 397 2203 397 
Q 2534 397 2845 478 
Q 3156 559 3463 722 
L 3463 178 
Q 3153 47 2828 -22 
Q 2503 -91 2169 -91 
Q 1331 -91 842 396 
Q 353 884 353 1716 
Q 353 2575 817 3079 
Q 1281 3584 2069 3584 
Q 2775 3584 3186 3129 
Q 3597 2675 3597 1894 
z
M 3022 2063 
Q 3016 2534 2758 2815 
Q 2500 3097 2075 3097 
Q 1594 3097 1305 2825 
Q 1016 2553 972 2059 
L 3022 2063 
z
" transform="scale(0.015625)"/>
     </defs>
     <use xlink:href="#DejaVuSans-35"/>
     <use xlink:href="#DejaVuSans-5f" x="63.623047"/>
     <use xlink:href="#DejaVuSans-49" x="113.623047"/>
     <use xlink:href="#DejaVuSans-6e" x="143.115234"/>
     <use xlink:href="#DejaVuSans-64" x="206.494141"/>
     <use xlink:href="#DejaVuSans-75" x="269.970703"/>
     <use xlink:href="#DejaVuSans-73" x="333.349609"/>
     <use xlink:href="#DejaVuSans-74" x="385.449219"/>
     <use xlink:href="#DejaVuSans-72" x="424.658203"/>
     <use xlink:href="#DejaVuSans-79" x="465.771484"/>
     <use xlink:href="#DejaVuSans-5f" x="524.951172"/>
     <use xlink:href="#DejaVuSans-50" x="574.951172"/>
     <use xlink:href="#DejaVuSans-6f" x="631.628906"/>
     <use xlink:href="#DejaVuSans-72" x="692.810547"/>
     <use xlink:href="#DejaVuSans-74" x="733.923828"/>
     <use xlink:href="#DejaVuSans-66" x="773.132812"/>
     <use xlink:href="#DejaVuSans-6f" x="808.337891"/>
     <use xlink:href="#DejaVuSans-6c" x="869.519531"/>
     <use xlink:href="#DejaVuSans-69" x="897.302734"/>
     <use xlink:href="#DejaVuSans-6f" x="925.085938"/>
     <use xlink:href="#DejaVuSans-73" x="986.267578"/>
     <use xlink:href="#DejaVuSans-20" x="1038.367188"/>
     <use xlink:href="#DejaVuSans-2d" x="1070.154297"/>
     <use xlink:href="#DejaVuSans-20" x="1106.238281"/>
     <use xlink:href="#DejaVuSans-50" x="1138.025391"/>
     <use xlink:href="#DejaVuSans-6f" x="1194.703125"/>
     <use xlink:href="#DejaVuSans-72" x="1255.884766"/>
     <use xlink:href="#DejaVuSans-74" x="1296.998047"/>
     <use xlink:href="#DejaVuSans-66" x="1336.207031"/>
     <use xlink:href="#DejaVuSans-6f" x="1371.412109"/>
     <use xlink:href="#DejaVuSans-6c" x="1432.59375"/>
     <use xlink:href="#DejaVuSans-69" x="1460.376953"/>
     <use xlink:href="#DejaVuSans-6f" x="1488.160156"/>
     <use xlink:href="#DejaVuSans-20" x="1549.341797"/>
     <use xlink:href="#DejaVuSans-41" x="1581.128906"/>
     <use xlink:href="#DejaVuSans-6c" x="1649.537109"/>
     <use xlink:href="#DejaVuSans-6c" x="1677.320312"/>
     <use xlink:href="#DejaVuSans-6f" x="1705.103516"/>
     <use xlink:href="#DejaVuSans-63" x="1766.285156"/>
     <use xlink:href="#DejaVuSans-61" x="1821.265625"/>
     <use xlink:href="#DejaVuSans-74" x="1882.544922"/>
     <use xlink:href="#DejaVuSans-69" x="1921.753906"/>
     <use xlink:href="#DejaVuSans-6f" x="1949.537109"/>
     <use xlink:href="#DejaVuSans-6e" x="2010.71875"/>
     <use xlink:href="#DejaVuSans-20" x="2074.097656"/>
     <use xlink:href="#DejaVuSans-66" x="2105.884766"/>
     <use xlink:href="#DejaVuSans-6f" x="2141.089844"/>
     <use xlink:href="#DejaVuSans-72" x="2202.271484"/>
     <use xlink:href="#DejaVuSans-20" x="2243.384766"/>
     <use xlink:href="#DejaVuSans-45" x="2275.171875"/>
     <use xlink:href="#DejaVuSans-6c" x="2338.355469"/>
     <use xlink:href="#DejaVuSans-61" x="2366.138672"/>
     <use xlink:href="#DejaVuSans-73" x="2427.417969"/>
     <use xlink:href="#DejaVuSans-74" x="2479.517578"/>
     <use xlink:href="#DejaVuSans-69" x="2518.726562"/>
     <use xlink:href="#DejaVuSans-63" x="2546.509766"/>
     <use xlink:href="#DejaVuSans-20" x="2601.490234"/>
     <use xlink:href="#DejaVuSans-4e" x="2633.277344"/>
     <use xlink:href="#DejaVuSans-65" x="2708.082031"/>
     <use xlink:href="#DejaVuSans-74" x="2769.605469"/>
    </g>
   </g>
  </g>
 </g>
 <defs>
  <clipPath id="pca532e2398">
   <rect x="29.532813" y="16.94175" width="837" height="221.76"/>
  </clipPath>
 </defs>
</svg>
