<?xml version="1.0" encoding="utf-8" standalone="no"?>
<!DOCTYPE svg PUBLIC "-//W3C//DTD SVG 1.1//EN"
  "http://www.w3.org/Graphics/SVG/1.1/DTD/svg11.dtd">
<svg xmlns:xlink="http://www.w3.org/1999/xlink" width="866.532812pt" height="253.629875pt" viewBox="0 0 866.532812 253.629875" xmlns="http://www.w3.org/2000/svg" version="1.1">
 <metadata>
  <rdf:RDF xmlns:dc="http://purl.org/dc/elements/1.1/" xmlns:cc="http://creativecommons.org/ns#" xmlns:rdf="http://www.w3.org/1999/02/22-rdf-syntax-ns#">
   <cc:Work>
    <dc:type rdf:resource="http://purl.org/dc/dcmitype/StillImage"/>
    <dc:date>2025-08-06T21:52:44.889369</dc:date>
    <dc:format>image/svg+xml</dc:format>
    <dc:creator>
     <cc:Agent>
      <dc:title>Matplotlib v3.9.2, https://matplotlib.org/</dc:title>
     </cc:Agent>
    </dc:creator>
   </cc:Work>
  </rdf:RDF>
 </metadata>
 <defs>
  <style type="text/css">*{stroke-linejoin: round; stroke-linecap: butt}</style>
 </defs>
 <g id="figure_1">
  <g id="patch_1">
   <path d="M 0 253.629875 
L 866.532812 253.629875 
L 866.532812 0 
L 0 0 
z
" style="fill: #ffffff"/>
  </g>
  <g id="axes_1">
   <g id="patch_2">
    <path d="M 29.532813 238.70175 
L 866.532812 238.70175 
L 866.532812 16.94175 
L 29.532813 16.94175 
z
" style="fill: #ffffff"/>
   </g>
   <g id="matplotlib.axis_1">
    <g id="xtick_1">
     <g id="line2d_1">
      <defs>
       <path id="m73ce2d6d98" d="M 0 1.75 
L 0 -1.75 
" style="stroke: #000000; stroke-width: 0.8"/>
      </defs>
      <g>
       <use xlink:href="#m73ce2d6d98" x="85.010513" y="238.70175" style="stroke: #000000; stroke-width: 0.8"/>
      </g>
     </g>
     <g id="text_1">
      <!-- 1992 -->
      <g transform="translate(72.285513 251.550188) scale(0.1 -0.1)">
       <defs>
        <path id="DejaVuSans-31" d="M 794 531 
L 1825 531 
L 1825 4091 
L 703 3866 
L 703 4441 
L 1819 4666 
L 2450 4666 
L 2450 531 
L 3481 531 
L 3481 0 
L 794 0 
L 794 531 
z
" transform="scale(0.015625)"/>
        <path id="DejaVuSans-39" d="M 703 97 
L 703 672 
Q 941 559 1184 500 
Q 1428 441 1663 441 
Q 2288 441 2617 861 
Q 2947 1281 2994 2138 
Q 2813 1869 2534 1725 
Q 2256 1581 1919 1581 
Q 1219 1581 811 2004 
Q 403 2428 403 3163 
Q 403 3881 828 4315 
Q 1253 4750 1959 4750 
Q 2769 4750 3195 4129 
Q 3622 3509 3622 2328 
Q 3622 1225 3098 567 
Q 2575 -91 1691 -91 
Q 1453 -91 1209 -44 
Q 966 3 703 97 
z
M 1959 2075 
Q 2384 2075 2632 2365 
Q 2881 2656 2881 3163 
Q 2881 3666 2632 3958 
Q 2384 4250 1959 4250 
Q 1534 4250 1286 3958 
Q 1038 3666 1038 3163 
Q 1038 2656 1286 2365 
Q 1534 2075 1959 2075 
z
" transform="scale(0.015625)"/>
        <path id="DejaVuSans-32" d="M 1228 531 
L 3431 531 
L 3431 0 
L 469 0 
L 469 531 
Q 828 903 1448 1529 
Q 2069 2156 2228 2338 
Q 2531 2678 2651 2914 
Q 2772 3150 2772 3378 
Q 2772 3750 2511 3984 
Q 2250 4219 1831 4219 
Q 1534 4219 1204 4116 
Q 875 4013 500 3803 
L 500 4441 
Q 881 4594 1212 4672 
Q 1544 4750 1819 4750 
Q 2544 4750 2975 4387 
Q 3406 4025 3406 3419 
Q 3406 3131 3298 2873 
Q 3191 2616 2906 2266 
Q 2828 2175 2409 1742 
Q 1991 1309 1228 531 
z
" transform="scale(0.015625)"/>
       </defs>
       <use xlink:href="#DejaVuSans-31"/>
       <use xlink:href="#DejaVuSans-39" x="63.623047"/>
       <use xlink:href="#DejaVuSans-39" x="127.246094"/>
       <use xlink:href="#DejaVuSans-32" x="190.869141"/>
      </g>
     </g>
    </g>
    <g id="xtick_2">
     <g id="line2d_2">
      <g>
       <use xlink:href="#m73ce2d6d98" x="200.800401" y="238.70175" style="stroke: #000000; stroke-width: 0.8"/>
      </g>
     </g>
     <g id="text_2">
      <!-- 1996 -->
      <g transform="translate(188.075401 251.550188) scale(0.1 -0.1)">
       <defs>
        <path id="DejaVuSans-36" d="M 2113 2584 
Q 1688 2584 1439 2293 
Q 1191 2003 1191 1497 
Q 1191 994 1439 701 
Q 1688 409 2113 409 
Q 2538 409 2786 701 
Q 3034 994 3034 1497 
Q 3034 2003 2786 2293 
Q 2538 2584 2113 2584 
z
M 3366 4563 
L 3366 3988 
Q 3128 4100 2886 4159 
Q 2644 4219 2406 4219 
Q 1781 4219 1451 3797 
Q 1122 3375 1075 2522 
Q 1259 2794 1537 2939 
Q 1816 3084 2150 3084 
Q 2853 3084 3261 2657 
Q 3669 2231 3669 1497 
Q 3669 778 3244 343 
Q 2819 -91 2113 -91 
Q 1303 -91 875 529 
Q 447 1150 447 2328 
Q 447 3434 972 4092 
Q 1497 4750 2381 4750 
Q 2619 4750 2861 4703 
Q 3103 4656 3366 4563 
z
" transform="scale(0.015625)"/>
       </defs>
       <use xlink:href="#DejaVuSans-31"/>
       <use xlink:href="#DejaVuSans-39" x="63.623047"/>
       <use xlink:href="#DejaVuSans-39" x="127.246094"/>
       <use xlink:href="#DejaVuSans-36" x="190.869141"/>
      </g>
     </g>
    </g>
    <g id="xtick_3">
     <g id="line2d_3">
      <g>
       <use xlink:href="#m73ce2d6d98" x="316.590288" y="238.70175" style="stroke: #000000; stroke-width: 0.8"/>
      </g>
     </g>
     <g id="text_3">
      <!-- 2000 -->
      <g transform="translate(303.865288 251.550188) scale(0.1 -0.1)">
       <defs>
        <path id="DejaVuSans-30" d="M 2034 4250 
Q 1547 4250 1301 3770 
Q 1056 3291 1056 2328 
Q 1056 1369 1301 889 
Q 1547 409 2034 409 
Q 2525 409 2770 889 
Q 3016 1369 3016 2328 
Q 3016 3291 2770 3770 
Q 2525 4250 2034 4250 
z
M 2034 4750 
Q 2819 4750 3233 4129 
Q 3647 3509 3647 2328 
Q 3647 1150 3233 529 
Q 2819 -91 2034 -91 
Q 1250 -91 836 529 
Q 422 1150 422 2328 
Q 422 3509 836 4129 
Q 1250 4750 2034 4750 
z
" transform="scale(0.015625)"/>
       </defs>
       <use xlink:href="#DejaVuSans-32"/>
       <use xlink:href="#DejaVuSans-30" x="63.623047"/>
       <use xlink:href="#DejaVuSans-30" x="127.246094"/>
       <use xlink:href="#DejaVuSans-30" x="190.869141"/>
      </g>
     </g>
    </g>
    <g id="xtick_4">
     <g id="line2d_4">
      <g>
       <use xlink:href="#m73ce2d6d98" x="432.380175" y="238.70175" style="stroke: #000000; stroke-width: 0.8"/>
      </g>
     </g>
     <g id="text_4">
      <!-- 2004 -->
      <g transform="translate(419.655175 251.550188) scale(0.1 -0.1)">
       <defs>
        <path id="DejaVuSans-34" d="M 2419 4116 
L 825 1625 
L 2419 1625 
L 2419 4116 
z
M 2253 4666 
L 3047 4666 
L 3047 1625 
L 3713 1625 
L 3713 1100 
L 3047 1100 
L 3047 0 
L 2419 0 
L 2419 1100 
L 313 1100 
L 313 1709 
L 2253 4666 
z
" transform="scale(0.015625)"/>
       </defs>
       <use xlink:href="#DejaVuSans-32"/>
       <use xlink:href="#DejaVuSans-30" x="63.623047"/>
       <use xlink:href="#DejaVuSans-30" x="127.246094"/>
       <use xlink:href="#DejaVuSans-34" x="190.869141"/>
      </g>
     </g>
    </g>
    <g id="xtick_5">
     <g id="line2d_5">
      <g>
       <use xlink:href="#m73ce2d6d98" x="548.170063" y="238.70175" style="stroke: #000000; stroke-width: 0.8"/>
      </g>
     </g>
     <g id="text_5">
      <!-- 2008 -->
      <g transform="translate(535.445063 251.550188) scale(0.1 -0.1)">
       <defs>
        <path id="DejaVuSans-38" d="M 2034 2216 
Q 1584 2216 1326 1975 
Q 1069 1734 1069 1313 
Q 1069 891 1326 650 
Q 1584 409 2034 409 
Q 2484 409 2743 651 
Q 3003 894 3003 1313 
Q 3003 1734 2745 1975 
Q 2488 2216 2034 2216 
z
M 1403 2484 
Q 997 2584 770 2862 
Q 544 3141 544 3541 
Q 544 4100 942 4425 
Q 1341 4750 2034 4750 
Q 2731 4750 3128 4425 
Q 3525 4100 3525 3541 
Q 3525 3141 3298 2862 
Q 3072 2584 2669 2484 
Q 3125 2378 3379 2068 
Q 3634 1759 3634 1313 
Q 3634 634 3220 271 
Q 2806 -91 2034 -91 
Q 1263 -91 848 271 
Q 434 634 434 1313 
Q 434 1759 690 2068 
Q 947 2378 1403 2484 
z
M 1172 3481 
Q 1172 3119 1398 2916 
Q 1625 2713 2034 2713 
Q 2441 2713 2670 2916 
Q 2900 3119 2900 3481 
Q 2900 3844 2670 4047 
Q 2441 4250 2034 4250 
Q 1625 4250 1398 4047 
Q 1172 3844 1172 3481 
z
" transform="scale(0.015625)"/>
       </defs>
       <use xlink:href="#DejaVuSans-32"/>
       <use xlink:href="#DejaVuSans-30" x="63.623047"/>
       <use xlink:href="#DejaVuSans-30" x="127.246094"/>
       <use xlink:href="#DejaVuSans-38" x="190.869141"/>
      </g>
     </g>
    </g>
    <g id="xtick_6">
     <g id="line2d_6">
      <g>
       <use xlink:href="#m73ce2d6d98" x="663.95995" y="238.70175" style="stroke: #000000; stroke-width: 0.8"/>
      </g>
     </g>
     <g id="text_6">
      <!-- 2012 -->
      <g transform="translate(651.23495 251.550188) scale(0.1 -0.1)">
       <use xlink:href="#DejaVuSans-32"/>
       <use xlink:href="#DejaVuSans-30" x="63.623047"/>
       <use xlink:href="#DejaVuSans-31" x="127.246094"/>
       <use xlink:href="#DejaVuSans-32" x="190.869141"/>
      </g>
     </g>
    </g>
    <g id="xtick_7">
     <g id="line2d_7">
      <g>
       <use xlink:href="#m73ce2d6d98" x="779.749837" y="238.70175" style="stroke: #000000; stroke-width: 0.8"/>
      </g>
     </g>
     <g id="text_7">
      <!-- 2016 -->
      <g transform="translate(767.024837 251.550188) scale(0.1 -0.1)">
       <use xlink:href="#DejaVuSans-32"/>
       <use xlink:href="#DejaVuSans-30" x="63.623047"/>
       <use xlink:href="#DejaVuSans-31" x="127.246094"/>
       <use xlink:href="#DejaVuSans-36" x="190.869141"/>
      </g>
     </g>
    </g>
   </g>
   <g id="matplotlib.axis_2">
    <g id="ytick_1">
     <g id="line2d_8">
      <path d="M 29.532813 214.351492 
L 866.532812 214.351492 
" clip-path="url(#p52160b0071)" style="fill: none; stroke-dasharray: 1.85,0.8; stroke-dashoffset: 0; stroke: #b2b2b2; stroke-width: 0.5"/>
     </g>
     <g id="line2d_9">
      <defs>
       <path id="m1550281a53" d="M 1.75 0 
L -1.75 -0 
" style="stroke: #000000; stroke-width: 0.8"/>
      </defs>
      <g>
       <use xlink:href="#m1550281a53" x="29.532813" y="214.351492" style="stroke: #000000; stroke-width: 0.8"/>
      </g>
     </g>
     <g id="text_8">
      <!-- −1.0 -->
      <g transform="translate(0 218.15071) scale(0.1 -0.1)">
       <defs>
        <path id="DejaVuSans-2212" d="M 678 2272 
L 4684 2272 
L 4684 1741 
L 678 1741 
L 678 2272 
z
" transform="scale(0.015625)"/>
        <path id="DejaVuSans-2e" d="M 684 794 
L 1344 794 
L 1344 0 
L 684 0 
L 684 794 
z
" transform="scale(0.015625)"/>
       </defs>
       <use xlink:href="#DejaVuSans-2212"/>
       <use xlink:href="#DejaVuSans-31" x="83.789062"/>
       <use xlink:href="#DejaVuSans-2e" x="147.412109"/>
       <use xlink:href="#DejaVuSans-30" x="179.199219"/>
      </g>
     </g>
    </g>
    <g id="ytick_2">
     <g id="line2d_10">
      <path d="M 29.532813 178.15224 
L 866.532812 178.15224 
" clip-path="url(#p52160b0071)" style="fill: none; stroke-dasharray: 1.85,0.8; stroke-dashoffset: 0; stroke: #b2b2b2; stroke-width: 0.5"/>
     </g>
     <g id="line2d_11">
      <g>
       <use xlink:href="#m1550281a53" x="29.532813" y="178.15224" style="stroke: #000000; stroke-width: 0.8"/>
      </g>
     </g>
     <g id="text_9">
      <!-- −0.5 -->
      <g transform="translate(0 181.951459) scale(0.1 -0.1)">
       <defs>
        <path id="DejaVuSans-35" d="M 691 4666 
L 3169 4666 
L 3169 4134 
L 1269 4134 
L 1269 2991 
Q 1406 3038 1543 3061 
Q 1681 3084 1819 3084 
Q 2600 3084 3056 2656 
Q 3513 2228 3513 1497 
Q 3513 744 3044 326 
Q 2575 -91 1722 -91 
Q 1428 -91 1123 -41 
Q 819 9 494 109 
L 494 744 
Q 775 591 1075 516 
Q 1375 441 1709 441 
Q 2250 441 2565 725 
Q 2881 1009 2881 1497 
Q 2881 1984 2565 2268 
Q 2250 2553 1709 2553 
Q 1456 2553 1204 2497 
Q 953 2441 691 2322 
L 691 4666 
z
" transform="scale(0.015625)"/>
       </defs>
       <use xlink:href="#DejaVuSans-2212"/>
       <use xlink:href="#DejaVuSans-30" x="83.789062"/>
       <use xlink:href="#DejaVuSans-2e" x="147.412109"/>
       <use xlink:href="#DejaVuSans-35" x="179.199219"/>
      </g>
     </g>
    </g>
    <g id="ytick_3">
     <g id="line2d_12">
      <path d="M 29.532813 141.952989 
L 866.532812 141.952989 
" clip-path="url(#p52160b0071)" style="fill: none; stroke-dasharray: 1.85,0.8; stroke-dashoffset: 0; stroke: #b2b2b2; stroke-width: 0.5"/>
     </g>
     <g id="line2d_13">
      <g>
       <use xlink:href="#m1550281a53" x="29.532813" y="141.952989" style="stroke: #000000; stroke-width: 0.8"/>
      </g>
     </g>
     <g id="text_10">
      <!-- 0.0 -->
      <g transform="translate(8.379688 145.752207) scale(0.1 -0.1)">
       <use xlink:href="#DejaVuSans-30"/>
       <use xlink:href="#DejaVuSans-2e" x="63.623047"/>
       <use xlink:href="#DejaVuSans-30" x="95.410156"/>
      </g>
     </g>
    </g>
    <g id="ytick_4">
     <g id="line2d_14">
      <path d="M 29.532813 105.753737 
L 866.532812 105.753737 
" clip-path="url(#p52160b0071)" style="fill: none; stroke-dasharray: 1.85,0.8; stroke-dashoffset: 0; stroke: #b2b2b2; stroke-width: 0.5"/>
     </g>
     <g id="line2d_15">
      <g>
       <use xlink:href="#m1550281a53" x="29.532813" y="105.753737" style="stroke: #000000; stroke-width: 0.8"/>
      </g>
     </g>
     <g id="text_11">
      <!-- 0.5 -->
      <g transform="translate(8.379688 109.552956) scale(0.1 -0.1)">
       <use xlink:href="#DejaVuSans-30"/>
       <use xlink:href="#DejaVuSans-2e" x="63.623047"/>
       <use xlink:href="#DejaVuSans-35" x="95.410156"/>
      </g>
     </g>
    </g>
    <g id="ytick_5">
     <g id="line2d_16">
      <path d="M 29.532813 69.554486 
L 866.532812 69.554486 
" clip-path="url(#p52160b0071)" style="fill: none; stroke-dasharray: 1.85,0.8; stroke-dashoffset: 0; stroke: #b2b2b2; stroke-width: 0.5"/>
     </g>
     <g id="line2d_17">
      <g>
       <use xlink:href="#m1550281a53" x="29.532813" y="69.554486" style="stroke: #000000; stroke-width: 0.8"/>
      </g>
     </g>
     <g id="text_12">
      <!-- 1.0 -->
      <g transform="translate(8.379688 73.353704) scale(0.1 -0.1)">
       <use xlink:href="#DejaVuSans-31"/>
       <use xlink:href="#DejaVuSans-2e" x="63.623047"/>
       <use xlink:href="#DejaVuSans-30" x="95.410156"/>
      </g>
     </g>
    </g>
    <g id="ytick_6">
     <g id="line2d_18">
      <path d="M 29.532813 33.355234 
L 866.532812 33.355234 
" clip-path="url(#p52160b0071)" style="fill: none; stroke-dasharray: 1.85,0.8; stroke-dashoffset: 0; stroke: #b2b2b2; stroke-width: 0.5"/>
     </g>
     <g id="line2d_19">
      <g>
       <use xlink:href="#m1550281a53" x="29.532813" y="33.355234" style="stroke: #000000; stroke-width: 0.8"/>
      </g>
     </g>
     <g id="text_13">
      <!-- 1.5 -->
      <g transform="translate(8.379688 37.154453) scale(0.1 -0.1)">
       <use xlink:href="#DejaVuSans-31"/>
       <use xlink:href="#DejaVuSans-2e" x="63.623047"/>
       <use xlink:href="#DejaVuSans-35" x="95.410156"/>
      </g>
     </g>
    </g>
   </g>
   <g id="line2d_20">
    <path d="M 29.532812 196.547262 
L 31.751921 194.701424 
L 34.20879 212.524652 
L 36.586406 214.091843 
L 39.043276 209.827463 
L 41.420891 212.784517 
L 43.877761 201.127773 
L 46.334631 200.99203 
L 48.712246 202.825696 
L 51.169116 212.590815 
L 53.546732 230.788893 
L 56.003601 231.834094 
L 58.460471 238.70175 
L 60.679579 194.247816 
L 63.136449 233.8339 
L 65.514064 224.977993 
L 67.970934 229.700057 
L 70.34855 220.520756 
L 72.805419 214.349033 
L 75.262289 216.890434 
L 77.639905 176.854171 
L 80.096774 223.178795 
L 82.47439 236.020416 
L 84.93126 186.537996 
L 89.686491 170.723397 
L 92.143361 164.995546 
L 94.520976 162.759579 
L 96.977846 159.728312 
L 99.355462 161.305092 
L 101.812331 158.507074 
L 104.269201 157.967508 
L 106.646817 150.197341 
L 109.103686 157.625022 
L 111.481302 156.993704 
L 113.938172 149.909911 
L 116.395041 147.913582 
L 118.614149 148.233685 
L 121.071019 147.126689 
L 123.448635 145.051704 
L 125.905504 144.696548 
L 128.28312 144.756659 
L 130.73999 144.666842 
L 133.196859 144.898471 
L 135.574475 145.00417 
L 138.031345 144.661071 
L 140.408961 144.820645 
L 142.86583 144.39833 
L 149.998677 142.763765 
L 152.376293 138.86672 
L 154.833163 142.840522 
L 157.210779 132.689924 
L 159.667648 140.827082 
L 162.124518 141.048367 
L 164.502134 140.140834 
L 166.959003 141.270117 
L 169.336619 139.789289 
L 171.793489 140.785724 
L 174.250358 140.31666 
L 176.469466 139.671592 
L 178.926336 139.66928 
L 181.303952 137.772392 
L 183.760821 133.733523 
L 186.138437 128.939074 
L 188.595307 133.982237 
L 191.052176 132.416472 
L 193.429792 133.740937 
L 195.886662 133.727254 
L 200.721147 134.931358 
L 203.178017 133.536817 
L 205.476378 133.983764 
L 207.933248 132.819083 
L 210.310864 133.988848 
L 212.767733 133.04913 
L 215.145349 131.68833 
L 217.602219 132.562362 
L 220.059088 131.006403 
L 222.436704 132.243062 
L 224.893574 130.938632 
L 227.27119 124.19627 
L 229.728059 123.769656 
L 232.184929 129.700629 
L 234.404037 120.264041 
L 236.860906 119.742352 
L 239.238522 117.802279 
L 241.695392 126.715871 
L 244.073008 124.925737 
L 246.529877 123.986788 
L 248.986747 120.809082 
L 251.364363 112.153708 
L 256.198848 112.60598 
L 258.655718 112.452381 
L 261.112587 114.27404 
L 263.331695 113.512511 
L 265.788565 115.316823 
L 268.166181 120.529205 
L 270.62305 123.988781 
L 273.000666 120.812014 
L 275.457536 116.456893 
L 277.914405 116.427729 
L 280.292021 110.732464 
L 282.748891 113.323836 
L 285.126506 105.606528 
L 287.583376 103.488939 
L 290.040246 105.25626 
L 292.259354 107.084956 
L 294.716223 108.85348 
L 297.093839 111.583056 
L 299.550709 105.387787 
L 301.928324 100.331288 
L 304.385194 98.385454 
L 306.842064 100.750884 
L 309.219679 97.751061 
L 311.676549 94.868742 
L 314.054165 94.125123 
L 316.511034 95.60898 
L 318.967904 99.050662 
L 321.266266 96.322981 
L 323.723135 97.679772 
L 326.100751 103.018735 
L 328.557621 99.744332 
L 330.935237 101.559181 
L 333.392106 96.720138 
L 335.848976 100.6561 
L 338.226591 103.066863 
L 340.683461 104.875271 
L 343.061077 108.074805 
L 345.517946 107.192745 
L 347.974816 108.736641 
L 350.193924 117.435471 
L 352.650794 118.167291 
L 355.02841 114.213101 
L 357.485279 110.713726 
L 359.862895 96.893357 
L 362.319764 99.190451 
L 367.15425 98.664963 
L 369.611119 101.602791 
L 371.988735 97.072443 
L 374.445605 95.869683 
L 376.902474 101.105949 
L 379.121583 102.303113 
L 381.578452 103.42482 
L 383.956068 105.502772 
L 386.412937 99.094626 
L 388.790553 95.481021 
L 391.247423 96.23875 
L 393.704292 98.150156 
L 396.081908 113.086401 
L 398.538778 111.43515 
L 400.916394 110.993997 
L 403.373263 109.847756 
L 405.830133 111.792809 
L 408.049241 110.004936 
L 410.50611 111.424869 
L 412.883726 110.827965 
L 415.340596 111.569456 
L 420.175081 108.47888 
L 422.631951 106.196079 
L 425.009567 111.088268 
L 427.466436 103.689635 
L 429.844052 109.899231 
L 432.300922 112.771985 
L 434.757791 113.192938 
L 437.056153 100.931123 
L 439.513023 100.177313 
L 441.890638 119.228273 
L 444.347508 120.929664 
L 446.725124 118.216875 
L 449.181993 118.820919 
L 451.638863 115.714187 
L 454.016479 102.421214 
L 456.473348 101.28526 
L 458.850964 103.371465 
L 461.307834 114.9143 
L 463.764703 115.662606 
L 465.983811 107.905699 
L 468.440681 123.978192 
L 470.818297 123.879847 
L 473.275166 122.591388 
L 475.652782 122.832369 
L 478.109652 122.466932 
L 480.566521 122.972131 
L 482.944137 122.821119 
L 487.778623 121.704782 
L 490.235492 122.078653 
L 492.692362 121.655007 
L 494.91147 120.07075 
L 497.368339 121.284024 
L 499.745955 121.611812 
L 502.202825 122.404542 
L 504.580441 122.768576 
L 507.03731 124.106758 
L 509.49418 121.935033 
L 511.871796 121.571097 
L 514.328665 121.961568 
L 516.706281 121.506357 
L 519.163151 119.153257 
L 521.62002 118.159945 
L 523.839128 118.198381 
L 526.295998 121.019902 
L 528.673614 117.608019 
L 531.130483 117.403989 
L 533.508099 116.72247 
L 535.964969 119.911835 
L 540.799454 120.688288 
L 543.256324 119.928864 
L 548.090809 119.527005 
L 550.547679 119.401386 
L 552.84604 121.851441 
L 555.30291 118.912108 
L 557.680526 119.218422 
L 560.137395 118.651791 
L 562.515011 120.03995 
L 564.971881 120.113192 
L 567.42875 120.373634 
L 569.806366 119.562241 
L 572.263236 119.30849 
L 574.640852 95.363696 
L 577.097721 85.934307 
L 579.554591 80.447768 
L 581.773699 95.483182 
L 584.230568 95.855463 
L 586.608184 34.166245 
L 589.065054 40.156674 
L 591.44267 40.01397 
L 593.899539 31.629232 
L 596.356409 30.300804 
L 598.734025 33.058045 
L 601.190894 37.655526 
L 603.56851 35.33707 
L 606.025379 35.849325 
L 608.482249 35.591362 
L 610.701357 31.475405 
L 613.158227 29.607806 
L 615.535843 31.982357 
L 617.992712 35.176067 
L 620.370328 29.643447 
L 622.827198 18.989467 
L 625.284067 31.936663 
L 627.661683 26.704244 
L 630.118552 20.970098 
L 632.496168 20.674187 
L 634.953038 16.94175 
L 637.409907 20.844665 
L 639.629016 26.277682 
L 642.085885 37.988656 
L 644.463501 36.587054 
L 646.92037 38.787491 
L 649.297986 37.066398 
L 651.754856 35.635199 
L 654.211725 42.065178 
L 656.589341 37.316929 
L 659.046211 29.986346 
L 661.423827 36.415094 
L 663.880696 33.225458 
L 666.337566 24.823099 
L 668.635928 27.046077 
L 671.092797 30.822466 
L 673.470413 35.40801 
L 675.927283 36.833186 
L 678.304898 36.063 
L 680.761768 37.844582 
L 683.218638 32.572456 
L 685.596253 30.113854 
L 688.053123 31.861405 
L 690.430739 32.177166 
L 692.887608 26.086311 
L 695.344478 31.64665 
L 697.563586 33.267744 
L 700.020456 35.337444 
L 702.398071 35.709 
L 704.854941 29.322918 
L 707.232557 35.399791 
L 709.689426 40.062918 
L 712.146296 35.468803 
L 714.523912 33.611426 
L 716.980781 36.107797 
L 719.358397 45.333271 
L 721.815267 47.44296 
L 724.272136 56.484598 
L 726.491244 54.874962 
L 728.948114 73.36247 
L 731.32573 73.188742 
L 733.782599 73.205858 
L 736.160215 70.906218 
L 738.617085 71.987666 
L 741.073954 74.252632 
L 743.45157 78.576793 
L 745.90844 85.2162 
L 748.286056 82.206307 
L 750.742925 86.83788 
L 753.199795 95.76567 
L 755.418903 95.029515 
L 757.875772 100.407563 
L 760.253388 94.936374 
L 762.710258 91.340994 
L 765.087874 93.002046 
L 767.544743 110.070807 
L 770.001613 94.439227 
L 772.379229 99.049412 
L 774.836098 98.931674 
L 777.213714 94.915302 
L 779.670584 87.188646 
L 784.425815 87.596285 
L 786.882685 78.465477 
L 789.2603 80.772145 
L 791.71717 75.785478 
L 794.094786 76.163409 
L 796.551655 70.630706 
L 799.008525 73.864859 
L 801.386141 127.707013 
L 803.84301 98.923285 
L 806.220626 97.901265 
L 808.677496 90.753307 
L 811.134365 96.989365 
L 813.353473 98.59918 
L 815.810343 87.339945 
L 818.187959 77.537733 
L 820.644828 80.695745 
L 823.022444 81.144559 
L 825.479314 94.324644 
L 827.936183 127.739378 
L 832.770669 127.476705 
L 835.148285 108.018674 
L 837.605154 127.331485 
L 840.062024 127.371278 
L 842.281132 127.675043 
L 847.115617 127.400381 
L 849.572487 127.739474 
L 851.950103 127.13856 
L 854.406972 127.607952 
L 856.863842 127.303093 
L 859.241458 127.506419 
L 861.698327 127.234853 
L 864.075943 127.541056 
L 866.532813 102.284379 
L 866.532813 102.284379 
" clip-path="url(#p52160b0071)" style="fill: none; stroke: #e69f00; stroke-width: 2; stroke-linecap: square"/>
   </g>
   <g id="line2d_21">
    <path d="M 29.532812 51.552842 
L 31.751921 57.571665 
L 34.20879 44.632313 
L 36.586406 43.765557 
L 39.043276 47.618263 
L 41.420891 46.788796 
L 43.877761 44.380316 
L 46.334631 44.065933 
L 48.712246 48.599128 
L 53.546732 29.427843 
L 56.003601 27.534402 
L 58.460471 21.082456 
L 60.679579 53.692106 
L 63.136449 26.687649 
L 65.514064 28.69994 
L 67.970934 25.290471 
L 70.34855 29.036852 
L 72.805419 32.374347 
L 75.262289 28.728241 
L 77.639905 51.56325 
L 80.096774 25.801033 
L 82.47439 19.125343 
L 84.93126 44.060784 
L 87.388129 44.694136 
L 89.686491 42.960483 
L 92.143361 38.836716 
L 94.520976 37.683926 
L 96.977846 30.011925 
L 99.355462 34.000853 
L 101.812331 36.167189 
L 104.269201 33.566994 
L 106.646817 37.011244 
L 109.103686 28.444368 
L 111.481302 27.752892 
L 113.938172 37.470682 
L 116.395041 45.861259 
L 118.614149 43.750115 
L 121.071019 48.767715 
L 123.448635 53.144436 
L 125.905504 53.813134 
L 128.28312 50.309428 
L 130.73999 56.325907 
L 133.196859 55.503891 
L 135.574475 54.387496 
L 138.031345 55.44587 
L 140.408961 50.760765 
L 142.86583 50.538014 
L 145.3227 49.985883 
L 147.541808 53.965157 
L 149.998677 55.586898 
L 152.376293 47.777969 
L 154.833163 56.485397 
L 157.210779 44.890258 
L 159.667648 53.129745 
L 162.124518 53.392575 
L 164.502134 61.655484 
L 166.959003 62.602017 
L 169.336619 54.66317 
L 171.793489 56.289507 
L 174.250358 52.258851 
L 176.469466 49.161075 
L 178.926336 55.119133 
L 181.303952 52.319896 
L 183.760821 51.026779 
L 186.138437 45.97713 
L 188.595307 57.509766 
L 191.052176 54.186518 
L 193.429792 48.097403 
L 195.886662 62.860583 
L 198.264277 63.199598 
L 200.721147 64.407886 
L 203.178017 67.058448 
L 205.476378 77.795529 
L 207.933248 81.031871 
L 210.310864 86.72911 
L 212.767733 89.15233 
L 215.145349 78.5538 
L 217.602219 79.029787 
L 220.059088 78.699208 
L 222.436704 78.805064 
L 224.893574 78.593424 
L 227.27119 76.088394 
L 232.184929 79.444809 
L 234.404037 92.88229 
L 236.860906 90.351555 
L 239.238522 91.24601 
L 241.695392 96.16286 
L 244.073008 89.368096 
L 246.529877 90.611261 
L 248.986747 85.523553 
L 251.364363 71.471225 
L 253.821232 71.595652 
L 256.198848 69.1575 
L 258.655718 69.462593 
L 261.112587 68.344243 
L 263.331695 68.485288 
L 265.788565 69.232596 
L 268.166181 61.899155 
L 270.62305 67.941066 
L 273.000666 77.605349 
L 275.457536 89.646454 
L 277.914405 86.979644 
L 280.292021 87.860229 
L 282.748891 58.776575 
L 285.126506 60.785454 
L 287.583376 59.359613 
L 290.040246 55.187913 
L 292.259354 56.630868 
L 294.716223 60.336123 
L 297.093839 58.840209 
L 299.550709 71.194474 
L 301.928324 76.48651 
L 304.385194 76.093823 
L 306.842064 76.701099 
L 309.219679 72.544617 
L 311.676549 73.517316 
L 314.054165 77.043063 
L 316.511034 73.700804 
L 318.967904 76.750585 
L 321.266266 77.221429 
L 323.723135 72.94317 
L 326.100751 78.139557 
L 328.557621 74.787604 
L 330.935237 82.21409 
L 333.392106 73.456789 
L 335.848976 71.679927 
L 338.226591 80.775231 
L 340.683461 81.106915 
L 343.061077 84.126899 
L 345.517946 80.779781 
L 347.974816 84.670318 
L 350.193924 90.589256 
L 352.650794 98.700951 
L 355.02841 93.42461 
L 357.485279 91.356092 
L 359.862895 86.01503 
L 362.319764 90.958046 
L 364.776634 94.339116 
L 367.15425 95.929059 
L 369.611119 94.930212 
L 371.988735 95.908832 
L 374.445605 95.284552 
L 376.902474 97.598916 
L 381.578452 96.994665 
L 383.956068 100.506985 
L 386.412937 99.34322 
L 388.790553 96.88479 
L 391.247423 98.143752 
L 393.704292 96.489268 
L 396.081908 106.921765 
L 398.538778 106.109142 
L 400.916394 104.948484 
L 403.373263 102.976301 
L 405.830133 110.329099 
L 408.049241 104.920461 
L 410.50611 109.244569 
L 412.883726 111.713037 
L 415.340596 110.410508 
L 417.718212 107.060292 
L 420.175081 105.894717 
L 422.631951 105.383242 
L 425.009567 106.291155 
L 427.466436 108.283333 
L 429.844052 108.625465 
L 432.300922 110.612249 
L 434.757791 113.241742 
L 437.056153 118.10605 
L 439.513023 116.736449 
L 441.890638 119.02208 
L 444.347508 120.516902 
L 446.725124 117.31931 
L 449.181993 117.924215 
L 451.638863 115.328943 
L 456.473348 116.923476 
L 458.850964 116.726372 
L 461.307834 122.887142 
L 463.764703 123.157812 
L 465.983811 122.445239 
L 468.440681 124.136009 
L 470.818297 123.834617 
L 473.275166 123.074368 
L 475.652782 122.570806 
L 482.944137 121.852024 
L 485.401007 123.390917 
L 487.778623 121.69493 
L 490.235492 121.809597 
L 492.692362 120.495579 
L 497.368339 121.249589 
L 499.745955 120.725193 
L 502.202825 122.847933 
L 504.580441 122.636731 
L 507.03731 131.063351 
L 509.49418 122.395709 
L 511.871796 122.359194 
L 514.328665 121.724241 
L 516.706281 120.436142 
L 519.163151 128.543109 
L 521.62002 128.129335 
L 523.839128 126.955852 
L 526.295998 120.565329 
L 528.673614 124.747911 
L 531.130483 122.393844 
L 533.508099 122.205417 
L 535.964969 124.553497 
L 538.421838 124.319877 
L 540.799454 119.705872 
L 543.256324 119.711985 
L 545.633939 119.850927 
L 548.090809 118.307803 
L 550.547679 120.607354 
L 552.84604 120.75631 
L 557.680526 118.154817 
L 560.137395 118.270441 
L 562.515011 118.746155 
L 564.971881 122.128743 
L 567.42875 121.008811 
L 569.806366 121.429116 
L 572.263236 119.960053 
L 574.640852 120.691765 
L 577.097721 128.299858 
L 579.554591 125.964923 
L 581.773699 121.334229 
L 584.230568 121.480514 
L 586.608184 122.404319 
L 589.065054 120.984427 
L 591.44267 121.794196 
L 593.899539 120.963591 
L 596.356409 121.053869 
L 598.734025 123.668356 
L 601.190894 125.004889 
L 603.56851 124.896661 
L 606.025379 124.395523 
L 610.701357 124.626223 
L 613.158227 124.280963 
L 615.535843 120.282058 
L 617.992712 121.409574 
L 620.370328 119.306955 
L 622.827198 120.437202 
L 625.284067 122.268028 
L 627.661683 122.087811 
L 630.118552 122.970436 
L 632.496168 123.216007 
L 634.953038 118.895467 
L 637.409907 119.049524 
L 639.629016 120.418941 
L 642.085885 119.03245 
L 644.463501 119.750314 
L 646.92037 120.985095 
L 649.297986 120.150183 
L 651.754856 118.85209 
L 654.211725 120.570146 
L 656.589341 120.182915 
L 659.046211 115.605553 
L 661.423827 120.467369 
L 663.880696 122.14337 
L 666.337566 123.153225 
L 668.635928 122.971554 
L 671.092797 126.11814 
L 673.470413 126.559662 
L 675.927283 126.284406 
L 678.304898 124.524876 
L 680.761768 125.327679 
L 683.218638 124.671882 
L 685.596253 127.218547 
L 690.430739 128.422172 
L 692.887608 126.394796 
L 695.344478 125.950779 
L 697.563586 127.135199 
L 700.020456 129.494419 
L 702.398071 128.350992 
L 704.854941 126.400332 
L 707.232557 127.627244 
L 709.689426 127.768677 
L 712.146296 130.293732 
L 714.523912 131.761288 
L 716.980781 132.054101 
L 719.358397 125.813088 
L 721.815267 122.634511 
L 724.272136 131.784747 
L 726.491244 134.769214 
L 728.948114 135.556742 
L 731.32573 129.545448 
L 733.782599 136.746003 
L 736.160215 133.515507 
L 738.617085 133.072451 
L 741.073954 134.290595 
L 743.45157 140.218925 
L 745.90844 136.645851 
L 748.286056 138.097254 
L 750.742925 136.109038 
L 753.199795 131.63934 
L 755.418903 131.235554 
L 757.875772 126.572542 
L 760.253388 125.518523 
L 762.710258 128.081785 
L 765.087874 127.325261 
L 767.544743 126.034786 
L 770.001613 128.358242 
L 772.379229 124.914375 
L 774.836098 125.090197 
L 777.213714 123.678251 
L 779.670584 127.356575 
L 782.127453 127.028348 
L 784.425815 127.354203 
L 786.882685 128.648611 
L 789.2603 127.737175 
L 791.71717 129.02328 
L 794.094786 127.326756 
L 796.551655 126.809162 
L 799.008525 127.713194 
L 801.386141 127.344436 
L 803.84301 127.351245 
L 806.220626 128.954711 
L 808.677496 125.542022 
L 811.134365 130.825668 
L 813.353473 131.761146 
L 818.187959 118.822567 
L 820.644828 123.856649 
L 823.022444 123.417538 
L 825.479314 123.920353 
L 827.936183 127.628267 
L 830.313799 127.190883 
L 832.770669 127.402665 
L 835.148285 130.317933 
L 837.605154 127.404535 
L 840.062024 127.906009 
L 842.281132 127.800011 
L 844.738001 127.151261 
L 849.572487 127.492221 
L 851.950103 127.582089 
L 854.406972 127.517151 
L 856.863842 128.074288 
L 859.241458 127.3278 
L 861.698327 127.643733 
L 864.075943 127.485994 
L 866.532813 120.699518 
L 866.532813 120.699518 
" clip-path="url(#p52160b0071)" style="fill: none; stroke-dasharray: 7.4,3.2; stroke-dashoffset: 0; stroke: #56b4e9; stroke-width: 2"/>
   </g>
   <g id="line2d_22">
    <path d="M 29.532812 129.763859 
L 34.20879 126.477454 
L 36.586406 127.150736 
L 39.043276 126.663711 
L 41.420891 127.417701 
L 43.877761 131.569096 
L 46.334631 132.542417 
L 48.712246 128.315327 
L 51.169116 131.957821 
L 53.546732 127.558633 
L 56.003601 128.027499 
L 58.460471 126.039679 
L 60.679579 130.17325 
L 63.136449 124.474978 
L 65.514064 125.338657 
L 67.970934 126.960539 
L 70.34855 130.516261 
L 72.805419 132.404509 
L 75.262289 131.767277 
L 77.639905 136.316717 
L 80.096774 129.033284 
L 82.47439 128.762192 
L 84.93126 135.782636 
L 87.388129 138.013194 
L 92.143361 144.522808 
L 94.520976 145.728464 
L 96.977846 149.089575 
L 99.355462 147.384951 
L 101.812331 147.553843 
L 104.269201 148.64022 
L 106.646817 150.236884 
L 109.103686 150.301749 
L 111.481302 150.854657 
L 113.938172 150.07512 
L 116.395041 148.055036 
L 118.614149 148.506342 
L 121.071019 147.173944 
L 123.448635 145.186809 
L 125.905504 144.766584 
L 128.28312 144.845921 
L 130.73999 144.656206 
L 133.196859 144.963035 
L 135.574475 145.040769 
L 138.031345 144.565551 
L 140.408961 144.716071 
L 142.86583 144.416334 
L 149.998677 142.772193 
L 152.376293 140.927233 
L 154.833163 142.872862 
L 157.210779 139.023163 
L 159.667648 140.812759 
L 162.124518 141.039878 
L 164.502134 140.120144 
L 166.959003 141.251705 
L 169.336619 139.803771 
L 171.793489 140.764236 
L 174.250358 140.306415 
L 176.469466 139.641068 
L 178.926336 139.67283 
L 181.303952 137.553216 
L 183.760821 136.896926 
L 186.138437 141.742175 
L 188.595307 133.636697 
L 191.052176 132.197419 
L 193.429792 139.589604 
L 195.886662 133.411596 
L 198.264277 134.624268 
L 200.721147 135.069911 
L 203.178017 129.410405 
L 205.476378 133.358847 
L 207.933248 132.937929 
L 210.310864 133.598342 
L 212.767733 133.251105 
L 215.145349 131.981401 
L 217.602219 132.784055 
L 220.059088 131.698859 
L 222.436704 137.326884 
L 224.893574 137.703956 
L 227.27119 140.953563 
L 229.728059 139.797002 
L 232.184929 141.216237 
L 234.404037 141.758882 
L 236.860906 143.556659 
L 239.238522 144.794545 
L 241.695392 138.101064 
L 244.073008 141.054083 
L 246.529877 142.669623 
L 248.986747 144.782937 
L 251.364363 154.609932 
L 253.821232 151.980031 
L 256.198848 151.612226 
L 261.112587 154.018385 
L 263.331695 154.187137 
L 265.788565 151.404761 
L 268.166181 151.55526 
L 270.62305 148.262182 
L 273.000666 146.466008 
L 275.457536 144.41843 
L 277.914405 145.461021 
L 280.292021 144.73936 
L 282.748891 145.787251 
L 285.126506 150.256796 
L 287.583376 151.13213 
L 290.040246 152.188482 
L 292.259354 149.993921 
L 294.716223 144.228487 
L 297.093839 147.889439 
L 299.550709 149.617497 
L 301.928324 150.71771 
L 304.385194 149.51811 
L 306.842064 149.934958 
L 309.219679 150.16049 
L 311.676549 150.978331 
L 314.054165 149.008031 
L 316.511034 149.356865 
L 318.967904 148.235249 
L 321.266266 151.492068 
L 323.723135 149.792836 
L 326.100751 145.666087 
L 328.557621 146.031892 
L 330.935237 144.362856 
L 333.392106 145.125309 
L 335.848976 146.011299 
L 340.683461 145.349057 
L 343.061077 144.007625 
L 345.517946 144.000055 
L 347.974816 143.615484 
L 350.193924 141.388659 
L 352.650794 138.408877 
L 355.02841 140.069023 
L 357.485279 141.422472 
L 359.862895 143.619244 
L 364.776634 142.837874 
L 367.15425 142.314895 
L 369.611119 142.574644 
L 371.988735 143.856554 
L 374.445605 144.128109 
L 379.121583 143.627377 
L 381.578452 143.714844 
L 383.956068 142.742431 
L 388.790553 144.045049 
L 391.247423 143.917485 
L 393.704292 144.754852 
L 396.081908 143.7979 
L 400.916394 145.700914 
L 403.373263 145.525288 
L 405.830133 145.76753 
L 408.049241 146.496208 
L 410.50611 145.997764 
L 415.340596 146.16166 
L 417.718212 146.151234 
L 420.175081 146.784483 
L 425.009567 146.54615 
L 427.466436 147.945648 
L 429.844052 146.697223 
L 432.300922 146.717866 
L 434.757791 146.529527 
L 437.056153 146.079342 
L 439.513023 146.787531 
L 441.890638 144.919522 
L 444.347508 144.773036 
L 446.725124 145.02651 
L 451.638863 145.022262 
L 454.016479 146.511035 
L 456.473348 146.669556 
L 458.850964 147.152663 
L 463.764703 146.950928 
L 465.983811 147.719131 
L 468.440681 141.110827 
L 470.818297 143.880518 
L 473.275166 145.533514 
L 475.652782 146.122257 
L 478.109652 147.092521 
L 480.566521 147.337323 
L 482.944137 147.427068 
L 485.401007 147.007493 
L 487.778623 150.752237 
L 490.235492 149.932739 
L 492.692362 152.041774 
L 494.91147 156.201492 
L 497.368339 164.183758 
L 499.745955 167.975928 
L 502.202825 165.538214 
L 504.580441 165.759825 
L 507.03731 169.675843 
L 509.49418 169.846002 
L 511.871796 169.334787 
L 514.328665 168.5804 
L 516.706281 166.72954 
L 519.163151 171.078336 
L 521.62002 169.28959 
L 523.839128 169.013142 
L 526.295998 166.365532 
L 528.673614 173.332881 
L 531.130483 173.847307 
L 533.508099 173.488231 
L 535.964969 175.662053 
L 538.421838 167.912247 
L 540.799454 164.983406 
L 543.256324 165.801745 
L 545.633939 159.289303 
L 548.090809 160.193641 
L 550.547679 159.015158 
L 552.84604 151.671764 
L 555.30291 159.819183 
L 557.680526 161.270512 
L 560.137395 162.044528 
L 562.515011 158.363869 
L 564.971881 156.612521 
L 567.42875 157.51345 
L 569.806366 155.851416 
L 572.263236 157.330186 
L 574.640852 169.107216 
L 577.097721 165.824258 
L 579.554591 167.454901 
L 581.773699 167.116526 
L 584.230568 162.266934 
L 586.608184 181.954705 
L 589.065054 180.144897 
L 591.44267 183.350463 
L 593.899539 185.022473 
L 596.356409 185.067483 
L 598.734025 181.064869 
L 601.190894 178.305526 
L 603.56851 180.421798 
L 606.025379 182.951533 
L 608.482249 178.334705 
L 610.701357 182.617179 
L 613.158227 183.931658 
L 615.535843 186.545782 
L 617.992712 184.553292 
L 620.370328 186.215304 
L 622.827198 187.44644 
L 625.284067 182.740053 
L 627.661683 185.923082 
L 630.118552 187.385447 
L 632.496168 187.095464 
L 634.953038 192.90949 
L 637.409907 192.522539 
L 639.629016 189.168786 
L 642.085885 183.846195 
L 644.463501 184.624332 
L 646.92037 182.004328 
L 649.297986 181.795794 
L 651.754856 183.965975 
L 654.211725 179.51116 
L 656.589341 183.63366 
L 659.046211 188.306732 
L 661.423827 181.517639 
L 663.880696 181.545764 
L 666.337566 184.71609 
L 668.635928 182.79321 
L 671.092797 178.838136 
L 673.470413 176.273133 
L 675.927283 175.847193 
L 678.304898 178.252823 
L 680.761768 176.854094 
L 683.218638 180.379548 
L 685.596253 181.260576 
L 688.053123 178.097454 
L 690.430739 179.198785 
L 692.887608 183.773142 
L 695.344478 182.712338 
L 697.563586 185.044005 
L 700.020456 177.140917 
L 702.398071 177.502265 
L 704.854941 179.978386 
L 707.232557 176.812163 
L 709.689426 174.094 
L 712.146296 175.023132 
L 714.523912 173.645971 
L 716.980781 168.621053 
L 719.358397 161.245003 
L 721.815267 156.466774 
L 724.272136 148.511299 
L 726.491244 148.911173 
L 728.948114 135.676534 
L 731.32573 150.329093 
L 733.782599 146.9383 
L 736.160215 150.949514 
L 738.617085 151.529195 
L 741.073954 148.291263 
L 743.45157 140.938338 
L 745.90844 136.61007 
L 748.286056 137.8676 
L 750.742925 136.218972 
L 753.199795 137.625937 
L 755.418903 134.862244 
L 757.875772 126.658747 
L 760.253388 129.839209 
L 762.710258 134.394344 
L 765.087874 132.780185 
L 767.544743 125.262996 
L 770.001613 135.882683 
L 772.379229 129.878604 
L 774.836098 125.609637 
L 777.213714 123.555626 
L 779.670584 127.059844 
L 782.127453 127.23838 
L 784.425815 127.612219 
L 786.882685 128.669522 
L 789.2603 128.659816 
L 791.71717 128.490629 
L 794.094786 127.806701 
L 796.551655 129.884793 
L 799.008525 127.663554 
L 801.386141 127.23754 
L 803.84301 127.230199 
L 806.220626 129.387617 
L 808.677496 139.808655 
L 811.134365 135.254234 
L 813.353473 134.6511 
L 815.810343 139.323272 
L 818.187959 139.070439 
L 820.644828 137.614082 
L 823.022444 137.439094 
L 825.479314 133.503216 
L 827.936183 127.241541 
L 830.313799 127.815786 
L 832.770669 127.050974 
L 835.148285 130.496205 
L 837.605154 127.544906 
L 842.281132 127.072789 
L 844.738001 127.617003 
L 847.115617 127.613627 
L 849.572487 127.025972 
L 851.950103 127.52611 
L 854.406972 127.623318 
L 856.863842 127.041363 
L 859.241458 127.519383 
L 861.698327 127.485507 
L 864.075943 127.971663 
L 866.532813 137.344936 
L 866.532813 137.344936 
" clip-path="url(#p52160b0071)" style="fill: none; stroke-dasharray: 12.8,3.2,2,3.2; stroke-dashoffset: 0; stroke: #009e73; stroke-width: 2"/>
   </g>
   <g id="line2d_23">
    <path d="M 29.532812 129.638979 
L 31.751921 128.738711 
L 34.20879 126.553089 
L 36.586406 125.099545 
L 39.043276 126.377892 
L 41.420891 123.163209 
L 43.877761 128.971623 
L 46.334631 127.209868 
L 48.712246 128.216099 
L 51.169116 121.395222 
L 53.546732 110.349249 
L 56.003601 111.313796 
L 58.460471 107.747153 
L 60.679579 129.617655 
L 63.136449 109.975767 
L 65.514064 114.42171 
L 67.970934 109.215941 
L 70.34855 113.282904 
L 72.805419 116.291889 
L 75.262289 118.242327 
L 77.639905 136.307087 
L 80.096774 127.644248 
L 82.47439 118.228258 
L 84.93126 135.383786 
L 87.388129 138.300953 
L 92.143361 144.460952 
L 94.520976 145.544303 
L 96.977846 149.254954 
L 99.355462 147.20727 
L 101.812331 147.641483 
L 109.103686 150.512974 
L 111.481302 150.828413 
L 113.938172 149.751025 
L 116.395041 147.465546 
L 118.614149 147.763718 
L 121.071019 147.071303 
L 123.448635 145.340306 
L 125.905504 144.690734 
L 128.28312 144.702818 
L 130.73999 144.516846 
L 133.196859 144.883112 
L 135.574475 145.054916 
L 138.031345 144.665424 
L 140.408961 144.830048 
L 142.86583 144.442609 
L 149.998677 142.74691 
L 152.376293 145.588104 
L 154.833163 142.894994 
L 157.210779 149.645676 
L 159.667648 144.053096 
L 162.124518 143.56693 
L 164.502134 140.073963 
L 166.959003 141.272613 
L 169.336619 142.234713 
L 171.793489 141.960225 
L 174.250358 140.370926 
L 176.469466 140.944842 
L 178.926336 140.003951 
L 181.303952 141.605095 
L 183.760821 142.829445 
L 186.138437 146.012647 
L 188.595307 140.8628 
L 191.052176 142.785444 
L 193.429792 141.080428 
L 195.886662 142.901504 
L 198.264277 144.229759 
L 200.721147 143.271458 
L 203.178017 144.144415 
L 205.476378 142.474512 
L 207.933248 142.976806 
L 210.310864 141.71284 
L 212.767733 141.368546 
L 215.145349 143.21572 
L 217.602219 143.016347 
L 220.059088 144.16283 
L 222.436704 142.866666 
L 224.893574 143.238518 
L 227.27119 145.648337 
L 229.728059 145.506273 
L 232.184929 144.791236 
L 234.404037 141.236541 
L 236.860906 141.858777 
L 239.238522 141.760862 
L 241.695392 138.178328 
L 244.073008 140.993263 
L 246.529877 140.114045 
L 248.986747 143.117188 
L 251.364363 141.811122 
L 253.821232 142.785166 
L 256.198848 142.628089 
L 258.655718 141.257799 
L 261.112587 140.804461 
L 263.331695 140.691474 
L 265.788565 137.238036 
L 270.62305 135.261291 
L 275.457536 137.735577 
L 277.914405 136.489405 
L 280.292021 131.867154 
L 282.748891 127.412552 
L 285.126506 130.39389 
L 287.583376 123.490248 
L 290.040246 123.259901 
L 292.259354 123.565235 
L 294.716223 127.560517 
L 297.093839 126.015284 
L 299.550709 119.847113 
L 301.928324 114.390845 
L 304.385194 117.590891 
L 306.842064 115.187627 
L 309.219679 116.939745 
L 311.676549 110.60264 
L 314.054165 117.024334 
L 316.511034 118.799577 
L 318.967904 115.213835 
L 321.266266 115.156836 
L 323.723135 112.765279 
L 326.100751 112.04758 
L 328.557621 110.840805 
L 330.935237 111.874376 
L 333.392106 113.659224 
L 335.848976 114.478167 
L 338.226591 118.55209 
L 340.683461 118.9494 
L 343.061077 118.884807 
L 347.974816 119.874259 
L 350.193924 117.091245 
L 352.650794 119.497299 
L 355.02841 119.259038 
L 357.485279 120.283088 
L 359.862895 120.880579 
L 364.776634 121.521144 
L 367.15425 119.45957 
L 369.611119 120.947561 
L 371.988735 117.107656 
L 374.445605 118.195028 
L 376.902474 117.309102 
L 379.121583 117.21387 
L 381.578452 116.074624 
L 383.956068 116.051645 
L 386.412937 114.548219 
L 388.790553 116.742564 
L 391.247423 113.706087 
L 393.704292 115.993516 
L 396.081908 112.142551 
L 400.916394 110.267347 
L 403.373263 111.831107 
L 405.830133 110.623345 
L 408.049241 111.120905 
L 410.50611 110.655936 
L 412.883726 111.759315 
L 415.340596 112.075369 
L 417.718212 110.515395 
L 420.175081 110.380572 
L 422.631951 112.304259 
L 425.009567 110.205062 
L 427.466436 113.516335 
L 429.844052 109.899231 
L 432.300922 111.407333 
L 434.757791 111.17876 
L 437.056153 111.672618 
L 439.513023 111.629481 
L 444.347508 115.498661 
L 446.725124 116.310843 
L 449.181993 116.374071 
L 451.638863 113.702582 
L 454.016479 112.201553 
L 456.473348 112.305939 
L 458.850964 111.457267 
L 461.307834 109.862227 
L 463.764703 110.653438 
L 465.983811 108.649446 
L 468.440681 123.898377 
L 470.818297 122.362758 
L 473.275166 123.245807 
L 475.652782 123.11099 
L 478.109652 122.627173 
L 480.566521 122.379163 
L 482.944137 122.943225 
L 485.401007 122.829448 
L 487.778623 121.937294 
L 490.235492 121.546519 
L 492.692362 121.529069 
L 494.91147 120.105336 
L 497.368339 109.328584 
L 499.745955 105.964678 
L 502.202825 103.604219 
L 504.580441 103.2856 
L 507.03731 99.26423 
L 509.49418 101.092645 
L 511.871796 102.538165 
L 514.328665 103.017106 
L 516.706281 107.533869 
L 519.163151 103.083757 
L 521.62002 103.224862 
L 523.839128 104.676987 
L 526.295998 108.075508 
L 528.673614 104.123936 
L 531.130483 106.451275 
L 533.508099 108.414959 
L 535.964969 106.389132 
L 538.421838 104.570817 
L 540.799454 111.586073 
L 543.256324 111.702194 
L 545.633939 117.982281 
L 548.090809 119.465584 
L 550.547679 119.09886 
L 552.84604 120.2066 
L 555.30291 119.588308 
L 557.680526 119.697045 
L 560.137395 118.745416 
L 562.515011 118.715008 
L 564.971881 118.994637 
L 567.42875 114.252253 
L 569.806366 116.062847 
L 572.263236 114.567466 
L 574.640852 113.917411 
L 577.097721 104.705484 
L 579.554591 105.659163 
L 581.773699 107.35385 
L 584.230568 104.045637 
L 586.608184 114.916194 
L 589.065054 112.961965 
L 591.44267 111.783343 
L 593.899539 114.557139 
L 596.356409 113.386335 
L 598.734025 111.621677 
L 601.190894 113.365628 
L 603.56851 110.378272 
L 606.025379 109.181598 
L 608.482249 113.024552 
L 610.701357 112.392903 
L 613.158227 112.043377 
L 615.535843 112.071609 
L 617.992712 111.861398 
L 620.370328 114.942726 
L 622.827198 119.226322 
L 625.284067 115.133758 
L 627.661683 112.774763 
L 630.118552 115.110145 
L 632.496168 116.41161 
L 634.953038 111.63313 
L 637.409907 108.740326 
L 639.629016 109.527779 
L 642.085885 109.790462 
L 644.463501 109.322588 
L 646.92037 109.447873 
L 651.754856 111.855829 
L 654.211725 112.201013 
L 659.046211 111.527193 
L 661.423827 111.540596 
L 663.880696 109.006746 
L 666.337566 108.099916 
L 668.635928 109.971505 
L 671.092797 108.586382 
L 673.470413 109.369129 
L 675.927283 110.370444 
L 678.304898 105.629193 
L 680.761768 107.948528 
L 683.218638 106.354673 
L 685.596253 106.828322 
L 688.053123 108.547728 
L 690.430739 108.861287 
L 692.887608 107.112249 
L 695.344478 107.140617 
L 697.563586 105.610759 
L 700.020456 107.185353 
L 702.398071 107.833324 
L 704.854941 106.943581 
L 707.232557 108.353537 
L 709.689426 106.550462 
L 712.146296 108.463199 
L 714.523912 110.627654 
L 716.980781 111.782533 
L 719.358397 110.59922 
L 721.815267 118.865853 
L 724.272136 115.864245 
L 726.491244 115.072517 
L 728.948114 109.012339 
L 731.32573 106.879341 
L 733.782599 108.179218 
L 736.160215 106.025194 
L 738.617085 105.109297 
L 741.073954 106.093729 
L 743.45157 106.76952 
L 745.90844 106.968503 
L 748.286056 107.814386 
L 750.742925 107.479161 
L 753.199795 101.567263 
L 755.418903 102.117901 
L 757.875772 104.470313 
L 762.710258 102.996811 
L 765.087874 102.393643 
L 767.544743 100.642281 
L 772.379229 109.766 
L 774.836098 118.625861 
L 777.213714 123.546475 
L 779.670584 126.613217 
L 782.127453 128.073876 
L 784.425815 127.679966 
L 786.882685 129.165238 
L 789.2603 127.543585 
L 791.71717 128.712998 
L 794.094786 127.734068 
L 796.551655 126.059082 
L 799.008525 127.314838 
L 801.386141 127.423885 
L 803.84301 128.132814 
L 806.220626 129.323483 
L 808.677496 139.830361 
L 811.134365 135.401911 
L 813.353473 134.427444 
L 815.810343 140.704437 
L 818.187959 149.565129 
L 820.644828 147.230648 
L 823.022444 147.62566 
L 825.479314 145.571137 
L 827.936183 127.150632 
L 832.770669 128.036278 
L 835.148285 136.519595 
L 837.605154 127.6509 
L 840.062024 127.367164 
L 847.115617 127.55023 
L 851.950103 127.386879 
L 854.406972 127.156744 
L 856.863842 127.326887 
L 859.241458 127.248573 
L 861.698327 127.664099 
L 864.075943 126.928323 
L 866.532813 137.344936 
L 866.532813 137.344936 
" clip-path="url(#p52160b0071)" style="fill: none; stroke-dasharray: 2,3.3; stroke-dashoffset: 0; stroke: #0072b2; stroke-width: 2"/>
   </g>
   <g id="line2d_24">
    <path d="M 29.532812 129.863498 
L 31.751921 128.119292 
L 34.20879 127.178932 
L 36.586406 127.258759 
L 39.043276 126.879112 
L 41.420891 127.212218 
L 43.877761 131.317632 
L 46.334631 132.556192 
L 48.712246 129.41019 
L 51.169116 132.607986 
L 53.546732 139.241823 
L 56.003601 138.656649 
L 58.460471 143.795402 
L 60.679579 129.635613 
L 63.136449 142.394146 
L 65.514064 143.92814 
L 67.970934 146.199432 
L 70.34855 144.009666 
L 72.805419 141.946662 
L 75.262289 141.738161 
L 77.639905 136.325214 
L 80.096774 131.709079 
L 82.47439 135.230231 
L 84.93126 135.601238 
L 87.388129 138.013194 
L 92.143361 144.550418 
L 94.520976 145.650168 
L 96.977846 149.281675 
L 99.355462 147.468274 
L 101.812331 147.496851 
L 104.269201 148.592076 
L 106.646817 150.29983 
L 109.103686 150.482326 
L 111.481302 150.936774 
L 113.938172 150.159701 
L 116.395041 148.071016 
L 118.614149 149.11258 
L 121.071019 147.226789 
L 123.448635 148.643186 
L 125.905504 149.39944 
L 128.28312 152.751614 
L 130.73999 147.200638 
L 133.196859 147.117931 
L 135.574475 147.879089 
L 138.031345 148.028525 
L 140.408961 152.238912 
L 142.86583 153.571152 
L 145.3227 155.813479 
L 147.541808 153.220009 
L 149.998677 153.496674 
L 152.376293 164.206415 
L 154.833163 152.272666 
L 157.210779 171.117418 
L 159.667648 158.543758 
L 162.124518 158.31869 
L 164.502134 155.376015 
L 166.959003 150.969987 
L 169.336619 160.875496 
L 171.793489 157.566748 
L 174.250358 164.113588 
L 176.469466 167.947863 
L 178.926336 162.901246 
L 181.303952 168.115842 
L 183.760821 172.879767 
L 186.138437 174.695415 
L 188.595307 171.37494 
L 191.052176 175.780586 
L 193.429792 174.858068 
L 195.886662 164.465503 
L 198.264277 161.030875 
L 200.721147 159.685828 
L 203.178017 163.216355 
L 205.476378 149.753788 
L 207.933248 147.60075 
L 210.310864 141.337299 
L 212.767733 140.545329 
L 215.145349 151.927189 
L 217.602219 149.973889 
L 220.059088 151.79914 
L 222.436704 146.124764 
L 224.893574 146.891909 
L 227.27119 150.479876 
L 229.728059 150.489326 
L 232.184929 142.213529 
L 234.404037 141.224686 
L 236.860906 141.857097 
L 239.238522 141.762745 
L 241.695392 138.208317 
L 244.073008 141.02526 
L 246.529877 139.984724 
L 248.986747 143.133679 
L 251.364363 157.320453 
L 253.821232 158.654204 
L 256.198848 161.362645 
L 258.655718 161.384288 
L 261.112587 159.925311 
L 263.331695 160.49003 
L 265.788565 164.174224 
L 268.166181 167.086688 
L 270.62305 161.91312 
L 273.000666 156.011479 
L 275.457536 149.109086 
L 277.914405 152.008641 
L 280.292021 162.167233 
L 282.748891 192.066225 
L 285.126506 190.323772 
L 287.583376 199.89551 
L 290.040246 201.473884 
L 292.259354 200.091462 
L 294.716223 196.387834 
L 297.093839 193.038452 
L 299.550709 191.319569 
L 301.928324 195.440088 
L 304.385194 195.778162 
L 306.842064 194.791873 
L 309.219679 199.970527 
L 311.676549 207.399411 
L 314.054165 200.165889 
L 316.511034 199.900214 
L 318.967904 198.116109 
L 321.266266 197.173127 
L 323.723135 204.185382 
L 326.100751 198.49448 
L 328.557621 205.961808 
L 330.935237 197.355937 
L 333.392106 208.404981 
L 335.848976 204.540947 
L 338.226591 189.239428 
L 340.683461 187.085796 
L 343.061077 182.272304 
L 345.517946 186.068412 
L 347.974816 180.469737 
L 350.193924 170.861809 
L 352.650794 162.592023 
L 355.02841 170.400669 
L 357.485279 173.591062 
L 359.862895 189.95823 
L 362.319764 182.749235 
L 364.776634 179.705754 
L 367.15425 180.997952 
L 369.611119 177.311232 
L 371.988735 183.420954 
L 374.445605 183.889069 
L 376.902474 177.512711 
L 379.121583 176.877583 
L 381.578452 177.157487 
L 383.956068 172.562606 
L 386.412937 180.925929 
L 388.790553 184.213016 
L 391.247423 185.360366 
L 393.704292 181.978648 
L 396.081908 161.417823 
L 398.538778 163.849826 
L 403.373263 167.185987 
L 405.830133 158.853658 
L 408.049241 164.82393 
L 410.50611 160.043302 
L 412.883726 156.949575 
L 415.340596 157.149447 
L 417.718212 163.563247 
L 420.175081 165.827788 
L 422.631951 166.803447 
L 425.009567 163.235805 
L 427.466436 163.931489 
L 429.844052 162.245291 
L 432.300922 155.857007 
L 434.757791 153.223473 
L 437.056153 160.577308 
L 439.513023 162.035666 
L 441.890638 140.675573 
L 444.347508 135.648176 
L 446.725124 140.492903 
L 449.181993 139.211062 
L 451.638863 147.598466 
L 454.016479 160.150731 
L 456.473348 160.182209 
L 458.850964 158.658673 
L 461.307834 142.681035 
L 463.764703 140.941656 
L 465.983811 150.646926 
L 468.440681 124.243035 
L 470.818297 123.408701 
L 473.275166 122.921363 
L 475.652782 122.730018 
L 478.109652 122.869398 
L 482.944137 122.323004 
L 485.401007 121.914096 
L 487.778623 121.277197 
L 490.235492 121.998933 
L 492.692362 121.645012 
L 494.91147 120.126953 
L 497.368339 121.320485 
L 499.745955 121.088829 
L 502.202825 122.971533 
L 504.580441 122.915708 
L 507.03731 113.256258 
L 509.49418 122.097051 
L 511.871796 121.563196 
L 514.328665 122.083126 
L 516.706281 121.160532 
L 519.163151 115.507981 
L 521.62002 118.562707 
L 523.839128 118.522078 
L 526.295998 121.340169 
L 528.673614 117.553693 
L 531.130483 117.270025 
L 533.508099 116.535363 
L 535.964969 110.849922 
L 538.421838 120.305286 
L 540.799454 120.4028 
L 543.256324 120.221652 
L 545.633939 120.53877 
L 550.547679 119.243682 
L 552.84604 122.880325 
L 555.30291 119.62246 
L 557.680526 119.025644 
L 560.137395 119.654263 
L 562.515011 121.501458 
L 564.971881 119.517347 
L 567.42875 124.218292 
L 569.806366 124.46082 
L 572.263236 126.200245 
L 574.640852 138.286352 
L 577.097721 152.602534 
L 579.554591 157.839684 
L 581.773699 146.078653 
L 584.230568 153.717891 
L 586.608184 183.924977 
L 589.065054 183.118477 
L 591.44267 180.424468 
L 593.899539 185.194006 
L 596.356409 187.557949 
L 598.734025 187.953494 
L 601.190894 183.034871 
L 603.56851 186.33264 
L 606.025379 184.988462 
L 608.482249 185.872718 
L 610.701357 186.25473 
L 613.158227 187.502637 
L 615.535843 186.484634 
L 617.992712 184.366109 
L 620.370328 187.258009 
L 622.827198 191.26701 
L 625.284067 185.287938 
L 627.661683 189.87654 
L 630.118552 190.930314 
L 632.496168 189.969172 
L 634.953038 196.986604 
L 637.409907 196.209387 
L 639.629016 191.973252 
L 642.085885 186.708678 
L 644.463501 187.082152 
L 646.92037 186.141653 
L 649.297986 187.677872 
L 651.754856 187.057347 
L 654.211725 183.018943 
L 656.589341 184.37345 
L 659.046211 191.940617 
L 661.423827 187.425742 
L 663.880696 191.445102 
L 666.337566 196.57411 
L 668.635928 194.584094 
L 671.092797 193.001317 
L 673.470413 189.756507 
L 675.927283 188.031212 
L 678.304898 192.896549 
L 680.761768 189.391558 
L 683.218638 193.387882 
L 685.596253 191.945142 
L 688.053123 190.981251 
L 690.430739 188.707031 
L 692.887608 193.999943 
L 697.563586 186.308734 
L 700.020456 188.208307 
L 702.398071 187.970859 
L 704.854941 194.721224 
L 707.232557 189.173705 
L 709.689426 188.890383 
L 712.146296 188.117575 
L 714.523912 187.720101 
L 716.980781 188.800956 
L 719.358397 194.375858 
L 721.815267 191.956342 
L 724.272136 184.721551 
L 726.491244 183.738575 
L 728.948114 183.758355 
L 731.32573 177.423816 
L 733.782599 172.297061 
L 736.160215 175.970007 
L 738.617085 175.667831 
L 741.073954 174.438221 
L 743.45157 170.862864 
L 745.90844 171.925816 
L 750.742925 170.721389 
L 753.199795 170.76823 
L 755.418903 174.121226 
L 757.875772 179.257275 
L 760.253388 183.350684 
L 762.710258 180.552507 
L 765.087874 181.865306 
L 767.544743 175.355569 
L 770.001613 173.383566 
L 772.379229 173.758049 
L 774.836098 169.109071 
L 777.213714 171.670786 
L 779.670584 169.148159 
L 782.127453 167.677249 
L 784.425815 167.123766 
L 786.882685 172.417593 
L 789.2603 172.653718 
L 791.71717 175.354055 
L 794.094786 178.335506 
L 796.551655 183.982698 
L 799.008525 180.809995 
L 801.386141 127.653566 
L 803.84301 155.728898 
L 806.220626 151.799364 
L 808.677496 141.432096 
L 811.134365 138.895262 
L 813.353473 137.92757 
L 815.810343 144.71347 
L 818.187959 152.370573 
L 820.644828 147.969316 
L 823.022444 147.73959 
L 825.479314 140.047091 
L 827.936183 127.606622 
L 830.313799 127.203578 
L 832.770669 127.399817 
L 835.148285 132.014033 
L 837.605154 127.434614 
L 842.281132 127.396501 
L 844.738001 127.559339 
L 847.115617 127.459456 
L 851.950103 127.732802 
L 854.406972 127.461274 
L 859.241458 127.764265 
L 861.698327 127.338248 
L 864.075943 127.439404 
L 866.532813 139.692671 
L 866.532813 139.692671 
" clip-path="url(#p52160b0071)" style="fill: none; stroke: #d55e00; stroke-width: 2; stroke-linecap: square"/>
   </g>
   <g id="patch_3">
    <path d="M 29.532813 238.70175 
L 29.532813 16.94175 
" style="fill: none; stroke: #000000; stroke-width: 0.8; stroke-linejoin: miter; stroke-linecap: square"/>
   </g>
   <g id="patch_4">
    <path d="M 29.532812 238.70175 
L 866.532813 238.70175 
" style="fill: none; stroke: #000000; stroke-width: 0.8; stroke-linejoin: miter; stroke-linecap: square"/>
   </g>
   <g id="text_14">
    <!-- 5_Industry_Portfolios - Portfolio Allocation for Lasso -->
    <g transform="translate(263.892812 10.94175) scale(0.144 -0.144)">
     <defs>
      <path id="DejaVuSans-5f" d="M 3263 -1063 
L 3263 -1509 
L -63 -1509 
L -63 -1063 
L 3263 -1063 
z
" transform="scale(0.015625)"/>
      <path id="DejaVuSans-49" d="M 628 4666 
L 1259 4666 
L 1259 0 
L 628 0 
L 628 4666 
z
" transform="scale(0.015625)"/>
      <path id="DejaVuSans-6e" d="M 3513 2113 
L 3513 0 
L 2938 0 
L 2938 2094 
Q 2938 2591 2744 2837 
Q 2550 3084 2163 3084 
Q 1697 3084 1428 2787 
Q 1159 2491 1159 1978 
L 1159 0 
L 581 0 
L 581 3500 
L 1159 3500 
L 1159 2956 
Q 1366 3272 1645 3428 
Q 1925 3584 2291 3584 
Q 2894 3584 3203 3211 
Q 3513 2838 3513 2113 
z
" transform="scale(0.015625)"/>
      <path id="DejaVuSans-64" d="M 2906 2969 
L 2906 4863 
L 3481 4863 
L 3481 0 
L 2906 0 
L 2906 525 
Q 2725 213 2448 61 
Q 2172 -91 1784 -91 
Q 1150 -91 751 415 
Q 353 922 353 1747 
Q 353 2572 751 3078 
Q 1150 3584 1784 3584 
Q 2172 3584 2448 3432 
Q 2725 3281 2906 2969 
z
M 947 1747 
Q 947 1113 1208 752 
Q 1469 391 1925 391 
Q 2381 391 2643 752 
Q 2906 1113 2906 1747 
Q 2906 2381 2643 2742 
Q 2381 3103 1925 3103 
Q 1469 3103 1208 2742 
Q 947 2381 947 1747 
z
" transform="scale(0.015625)"/>
      <path id="DejaVuSans-75" d="M 544 1381 
L 544 3500 
L 1119 3500 
L 1119 1403 
Q 1119 906 1312 657 
Q 1506 409 1894 409 
Q 2359 409 2629 706 
Q 2900 1003 2900 1516 
L 2900 3500 
L 3475 3500 
L 3475 0 
L 2900 0 
L 2900 538 
Q 2691 219 2414 64 
Q 2138 -91 1772 -91 
Q 1169 -91 856 284 
Q 544 659 544 1381 
z
M 1991 3584 
L 1991 3584 
z
" transform="scale(0.015625)"/>
      <path id="DejaVuSans-73" d="M 2834 3397 
L 2834 2853 
Q 2591 2978 2328 3040 
Q 2066 3103 1784 3103 
Q 1356 3103 1142 2972 
Q 928 2841 928 2578 
Q 928 2378 1081 2264 
Q 1234 2150 1697 2047 
L 1894 2003 
Q 2506 1872 2764 1633 
Q 3022 1394 3022 966 
Q 3022 478 2636 193 
Q 2250 -91 1575 -91 
Q 1294 -91 989 -36 
Q 684 19 347 128 
L 347 722 
Q 666 556 975 473 
Q 1284 391 1588 391 
Q 1994 391 2212 530 
Q 2431 669 2431 922 
Q 2431 1156 2273 1281 
Q 2116 1406 1581 1522 
L 1381 1569 
Q 847 1681 609 1914 
Q 372 2147 372 2553 
Q 372 3047 722 3315 
Q 1072 3584 1716 3584 
Q 2034 3584 2315 3537 
Q 2597 3491 2834 3397 
z
" transform="scale(0.015625)"/>
      <path id="DejaVuSans-74" d="M 1172 4494 
L 1172 3500 
L 2356 3500 
L 2356 3053 
L 1172 3053 
L 1172 1153 
Q 1172 725 1289 603 
Q 1406 481 1766 481 
L 2356 481 
L 2356 0 
L 1766 0 
Q 1100 0 847 248 
Q 594 497 594 1153 
L 594 3053 
L 172 3053 
L 172 3500 
L 594 3500 
L 594 4494 
L 1172 4494 
z
" transform="scale(0.015625)"/>
      <path id="DejaVuSans-72" d="M 2631 2963 
Q 2534 3019 2420 3045 
Q 2306 3072 2169 3072 
Q 1681 3072 1420 2755 
Q 1159 2438 1159 1844 
L 1159 0 
L 581 0 
L 581 3500 
L 1159 3500 
L 1159 2956 
Q 1341 3275 1631 3429 
Q 1922 3584 2338 3584 
Q 2397 3584 2469 3576 
Q 2541 3569 2628 3553 
L 2631 2963 
z
" transform="scale(0.015625)"/>
      <path id="DejaVuSans-79" d="M 2059 -325 
Q 1816 -950 1584 -1140 
Q 1353 -1331 966 -1331 
L 506 -1331 
L 506 -850 
L 844 -850 
Q 1081 -850 1212 -737 
Q 1344 -625 1503 -206 
L 1606 56 
L 191 3500 
L 800 3500 
L 1894 763 
L 2988 3500 
L 3597 3500 
L 2059 -325 
z
" transform="scale(0.015625)"/>
      <path id="DejaVuSans-50" d="M 1259 4147 
L 1259 2394 
L 2053 2394 
Q 2494 2394 2734 2622 
Q 2975 2850 2975 3272 
Q 2975 3691 2734 3919 
Q 2494 4147 2053 4147 
L 1259 4147 
z
M 628 4666 
L 2053 4666 
Q 2838 4666 3239 4311 
Q 3641 3956 3641 3272 
Q 3641 2581 3239 2228 
Q 2838 1875 2053 1875 
L 1259 1875 
L 1259 0 
L 628 0 
L 628 4666 
z
" transform="scale(0.015625)"/>
      <path id="DejaVuSans-6f" d="M 1959 3097 
Q 1497 3097 1228 2736 
Q 959 2375 959 1747 
Q 959 1119 1226 758 
Q 1494 397 1959 397 
Q 2419 397 2687 759 
Q 2956 1122 2956 1747 
Q 2956 2369 2687 2733 
Q 2419 3097 1959 3097 
z
M 1959 3584 
Q 2709 3584 3137 3096 
Q 3566 2609 3566 1747 
Q 3566 888 3137 398 
Q 2709 -91 1959 -91 
Q 1206 -91 779 398 
Q 353 888 353 1747 
Q 353 2609 779 3096 
Q 1206 3584 1959 3584 
z
" transform="scale(0.015625)"/>
      <path id="DejaVuSans-66" d="M 2375 4863 
L 2375 4384 
L 1825 4384 
Q 1516 4384 1395 4259 
Q 1275 4134 1275 3809 
L 1275 3500 
L 2222 3500 
L 2222 3053 
L 1275 3053 
L 1275 0 
L 697 0 
L 697 3053 
L 147 3053 
L 147 3500 
L 697 3500 
L 697 3744 
Q 697 4328 969 4595 
Q 1241 4863 1831 4863 
L 2375 4863 
z
" transform="scale(0.015625)"/>
      <path id="DejaVuSans-6c" d="M 603 4863 
L 1178 4863 
L 1178 0 
L 603 0 
L 603 4863 
z
" transform="scale(0.015625)"/>
      <path id="DejaVuSans-69" d="M 603 3500 
L 1178 3500 
L 1178 0 
L 603 0 
L 603 3500 
z
M 603 4863 
L 1178 4863 
L 1178 4134 
L 603 4134 
L 603 4863 
z
" transform="scale(0.015625)"/>
      <path id="DejaVuSans-20" transform="scale(0.015625)"/>
      <path id="DejaVuSans-2d" d="M 313 2009 
L 1997 2009 
L 1997 1497 
L 313 1497 
L 313 2009 
z
" transform="scale(0.015625)"/>
      <path id="DejaVuSans-41" d="M 2188 4044 
L 1331 1722 
L 3047 1722 
L 2188 4044 
z
M 1831 4666 
L 2547 4666 
L 4325 0 
L 3669 0 
L 3244 1197 
L 1141 1197 
L 716 0 
L 50 0 
L 1831 4666 
z
" transform="scale(0.015625)"/>
      <path id="DejaVuSans-63" d="M 3122 3366 
L 3122 2828 
Q 2878 2963 2633 3030 
Q 2388 3097 2138 3097 
Q 1578 3097 1268 2742 
Q 959 2388 959 1747 
Q 959 1106 1268 751 
Q 1578 397 2138 397 
Q 2388 397 2633 464 
Q 2878 531 3122 666 
L 3122 134 
Q 2881 22 2623 -34 
Q 2366 -91 2075 -91 
Q 1284 -91 818 406 
Q 353 903 353 1747 
Q 353 2603 823 3093 
Q 1294 3584 2113 3584 
Q 2378 3584 2631 3529 
Q 2884 3475 3122 3366 
z
" transform="scale(0.015625)"/>
      <path id="DejaVuSans-61" d="M 2194 1759 
Q 1497 1759 1228 1600 
Q 959 1441 959 1056 
Q 959 750 1161 570 
Q 1363 391 1709 391 
Q 2188 391 2477 730 
Q 2766 1069 2766 1631 
L 2766 1759 
L 2194 1759 
z
M 3341 1997 
L 3341 0 
L 2766 0 
L 2766 531 
Q 2569 213 2275 61 
Q 1981 -91 1556 -91 
Q 1019 -91 701 211 
Q 384 513 384 1019 
Q 384 1609 779 1909 
Q 1175 2209 1959 2209 
L 2766 2209 
L 2766 2266 
Q 2766 2663 2505 2880 
Q 2244 3097 1772 3097 
Q 1472 3097 1187 3025 
Q 903 2953 641 2809 
L 641 3341 
Q 956 3463 1253 3523 
Q 1550 3584 1831 3584 
Q 2591 3584 2966 3190 
Q 3341 2797 3341 1997 
z
" transform="scale(0.015625)"/>
      <path id="DejaVuSans-4c" d="M 628 4666 
L 1259 4666 
L 1259 531 
L 3531 531 
L 3531 0 
L 628 0 
L 628 4666 
z
" transform="scale(0.015625)"/>
     </defs>
     <use xlink:href="#DejaVuSans-35"/>
     <use xlink:href="#DejaVuSans-5f" x="63.623047"/>
     <use xlink:href="#DejaVuSans-49" x="113.623047"/>
     <use xlink:href="#DejaVuSans-6e" x="143.115234"/>
     <use xlink:href="#DejaVuSans-64" x="206.494141"/>
     <use xlink:href="#DejaVuSans-75" x="269.970703"/>
     <use xlink:href="#DejaVuSans-73" x="333.349609"/>
     <use xlink:href="#DejaVuSans-74" x="385.449219"/>
     <use xlink:href="#DejaVuSans-72" x="424.658203"/>
     <use xlink:href="#DejaVuSans-79" x="465.771484"/>
     <use xlink:href="#DejaVuSans-5f" x="524.951172"/>
     <use xlink:href="#DejaVuSans-50" x="574.951172"/>
     <use xlink:href="#DejaVuSans-6f" x="631.628906"/>
     <use xlink:href="#DejaVuSans-72" x="692.810547"/>
     <use xlink:href="#DejaVuSans-74" x="733.923828"/>
     <use xlink:href="#DejaVuSans-66" x="773.132812"/>
     <use xlink:href="#DejaVuSans-6f" x="808.337891"/>
     <use xlink:href="#DejaVuSans-6c" x="869.519531"/>
     <use xlink:href="#DejaVuSans-69" x="897.302734"/>
     <use xlink:href="#DejaVuSans-6f" x="925.085938"/>
     <use xlink:href="#DejaVuSans-73" x="986.267578"/>
     <use xlink:href="#DejaVuSans-20" x="1038.367188"/>
     <use xlink:href="#DejaVuSans-2d" x="1070.154297"/>
     <use xlink:href="#DejaVuSans-20" x="1106.238281"/>
     <use xlink:href="#DejaVuSans-50" x="1138.025391"/>
     <use xlink:href="#DejaVuSans-6f" x="1194.703125"/>
     <use xlink:href="#DejaVuSans-72" x="1255.884766"/>
     <use xlink:href="#DejaVuSans-74" x="1296.998047"/>
     <use xlink:href="#DejaVuSans-66" x="1336.207031"/>
     <use xlink:href="#DejaVuSans-6f" x="1371.412109"/>
     <use xlink:href="#DejaVuSans-6c" x="1432.59375"/>
     <use xlink:href="#DejaVuSans-69" x="1460.376953"/>
     <use xlink:href="#DejaVuSans-6f" x="1488.160156"/>
     <use xlink:href="#DejaVuSans-20" x="1549.341797"/>
     <use xlink:href="#DejaVuSans-41" x="1581.128906"/>
     <use xlink:href="#DejaVuSans-6c" x="1649.537109"/>
     <use xlink:href="#DejaVuSans-6c" x="1677.320312"/>
     <use xlink:href="#DejaVuSans-6f" x="1705.103516"/>
     <use xlink:href="#DejaVuSans-63" x="1766.285156"/>
     <use xlink:href="#DejaVuSans-61" x="1821.265625"/>
     <use xlink:href="#DejaVuSans-74" x="1882.544922"/>
     <use xlink:href="#DejaVuSans-69" x="1921.753906"/>
     <use xlink:href="#DejaVuSans-6f" x="1949.537109"/>
     <use xlink:href="#DejaVuSans-6e" x="2010.71875"/>
     <use xlink:href="#DejaVuSans-20" x="2074.097656"/>
     <use xlink:href="#DejaVuSans-66" x="2105.884766"/>
     <use xlink:href="#DejaVuSans-6f" x="2141.089844"/>
     <use xlink:href="#DejaVuSans-72" x="2202.271484"/>
     <use xlink:href="#DejaVuSans-20" x="2243.384766"/>
     <use xlink:href="#DejaVuSans-4c" x="2275.171875"/>
     <use xlink:href="#DejaVuSans-61" x="2330.884766"/>
     <use xlink:href="#DejaVuSans-73" x="2392.164062"/>
     <use xlink:href="#DejaVuSans-73" x="2444.263672"/>
     <use xlink:href="#DejaVuSans-6f" x="2496.363281"/>
    </g>
   </g>
  </g>
 </g>
 <defs>
  <clipPath id="p52160b0071">
   <rect x="29.532813" y="16.94175" width="837" height="221.76"/>
  </clipPath>
 </defs>
</svg>
