<?xml version="1.0" encoding="utf-8" standalone="no"?>
<!DOCTYPE svg PUBLIC "-//W3C//DTD SVG 1.1//EN"
  "http://www.w3.org/Graphics/SVG/1.1/DTD/svg11.dtd">
<svg xmlns:xlink="http://www.w3.org/1999/xlink" width="856.992188pt" height="253.629875pt" viewBox="0 0 856.992188 253.629875" xmlns="http://www.w3.org/2000/svg" version="1.1">
 <metadata>
  <rdf:RDF xmlns:dc="http://purl.org/dc/elements/1.1/" xmlns:cc="http://creativecommons.org/ns#" xmlns:rdf="http://www.w3.org/1999/02/22-rdf-syntax-ns#">
   <cc:Work>
    <dc:type rdf:resource="http://purl.org/dc/dcmitype/StillImage"/>
    <dc:date>2025-08-06T21:49:51.899671</dc:date>
    <dc:format>image/svg+xml</dc:format>
    <dc:creator>
     <cc:Agent>
      <dc:title>Matplotlib v3.9.2, https://matplotlib.org/</dc:title>
     </cc:Agent>
    </dc:creator>
   </cc:Work>
  </rdf:RDF>
 </metadata>
 <defs>
  <style type="text/css">*{stroke-linejoin: round; stroke-linecap: butt}</style>
 </defs>
 <g id="figure_1">
  <g id="patch_1">
   <path d="M 0 253.629875 
L 856.992188 253.629875 
L 856.992188 0 
L 0 0 
z
" style="fill: #ffffff"/>
  </g>
  <g id="axes_1">
   <g id="patch_2">
    <path d="M 19.992188 238.70175 
L 856.992188 238.70175 
L 856.992188 16.94175 
L 19.992188 16.94175 
z
" style="fill: #ffffff"/>
   </g>
   <g id="matplotlib.axis_1">
    <g id="xtick_1">
     <g id="line2d_1">
      <defs>
       <path id="mb68d2dd9bc" d="M 0 1.75 
L 0 -1.75 
" style="stroke: #000000; stroke-width: 0.8"/>
      </defs>
      <g>
       <use xlink:href="#mb68d2dd9bc" x="75.469888" y="238.70175" style="stroke: #000000; stroke-width: 0.8"/>
      </g>
     </g>
     <g id="text_1">
      <!-- 1992 -->
      <g transform="translate(62.744888 251.550188) scale(0.1 -0.1)">
       <defs>
        <path id="DejaVuSans-31" d="M 794 531 
L 1825 531 
L 1825 4091 
L 703 3866 
L 703 4441 
L 1819 4666 
L 2450 4666 
L 2450 531 
L 3481 531 
L 3481 0 
L 794 0 
L 794 531 
z
" transform="scale(0.015625)"/>
        <path id="DejaVuSans-39" d="M 703 97 
L 703 672 
Q 941 559 1184 500 
Q 1428 441 1663 441 
Q 2288 441 2617 861 
Q 2947 1281 2994 2138 
Q 2813 1869 2534 1725 
Q 2256 1581 1919 1581 
Q 1219 1581 811 2004 
Q 403 2428 403 3163 
Q 403 3881 828 4315 
Q 1253 4750 1959 4750 
Q 2769 4750 3195 4129 
Q 3622 3509 3622 2328 
Q 3622 1225 3098 567 
Q 2575 -91 1691 -91 
Q 1453 -91 1209 -44 
Q 966 3 703 97 
z
M 1959 2075 
Q 2384 2075 2632 2365 
Q 2881 2656 2881 3163 
Q 2881 3666 2632 3958 
Q 2384 4250 1959 4250 
Q 1534 4250 1286 3958 
Q 1038 3666 1038 3163 
Q 1038 2656 1286 2365 
Q 1534 2075 1959 2075 
z
" transform="scale(0.015625)"/>
        <path id="DejaVuSans-32" d="M 1228 531 
L 3431 531 
L 3431 0 
L 469 0 
L 469 531 
Q 828 903 1448 1529 
Q 2069 2156 2228 2338 
Q 2531 2678 2651 2914 
Q 2772 3150 2772 3378 
Q 2772 3750 2511 3984 
Q 2250 4219 1831 4219 
Q 1534 4219 1204 4116 
Q 875 4013 500 3803 
L 500 4441 
Q 881 4594 1212 4672 
Q 1544 4750 1819 4750 
Q 2544 4750 2975 4387 
Q 3406 4025 3406 3419 
Q 3406 3131 3298 2873 
Q 3191 2616 2906 2266 
Q 2828 2175 2409 1742 
Q 1991 1309 1228 531 
z
" transform="scale(0.015625)"/>
       </defs>
       <use xlink:href="#DejaVuSans-31"/>
       <use xlink:href="#DejaVuSans-39" x="63.623047"/>
       <use xlink:href="#DejaVuSans-39" x="127.246094"/>
       <use xlink:href="#DejaVuSans-32" x="190.869141"/>
      </g>
     </g>
    </g>
    <g id="xtick_2">
     <g id="line2d_2">
      <g>
       <use xlink:href="#mb68d2dd9bc" x="191.259776" y="238.70175" style="stroke: #000000; stroke-width: 0.8"/>
      </g>
     </g>
     <g id="text_2">
      <!-- 1996 -->
      <g transform="translate(178.534776 251.550188) scale(0.1 -0.1)">
       <defs>
        <path id="DejaVuSans-36" d="M 2113 2584 
Q 1688 2584 1439 2293 
Q 1191 2003 1191 1497 
Q 1191 994 1439 701 
Q 1688 409 2113 409 
Q 2538 409 2786 701 
Q 3034 994 3034 1497 
Q 3034 2003 2786 2293 
Q 2538 2584 2113 2584 
z
M 3366 4563 
L 3366 3988 
Q 3128 4100 2886 4159 
Q 2644 4219 2406 4219 
Q 1781 4219 1451 3797 
Q 1122 3375 1075 2522 
Q 1259 2794 1537 2939 
Q 1816 3084 2150 3084 
Q 2853 3084 3261 2657 
Q 3669 2231 3669 1497 
Q 3669 778 3244 343 
Q 2819 -91 2113 -91 
Q 1303 -91 875 529 
Q 447 1150 447 2328 
Q 447 3434 972 4092 
Q 1497 4750 2381 4750 
Q 2619 4750 2861 4703 
Q 3103 4656 3366 4563 
z
" transform="scale(0.015625)"/>
       </defs>
       <use xlink:href="#DejaVuSans-31"/>
       <use xlink:href="#DejaVuSans-39" x="63.623047"/>
       <use xlink:href="#DejaVuSans-39" x="127.246094"/>
       <use xlink:href="#DejaVuSans-36" x="190.869141"/>
      </g>
     </g>
    </g>
    <g id="xtick_3">
     <g id="line2d_3">
      <g>
       <use xlink:href="#mb68d2dd9bc" x="307.049663" y="238.70175" style="stroke: #000000; stroke-width: 0.8"/>
      </g>
     </g>
     <g id="text_3">
      <!-- 2000 -->
      <g transform="translate(294.324663 251.550188) scale(0.1 -0.1)">
       <defs>
        <path id="DejaVuSans-30" d="M 2034 4250 
Q 1547 4250 1301 3770 
Q 1056 3291 1056 2328 
Q 1056 1369 1301 889 
Q 1547 409 2034 409 
Q 2525 409 2770 889 
Q 3016 1369 3016 2328 
Q 3016 3291 2770 3770 
Q 2525 4250 2034 4250 
z
M 2034 4750 
Q 2819 4750 3233 4129 
Q 3647 3509 3647 2328 
Q 3647 1150 3233 529 
Q 2819 -91 2034 -91 
Q 1250 -91 836 529 
Q 422 1150 422 2328 
Q 422 3509 836 4129 
Q 1250 4750 2034 4750 
z
" transform="scale(0.015625)"/>
       </defs>
       <use xlink:href="#DejaVuSans-32"/>
       <use xlink:href="#DejaVuSans-30" x="63.623047"/>
       <use xlink:href="#DejaVuSans-30" x="127.246094"/>
       <use xlink:href="#DejaVuSans-30" x="190.869141"/>
      </g>
     </g>
    </g>
    <g id="xtick_4">
     <g id="line2d_4">
      <g>
       <use xlink:href="#mb68d2dd9bc" x="422.83955" y="238.70175" style="stroke: #000000; stroke-width: 0.8"/>
      </g>
     </g>
     <g id="text_4">
      <!-- 2004 -->
      <g transform="translate(410.11455 251.550188) scale(0.1 -0.1)">
       <defs>
        <path id="DejaVuSans-34" d="M 2419 4116 
L 825 1625 
L 2419 1625 
L 2419 4116 
z
M 2253 4666 
L 3047 4666 
L 3047 1625 
L 3713 1625 
L 3713 1100 
L 3047 1100 
L 3047 0 
L 2419 0 
L 2419 1100 
L 313 1100 
L 313 1709 
L 2253 4666 
z
" transform="scale(0.015625)"/>
       </defs>
       <use xlink:href="#DejaVuSans-32"/>
       <use xlink:href="#DejaVuSans-30" x="63.623047"/>
       <use xlink:href="#DejaVuSans-30" x="127.246094"/>
       <use xlink:href="#DejaVuSans-34" x="190.869141"/>
      </g>
     </g>
    </g>
    <g id="xtick_5">
     <g id="line2d_5">
      <g>
       <use xlink:href="#mb68d2dd9bc" x="538.629438" y="238.70175" style="stroke: #000000; stroke-width: 0.8"/>
      </g>
     </g>
     <g id="text_5">
      <!-- 2008 -->
      <g transform="translate(525.904438 251.550188) scale(0.1 -0.1)">
       <defs>
        <path id="DejaVuSans-38" d="M 2034 2216 
Q 1584 2216 1326 1975 
Q 1069 1734 1069 1313 
Q 1069 891 1326 650 
Q 1584 409 2034 409 
Q 2484 409 2743 651 
Q 3003 894 3003 1313 
Q 3003 1734 2745 1975 
Q 2488 2216 2034 2216 
z
M 1403 2484 
Q 997 2584 770 2862 
Q 544 3141 544 3541 
Q 544 4100 942 4425 
Q 1341 4750 2034 4750 
Q 2731 4750 3128 4425 
Q 3525 4100 3525 3541 
Q 3525 3141 3298 2862 
Q 3072 2584 2669 2484 
Q 3125 2378 3379 2068 
Q 3634 1759 3634 1313 
Q 3634 634 3220 271 
Q 2806 -91 2034 -91 
Q 1263 -91 848 271 
Q 434 634 434 1313 
Q 434 1759 690 2068 
Q 947 2378 1403 2484 
z
M 1172 3481 
Q 1172 3119 1398 2916 
Q 1625 2713 2034 2713 
Q 2441 2713 2670 2916 
Q 2900 3119 2900 3481 
Q 2900 3844 2670 4047 
Q 2441 4250 2034 4250 
Q 1625 4250 1398 4047 
Q 1172 3844 1172 3481 
z
" transform="scale(0.015625)"/>
       </defs>
       <use xlink:href="#DejaVuSans-32"/>
       <use xlink:href="#DejaVuSans-30" x="63.623047"/>
       <use xlink:href="#DejaVuSans-30" x="127.246094"/>
       <use xlink:href="#DejaVuSans-38" x="190.869141"/>
      </g>
     </g>
    </g>
    <g id="xtick_6">
     <g id="line2d_6">
      <g>
       <use xlink:href="#mb68d2dd9bc" x="654.419325" y="238.70175" style="stroke: #000000; stroke-width: 0.8"/>
      </g>
     </g>
     <g id="text_6">
      <!-- 2012 -->
      <g transform="translate(641.694325 251.550188) scale(0.1 -0.1)">
       <use xlink:href="#DejaVuSans-32"/>
       <use xlink:href="#DejaVuSans-30" x="63.623047"/>
       <use xlink:href="#DejaVuSans-31" x="127.246094"/>
       <use xlink:href="#DejaVuSans-32" x="190.869141"/>
      </g>
     </g>
    </g>
    <g id="xtick_7">
     <g id="line2d_7">
      <g>
       <use xlink:href="#mb68d2dd9bc" x="770.209212" y="238.70175" style="stroke: #000000; stroke-width: 0.8"/>
      </g>
     </g>
     <g id="text_7">
      <!-- 2016 -->
      <g transform="translate(757.484212 251.550188) scale(0.1 -0.1)">
       <use xlink:href="#DejaVuSans-32"/>
       <use xlink:href="#DejaVuSans-30" x="63.623047"/>
       <use xlink:href="#DejaVuSans-31" x="127.246094"/>
       <use xlink:href="#DejaVuSans-36" x="190.869141"/>
      </g>
     </g>
    </g>
   </g>
   <g id="matplotlib.axis_2">
    <g id="ytick_1">
     <g id="line2d_8">
      <path d="M 19.992188 212.774211 
L 856.992188 212.774211 
" clip-path="url(#p15ac20108d)" style="fill: none; stroke-dasharray: 1.85,0.8; stroke-dashoffset: 0; stroke: #b2b2b2; stroke-width: 0.5"/>
     </g>
     <g id="line2d_9">
      <defs>
       <path id="mc8fcf3686a" d="M 1.75 0 
L -1.75 -0 
" style="stroke: #000000; stroke-width: 0.8"/>
      </defs>
      <g>
       <use xlink:href="#mc8fcf3686a" x="19.992188" y="212.774211" style="stroke: #000000; stroke-width: 0.8"/>
      </g>
     </g>
     <g id="text_8">
      <!-- −2 -->
      <g transform="translate(0 216.57343) scale(0.1 -0.1)">
       <defs>
        <path id="DejaVuSans-2212" d="M 678 2272 
L 4684 2272 
L 4684 1741 
L 678 1741 
L 678 2272 
z
" transform="scale(0.015625)"/>
       </defs>
       <use xlink:href="#DejaVuSans-2212"/>
       <use xlink:href="#DejaVuSans-32" x="83.789062"/>
      </g>
     </g>
    </g>
    <g id="ytick_2">
     <g id="line2d_10">
      <path d="M 19.992188 175.924689 
L 856.992188 175.924689 
" clip-path="url(#p15ac20108d)" style="fill: none; stroke-dasharray: 1.85,0.8; stroke-dashoffset: 0; stroke: #b2b2b2; stroke-width: 0.5"/>
     </g>
     <g id="line2d_11">
      <g>
       <use xlink:href="#mc8fcf3686a" x="19.992188" y="175.924689" style="stroke: #000000; stroke-width: 0.8"/>
      </g>
     </g>
     <g id="text_9">
      <!-- −1 -->
      <g transform="translate(0 179.723908) scale(0.1 -0.1)">
       <use xlink:href="#DejaVuSans-2212"/>
       <use xlink:href="#DejaVuSans-31" x="83.789062"/>
      </g>
     </g>
    </g>
    <g id="ytick_3">
     <g id="line2d_12">
      <path d="M 19.992188 139.075167 
L 856.992188 139.075167 
" clip-path="url(#p15ac20108d)" style="fill: none; stroke-dasharray: 1.85,0.8; stroke-dashoffset: 0; stroke: #b2b2b2; stroke-width: 0.5"/>
     </g>
     <g id="line2d_13">
      <g>
       <use xlink:href="#mc8fcf3686a" x="19.992188" y="139.075167" style="stroke: #000000; stroke-width: 0.8"/>
      </g>
     </g>
     <g id="text_10">
      <!-- 0 -->
      <g transform="translate(8.379688 142.874386) scale(0.1 -0.1)">
       <use xlink:href="#DejaVuSans-30"/>
      </g>
     </g>
    </g>
    <g id="ytick_4">
     <g id="line2d_14">
      <path d="M 19.992188 102.225645 
L 856.992188 102.225645 
" clip-path="url(#p15ac20108d)" style="fill: none; stroke-dasharray: 1.85,0.8; stroke-dashoffset: 0; stroke: #b2b2b2; stroke-width: 0.5"/>
     </g>
     <g id="line2d_15">
      <g>
       <use xlink:href="#mc8fcf3686a" x="19.992188" y="102.225645" style="stroke: #000000; stroke-width: 0.8"/>
      </g>
     </g>
     <g id="text_11">
      <!-- 1 -->
      <g transform="translate(8.379688 106.024864) scale(0.1 -0.1)">
       <use xlink:href="#DejaVuSans-31"/>
      </g>
     </g>
    </g>
    <g id="ytick_5">
     <g id="line2d_16">
      <path d="M 19.992188 65.376123 
L 856.992188 65.376123 
" clip-path="url(#p15ac20108d)" style="fill: none; stroke-dasharray: 1.85,0.8; stroke-dashoffset: 0; stroke: #b2b2b2; stroke-width: 0.5"/>
     </g>
     <g id="line2d_17">
      <g>
       <use xlink:href="#mc8fcf3686a" x="19.992188" y="65.376123" style="stroke: #000000; stroke-width: 0.8"/>
      </g>
     </g>
     <g id="text_12">
      <!-- 2 -->
      <g transform="translate(8.379688 69.175342) scale(0.1 -0.1)">
       <use xlink:href="#DejaVuSans-32"/>
      </g>
     </g>
    </g>
    <g id="ytick_6">
     <g id="line2d_18">
      <path d="M 19.992188 28.526601 
L 856.992188 28.526601 
" clip-path="url(#p15ac20108d)" style="fill: none; stroke-dasharray: 1.85,0.8; stroke-dashoffset: 0; stroke: #b2b2b2; stroke-width: 0.5"/>
     </g>
     <g id="line2d_19">
      <g>
       <use xlink:href="#mc8fcf3686a" x="19.992188" y="28.526601" style="stroke: #000000; stroke-width: 0.8"/>
      </g>
     </g>
     <g id="text_13">
      <!-- 3 -->
      <g transform="translate(8.379688 32.32582) scale(0.1 -0.1)">
       <defs>
        <path id="DejaVuSans-33" d="M 2597 2516 
Q 3050 2419 3304 2112 
Q 3559 1806 3559 1356 
Q 3559 666 3084 287 
Q 2609 -91 1734 -91 
Q 1441 -91 1130 -33 
Q 819 25 488 141 
L 488 750 
Q 750 597 1062 519 
Q 1375 441 1716 441 
Q 2309 441 2620 675 
Q 2931 909 2931 1356 
Q 2931 1769 2642 2001 
Q 2353 2234 1838 2234 
L 1294 2234 
L 1294 2753 
L 1863 2753 
Q 2328 2753 2575 2939 
Q 2822 3125 2822 3475 
Q 2822 3834 2567 4026 
Q 2313 4219 1838 4219 
Q 1578 4219 1281 4162 
Q 984 4106 628 3988 
L 628 4550 
Q 988 4650 1302 4700 
Q 1616 4750 1894 4750 
Q 2613 4750 3031 4423 
Q 3450 4097 3450 3541 
Q 3450 3153 3228 2886 
Q 3006 2619 2597 2516 
z
" transform="scale(0.015625)"/>
       </defs>
       <use xlink:href="#DejaVuSans-33"/>
      </g>
     </g>
    </g>
   </g>
   <g id="line2d_20">
    <path d="M 19.992188 198.668792 
L 22.211296 200.693751 
L 24.668165 213.078523 
L 27.045781 211.072167 
L 29.502651 212.785783 
L 31.880266 213.701105 
L 34.337136 211.040826 
L 36.794006 208.948439 
L 39.171621 210.797177 
L 41.628491 215.38882 
L 44.006107 229.941682 
L 46.462976 224.254545 
L 48.919846 226.519003 
L 51.138954 227.214828 
L 53.595824 234.476965 
L 55.973439 221.730026 
L 58.430309 223.400845 
L 60.807925 217.975603 
L 63.264794 232.618023 
L 65.721664 237.563355 
L 68.09928 238.70175 
L 70.556149 224.502583 
L 72.933765 214.614579 
L 75.390635 222.388544 
L 77.847504 228.28014 
L 80.145866 218.447766 
L 82.602736 202.808863 
L 84.980351 202.464544 
L 87.437221 200.511673 
L 89.814837 200.087641 
L 92.271706 206.463895 
L 94.728576 202.867311 
L 97.106192 206.803062 
L 99.563061 213.803258 
L 101.940677 214.870041 
L 104.397547 194.55496 
L 109.073524 180.914637 
L 111.530394 185.967185 
L 113.90801 178.953335 
L 116.364879 183.323904 
L 118.742495 178.520224 
L 121.199365 175.544977 
L 123.656234 173.500688 
L 126.03385 175.426436 
L 128.49072 174.06837 
L 130.868336 171.391767 
L 133.325205 170.89128 
L 135.782075 171.495746 
L 138.001183 171.774884 
L 140.458052 170.565123 
L 142.835668 172.065653 
L 145.292538 172.311142 
L 147.670154 172.417214 
L 150.127023 172.886413 
L 154.961509 178.600689 
L 157.418378 176.500461 
L 159.795994 177.548288 
L 162.252864 178.120164 
L 164.709733 178.255906 
L 166.928841 179.708551 
L 169.385711 179.556844 
L 171.763327 179.00792 
L 174.220196 180.207851 
L 176.597812 182.875204 
L 179.054682 179.903954 
L 181.511551 175.470188 
L 183.889167 174.629416 
L 186.346037 171.432328 
L 188.723652 172.685627 
L 191.180522 172.534113 
L 193.637392 169.668444 
L 195.935753 172.004712 
L 198.392623 171.39484 
L 200.770239 171.077061 
L 203.227108 170.548177 
L 205.604724 168.096971 
L 208.061594 166.687576 
L 210.518463 171.532956 
L 212.896079 173.394952 
L 215.352949 169.563698 
L 217.730565 171.592764 
L 220.187434 172.02392 
L 222.644304 169.051842 
L 224.863412 165.34298 
L 227.320281 165.953476 
L 229.697897 164.792381 
L 232.154767 171.40093 
L 234.532383 164.500852 
L 236.989252 166.998141 
L 239.446122 166.144476 
L 241.823738 166.910133 
L 244.280607 164.266437 
L 246.658223 165.08065 
L 249.115093 166.453949 
L 251.571962 167.412225 
L 253.79107 167.752089 
L 256.24794 167.629305 
L 258.625556 169.39037 
L 261.082425 168.0935 
L 263.460041 170.999874 
L 265.916911 169.620797 
L 268.37378 168.021101 
L 270.751396 175.001376 
L 273.208266 184.104713 
L 275.585881 187.632939 
L 278.042751 186.065183 
L 280.499621 185.641498 
L 282.718729 186.221848 
L 285.175598 185.360683 
L 287.553214 185.449701 
L 290.010084 185.19821 
L 292.387699 182.316135 
L 294.844569 180.782351 
L 297.301439 177.484647 
L 299.679054 180.471782 
L 302.135924 180.236481 
L 304.51354 185.974942 
L 306.970409 187.380592 
L 309.427279 181.705334 
L 311.725641 190.443801 
L 314.18251 169.88802 
L 316.560126 170.91336 
L 321.394612 184.477338 
L 323.851481 170.802668 
L 326.308351 177.729823 
L 328.685966 171.019301 
L 331.142836 169.713419 
L 333.520452 167.320913 
L 335.977321 171.622332 
L 338.434191 177.815927 
L 340.653299 168.249192 
L 343.110169 168.903228 
L 345.487785 174.153186 
L 347.944654 172.590279 
L 350.32227 175.061913 
L 352.779139 169.600071 
L 355.236009 170.972949 
L 357.613625 168.595194 
L 360.070494 178.116757 
L 362.44811 176.640914 
L 364.90498 177.24546 
L 367.361849 174.511074 
L 369.580958 174.206215 
L 372.037827 178.826742 
L 374.415443 174.516343 
L 376.872312 174.231905 
L 379.249928 176.914621 
L 381.706798 175.896519 
L 384.163667 180.257647 
L 386.541283 180.669223 
L 388.998153 179.606246 
L 391.375769 184.417948 
L 393.832638 175.727338 
L 396.289508 179.134643 
L 398.508616 177.076688 
L 400.965485 179.188448 
L 403.343101 179.639748 
L 405.799971 180.678535 
L 408.177587 178.955226 
L 410.634456 182.713431 
L 413.091326 180.71772 
L 415.468942 179.936341 
L 417.925811 173.587112 
L 420.303427 172.474862 
L 422.760297 171.052457 
L 425.217166 172.331794 
L 427.515528 171.465335 
L 429.972398 173.087912 
L 432.350013 173.03933 
L 434.806883 173.221408 
L 437.184499 171.83702 
L 439.641368 170.616616 
L 442.098238 172.73522 
L 444.475854 175.005807 
L 446.932723 174.604838 
L 449.310339 174.64265 
L 451.767209 172.767948 
L 454.224078 170.323841 
L 456.443186 170.80512 
L 458.900056 171.210798 
L 461.277672 170.766802 
L 463.734541 175.106816 
L 466.112157 174.917019 
L 468.569027 176.518705 
L 471.025896 173.459116 
L 473.403512 173.070963 
L 475.860382 169.354128 
L 478.237998 170.818901 
L 483.151737 172.704131 
L 485.370845 167.601853 
L 487.827714 171.650185 
L 490.20533 170.320133 
L 492.6622 168.245347 
L 495.039816 168.143559 
L 497.496685 166.379427 
L 499.953555 169.797976 
L 502.331171 169.536009 
L 504.78804 171.447821 
L 507.165656 167.142942 
L 509.622526 166.797647 
L 512.079395 167.821724 
L 514.298503 168.048652 
L 516.755373 171.106184 
L 519.132989 175.627065 
L 521.589858 175.913865 
L 523.967474 179.398997 
L 526.424344 179.659677 
L 528.881213 179.442684 
L 533.715699 181.135436 
L 536.093314 174.773172 
L 538.550184 176.42198 
L 541.007054 180.406436 
L 543.305415 176.852212 
L 545.762285 178.725957 
L 548.139901 183.096245 
L 550.59677 180.998215 
L 552.974386 176.11946 
L 555.431256 177.425429 
L 557.888125 178.889976 
L 562.722611 172.568424 
L 565.100227 179.183342 
L 567.557096 199.089507 
L 570.013966 195.842617 
L 572.233074 197.903063 
L 574.689943 199.56967 
L 577.067559 205.754796 
L 579.524429 201.657719 
L 581.902045 208.638385 
L 584.358914 201.237542 
L 586.815784 198.719118 
L 589.1934 195.478985 
L 591.650269 186.337938 
L 594.027885 189.83507 
L 596.484754 196.614581 
L 598.941624 193.778556 
L 601.160732 195.280869 
L 603.617602 194.743543 
L 605.995218 195.574165 
L 608.452087 194.342615 
L 610.829703 192.162886 
L 613.286573 191.243498 
L 615.743442 186.779372 
L 618.121058 192.403606 
L 620.577927 188.849316 
L 622.955543 193.456376 
L 625.412413 194.144885 
L 627.869282 189.731849 
L 630.088391 195.199107 
L 632.54526 195.069115 
L 634.922876 192.636188 
L 637.379745 192.545538 
L 639.757361 194.610753 
L 642.214231 191.162514 
L 644.6711 188.607018 
L 647.048716 192.258395 
L 649.505586 198.689583 
L 651.883202 190.794977 
L 654.340071 191.897452 
L 656.796941 193.719797 
L 659.095303 191.369818 
L 661.552172 193.207997 
L 663.929788 195.880709 
L 666.386658 194.60408 
L 668.764273 197.519052 
L 671.221143 188.11826 
L 673.678013 193.633744 
L 676.055628 188.429424 
L 678.512498 187.102324 
L 680.890114 185.316559 
L 683.346983 187.872912 
L 685.803853 187.689453 
L 688.022961 186.376373 
L 690.479831 185.433481 
L 692.857446 183.537328 
L 695.314316 198.177127 
L 697.691932 196.885988 
L 700.148801 198.394777 
L 702.605671 197.298722 
L 704.983287 197.136112 
L 707.440156 187.907616 
L 709.817772 173.077132 
L 712.274642 147.646809 
L 714.731511 147.783072 
L 716.950619 147.373266 
L 719.407489 137.230947 
L 721.785105 134.708344 
L 724.241974 142.022786 
L 726.61959 140.356588 
L 729.07646 136.017701 
L 731.533329 136.702573 
L 733.910945 139.154083 
L 736.367815 140.055642 
L 738.745431 139.657248 
L 741.2023 141.199213 
L 743.65917 143.524689 
L 745.878278 144.339421 
L 748.335147 144.149704 
L 750.712763 143.314095 
L 753.169633 144.406768 
L 755.547249 142.152269 
L 758.004118 142.887173 
L 760.460988 141.58288 
L 762.838604 141.13326 
L 765.295473 149.339187 
L 767.673089 152.522916 
L 770.129959 149.377542 
L 772.586828 147.105023 
L 774.88519 146.678272 
L 777.34206 149.580105 
L 779.719675 149.476284 
L 782.176545 149.916643 
L 784.554161 148.487951 
L 787.01103 149.246675 
L 789.4679 149.756671 
L 791.845516 149.751013 
L 794.302385 147.877895 
L 796.680001 150.42477 
L 799.136871 149.460551 
L 801.59374 149.416557 
L 803.812848 148.659996 
L 806.269718 149.074387 
L 808.647334 148.584486 
L 811.104203 148.595753 
L 813.481819 149.322568 
L 815.938689 148.383992 
L 818.395558 145.984583 
L 820.773174 146.753824 
L 823.230044 146.187027 
L 825.60766 145.995211 
L 828.064529 144.46336 
L 830.521399 144.468319 
L 832.740507 144.815506 
L 835.197376 143.458663 
L 837.574992 144.100987 
L 840.031862 143.308734 
L 842.409478 143.086121 
L 844.866347 142.277482 
L 847.323217 143.068242 
L 849.700833 142.926865 
L 852.157702 143.424297 
L 854.535318 144.179364 
L 856.992188 144.128489 
L 856.992188 144.128489 
" clip-path="url(#p15ac20108d)" style="fill: none; stroke: #e69f00; stroke-width: 2; stroke-linecap: square"/>
   </g>
   <g id="line2d_21">
    <path d="M 19.992188 52.631669 
L 22.211296 50.726696 
L 24.668165 36.054355 
L 27.045781 37.213655 
L 29.502651 38.764595 
L 31.880266 35.927796 
L 34.337136 41.804008 
L 36.794006 42.655176 
L 39.171621 42.738524 
L 41.628491 51.888473 
L 44.006107 41.355258 
L 46.462976 43.380949 
L 48.919846 42.336127 
L 51.138954 40.474161 
L 53.595824 31.314313 
L 55.973439 40.069776 
L 58.430309 48.258104 
L 60.807925 50.811742 
L 63.264794 31.98049 
L 65.721664 26.912235 
L 68.09928 16.94175 
L 70.556149 40.344226 
L 72.933765 47.071167 
L 75.390635 41.116103 
L 77.847504 24.783379 
L 80.145866 30.527229 
L 82.602736 45.723829 
L 84.980351 44.007576 
L 87.437221 45.740176 
L 89.814837 40.531433 
L 92.271706 31.112069 
L 94.728576 38.05703 
L 97.106192 35.904019 
L 99.563061 29.052331 
L 101.940677 29.654422 
L 104.397547 54.011263 
L 106.854416 64.775275 
L 109.073524 69.372099 
L 111.530394 63.713525 
L 113.90801 70.51947 
L 116.364879 69.540992 
L 118.742495 72.389415 
L 121.199365 75.539849 
L 123.656234 77.282276 
L 126.03385 75.399887 
L 128.49072 83.135624 
L 130.868336 85.771226 
L 133.325205 91.369662 
L 135.782075 93.68154 
L 138.001183 94.773595 
L 140.458052 95.801391 
L 142.835668 92.814249 
L 145.292538 93.462822 
L 147.670154 92.421373 
L 150.127023 92.066083 
L 152.583893 89.598045 
L 154.961509 89.388065 
L 157.418378 91.819821 
L 159.795994 92.209401 
L 162.252864 91.346842 
L 164.709733 90.86254 
L 166.928841 89.274399 
L 169.385711 89.67467 
L 171.763327 89.067634 
L 174.220196 86.90555 
L 176.597812 85.850798 
L 179.054682 83.515069 
L 181.511551 86.954319 
L 183.889167 88.685532 
L 186.346037 82.790882 
L 188.723652 77.705604 
L 191.180522 84.66833 
L 193.637392 85.040491 
L 195.935753 81.745097 
L 198.392623 79.682788 
L 200.770239 81.510174 
L 203.227108 81.765371 
L 205.604724 84.344972 
L 208.061594 79.666123 
L 210.518463 79.150109 
L 212.896079 78.787402 
L 215.352949 81.857413 
L 217.730565 82.172606 
L 220.187434 79.786448 
L 222.644304 93.254921 
L 224.863412 101.178156 
L 227.320281 101.095222 
L 229.697897 102.775597 
L 232.154767 99.908142 
L 234.532383 108.114366 
L 236.989252 110.707899 
L 239.446122 109.282997 
L 244.280607 107.451143 
L 246.658223 106.138741 
L 249.115093 107.394289 
L 251.571962 106.241938 
L 253.79107 106.323172 
L 256.24794 107.418498 
L 258.625556 105.85421 
L 261.082425 108.420042 
L 263.460041 109.958113 
L 265.916911 116.232497 
L 268.37378 115.154752 
L 270.751396 112.829004 
L 273.208266 80.618403 
L 275.585881 79.42064 
L 278.042751 82.932077 
L 280.499621 82.011796 
L 282.718729 76.105884 
L 285.175598 79.860537 
L 287.553214 63.046484 
L 290.010084 70.822568 
L 292.387699 83.269254 
L 294.844569 88.764149 
L 297.301439 91.707297 
L 299.679054 84.915586 
L 302.135924 84.500305 
L 304.51354 74.477859 
L 306.970409 74.305472 
L 309.427279 78.12524 
L 311.725641 71.060764 
L 314.18251 93.394296 
L 316.560126 90.535844 
L 319.016996 77.655008 
L 321.394612 73.558616 
L 323.851481 83.213903 
L 326.308351 78.329626 
L 328.685966 85.518036 
L 331.142836 87.238652 
L 333.520452 87.42396 
L 335.977321 82.158825 
L 338.434191 79.593281 
L 340.653299 87.935448 
L 343.110169 93.137556 
L 345.487785 90.599342 
L 347.944654 88.723884 
L 350.32227 86.085806 
L 352.779139 90.911811 
L 355.236009 87.539786 
L 357.613625 91.800159 
L 360.070494 83.799049 
L 362.44811 81.374786 
L 364.90498 79.720199 
L 367.361849 77.85126 
L 369.580958 77.523859 
L 372.037827 71.296696 
L 374.415443 75.075043 
L 376.872312 74.753822 
L 379.249928 68.492904 
L 381.706798 71.932382 
L 384.163667 66.749169 
L 386.541283 65.039325 
L 388.998153 69.274453 
L 391.375769 62.971556 
L 393.832638 77.210506 
L 396.289508 76.551877 
L 398.508616 79.504065 
L 400.965485 79.715631 
L 403.343101 78.812414 
L 405.799971 77.390069 
L 408.177587 78.833571 
L 410.634456 72.655707 
L 413.091326 74.818399 
L 415.468942 75.565427 
L 417.925811 82.899447 
L 420.303427 85.57638 
L 422.760297 84.478965 
L 425.217166 82.694428 
L 427.515528 83.392954 
L 429.972398 81.304902 
L 432.350013 83.681536 
L 434.806883 78.9719 
L 437.184499 74.964776 
L 439.641368 73.882186 
L 442.098238 74.436702 
L 444.475854 71.974144 
L 446.932723 73.096713 
L 449.310339 73.303068 
L 451.767209 74.165324 
L 454.224078 76.962676 
L 458.900056 74.52754 
L 461.277672 78.914084 
L 463.734541 89.998392 
L 466.112157 91.336483 
L 468.569027 89.301106 
L 471.025896 95.537136 
L 473.403512 98.587485 
L 475.860382 105.610004 
L 478.237998 104.593333 
L 480.694867 103.301149 
L 483.151737 102.747032 
L 485.370845 106.081445 
L 487.827714 100.801546 
L 490.20533 102.323077 
L 492.6622 105.513202 
L 495.039816 108.294025 
L 497.496685 109.665152 
L 499.953555 112.594573 
L 502.331171 113.305281 
L 504.78804 112.017212 
L 507.165656 114.223769 
L 509.622526 114.528844 
L 512.079395 117.329711 
L 514.298503 116.768205 
L 516.755373 117.117277 
L 519.132989 107.588288 
L 521.589858 108.936577 
L 523.967474 102.406856 
L 526.424344 104.062563 
L 528.881213 103.61138 
L 531.258829 100.633993 
L 533.715699 104.267386 
L 536.093314 110.763784 
L 538.550184 108.082106 
L 541.007054 103.492074 
L 543.305415 107.183352 
L 545.762285 109.755021 
L 548.139901 106.891106 
L 550.59677 109.810837 
L 552.974386 116.056602 
L 555.431256 114.321173 
L 557.888125 109.67854 
L 560.265741 113.097968 
L 562.722611 114.709209 
L 565.100227 103.329771 
L 567.557096 90.083434 
L 570.013966 92.733967 
L 572.233074 94.212237 
L 577.067559 77.933949 
L 579.524429 83.454578 
L 581.902045 78.220147 
L 584.358914 80.972608 
L 586.815784 82.194524 
L 589.1934 79.424502 
L 591.650269 90.428626 
L 594.027885 89.261958 
L 596.484754 83.513465 
L 598.941624 72.170038 
L 601.160732 69.586391 
L 603.617602 70.200713 
L 605.995218 68.378101 
L 608.452087 72.481879 
L 610.829703 74.281478 
L 613.286573 65.965493 
L 615.743442 72.09547 
L 618.121058 60.855883 
L 620.577927 66.528023 
L 622.955543 66.014533 
L 625.412413 63.9837 
L 627.869282 69.811688 
L 630.088391 63.266989 
L 632.54526 63.766216 
L 634.922876 67.477307 
L 637.379745 65.847793 
L 639.757361 62.489116 
L 644.6711 70.840176 
L 647.048716 67.46145 
L 649.505586 59.77678 
L 651.883202 76.177962 
L 654.340071 84.075183 
L 656.796941 83.510365 
L 659.095303 85.55671 
L 661.552172 82.571211 
L 663.929788 80.328184 
L 666.386658 81.003843 
L 668.764273 81.091488 
L 671.221143 89.625977 
L 673.678013 85.926574 
L 676.055628 91.92894 
L 678.512498 88.768244 
L 680.890114 94.41025 
L 683.346983 90.970065 
L 685.803853 91.69181 
L 688.022961 91.66784 
L 690.479831 88.872671 
L 692.857446 90.299657 
L 695.314316 69.507528 
L 697.691932 69.61432 
L 700.148801 65.036856 
L 702.605671 68.804644 
L 704.983287 67.592045 
L 707.440156 77.570584 
L 709.817772 106.78079 
L 712.274642 135.08926 
L 714.731511 135.425312 
L 716.950619 135.610458 
L 719.407489 150.766595 
L 721.785105 156.787623 
L 724.241974 145.37535 
L 726.61959 146.875404 
L 729.07646 151.092988 
L 731.533329 151.292059 
L 733.910945 149.064795 
L 736.367815 145.997773 
L 738.745431 145.944632 
L 741.2023 142.255969 
L 743.65917 147.954848 
L 745.878278 147.44917 
L 748.335147 148.021632 
L 750.712763 152.983195 
L 753.169633 150.570032 
L 755.547249 146.68669 
L 758.004118 162.954166 
L 760.460988 181.972288 
L 762.838604 187.00797 
L 765.295473 183.935684 
L 767.673089 175.308578 
L 770.129959 177.466354 
L 772.586828 177.685122 
L 774.88519 181.21384 
L 777.34206 179.954619 
L 779.719675 180.324375 
L 782.176545 178.761451 
L 784.554161 180.450549 
L 787.01103 182.746245 
L 789.4679 182.793829 
L 791.845516 182.099272 
L 794.302385 180.055971 
L 796.680001 179.556884 
L 799.136871 161.828736 
L 801.59374 162.319893 
L 803.812848 162.31488 
L 806.269718 160.298579 
L 808.647334 163.050773 
L 811.104203 162.114122 
L 813.481819 164.448602 
L 815.938689 160.769227 
L 818.395558 163.135846 
L 820.773174 164.437879 
L 823.230044 162.499948 
L 825.60766 163.575769 
L 828.064529 164.307539 
L 830.521399 163.801192 
L 832.740507 164.210981 
L 835.197376 166.202618 
L 837.574992 166.369542 
L 840.031862 170.341162 
L 842.409478 168.756402 
L 844.866347 173.089677 
L 847.323217 173.199047 
L 849.700833 173.965135 
L 852.157702 171.144671 
L 854.535318 172.442423 
L 856.992188 182.3644 
L 856.992188 182.3644 
" clip-path="url(#p15ac20108d)" style="fill: none; stroke-dasharray: 7.4,3.2; stroke-dashoffset: 0; stroke: #56b4e9; stroke-width: 2"/>
   </g>
   <g id="line2d_22">
    <path d="M 19.992188 155.843836 
L 22.211296 157.257656 
L 24.668165 160.356125 
L 27.045781 161.260023 
L 29.502651 158.511992 
L 31.880266 160.064733 
L 34.337136 154.870294 
L 36.794006 154.909176 
L 39.171621 155.069536 
L 41.628491 144.183472 
L 44.006107 142.946485 
L 46.462976 146.340221 
L 48.919846 145.283202 
L 51.138954 146.858223 
L 53.595824 151.089752 
L 55.973439 152.131213 
L 58.430309 142.048263 
L 60.807925 145.851938 
L 63.264794 152.040269 
L 65.721664 152.766337 
L 68.09928 159.125109 
L 70.556149 152.896766 
L 72.933765 154.903682 
L 75.390635 157.855296 
L 77.847504 164.916775 
L 80.145866 168.334063 
L 82.602736 166.277956 
L 84.980351 171.365986 
L 87.437221 174.338098 
L 89.814837 174.544109 
L 92.271706 178.985309 
L 94.728576 173.292679 
L 97.106192 172.848983 
L 99.563061 175.095527 
L 101.940677 175.006192 
L 104.397547 157.396083 
L 106.854416 154.633615 
L 109.073524 155.96627 
L 111.530394 159.667557 
L 113.90801 157.859697 
L 116.364879 157.27806 
L 118.742495 158.623138 
L 121.199365 157.117027 
L 123.656234 156.686519 
L 126.03385 157.542022 
L 128.49072 152.474416 
L 130.868336 151.561921 
L 133.325205 146.098518 
L 135.782075 143.505245 
L 138.001183 141.702802 
L 140.458052 144.471084 
L 142.835668 145.787735 
L 145.292538 145.37101 
L 147.670154 146.049534 
L 150.127023 146.960398 
L 152.583893 146.58217 
L 154.961509 146.506886 
L 157.418378 146.009438 
L 159.795994 142.257274 
L 162.252864 139.449197 
L 166.928841 139.646382 
L 169.385711 139.207318 
L 171.763327 138.990389 
L 174.220196 139.933109 
L 176.597812 139.052545 
L 179.054682 146.286909 
L 181.511551 146.091114 
L 183.889167 145.207285 
L 186.346037 151.706782 
L 188.723652 152.469279 
L 191.180522 143.873375 
L 193.637392 146.559628 
L 195.935753 147.673803 
L 198.392623 148.155098 
L 200.770239 144.475582 
L 205.604724 144.220266 
L 208.061594 150.424798 
L 210.518463 147.669566 
L 212.896079 147.49739 
L 215.352949 146.767108 
L 217.730565 144.860175 
L 220.187434 145.542591 
L 222.644304 134.214845 
L 224.863412 132.047152 
L 227.320281 130.8149 
L 229.697897 131.051576 
L 232.154767 127.007195 
L 234.532383 122.089556 
L 236.989252 117.691914 
L 239.446122 120.961914 
L 241.823738 119.323272 
L 244.280607 120.033915 
L 246.658223 121.779837 
L 249.115093 118.112129 
L 251.571962 118.428837 
L 253.79107 117.447839 
L 256.24794 114.717368 
L 258.625556 113.982026 
L 261.082425 112.080289 
L 263.460041 107.114631 
L 265.916911 102.603892 
L 268.37378 103.838333 
L 270.751396 104.067335 
L 273.208266 125.367775 
L 275.585881 123.664637 
L 278.042751 121.416853 
L 280.499621 122.371192 
L 282.718729 125.271692 
L 285.175598 123.544099 
L 287.553214 145.88094 
L 292.387699 132.471119 
L 294.844569 127.000476 
L 297.301439 131.03917 
L 299.679054 132.897131 
L 302.135924 133.826454 
L 304.51354 138.825675 
L 306.970409 138.890153 
L 309.427279 138.712298 
L 311.725641 138.806584 
L 314.18251 131.558156 
L 316.560126 130.907467 
L 319.016996 134.270703 
L 321.394612 134.044372 
L 323.851481 136.828237 
L 326.308351 137.472342 
L 328.685966 135.565632 
L 331.142836 135.935507 
L 333.520452 136.744647 
L 335.977321 137.876921 
L 338.434191 137.427986 
L 340.653299 135.494594 
L 343.110169 130.777703 
L 345.487785 131.106937 
L 347.944654 132.34289 
L 350.32227 132.611388 
L 352.779139 133.111598 
L 355.236009 133.803339 
L 357.613625 133.89564 
L 360.070494 131.404886 
L 362.44811 136.370083 
L 364.90498 135.888822 
L 367.361849 140.358386 
L 369.580958 140.464439 
L 372.037827 144.550568 
L 374.415443 143.106171 
L 379.249928 149.161964 
L 381.706798 149.176413 
L 384.163667 147.179934 
L 386.541283 151.025699 
L 388.998153 150.433429 
L 391.375769 150.534443 
L 393.832638 142.783056 
L 398.508616 140.206931 
L 400.965485 138.693941 
L 408.177587 139.498794 
L 410.634456 141.926479 
L 413.091326 141.73563 
L 417.925811 140.929642 
L 420.303427 139.457532 
L 422.760297 143.469874 
L 425.217166 144.411364 
L 427.515528 144.49567 
L 429.972398 145.159807 
L 432.350013 141.463436 
L 434.806883 146.394944 
L 437.184499 150.861376 
L 439.641368 153.444858 
L 442.098238 150.938695 
L 444.475854 151.391782 
L 446.932723 151.192568 
L 449.310339 150.397343 
L 451.767209 154.504037 
L 454.224078 153.935582 
L 456.443186 154.737161 
L 458.900056 156.030455 
L 461.277672 155.277375 
L 463.734541 147.492715 
L 466.112157 147.086886 
L 468.569027 145.76846 
L 471.025896 146.454723 
L 473.403512 146.552684 
L 475.860382 145.627793 
L 480.694867 146.169552 
L 483.151737 145.982147 
L 485.370845 149.544681 
L 487.827714 151.812833 
L 490.20533 150.908217 
L 492.6622 149.574741 
L 495.039816 147.750743 
L 497.496685 147.79959 
L 499.953555 145.101534 
L 502.331171 143.369289 
L 504.78804 143.896642 
L 507.165656 142.82374 
L 509.622526 142.708386 
L 512.079395 139.895138 
L 514.298503 139.91382 
L 516.755373 135.166374 
L 519.132989 139.581108 
L 521.589858 137.71693 
L 523.967474 137.835605 
L 526.424344 137.023618 
L 528.881213 136.747794 
L 531.258829 138.03455 
L 533.715699 132.351872 
L 538.550184 138.596946 
L 541.007054 137.789014 
L 543.305415 138.702423 
L 545.762285 135.484459 
L 548.139901 135.564291 
L 550.59677 136.291617 
L 552.974386 134.948567 
L 555.431256 135.181427 
L 557.888125 134.427373 
L 560.265741 134.452655 
L 562.722611 136.612801 
L 565.100227 144.458522 
L 567.557096 137.27085 
L 570.013966 137.945725 
L 572.233074 136.628282 
L 574.689943 140.93281 
L 577.067559 144.133557 
L 579.524429 141.827317 
L 581.902045 143.894113 
L 584.358914 142.532268 
L 586.815784 143.577668 
L 589.1934 155.174682 
L 591.650269 150.618884 
L 594.027885 150.693603 
L 596.484754 149.013219 
L 598.941624 158.763005 
L 601.160732 159.60897 
L 603.617602 158.169852 
L 605.995218 159.222281 
L 608.452087 157.435941 
L 610.829703 157.321853 
L 613.286573 166.45867 
L 615.743442 165.635556 
L 618.121058 169.911808 
L 620.577927 168.851661 
L 622.955543 169.62504 
L 625.412413 172.136342 
L 627.869282 169.367581 
L 630.088391 170.915607 
L 632.54526 169.874445 
L 634.922876 168.431997 
L 637.379745 168.645192 
L 639.757361 170.031054 
L 642.214231 168.708757 
L 644.6711 166.395651 
L 647.048716 168.317934 
L 649.505586 170.098848 
L 651.883202 163.721103 
L 654.340071 157.619251 
L 656.796941 157.94959 
L 659.095303 157.548418 
L 661.552172 158.227325 
L 663.929788 158.062183 
L 666.386658 157.493759 
L 668.764273 158.564989 
L 671.221143 154.795271 
L 673.678013 156.672954 
L 676.055628 154.599689 
L 678.512498 157.021186 
L 680.890114 156.260832 
L 683.346983 158.602354 
L 685.803853 158.200486 
L 688.022961 158.382704 
L 690.479831 160.536078 
L 692.857446 159.868645 
L 695.314316 164.525766 
L 697.691932 164.760213 
L 700.148801 167.113967 
L 702.605671 166.450441 
L 704.983287 169.119415 
L 707.440156 168.183923 
L 709.817772 157.273015 
L 712.274642 152.596778 
L 714.731511 152.555877 
L 716.950619 152.858385 
L 719.407489 149.840892 
L 721.785105 147.13085 
L 724.241974 152.559905 
L 726.61959 153.350937 
L 729.07646 154.040412 
L 731.533329 155.377127 
L 733.910945 152.02823 
L 736.367815 156.85198 
L 738.745431 154.431513 
L 741.2023 159.783228 
L 743.65917 148.457207 
L 745.878278 150.262736 
L 748.335147 151.096345 
L 750.712763 145.141813 
L 753.169633 145.079813 
L 755.547249 156.298338 
L 760.460988 110.505166 
L 762.838604 104.041668 
L 765.295473 93.779978 
L 767.673089 94.773807 
L 770.129959 92.950065 
L 772.586828 92.860594 
L 774.88519 93.713567 
L 777.34206 91.914399 
L 779.719675 90.699648 
L 782.176545 94.618312 
L 784.554161 94.083716 
L 787.01103 91.447656 
L 789.4679 90.756253 
L 791.845516 93.375649 
L 794.302385 94.365063 
L 796.680001 90.467914 
L 799.136871 107.513648 
L 801.59374 109.037777 
L 803.812848 110.247997 
L 806.269718 111.19052 
L 808.647334 109.534229 
L 811.104203 110.671897 
L 813.481819 107.375778 
L 815.938689 112.707811 
L 818.395558 113.431574 
L 820.773174 111.350432 
L 823.230044 113.450876 
L 828.064529 112.392375 
L 830.521399 113.176777 
L 832.740507 112.088438 
L 835.197376 110.346548 
L 837.574992 108.291582 
L 840.031862 104.644052 
L 842.409478 106.189761 
L 844.866347 104.1707 
L 847.323217 103.657146 
L 849.700833 101.444637 
L 852.157702 103.333154 
L 854.535318 101.852157 
L 856.992188 95.235478 
L 856.992188 95.235478 
" clip-path="url(#p15ac20108d)" style="fill: none; stroke-dasharray: 12.8,3.2,2,3.2; stroke-dashoffset: 0; stroke: #009e73; stroke-width: 2"/>
   </g>
   <g id="line2d_23">
    <path d="M 19.992188 126.920089 
L 22.211296 127.592295 
L 24.668165 126.269936 
L 27.045781 127.384163 
L 29.502651 125.875576 
L 31.880266 122.147272 
L 34.337136 123.380355 
L 36.794006 121.626758 
L 39.171621 122.458227 
L 44.006107 122.656946 
L 46.462976 124.492133 
L 48.919846 123.178223 
L 51.138954 122.652853 
L 53.595824 121.908657 
L 55.973439 124.634429 
L 58.430309 120.922175 
L 60.807925 123.407786 
L 63.264794 121.488156 
L 65.721664 120.494814 
L 68.09928 120.627816 
L 70.556149 130.116581 
L 72.933765 134.212641 
L 75.390635 134.569733 
L 77.847504 132.808989 
L 80.145866 133.115666 
L 82.602736 137.993185 
L 84.980351 140.189658 
L 87.437221 143.74134 
L 89.814837 137.143237 
L 92.271706 137.827709 
L 94.728576 136.9307 
L 97.106192 135.312538 
L 99.563061 134.975967 
L 101.940677 135.474843 
L 104.397547 133.26044 
L 106.854416 133.704925 
L 109.073524 133.701114 
L 111.530394 136.19278 
L 113.90801 132.898901 
L 116.364879 130.892542 
L 118.742495 133.99361 
L 121.199365 134.541039 
L 123.656234 136.678318 
L 128.49072 135.14563 
L 130.868336 135.347831 
L 133.325205 133.728711 
L 135.782075 131.398487 
L 140.458052 130.110731 
L 142.835668 129.075725 
L 145.292538 128.760235 
L 147.670154 128.336155 
L 150.127023 128.358813 
L 152.583893 127.788348 
L 154.961509 121.654001 
L 157.418378 122.305583 
L 159.795994 121.262925 
L 162.252864 123.146385 
L 164.709733 122.467714 
L 166.928841 122.415485 
L 169.385711 121.790069 
L 171.763327 121.547803 
L 174.220196 120.429021 
L 176.597812 121.860663 
L 179.054682 121.677787 
L 181.511551 124.413306 
L 183.889167 124.146694 
L 186.346037 126.370695 
L 188.723652 126.815729 
L 191.180522 126.844951 
L 193.637392 127.919238 
L 195.935753 127.455303 
L 198.392623 126.521 
L 200.770239 126.732837 
L 203.227108 126.177636 
L 205.604724 126.066509 
L 208.061594 126.299348 
L 210.518463 125.089487 
L 212.896079 122.765427 
L 215.352949 123.597312 
L 217.730565 121.875037 
L 220.187434 122.334876 
L 222.644304 124.497923 
L 224.863412 117.832199 
L 227.320281 119.296134 
L 229.697897 119.070987 
L 232.154767 118.52718 
L 234.532383 123.461321 
L 236.989252 121.067325 
L 239.446122 123.544757 
L 241.823738 122.101657 
L 244.280607 124.887131 
L 246.658223 122.777826 
L 249.115093 123.290239 
L 251.571962 123.331874 
L 253.79107 123.946483 
L 256.24794 122.52541 
L 258.625556 123.405364 
L 261.082425 123.255754 
L 263.460041 115.997407 
L 265.916911 115.685114 
L 268.37378 113.190738 
L 270.751396 108.031012 
L 273.208266 96.516348 
L 278.042751 95.516893 
L 280.499621 97.87804 
L 282.718729 100.383879 
L 285.175598 102.348441 
L 287.553214 114.244912 
L 290.010084 111.664495 
L 292.387699 106.468513 
L 294.844569 108.247877 
L 297.301439 110.82861 
L 299.679054 110.70942 
L 302.135924 107.165798 
L 304.51354 107.836122 
L 306.970409 106.601162 
L 309.427279 108.37645 
L 311.725641 107.740232 
L 314.18251 108.657238 
L 316.560126 110.761827 
L 319.016996 108.469704 
L 321.394612 108.875254 
L 323.851481 116.54612 
L 326.308351 113.797344 
L 328.685966 114.802768 
L 331.142836 114.730028 
L 333.520452 117.098197 
L 335.977321 116.661606 
L 338.434191 113.216709 
L 340.653299 114.329702 
L 343.110169 113.411758 
L 345.487785 109.454182 
L 347.944654 112.282942 
L 352.779139 111.728713 
L 355.236009 112.932767 
L 357.613625 112.190029 
L 360.070494 109.784677 
L 362.44811 108.109901 
L 364.90498 109.02631 
L 369.580958 108.267147 
L 372.037827 107.641317 
L 374.415443 110.323447 
L 376.872312 107.609927 
L 379.249928 106.745444 
L 381.706798 104.255113 
L 384.163667 103.545472 
L 388.998153 100.238386 
L 391.375769 100.34086 
L 393.832638 105.167977 
L 396.289508 102.422995 
L 398.508616 103.353009 
L 400.965485 101.953507 
L 405.799971 103.183767 
L 408.177587 102.391116 
L 410.634456 101.082655 
L 413.091326 101.0962 
L 415.468942 101.292377 
L 417.925811 109.833885 
L 420.303427 109.793163 
L 422.760297 109.014177 
L 425.217166 109.116368 
L 427.515528 108.258227 
L 429.972398 107.172098 
L 432.350013 105.032114 
L 434.806883 105.850401 
L 437.184499 109.584187 
L 439.641368 108.77931 
L 442.098238 106.059746 
L 444.475854 106.06455 
L 446.932723 105.658178 
L 449.310339 106.624103 
L 451.767209 106.616678 
L 454.224078 107.899367 
L 458.900056 106.399164 
L 461.277672 106.734771 
L 463.734541 101.741181 
L 466.112157 101.467643 
L 468.569027 99.43962 
L 471.025896 103.071794 
L 473.403512 105.958932 
L 475.860382 108.044483 
L 478.237998 107.905531 
L 480.694867 107.116249 
L 483.151737 107.067676 
L 485.370845 115.366893 
L 487.827714 113.989584 
L 490.20533 114.315581 
L 492.6622 113.347954 
L 495.039816 110.088762 
L 497.496685 110.307636 
L 499.953555 107.36917 
L 502.331171 106.08016 
L 504.78804 105.980458 
L 507.165656 110.046802 
L 509.622526 110.383895 
L 512.079395 108.994473 
L 514.298503 108.94636 
L 516.755373 105.200313 
L 521.589858 105.852566 
L 523.967474 109.798911 
L 526.424344 109.920324 
L 528.881213 109.330199 
L 531.258829 109.325 
L 533.715699 105.331636 
L 536.093314 107.557873 
L 541.007054 98.438002 
L 543.305415 98.519532 
L 545.762285 100.571791 
L 548.139901 98.320902 
L 550.59677 100.939063 
L 552.974386 101.433868 
L 555.431256 101.455082 
L 557.888125 96.041321 
L 560.265741 95.868622 
L 562.722611 97.121532 
L 565.100227 98.037004 
L 567.557096 86.930865 
L 570.013966 87.518166 
L 572.233074 85.300783 
L 574.689943 82.544389 
L 577.067559 75.189159 
L 579.524429 73.875824 
L 581.902045 68.616501 
L 584.358914 73.636323 
L 586.815784 70.390535 
L 589.1934 69.890993 
L 591.650269 76.179149 
L 594.027885 72.030453 
L 596.484754 71.107894 
L 598.941624 80.601782 
L 601.160732 79.967419 
L 603.617602 82.851817 
L 605.995218 83.328246 
L 608.452087 81.582535 
L 613.286573 83.5374 
L 615.743442 83.167245 
L 618.121058 79.857118 
L 620.577927 80.673455 
L 622.955543 79.474175 
L 625.412413 78.895166 
L 627.869282 80.564972 
L 630.088391 75.265766 
L 632.54526 75.410072 
L 634.922876 75.86828 
L 637.379745 77.079481 
L 639.757361 76.78936 
L 642.214231 78.172601 
L 644.6711 79.241109 
L 647.048716 78.253509 
L 649.505586 75.806694 
L 651.883202 76.10882 
L 654.340071 67.750777 
L 656.796941 66.093696 
L 659.095303 66.887492 
L 661.552172 69.277276 
L 663.929788 67.63744 
L 666.386658 70.647963 
L 668.764273 66.610556 
L 671.221143 72.924136 
L 673.678013 69.715456 
L 676.055628 68.680364 
L 678.512498 72.590029 
L 680.890114 69.006367 
L 683.346983 66.589611 
L 685.803853 66.768252 
L 688.022961 69.451176 
L 690.479831 64.877132 
L 692.857446 66.157981 
L 695.314316 58.764127 
L 697.691932 60.482538 
L 700.148801 59.311494 
L 702.605671 63.211214 
L 704.983287 71.118495 
L 707.440156 73.175278 
L 709.817772 75.860777 
L 712.274642 86.717602 
L 714.731511 85.703534 
L 716.950619 85.969037 
L 719.407489 86.71655 
L 721.785105 96.730848 
L 724.241974 95.764546 
L 726.61959 95.583359 
L 729.07646 103.202779 
L 731.533329 103.007547 
L 733.910945 103.526292 
L 736.367815 102.664227 
L 738.745431 104.560563 
L 743.65917 96.651596 
L 745.878278 97.545394 
L 748.335147 91.520512 
L 750.712763 93.572137 
L 753.169633 93.052265 
L 755.547249 92.097874 
L 758.004118 94.559114 
L 760.460988 94.991616 
L 762.838604 97.862082 
L 767.673089 88.378969 
L 770.129959 85.784254 
L 772.586828 88.741167 
L 774.88519 90.876679 
L 777.34206 89.6538 
L 779.719675 91.208786 
L 782.176545 88.606764 
L 784.554161 90.372741 
L 787.01103 89.481685 
L 789.4679 89.101468 
L 791.845516 92.735002 
L 794.302385 100.158215 
L 796.680001 100.513796 
L 799.136871 110.491403 
L 801.59374 108.44727 
L 803.812848 108.973993 
L 806.269718 108.585621 
L 808.647334 108.029113 
L 811.104203 105.479783 
L 813.481819 105.808598 
L 815.938689 107.381088 
L 818.395558 111.709225 
L 820.773174 112.305695 
L 823.230044 111.880198 
L 825.60766 113.126799 
L 828.064529 115.157727 
L 830.521399 114.649552 
L 832.740507 113.663132 
L 835.197376 118.702677 
L 837.574992 112.218327 
L 842.409478 113.456042 
L 844.866347 114.716682 
L 847.323217 111.242072 
L 849.700833 108.969275 
L 852.157702 114.35138 
L 854.535318 112.688098 
L 856.992188 119.054584 
L 856.992188 119.054584 
" clip-path="url(#p15ac20108d)" style="fill: none; stroke-dasharray: 2,3.3; stroke-dashoffset: 0; stroke: #0072b2; stroke-width: 2"/>
   </g>
   <g id="line2d_24">
    <path d="M 19.992188 167.430071 
L 22.211296 167.355554 
L 24.668165 162.970956 
L 27.045781 162.986761 
L 29.502651 166.310955 
L 31.880266 171.110502 
L 34.337136 169.633253 
L 36.794006 173.365753 
L 39.171621 168.121382 
L 41.628491 151.025138 
L 44.006107 142.418866 
L 46.462976 142.998647 
L 48.919846 141.86035 
L 51.138954 143.588026 
L 53.595824 140.875668 
L 55.973439 136.520796 
L 58.430309 137.242827 
L 60.807925 139.426544 
L 63.264794 134.731202 
L 65.721664 136.217925 
L 68.09928 135.339207 
L 70.556149 128.368668 
L 72.933765 124.380793 
L 75.390635 122.773484 
L 77.847504 126.049694 
L 80.145866 127.604433 
L 82.602736 124.302392 
L 84.980351 122.55372 
L 87.437221 119.801988 
L 89.814837 130.603486 
L 92.271706 129.70966 
L 94.728576 127.40319 
L 97.106192 129.131244 
L 99.563061 127.338601 
L 101.940677 126.063188 
L 104.397547 126.799422 
L 106.854416 124.524461 
L 109.073524 124.506483 
L 111.530394 121.544351 
L 113.90801 125.167037 
L 116.364879 124.144463 
L 118.742495 122.785068 
L 121.199365 121.139323 
L 123.656234 118.295788 
L 126.03385 118.347996 
L 128.49072 115.685238 
L 130.868336 115.482962 
L 133.325205 114.542053 
L 135.782075 114.949405 
L 138.001183 115.141642 
L 140.458052 117.8777 
L 145.292538 119.03305 
L 147.670154 119.410878 
L 150.127023 119.155161 
L 152.583893 119.040842 
L 154.961509 122.4172 
L 157.418378 121.81085 
L 159.795994 120.82924 
L 162.252864 117.926329 
L 164.709733 117.094346 
L 166.928841 117.361024 
L 169.385711 118.9587 
L 174.220196 120.381815 
L 176.597812 118.576677 
L 179.054682 117.861187 
L 181.511551 116.217415 
L 183.889167 116.533882 
L 186.346037 121.940035 
L 188.723652 126.097274 
L 191.180522 121.143913 
L 193.637392 119.087165 
L 195.935753 119.394541 
L 198.392623 122.835626 
L 200.770239 123.116245 
L 205.604724 124.385056 
L 208.061594 127.854386 
L 210.518463 126.106708 
L 215.352949 127.620472 
L 217.730565 129.021745 
L 220.187434 129.828969 
L 222.644304 124.508074 
L 224.863412 131.179269 
L 227.320281 130.19066 
L 229.697897 128.829138 
L 232.154767 127.245719 
L 234.532383 126.295358 
L 236.989252 126.077146 
L 239.446122 123.038757 
L 241.823738 124.151163 
L 244.280607 126.145899 
L 246.658223 126.500661 
L 249.115093 125.120765 
L 251.571962 125.517218 
L 253.79107 125.474282 
L 256.24794 131.109151 
L 258.625556 131.751268 
L 261.082425 130.356125 
L 263.460041 137.009019 
L 265.916911 138.581225 
L 268.37378 139.214682 
L 270.751396 134.213233 
L 273.208266 163.474892 
L 275.585881 162.394197 
L 278.042751 164.248682 
L 280.499621 163.490121 
L 282.718729 163.010485 
L 285.175598 160.697451 
L 287.553214 149.380844 
L 292.387699 152.571806 
L 294.844569 152.926993 
L 297.301439 152.230286 
L 299.679054 153.535207 
L 302.135924 157.020202 
L 304.51354 157.255483 
L 306.970409 157.250455 
L 309.427279 159.890473 
L 311.725641 158.93018 
L 314.18251 156.159153 
L 316.560126 156.930831 
L 319.016996 159.138391 
L 321.394612 156.593033 
L 326.308351 157.864749 
L 328.685966 157.452591 
L 331.142836 156.809785 
L 333.520452 156.555976 
L 335.977321 157.556052 
L 338.434191 157.905457 
L 340.653299 158.874236 
L 343.110169 157.52017 
L 345.487785 158.209578 
L 347.944654 157.50606 
L 350.32227 158.253611 
L 352.779139 158.163497 
L 355.236009 157.747612 
L 357.613625 157.981488 
L 360.070494 156.941396 
L 362.44811 158.933642 
L 364.90498 157.667403 
L 367.361849 154.809832 
L 369.580958 155.775228 
L 372.037827 155.91475 
L 374.415443 157.294795 
L 376.872312 159.256233 
L 381.706798 158.639009 
L 384.163667 159.217581 
L 386.541283 154.07398 
L 388.998153 153.490727 
L 391.375769 155.506979 
L 393.832638 152.005308 
L 396.289508 153.312908 
L 398.508616 152.429386 
L 400.965485 151.945703 
L 403.343101 150.895112 
L 405.799971 151.177107 
L 408.177587 151.015298 
L 410.634456 151.264104 
L 413.091326 151.276773 
L 415.468942 152.291567 
L 417.925811 138.477791 
L 420.303427 138.605242 
L 422.760297 136.462825 
L 425.217166 135.3873 
L 427.515528 136.245753 
L 429.972398 136.459506 
L 432.350013 140.431366 
L 434.806883 137.907904 
L 437.184499 134.986423 
L 439.641368 134.351316 
L 442.098238 135.572028 
L 446.932723 134.625702 
L 449.310339 134.449176 
L 451.767209 129.893497 
L 454.224078 128.604108 
L 456.443186 129.224622 
L 458.900056 130.753565 
L 461.277672 126.49384 
L 463.734541 126.085506 
L 466.112157 125.497723 
L 468.569027 128.331875 
L 471.025896 120.104905 
L 473.403512 114.446014 
L 475.860382 110.675369 
L 478.237998 109.907777 
L 480.694867 111.019348 
L 483.151737 109.904698 
L 485.370845 101.267308 
L 487.827714 102.189634 
L 490.20533 102.531036 
L 495.039816 104.792017 
L 497.496685 105.250729 
L 499.953555 104.893148 
L 502.331171 107.218535 
L 504.78804 106.619678 
L 507.165656 104.785551 
L 509.622526 104.438949 
L 512.079395 107.046187 
L 514.298503 107.174834 
L 516.755373 113.286914 
L 519.132989 110.763598 
L 521.589858 110.459982 
L 523.967474 106.878156 
L 526.424344 105.882159 
L 528.881213 107.460466 
L 533.715699 113.889689 
L 536.093314 106.689671 
L 538.550184 112.138323 
L 541.007054 116.628687 
L 543.305415 119.08902 
L 545.762285 121.161484 
L 548.139901 119.738736 
L 550.59677 116.277943 
L 552.974386 123.101447 
L 557.888125 122.901854 
L 560.265741 136.555214 
L 562.722611 136.509078 
L 565.100227 144.656853 
L 567.557096 140.171388 
L 570.013966 136.454927 
L 572.233074 137.318099 
L 574.689943 137.149139 
L 577.067559 140.393878 
L 579.524429 140.390255 
L 581.902045 142.301795 
L 584.358914 143.174406 
L 586.815784 146.050134 
L 589.1934 147.122985 
L 591.650269 145.159898 
L 594.027885 145.991749 
L 596.484754 145.731992 
L 598.941624 142.836574 
L 601.160732 142.52638 
L 603.617602 139.619922 
L 605.995218 139.609087 
L 608.452087 140.623071 
L 610.829703 140.84337 
L 613.286573 142.415841 
L 615.743442 142.810332 
L 618.121058 148.635524 
L 620.577927 146.873248 
L 622.955543 145.394569 
L 625.412413 146.061774 
L 627.869282 145.717902 
L 630.088391 150.062763 
L 632.54526 150.501982 
L 637.379745 149.999982 
L 639.757361 150.071823 
L 642.214231 149.584384 
L 644.6711 149.267506 
L 647.048716 148.112106 
L 649.505586 149.285553 
L 651.883202 146.550758 
L 654.340071 150.827758 
L 656.796941 151.333134 
L 659.095303 151.176792 
L 661.552172 148.752773 
L 663.929788 149.093807 
L 666.386658 146.219613 
L 668.764273 146.126432 
L 671.221143 144.72677 
L 673.678013 143.469001 
L 676.055628 145.664629 
L 678.512498 144.254826 
L 680.890114 146.565232 
L 683.346983 147.617152 
L 685.803853 147.704822 
L 688.022961 147.017214 
L 690.479831 152.88834 
L 692.857446 152.83307 
L 695.314316 161.37128 
L 697.691932 160.801168 
L 700.148801 162.937744 
L 702.605671 157.405997 
L 704.983287 145.76971 
L 707.440156 145.006851 
L 709.817772 129.907623 
L 712.274642 123.677531 
L 714.731511 124.533607 
L 716.950619 124.928199 
L 719.407489 120.137996 
L 721.785105 114.177173 
L 724.241974 118.615144 
L 726.61959 118.696615 
L 729.07646 113.096443 
L 731.533329 110.756485 
L 733.910945 112.798479 
L 736.367815 109.479624 
L 738.745431 110.613948 
L 741.2023 110.199306 
L 743.65917 116.907807 
L 745.878278 116.135388 
L 748.335147 122.0691 
L 750.712763 121.675396 
L 753.169633 122.966501 
L 755.547249 123.136221 
L 758.004118 120.60016 
L 760.460988 122.623744 
L 762.838604 118.139005 
L 765.295473 124.310504 
L 767.673089 128.32592 
L 770.129959 132.093437 
L 772.586828 133.261251 
L 774.88519 128.741521 
L 777.34206 128.556482 
L 779.719675 127.308965 
L 782.176545 128.60374 
L 784.554161 127.818744 
L 789.4679 128.214442 
L 791.845516 124.048754 
L 794.302385 120.989912 
L 796.680001 122.348569 
L 799.136871 117.157735 
L 801.59374 116.330815 
L 803.812848 115.114341 
L 806.269718 117.225661 
L 808.647334 117.836702 
L 811.104203 120.725883 
L 813.481819 119.695038 
L 815.938689 121.053419 
L 818.395558 117.187534 
L 820.773174 115.865965 
L 823.230044 117.278115 
L 825.60766 115.636491 
L 828.064529 112.085557 
L 830.521399 112.52719 
L 832.740507 113.160631 
L 835.197376 108.815551 
L 837.574992 116.530819 
L 840.031862 114.330192 
L 842.409478 114.439374 
L 844.866347 109.977878 
L 847.323217 115.056777 
L 849.700833 118.876272 
L 852.157702 114.239113 
L 854.535318 114.437804 
L 856.992188 103.624153 
L 856.992188 103.624153 
" clip-path="url(#p15ac20108d)" style="fill: none; stroke: #d55e00; stroke-width: 2; stroke-linecap: square"/>
   </g>
   <g id="line2d_25">
    <path d="M 19.992188 96.107024 
L 22.211296 93.97553 
L 24.668165 98.871588 
L 27.045781 97.684713 
L 29.502651 95.35258 
L 31.880266 94.650073 
L 34.337136 96.872745 
L 36.794006 96.09618 
L 39.171621 98.416635 
L 41.628491 112.609937 
L 44.006107 118.282246 
L 46.462976 116.134986 
L 48.919846 118.424577 
L 51.138954 116.813391 
L 53.595824 117.936126 
L 55.973439 122.515242 
L 58.430309 125.729267 
L 60.807925 120.127869 
L 63.264794 124.743341 
L 65.721664 123.646816 
L 68.09928 126.86585 
L 70.556149 121.372658 
L 72.933765 122.418619 
L 75.390635 118.898323 
L 77.847504 120.762505 
L 80.145866 119.572325 
L 82.602736 120.495257 
L 87.437221 113.468207 
L 89.814837 114.691576 
L 92.271706 113.502839 
L 94.728576 119.050571 
L 97.106192 117.601634 
L 99.563061 117.335798 
L 101.940677 116.532797 
L 104.397547 131.579314 
L 106.854416 132.556533 
L 109.073524 133.14088 
L 111.530394 130.516084 
L 113.90801 132.203041 
L 116.364879 132.42152 
L 118.742495 131.290028 
L 121.199365 133.719267 
L 123.656234 135.157893 
L 126.03385 134.921806 
L 128.49072 137.092205 
L 130.868336 138.045774 
L 133.325205 140.971256 
L 135.782075 142.571059 
L 138.001183 143.379846 
L 140.458052 138.775451 
L 142.835668 139.381749 
L 145.292538 138.663223 
L 147.670154 138.966327 
L 150.127023 138.174613 
L 152.583893 138.718974 
L 154.961509 139.034642 
L 157.418378 139.155328 
L 159.795994 143.494355 
L 162.252864 147.612565 
L 164.709733 149.386721 
L 166.928841 149.195641 
L 169.385711 148.41388 
L 171.763327 149.35314 
L 174.220196 149.744136 
L 176.597812 149.385595 
L 179.054682 148.356576 
L 181.511551 148.45514 
L 183.889167 148.398673 
L 186.346037 143.36076 
L 188.723652 141.827967 
L 191.180522 148.5368 
L 193.637392 149.326515 
L 195.935753 149.328026 
L 198.392623 149.01213 
L 200.770239 150.689584 
L 203.227108 151.009162 
L 205.604724 150.487709 
L 208.061594 146.669252 
L 210.518463 148.052656 
L 212.896079 148.263105 
L 220.187434 148.084677 
L 222.644304 152.073876 
L 224.863412 150.021725 
L 227.320281 150.25109 
L 229.697897 151.081803 
L 232.154767 153.512316 
L 234.532383 153.140028 
L 236.989252 155.059056 
L 239.446122 154.628582 
L 241.823738 156.747 
L 244.280607 154.816957 
L 246.658223 155.323766 
L 249.115093 157.23011 
L 251.571962 156.669389 
L 253.79107 156.657617 
L 256.24794 154.20175 
L 258.625556 153.218244 
L 261.082425 155.395772 
L 263.460041 156.522437 
L 265.916911 154.877956 
L 268.37378 158.181875 
L 270.751396 163.459522 
L 273.208266 147.51935 
L 275.585881 148.431341 
L 278.042751 147.421794 
L 280.499621 146.208834 
L 282.718729 146.607694 
L 285.175598 145.790271 
L 287.553214 139.598601 
L 290.010084 139.680084 
L 292.387699 140.504654 
L 294.844569 139.879636 
L 297.301439 134.311471 
L 299.679054 135.072356 
L 302.135924 134.852242 
L 304.51354 133.2314 
L 306.970409 133.173649 
L 309.427279 130.791686 
L 311.725641 130.619921 
L 314.18251 137.944619 
L 316.560126 137.552152 
L 319.016996 140.360599 
L 321.394612 140.05287 
L 323.851481 133.016277 
L 326.308351 132.407596 
L 328.685966 133.243154 
L 331.142836 133.17409 
L 335.977321 131.725747 
L 338.434191 131.642122 
L 343.110169 133.851067 
L 345.487785 134.078256 
L 347.944654 134.155426 
L 350.32227 133.600087 
L 355.236009 134.605029 
L 357.613625 133.138971 
L 360.070494 137.554717 
L 362.44811 136.172155 
L 364.90498 138.053288 
L 367.361849 141.429317 
L 369.580958 141.364594 
L 372.037827 139.371408 
L 374.415443 137.285684 
L 376.872312 135.492962 
L 379.249928 137.368572 
L 381.706798 137.702047 
L 384.163667 140.65168 
L 386.541283 144.912404 
L 388.998153 144.558241 
L 391.375769 143.829695 
L 393.832638 144.707296 
L 396.289508 144.758866 
L 398.508616 145.031402 
L 400.965485 146.104253 
L 403.343101 146.789698 
L 405.799971 145.968572 
L 410.634456 147.959106 
L 413.091326 147.95676 
L 415.468942 147.127659 
L 417.925811 151.873605 
L 420.303427 151.694302 
L 422.760297 153.123184 
L 425.217166 153.660229 
L 427.515528 153.743543 
L 429.972398 154.417257 
L 432.350013 153.9537 
L 434.806883 155.254924 
L 437.184499 155.3677 
L 439.641368 156.527196 
L 442.098238 157.85909 
L 444.475854 158.052344 
L 446.932723 158.423482 
L 449.310339 158.185141 
L 451.767209 159.653997 
L 454.224078 159.875908 
L 456.443186 159.822868 
L 458.900056 158.67996 
L 461.277672 159.41461 
L 463.734541 157.176872 
L 466.112157 157.295728 
L 468.569027 158.241715 
L 471.025896 158.973808 
L 473.403512 158.985403 
L 475.860382 158.289705 
L 478.237998 158.461815 
L 480.694867 158.178665 
L 483.151737 159.195798 
L 485.370845 157.739301 
L 487.827714 157.1577 
L 492.6622 157.266483 
L 495.039816 158.532376 
L 499.953555 157.845081 
L 502.331171 158.092208 
L 504.78804 157.639671 
L 507.165656 158.578679 
L 509.622526 158.743761 
L 512.079395 156.514249 
L 514.298503 156.749611 
L 516.755373 155.724419 
L 519.132989 158.467345 
L 521.589858 158.721562 
L 523.967474 161.282957 
L 526.424344 161.053141 
L 528.881213 161.008958 
L 531.258829 158.674841 
L 536.093314 162.397181 
L 538.550184 159.329453 
L 541.007054 160.847269 
L 543.305415 157.254941 
L 545.762285 151.90277 
L 548.139901 153.990201 
L 550.59677 153.283807 
L 552.974386 145.941537 
L 555.431256 146.230332 
L 557.888125 155.662418 
L 560.265741 141.775118 
L 562.722611 140.080437 
L 565.100227 127.935989 
L 567.557096 144.055438 
L 570.013966 147.106079 
L 572.233074 146.239017 
L 574.689943 151.581506 
L 577.067559 154.196143 
L 579.524429 156.395788 
L 581.902045 155.93054 
L 584.358914 156.048335 
L 586.815784 156.669502 
L 589.1934 150.509334 
L 591.650269 148.876988 
L 594.027885 149.788649 
L 596.484754 151.620331 
L 598.941624 149.451527 
L 603.617602 152.015636 
L 605.995218 151.489601 
L 608.452087 151.135441 
L 610.829703 150.453866 
L 613.286573 147.98058 
L 615.743442 147.113507 
L 618.121058 145.937541 
L 620.577927 145.825779 
L 622.955543 143.636788 
L 625.412413 142.379615 
L 627.869282 142.40749 
L 630.088391 142.891249 
L 632.54526 142.979651 
L 634.922876 142.880869 
L 637.379745 143.483495 
L 639.757361 143.609376 
L 644.6711 143.250022 
L 647.048716 143.198088 
L 649.505586 143.944022 
L 651.883202 144.247862 
L 654.340071 145.43106 
L 656.796941 144.9949 
L 659.095303 145.062253 
L 661.552172 145.564899 
L 666.386658 147.632224 
L 668.764273 147.688965 
L 671.221143 147.411068 
L 673.678013 148.183752 
L 676.055628 148.298435 
L 678.512498 147.864873 
L 680.890114 146.042242 
L 683.346983 145.949387 
L 685.803853 145.546658 
L 688.022961 144.706174 
L 690.479831 144.993779 
L 692.857446 144.904802 
L 695.314316 145.255654 
L 700.148801 144.806644 
L 702.605671 144.430464 
L 704.983287 146.865704 
L 707.440156 145.757229 
L 709.817772 154.702145 
L 712.274642 151.873501 
L 714.731511 151.60008 
L 716.950619 150.862136 
L 719.407489 152.908501 
L 724.241974 143.26375 
L 726.61959 142.738579 
L 729.07646 140.15116 
L 731.533329 140.465691 
L 733.910945 141.029603 
L 736.367815 142.552236 
L 738.745431 142.393577 
L 741.2023 143.624493 
L 743.65917 144.105334 
L 745.878278 141.869373 
L 748.335147 140.744188 
L 750.712763 140.914845 
L 753.169633 141.526103 
L 755.547249 137.23009 
L 758.004118 143.361531 
L 760.460988 145.925787 
L 765.295473 153.161818 
L 767.673089 158.291292 
L 770.129959 159.929829 
L 772.586828 157.948325 
L 774.88519 156.377604 
L 777.34206 157.942076 
L 779.719675 158.583423 
L 782.176545 157.094571 
L 784.554161 156.387781 
L 787.01103 156.606875 
L 789.4679 156.978819 
L 794.302385 154.154426 
L 796.680001 154.289548 
L 799.136871 151.149409 
L 801.59374 152.04917 
L 803.812848 152.290275 
L 806.269718 151.226714 
L 808.647334 150.566178 
L 811.104203 150.014043 
L 813.481819 150.950897 
L 815.938689 147.305944 
L 818.395558 146.15272 
L 820.773174 146.887686 
L 823.230044 146.305318 
L 825.60766 146.287502 
L 828.064529 149.194924 
L 830.521399 148.978451 
L 832.740507 149.662793 
L 835.197376 150.075425 
L 837.574992 150.090223 
L 840.031862 152.084876 
L 842.409478 151.673782 
L 844.866347 153.369062 
L 847.323217 151.378198 
L 849.700833 151.419297 
L 852.157702 151.108867 
L 854.535318 152.001635 
L 856.992188 153.194378 
L 856.992188 153.194378 
" clip-path="url(#p15ac20108d)" style="fill: none; stroke-dasharray: 7.4,3.2; stroke-dashoffset: 0; stroke: #cc79a7; stroke-width: 2"/>
   </g>
   <g id="patch_3">
    <path d="M 19.992188 238.70175 
L 19.992188 16.94175 
" style="fill: none; stroke: #000000; stroke-width: 0.8; stroke-linejoin: miter; stroke-linecap: square"/>
   </g>
   <g id="patch_4">
    <path d="M 19.992188 238.70175 
L 856.992188 238.70175 
" style="fill: none; stroke: #000000; stroke-width: 0.8; stroke-linejoin: miter; stroke-linecap: square"/>
   </g>
   <g id="text_14">
    <!-- 6_Portfolios_2x3 - Portfolio Allocation for GMVP -->
    <g transform="translate(269.817563 10.94175) scale(0.144 -0.144)">
     <defs>
      <path id="DejaVuSans-5f" d="M 3263 -1063 
L 3263 -1509 
L -63 -1509 
L -63 -1063 
L 3263 -1063 
z
" transform="scale(0.015625)"/>
      <path id="DejaVuSans-50" d="M 1259 4147 
L 1259 2394 
L 2053 2394 
Q 2494 2394 2734 2622 
Q 2975 2850 2975 3272 
Q 2975 3691 2734 3919 
Q 2494 4147 2053 4147 
L 1259 4147 
z
M 628 4666 
L 2053 4666 
Q 2838 4666 3239 4311 
Q 3641 3956 3641 3272 
Q 3641 2581 3239 2228 
Q 2838 1875 2053 1875 
L 1259 1875 
L 1259 0 
L 628 0 
L 628 4666 
z
" transform="scale(0.015625)"/>
      <path id="DejaVuSans-6f" d="M 1959 3097 
Q 1497 3097 1228 2736 
Q 959 2375 959 1747 
Q 959 1119 1226 758 
Q 1494 397 1959 397 
Q 2419 397 2687 759 
Q 2956 1122 2956 1747 
Q 2956 2369 2687 2733 
Q 2419 3097 1959 3097 
z
M 1959 3584 
Q 2709 3584 3137 3096 
Q 3566 2609 3566 1747 
Q 3566 888 3137 398 
Q 2709 -91 1959 -91 
Q 1206 -91 779 398 
Q 353 888 353 1747 
Q 353 2609 779 3096 
Q 1206 3584 1959 3584 
z
" transform="scale(0.015625)"/>
      <path id="DejaVuSans-72" d="M 2631 2963 
Q 2534 3019 2420 3045 
Q 2306 3072 2169 3072 
Q 1681 3072 1420 2755 
Q 1159 2438 1159 1844 
L 1159 0 
L 581 0 
L 581 3500 
L 1159 3500 
L 1159 2956 
Q 1341 3275 1631 3429 
Q 1922 3584 2338 3584 
Q 2397 3584 2469 3576 
Q 2541 3569 2628 3553 
L 2631 2963 
z
" transform="scale(0.015625)"/>
      <path id="DejaVuSans-74" d="M 1172 4494 
L 1172 3500 
L 2356 3500 
L 2356 3053 
L 1172 3053 
L 1172 1153 
Q 1172 725 1289 603 
Q 1406 481 1766 481 
L 2356 481 
L 2356 0 
L 1766 0 
Q 1100 0 847 248 
Q 594 497 594 1153 
L 594 3053 
L 172 3053 
L 172 3500 
L 594 3500 
L 594 4494 
L 1172 4494 
z
" transform="scale(0.015625)"/>
      <path id="DejaVuSans-66" d="M 2375 4863 
L 2375 4384 
L 1825 4384 
Q 1516 4384 1395 4259 
Q 1275 4134 1275 3809 
L 1275 3500 
L 2222 3500 
L 2222 3053 
L 1275 3053 
L 1275 0 
L 697 0 
L 697 3053 
L 147 3053 
L 147 3500 
L 697 3500 
L 697 3744 
Q 697 4328 969 4595 
Q 1241 4863 1831 4863 
L 2375 4863 
z
" transform="scale(0.015625)"/>
      <path id="DejaVuSans-6c" d="M 603 4863 
L 1178 4863 
L 1178 0 
L 603 0 
L 603 4863 
z
" transform="scale(0.015625)"/>
      <path id="DejaVuSans-69" d="M 603 3500 
L 1178 3500 
L 1178 0 
L 603 0 
L 603 3500 
z
M 603 4863 
L 1178 4863 
L 1178 4134 
L 603 4134 
L 603 4863 
z
" transform="scale(0.015625)"/>
      <path id="DejaVuSans-73" d="M 2834 3397 
L 2834 2853 
Q 2591 2978 2328 3040 
Q 2066 3103 1784 3103 
Q 1356 3103 1142 2972 
Q 928 2841 928 2578 
Q 928 2378 1081 2264 
Q 1234 2150 1697 2047 
L 1894 2003 
Q 2506 1872 2764 1633 
Q 3022 1394 3022 966 
Q 3022 478 2636 193 
Q 2250 -91 1575 -91 
Q 1294 -91 989 -36 
Q 684 19 347 128 
L 347 722 
Q 666 556 975 473 
Q 1284 391 1588 391 
Q 1994 391 2212 530 
Q 2431 669 2431 922 
Q 2431 1156 2273 1281 
Q 2116 1406 1581 1522 
L 1381 1569 
Q 847 1681 609 1914 
Q 372 2147 372 2553 
Q 372 3047 722 3315 
Q 1072 3584 1716 3584 
Q 2034 3584 2315 3537 
Q 2597 3491 2834 3397 
z
" transform="scale(0.015625)"/>
      <path id="DejaVuSans-78" d="M 3513 3500 
L 2247 1797 
L 3578 0 
L 2900 0 
L 1881 1375 
L 863 0 
L 184 0 
L 1544 1831 
L 300 3500 
L 978 3500 
L 1906 2253 
L 2834 3500 
L 3513 3500 
z
" transform="scale(0.015625)"/>
      <path id="DejaVuSans-20" transform="scale(0.015625)"/>
      <path id="DejaVuSans-2d" d="M 313 2009 
L 1997 2009 
L 1997 1497 
L 313 1497 
L 313 2009 
z
" transform="scale(0.015625)"/>
      <path id="DejaVuSans-41" d="M 2188 4044 
L 1331 1722 
L 3047 1722 
L 2188 4044 
z
M 1831 4666 
L 2547 4666 
L 4325 0 
L 3669 0 
L 3244 1197 
L 1141 1197 
L 716 0 
L 50 0 
L 1831 4666 
z
" transform="scale(0.015625)"/>
      <path id="DejaVuSans-63" d="M 3122 3366 
L 3122 2828 
Q 2878 2963 2633 3030 
Q 2388 3097 2138 3097 
Q 1578 3097 1268 2742 
Q 959 2388 959 1747 
Q 959 1106 1268 751 
Q 1578 397 2138 397 
Q 2388 397 2633 464 
Q 2878 531 3122 666 
L 3122 134 
Q 2881 22 2623 -34 
Q 2366 -91 2075 -91 
Q 1284 -91 818 406 
Q 353 903 353 1747 
Q 353 2603 823 3093 
Q 1294 3584 2113 3584 
Q 2378 3584 2631 3529 
Q 2884 3475 3122 3366 
z
" transform="scale(0.015625)"/>
      <path id="DejaVuSans-61" d="M 2194 1759 
Q 1497 1759 1228 1600 
Q 959 1441 959 1056 
Q 959 750 1161 570 
Q 1363 391 1709 391 
Q 2188 391 2477 730 
Q 2766 1069 2766 1631 
L 2766 1759 
L 2194 1759 
z
M 3341 1997 
L 3341 0 
L 2766 0 
L 2766 531 
Q 2569 213 2275 61 
Q 1981 -91 1556 -91 
Q 1019 -91 701 211 
Q 384 513 384 1019 
Q 384 1609 779 1909 
Q 1175 2209 1959 2209 
L 2766 2209 
L 2766 2266 
Q 2766 2663 2505 2880 
Q 2244 3097 1772 3097 
Q 1472 3097 1187 3025 
Q 903 2953 641 2809 
L 641 3341 
Q 956 3463 1253 3523 
Q 1550 3584 1831 3584 
Q 2591 3584 2966 3190 
Q 3341 2797 3341 1997 
z
" transform="scale(0.015625)"/>
      <path id="DejaVuSans-6e" d="M 3513 2113 
L 3513 0 
L 2938 0 
L 2938 2094 
Q 2938 2591 2744 2837 
Q 2550 3084 2163 3084 
Q 1697 3084 1428 2787 
Q 1159 2491 1159 1978 
L 1159 0 
L 581 0 
L 581 3500 
L 1159 3500 
L 1159 2956 
Q 1366 3272 1645 3428 
Q 1925 3584 2291 3584 
Q 2894 3584 3203 3211 
Q 3513 2838 3513 2113 
z
" transform="scale(0.015625)"/>
      <path id="DejaVuSans-47" d="M 3809 666 
L 3809 1919 
L 2778 1919 
L 2778 2438 
L 4434 2438 
L 4434 434 
Q 4069 175 3628 42 
Q 3188 -91 2688 -91 
Q 1594 -91 976 548 
Q 359 1188 359 2328 
Q 359 3472 976 4111 
Q 1594 4750 2688 4750 
Q 3144 4750 3555 4637 
Q 3966 4525 4313 4306 
L 4313 3634 
Q 3963 3931 3569 4081 
Q 3175 4231 2741 4231 
Q 1884 4231 1454 3753 
Q 1025 3275 1025 2328 
Q 1025 1384 1454 906 
Q 1884 428 2741 428 
Q 3075 428 3337 486 
Q 3600 544 3809 666 
z
" transform="scale(0.015625)"/>
      <path id="DejaVuSans-4d" d="M 628 4666 
L 1569 4666 
L 2759 1491 
L 3956 4666 
L 4897 4666 
L 4897 0 
L 4281 0 
L 4281 4097 
L 3078 897 
L 2444 897 
L 1241 4097 
L 1241 0 
L 628 0 
L 628 4666 
z
" transform="scale(0.015625)"/>
      <path id="DejaVuSans-56" d="M 1831 0 
L 50 4666 
L 709 4666 
L 2188 738 
L 3669 4666 
L 4325 4666 
L 2547 0 
L 1831 0 
z
" transform="scale(0.015625)"/>
     </defs>
     <use xlink:href="#DejaVuSans-36"/>
     <use xlink:href="#DejaVuSans-5f" x="63.623047"/>
     <use xlink:href="#DejaVuSans-50" x="113.623047"/>
     <use xlink:href="#DejaVuSans-6f" x="170.300781"/>
     <use xlink:href="#DejaVuSans-72" x="231.482422"/>
     <use xlink:href="#DejaVuSans-74" x="272.595703"/>
     <use xlink:href="#DejaVuSans-66" x="311.804688"/>
     <use xlink:href="#DejaVuSans-6f" x="347.009766"/>
     <use xlink:href="#DejaVuSans-6c" x="408.191406"/>
     <use xlink:href="#DejaVuSans-69" x="435.974609"/>
     <use xlink:href="#DejaVuSans-6f" x="463.757812"/>
     <use xlink:href="#DejaVuSans-73" x="524.939453"/>
     <use xlink:href="#DejaVuSans-5f" x="577.039062"/>
     <use xlink:href="#DejaVuSans-32" x="627.039062"/>
     <use xlink:href="#DejaVuSans-78" x="690.662109"/>
     <use xlink:href="#DejaVuSans-33" x="749.841797"/>
     <use xlink:href="#DejaVuSans-20" x="813.464844"/>
     <use xlink:href="#DejaVuSans-2d" x="845.251953"/>
     <use xlink:href="#DejaVuSans-20" x="881.335938"/>
     <use xlink:href="#DejaVuSans-50" x="913.123047"/>
     <use xlink:href="#DejaVuSans-6f" x="969.800781"/>
     <use xlink:href="#DejaVuSans-72" x="1030.982422"/>
     <use xlink:href="#DejaVuSans-74" x="1072.095703"/>
     <use xlink:href="#DejaVuSans-66" x="1111.304688"/>
     <use xlink:href="#DejaVuSans-6f" x="1146.509766"/>
     <use xlink:href="#DejaVuSans-6c" x="1207.691406"/>
     <use xlink:href="#DejaVuSans-69" x="1235.474609"/>
     <use xlink:href="#DejaVuSans-6f" x="1263.257812"/>
     <use xlink:href="#DejaVuSans-20" x="1324.439453"/>
     <use xlink:href="#DejaVuSans-41" x="1356.226562"/>
     <use xlink:href="#DejaVuSans-6c" x="1424.634766"/>
     <use xlink:href="#DejaVuSans-6c" x="1452.417969"/>
     <use xlink:href="#DejaVuSans-6f" x="1480.201172"/>
     <use xlink:href="#DejaVuSans-63" x="1541.382812"/>
     <use xlink:href="#DejaVuSans-61" x="1596.363281"/>
     <use xlink:href="#DejaVuSans-74" x="1657.642578"/>
     <use xlink:href="#DejaVuSans-69" x="1696.851562"/>
     <use xlink:href="#DejaVuSans-6f" x="1724.634766"/>
     <use xlink:href="#DejaVuSans-6e" x="1785.816406"/>
     <use xlink:href="#DejaVuSans-20" x="1849.195312"/>
     <use xlink:href="#DejaVuSans-66" x="1880.982422"/>
     <use xlink:href="#DejaVuSans-6f" x="1916.1875"/>
     <use xlink:href="#DejaVuSans-72" x="1977.369141"/>
     <use xlink:href="#DejaVuSans-20" x="2018.482422"/>
     <use xlink:href="#DejaVuSans-47" x="2050.269531"/>
     <use xlink:href="#DejaVuSans-4d" x="2127.759766"/>
     <use xlink:href="#DejaVuSans-56" x="2214.039062"/>
     <use xlink:href="#DejaVuSans-50" x="2282.447266"/>
    </g>
   </g>
  </g>
 </g>
 <defs>
  <clipPath id="p15ac20108d">
   <rect x="19.992188" y="16.94175" width="837" height="221.76"/>
  </clipPath>
 </defs>
</svg>
