<?xml version="1.0" encoding="utf-8" standalone="no"?>
<!DOCTYPE svg PUBLIC "-//W3C//DTD SVG 1.1//EN"
  "http://www.w3.org/Graphics/SVG/1.1/DTD/svg11.dtd">
<svg xmlns:xlink="http://www.w3.org/1999/xlink" width="867.7pt" height="253.629875pt" viewBox="0 0 867.7 253.629875" xmlns="http://www.w3.org/2000/svg" version="1.1">
 <metadata>
  <rdf:RDF xmlns:dc="http://purl.org/dc/elements/1.1/" xmlns:cc="http://creativecommons.org/ns#" xmlns:rdf="http://www.w3.org/1999/02/22-rdf-syntax-ns#">
   <cc:Work>
    <dc:type rdf:resource="http://purl.org/dc/dcmitype/StillImage"/>
    <dc:date>2025-08-06T21:49:51.630337</dc:date>
    <dc:format>image/svg+xml</dc:format>
    <dc:creator>
     <cc:Agent>
      <dc:title>Matplotlib v3.9.2, https://matplotlib.org/</dc:title>
     </cc:Agent>
    </dc:creator>
   </cc:Work>
  </rdf:RDF>
 </metadata>
 <defs>
  <style type="text/css">*{stroke-linejoin: round; stroke-linecap: butt}</style>
 </defs>
 <g id="figure_1">
  <g id="patch_1">
   <path d="M 0 253.629875 
L 867.7 253.629875 
L 867.7 0 
L 0 0 
z
" style="fill: #ffffff"/>
  </g>
  <g id="axes_1">
   <g id="patch_2">
    <path d="M 30.7 238.70175 
L 867.7 238.70175 
L 867.7 16.94175 
L 30.7 16.94175 
z
" style="fill: #ffffff"/>
   </g>
   <g id="matplotlib.axis_1">
    <g id="xtick_1">
     <g id="line2d_1">
      <defs>
       <path id="m37111f5d29" d="M 0 1.75 
L 0 -1.75 
" style="stroke: #000000; stroke-width: 0.8"/>
      </defs>
      <g>
       <use xlink:href="#m37111f5d29" x="86.177701" y="238.70175" style="stroke: #000000; stroke-width: 0.8"/>
      </g>
     </g>
     <g id="text_1">
      <!-- 1992 -->
      <g transform="translate(73.452701 251.550188) scale(0.1 -0.1)">
       <defs>
        <path id="DejaVuSans-31" d="M 794 531 
L 1825 531 
L 1825 4091 
L 703 3866 
L 703 4441 
L 1819 4666 
L 2450 4666 
L 2450 531 
L 3481 531 
L 3481 0 
L 794 0 
L 794 531 
z
" transform="scale(0.015625)"/>
        <path id="DejaVuSans-39" d="M 703 97 
L 703 672 
Q 941 559 1184 500 
Q 1428 441 1663 441 
Q 2288 441 2617 861 
Q 2947 1281 2994 2138 
Q 2813 1869 2534 1725 
Q 2256 1581 1919 1581 
Q 1219 1581 811 2004 
Q 403 2428 403 3163 
Q 403 3881 828 4315 
Q 1253 4750 1959 4750 
Q 2769 4750 3195 4129 
Q 3622 3509 3622 2328 
Q 3622 1225 3098 567 
Q 2575 -91 1691 -91 
Q 1453 -91 1209 -44 
Q 966 3 703 97 
z
M 1959 2075 
Q 2384 2075 2632 2365 
Q 2881 2656 2881 3163 
Q 2881 3666 2632 3958 
Q 2384 4250 1959 4250 
Q 1534 4250 1286 3958 
Q 1038 3666 1038 3163 
Q 1038 2656 1286 2365 
Q 1534 2075 1959 2075 
z
" transform="scale(0.015625)"/>
        <path id="DejaVuSans-32" d="M 1228 531 
L 3431 531 
L 3431 0 
L 469 0 
L 469 531 
Q 828 903 1448 1529 
Q 2069 2156 2228 2338 
Q 2531 2678 2651 2914 
Q 2772 3150 2772 3378 
Q 2772 3750 2511 3984 
Q 2250 4219 1831 4219 
Q 1534 4219 1204 4116 
Q 875 4013 500 3803 
L 500 4441 
Q 881 4594 1212 4672 
Q 1544 4750 1819 4750 
Q 2544 4750 2975 4387 
Q 3406 4025 3406 3419 
Q 3406 3131 3298 2873 
Q 3191 2616 2906 2266 
Q 2828 2175 2409 1742 
Q 1991 1309 1228 531 
z
" transform="scale(0.015625)"/>
       </defs>
       <use xlink:href="#DejaVuSans-31"/>
       <use xlink:href="#DejaVuSans-39" x="63.623047"/>
       <use xlink:href="#DejaVuSans-39" x="127.246094"/>
       <use xlink:href="#DejaVuSans-32" x="190.869141"/>
      </g>
     </g>
    </g>
    <g id="xtick_2">
     <g id="line2d_2">
      <g>
       <use xlink:href="#m37111f5d29" x="201.967588" y="238.70175" style="stroke: #000000; stroke-width: 0.8"/>
      </g>
     </g>
     <g id="text_2">
      <!-- 1996 -->
      <g transform="translate(189.242588 251.550188) scale(0.1 -0.1)">
       <defs>
        <path id="DejaVuSans-36" d="M 2113 2584 
Q 1688 2584 1439 2293 
Q 1191 2003 1191 1497 
Q 1191 994 1439 701 
Q 1688 409 2113 409 
Q 2538 409 2786 701 
Q 3034 994 3034 1497 
Q 3034 2003 2786 2293 
Q 2538 2584 2113 2584 
z
M 3366 4563 
L 3366 3988 
Q 3128 4100 2886 4159 
Q 2644 4219 2406 4219 
Q 1781 4219 1451 3797 
Q 1122 3375 1075 2522 
Q 1259 2794 1537 2939 
Q 1816 3084 2150 3084 
Q 2853 3084 3261 2657 
Q 3669 2231 3669 1497 
Q 3669 778 3244 343 
Q 2819 -91 2113 -91 
Q 1303 -91 875 529 
Q 447 1150 447 2328 
Q 447 3434 972 4092 
Q 1497 4750 2381 4750 
Q 2619 4750 2861 4703 
Q 3103 4656 3366 4563 
z
" transform="scale(0.015625)"/>
       </defs>
       <use xlink:href="#DejaVuSans-31"/>
       <use xlink:href="#DejaVuSans-39" x="63.623047"/>
       <use xlink:href="#DejaVuSans-39" x="127.246094"/>
       <use xlink:href="#DejaVuSans-36" x="190.869141"/>
      </g>
     </g>
    </g>
    <g id="xtick_3">
     <g id="line2d_3">
      <g>
       <use xlink:href="#m37111f5d29" x="317.757476" y="238.70175" style="stroke: #000000; stroke-width: 0.8"/>
      </g>
     </g>
     <g id="text_3">
      <!-- 2000 -->
      <g transform="translate(305.032476 251.550188) scale(0.1 -0.1)">
       <defs>
        <path id="DejaVuSans-30" d="M 2034 4250 
Q 1547 4250 1301 3770 
Q 1056 3291 1056 2328 
Q 1056 1369 1301 889 
Q 1547 409 2034 409 
Q 2525 409 2770 889 
Q 3016 1369 3016 2328 
Q 3016 3291 2770 3770 
Q 2525 4250 2034 4250 
z
M 2034 4750 
Q 2819 4750 3233 4129 
Q 3647 3509 3647 2328 
Q 3647 1150 3233 529 
Q 2819 -91 2034 -91 
Q 1250 -91 836 529 
Q 422 1150 422 2328 
Q 422 3509 836 4129 
Q 1250 4750 2034 4750 
z
" transform="scale(0.015625)"/>
       </defs>
       <use xlink:href="#DejaVuSans-32"/>
       <use xlink:href="#DejaVuSans-30" x="63.623047"/>
       <use xlink:href="#DejaVuSans-30" x="127.246094"/>
       <use xlink:href="#DejaVuSans-30" x="190.869141"/>
      </g>
     </g>
    </g>
    <g id="xtick_4">
     <g id="line2d_4">
      <g>
       <use xlink:href="#m37111f5d29" x="433.547363" y="238.70175" style="stroke: #000000; stroke-width: 0.8"/>
      </g>
     </g>
     <g id="text_4">
      <!-- 2004 -->
      <g transform="translate(420.822363 251.550188) scale(0.1 -0.1)">
       <defs>
        <path id="DejaVuSans-34" d="M 2419 4116 
L 825 1625 
L 2419 1625 
L 2419 4116 
z
M 2253 4666 
L 3047 4666 
L 3047 1625 
L 3713 1625 
L 3713 1100 
L 3047 1100 
L 3047 0 
L 2419 0 
L 2419 1100 
L 313 1100 
L 313 1709 
L 2253 4666 
z
" transform="scale(0.015625)"/>
       </defs>
       <use xlink:href="#DejaVuSans-32"/>
       <use xlink:href="#DejaVuSans-30" x="63.623047"/>
       <use xlink:href="#DejaVuSans-30" x="127.246094"/>
       <use xlink:href="#DejaVuSans-34" x="190.869141"/>
      </g>
     </g>
    </g>
    <g id="xtick_5">
     <g id="line2d_5">
      <g>
       <use xlink:href="#m37111f5d29" x="549.33725" y="238.70175" style="stroke: #000000; stroke-width: 0.8"/>
      </g>
     </g>
     <g id="text_5">
      <!-- 2008 -->
      <g transform="translate(536.61225 251.550188) scale(0.1 -0.1)">
       <defs>
        <path id="DejaVuSans-38" d="M 2034 2216 
Q 1584 2216 1326 1975 
Q 1069 1734 1069 1313 
Q 1069 891 1326 650 
Q 1584 409 2034 409 
Q 2484 409 2743 651 
Q 3003 894 3003 1313 
Q 3003 1734 2745 1975 
Q 2488 2216 2034 2216 
z
M 1403 2484 
Q 997 2584 770 2862 
Q 544 3141 544 3541 
Q 544 4100 942 4425 
Q 1341 4750 2034 4750 
Q 2731 4750 3128 4425 
Q 3525 4100 3525 3541 
Q 3525 3141 3298 2862 
Q 3072 2584 2669 2484 
Q 3125 2378 3379 2068 
Q 3634 1759 3634 1313 
Q 3634 634 3220 271 
Q 2806 -91 2034 -91 
Q 1263 -91 848 271 
Q 434 634 434 1313 
Q 434 1759 690 2068 
Q 947 2378 1403 2484 
z
M 1172 3481 
Q 1172 3119 1398 2916 
Q 1625 2713 2034 2713 
Q 2441 2713 2670 2916 
Q 2900 3119 2900 3481 
Q 2900 3844 2670 4047 
Q 2441 4250 2034 4250 
Q 1625 4250 1398 4047 
Q 1172 3844 1172 3481 
z
" transform="scale(0.015625)"/>
       </defs>
       <use xlink:href="#DejaVuSans-32"/>
       <use xlink:href="#DejaVuSans-30" x="63.623047"/>
       <use xlink:href="#DejaVuSans-30" x="127.246094"/>
       <use xlink:href="#DejaVuSans-38" x="190.869141"/>
      </g>
     </g>
    </g>
    <g id="xtick_6">
     <g id="line2d_6">
      <g>
       <use xlink:href="#m37111f5d29" x="665.127138" y="238.70175" style="stroke: #000000; stroke-width: 0.8"/>
      </g>
     </g>
     <g id="text_6">
      <!-- 2012 -->
      <g transform="translate(652.402138 251.550188) scale(0.1 -0.1)">
       <use xlink:href="#DejaVuSans-32"/>
       <use xlink:href="#DejaVuSans-30" x="63.623047"/>
       <use xlink:href="#DejaVuSans-31" x="127.246094"/>
       <use xlink:href="#DejaVuSans-32" x="190.869141"/>
      </g>
     </g>
    </g>
    <g id="xtick_7">
     <g id="line2d_7">
      <g>
       <use xlink:href="#m37111f5d29" x="780.917025" y="238.70175" style="stroke: #000000; stroke-width: 0.8"/>
      </g>
     </g>
     <g id="text_7">
      <!-- 2016 -->
      <g transform="translate(768.192025 251.550188) scale(0.1 -0.1)">
       <use xlink:href="#DejaVuSans-32"/>
       <use xlink:href="#DejaVuSans-30" x="63.623047"/>
       <use xlink:href="#DejaVuSans-31" x="127.246094"/>
       <use xlink:href="#DejaVuSans-36" x="190.869141"/>
      </g>
     </g>
    </g>
   </g>
   <g id="matplotlib.axis_2">
    <g id="ytick_1">
     <g id="line2d_8">
      <path d="M 30.7 207.7296 
L 867.7 207.7296 
" clip-path="url(#p0580c570d0)" style="fill: none; stroke-dasharray: 1.85,0.8; stroke-dashoffset: 0; stroke: #b2b2b2; stroke-width: 0.5"/>
     </g>
     <g id="line2d_9">
      <defs>
       <path id="mb4188ff82d" d="M 1.75 0 
L -1.75 -0 
" style="stroke: #000000; stroke-width: 0.8"/>
      </defs>
      <g>
       <use xlink:href="#mb4188ff82d" x="30.7" y="207.7296" style="stroke: #000000; stroke-width: 0.8"/>
      </g>
     </g>
     <g id="text_8">
      <!-- 500 -->
      <g transform="translate(6.3625 211.528819) scale(0.1 -0.1)">
       <defs>
        <path id="DejaVuSans-35" d="M 691 4666 
L 3169 4666 
L 3169 4134 
L 1269 4134 
L 1269 2991 
Q 1406 3038 1543 3061 
Q 1681 3084 1819 3084 
Q 2600 3084 3056 2656 
Q 3513 2228 3513 1497 
Q 3513 744 3044 326 
Q 2575 -91 1722 -91 
Q 1428 -91 1123 -41 
Q 819 9 494 109 
L 494 744 
Q 775 591 1075 516 
Q 1375 441 1709 441 
Q 2250 441 2565 725 
Q 2881 1009 2881 1497 
Q 2881 1984 2565 2268 
Q 2250 2553 1709 2553 
Q 1456 2553 1204 2497 
Q 953 2441 691 2322 
L 691 4666 
z
" transform="scale(0.015625)"/>
       </defs>
       <use xlink:href="#DejaVuSans-35"/>
       <use xlink:href="#DejaVuSans-30" x="63.623047"/>
       <use xlink:href="#DejaVuSans-30" x="127.246094"/>
      </g>
     </g>
    </g>
    <g id="ytick_2">
     <g id="line2d_10">
      <path d="M 30.7 170.380466 
L 867.7 170.380466 
" clip-path="url(#p0580c570d0)" style="fill: none; stroke-dasharray: 1.85,0.8; stroke-dashoffset: 0; stroke: #b2b2b2; stroke-width: 0.5"/>
     </g>
     <g id="line2d_11">
      <g>
       <use xlink:href="#mb4188ff82d" x="30.7" y="170.380466" style="stroke: #000000; stroke-width: 0.8"/>
      </g>
     </g>
     <g id="text_9">
      <!-- 1000 -->
      <g transform="translate(0 174.179685) scale(0.1 -0.1)">
       <use xlink:href="#DejaVuSans-31"/>
       <use xlink:href="#DejaVuSans-30" x="63.623047"/>
       <use xlink:href="#DejaVuSans-30" x="127.246094"/>
       <use xlink:href="#DejaVuSans-30" x="190.869141"/>
      </g>
     </g>
    </g>
    <g id="ytick_3">
     <g id="line2d_12">
      <path d="M 30.7 133.031332 
L 867.7 133.031332 
" clip-path="url(#p0580c570d0)" style="fill: none; stroke-dasharray: 1.85,0.8; stroke-dashoffset: 0; stroke: #b2b2b2; stroke-width: 0.5"/>
     </g>
     <g id="line2d_13">
      <g>
       <use xlink:href="#mb4188ff82d" x="30.7" y="133.031332" style="stroke: #000000; stroke-width: 0.8"/>
      </g>
     </g>
     <g id="text_10">
      <!-- 1500 -->
      <g transform="translate(0 136.830551) scale(0.1 -0.1)">
       <use xlink:href="#DejaVuSans-31"/>
       <use xlink:href="#DejaVuSans-35" x="63.623047"/>
       <use xlink:href="#DejaVuSans-30" x="127.246094"/>
       <use xlink:href="#DejaVuSans-30" x="190.869141"/>
      </g>
     </g>
    </g>
    <g id="ytick_4">
     <g id="line2d_14">
      <path d="M 30.7 95.682198 
L 867.7 95.682198 
" clip-path="url(#p0580c570d0)" style="fill: none; stroke-dasharray: 1.85,0.8; stroke-dashoffset: 0; stroke: #b2b2b2; stroke-width: 0.5"/>
     </g>
     <g id="line2d_15">
      <g>
       <use xlink:href="#mb4188ff82d" x="30.7" y="95.682198" style="stroke: #000000; stroke-width: 0.8"/>
      </g>
     </g>
     <g id="text_11">
      <!-- 2000 -->
      <g transform="translate(0 99.481417) scale(0.1 -0.1)">
       <use xlink:href="#DejaVuSans-32"/>
       <use xlink:href="#DejaVuSans-30" x="63.623047"/>
       <use xlink:href="#DejaVuSans-30" x="127.246094"/>
       <use xlink:href="#DejaVuSans-30" x="190.869141"/>
      </g>
     </g>
    </g>
    <g id="ytick_5">
     <g id="line2d_16">
      <path d="M 30.7 58.333064 
L 867.7 58.333064 
" clip-path="url(#p0580c570d0)" style="fill: none; stroke-dasharray: 1.85,0.8; stroke-dashoffset: 0; stroke: #b2b2b2; stroke-width: 0.5"/>
     </g>
     <g id="line2d_17">
      <g>
       <use xlink:href="#mb4188ff82d" x="30.7" y="58.333064" style="stroke: #000000; stroke-width: 0.8"/>
      </g>
     </g>
     <g id="text_12">
      <!-- 2500 -->
      <g transform="translate(0 62.132283) scale(0.1 -0.1)">
       <use xlink:href="#DejaVuSans-32"/>
       <use xlink:href="#DejaVuSans-35" x="63.623047"/>
       <use xlink:href="#DejaVuSans-30" x="127.246094"/>
       <use xlink:href="#DejaVuSans-30" x="190.869141"/>
      </g>
     </g>
    </g>
    <g id="ytick_6">
     <g id="line2d_18">
      <path d="M 30.7 20.98393 
L 867.7 20.98393 
" clip-path="url(#p0580c570d0)" style="fill: none; stroke-dasharray: 1.85,0.8; stroke-dashoffset: 0; stroke: #b2b2b2; stroke-width: 0.5"/>
     </g>
     <g id="line2d_19">
      <g>
       <use xlink:href="#mb4188ff82d" x="30.7" y="20.98393" style="stroke: #000000; stroke-width: 0.8"/>
      </g>
     </g>
     <g id="text_13">
      <!-- 3000 -->
      <g transform="translate(0 24.783149) scale(0.1 -0.1)">
       <defs>
        <path id="DejaVuSans-33" d="M 2597 2516 
Q 3050 2419 3304 2112 
Q 3559 1806 3559 1356 
Q 3559 666 3084 287 
Q 2609 -91 1734 -91 
Q 1441 -91 1130 -33 
Q 819 25 488 141 
L 488 750 
Q 750 597 1062 519 
Q 1375 441 1716 441 
Q 2309 441 2620 675 
Q 2931 909 2931 1356 
Q 2931 1769 2642 2001 
Q 2353 2234 1838 2234 
L 1294 2234 
L 1294 2753 
L 1863 2753 
Q 2328 2753 2575 2939 
Q 2822 3125 2822 3475 
Q 2822 3834 2567 4026 
Q 2313 4219 1838 4219 
Q 1578 4219 1281 4162 
Q 984 4106 628 3988 
L 628 4550 
Q 988 4650 1302 4700 
Q 1616 4750 1894 4750 
Q 2613 4750 3031 4423 
Q 3450 4097 3450 3541 
Q 3450 3153 3228 2886 
Q 3006 2619 2597 2516 
z
" transform="scale(0.015625)"/>
       </defs>
       <use xlink:href="#DejaVuSans-33"/>
       <use xlink:href="#DejaVuSans-30" x="63.623047"/>
       <use xlink:href="#DejaVuSans-30" x="127.246094"/>
       <use xlink:href="#DejaVuSans-30" x="190.869141"/>
      </g>
     </g>
    </g>
   </g>
   <g id="line2d_20">
    <path d="M 30.7 237.608908 
L 35.375978 237.236787 
L 37.753593 237.485945 
L 40.210463 236.898632 
L 42.588079 236.915783 
L 45.044948 237.127942 
L 47.501818 238.000975 
L 49.879434 238.502636 
L 52.336303 238.70175 
L 54.713919 238.277826 
L 57.170789 238.064667 
L 59.627658 237.601307 
L 61.846766 236.915752 
L 64.303636 236.538386 
L 66.681252 236.493114 
L 69.138121 236.139832 
L 71.515737 236.520499 
L 76.429476 235.895724 
L 78.807092 235.94598 
L 81.263962 235.75723 
L 83.641578 236.173962 
L 86.098447 235.344419 
L 90.853679 234.613004 
L 93.310548 234.844263 
L 98.145034 234.764725 
L 100.522649 235.024771 
L 102.979519 234.675722 
L 105.436389 234.963852 
L 110.270874 234.618092 
L 112.64849 234.009508 
L 117.562229 233.347915 
L 119.781337 233.359096 
L 122.238207 233.047981 
L 124.615822 233.365978 
L 127.072692 232.974445 
L 131.907177 232.773878 
L 134.364047 232.291468 
L 139.198532 231.911363 
L 141.576148 232.201049 
L 146.489887 231.480835 
L 148.708995 231.722629 
L 151.165865 232.333759 
L 153.543481 232.221037 
L 156.00035 232.237381 
L 158.377966 232.591922 
L 160.834836 232.274596 
L 163.291705 231.678195 
L 165.669321 231.871793 
L 168.126191 231.778721 
L 170.503806 232.277148 
L 175.417546 231.919341 
L 177.636654 231.387234 
L 182.471139 230.739413 
L 184.928009 230.298686 
L 187.305624 229.71856 
L 189.762494 228.970081 
L 192.219364 228.6133 
L 194.596979 228.094306 
L 197.053849 228.598802 
L 199.431465 227.915241 
L 206.643566 226.869677 
L 209.100436 226.537696 
L 213.934921 225.158719 
L 216.312537 225.549545 
L 218.769406 226.81229 
L 223.603892 225.249382 
L 226.060761 225.116203 
L 228.438377 224.028053 
L 230.895247 223.990582 
L 233.352116 223.068632 
L 235.571224 223.150375 
L 238.028094 224.135695 
L 240.40571 223.741793 
L 242.862579 221.885621 
L 245.240195 220.807445 
L 247.697065 219.197946 
L 250.153934 219.26707 
L 252.53155 217.443266 
L 254.98842 218.452979 
L 259.822905 217.698645 
L 262.279775 217.824174 
L 264.498883 215.781435 
L 266.955752 214.272506 
L 269.333368 213.845939 
L 271.790238 214.887688 
L 274.167853 214.399349 
L 276.624723 215.935192 
L 279.081593 221.060922 
L 283.916078 218.274982 
L 286.293694 216.613043 
L 288.750563 215.297472 
L 291.207433 214.718233 
L 293.426541 216.30426 
L 295.883411 215.938504 
L 298.261026 213.716582 
L 300.717896 213.539263 
L 303.095512 212.036633 
L 308.009251 213.617543 
L 310.386867 214.410719 
L 312.843736 213.637349 
L 315.221352 212.284893 
L 317.678222 209.639702 
L 320.135091 210.555893 
L 322.433453 207.594206 
L 324.890323 207.221393 
L 327.267939 208.939141 
L 329.724808 209.933681 
L 332.102424 208.128831 
L 334.559294 208.146993 
L 337.016163 205.514335 
L 341.850649 206.93953 
L 344.228264 209.24777 
L 346.685134 206.910359 
L 349.142004 205.098732 
L 351.361112 206.755355 
L 353.817981 208.028823 
L 356.195597 205.661992 
L 358.652467 204.224283 
L 361.030082 203.57094 
L 363.486952 204.817078 
L 365.943822 206.878774 
L 368.321437 211.387559 
L 370.778307 210.35164 
L 373.155923 207.349604 
L 375.612792 205.706884 
L 378.069662 206.140138 
L 380.28877 207.275007 
L 382.74564 204.746814 
L 385.123255 205.57464 
L 387.580125 206.660464 
L 389.957741 209.121819 
L 392.41461 213.558726 
L 394.87148 213.168497 
L 397.249096 215.999712 
L 399.705965 214.369396 
L 402.083581 211.86987 
L 404.540451 213.770741 
L 406.99732 214.627738 
L 409.216428 215.529186 
L 411.673298 215.34194 
L 416.507783 209.45114 
L 418.885399 208.762396 
L 423.799138 205.714076 
L 426.176754 206.222104 
L 428.633624 203.219044 
L 431.011239 202.069802 
L 435.924979 198.944221 
L 438.223341 198.335734 
L 440.68021 198.413506 
L 443.057826 200.005818 
L 445.514696 199.511573 
L 447.892311 198.128933 
L 450.349181 200.427445 
L 452.806051 200.554748 
L 455.183666 199.105234 
L 457.640536 198.263642 
L 460.018152 195.088952 
L 462.475021 193.305481 
L 464.931891 194.822185 
L 467.150999 193.737977 
L 469.607869 194.75836 
L 471.985484 196.799369 
L 474.442354 194.369562 
L 476.81997 193.055396 
L 479.276839 190.352593 
L 481.733709 190.946717 
L 484.111325 190.488975 
L 486.568194 191.763907 
L 488.94581 189.584434 
L 491.40268 189.586817 
L 493.859549 186.274846 
L 496.078657 186.404495 
L 498.535527 184.556631 
L 500.913143 183.882747 
L 503.370012 186.329921 
L 505.747628 186.267131 
L 508.204498 187.227364 
L 510.661367 185.892235 
L 513.038983 184.907595 
L 515.495853 182.24469 
L 517.873468 180.769023 
L 520.330338 179.954141 
L 522.787208 178.846683 
L 525.006316 179.51241 
L 527.463185 178.814461 
L 529.840801 176.815675 
L 532.297671 174.332831 
L 534.675286 175.399958 
L 537.132156 178.866481 
L 539.589026 178.105339 
L 541.966641 176.554937 
L 544.423511 175.333239 
L 546.801127 179.437277 
L 549.257996 179.787721 
L 551.714866 183.596676 
L 554.013228 185.822271 
L 556.470098 186.181277 
L 558.847713 183.785203 
L 561.304583 181.863237 
L 563.682199 187.212407 
L 566.139068 185.964102 
L 568.595938 184.250643 
L 570.973554 189.032054 
L 573.430423 199.925755 
L 575.808039 204.856073 
L 578.264909 203.614385 
L 582.940886 212.750974 
L 585.397756 209.487142 
L 587.775372 204.334489 
L 590.232241 202.543406 
L 592.609857 201.997149 
L 595.066727 198.01659 
L 597.523596 195.826645 
L 599.901212 193.188146 
L 602.358082 196.012975 
L 604.735697 194.091222 
L 607.192567 191.424538 
L 609.649437 193.231451 
L 611.868545 190.9586 
L 614.325414 187.002329 
L 616.70303 184.637742 
L 619.1599 189.411975 
L 621.537515 193.394296 
L 623.994385 189.881905 
L 626.451255 193.374163 
L 628.82887 187.904662 
L 631.28574 185.872495 
L 633.663356 184.779546 
L 636.120225 179.959328 
L 638.577095 179.16366 
L 640.796203 176.155308 
L 643.253073 175.274272 
L 645.630688 173.640811 
L 650.465174 176.341151 
L 652.922043 178.555089 
L 655.378913 183.737984 
L 657.756529 189.528625 
L 660.213398 182.266228 
L 662.591014 182.703045 
L 665.047884 182.230165 
L 667.504753 178.49675 
L 669.803115 175.946914 
L 672.259985 173.798654 
L 674.637601 174.709492 
L 677.09447 179.220218 
L 679.472086 176.217681 
L 681.928956 176.647138 
L 684.385825 174.502486 
L 686.763441 172.114705 
L 689.220311 173.211532 
L 691.597926 172.73301 
L 694.054796 170.741335 
L 696.511666 166.140797 
L 698.730774 165.189255 
L 701.187643 161.716503 
L 703.565259 161.24658 
L 706.022129 157.634884 
L 708.399744 158.219908 
L 710.856614 152.54215 
L 713.313484 155.27676 
L 715.691099 151.101563 
L 718.147969 147.856081 
L 720.525585 144.061804 
L 722.982454 141.638109 
L 725.439324 144.841453 
L 727.658432 140.364554 
L 730.115302 139.695219 
L 732.492917 141.740311 
L 734.949787 140.664758 
L 737.327403 136.490926 
L 739.784272 140.809353 
L 742.241142 136.288821 
L 744.618758 140.240816 
L 747.075627 136.028653 
L 749.453243 134.765837 
L 751.910113 133.157872 
L 754.366982 137.709852 
L 756.58609 130.997406 
L 759.04296 130.830151 
L 761.420576 131.435294 
L 763.877445 129.531468 
L 766.255061 129.798586 
L 768.711931 130.593473 
L 771.1688 137.469967 
L 773.546416 142.202015 
L 776.003286 135.321309 
L 778.380901 132.688992 
L 780.837771 137.011229 
L 783.294641 145.509623 
L 785.593003 145.662372 
L 788.049872 138.114424 
L 790.427488 135.784625 
L 792.884358 134.207405 
L 795.261973 134.604417 
L 797.718843 129.227973 
L 800.175713 127.120939 
L 802.553328 125.906782 
L 805.010198 129.824936 
L 807.387814 119.063308 
L 809.844683 116.177936 
L 812.301553 114.988762 
L 814.520661 111.5646 
L 816.977531 111.57959 
L 819.355146 110.265412 
L 821.812016 111.380049 
L 824.189632 107.869983 
L 826.646501 106.058901 
L 829.103371 107.208376 
L 831.480987 100.188274 
L 833.937856 98.013878 
L 836.315472 93.607703 
L 838.772342 92.555882 
L 841.229211 86.117062 
L 843.448319 91.928872 
L 845.905189 92.854978 
L 848.282805 91.338182 
L 850.739674 84.492514 
L 853.11729 83.399112 
L 855.57416 79.121002 
L 858.031029 73.822999 
L 860.408645 76.058105 
L 862.865515 91.137086 
L 865.24313 88.565038 
L 867.7 105.832638 
L 867.7 105.832638 
" clip-path="url(#p0580c570d0)" style="fill: none; stroke: #e69f00; stroke-width: 2; stroke-linecap: square"/>
   </g>
   <g id="line2d_21">
    <path d="M 30.7 237.608908 
L 35.375978 237.400837 
L 37.753593 237.702868 
L 40.210463 237.324988 
L 45.044948 237.463375 
L 47.501818 238.084973 
L 49.879434 238.496737 
L 59.627658 238.007092 
L 61.846766 237.702879 
L 64.303636 237.916979 
L 69.138121 237.095072 
L 71.515737 237.078838 
L 73.972607 236.923642 
L 76.429476 237.065156 
L 78.807092 237.354021 
L 81.263962 237.352412 
L 83.641578 237.466623 
L 86.098447 237.378497 
L 88.555317 237.503606 
L 90.853679 237.10718 
L 95.688164 235.763897 
L 98.145034 235.592787 
L 100.522649 235.162247 
L 107.814004 234.19921 
L 112.64849 234.791978 
L 115.105359 234.562458 
L 117.562229 233.944461 
L 119.781337 232.874839 
L 122.238207 232.504418 
L 129.450308 232.560092 
L 131.907177 232.236722 
L 134.364047 231.512784 
L 136.741663 231.537175 
L 141.576148 232.19267 
L 144.033018 231.721487 
L 146.489887 231.128892 
L 148.708995 231.122304 
L 151.165865 231.575818 
L 156.00035 230.935103 
L 158.377966 230.98552 
L 163.291705 230.393088 
L 165.669321 230.86903 
L 168.126191 230.599399 
L 170.503806 230.983242 
L 175.417546 230.421724 
L 177.636654 229.954678 
L 180.093523 229.622821 
L 182.471139 228.96452 
L 184.928009 228.442582 
L 189.762494 228.484488 
L 192.219364 228.411888 
L 194.596979 227.973315 
L 197.053849 228.257524 
L 199.431465 227.68641 
L 204.345204 227.093445 
L 206.643566 227.165545 
L 213.934921 226.130825 
L 216.312537 226.022366 
L 218.769406 226.242947 
L 221.226276 225.777327 
L 223.603892 225.456977 
L 226.060761 224.563516 
L 228.438377 222.93377 
L 230.895247 222.470913 
L 235.571224 221.064995 
L 238.028094 221.169591 
L 240.40571 219.721443 
L 242.862579 218.619012 
L 247.697065 214.855346 
L 250.153934 215.392915 
L 252.53155 213.593203 
L 254.98842 213.796881 
L 259.822905 211.934227 
L 262.279775 212.148143 
L 264.498883 209.945543 
L 266.955752 208.482528 
L 269.333368 207.64727 
L 271.790238 208.242942 
L 274.167853 208.085231 
L 276.624723 209.587351 
L 279.081593 214.405877 
L 281.459208 213.950628 
L 283.916078 212.484272 
L 286.293694 211.228076 
L 288.750563 209.503803 
L 291.207433 207.985115 
L 293.426541 211.061922 
L 295.883411 210.435539 
L 298.261026 208.665095 
L 300.717896 209.557784 
L 303.095512 207.405594 
L 308.009251 208.157486 
L 310.386867 208.808431 
L 315.221352 208.737725 
L 317.678222 208.912872 
L 320.135091 211.417653 
L 322.433453 212.519926 
L 324.890323 208.11036 
L 327.267939 207.80588 
L 329.724808 209.599182 
L 332.102424 208.033874 
L 334.559294 205.640444 
L 337.016163 204.745455 
L 339.393779 204.012855 
L 341.850649 202.228572 
L 344.228264 201.334597 
L 346.685134 197.936721 
L 349.142004 199.029485 
L 351.361112 196.96418 
L 353.817981 197.110551 
L 358.652467 193.735156 
L 361.030082 193.826088 
L 363.486952 192.977353 
L 365.943822 193.960734 
L 368.321437 198.110605 
L 370.778307 198.293613 
L 373.155923 195.187861 
L 375.612792 193.505176 
L 378.069662 190.383927 
L 380.28877 188.194649 
L 382.74564 185.961113 
L 385.123255 184.715084 
L 387.580125 185.38157 
L 389.957741 187.10709 
L 392.41461 192.909188 
L 394.87148 192.766559 
L 397.249096 197.202381 
L 399.705965 193.224908 
L 402.083581 192.868521 
L 404.540451 193.96652 
L 406.99732 195.568892 
L 409.216428 194.896973 
L 411.673298 194.6123 
L 414.050914 191.763826 
L 416.507783 189.607416 
L 418.885399 188.561427 
L 421.342269 188.102728 
L 423.799138 186.654329 
L 426.176754 187.667166 
L 428.633624 185.043193 
L 431.011239 183.702459 
L 433.468109 181.045351 
L 438.223341 179.796684 
L 440.68021 181.162176 
L 443.057826 181.258207 
L 445.514696 180.352807 
L 447.892311 177.417904 
L 450.349181 179.168488 
L 452.806051 178.254416 
L 455.183666 176.681213 
L 457.640536 176.654049 
L 460.018152 173.183322 
L 462.475021 172.754733 
L 464.931891 174.196366 
L 467.150999 172.655788 
L 469.607869 174.101427 
L 471.985484 176.523273 
L 474.442354 174.496929 
L 476.81997 174.498567 
L 479.276839 171.393057 
L 481.733709 172.254065 
L 484.111325 171.931898 
L 486.568194 172.093461 
L 488.94581 169.091528 
L 491.40268 169.171105 
L 493.859549 167.755756 
L 498.535527 165.910948 
L 500.913143 164.449253 
L 503.370012 165.415804 
L 505.747628 165.037949 
L 508.204498 162.759293 
L 513.038983 157.882902 
L 515.495853 156.808204 
L 517.873468 155.178924 
L 520.330338 154.151915 
L 522.787208 153.372148 
L 525.006316 155.471133 
L 527.463185 154.387587 
L 529.840801 150.894665 
L 532.297671 148.222577 
L 534.675286 150.527984 
L 537.132156 152.73159 
L 539.589026 149.413438 
L 541.966641 147.412189 
L 544.423511 146.602222 
L 546.801127 149.978023 
L 549.257996 151.779354 
L 551.714866 156.949409 
L 554.013228 156.663036 
L 558.847713 151.711301 
L 561.304583 151.354167 
L 563.682199 158.411684 
L 566.139068 161.530226 
L 568.595938 160.147493 
L 570.973554 168.626633 
L 573.430423 177.840796 
L 575.808039 181.513581 
L 578.264909 181.977238 
L 580.721778 185.869939 
L 582.940886 190.693451 
L 585.397756 186.187383 
L 590.232241 183.038199 
L 592.609857 186.384859 
L 595.066727 180.700566 
L 597.523596 180.578337 
L 599.901212 179.916892 
L 602.358082 176.09038 
L 604.735697 170.537504 
L 607.192567 171.417811 
L 609.649437 174.609148 
L 611.868545 173.593766 
L 614.325414 170.099169 
L 616.70303 168.861214 
L 619.1599 174.496682 
L 621.537515 176.965658 
L 623.994385 172.669321 
L 626.451255 174.867995 
L 628.82887 168.138653 
L 631.28574 163.890713 
L 633.663356 162.973916 
L 638.577095 157.914409 
L 640.796203 157.197812 
L 643.253073 157.632241 
L 645.630688 154.286946 
L 648.087558 154.142544 
L 650.465174 155.855939 
L 652.922043 154.863437 
L 655.378913 155.12427 
L 657.756529 160.313995 
L 660.213398 152.955552 
L 662.591014 151.015169 
L 665.047884 150.887522 
L 667.504753 147.299329 
L 669.803115 143.49885 
L 672.259985 138.48252 
L 674.637601 139.600488 
L 677.09447 144.199832 
L 679.472086 145.319762 
L 681.928956 138.423713 
L 684.385825 137.404139 
L 686.763441 137.190811 
L 689.220311 138.145469 
L 691.597926 136.635271 
L 694.054796 139.758558 
L 696.511666 137.56489 
L 698.730774 136.382371 
L 701.187643 133.987494 
L 703.565259 130.955947 
L 706.022129 131.527087 
L 708.399744 134.092073 
L 710.856614 129.247165 
L 713.313484 133.574322 
L 715.691099 129.426333 
L 718.147969 121.411014 
L 720.525585 121.841045 
L 722.982454 118.910744 
L 725.439324 123.851288 
L 727.658432 117.050292 
L 730.115302 119.712592 
L 732.492917 116.745159 
L 734.949787 113.064143 
L 737.327403 113.048221 
L 739.784272 111.725393 
L 742.241142 106.384022 
L 744.618758 104.444805 
L 747.075627 104.224636 
L 749.453243 95.614344 
L 751.910113 100.862541 
L 754.366982 101.347966 
L 756.58609 92.319364 
L 759.04296 97.919879 
L 761.420576 95.031243 
L 763.877445 94.156849 
L 766.255061 100.129956 
L 768.711931 90.331105 
L 771.1688 100.630494 
L 773.546416 102.392359 
L 776.003286 90.693485 
L 778.380901 93.269837 
L 780.837771 97.346689 
L 783.294641 98.308656 
L 785.593003 97.284264 
L 788.049872 87.854286 
L 790.427488 87.992276 
L 792.884358 85.629738 
L 795.261973 82.955555 
L 797.718843 76.11711 
L 800.175713 79.134651 
L 802.553328 78.615101 
L 805.010198 77.76545 
L 807.387814 75.616486 
L 809.844683 70.661878 
L 812.301553 67.477963 
L 814.520661 63.397798 
L 816.977531 62.672093 
L 819.355146 60.068481 
L 821.812016 58.032782 
L 824.189632 61.334827 
L 826.646501 57.562158 
L 829.103371 56.077132 
L 831.480987 54.368248 
L 833.937856 48.658216 
L 836.315472 42.0639 
L 838.772342 39.556711 
L 841.229211 27.889578 
L 843.448319 35.991943 
L 845.905189 39.945218 
L 848.282805 37.828729 
L 850.739674 33.758055 
L 853.11729 30.422094 
L 855.57416 26.503567 
L 858.031029 19.931685 
L 860.408645 16.94175 
L 862.865515 29.501867 
L 865.24313 28.301794 
L 867.7 48.102419 
L 867.7 48.102419 
" clip-path="url(#p0580c570d0)" style="fill: none; stroke-dasharray: 7.4,3.2; stroke-dashoffset: 0; stroke: #56b4e9; stroke-width: 2"/>
   </g>
   <g id="patch_3">
    <path d="M 30.7 238.70175 
L 30.7 16.94175 
" style="fill: none; stroke: #000000; stroke-width: 0.8; stroke-linejoin: miter; stroke-linecap: square"/>
   </g>
   <g id="patch_4">
    <path d="M 30.7 238.70175 
L 867.7 238.70175 
" style="fill: none; stroke: #000000; stroke-width: 0.8; stroke-linejoin: miter; stroke-linecap: square"/>
   </g>
   <g id="text_14">
    <!-- 6_Portfolios_2x3 - Performance -->
    <g transform="translate(337.834 10.94175) scale(0.144 -0.144)">
     <defs>
      <path id="DejaVuSans-5f" d="M 3263 -1063 
L 3263 -1509 
L -63 -1509 
L -63 -1063 
L 3263 -1063 
z
" transform="scale(0.015625)"/>
      <path id="DejaVuSans-50" d="M 1259 4147 
L 1259 2394 
L 2053 2394 
Q 2494 2394 2734 2622 
Q 2975 2850 2975 3272 
Q 2975 3691 2734 3919 
Q 2494 4147 2053 4147 
L 1259 4147 
z
M 628 4666 
L 2053 4666 
Q 2838 4666 3239 4311 
Q 3641 3956 3641 3272 
Q 3641 2581 3239 2228 
Q 2838 1875 2053 1875 
L 1259 1875 
L 1259 0 
L 628 0 
L 628 4666 
z
" transform="scale(0.015625)"/>
      <path id="DejaVuSans-6f" d="M 1959 3097 
Q 1497 3097 1228 2736 
Q 959 2375 959 1747 
Q 959 1119 1226 758 
Q 1494 397 1959 397 
Q 2419 397 2687 759 
Q 2956 1122 2956 1747 
Q 2956 2369 2687 2733 
Q 2419 3097 1959 3097 
z
M 1959 3584 
Q 2709 3584 3137 3096 
Q 3566 2609 3566 1747 
Q 3566 888 3137 398 
Q 2709 -91 1959 -91 
Q 1206 -91 779 398 
Q 353 888 353 1747 
Q 353 2609 779 3096 
Q 1206 3584 1959 3584 
z
" transform="scale(0.015625)"/>
      <path id="DejaVuSans-72" d="M 2631 2963 
Q 2534 3019 2420 3045 
Q 2306 3072 2169 3072 
Q 1681 3072 1420 2755 
Q 1159 2438 1159 1844 
L 1159 0 
L 581 0 
L 581 3500 
L 1159 3500 
L 1159 2956 
Q 1341 3275 1631 3429 
Q 1922 3584 2338 3584 
Q 2397 3584 2469 3576 
Q 2541 3569 2628 3553 
L 2631 2963 
z
" transform="scale(0.015625)"/>
      <path id="DejaVuSans-74" d="M 1172 4494 
L 1172 3500 
L 2356 3500 
L 2356 3053 
L 1172 3053 
L 1172 1153 
Q 1172 725 1289 603 
Q 1406 481 1766 481 
L 2356 481 
L 2356 0 
L 1766 0 
Q 1100 0 847 248 
Q 594 497 594 1153 
L 594 3053 
L 172 3053 
L 172 3500 
L 594 3500 
L 594 4494 
L 1172 4494 
z
" transform="scale(0.015625)"/>
      <path id="DejaVuSans-66" d="M 2375 4863 
L 2375 4384 
L 1825 4384 
Q 1516 4384 1395 4259 
Q 1275 4134 1275 3809 
L 1275 3500 
L 2222 3500 
L 2222 3053 
L 1275 3053 
L 1275 0 
L 697 0 
L 697 3053 
L 147 3053 
L 147 3500 
L 697 3500 
L 697 3744 
Q 697 4328 969 4595 
Q 1241 4863 1831 4863 
L 2375 4863 
z
" transform="scale(0.015625)"/>
      <path id="DejaVuSans-6c" d="M 603 4863 
L 1178 4863 
L 1178 0 
L 603 0 
L 603 4863 
z
" transform="scale(0.015625)"/>
      <path id="DejaVuSans-69" d="M 603 3500 
L 1178 3500 
L 1178 0 
L 603 0 
L 603 3500 
z
M 603 4863 
L 1178 4863 
L 1178 4134 
L 603 4134 
L 603 4863 
z
" transform="scale(0.015625)"/>
      <path id="DejaVuSans-73" d="M 2834 3397 
L 2834 2853 
Q 2591 2978 2328 3040 
Q 2066 3103 1784 3103 
Q 1356 3103 1142 2972 
Q 928 2841 928 2578 
Q 928 2378 1081 2264 
Q 1234 2150 1697 2047 
L 1894 2003 
Q 2506 1872 2764 1633 
Q 3022 1394 3022 966 
Q 3022 478 2636 193 
Q 2250 -91 1575 -91 
Q 1294 -91 989 -36 
Q 684 19 347 128 
L 347 722 
Q 666 556 975 473 
Q 1284 391 1588 391 
Q 1994 391 2212 530 
Q 2431 669 2431 922 
Q 2431 1156 2273 1281 
Q 2116 1406 1581 1522 
L 1381 1569 
Q 847 1681 609 1914 
Q 372 2147 372 2553 
Q 372 3047 722 3315 
Q 1072 3584 1716 3584 
Q 2034 3584 2315 3537 
Q 2597 3491 2834 3397 
z
" transform="scale(0.015625)"/>
      <path id="DejaVuSans-78" d="M 3513 3500 
L 2247 1797 
L 3578 0 
L 2900 0 
L 1881 1375 
L 863 0 
L 184 0 
L 1544 1831 
L 300 3500 
L 978 3500 
L 1906 2253 
L 2834 3500 
L 3513 3500 
z
" transform="scale(0.015625)"/>
      <path id="DejaVuSans-20" transform="scale(0.015625)"/>
      <path id="DejaVuSans-2d" d="M 313 2009 
L 1997 2009 
L 1997 1497 
L 313 1497 
L 313 2009 
z
" transform="scale(0.015625)"/>
      <path id="DejaVuSans-65" d="M 3597 1894 
L 3597 1613 
L 953 1613 
Q 991 1019 1311 708 
Q 1631 397 2203 397 
Q 2534 397 2845 478 
Q 3156 559 3463 722 
L 3463 178 
Q 3153 47 2828 -22 
Q 2503 -91 2169 -91 
Q 1331 -91 842 396 
Q 353 884 353 1716 
Q 353 2575 817 3079 
Q 1281 3584 2069 3584 
Q 2775 3584 3186 3129 
Q 3597 2675 3597 1894 
z
M 3022 2063 
Q 3016 2534 2758 2815 
Q 2500 3097 2075 3097 
Q 1594 3097 1305 2825 
Q 1016 2553 972 2059 
L 3022 2063 
z
" transform="scale(0.015625)"/>
      <path id="DejaVuSans-6d" d="M 3328 2828 
Q 3544 3216 3844 3400 
Q 4144 3584 4550 3584 
Q 5097 3584 5394 3201 
Q 5691 2819 5691 2113 
L 5691 0 
L 5113 0 
L 5113 2094 
Q 5113 2597 4934 2840 
Q 4756 3084 4391 3084 
Q 3944 3084 3684 2787 
Q 3425 2491 3425 1978 
L 3425 0 
L 2847 0 
L 2847 2094 
Q 2847 2600 2669 2842 
Q 2491 3084 2119 3084 
Q 1678 3084 1418 2786 
Q 1159 2488 1159 1978 
L 1159 0 
L 581 0 
L 581 3500 
L 1159 3500 
L 1159 2956 
Q 1356 3278 1631 3431 
Q 1906 3584 2284 3584 
Q 2666 3584 2933 3390 
Q 3200 3197 3328 2828 
z
" transform="scale(0.015625)"/>
      <path id="DejaVuSans-61" d="M 2194 1759 
Q 1497 1759 1228 1600 
Q 959 1441 959 1056 
Q 959 750 1161 570 
Q 1363 391 1709 391 
Q 2188 391 2477 730 
Q 2766 1069 2766 1631 
L 2766 1759 
L 2194 1759 
z
M 3341 1997 
L 3341 0 
L 2766 0 
L 2766 531 
Q 2569 213 2275 61 
Q 1981 -91 1556 -91 
Q 1019 -91 701 211 
Q 384 513 384 1019 
Q 384 1609 779 1909 
Q 1175 2209 1959 2209 
L 2766 2209 
L 2766 2266 
Q 2766 2663 2505 2880 
Q 2244 3097 1772 3097 
Q 1472 3097 1187 3025 
Q 903 2953 641 2809 
L 641 3341 
Q 956 3463 1253 3523 
Q 1550 3584 1831 3584 
Q 2591 3584 2966 3190 
Q 3341 2797 3341 1997 
z
" transform="scale(0.015625)"/>
      <path id="DejaVuSans-6e" d="M 3513 2113 
L 3513 0 
L 2938 0 
L 2938 2094 
Q 2938 2591 2744 2837 
Q 2550 3084 2163 3084 
Q 1697 3084 1428 2787 
Q 1159 2491 1159 1978 
L 1159 0 
L 581 0 
L 581 3500 
L 1159 3500 
L 1159 2956 
Q 1366 3272 1645 3428 
Q 1925 3584 2291 3584 
Q 2894 3584 3203 3211 
Q 3513 2838 3513 2113 
z
" transform="scale(0.015625)"/>
      <path id="DejaVuSans-63" d="M 3122 3366 
L 3122 2828 
Q 2878 2963 2633 3030 
Q 2388 3097 2138 3097 
Q 1578 3097 1268 2742 
Q 959 2388 959 1747 
Q 959 1106 1268 751 
Q 1578 397 2138 397 
Q 2388 397 2633 464 
Q 2878 531 3122 666 
L 3122 134 
Q 2881 22 2623 -34 
Q 2366 -91 2075 -91 
Q 1284 -91 818 406 
Q 353 903 353 1747 
Q 353 2603 823 3093 
Q 1294 3584 2113 3584 
Q 2378 3584 2631 3529 
Q 2884 3475 3122 3366 
z
" transform="scale(0.015625)"/>
     </defs>
     <use xlink:href="#DejaVuSans-36"/>
     <use xlink:href="#DejaVuSans-5f" x="63.623047"/>
     <use xlink:href="#DejaVuSans-50" x="113.623047"/>
     <use xlink:href="#DejaVuSans-6f" x="170.300781"/>
     <use xlink:href="#DejaVuSans-72" x="231.482422"/>
     <use xlink:href="#DejaVuSans-74" x="272.595703"/>
     <use xlink:href="#DejaVuSans-66" x="311.804688"/>
     <use xlink:href="#DejaVuSans-6f" x="347.009766"/>
     <use xlink:href="#DejaVuSans-6c" x="408.191406"/>
     <use xlink:href="#DejaVuSans-69" x="435.974609"/>
     <use xlink:href="#DejaVuSans-6f" x="463.757812"/>
     <use xlink:href="#DejaVuSans-73" x="524.939453"/>
     <use xlink:href="#DejaVuSans-5f" x="577.039062"/>
     <use xlink:href="#DejaVuSans-32" x="627.039062"/>
     <use xlink:href="#DejaVuSans-78" x="690.662109"/>
     <use xlink:href="#DejaVuSans-33" x="749.841797"/>
     <use xlink:href="#DejaVuSans-20" x="813.464844"/>
     <use xlink:href="#DejaVuSans-2d" x="845.251953"/>
     <use xlink:href="#DejaVuSans-20" x="881.335938"/>
     <use xlink:href="#DejaVuSans-50" x="913.123047"/>
     <use xlink:href="#DejaVuSans-65" x="969.800781"/>
     <use xlink:href="#DejaVuSans-72" x="1031.324219"/>
     <use xlink:href="#DejaVuSans-66" x="1072.4375"/>
     <use xlink:href="#DejaVuSans-6f" x="1107.642578"/>
     <use xlink:href="#DejaVuSans-72" x="1168.824219"/>
     <use xlink:href="#DejaVuSans-6d" x="1208.1875"/>
     <use xlink:href="#DejaVuSans-61" x="1305.599609"/>
     <use xlink:href="#DejaVuSans-6e" x="1366.878906"/>
     <use xlink:href="#DejaVuSans-63" x="1430.257812"/>
     <use xlink:href="#DejaVuSans-65" x="1485.238281"/>
    </g>
   </g>
   <g id="legend_1">
    <g id="line2d_22">
     <path d="M 39.7 30.040188 
L 49.7 30.040188 
L 59.7 30.040188 
" style="fill: none; stroke: #e69f00; stroke-width: 2; stroke-linecap: square"/>
    </g>
    <g id="text_15">
     <!-- 1/N -->
     <g transform="translate(67.7 33.540188) scale(0.1 -0.1)">
      <defs>
       <path id="DejaVuSans-2f" d="M 1625 4666 
L 2156 4666 
L 531 -594 
L 0 -594 
L 1625 4666 
z
" transform="scale(0.015625)"/>
       <path id="DejaVuSans-4e" d="M 628 4666 
L 1478 4666 
L 3547 763 
L 3547 4666 
L 4159 4666 
L 4159 0 
L 3309 0 
L 1241 3903 
L 1241 0 
L 628 0 
L 628 4666 
z
" transform="scale(0.015625)"/>
      </defs>
      <use xlink:href="#DejaVuSans-31"/>
      <use xlink:href="#DejaVuSans-2f" x="63.623047"/>
      <use xlink:href="#DejaVuSans-4e" x="97.314453"/>
     </g>
    </g>
    <g id="line2d_23">
     <path d="M 39.7 44.718313 
L 49.7 44.718313 
L 59.7 44.718313 
" style="fill: none; stroke-dasharray: 7.4,3.2; stroke-dashoffset: 0; stroke: #56b4e9; stroke-width: 2"/>
    </g>
    <g id="text_16">
     <!-- GMVP -->
     <g transform="translate(67.7 48.218313) scale(0.1 -0.1)">
      <defs>
       <path id="DejaVuSans-47" d="M 3809 666 
L 3809 1919 
L 2778 1919 
L 2778 2438 
L 4434 2438 
L 4434 434 
Q 4069 175 3628 42 
Q 3188 -91 2688 -91 
Q 1594 -91 976 548 
Q 359 1188 359 2328 
Q 359 3472 976 4111 
Q 1594 4750 2688 4750 
Q 3144 4750 3555 4637 
Q 3966 4525 4313 4306 
L 4313 3634 
Q 3963 3931 3569 4081 
Q 3175 4231 2741 4231 
Q 1884 4231 1454 3753 
Q 1025 3275 1025 2328 
Q 1025 1384 1454 906 
Q 1884 428 2741 428 
Q 3075 428 3337 486 
Q 3600 544 3809 666 
z
" transform="scale(0.015625)"/>
       <path id="DejaVuSans-4d" d="M 628 4666 
L 1569 4666 
L 2759 1491 
L 3956 4666 
L 4897 4666 
L 4897 0 
L 4281 0 
L 4281 4097 
L 3078 897 
L 2444 897 
L 1241 4097 
L 1241 0 
L 628 0 
L 628 4666 
z
" transform="scale(0.015625)"/>
       <path id="DejaVuSans-56" d="M 1831 0 
L 50 4666 
L 709 4666 
L 2188 738 
L 3669 4666 
L 4325 4666 
L 2547 0 
L 1831 0 
z
" transform="scale(0.015625)"/>
      </defs>
      <use xlink:href="#DejaVuSans-47"/>
      <use xlink:href="#DejaVuSans-4d" x="77.490234"/>
      <use xlink:href="#DejaVuSans-56" x="163.769531"/>
      <use xlink:href="#DejaVuSans-50" x="232.177734"/>
     </g>
    </g>
   </g>
  </g>
 </g>
 <defs>
  <clipPath id="p0580c570d0">
   <rect x="30.7" y="16.94175" width="837" height="221.76"/>
  </clipPath>
 </defs>
</svg>
