<?xml version="1.0" encoding="utf-8" standalone="no"?>
<!DOCTYPE svg PUBLIC "-//W3C//DTD SVG 1.1//EN"
  "http://www.w3.org/Graphics/SVG/1.1/DTD/svg11.dtd">
<svg xmlns:xlink="http://www.w3.org/1999/xlink" width="864.515625pt" height="253.629875pt" viewBox="0 0 864.515625 253.629875" xmlns="http://www.w3.org/2000/svg" version="1.1">
 <metadata>
  <rdf:RDF xmlns:dc="http://purl.org/dc/elements/1.1/" xmlns:cc="http://creativecommons.org/ns#" xmlns:rdf="http://www.w3.org/1999/02/22-rdf-syntax-ns#">
   <cc:Work>
    <dc:type rdf:resource="http://purl.org/dc/dcmitype/StillImage"/>
    <dc:date>2025-08-06T21:49:51.852410</dc:date>
    <dc:format>image/svg+xml</dc:format>
    <dc:creator>
     <cc:Agent>
      <dc:title>Matplotlib v3.9.2, https://matplotlib.org/</dc:title>
     </cc:Agent>
    </dc:creator>
   </cc:Work>
  </rdf:RDF>
 </metadata>
 <defs>
  <style type="text/css">*{stroke-linejoin: round; stroke-linecap: butt}</style>
 </defs>
 <g id="figure_1">
  <g id="patch_1">
   <path d="M 0 253.629875 
L 864.515625 253.629875 
L 864.515625 0 
L 0 0 
z
" style="fill: #ffffff"/>
  </g>
  <g id="axes_1">
   <g id="patch_2">
    <path d="M 27.515625 238.70175 
L 864.515625 238.70175 
L 864.515625 16.94175 
L 27.515625 16.94175 
z
" style="fill: #ffffff"/>
   </g>
   <g id="matplotlib.axis_1">
    <g id="xtick_1">
     <g id="line2d_1">
      <defs>
       <path id="m55b96ae160" d="M 0 1.75 
L 0 -1.75 
" style="stroke: #000000; stroke-width: 0.8"/>
      </defs>
      <g>
       <use xlink:href="#m55b96ae160" x="82.993326" y="238.70175" style="stroke: #000000; stroke-width: 0.8"/>
      </g>
     </g>
     <g id="text_1">
      <!-- 1992 -->
      <g transform="translate(70.268326 251.550188) scale(0.1 -0.1)">
       <defs>
        <path id="DejaVuSans-31" d="M 794 531 
L 1825 531 
L 1825 4091 
L 703 3866 
L 703 4441 
L 1819 4666 
L 2450 4666 
L 2450 531 
L 3481 531 
L 3481 0 
L 794 0 
L 794 531 
z
" transform="scale(0.015625)"/>
        <path id="DejaVuSans-39" d="M 703 97 
L 703 672 
Q 941 559 1184 500 
Q 1428 441 1663 441 
Q 2288 441 2617 861 
Q 2947 1281 2994 2138 
Q 2813 1869 2534 1725 
Q 2256 1581 1919 1581 
Q 1219 1581 811 2004 
Q 403 2428 403 3163 
Q 403 3881 828 4315 
Q 1253 4750 1959 4750 
Q 2769 4750 3195 4129 
Q 3622 3509 3622 2328 
Q 3622 1225 3098 567 
Q 2575 -91 1691 -91 
Q 1453 -91 1209 -44 
Q 966 3 703 97 
z
M 1959 2075 
Q 2384 2075 2632 2365 
Q 2881 2656 2881 3163 
Q 2881 3666 2632 3958 
Q 2384 4250 1959 4250 
Q 1534 4250 1286 3958 
Q 1038 3666 1038 3163 
Q 1038 2656 1286 2365 
Q 1534 2075 1959 2075 
z
" transform="scale(0.015625)"/>
        <path id="DejaVuSans-32" d="M 1228 531 
L 3431 531 
L 3431 0 
L 469 0 
L 469 531 
Q 828 903 1448 1529 
Q 2069 2156 2228 2338 
Q 2531 2678 2651 2914 
Q 2772 3150 2772 3378 
Q 2772 3750 2511 3984 
Q 2250 4219 1831 4219 
Q 1534 4219 1204 4116 
Q 875 4013 500 3803 
L 500 4441 
Q 881 4594 1212 4672 
Q 1544 4750 1819 4750 
Q 2544 4750 2975 4387 
Q 3406 4025 3406 3419 
Q 3406 3131 3298 2873 
Q 3191 2616 2906 2266 
Q 2828 2175 2409 1742 
Q 1991 1309 1228 531 
z
" transform="scale(0.015625)"/>
       </defs>
       <use xlink:href="#DejaVuSans-31"/>
       <use xlink:href="#DejaVuSans-39" x="63.623047"/>
       <use xlink:href="#DejaVuSans-39" x="127.246094"/>
       <use xlink:href="#DejaVuSans-32" x="190.869141"/>
      </g>
     </g>
    </g>
    <g id="xtick_2">
     <g id="line2d_2">
      <g>
       <use xlink:href="#m55b96ae160" x="198.783213" y="238.70175" style="stroke: #000000; stroke-width: 0.8"/>
      </g>
     </g>
     <g id="text_2">
      <!-- 1996 -->
      <g transform="translate(186.058213 251.550188) scale(0.1 -0.1)">
       <defs>
        <path id="DejaVuSans-36" d="M 2113 2584 
Q 1688 2584 1439 2293 
Q 1191 2003 1191 1497 
Q 1191 994 1439 701 
Q 1688 409 2113 409 
Q 2538 409 2786 701 
Q 3034 994 3034 1497 
Q 3034 2003 2786 2293 
Q 2538 2584 2113 2584 
z
M 3366 4563 
L 3366 3988 
Q 3128 4100 2886 4159 
Q 2644 4219 2406 4219 
Q 1781 4219 1451 3797 
Q 1122 3375 1075 2522 
Q 1259 2794 1537 2939 
Q 1816 3084 2150 3084 
Q 2853 3084 3261 2657 
Q 3669 2231 3669 1497 
Q 3669 778 3244 343 
Q 2819 -91 2113 -91 
Q 1303 -91 875 529 
Q 447 1150 447 2328 
Q 447 3434 972 4092 
Q 1497 4750 2381 4750 
Q 2619 4750 2861 4703 
Q 3103 4656 3366 4563 
z
" transform="scale(0.015625)"/>
       </defs>
       <use xlink:href="#DejaVuSans-31"/>
       <use xlink:href="#DejaVuSans-39" x="63.623047"/>
       <use xlink:href="#DejaVuSans-39" x="127.246094"/>
       <use xlink:href="#DejaVuSans-36" x="190.869141"/>
      </g>
     </g>
    </g>
    <g id="xtick_3">
     <g id="line2d_3">
      <g>
       <use xlink:href="#m55b96ae160" x="314.573101" y="238.70175" style="stroke: #000000; stroke-width: 0.8"/>
      </g>
     </g>
     <g id="text_3">
      <!-- 2000 -->
      <g transform="translate(301.848101 251.550188) scale(0.1 -0.1)">
       <defs>
        <path id="DejaVuSans-30" d="M 2034 4250 
Q 1547 4250 1301 3770 
Q 1056 3291 1056 2328 
Q 1056 1369 1301 889 
Q 1547 409 2034 409 
Q 2525 409 2770 889 
Q 3016 1369 3016 2328 
Q 3016 3291 2770 3770 
Q 2525 4250 2034 4250 
z
M 2034 4750 
Q 2819 4750 3233 4129 
Q 3647 3509 3647 2328 
Q 3647 1150 3233 529 
Q 2819 -91 2034 -91 
Q 1250 -91 836 529 
Q 422 1150 422 2328 
Q 422 3509 836 4129 
Q 1250 4750 2034 4750 
z
" transform="scale(0.015625)"/>
       </defs>
       <use xlink:href="#DejaVuSans-32"/>
       <use xlink:href="#DejaVuSans-30" x="63.623047"/>
       <use xlink:href="#DejaVuSans-30" x="127.246094"/>
       <use xlink:href="#DejaVuSans-30" x="190.869141"/>
      </g>
     </g>
    </g>
    <g id="xtick_4">
     <g id="line2d_4">
      <g>
       <use xlink:href="#m55b96ae160" x="430.362988" y="238.70175" style="stroke: #000000; stroke-width: 0.8"/>
      </g>
     </g>
     <g id="text_4">
      <!-- 2004 -->
      <g transform="translate(417.637988 251.550188) scale(0.1 -0.1)">
       <defs>
        <path id="DejaVuSans-34" d="M 2419 4116 
L 825 1625 
L 2419 1625 
L 2419 4116 
z
M 2253 4666 
L 3047 4666 
L 3047 1625 
L 3713 1625 
L 3713 1100 
L 3047 1100 
L 3047 0 
L 2419 0 
L 2419 1100 
L 313 1100 
L 313 1709 
L 2253 4666 
z
" transform="scale(0.015625)"/>
       </defs>
       <use xlink:href="#DejaVuSans-32"/>
       <use xlink:href="#DejaVuSans-30" x="63.623047"/>
       <use xlink:href="#DejaVuSans-30" x="127.246094"/>
       <use xlink:href="#DejaVuSans-34" x="190.869141"/>
      </g>
     </g>
    </g>
    <g id="xtick_5">
     <g id="line2d_5">
      <g>
       <use xlink:href="#m55b96ae160" x="546.152875" y="238.70175" style="stroke: #000000; stroke-width: 0.8"/>
      </g>
     </g>
     <g id="text_5">
      <!-- 2008 -->
      <g transform="translate(533.427875 251.550188) scale(0.1 -0.1)">
       <defs>
        <path id="DejaVuSans-38" d="M 2034 2216 
Q 1584 2216 1326 1975 
Q 1069 1734 1069 1313 
Q 1069 891 1326 650 
Q 1584 409 2034 409 
Q 2484 409 2743 651 
Q 3003 894 3003 1313 
Q 3003 1734 2745 1975 
Q 2488 2216 2034 2216 
z
M 1403 2484 
Q 997 2584 770 2862 
Q 544 3141 544 3541 
Q 544 4100 942 4425 
Q 1341 4750 2034 4750 
Q 2731 4750 3128 4425 
Q 3525 4100 3525 3541 
Q 3525 3141 3298 2862 
Q 3072 2584 2669 2484 
Q 3125 2378 3379 2068 
Q 3634 1759 3634 1313 
Q 3634 634 3220 271 
Q 2806 -91 2034 -91 
Q 1263 -91 848 271 
Q 434 634 434 1313 
Q 434 1759 690 2068 
Q 947 2378 1403 2484 
z
M 1172 3481 
Q 1172 3119 1398 2916 
Q 1625 2713 2034 2713 
Q 2441 2713 2670 2916 
Q 2900 3119 2900 3481 
Q 2900 3844 2670 4047 
Q 2441 4250 2034 4250 
Q 1625 4250 1398 4047 
Q 1172 3844 1172 3481 
z
" transform="scale(0.015625)"/>
       </defs>
       <use xlink:href="#DejaVuSans-32"/>
       <use xlink:href="#DejaVuSans-30" x="63.623047"/>
       <use xlink:href="#DejaVuSans-30" x="127.246094"/>
       <use xlink:href="#DejaVuSans-38" x="190.869141"/>
      </g>
     </g>
    </g>
    <g id="xtick_6">
     <g id="line2d_6">
      <g>
       <use xlink:href="#m55b96ae160" x="661.942763" y="238.70175" style="stroke: #000000; stroke-width: 0.8"/>
      </g>
     </g>
     <g id="text_6">
      <!-- 2012 -->
      <g transform="translate(649.217763 251.550188) scale(0.1 -0.1)">
       <use xlink:href="#DejaVuSans-32"/>
       <use xlink:href="#DejaVuSans-30" x="63.623047"/>
       <use xlink:href="#DejaVuSans-31" x="127.246094"/>
       <use xlink:href="#DejaVuSans-32" x="190.869141"/>
      </g>
     </g>
    </g>
    <g id="xtick_7">
     <g id="line2d_7">
      <g>
       <use xlink:href="#m55b96ae160" x="777.73265" y="238.70175" style="stroke: #000000; stroke-width: 0.8"/>
      </g>
     </g>
     <g id="text_7">
      <!-- 2016 -->
      <g transform="translate(765.00765 251.550188) scale(0.1 -0.1)">
       <use xlink:href="#DejaVuSans-32"/>
       <use xlink:href="#DejaVuSans-30" x="63.623047"/>
       <use xlink:href="#DejaVuSans-31" x="127.246094"/>
       <use xlink:href="#DejaVuSans-36" x="190.869141"/>
      </g>
     </g>
    </g>
   </g>
   <g id="matplotlib.axis_2">
    <g id="ytick_1">
     <g id="line2d_8">
      <path d="M 27.515625 203.911933 
L 864.515625 203.911933 
" clip-path="url(#pca23dee710)" style="fill: none; stroke-dasharray: 1.85,0.8; stroke-dashoffset: 0; stroke: #b2b2b2; stroke-width: 0.5"/>
     </g>
     <g id="line2d_9">
      <defs>
       <path id="m6fc50e7ec7" d="M 1.75 0 
L -1.75 -0 
" style="stroke: #000000; stroke-width: 0.8"/>
      </defs>
      <g>
       <use xlink:href="#m6fc50e7ec7" x="27.515625" y="203.911933" style="stroke: #000000; stroke-width: 0.8"/>
      </g>
     </g>
     <g id="text_8">
      <!-- 0.15 -->
      <g transform="translate(0 207.711151) scale(0.1 -0.1)">
       <defs>
        <path id="DejaVuSans-2e" d="M 684 794 
L 1344 794 
L 1344 0 
L 684 0 
L 684 794 
z
" transform="scale(0.015625)"/>
        <path id="DejaVuSans-35" d="M 691 4666 
L 3169 4666 
L 3169 4134 
L 1269 4134 
L 1269 2991 
Q 1406 3038 1543 3061 
Q 1681 3084 1819 3084 
Q 2600 3084 3056 2656 
Q 3513 2228 3513 1497 
Q 3513 744 3044 326 
Q 2575 -91 1722 -91 
Q 1428 -91 1123 -41 
Q 819 9 494 109 
L 494 744 
Q 775 591 1075 516 
Q 1375 441 1709 441 
Q 2250 441 2565 725 
Q 2881 1009 2881 1497 
Q 2881 1984 2565 2268 
Q 2250 2553 1709 2553 
Q 1456 2553 1204 2497 
Q 953 2441 691 2322 
L 691 4666 
z
" transform="scale(0.015625)"/>
       </defs>
       <use xlink:href="#DejaVuSans-30"/>
       <use xlink:href="#DejaVuSans-2e" x="63.623047"/>
       <use xlink:href="#DejaVuSans-31" x="95.410156"/>
       <use xlink:href="#DejaVuSans-35" x="159.033203"/>
      </g>
     </g>
    </g>
    <g id="ytick_2">
     <g id="line2d_10">
      <path d="M 27.515625 164.26679 
L 864.515625 164.26679 
" clip-path="url(#pca23dee710)" style="fill: none; stroke-dasharray: 1.85,0.8; stroke-dashoffset: 0; stroke: #b2b2b2; stroke-width: 0.5"/>
     </g>
     <g id="line2d_11">
      <g>
       <use xlink:href="#m6fc50e7ec7" x="27.515625" y="164.26679" style="stroke: #000000; stroke-width: 0.8"/>
      </g>
     </g>
     <g id="text_9">
      <!-- 0.16 -->
      <g transform="translate(0 168.066009) scale(0.1 -0.1)">
       <use xlink:href="#DejaVuSans-30"/>
       <use xlink:href="#DejaVuSans-2e" x="63.623047"/>
       <use xlink:href="#DejaVuSans-31" x="95.410156"/>
       <use xlink:href="#DejaVuSans-36" x="159.033203"/>
      </g>
     </g>
    </g>
    <g id="ytick_3">
     <g id="line2d_12">
      <path d="M 27.515625 124.621648 
L 864.515625 124.621648 
" clip-path="url(#pca23dee710)" style="fill: none; stroke-dasharray: 1.85,0.8; stroke-dashoffset: 0; stroke: #b2b2b2; stroke-width: 0.5"/>
     </g>
     <g id="line2d_13">
      <g>
       <use xlink:href="#m6fc50e7ec7" x="27.515625" y="124.621648" style="stroke: #000000; stroke-width: 0.8"/>
      </g>
     </g>
     <g id="text_10">
      <!-- 0.17 -->
      <g transform="translate(0 128.420867) scale(0.1 -0.1)">
       <defs>
        <path id="DejaVuSans-37" d="M 525 4666 
L 3525 4666 
L 3525 4397 
L 1831 0 
L 1172 0 
L 2766 4134 
L 525 4134 
L 525 4666 
z
" transform="scale(0.015625)"/>
       </defs>
       <use xlink:href="#DejaVuSans-30"/>
       <use xlink:href="#DejaVuSans-2e" x="63.623047"/>
       <use xlink:href="#DejaVuSans-31" x="95.410156"/>
       <use xlink:href="#DejaVuSans-37" x="159.033203"/>
      </g>
     </g>
    </g>
    <g id="ytick_4">
     <g id="line2d_14">
      <path d="M 27.515625 84.976506 
L 864.515625 84.976506 
" clip-path="url(#pca23dee710)" style="fill: none; stroke-dasharray: 1.85,0.8; stroke-dashoffset: 0; stroke: #b2b2b2; stroke-width: 0.5"/>
     </g>
     <g id="line2d_15">
      <g>
       <use xlink:href="#m6fc50e7ec7" x="27.515625" y="84.976506" style="stroke: #000000; stroke-width: 0.8"/>
      </g>
     </g>
     <g id="text_11">
      <!-- 0.18 -->
      <g transform="translate(0 88.775724) scale(0.1 -0.1)">
       <use xlink:href="#DejaVuSans-30"/>
       <use xlink:href="#DejaVuSans-2e" x="63.623047"/>
       <use xlink:href="#DejaVuSans-31" x="95.410156"/>
       <use xlink:href="#DejaVuSans-38" x="159.033203"/>
      </g>
     </g>
    </g>
    <g id="ytick_5">
     <g id="line2d_16">
      <path d="M 27.515625 45.331363 
L 864.515625 45.331363 
" clip-path="url(#pca23dee710)" style="fill: none; stroke-dasharray: 1.85,0.8; stroke-dashoffset: 0; stroke: #b2b2b2; stroke-width: 0.5"/>
     </g>
     <g id="line2d_17">
      <g>
       <use xlink:href="#m6fc50e7ec7" x="27.515625" y="45.331363" style="stroke: #000000; stroke-width: 0.8"/>
      </g>
     </g>
     <g id="text_12">
      <!-- 0.19 -->
      <g transform="translate(0 49.130582) scale(0.1 -0.1)">
       <use xlink:href="#DejaVuSans-30"/>
       <use xlink:href="#DejaVuSans-2e" x="63.623047"/>
       <use xlink:href="#DejaVuSans-31" x="95.410156"/>
       <use xlink:href="#DejaVuSans-39" x="159.033203"/>
      </g>
     </g>
    </g>
   </g>
   <g id="line2d_18">
    <path d="M 27.515625 149.047085 
L 29.734733 131.435539 
L 32.191603 127.777121 
L 34.569218 134.669708 
L 37.026088 133.17243 
L 39.403704 129.583701 
L 41.860573 151.140248 
L 44.317443 165.529181 
L 46.695059 159.488639 
L 49.151928 157.584479 
L 51.529544 123.62536 
L 53.986414 130.803889 
L 56.443283 121.04481 
L 58.662391 122.392688 
L 61.119261 117.492678 
L 63.496877 146.091697 
L 65.953746 136.600021 
L 68.331362 144.73622 
L 70.788232 136.022243 
L 73.245101 129.456975 
L 75.622717 125.443415 
L 78.079587 131.48759 
L 80.457203 140.624545 
L 82.914072 131.306006 
L 85.370942 117.974244 
L 87.669304 153.047797 
L 90.126173 164.866587 
L 92.503789 174.550284 
L 94.960659 147.176072 
L 97.338274 162.378259 
L 99.795144 142.784296 
L 102.252014 148.108111 
L 104.629629 138.302055 
L 107.086499 120.980056 
L 109.464115 114.205486 
L 111.920984 139.878728 
L 114.377854 149.473325 
L 116.596962 179.866915 
L 119.053832 141.555879 
L 121.431447 145.326484 
L 123.888317 117.102833 
L 126.265933 141.094856 
L 128.722802 144.6238 
L 131.179672 138.774514 
L 133.557288 123.969053 
L 136.014157 123.477645 
L 138.391773 144.368203 
L 140.848643 136.167547 
L 143.305512 145.448526 
L 145.52462 132.102499 
L 147.98149 149.437154 
L 150.359106 149.401899 
L 152.815975 154.85449 
L 155.193591 151.081016 
L 157.650461 143.807079 
L 160.10733 120.650222 
L 162.484946 124.038552 
L 164.941816 139.753929 
L 167.319431 139.313118 
L 169.776301 140.390898 
L 172.233171 155.207274 
L 174.452279 141.230887 
L 176.909148 132.336141 
L 179.286764 147.916051 
L 181.743634 152.123266 
L 184.121249 113.593738 
L 186.578119 117.726299 
L 189.034989 138.947638 
L 191.412604 142.614464 
L 193.869474 155.109439 
L 196.24709 140.487281 
L 198.703959 135.636152 
L 201.160829 148.800268 
L 203.459191 122.287092 
L 205.916061 133.604901 
L 208.293676 105.655546 
L 210.750546 123.473349 
L 213.128162 168.005284 
L 215.585031 189.032016 
L 218.041901 120.367691 
L 220.419517 130.646462 
L 222.876386 176.968266 
L 225.254002 160.684074 
L 227.710872 135.732975 
L 230.167741 139.342861 
L 232.386849 178.00183 
L 234.843719 164.93262 
L 237.221335 170.781148 
L 239.678204 96.908088 
L 242.05582 146.525834 
L 244.51269 147.746369 
L 246.969559 110.669293 
L 249.347175 127.3969 
L 251.804045 157.18896 
L 254.18166 168.396048 
L 256.63853 162.430074 
L 259.0954 139.387659 
L 261.314508 131.365688 
L 263.771377 144.020404 
L 266.148993 142.351499 
L 268.605863 166.048158 
L 270.983478 144.375643 
L 273.440348 156.93659 
L 275.897218 191.86885 
L 278.274833 117.993142 
L 280.731703 144.012318 
L 283.109319 120.428305 
L 285.566188 124.573813 
L 288.023058 126.068804 
L 290.242166 163.660843 
L 292.699036 147.056065 
L 295.076651 129.471338 
L 297.533521 129.405636 
L 299.911137 125.973961 
L 302.368006 130.325886 
L 304.824876 138.87984 
L 307.202492 116.492235 
L 309.659361 148.382723 
L 312.036977 81.358016 
L 314.493847 73.596019 
L 316.950716 111.524835 
L 319.249078 16.94175 
L 321.705948 238.70175 
L 324.083564 205.416025 
L 326.540433 168.930252 
L 328.918049 60.612506 
L 331.374919 186.409078 
L 333.831788 127.835545 
L 336.209404 174.284447 
L 338.666274 182.10756 
L 341.043889 210.504208 
L 343.500759 159.95603 
L 345.957629 88.816463 
L 348.176737 195.872006 
L 350.633606 166.139112 
L 353.011222 114.869331 
L 355.468092 136.61022 
L 357.845707 107.064286 
L 360.302577 181.661981 
L 362.759447 154.168693 
L 365.137062 177.254688 
L 367.593932 87.623186 
L 369.971548 135.818479 
L 372.428417 123.031942 
L 374.885287 165.173697 
L 377.104395 173.011269 
L 379.561265 124.409843 
L 381.93888 150.637676 
L 384.39575 164.90302 
L 386.773366 142.820674 
L 389.230235 157.80005 
L 391.687105 148.939069 
L 394.064721 134.1517 
L 396.52159 131.534933 
L 398.899206 106.56248 
L 401.356076 158.959591 
L 403.812945 135.325318 
L 406.032053 144.479537 
L 408.488923 130.106269 
L 410.866539 129.477241 
L 413.323408 113.854789 
L 415.701024 134.224101 
L 418.157894 113.158068 
L 420.614763 131.286902 
L 422.992379 140.450074 
L 425.449249 133.724452 
L 427.826864 136.309865 
L 430.283734 153.871041 
L 432.740604 135.966534 
L 435.038966 143.802335 
L 437.495835 128.264088 
L 439.873451 137.598565 
L 442.330321 138.366957 
L 444.707936 137.359712 
L 447.164806 169.990042 
L 449.621676 150.401799 
L 451.999291 123.470879 
L 454.456161 131.644721 
L 456.833777 127.169963 
L 459.290646 132.552345 
L 461.747516 154.647259 
L 463.966624 146.7722 
L 466.423494 152.403501 
L 468.801109 153.58434 
L 471.257979 122.634455 
L 473.635595 136.562096 
L 476.092464 126.462023 
L 478.549334 145.743651 
L 480.92695 140.858599 
L 483.383819 148.873635 
L 485.761435 131.348565 
L 488.218305 137.229803 
L 490.675174 121.65546 
L 492.894282 140.132042 
L 495.351152 132.267894 
L 497.728768 148.953351 
L 500.185637 162.912896 
L 502.563253 143.282889 
L 505.020123 166.425918 
L 507.476992 130.348497 
L 509.854608 143.353768 
L 512.311478 126.841853 
L 514.689093 136.422328 
L 517.145963 150.062204 
L 519.602833 132.363023 
L 521.821941 131.83667 
L 524.27881 133.21871 
L 526.656426 139.169045 
L 529.113296 132.33153 
L 531.490911 131.678199 
L 533.947781 136.723871 
L 536.404651 135.501847 
L 538.782266 136.083701 
L 541.239136 126.10332 
L 543.616752 149.307152 
L 546.073621 133.227058 
L 548.530491 157.102767 
L 550.828853 145.136481 
L 553.285723 147.898669 
L 555.663338 133.709287 
L 558.120208 122.721841 
L 560.497824 129.27014 
L 562.954693 137.236363 
L 565.411563 136.395478 
L 567.789179 161.166576 
L 570.246048 160.186055 
L 572.623664 143.02099 
L 575.080534 126.52369 
L 577.537403 111.712238 
L 579.756511 120.5211 
L 582.213381 143.72941 
L 584.590997 126.077228 
L 587.047866 141.310951 
L 589.425482 111.045458 
L 591.882352 152.076373 
L 594.339221 160.543831 
L 596.716837 131.848838 
L 599.173707 148.944154 
L 601.551322 149.727661 
L 604.008192 117.810885 
L 606.465062 140.710259 
L 608.68417 144.273411 
L 611.141039 139.585462 
L 613.518655 138.601142 
L 615.975525 124.184345 
L 618.35314 127.892087 
L 620.81001 137.933105 
L 623.26688 143.910427 
L 625.644495 117.31202 
L 628.101365 132.03495 
L 630.478981 125.608895 
L 632.93585 142.05117 
L 635.39272 148.92779 
L 637.611828 134.502125 
L 640.068698 124.30185 
L 642.446313 131.682842 
L 644.903183 134.145774 
L 647.280799 137.281376 
L 649.737668 146.931568 
L 652.194538 149.145598 
L 654.572154 149.728449 
L 657.029023 122.983645 
L 659.406639 145.609259 
L 661.863509 146.520218 
L 664.320378 123.418317 
L 666.61874 140.439819 
L 669.07561 142.16786 
L 671.453226 139.076639 
L 673.910095 138.74654 
L 676.287711 130.618285 
L 678.744581 156.324335 
L 681.20145 136.963931 
L 683.579066 138.551792 
L 686.035936 154.851288 
L 688.413551 135.137722 
L 690.870421 138.70267 
L 693.327291 133.479796 
L 695.546399 138.972984 
L 698.003268 132.585827 
L 700.380884 146.746904 
L 702.837754 133.455806 
L 705.215369 134.948903 
L 707.672239 132.60333 
L 710.129109 124.964276 
L 712.506724 126.857273 
L 714.963594 153.295353 
L 717.34121 129.393067 
L 719.798079 141.202553 
L 722.254949 117.466553 
L 724.474057 140.723306 
L 726.930927 164.65127 
L 729.308542 167.575515 
L 731.765412 149.011189 
L 734.143028 117.695357 
L 736.599897 154.923765 
L 739.056767 133.305658 
L 741.434383 145.257495 
L 743.891252 116.157373 
L 746.268868 133.823059 
L 748.725738 134.027832 
L 751.182607 129.706893 
L 753.401715 128.96152 
L 755.858585 125.204299 
L 758.236201 155.846942 
L 760.69307 129.916709 
L 763.070686 118.242427 
L 765.527556 135.050172 
L 767.984425 161.328007 
L 770.362041 161.456422 
L 772.818911 148.152028 
L 775.196526 117.040708 
L 777.653396 138.296002 
L 780.110266 182.649487 
L 782.408628 141.509451 
L 784.865497 137.189763 
L 789.699983 132.187564 
L 792.077598 133.491955 
L 794.534468 124.169032 
L 796.991338 141.233435 
L 799.368953 123.208068 
L 801.825823 171.355435 
L 804.203439 139.215375 
L 806.660308 155.319781 
L 809.117178 131.117747 
L 811.336286 133.180348 
L 813.793156 122.520018 
L 816.170771 131.506686 
L 818.627641 137.927419 
L 821.005257 124.092036 
L 823.462126 141.617688 
L 825.918996 136.39796 
L 828.296612 135.980523 
L 830.753481 145.482873 
L 833.131097 139.743411 
L 835.587967 136.706521 
L 838.044836 144.675178 
L 840.263944 133.946655 
L 842.720814 124.638532 
L 845.09843 136.442781 
L 847.555299 115.347314 
L 849.932915 123.271279 
L 852.389785 145.782633 
L 854.846654 121.855426 
L 857.22427 140.774484 
L 859.68114 169.694926 
L 862.058755 141.925744 
L 864.515625 137.836695 
L 864.515625 137.836695 
" clip-path="url(#pca23dee710)" style="fill: none; stroke: #e69f00; stroke-width: 2; stroke-linecap: square"/>
   </g>
   <g id="line2d_19">
    <path d="M 27.515625 138.510192 
L 32.191603 130.209608 
L 34.569218 137.665163 
L 37.026088 144.489592 
L 39.403704 133.512616 
L 41.860573 144.322313 
L 44.317443 147.923869 
L 46.695059 146.748923 
L 49.151928 154.488418 
L 51.529544 137.767526 
L 53.986414 134.345707 
L 56.443283 127.276064 
L 58.662391 130.535591 
L 61.119261 133.310222 
L 63.496877 132.29853 
L 65.953746 133.710181 
L 68.331362 130.545416 
L 70.788232 142.020955 
L 73.245101 138.711354 
L 75.622717 130.386332 
L 78.079587 134.433832 
L 80.457203 132.444625 
L 82.914072 153.31697 
L 85.370942 117.712616 
L 87.669304 140.089998 
L 90.126173 131.168571 
L 92.503789 154.657355 
L 94.960659 135.648845 
L 97.338274 142.740851 
L 99.795144 138.893688 
L 102.252014 128.978417 
L 104.629629 131.327852 
L 107.086499 134.499736 
L 109.464115 133.083138 
L 111.920984 133.430677 
L 114.377854 130.016144 
L 116.596962 137.439747 
L 119.053832 136.724416 
L 121.431447 136.76944 
L 123.888317 137.475556 
L 126.265933 140.326473 
L 128.722802 131.426932 
L 131.179672 132.44885 
L 133.557288 130.24805 
L 136.014157 138.599338 
L 138.391773 142.298226 
L 140.848643 128.270284 
L 143.305512 138.6107 
L 145.52462 119.847079 
L 147.98149 138.991203 
L 150.359106 138.971601 
L 152.815975 144.114244 
L 155.193591 135.218275 
L 157.650461 146.913572 
L 160.10733 136.772009 
L 162.484946 129.644083 
L 164.941816 142.966773 
L 167.319431 134.145583 
L 169.776301 135.387825 
L 172.233171 150.147396 
L 174.452279 142.114313 
L 176.909148 139.97092 
L 179.286764 136.83981 
L 181.743634 147.342769 
L 184.121249 134.231054 
L 186.578119 138.206934 
L 189.034989 134.743465 
L 191.412604 144.574973 
L 193.869474 153.476274 
L 196.24709 142.742082 
L 198.703959 135.731503 
L 201.160829 146.807363 
L 203.459191 138.305446 
L 208.293676 127.181078 
L 210.750546 132.062573 
L 213.128162 145.022323 
L 215.585031 139.890164 
L 218.041901 133.362841 
L 220.419517 148.665177 
L 222.876386 144.345246 
L 225.254002 143.60316 
L 227.710872 122.179722 
L 230.167741 145.32934 
L 232.386849 140.174553 
L 234.843719 133.264746 
L 237.221335 145.994247 
L 239.678204 129.091161 
L 242.05582 131.69501 
L 244.51269 146.717267 
L 246.969559 114.05566 
L 249.347175 132.598174 
L 251.804045 137.165735 
L 254.18166 152.67304 
L 256.63853 142.734328 
L 259.0954 143.012143 
L 261.314508 138.847435 
L 263.771377 139.396446 
L 266.148993 137.547772 
L 268.605863 150.499398 
L 270.983478 151.129196 
L 273.440348 153.489228 
L 275.897218 142.852858 
L 278.274833 142.659797 
L 280.731703 148.020669 
L 283.109319 139.324826 
L 285.566188 144.401971 
L 288.023058 136.801759 
L 290.242166 152.916508 
L 292.699036 139.636703 
L 295.076651 119.35952 
L 297.533521 134.502523 
L 299.911137 131.034879 
L 302.368006 126.214581 
L 304.824876 140.812796 
L 307.202492 122.057791 
L 309.659361 157.399725 
L 312.036977 125.254277 
L 314.493847 130.437659 
L 316.950716 126.005818 
L 319.249078 92.846576 
L 321.705948 182.538288 
L 324.083564 143.890221 
L 326.540433 154.582939 
L 328.918049 113.944764 
L 331.374919 130.485114 
L 333.831788 150.404641 
L 336.209404 129.18824 
L 338.666274 134.469903 
L 341.043889 124.374652 
L 343.500759 123.068589 
L 345.957629 136.530086 
L 348.176737 115.175839 
L 350.633606 120.002016 
L 353.011222 147.012161 
L 357.845707 117.923108 
L 360.302577 148.988043 
L 362.759447 120.874245 
L 365.137062 150.434854 
L 367.593932 124.03909 
L 369.971548 146.324309 
L 372.428417 122.339992 
L 374.885287 127.993905 
L 377.104395 126.216626 
L 379.561265 131.943716 
L 381.93888 107.48866 
L 384.39575 143.984973 
L 386.773366 115.536781 
L 389.230235 154.76788 
L 391.687105 143.602778 
L 394.064721 127.983379 
L 396.52159 144.2306 
L 398.899206 136.948912 
L 401.356076 130.518008 
L 403.812945 136.883167 
L 406.032053 130.649135 
L 408.488923 138.388447 
L 410.866539 139.701849 
L 413.323408 128.081829 
L 415.701024 134.834123 
L 418.157894 129.185701 
L 420.614763 133.616481 
L 422.992379 142.021716 
L 425.449249 136.006249 
L 427.826864 131.849973 
L 430.283734 144.297698 
L 432.740604 138.551719 
L 435.038966 140.35114 
L 437.495835 134.037366 
L 439.873451 137.019254 
L 442.330321 136.649381 
L 444.707936 124.861751 
L 447.164806 143.146717 
L 449.621676 137.744239 
L 451.999291 125.562942 
L 454.456161 138.812691 
L 456.833777 126.103218 
L 459.290646 144.275073 
L 461.747516 140.370248 
L 463.966624 138.629923 
L 466.423494 140.938201 
L 468.801109 151.357618 
L 471.257979 129.852527 
L 473.635595 128.198241 
L 476.092464 126.811279 
L 478.549334 138.541099 
L 480.92695 137.43111 
L 483.383819 140.05572 
L 485.761435 134.414373 
L 488.218305 140.449603 
L 490.675174 117.152989 
L 492.894282 137.246665 
L 495.351152 124.402592 
L 497.728768 138.650964 
L 500.185637 143.129029 
L 502.563253 135.689659 
L 505.020123 145.813063 
L 507.476992 136.556469 
L 509.854608 143.279031 
L 512.311478 133.008421 
L 514.689093 135.010435 
L 517.145963 141.707724 
L 519.602833 143.45762 
L 521.821941 131.627095 
L 524.27881 136.163996 
L 526.656426 143.981923 
L 529.113296 137.598791 
L 531.490911 135.737574 
L 533.947781 143.532228 
L 536.404651 129.631407 
L 538.782266 146.816716 
L 541.239136 138.20664 
L 543.616752 143.005673 
L 546.073621 138.51179 
L 548.530491 142.604629 
L 550.828853 132.524541 
L 553.285723 125.997248 
L 555.663338 142.003035 
L 558.120208 123.509066 
L 560.497824 129.970384 
L 562.954693 133.251601 
L 565.411563 131.364706 
L 567.789179 133.826038 
L 570.246048 137.560474 
L 572.623664 139.650178 
L 575.080534 130.325762 
L 577.537403 128.246434 
L 582.213381 136.920851 
L 584.590997 125.152328 
L 587.047866 145.925858 
L 589.425482 134.99403 
L 591.882352 131.428599 
L 594.339221 147.918158 
L 596.716837 134.859646 
L 599.173707 144.306637 
L 601.551322 150.249185 
L 604.008192 120.333148 
L 606.465062 135.491213 
L 608.68417 139.48947 
L 611.141039 132.60969 
L 613.518655 123.973042 
L 618.35314 140.701806 
L 620.81001 138.530738 
L 623.26688 147.353153 
L 625.644495 124.945455 
L 628.101365 133.438933 
L 630.478981 123.129033 
L 632.93585 135.812202 
L 635.39272 145.42984 
L 637.611828 133.143741 
L 640.068698 127.702279 
L 642.446313 139.346509 
L 644.903183 139.06573 
L 647.280799 139.543281 
L 649.737668 142.953984 
L 652.194538 145.508277 
L 654.572154 152.563521 
L 657.029023 123.960201 
L 659.406639 135.087509 
L 661.863509 137.693518 
L 664.320378 132.544091 
L 666.61874 147.173197 
L 669.07561 139.58576 
L 671.453226 143.131411 
L 673.910095 137.434726 
L 676.287711 140.083879 
L 678.744581 139.414532 
L 681.20145 137.987548 
L 683.579066 136.9616 
L 686.035936 136.665596 
L 688.413551 135.534775 
L 690.870421 133.297212 
L 693.327291 136.746771 
L 695.546399 140.128532 
L 698.003268 136.633919 
L 700.380884 147.38219 
L 702.837754 131.542452 
L 705.215369 131.080332 
L 707.672239 133.978965 
L 710.129109 141.835583 
L 712.506724 127.702718 
L 714.963594 139.956498 
L 719.798079 135.629387 
L 722.254949 144.989768 
L 724.474057 136.272118 
L 726.930927 133.563646 
L 729.308542 145.096844 
L 731.765412 139.026779 
L 734.143028 131.196525 
L 736.599897 154.566829 
L 739.056767 139.726255 
L 741.434383 149.140603 
L 743.891252 126.749954 
L 746.268868 147.299943 
L 748.725738 128.882871 
L 751.182607 143.832059 
L 753.401715 133.139988 
L 755.858585 126.868943 
L 758.236201 148.758734 
L 760.69307 131.277874 
L 763.070686 134.074146 
L 765.527556 149.232745 
L 767.984425 129.24742 
L 770.362041 139.235728 
L 772.818911 139.107142 
L 775.196526 131.747359 
L 777.653396 145.967982 
L 780.110266 136.519263 
L 782.408628 130.394235 
L 784.865497 136.264345 
L 787.243113 144.377816 
L 789.699983 139.019662 
L 792.077598 138.216781 
L 794.534468 133.057413 
L 796.991338 132.423131 
L 799.368953 135.908142 
L 801.825823 150.825661 
L 804.203439 118.522496 
L 806.660308 133.691235 
L 809.117178 145.271261 
L 811.336286 147.240822 
L 813.793156 137.365993 
L 816.170771 134.809385 
L 818.627641 143.234268 
L 821.005257 134.804375 
L 823.462126 143.231453 
L 825.918996 145.878555 
L 828.296612 117.629965 
L 830.753481 145.719748 
L 833.131097 139.60805 
L 835.587967 147.447664 
L 838.044836 145.579917 
L 840.263944 138.627733 
L 842.720814 127.401139 
L 845.09843 137.340434 
L 847.555299 118.303444 
L 849.932915 140.868978 
L 852.389785 140.965255 
L 854.846654 136.85113 
L 857.22427 147.537982 
L 859.68114 155.761598 
L 862.058755 134.895986 
L 864.515625 137.836695 
L 864.515625 137.836695 
" clip-path="url(#pca23dee710)" style="fill: none; stroke-dasharray: 7.4,3.2; stroke-dashoffset: 0; stroke: #56b4e9; stroke-width: 2"/>
   </g>
   <g id="line2d_20">
    <path d="M 27.515625 139.286753 
L 29.734733 137.879687 
L 32.191603 141.050318 
L 34.569218 145.870756 
L 37.026088 159.104373 
L 39.403704 136.486779 
L 41.860573 149.767573 
L 44.317443 139.80765 
L 46.695059 146.267937 
L 49.151928 158.353382 
L 51.529544 148.162151 
L 53.986414 140.611162 
L 56.443283 129.73621 
L 58.662391 124.664999 
L 61.119261 125.509486 
L 63.496877 130.386755 
L 65.953746 146.984787 
L 68.331362 136.897221 
L 70.788232 144.264598 
L 73.245101 130.122577 
L 75.622717 141.288655 
L 78.079587 139.69447 
L 80.457203 145.618121 
L 82.914072 149.226336 
L 85.370942 97.464058 
L 90.126173 128.04767 
L 92.503789 144.338468 
L 94.960659 126.683516 
L 97.338274 139.632431 
L 99.795144 136.35614 
L 102.252014 137.699867 
L 104.629629 138.637321 
L 107.086499 137.705059 
L 111.920984 123.95569 
L 114.377854 115.862316 
L 116.596962 130.749182 
L 119.053832 132.952451 
L 121.431447 138.247648 
L 123.888317 139.338779 
L 126.265933 134.918367 
L 128.722802 128.052532 
L 131.179672 141.067877 
L 133.557288 129.550674 
L 136.014157 131.708604 
L 138.391773 139.516187 
L 140.848643 137.203148 
L 143.305512 126.160806 
L 145.52462 133.30591 
L 147.98149 136.318275 
L 150.359106 134.28504 
L 152.815975 135.887532 
L 155.193591 131.43454 
L 157.650461 140.295922 
L 160.10733 142.388754 
L 162.484946 128.211186 
L 164.941816 152.782413 
L 167.319431 137.439131 
L 169.776301 135.601319 
L 172.233171 142.282762 
L 174.452279 136.47271 
L 176.909148 142.747203 
L 179.286764 133.500909 
L 181.743634 138.570299 
L 184.121249 135.387741 
L 186.578119 137.996449 
L 189.034989 126.731362 
L 191.412604 147.421267 
L 193.869474 143.519966 
L 196.24709 140.65858 
L 198.703959 135.314422 
L 201.160829 144.537739 
L 203.459191 135.589705 
L 205.916061 132.591268 
L 208.293676 130.602997 
L 210.750546 127.680719 
L 213.128162 141.015563 
L 215.585031 130.264972 
L 218.041901 136.554921 
L 220.419517 143.527483 
L 222.876386 135.924243 
L 225.254002 147.044294 
L 227.710872 124.319154 
L 230.167741 147.305847 
L 232.386849 127.38884 
L 234.843719 119.014964 
L 237.221335 152.900541 
L 239.678204 140.237224 
L 242.05582 123.719962 
L 244.51269 144.509748 
L 246.969559 116.533699 
L 249.347175 130.068225 
L 251.804045 126.712872 
L 254.18166 142.538912 
L 256.63853 132.578292 
L 259.0954 141.72124 
L 261.314508 140.380293 
L 263.771377 140.825292 
L 266.148993 132.926523 
L 268.605863 131.661529 
L 270.983478 149.321962 
L 273.440348 154.385514 
L 275.897218 147.23483 
L 278.274833 152.042121 
L 280.731703 150.803445 
L 283.109319 142.303576 
L 285.566188 149.239155 
L 288.023058 143.344615 
L 290.242166 160.504433 
L 292.699036 164.002576 
L 295.076651 128.694497 
L 297.533521 116.670321 
L 299.911137 127.175488 
L 302.368006 130.628675 
L 304.824876 143.370621 
L 307.202492 140.322251 
L 309.659361 171.910013 
L 312.036977 138.450109 
L 314.493847 144.896422 
L 316.950716 117.193934 
L 319.249078 108.222819 
L 321.705948 159.23381 
L 324.083564 133.847419 
L 326.540433 151.782069 
L 328.918049 118.260043 
L 331.374919 126.9471 
L 333.831788 140.936681 
L 336.209404 128.406587 
L 338.666274 136.077859 
L 341.043889 114.704892 
L 343.500759 123.710996 
L 345.957629 125.032805 
L 348.176737 110.51562 
L 350.633606 124.821799 
L 353.011222 146.526286 
L 355.468092 121.07996 
L 357.845707 127.594765 
L 360.302577 125.57535 
L 362.759447 112.512855 
L 365.137062 155.812298 
L 367.593932 130.058607 
L 369.971548 135.612422 
L 372.428417 123.168686 
L 374.885287 108.409208 
L 377.104395 124.565355 
L 379.561265 118.009734 
L 381.93888 95.084676 
L 384.39575 137.317961 
L 386.773366 109.726531 
L 389.230235 160.591153 
L 391.687105 148.997795 
L 394.064721 125.144603 
L 396.52159 169.809556 
L 398.899206 140.723848 
L 401.356076 123.157523 
L 403.812945 127.879848 
L 406.032053 143.097314 
L 408.488923 134.93546 
L 410.866539 138.715655 
L 413.323408 129.188733 
L 415.701024 127.493758 
L 418.157894 123.13124 
L 420.614763 123.913932 
L 422.992379 123.06429 
L 425.449249 119.012998 
L 427.826864 125.321576 
L 430.283734 140.931177 
L 432.740604 114.610214 
L 435.038966 144.669535 
L 437.495835 134.114793 
L 439.873451 156.295197 
L 442.330321 140.445301 
L 444.707936 129.508248 
L 447.164806 140.155944 
L 449.621676 140.055977 
L 451.999291 135.545343 
L 454.456161 141.632642 
L 456.833777 125.509825 
L 459.290646 136.986645 
L 461.747516 136.078841 
L 463.966624 133.62347 
L 466.423494 134.356744 
L 468.801109 149.22801 
L 471.257979 133.825328 
L 473.635595 123.841436 
L 476.092464 132.826513 
L 478.549334 138.987251 
L 480.92695 141.635697 
L 483.383819 137.247436 
L 485.761435 138.267263 
L 488.218305 139.980475 
L 490.675174 124.244599 
L 492.894282 139.949968 
L 495.351152 123.762735 
L 497.728768 139.843948 
L 500.185637 138.047453 
L 502.563253 138.41435 
L 505.020123 141.336096 
L 507.476992 136.648798 
L 509.854608 140.146596 
L 512.311478 137.035322 
L 514.689093 135.313214 
L 517.145963 132.94808 
L 519.602833 136.475911 
L 521.821941 138.15395 
L 524.27881 142.527904 
L 526.656426 151.098619 
L 529.113296 141.273506 
L 531.490911 138.590742 
L 533.947781 160.449521 
L 536.404651 149.625917 
L 538.782266 152.196785 
L 541.239136 148.411655 
L 543.616752 152.022629 
L 546.073621 140.519801 
L 548.530491 124.62806 
L 550.828853 140.270338 
L 553.285723 132.516351 
L 555.663338 154.140242 
L 558.120208 138.821848 
L 560.497824 140.912233 
L 562.954693 117.759977 
L 565.411563 111.070137 
L 567.789179 131.731027 
L 572.623664 162.56502 
L 575.080534 123.441673 
L 577.537403 172.716203 
L 579.756511 159.997229 
L 582.213381 132.555144 
L 584.590997 115.571937 
L 587.047866 150.201638 
L 589.425482 141.742467 
L 591.882352 113.026107 
L 594.339221 115.239464 
L 596.716837 123.935195 
L 599.173707 165.804742 
L 601.551322 136.390632 
L 604.008192 118.430311 
L 606.465062 133.206128 
L 608.68417 118.446585 
L 611.141039 127.677139 
L 613.518655 104.566488 
L 615.975525 155.799823 
L 618.35314 164.287005 
L 620.81001 135.180031 
L 623.26688 153.998792 
L 625.644495 135.797369 
L 628.101365 137.183099 
L 630.478981 128.136122 
L 632.93585 128.908837 
L 635.39272 143.617876 
L 637.611828 131.37405 
L 640.068698 136.633301 
L 642.446313 146.137279 
L 644.903183 146.261358 
L 647.280799 137.938601 
L 649.737668 136.581383 
L 652.194538 151.682764 
L 654.572154 147.499954 
L 657.029023 137.8072 
L 659.406639 134.450855 
L 661.863509 135.113709 
L 664.320378 138.505715 
L 666.61874 143.593982 
L 669.07561 137.95152 
L 671.453226 135.484963 
L 673.910095 136.607958 
L 676.287711 136.448029 
L 678.744581 145.163479 
L 681.20145 134.068596 
L 683.579066 133.150378 
L 686.035936 133.587017 
L 688.413551 136.611083 
L 690.870421 127.199274 
L 693.327291 140.150024 
L 695.546399 137.092118 
L 698.003268 136.609857 
L 700.380884 142.740726 
L 702.837754 132.310074 
L 705.215369 134.219222 
L 707.672239 129.491717 
L 710.129109 143.912754 
L 712.506724 131.76578 
L 714.963594 134.832702 
L 717.34121 133.994578 
L 719.798079 141.210941 
L 722.254949 141.930496 
L 724.474057 133.272404 
L 726.930927 133.073266 
L 729.308542 143.093154 
L 731.765412 143.953904 
L 734.143028 135.213339 
L 736.599897 148.397823 
L 739.056767 136.713513 
L 741.434383 157.15637 
L 743.891252 130.584083 
L 746.268868 152.540373 
L 748.725738 126.312018 
L 751.182607 145.780595 
L 753.401715 145.571535 
L 755.858585 131.316568 
L 758.236201 139.422883 
L 760.69307 143.144372 
L 763.070686 132.287911 
L 765.527556 170.78959 
L 767.984425 119.431708 
L 770.362041 139.973952 
L 772.818911 143.843287 
L 775.196526 129.941845 
L 777.653396 158.565717 
L 780.110266 131.101079 
L 782.408628 134.309972 
L 784.865497 132.520302 
L 787.243113 127.008838 
L 789.699983 143.937784 
L 792.077598 135.728704 
L 794.534468 132.770102 
L 796.991338 128.580912 
L 799.368953 133.573473 
L 801.825823 136.361812 
L 804.203439 104.01857 
L 806.660308 123.483678 
L 809.117178 148.752696 
L 811.336286 152.844537 
L 813.793156 142.327867 
L 816.170771 140.068706 
L 818.627641 158.043473 
L 821.005257 132.93221 
L 823.462126 143.380115 
L 825.918996 147.932717 
L 828.296612 117.788967 
L 830.753481 141.291998 
L 833.131097 139.388649 
L 835.587967 142.303149 
L 838.044836 152.898349 
L 840.263944 138.286219 
L 842.720814 120.99649 
L 845.09843 128.615793 
L 847.555299 129.943245 
L 849.932915 138.142352 
L 852.389785 148.211595 
L 854.846654 143.745287 
L 857.22427 148.182667 
L 859.68114 139.644386 
L 862.058755 143.282694 
L 864.515625 137.836695 
L 864.515625 137.836695 
" clip-path="url(#pca23dee710)" style="fill: none; stroke-dasharray: 12.8,3.2,2,3.2; stroke-dashoffset: 0; stroke: #009e73; stroke-width: 2"/>
   </g>
   <g id="line2d_21">
    <path d="M 27.515625 137.353582 
L 29.734733 149.820237 
L 32.191603 128.799126 
L 34.569218 122.543885 
L 37.026088 118.73124 
L 39.403704 128.070797 
L 41.860573 129.877351 
L 44.317443 128.767483 
L 46.695059 128.321338 
L 49.151928 113.797234 
L 51.529544 133.409848 
L 53.986414 133.635165 
L 56.443283 139.615844 
L 58.662391 145.318027 
L 61.119261 140.61121 
L 63.496877 143.192819 
L 65.953746 134.094097 
L 68.331362 142.200053 
L 70.788232 129.173195 
L 73.245101 136.521078 
L 75.622717 148.856501 
L 78.079587 141.4191 
L 82.914072 106.601401 
L 85.370942 179.510501 
L 87.669304 155.667554 
L 90.126173 141.471325 
L 92.503789 137.451286 
L 94.960659 136.591183 
L 97.338274 137.586811 
L 99.795144 132.274609 
L 102.252014 126.573953 
L 104.629629 137.058638 
L 107.086499 134.661202 
L 109.464115 145.307017 
L 111.920984 152.089836 
L 114.377854 163.785701 
L 116.596962 152.348467 
L 119.053832 143.618873 
L 121.431447 154.2222 
L 123.888317 133.599542 
L 126.265933 151.680879 
L 128.722802 155.055616 
L 131.179672 140.619631 
L 133.557288 151.661024 
L 136.014157 127.940518 
L 138.391773 122.590206 
L 140.848643 144.587769 
L 143.305512 142.018073 
L 145.52462 137.783218 
L 147.98149 138.791131 
L 150.359106 139.550625 
L 152.815975 127.66876 
L 155.193591 140.191903 
L 157.650461 135.637793 
L 160.10733 134.364472 
L 162.484946 137.653421 
L 164.941816 129.446326 
L 167.319431 134.186083 
L 169.776301 135.736467 
L 172.233171 133.864593 
L 174.452279 138.802896 
L 176.909148 131.955438 
L 179.286764 139.797637 
L 181.743634 136.557964 
L 184.121249 141.02182 
L 186.578119 144.680904 
L 189.034989 151.980315 
L 191.412604 129.248925 
L 193.869474 115.282162 
L 196.24709 137.238947 
L 198.703959 144.339083 
L 201.160829 128.84719 
L 203.459191 142.820929 
L 205.916061 147.496592 
L 208.293676 144.102978 
L 210.750546 140.261436 
L 213.128162 124.007714 
L 215.585031 131.720593 
L 218.041901 151.449606 
L 220.419517 122.04812 
L 222.876386 137.991765 
L 225.254002 126.82818 
L 227.710872 150.598238 
L 230.167741 124.521278 
L 232.386849 135.289058 
L 234.843719 143.589782 
L 237.221335 107.986281 
L 239.678204 149.233134 
L 242.05582 139.867019 
L 244.51269 131.071947 
L 246.969559 172.97977 
L 249.347175 150.157799 
L 251.804045 135.325307 
L 254.18166 112.529441 
L 256.63853 139.840134 
L 259.0954 117.967299 
L 261.314508 140.798848 
L 263.771377 139.449855 
L 266.148993 141.266408 
L 268.605863 129.996469 
L 270.983478 112.077599 
L 273.440348 108.560103 
L 275.897218 105.665463 
L 278.274833 125.699873 
L 280.731703 121.720019 
L 283.109319 132.562915 
L 285.566188 114.646153 
L 288.023058 117.901904 
L 290.242166 132.743355 
L 292.699036 119.818666 
L 295.076651 171.079575 
L 297.533521 157.774034 
L 299.911137 126.576932 
L 302.368006 142.920688 
L 304.824876 119.811492 
L 307.202492 132.881852 
L 309.659361 111.706068 
L 312.036977 139.339069 
L 314.493847 134.622139 
L 316.950716 152.509364 
L 319.249078 180.770099 
L 321.705948 95.351156 
L 324.083564 132.999573 
L 326.540433 141.73269 
L 328.918049 142.097775 
L 331.374919 159.447127 
L 333.831788 135.328778 
L 336.209404 165.496403 
L 338.666274 139.086469 
L 341.043889 168.407463 
L 343.500759 178.441687 
L 345.957629 146.32556 
L 348.176737 187.602233 
L 350.633606 168.972103 
L 353.011222 122.476408 
L 355.468092 158.501329 
L 357.845707 162.604759 
L 360.302577 129.813028 
L 362.759447 150.278735 
L 365.137062 110.99128 
L 367.593932 137.303397 
L 369.971548 142.810412 
L 372.428417 161.3076 
L 374.885287 136.623091 
L 377.104395 133.969089 
L 379.561265 157.133617 
L 381.93888 171.673218 
L 384.39575 128.737453 
L 386.773366 145.272667 
L 389.230235 93.828423 
L 391.687105 146.727686 
L 394.064721 151.975239 
L 396.52159 112.179981 
L 398.899206 154.803339 
L 401.356076 141.290783 
L 403.812945 138.46955 
L 406.032053 127.371292 
L 408.488923 131.566517 
L 410.866539 149.382454 
L 413.323408 163.437423 
L 415.701024 141.653927 
L 418.157894 154.003354 
L 420.614763 148.915235 
L 422.992379 136.812808 
L 425.449249 153.270616 
L 427.826864 150.200879 
L 430.283734 131.318288 
L 432.740604 151.552272 
L 435.038966 139.47742 
L 437.495835 149.160125 
L 439.873451 116.2133 
L 442.330321 136.852641 
L 444.707936 147.633178 
L 447.164806 134.420969 
L 449.621676 137.689229 
L 451.999291 153.364342 
L 454.456161 139.373307 
L 456.833777 156.90147 
L 459.290646 138.192345 
L 461.747516 139.023951 
L 463.966624 138.029019 
L 466.423494 133.064993 
L 468.801109 121.804139 
L 471.257979 146.715865 
L 473.635595 159.577673 
L 476.092464 141.725617 
L 478.549334 138.981908 
L 480.92695 140.826493 
L 483.383819 130.434084 
L 485.761435 137.602052 
L 488.218305 142.663091 
L 490.675174 163.843526 
L 492.894282 137.108951 
L 495.351152 147.262569 
L 497.728768 145.218907 
L 500.185637 130.197924 
L 502.563253 139.290898 
L 505.020123 132.161841 
L 507.476992 131.5591 
L 509.854608 132.3545 
L 512.311478 144.523523 
L 514.689093 141.086029 
L 517.145963 143.879041 
L 519.602833 136.499947 
L 521.821941 144.16688 
L 524.27881 139.301493 
L 526.656426 126.160678 
L 529.113296 140.533335 
L 531.490911 135.201556 
L 533.947781 113.040634 
L 536.404651 134.943286 
L 538.782266 120.744272 
L 541.239136 128.905982 
L 543.616752 118.355769 
L 546.073621 137.257695 
L 548.530491 147.507266 
L 550.828853 127.583682 
L 553.285723 129.385772 
L 555.663338 140.105109 
L 558.120208 143.051343 
L 560.497824 127.312345 
L 562.954693 158.976362 
L 565.411563 146.876414 
L 567.789179 151.73114 
L 570.246048 105.963019 
L 572.623664 102.194809 
L 575.080534 147.079862 
L 577.537403 92.643326 
L 579.756511 106.442731 
L 582.213381 148.886211 
L 584.590997 175.398866 
L 587.047866 137.309763 
L 589.425482 140.700884 
L 591.882352 152.913895 
L 594.339221 156.191893 
L 596.716837 149.786386 
L 599.173707 103.253436 
L 601.551322 120.365209 
L 604.008192 158.794051 
L 606.465062 143.644221 
L 608.68417 146.269146 
L 611.141039 150.565777 
L 613.518655 158.168353 
L 615.975525 134.351355 
L 618.35314 118.30455 
L 620.81001 138.211505 
L 623.26688 121.916058 
L 625.644495 141.061746 
L 628.101365 131.414007 
L 630.478981 146.445056 
L 632.93585 156.588981 
L 635.39272 132.618816 
L 637.611828 150.979643 
L 640.068698 144.900808 
L 642.446313 128.740691 
L 644.903183 128.5041 
L 647.280799 135.058528 
L 649.737668 121.021286 
L 652.194538 110.526926 
L 654.572154 115.153567 
L 657.029023 157.096512 
L 659.406639 133.677824 
L 661.863509 143.696461 
L 664.320378 140.764397 
L 666.61874 132.823249 
L 669.07561 134.023574 
L 671.453226 132.484874 
L 673.910095 131.271035 
L 676.287711 148.159332 
L 678.744581 125.218327 
L 681.20145 142.830829 
L 683.579066 147.244802 
L 686.035936 144.369089 
L 688.413551 134.924429 
L 690.870421 156.8441 
L 693.327291 148.438182 
L 695.546399 136.827713 
L 698.003268 141.569134 
L 700.380884 129.414174 
L 702.837754 152.882583 
L 705.215369 145.203676 
L 707.672239 143.451492 
L 710.129109 129.641483 
L 712.506724 141.599842 
L 714.963594 133.365932 
L 717.34121 141.8312 
L 719.798079 139.605704 
L 722.254949 139.616441 
L 724.474057 134.386782 
L 726.930927 145.987929 
L 729.308542 122.128876 
L 731.765412 128.433429 
L 734.143028 152.983483 
L 736.599897 120.48393 
L 739.056767 135.014651 
L 741.434383 119.39616 
L 743.891252 145.769492 
L 746.268868 121.357693 
L 748.725738 156.347183 
L 751.182607 120.806284 
L 753.401715 136.35515 
L 755.858585 147.885145 
L 758.236201 132.32073 
L 760.69307 140.950915 
L 763.070686 148.420316 
L 765.527556 113.797262 
L 767.984425 139.328023 
L 770.362041 122.741802 
L 772.818911 129.436015 
L 775.196526 150.272101 
L 777.653396 120.660546 
L 780.110266 118.45602 
L 782.408628 136.669209 
L 784.865497 144.127634 
L 787.243113 155.963387 
L 789.699983 133.107758 
L 792.077598 135.368623 
L 794.534468 137.3255 
L 796.991338 153.213035 
L 799.368953 141.695765 
L 801.825823 129.107695 
L 804.203439 182.696339 
L 806.660308 143.725629 
L 809.117178 122.978691 
L 811.336286 127.175494 
L 813.793156 130.462056 
L 816.170771 130.762646 
L 818.627641 113.024209 
L 821.005257 155.844839 
L 823.462126 130.40479 
L 825.918996 123.663887 
L 828.296612 161.609337 
L 830.753481 127.516124 
L 833.131097 135.744793 
L 835.587967 136.024085 
L 838.044836 123.384964 
L 840.263944 130.499281 
L 842.720814 149.574453 
L 845.09843 140.26893 
L 847.555299 141.73993 
L 849.932915 135.033053 
L 852.389785 133.473059 
L 854.846654 123.886094 
L 857.22427 125.229084 
L 859.68114 132.486904 
L 862.058755 139.095514 
L 864.515625 137.836695 
L 864.515625 137.836695 
" clip-path="url(#pca23dee710)" style="fill: none; stroke-dasharray: 2,3.3; stroke-dashoffset: 0; stroke: #0072b2; stroke-width: 2"/>
   </g>
   <g id="line2d_22">
    <path d="M 27.515625 127.918188 
L 29.734733 138.174483 
L 32.191603 146.095381 
L 34.569218 139.544744 
L 37.026088 131.709479 
L 39.403704 152.64671 
L 41.860573 120.210981 
L 44.317443 114.928851 
L 46.695059 113.819194 
L 49.151928 131.083915 
L 51.529544 136.780777 
L 53.986414 141.987397 
L 56.443283 158.580475 
L 58.662391 153.999794 
L 61.119261 159.923827 
L 63.496877 135.887461 
L 65.953746 145.322844 
L 68.331362 138.47137 
L 70.788232 137.795946 
L 73.245101 146.416076 
L 75.622717 133.718151 
L 78.079587 140.631234 
L 80.457203 138.78204 
L 82.914072 147.424329 
L 85.370942 174.057504 
L 87.669304 152.487062 
L 90.126173 131.247641 
L 92.503789 105.626958 
L 94.960659 139.419507 
L 97.338274 128.235115 
L 99.795144 130.818743 
L 102.252014 133.666375 
L 104.629629 141.644959 
L 107.086499 155.580424 
L 109.464115 158.103647 
L 111.920984 143.279298 
L 114.377854 146.693911 
L 116.596962 110.056261 
L 119.053832 135.189239 
L 121.431447 124.911202 
L 123.888317 144.377469 
L 126.265933 137.043681 
L 128.722802 133.60693 
L 131.179672 137.450759 
L 133.557288 141.483772 
L 136.014157 149.751653 
L 138.391773 140.749121 
L 140.848643 141.402941 
L 143.305512 128.160354 
L 145.52462 146.637606 
L 147.98149 133.781035 
L 150.359106 131.946673 
L 152.815975 126.790115 
L 155.193591 131.944882 
L 157.650461 128.704403 
L 160.10733 148.516801 
L 162.484946 148.708922 
L 164.941816 124.354184 
L 167.319431 136.274926 
L 169.776301 137.625922 
L 172.233171 132.140891 
L 174.452279 138.54695 
L 176.909148 130.564059 
L 179.286764 136.738105 
L 181.743634 131.694128 
L 184.121249 151.326496 
L 186.578119 143.617138 
L 189.034989 146.541522 
L 191.412604 138.188106 
L 193.869474 125.934506 
L 196.24709 135.261396 
L 198.703959 134.185771 
L 201.160829 129.880668 
L 203.459191 144.518105 
L 205.916061 136.651637 
L 208.293676 148.972191 
L 210.750546 156.888412 
L 213.128162 129.605592 
L 215.585031 118.354902 
L 218.041901 140.592858 
L 220.419517 138.509036 
L 222.876386 117.579658 
L 225.254002 125.760545 
L 227.710872 149.458966 
L 230.167741 135.953751 
L 232.386849 135.525143 
L 234.843719 123.643548 
L 237.221335 124.372514 
L 239.678204 155.520252 
L 242.05582 142.508324 
L 244.51269 125.831645 
L 246.969559 161.299949 
L 249.347175 143.880463 
L 254.18166 128.220468 
L 256.63853 129.676289 
L 259.0954 147.69457 
L 261.314508 133.416054 
L 263.771377 138.094524 
L 266.148993 134.511473 
L 268.605863 131.401791 
L 270.983478 137.493978 
L 273.440348 117.791572 
L 275.897218 145.803589 
L 278.274833 154.33842 
L 280.731703 119.52088 
L 283.109319 141.239737 
L 285.566188 151.299601 
L 288.023058 142.579596 
L 290.242166 108.108726 
L 292.699036 117.909972 
L 295.076651 136.688718 
L 297.533521 149.000553 
L 299.911137 150.659179 
L 302.368006 148.385757 
L 304.824876 143.428291 
L 307.202492 158.839536 
L 309.659361 106.048543 
L 312.036977 182.92024 
L 314.493847 178.092195 
L 316.950716 147.426186 
L 319.249078 221.650143 
L 321.705948 81.578534 
L 324.083564 107.214638 
L 326.540433 115.696032 
L 328.918049 202.118808 
L 331.374919 114.323765 
L 333.831788 133.174643 
L 336.209404 114.864663 
L 338.666274 127.078955 
L 341.043889 118.072575 
L 343.500759 121.730967 
L 345.957629 156.352355 
L 348.176737 116.450811 
L 350.633606 124.657488 
L 353.011222 147.351591 
L 355.468092 147.759072 
L 357.845707 155.125292 
L 360.302577 125.946861 
L 362.759447 129.360287 
L 365.137062 121.794087 
L 367.593932 155.187275 
L 369.971548 150.308064 
L 372.428417 146.619648 
L 374.885287 141.337876 
L 377.104395 116.313085 
L 379.561265 145.143321 
L 381.93888 127.273476 
L 384.39575 116.501805 
L 386.773366 134.626189 
L 389.230235 111.033821 
L 391.687105 134.888402 
L 394.064721 147.872208 
L 396.52159 146.020502 
L 398.899206 151.943576 
L 401.356076 126.035307 
L 403.812945 131.511205 
L 406.032053 133.987578 
L 408.488923 139.807329 
L 410.866539 143.426132 
L 413.323408 149.100903 
L 415.701024 141.807567 
L 418.157894 147.777248 
L 420.614763 152.481488 
L 422.992379 132.728414 
L 425.449249 141.212671 
L 427.826864 145.055988 
L 430.283734 132.743223 
L 432.740604 145.221663 
L 435.038966 131.563081 
L 437.495835 141.756908 
L 439.873451 140.366536 
L 442.330321 136.722581 
L 444.707936 147.34205 
L 447.164806 120.122773 
L 449.621676 125.987383 
L 451.999291 147.754799 
L 454.456161 143.278803 
L 456.833777 150.23493 
L 459.290646 138.441141 
L 461.747516 127.35037 
L 463.966624 138.647387 
L 466.423494 142.639186 
L 468.801109 125.816784 
L 471.257979 150.421423 
L 473.635595 142.954954 
L 476.092464 153.864757 
L 478.549334 136.611558 
L 480.92695 135.572889 
L 483.383819 134.093445 
L 485.761435 139.916325 
L 488.218305 129.414537 
L 490.675174 152.349818 
L 492.894282 130.757548 
L 495.351152 151.290655 
L 497.728768 130.562719 
L 500.185637 130.902131 
L 502.563253 137.442095 
L 505.020123 119.016418 
L 507.476992 140.032675 
L 509.854608 133.40926 
L 512.311478 147.404039 
L 514.689093 138.807116 
L 517.145963 133.062909 
L 519.602833 137.029406 
L 521.821941 141.515157 
L 524.27881 133.177522 
L 526.656426 133.76033 
L 529.113296 135.437569 
L 531.490911 143.435695 
L 533.947781 132.338627 
L 536.404651 132.192947 
L 538.782266 137.956489 
L 541.239136 140.152987 
L 543.616752 135.490373 
L 546.073621 140.244804 
L 548.530491 130.895269 
L 550.828853 137.596324 
L 553.285723 150.461502 
L 555.663338 125.447278 
L 558.120208 153.6254 
L 560.497824 144.730366 
L 562.954693 171.418153 
L 565.411563 149.562961 
L 567.789179 152.206496 
L 570.246048 119.452796 
L 572.623664 103.224614 
L 575.080534 151.342539 
L 577.537403 121.612472 
L 579.756511 136.189131 
L 582.213381 146.551316 
L 584.590997 160.84988 
L 587.047866 127.363101 
L 589.425482 152.903771 
L 591.882352 144.06217 
L 594.339221 142.069255 
L 596.716837 141.958659 
L 599.173707 119.506397 
L 601.551322 132.264866 
L 604.008192 151.42244 
L 606.465062 128.697495 
L 608.68417 147.217326 
L 611.141039 141.307853 
L 613.518655 146.162211 
L 615.975525 142.412101 
L 618.35314 127.037252 
L 620.81001 132.405304 
L 623.26688 121.186039 
L 625.644495 147.58054 
L 628.101365 135.774649 
L 630.478981 147.298279 
L 632.93585 139.117056 
L 635.39272 129.257284 
L 637.611828 138.967735 
L 640.068698 137.04759 
L 642.446313 135.473355 
L 644.903183 134.112081 
L 647.280799 137.111683 
L 649.737668 135.960781 
L 652.194538 128.374525 
L 654.572154 119.501796 
L 657.029023 144.130866 
L 659.406639 127.327253 
L 661.863509 130.229514 
L 664.320378 154.043354 
L 666.61874 138.78988 
L 669.07561 149.70267 
L 671.453226 130.386217 
L 673.910095 134.50609 
L 676.287711 137.193018 
L 678.744581 124.221834 
L 681.20145 146.04132 
L 683.579066 138.980658 
L 686.035936 140.015204 
L 688.413551 140.331564 
L 690.870421 147.768563 
L 693.327291 138.375279 
L 695.546399 136.748718 
L 698.003268 139.727135 
L 700.380884 133.183187 
L 702.837754 156.132308 
L 705.215369 135.999191 
L 707.672239 148.034253 
L 710.129109 139.32269 
L 712.506724 147.044408 
L 714.963594 129.66293 
L 717.34121 150.841567 
L 719.798079 129.456838 
L 722.254949 139.678485 
L 724.474057 136.559883 
L 726.930927 136.922128 
L 729.308542 118.279877 
L 731.765412 131.36171 
L 734.143028 145.623771 
L 736.599897 122.214278 
L 739.056767 144.96721 
L 741.434383 129.995866 
L 743.891252 153.58187 
L 746.268868 128.905871 
L 748.725738 146.896418 
L 751.182607 132.772911 
L 753.401715 140.108868 
L 755.858585 148.950041 
L 758.236201 126.112987 
L 760.69307 139.103759 
L 763.070686 149.156136 
L 765.527556 125.161277 
L 767.984425 135.434762 
L 770.362041 127.113086 
L 772.818911 127.027679 
L 775.196526 155.264196 
L 777.653396 127.297369 
L 780.110266 118.232982 
L 782.408628 132.672735 
L 784.865497 142.79201 
L 787.243113 143.579793 
L 789.699983 135.745908 
L 792.077598 131.507196 
L 794.534468 154.340509 
L 796.991338 146.976323 
L 799.368953 145.133025 
L 801.825823 131.118744 
L 804.203439 163.886004 
L 806.660308 140.815461 
L 809.117178 137.498741 
L 811.336286 137.612195 
L 813.793156 139.448803 
L 816.170771 139.799752 
L 818.627641 131.515894 
L 821.005257 151.408662 
L 823.462126 135.755318 
L 825.918996 133.092512 
L 828.296612 153.486424 
L 830.753481 137.801988 
L 833.131097 136.09699 
L 835.587967 134.906597 
L 838.044836 129.036571 
L 840.263944 145.287948 
L 842.720814 148.50823 
L 845.09843 143.30538 
L 847.555299 153.821284 
L 849.932915 138.977931 
L 852.389785 133.328248 
L 854.846654 147.439157 
L 857.22427 124.630592 
L 859.68114 116.278274 
L 862.058755 133.770393 
L 864.515625 137.836695 
L 864.515625 137.836695 
" clip-path="url(#pca23dee710)" style="fill: none; stroke: #d55e00; stroke-width: 2; stroke-linecap: square"/>
   </g>
   <g id="line2d_23">
    <path d="M 27.515625 134.904373 
L 29.734733 135.105626 
L 32.191603 153.088619 
L 34.569218 146.725917 
L 37.026088 139.813058 
L 39.403704 146.71957 
L 41.860573 131.701707 
L 44.317443 130.063138 
L 46.695059 132.37414 
L 49.151928 111.712744 
L 51.529544 147.274511 
L 53.986414 145.636853 
L 56.443283 150.766769 
L 58.662391 150.109074 
L 61.119261 150.17275 
L 63.496877 139.162911 
L 65.953746 130.308242 
L 68.331362 134.169892 
L 70.788232 137.743237 
L 73.245101 145.792113 
L 75.622717 147.327119 
L 78.079587 139.353947 
L 80.457203 145.351151 
L 82.914072 139.14513 
L 85.370942 140.30125 
L 87.669304 113.680953 
L 90.126173 130.218379 
L 92.503789 110.39582 
L 94.960659 141.501049 
L 97.338274 116.446706 
L 99.795144 145.892697 
L 102.252014 151.993448 
L 104.629629 140.049349 
L 107.086499 143.593697 
L 109.464115 145.302645 
L 111.920984 134.385944 
L 114.377854 121.188777 
L 116.596962 116.559599 
L 119.053832 136.979314 
L 121.431447 127.543198 
L 123.888317 155.125994 
L 126.265933 121.955916 
L 128.722802 134.254363 
L 131.179672 136.658541 
L 133.557288 150.107599 
L 136.014157 155.542415 
L 138.391773 137.49823 
L 140.848643 139.388485 
L 143.305512 146.621713 
L 145.52462 157.343861 
L 147.98149 129.701375 
L 150.359106 132.864335 
L 152.815975 137.705031 
L 155.193591 137.149557 
L 157.650461 131.661403 
L 160.10733 144.327914 
L 162.484946 158.76401 
L 164.941816 137.716547 
L 167.319431 145.661332 
L 169.776301 142.277741 
L 172.233171 113.377258 
L 174.452279 129.852417 
L 176.909148 149.446411 
L 179.286764 132.22766 
L 181.743634 120.731746 
L 184.121249 151.459324 
L 186.578119 144.792448 
L 189.034989 128.07587 
L 191.412604 124.972439 
L 193.869474 133.697825 
L 196.24709 130.631885 
L 198.703959 141.813241 
L 201.160829 128.146945 
L 203.459191 143.498896 
L 205.916061 143.91189 
L 208.293676 170.505383 
L 210.750546 146.653684 
L 213.128162 119.363698 
L 215.585031 117.757526 
L 218.041901 144.692255 
L 220.419517 143.623894 
L 222.876386 114.210994 
L 225.254002 123.099919 
L 227.710872 144.731117 
L 230.167741 134.567095 
L 232.386849 110.640749 
L 234.843719 142.574511 
L 237.221335 124.985441 
L 239.678204 156.030314 
L 242.05582 142.704023 
L 244.51269 131.143197 
L 246.969559 151.481802 
L 249.347175 142.918613 
L 251.804045 134.667717 
L 254.18166 122.662264 
L 256.63853 119.761056 
L 259.0954 137.237261 
L 261.314508 142.211855 
L 263.771377 125.233652 
L 266.148993 138.416497 
L 268.605863 117.412828 
L 270.983478 132.621795 
L 273.440348 135.857165 
L 275.897218 93.594582 
L 278.274833 134.286821 
L 283.109319 151.160814 
L 285.566188 142.859479 
L 288.023058 160.323494 
L 290.242166 109.086307 
L 292.699036 138.596191 
L 295.076651 141.726525 
L 297.533521 139.667105 
L 299.911137 165.599734 
L 302.368006 148.544586 
L 304.824876 140.717132 
L 307.202492 156.426507 
L 309.659361 131.573099 
L 312.036977 159.698461 
L 314.493847 165.375739 
L 316.950716 172.360037 
L 319.249078 206.588785 
L 321.705948 69.616634 
L 324.083564 103.652296 
L 326.540433 94.296189 
L 328.918049 189.986277 
L 331.374919 109.407988 
L 333.831788 139.339884 
L 336.209404 114.779833 
L 338.666274 108.199428 
L 341.043889 90.956384 
L 343.500759 120.111903 
L 345.957629 173.962904 
L 348.176737 101.403664 
L 350.633606 122.427654 
L 353.011222 148.784395 
L 355.468092 131.179823 
L 357.845707 156.707962 
L 360.302577 115.034909 
L 362.759447 159.825358 
L 365.137062 110.732965 
L 367.593932 192.808617 
L 369.971548 116.146487 
L 372.428417 150.552304 
L 374.885287 147.482396 
L 377.104395 152.944749 
L 379.561265 150.379942 
L 381.93888 174.862467 
L 384.39575 135.574961 
L 386.773366 179.037331 
L 389.230235 148.998847 
L 391.687105 103.864443 
L 394.064721 139.893044 
L 396.52159 123.2446 
L 398.899206 136.038016 
L 401.356076 147.05896 
L 403.812945 156.951084 
L 406.032053 147.435316 
L 408.488923 152.21615 
L 410.866539 126.316841 
L 413.323408 143.356496 
L 415.701024 147.006696 
L 418.157894 159.764562 
L 420.614763 136.806134 
L 422.992379 151.942871 
L 425.449249 143.793186 
L 427.826864 138.281891 
L 430.283734 123.858746 
L 432.740604 141.117769 
L 435.038966 127.156662 
L 437.495835 139.686893 
L 439.873451 139.527322 
L 442.330321 137.983312 
L 444.707936 140.315233 
L 447.164806 119.183728 
L 449.621676 135.141546 
L 451.999291 141.321867 
L 454.456161 132.278009 
L 456.833777 141.100767 
L 459.290646 136.572624 
L 461.747516 129.549504 
L 463.966624 131.318173 
L 466.423494 123.617548 
L 468.801109 125.229282 
L 471.257979 143.570574 
L 473.635595 135.885773 
L 476.092464 145.329984 
L 478.549334 128.154705 
L 480.92695 130.695385 
L 483.383819 136.315852 
L 485.761435 145.471595 
L 488.218305 137.282663 
L 490.675174 147.773781 
L 492.894282 141.824999 
L 495.351152 148.033728 
L 497.728768 123.790284 
L 500.185637 121.830739 
L 502.563253 132.900282 
L 505.020123 122.266837 
L 507.476992 151.874632 
L 509.854608 134.477018 
L 512.311478 138.207014 
L 514.689093 140.381051 
L 517.145963 125.360215 
L 519.602833 141.194265 
L 521.821941 139.720422 
L 524.27881 142.630548 
L 526.656426 132.849578 
L 529.113296 139.845442 
L 531.490911 142.376407 
L 533.947781 140.935291 
L 536.404651 145.124768 
L 538.782266 133.222209 
L 541.239136 145.239589 
L 543.616752 128.838577 
L 546.073621 137.259024 
L 548.530491 124.282182 
L 550.828853 143.908806 
L 553.285723 140.76063 
L 555.663338 131.615221 
L 558.120208 145.290675 
L 560.497824 154.824704 
L 562.954693 108.377716 
L 565.411563 151.750476 
L 567.789179 96.358897 
L 570.246048 156.125515 
L 572.623664 176.364562 
L 575.080534 148.306647 
L 577.537403 200.0895 
L 579.756511 171.470776 
L 582.213381 118.377241 
L 584.590997 123.969934 
L 587.047866 124.908862 
L 589.425482 145.633564 
L 591.882352 133.513029 
L 594.339221 105.057572 
L 596.716837 144.631449 
L 599.173707 145.204807 
L 601.551322 138.022621 
L 604.008192 160.229337 
L 608.68417 131.324236 
L 611.141039 135.274253 
L 613.518655 155.548935 
L 615.975525 137.737729 
L 618.35314 148.797474 
L 620.81001 144.759489 
L 623.26688 138.655704 
L 625.644495 160.323042 
L 628.101365 157.174534 
L 630.478981 156.402786 
L 632.93585 124.541926 
L 635.39272 127.168566 
L 637.611828 138.052879 
L 640.068698 156.434345 
L 642.446313 145.639496 
L 644.903183 144.93113 
L 647.280799 140.086703 
L 649.737668 143.571171 
L 652.194538 141.782084 
L 654.572154 142.572886 
L 657.029023 141.041749 
L 659.406639 150.867473 
L 661.863509 133.766752 
L 664.320378 137.744299 
L 666.61874 124.200045 
L 669.07561 123.588789 
L 671.453226 146.456069 
L 673.910095 148.453824 
L 676.287711 134.517629 
L 678.744581 136.677666 
L 681.20145 129.127949 
L 683.579066 132.130942 
L 686.035936 117.531979 
L 688.413551 144.4806 
L 690.870421 123.208352 
L 693.327291 129.83012 
L 695.546399 137.250108 
L 698.003268 139.894301 
L 700.380884 127.55299 
L 702.837754 120.696949 
L 705.215369 145.568849 
L 707.672239 139.460416 
L 710.129109 147.343387 
L 712.506724 152.050151 
L 714.963594 135.906758 
L 717.34121 133.147015 
L 719.798079 139.914751 
L 722.254949 143.338429 
L 724.474057 145.80568 
L 726.930927 112.821933 
L 729.308542 130.845907 
L 731.765412 135.233162 
L 734.143028 144.307699 
L 736.599897 126.433548 
L 739.056767 137.292886 
L 741.434383 126.07368 
L 743.891252 154.177401 
L 746.268868 143.093233 
L 748.725738 134.553851 
L 751.182607 154.121431 
L 753.401715 142.883112 
L 755.858585 146.795176 
L 758.236201 124.557897 
L 760.69307 142.626544 
L 763.070686 144.839237 
L 765.527556 132.989126 
L 767.984425 142.250253 
L 770.362041 136.499182 
L 772.818911 139.454022 
L 775.196526 142.753964 
L 777.653396 136.232556 
L 780.110266 140.061342 
L 782.408628 151.464571 
L 784.865497 134.12612 
L 787.243113 121.292687 
L 789.699983 143.021497 
L 792.077598 152.706913 
L 794.534468 145.357617 
L 796.991338 124.593336 
L 799.368953 147.5017 
L 801.825823 108.250826 
L 804.203439 118.681388 
L 809.117178 141.401037 
L 811.336286 128.966777 
L 813.793156 154.895436 
L 816.170771 150.072998 
L 818.627641 143.27491 
L 821.005257 127.938052 
L 823.462126 132.630808 
L 825.918996 140.054542 
L 828.296612 140.524956 
L 830.753481 129.207441 
L 833.131097 136.43828 
L 835.587967 129.632156 
L 838.044836 131.445193 
L 840.263944 140.372336 
L 842.720814 155.901328 
L 845.09843 141.046853 
L 847.555299 167.864956 
L 849.932915 150.726578 
L 852.389785 125.259383 
L 854.846654 153.243078 
L 857.22427 140.665363 
L 859.68114 113.154085 
L 862.058755 134.049842 
L 864.515625 137.836695 
L 864.515625 137.836695 
" clip-path="url(#pca23dee710)" style="fill: none; stroke-dasharray: 7.4,3.2; stroke-dashoffset: 0; stroke: #cc79a7; stroke-width: 2"/>
   </g>
   <g id="patch_3">
    <path d="M 27.515625 238.70175 
L 27.515625 16.94175 
" style="fill: none; stroke: #000000; stroke-width: 0.8; stroke-linejoin: miter; stroke-linecap: square"/>
   </g>
   <g id="patch_4">
    <path d="M 27.515625 238.70175 
L 864.515625 238.70175 
" style="fill: none; stroke: #000000; stroke-width: 0.8; stroke-linejoin: miter; stroke-linecap: square"/>
   </g>
   <g id="text_13">
    <!-- 6_Portfolios_2x3 - Portfolio Allocation for 1/N -->
    <g transform="translate(286.00575 10.94175) scale(0.144 -0.144)">
     <defs>
      <path id="DejaVuSans-5f" d="M 3263 -1063 
L 3263 -1509 
L -63 -1509 
L -63 -1063 
L 3263 -1063 
z
" transform="scale(0.015625)"/>
      <path id="DejaVuSans-50" d="M 1259 4147 
L 1259 2394 
L 2053 2394 
Q 2494 2394 2734 2622 
Q 2975 2850 2975 3272 
Q 2975 3691 2734 3919 
Q 2494 4147 2053 4147 
L 1259 4147 
z
M 628 4666 
L 2053 4666 
Q 2838 4666 3239 4311 
Q 3641 3956 3641 3272 
Q 3641 2581 3239 2228 
Q 2838 1875 2053 1875 
L 1259 1875 
L 1259 0 
L 628 0 
L 628 4666 
z
" transform="scale(0.015625)"/>
      <path id="DejaVuSans-6f" d="M 1959 3097 
Q 1497 3097 1228 2736 
Q 959 2375 959 1747 
Q 959 1119 1226 758 
Q 1494 397 1959 397 
Q 2419 397 2687 759 
Q 2956 1122 2956 1747 
Q 2956 2369 2687 2733 
Q 2419 3097 1959 3097 
z
M 1959 3584 
Q 2709 3584 3137 3096 
Q 3566 2609 3566 1747 
Q 3566 888 3137 398 
Q 2709 -91 1959 -91 
Q 1206 -91 779 398 
Q 353 888 353 1747 
Q 353 2609 779 3096 
Q 1206 3584 1959 3584 
z
" transform="scale(0.015625)"/>
      <path id="DejaVuSans-72" d="M 2631 2963 
Q 2534 3019 2420 3045 
Q 2306 3072 2169 3072 
Q 1681 3072 1420 2755 
Q 1159 2438 1159 1844 
L 1159 0 
L 581 0 
L 581 3500 
L 1159 3500 
L 1159 2956 
Q 1341 3275 1631 3429 
Q 1922 3584 2338 3584 
Q 2397 3584 2469 3576 
Q 2541 3569 2628 3553 
L 2631 2963 
z
" transform="scale(0.015625)"/>
      <path id="DejaVuSans-74" d="M 1172 4494 
L 1172 3500 
L 2356 3500 
L 2356 3053 
L 1172 3053 
L 1172 1153 
Q 1172 725 1289 603 
Q 1406 481 1766 481 
L 2356 481 
L 2356 0 
L 1766 0 
Q 1100 0 847 248 
Q 594 497 594 1153 
L 594 3053 
L 172 3053 
L 172 3500 
L 594 3500 
L 594 4494 
L 1172 4494 
z
" transform="scale(0.015625)"/>
      <path id="DejaVuSans-66" d="M 2375 4863 
L 2375 4384 
L 1825 4384 
Q 1516 4384 1395 4259 
Q 1275 4134 1275 3809 
L 1275 3500 
L 2222 3500 
L 2222 3053 
L 1275 3053 
L 1275 0 
L 697 0 
L 697 3053 
L 147 3053 
L 147 3500 
L 697 3500 
L 697 3744 
Q 697 4328 969 4595 
Q 1241 4863 1831 4863 
L 2375 4863 
z
" transform="scale(0.015625)"/>
      <path id="DejaVuSans-6c" d="M 603 4863 
L 1178 4863 
L 1178 0 
L 603 0 
L 603 4863 
z
" transform="scale(0.015625)"/>
      <path id="DejaVuSans-69" d="M 603 3500 
L 1178 3500 
L 1178 0 
L 603 0 
L 603 3500 
z
M 603 4863 
L 1178 4863 
L 1178 4134 
L 603 4134 
L 603 4863 
z
" transform="scale(0.015625)"/>
      <path id="DejaVuSans-73" d="M 2834 3397 
L 2834 2853 
Q 2591 2978 2328 3040 
Q 2066 3103 1784 3103 
Q 1356 3103 1142 2972 
Q 928 2841 928 2578 
Q 928 2378 1081 2264 
Q 1234 2150 1697 2047 
L 1894 2003 
Q 2506 1872 2764 1633 
Q 3022 1394 3022 966 
Q 3022 478 2636 193 
Q 2250 -91 1575 -91 
Q 1294 -91 989 -36 
Q 684 19 347 128 
L 347 722 
Q 666 556 975 473 
Q 1284 391 1588 391 
Q 1994 391 2212 530 
Q 2431 669 2431 922 
Q 2431 1156 2273 1281 
Q 2116 1406 1581 1522 
L 1381 1569 
Q 847 1681 609 1914 
Q 372 2147 372 2553 
Q 372 3047 722 3315 
Q 1072 3584 1716 3584 
Q 2034 3584 2315 3537 
Q 2597 3491 2834 3397 
z
" transform="scale(0.015625)"/>
      <path id="DejaVuSans-78" d="M 3513 3500 
L 2247 1797 
L 3578 0 
L 2900 0 
L 1881 1375 
L 863 0 
L 184 0 
L 1544 1831 
L 300 3500 
L 978 3500 
L 1906 2253 
L 2834 3500 
L 3513 3500 
z
" transform="scale(0.015625)"/>
      <path id="DejaVuSans-33" d="M 2597 2516 
Q 3050 2419 3304 2112 
Q 3559 1806 3559 1356 
Q 3559 666 3084 287 
Q 2609 -91 1734 -91 
Q 1441 -91 1130 -33 
Q 819 25 488 141 
L 488 750 
Q 750 597 1062 519 
Q 1375 441 1716 441 
Q 2309 441 2620 675 
Q 2931 909 2931 1356 
Q 2931 1769 2642 2001 
Q 2353 2234 1838 2234 
L 1294 2234 
L 1294 2753 
L 1863 2753 
Q 2328 2753 2575 2939 
Q 2822 3125 2822 3475 
Q 2822 3834 2567 4026 
Q 2313 4219 1838 4219 
Q 1578 4219 1281 4162 
Q 984 4106 628 3988 
L 628 4550 
Q 988 4650 1302 4700 
Q 1616 4750 1894 4750 
Q 2613 4750 3031 4423 
Q 3450 4097 3450 3541 
Q 3450 3153 3228 2886 
Q 3006 2619 2597 2516 
z
" transform="scale(0.015625)"/>
      <path id="DejaVuSans-20" transform="scale(0.015625)"/>
      <path id="DejaVuSans-2d" d="M 313 2009 
L 1997 2009 
L 1997 1497 
L 313 1497 
L 313 2009 
z
" transform="scale(0.015625)"/>
      <path id="DejaVuSans-41" d="M 2188 4044 
L 1331 1722 
L 3047 1722 
L 2188 4044 
z
M 1831 4666 
L 2547 4666 
L 4325 0 
L 3669 0 
L 3244 1197 
L 1141 1197 
L 716 0 
L 50 0 
L 1831 4666 
z
" transform="scale(0.015625)"/>
      <path id="DejaVuSans-63" d="M 3122 3366 
L 3122 2828 
Q 2878 2963 2633 3030 
Q 2388 3097 2138 3097 
Q 1578 3097 1268 2742 
Q 959 2388 959 1747 
Q 959 1106 1268 751 
Q 1578 397 2138 397 
Q 2388 397 2633 464 
Q 2878 531 3122 666 
L 3122 134 
Q 2881 22 2623 -34 
Q 2366 -91 2075 -91 
Q 1284 -91 818 406 
Q 353 903 353 1747 
Q 353 2603 823 3093 
Q 1294 3584 2113 3584 
Q 2378 3584 2631 3529 
Q 2884 3475 3122 3366 
z
" transform="scale(0.015625)"/>
      <path id="DejaVuSans-61" d="M 2194 1759 
Q 1497 1759 1228 1600 
Q 959 1441 959 1056 
Q 959 750 1161 570 
Q 1363 391 1709 391 
Q 2188 391 2477 730 
Q 2766 1069 2766 1631 
L 2766 1759 
L 2194 1759 
z
M 3341 1997 
L 3341 0 
L 2766 0 
L 2766 531 
Q 2569 213 2275 61 
Q 1981 -91 1556 -91 
Q 1019 -91 701 211 
Q 384 513 384 1019 
Q 384 1609 779 1909 
Q 1175 2209 1959 2209 
L 2766 2209 
L 2766 2266 
Q 2766 2663 2505 2880 
Q 2244 3097 1772 3097 
Q 1472 3097 1187 3025 
Q 903 2953 641 2809 
L 641 3341 
Q 956 3463 1253 3523 
Q 1550 3584 1831 3584 
Q 2591 3584 2966 3190 
Q 3341 2797 3341 1997 
z
" transform="scale(0.015625)"/>
      <path id="DejaVuSans-6e" d="M 3513 2113 
L 3513 0 
L 2938 0 
L 2938 2094 
Q 2938 2591 2744 2837 
Q 2550 3084 2163 3084 
Q 1697 3084 1428 2787 
Q 1159 2491 1159 1978 
L 1159 0 
L 581 0 
L 581 3500 
L 1159 3500 
L 1159 2956 
Q 1366 3272 1645 3428 
Q 1925 3584 2291 3584 
Q 2894 3584 3203 3211 
Q 3513 2838 3513 2113 
z
" transform="scale(0.015625)"/>
      <path id="DejaVuSans-2f" d="M 1625 4666 
L 2156 4666 
L 531 -594 
L 0 -594 
L 1625 4666 
z
" transform="scale(0.015625)"/>
      <path id="DejaVuSans-4e" d="M 628 4666 
L 1478 4666 
L 3547 763 
L 3547 4666 
L 4159 4666 
L 4159 0 
L 3309 0 
L 1241 3903 
L 1241 0 
L 628 0 
L 628 4666 
z
" transform="scale(0.015625)"/>
     </defs>
     <use xlink:href="#DejaVuSans-36"/>
     <use xlink:href="#DejaVuSans-5f" x="63.623047"/>
     <use xlink:href="#DejaVuSans-50" x="113.623047"/>
     <use xlink:href="#DejaVuSans-6f" x="170.300781"/>
     <use xlink:href="#DejaVuSans-72" x="231.482422"/>
     <use xlink:href="#DejaVuSans-74" x="272.595703"/>
     <use xlink:href="#DejaVuSans-66" x="311.804688"/>
     <use xlink:href="#DejaVuSans-6f" x="347.009766"/>
     <use xlink:href="#DejaVuSans-6c" x="408.191406"/>
     <use xlink:href="#DejaVuSans-69" x="435.974609"/>
     <use xlink:href="#DejaVuSans-6f" x="463.757812"/>
     <use xlink:href="#DejaVuSans-73" x="524.939453"/>
     <use xlink:href="#DejaVuSans-5f" x="577.039062"/>
     <use xlink:href="#DejaVuSans-32" x="627.039062"/>
     <use xlink:href="#DejaVuSans-78" x="690.662109"/>
     <use xlink:href="#DejaVuSans-33" x="749.841797"/>
     <use xlink:href="#DejaVuSans-20" x="813.464844"/>
     <use xlink:href="#DejaVuSans-2d" x="845.251953"/>
     <use xlink:href="#DejaVuSans-20" x="881.335938"/>
     <use xlink:href="#DejaVuSans-50" x="913.123047"/>
     <use xlink:href="#DejaVuSans-6f" x="969.800781"/>
     <use xlink:href="#DejaVuSans-72" x="1030.982422"/>
     <use xlink:href="#DejaVuSans-74" x="1072.095703"/>
     <use xlink:href="#DejaVuSans-66" x="1111.304688"/>
     <use xlink:href="#DejaVuSans-6f" x="1146.509766"/>
     <use xlink:href="#DejaVuSans-6c" x="1207.691406"/>
     <use xlink:href="#DejaVuSans-69" x="1235.474609"/>
     <use xlink:href="#DejaVuSans-6f" x="1263.257812"/>
     <use xlink:href="#DejaVuSans-20" x="1324.439453"/>
     <use xlink:href="#DejaVuSans-41" x="1356.226562"/>
     <use xlink:href="#DejaVuSans-6c" x="1424.634766"/>
     <use xlink:href="#DejaVuSans-6c" x="1452.417969"/>
     <use xlink:href="#DejaVuSans-6f" x="1480.201172"/>
     <use xlink:href="#DejaVuSans-63" x="1541.382812"/>
     <use xlink:href="#DejaVuSans-61" x="1596.363281"/>
     <use xlink:href="#DejaVuSans-74" x="1657.642578"/>
     <use xlink:href="#DejaVuSans-69" x="1696.851562"/>
     <use xlink:href="#DejaVuSans-6f" x="1724.634766"/>
     <use xlink:href="#DejaVuSans-6e" x="1785.816406"/>
     <use xlink:href="#DejaVuSans-20" x="1849.195312"/>
     <use xlink:href="#DejaVuSans-66" x="1880.982422"/>
     <use xlink:href="#DejaVuSans-6f" x="1916.1875"/>
     <use xlink:href="#DejaVuSans-72" x="1977.369141"/>
     <use xlink:href="#DejaVuSans-20" x="2018.482422"/>
     <use xlink:href="#DejaVuSans-31" x="2050.269531"/>
     <use xlink:href="#DejaVuSans-2f" x="2113.892578"/>
     <use xlink:href="#DejaVuSans-4e" x="2147.583984"/>
    </g>
   </g>
  </g>
 </g>
 <defs>
  <clipPath id="pca23dee710">
   <rect x="27.515625" y="16.94175" width="837" height="221.76"/>
  </clipPath>
 </defs>
</svg>
