<?xml version="1.0" encoding="utf-8" standalone="no"?>
<!DOCTYPE svg PUBLIC "-//W3C//DTD SVG 1.1//EN"
  "http://www.w3.org/Graphics/SVG/1.1/DTD/svg11.dtd">
<svg xmlns:xlink="http://www.w3.org/1999/xlink" width="861.3375pt" height="253.629875pt" viewBox="0 0 861.3375 253.629875" xmlns="http://www.w3.org/2000/svg" version="1.1">
 <metadata>
  <rdf:RDF xmlns:dc="http://purl.org/dc/elements/1.1/" xmlns:cc="http://creativecommons.org/ns#" xmlns:rdf="http://www.w3.org/1999/02/22-rdf-syntax-ns#">
   <cc:Work>
    <dc:type rdf:resource="http://purl.org/dc/dcmitype/StillImage"/>
    <dc:date>2025-08-06T21:49:51.693152</dc:date>
    <dc:format>image/svg+xml</dc:format>
    <dc:creator>
     <cc:Agent>
      <dc:title>Matplotlib v3.9.2, https://matplotlib.org/</dc:title>
     </cc:Agent>
    </dc:creator>
   </cc:Work>
  </rdf:RDF>
 </metadata>
 <defs>
  <style type="text/css">*{stroke-linejoin: round; stroke-linecap: butt}</style>
 </defs>
 <g id="figure_1">
  <g id="patch_1">
   <path d="M 0 253.629875 
L 861.3375 253.629875 
L 861.3375 0 
L 0 0 
z
" style="fill: #ffffff"/>
  </g>
  <g id="axes_1">
   <g id="patch_2">
    <path d="M 24.3375 238.70175 
L 861.3375 238.70175 
L 861.3375 16.94175 
L 24.3375 16.94175 
z
" style="fill: #ffffff"/>
   </g>
   <g id="matplotlib.axis_1">
    <g id="xtick_1">
     <g id="line2d_1">
      <defs>
       <path id="m3ffd146779" d="M 0 1.75 
L 0 -1.75 
" style="stroke: #000000; stroke-width: 0.8"/>
      </defs>
      <g>
       <use xlink:href="#m3ffd146779" x="77.737671" y="238.70175" style="stroke: #000000; stroke-width: 0.8"/>
      </g>
     </g>
     <g id="text_1">
      <!-- 1992 -->
      <g transform="translate(65.012671 251.550188) scale(0.1 -0.1)">
       <defs>
        <path id="DejaVuSans-31" d="M 794 531 
L 1825 531 
L 1825 4091 
L 703 3866 
L 703 4441 
L 1819 4666 
L 2450 4666 
L 2450 531 
L 3481 531 
L 3481 0 
L 794 0 
L 794 531 
z
" transform="scale(0.015625)"/>
        <path id="DejaVuSans-39" d="M 703 97 
L 703 672 
Q 941 559 1184 500 
Q 1428 441 1663 441 
Q 2288 441 2617 861 
Q 2947 1281 2994 2138 
Q 2813 1869 2534 1725 
Q 2256 1581 1919 1581 
Q 1219 1581 811 2004 
Q 403 2428 403 3163 
Q 403 3881 828 4315 
Q 1253 4750 1959 4750 
Q 2769 4750 3195 4129 
Q 3622 3509 3622 2328 
Q 3622 1225 3098 567 
Q 2575 -91 1691 -91 
Q 1453 -91 1209 -44 
Q 966 3 703 97 
z
M 1959 2075 
Q 2384 2075 2632 2365 
Q 2881 2656 2881 3163 
Q 2881 3666 2632 3958 
Q 2384 4250 1959 4250 
Q 1534 4250 1286 3958 
Q 1038 3666 1038 3163 
Q 1038 2656 1286 2365 
Q 1534 2075 1959 2075 
z
" transform="scale(0.015625)"/>
        <path id="DejaVuSans-32" d="M 1228 531 
L 3431 531 
L 3431 0 
L 469 0 
L 469 531 
Q 828 903 1448 1529 
Q 2069 2156 2228 2338 
Q 2531 2678 2651 2914 
Q 2772 3150 2772 3378 
Q 2772 3750 2511 3984 
Q 2250 4219 1831 4219 
Q 1534 4219 1204 4116 
Q 875 4013 500 3803 
L 500 4441 
Q 881 4594 1212 4672 
Q 1544 4750 1819 4750 
Q 2544 4750 2975 4387 
Q 3406 4025 3406 3419 
Q 3406 3131 3298 2873 
Q 3191 2616 2906 2266 
Q 2828 2175 2409 1742 
Q 1991 1309 1228 531 
z
" transform="scale(0.015625)"/>
       </defs>
       <use xlink:href="#DejaVuSans-31"/>
       <use xlink:href="#DejaVuSans-39" x="63.623047"/>
       <use xlink:href="#DejaVuSans-39" x="127.246094"/>
       <use xlink:href="#DejaVuSans-32" x="190.869141"/>
      </g>
     </g>
    </g>
    <g id="xtick_2">
     <g id="line2d_2">
      <g>
       <use xlink:href="#m3ffd146779" x="193.835364" y="238.70175" style="stroke: #000000; stroke-width: 0.8"/>
      </g>
     </g>
     <g id="text_2">
      <!-- 1996 -->
      <g transform="translate(181.110364 251.550188) scale(0.1 -0.1)">
       <defs>
        <path id="DejaVuSans-36" d="M 2113 2584 
Q 1688 2584 1439 2293 
Q 1191 2003 1191 1497 
Q 1191 994 1439 701 
Q 1688 409 2113 409 
Q 2538 409 2786 701 
Q 3034 994 3034 1497 
Q 3034 2003 2786 2293 
Q 2538 2584 2113 2584 
z
M 3366 4563 
L 3366 3988 
Q 3128 4100 2886 4159 
Q 2644 4219 2406 4219 
Q 1781 4219 1451 3797 
Q 1122 3375 1075 2522 
Q 1259 2794 1537 2939 
Q 1816 3084 2150 3084 
Q 2853 3084 3261 2657 
Q 3669 2231 3669 1497 
Q 3669 778 3244 343 
Q 2819 -91 2113 -91 
Q 1303 -91 875 529 
Q 447 1150 447 2328 
Q 447 3434 972 4092 
Q 1497 4750 2381 4750 
Q 2619 4750 2861 4703 
Q 3103 4656 3366 4563 
z
" transform="scale(0.015625)"/>
       </defs>
       <use xlink:href="#DejaVuSans-31"/>
       <use xlink:href="#DejaVuSans-39" x="63.623047"/>
       <use xlink:href="#DejaVuSans-39" x="127.246094"/>
       <use xlink:href="#DejaVuSans-36" x="190.869141"/>
      </g>
     </g>
    </g>
    <g id="xtick_3">
     <g id="line2d_3">
      <g>
       <use xlink:href="#m3ffd146779" x="309.933057" y="238.70175" style="stroke: #000000; stroke-width: 0.8"/>
      </g>
     </g>
     <g id="text_3">
      <!-- 2000 -->
      <g transform="translate(297.208057 251.550188) scale(0.1 -0.1)">
       <defs>
        <path id="DejaVuSans-30" d="M 2034 4250 
Q 1547 4250 1301 3770 
Q 1056 3291 1056 2328 
Q 1056 1369 1301 889 
Q 1547 409 2034 409 
Q 2525 409 2770 889 
Q 3016 1369 3016 2328 
Q 3016 3291 2770 3770 
Q 2525 4250 2034 4250 
z
M 2034 4750 
Q 2819 4750 3233 4129 
Q 3647 3509 3647 2328 
Q 3647 1150 3233 529 
Q 2819 -91 2034 -91 
Q 1250 -91 836 529 
Q 422 1150 422 2328 
Q 422 3509 836 4129 
Q 1250 4750 2034 4750 
z
" transform="scale(0.015625)"/>
       </defs>
       <use xlink:href="#DejaVuSans-32"/>
       <use xlink:href="#DejaVuSans-30" x="63.623047"/>
       <use xlink:href="#DejaVuSans-30" x="127.246094"/>
       <use xlink:href="#DejaVuSans-30" x="190.869141"/>
      </g>
     </g>
    </g>
    <g id="xtick_4">
     <g id="line2d_4">
      <g>
       <use xlink:href="#m3ffd146779" x="426.03075" y="238.70175" style="stroke: #000000; stroke-width: 0.8"/>
      </g>
     </g>
     <g id="text_4">
      <!-- 2004 -->
      <g transform="translate(413.30575 251.550188) scale(0.1 -0.1)">
       <defs>
        <path id="DejaVuSans-34" d="M 2419 4116 
L 825 1625 
L 2419 1625 
L 2419 4116 
z
M 2253 4666 
L 3047 4666 
L 3047 1625 
L 3713 1625 
L 3713 1100 
L 3047 1100 
L 3047 0 
L 2419 0 
L 2419 1100 
L 313 1100 
L 313 1709 
L 2253 4666 
z
" transform="scale(0.015625)"/>
       </defs>
       <use xlink:href="#DejaVuSans-32"/>
       <use xlink:href="#DejaVuSans-30" x="63.623047"/>
       <use xlink:href="#DejaVuSans-30" x="127.246094"/>
       <use xlink:href="#DejaVuSans-34" x="190.869141"/>
      </g>
     </g>
    </g>
    <g id="xtick_5">
     <g id="line2d_5">
      <g>
       <use xlink:href="#m3ffd146779" x="542.128443" y="238.70175" style="stroke: #000000; stroke-width: 0.8"/>
      </g>
     </g>
     <g id="text_5">
      <!-- 2008 -->
      <g transform="translate(529.403443 251.550188) scale(0.1 -0.1)">
       <defs>
        <path id="DejaVuSans-38" d="M 2034 2216 
Q 1584 2216 1326 1975 
Q 1069 1734 1069 1313 
Q 1069 891 1326 650 
Q 1584 409 2034 409 
Q 2484 409 2743 651 
Q 3003 894 3003 1313 
Q 3003 1734 2745 1975 
Q 2488 2216 2034 2216 
z
M 1403 2484 
Q 997 2584 770 2862 
Q 544 3141 544 3541 
Q 544 4100 942 4425 
Q 1341 4750 2034 4750 
Q 2731 4750 3128 4425 
Q 3525 4100 3525 3541 
Q 3525 3141 3298 2862 
Q 3072 2584 2669 2484 
Q 3125 2378 3379 2068 
Q 3634 1759 3634 1313 
Q 3634 634 3220 271 
Q 2806 -91 2034 -91 
Q 1263 -91 848 271 
Q 434 634 434 1313 
Q 434 1759 690 2068 
Q 947 2378 1403 2484 
z
M 1172 3481 
Q 1172 3119 1398 2916 
Q 1625 2713 2034 2713 
Q 2441 2713 2670 2916 
Q 2900 3119 2900 3481 
Q 2900 3844 2670 4047 
Q 2441 4250 2034 4250 
Q 1625 4250 1398 4047 
Q 1172 3844 1172 3481 
z
" transform="scale(0.015625)"/>
       </defs>
       <use xlink:href="#DejaVuSans-32"/>
       <use xlink:href="#DejaVuSans-30" x="63.623047"/>
       <use xlink:href="#DejaVuSans-30" x="127.246094"/>
       <use xlink:href="#DejaVuSans-38" x="190.869141"/>
      </g>
     </g>
    </g>
    <g id="xtick_6">
     <g id="line2d_6">
      <g>
       <use xlink:href="#m3ffd146779" x="658.226136" y="238.70175" style="stroke: #000000; stroke-width: 0.8"/>
      </g>
     </g>
     <g id="text_6">
      <!-- 2012 -->
      <g transform="translate(645.501136 251.550188) scale(0.1 -0.1)">
       <use xlink:href="#DejaVuSans-32"/>
       <use xlink:href="#DejaVuSans-30" x="63.623047"/>
       <use xlink:href="#DejaVuSans-31" x="127.246094"/>
       <use xlink:href="#DejaVuSans-32" x="190.869141"/>
      </g>
     </g>
    </g>
    <g id="xtick_7">
     <g id="line2d_7">
      <g>
       <use xlink:href="#m3ffd146779" x="774.323829" y="238.70175" style="stroke: #000000; stroke-width: 0.8"/>
      </g>
     </g>
     <g id="text_7">
      <!-- 2016 -->
      <g transform="translate(761.598829 251.550188) scale(0.1 -0.1)">
       <use xlink:href="#DejaVuSans-32"/>
       <use xlink:href="#DejaVuSans-30" x="63.623047"/>
       <use xlink:href="#DejaVuSans-31" x="127.246094"/>
       <use xlink:href="#DejaVuSans-36" x="190.869141"/>
      </g>
     </g>
    </g>
   </g>
   <g id="matplotlib.axis_2">
    <g id="ytick_1">
     <g id="line2d_8">
      <path d="M 24.3375 204.537471 
L 861.3375 204.537471 
" clip-path="url(#pc29c8b9cc5)" style="fill: none; stroke-dasharray: 1.85,0.8; stroke-dashoffset: 0; stroke: #b2b2b2; stroke-width: 0.5"/>
     </g>
     <g id="line2d_9">
      <defs>
       <path id="mafc8d6da5f" d="M 1.75 0 
L -1.75 -0 
" style="stroke: #000000; stroke-width: 0.8"/>
      </defs>
      <g>
       <use xlink:href="#mafc8d6da5f" x="24.3375" y="204.537471" style="stroke: #000000; stroke-width: 0.8"/>
      </g>
     </g>
     <g id="text_8">
      <!-- 50 -->
      <g transform="translate(6.3625 208.33669) scale(0.1 -0.1)">
       <defs>
        <path id="DejaVuSans-35" d="M 691 4666 
L 3169 4666 
L 3169 4134 
L 1269 4134 
L 1269 2991 
Q 1406 3038 1543 3061 
Q 1681 3084 1819 3084 
Q 2600 3084 3056 2656 
Q 3513 2228 3513 1497 
Q 3513 744 3044 326 
Q 2575 -91 1722 -91 
Q 1428 -91 1123 -41 
Q 819 9 494 109 
L 494 744 
Q 775 591 1075 516 
Q 1375 441 1709 441 
Q 2250 441 2565 725 
Q 2881 1009 2881 1497 
Q 2881 1984 2565 2268 
Q 2250 2553 1709 2553 
Q 1456 2553 1204 2497 
Q 953 2441 691 2322 
L 691 4666 
z
" transform="scale(0.015625)"/>
       </defs>
       <use xlink:href="#DejaVuSans-35"/>
       <use xlink:href="#DejaVuSans-30" x="63.623047"/>
      </g>
     </g>
    </g>
    <g id="ytick_2">
     <g id="line2d_10">
      <path d="M 24.3375 170.283785 
L 861.3375 170.283785 
" clip-path="url(#pc29c8b9cc5)" style="fill: none; stroke-dasharray: 1.85,0.8; stroke-dashoffset: 0; stroke: #b2b2b2; stroke-width: 0.5"/>
     </g>
     <g id="line2d_11">
      <g>
       <use xlink:href="#mafc8d6da5f" x="24.3375" y="170.283785" style="stroke: #000000; stroke-width: 0.8"/>
      </g>
     </g>
     <g id="text_9">
      <!-- 100 -->
      <g transform="translate(0 174.083004) scale(0.1 -0.1)">
       <use xlink:href="#DejaVuSans-31"/>
       <use xlink:href="#DejaVuSans-30" x="63.623047"/>
       <use xlink:href="#DejaVuSans-30" x="127.246094"/>
      </g>
     </g>
    </g>
    <g id="ytick_3">
     <g id="line2d_12">
      <path d="M 24.3375 136.030098 
L 861.3375 136.030098 
" clip-path="url(#pc29c8b9cc5)" style="fill: none; stroke-dasharray: 1.85,0.8; stroke-dashoffset: 0; stroke: #b2b2b2; stroke-width: 0.5"/>
     </g>
     <g id="line2d_13">
      <g>
       <use xlink:href="#mafc8d6da5f" x="24.3375" y="136.030098" style="stroke: #000000; stroke-width: 0.8"/>
      </g>
     </g>
     <g id="text_10">
      <!-- 150 -->
      <g transform="translate(0 139.829317) scale(0.1 -0.1)">
       <use xlink:href="#DejaVuSans-31"/>
       <use xlink:href="#DejaVuSans-35" x="63.623047"/>
       <use xlink:href="#DejaVuSans-30" x="127.246094"/>
      </g>
     </g>
    </g>
    <g id="ytick_4">
     <g id="line2d_14">
      <path d="M 24.3375 101.776412 
L 861.3375 101.776412 
" clip-path="url(#pc29c8b9cc5)" style="fill: none; stroke-dasharray: 1.85,0.8; stroke-dashoffset: 0; stroke: #b2b2b2; stroke-width: 0.5"/>
     </g>
     <g id="line2d_15">
      <g>
       <use xlink:href="#mafc8d6da5f" x="24.3375" y="101.776412" style="stroke: #000000; stroke-width: 0.8"/>
      </g>
     </g>
     <g id="text_11">
      <!-- 200 -->
      <g transform="translate(0 105.575631) scale(0.1 -0.1)">
       <use xlink:href="#DejaVuSans-32"/>
       <use xlink:href="#DejaVuSans-30" x="63.623047"/>
       <use xlink:href="#DejaVuSans-30" x="127.246094"/>
      </g>
     </g>
    </g>
    <g id="ytick_5">
     <g id="line2d_16">
      <path d="M 24.3375 67.522725 
L 861.3375 67.522725 
" clip-path="url(#pc29c8b9cc5)" style="fill: none; stroke-dasharray: 1.85,0.8; stroke-dashoffset: 0; stroke: #b2b2b2; stroke-width: 0.5"/>
     </g>
     <g id="line2d_17">
      <g>
       <use xlink:href="#mafc8d6da5f" x="24.3375" y="67.522725" style="stroke: #000000; stroke-width: 0.8"/>
      </g>
     </g>
     <g id="text_12">
      <!-- 250 -->
      <g transform="translate(0 71.321944) scale(0.1 -0.1)">
       <use xlink:href="#DejaVuSans-32"/>
       <use xlink:href="#DejaVuSans-35" x="63.623047"/>
       <use xlink:href="#DejaVuSans-30" x="127.246094"/>
      </g>
     </g>
    </g>
    <g id="ytick_6">
     <g id="line2d_18">
      <path d="M 24.3375 33.269039 
L 861.3375 33.269039 
" clip-path="url(#pc29c8b9cc5)" style="fill: none; stroke-dasharray: 1.85,0.8; stroke-dashoffset: 0; stroke: #b2b2b2; stroke-width: 0.5"/>
     </g>
     <g id="line2d_19">
      <g>
       <use xlink:href="#mafc8d6da5f" x="24.3375" y="33.269039" style="stroke: #000000; stroke-width: 0.8"/>
      </g>
     </g>
     <g id="text_13">
      <!-- 300 -->
      <g transform="translate(0 37.068258) scale(0.1 -0.1)">
       <defs>
        <path id="DejaVuSans-33" d="M 2597 2516 
Q 3050 2419 3304 2112 
Q 3559 1806 3559 1356 
Q 3559 666 3084 287 
Q 2609 -91 1734 -91 
Q 1441 -91 1130 -33 
Q 819 25 488 141 
L 488 750 
Q 750 597 1062 519 
Q 1375 441 1716 441 
Q 2309 441 2620 675 
Q 2931 909 2931 1356 
Q 2931 1769 2642 2001 
Q 2353 2234 1838 2234 
L 1294 2234 
L 1294 2753 
L 1863 2753 
Q 2328 2753 2575 2939 
Q 2822 3125 2822 3475 
Q 2822 3834 2567 4026 
Q 2313 4219 1838 4219 
Q 1578 4219 1281 4162 
Q 984 4106 628 3988 
L 628 4550 
Q 988 4650 1302 4700 
Q 1616 4750 1894 4750 
Q 2613 4750 3031 4423 
Q 3450 4097 3450 3541 
Q 3450 3153 3228 2886 
Q 3006 2619 2597 2516 
z
" transform="scale(0.015625)"/>
       </defs>
       <use xlink:href="#DejaVuSans-33"/>
       <use xlink:href="#DejaVuSans-30" x="63.623047"/>
       <use xlink:href="#DejaVuSans-30" x="127.246094"/>
      </g>
     </g>
    </g>
   </g>
   <g id="line2d_20">
    <path d="M 24.3375 237.998891 
L 26.800901 237.786334 
L 29.184837 238.128686 
L 31.648238 238.097946 
L 34.032174 237.506092 
L 36.495575 237.151148 
L 38.958975 238.169401 
L 41.342912 238.48802 
L 43.806312 237.509329 
L 46.190249 236.68743 
L 48.653649 238.355337 
L 51.11705 237.833711 
L 53.342057 238.434856 
L 55.805458 238.459143 
L 58.189394 237.544987 
L 63.036731 238.096365 
L 70.347469 237.925889 
L 72.810869 238.203469 
L 75.194806 238.063394 
L 77.658206 237.646423 
L 80.121607 235.310993 
L 84.889479 237.258165 
L 87.273416 237.081693 
L 89.736816 236.548272 
L 92.120753 237.538737 
L 94.584153 237.684205 
L 97.047554 238.251467 
L 99.43149 238.039466 
L 101.894891 238.077429 
L 104.278827 238.27697 
L 106.742228 237.657456 
L 109.205629 237.937343 
L 111.430636 236.96969 
L 113.894037 237.140698 
L 116.277973 238.109831 
L 118.741374 237.103015 
L 121.12531 237.238562 
L 123.58871 238.127527 
L 126.052111 238.090093 
L 128.436047 237.805379 
L 130.899448 237.954387 
L 133.283384 237.671507 
L 135.746785 237.942992 
L 138.210186 237.863054 
L 140.435193 237.535081 
L 142.898594 237.391499 
L 145.28253 238.655597 
L 147.745931 238.202305 
L 152.593268 238.080713 
L 155.056668 237.596349 
L 157.440605 238.054834 
L 159.904005 236.938405 
L 162.287941 237.940792 
L 164.751342 238.610705 
L 167.214743 237.538092 
L 169.43975 237.829707 
L 171.903151 237.897136 
L 174.287087 237.768306 
L 176.750488 238.10757 
L 179.134424 236.896432 
L 181.597825 238.294311 
L 184.061225 237.704405 
L 186.445162 237.609603 
L 188.908562 237.750145 
L 191.292499 237.709985 
L 193.755899 238.159344 
L 196.2193 237.634657 
L 198.523772 237.27178 
L 200.987172 238.224146 
L 203.371109 237.446277 
L 205.834509 237.733077 
L 208.218446 236.343373 
L 210.681846 237.797909 
L 213.145247 236.192513 
L 215.529183 237.666094 
L 217.992584 236.639246 
L 220.37652 237.816908 
L 222.839921 236.403053 
L 225.303322 237.071915 
L 227.528329 237.082955 
L 229.99173 237.400642 
L 232.375666 236.952807 
L 234.839067 235.21626 
L 237.223003 236.986365 
L 239.686403 237.511301 
L 242.149804 235.414109 
L 244.53374 237.104455 
L 246.997141 237.60368 
L 249.381077 237.320948 
L 251.844478 237.796979 
L 254.307879 237.238874 
L 256.532886 237.83017 
L 258.996287 238.157765 
L 261.380223 238.272774 
L 263.843624 237.524583 
L 266.22756 237.422868 
L 268.690961 237.988671 
L 271.154361 236.615786 
L 273.538297 236.23132 
L 276.001698 237.4075 
L 278.385634 237.381799 
L 280.849035 237.885053 
L 283.312436 238.023409 
L 285.537443 235.829063 
L 288.000844 237.311657 
L 290.38478 236.262382 
L 292.848181 237.842311 
L 295.232117 237.474535 
L 297.695518 237.956566 
L 302.542855 237.263905 
L 305.006255 235.375904 
L 307.390192 234.207425 
L 309.853592 238.193024 
L 312.316993 236.62076 
L 314.621465 234.066302 
L 317.084865 226.264343 
L 319.468802 235.427744 
L 321.932202 237.206849 
L 324.316139 232.484668 
L 326.779539 232.972127 
L 329.24294 235.933303 
L 331.626876 236.143269 
L 334.090277 237.651002 
L 336.474213 236.79642 
L 338.937614 236.99906 
L 343.626022 233.664754 
L 346.089423 237.119718 
L 348.473359 235.412355 
L 350.936759 236.780672 
L 353.320696 237.28735 
L 355.784096 235.139427 
L 358.247497 236.417917 
L 360.631433 235.475235 
L 363.094834 233.891167 
L 365.47877 235.973066 
L 367.942171 236.962815 
L 370.405572 237.139326 
L 372.630579 237.773148 
L 375.09398 236.796274 
L 377.477916 236.536101 
L 379.941317 235.577226 
L 382.325253 236.09124 
L 384.788654 235.159732 
L 387.252054 236.138523 
L 389.63599 236.915918 
L 392.099391 236.686016 
L 396.946728 236.599412 
L 399.410129 237.876848 
L 401.635136 237.863281 
L 404.098537 238.012338 
L 406.482473 237.874331 
L 408.945874 237.520397 
L 411.32981 237.727675 
L 413.793211 237.717129 
L 416.256611 237.821861 
L 418.640548 237.660859 
L 421.103948 237.929153 
L 423.487885 238.350953 
L 425.951285 237.214569 
L 428.414686 237.06413 
L 430.719158 237.419303 
L 433.182558 237.671171 
L 435.566495 237.59894 
L 438.029895 238.0513 
L 440.413832 237.970976 
L 442.877232 236.663523 
L 445.340633 237.924016 
L 447.724569 237.28354 
L 450.18797 237.840374 
L 452.571906 237.640057 
L 455.035307 237.580474 
L 459.723715 238.339604 
L 462.187115 238.353464 
L 464.571052 237.820592 
L 467.034452 236.445978 
L 469.418389 237.865307 
L 471.881789 237.77719 
L 474.34519 237.506476 
L 476.729126 238.548071 
L 481.576463 237.99052 
L 484.039864 238.145201 
L 486.503265 236.90393 
L 488.728272 236.915377 
L 491.191673 237.51604 
L 493.575609 237.166305 
L 496.03901 238.142219 
L 500.886346 237.540484 
L 503.349747 237.041576 
L 505.733683 237.960984 
L 508.197084 237.75802 
L 510.58102 238.315728 
L 513.044421 237.991772 
L 515.507822 237.924446 
L 517.732829 238.313164 
L 520.19623 238.334858 
L 522.580166 237.998974 
L 525.043567 237.99469 
L 527.427503 238.427269 
L 529.890904 237.591947 
L 532.354304 237.889406 
L 534.738241 237.88908 
L 537.201641 238.017851 
L 539.585577 237.698575 
L 542.048978 237.682574 
L 546.816851 237.340664 
L 549.280251 238.188791 
L 551.664188 237.120202 
L 554.127588 237.242864 
L 556.511524 237.939799 
L 558.974925 236.385788 
L 561.438326 237.292183 
L 563.822262 236.876809 
L 566.285663 236.043534 
L 568.669599 237.506847 
L 571.133 235.576948 
L 573.596401 235.298586 
L 575.821408 237.362515 
L 578.284808 236.007824 
L 580.668745 237.187425 
L 583.132145 236.317475 
L 585.516082 237.075015 
L 587.979482 236.951033 
L 590.442883 237.738853 
L 595.29022 236.407009 
L 597.674156 237.526379 
L 600.137557 236.033484 
L 604.825965 237.799065 
L 607.289366 238.187141 
L 609.673302 237.659944 
L 612.136703 236.724622 
L 614.520639 237.705216 
L 616.984039 237.570626 
L 619.44744 237.629293 
L 621.831376 236.468446 
L 624.294777 237.940901 
L 626.678713 237.873421 
L 629.142114 237.407292 
L 631.605515 237.621986 
L 633.830522 237.444841 
L 636.293923 237.974128 
L 638.677859 237.805181 
L 641.14126 238.70175 
L 643.525196 238.336096 
L 648.451997 238.104455 
L 650.835933 238.339955 
L 653.299334 236.49041 
L 658.146671 238.200152 
L 660.610072 237.713451 
L 662.914544 237.521452 
L 665.377944 238.312804 
L 667.761881 237.878319 
L 670.225281 238.54092 
L 675.072618 237.526889 
L 677.536019 237.428377 
L 679.919955 238.479948 
L 682.383356 238.176998 
L 684.767292 237.74436 
L 687.230693 237.653377 
L 691.919101 238.228 
L 694.382501 238.432974 
L 696.766438 237.718399 
L 699.229838 237.186955 
L 701.613775 237.813995 
L 704.077175 238.275045 
L 706.540576 237.748798 
L 708.924512 237.882919 
L 711.387913 237.347962 
L 713.771849 237.766656 
L 718.698651 237.970835 
L 720.923658 237.902129 
L 725.770995 237.322301 
L 728.234395 237.939786 
L 733.081732 236.241189 
L 735.545133 237.127322 
L 737.929069 237.346225 
L 740.39247 236.093276 
L 742.776406 236.711597 
L 745.239807 236.953076 
L 747.703208 236.925409 
L 749.928215 238.000252 
L 752.391616 237.951922 
L 754.775552 236.695465 
L 757.238953 237.290858 
L 759.622889 238.012489 
L 762.08629 236.355763 
L 764.54969 236.325516 
L 766.933626 237.731575 
L 769.397027 238.323958 
L 771.780963 236.981148 
L 774.244364 236.575851 
L 776.707765 237.125965 
L 779.012237 237.157664 
L 781.475637 237.980795 
L 783.859573 238.074481 
L 786.322974 237.455135 
L 788.70691 238.333211 
L 791.170311 237.934402 
L 793.633712 237.652329 
L 796.017648 237.706451 
L 800.864985 235.44619 
L 803.328386 236.646994 
L 805.791787 237.123082 
L 808.016794 238.361426 
L 810.480194 237.717998 
L 812.864131 238.458059 
L 815.327531 237.656876 
L 817.711468 236.623765 
L 820.174868 237.370958 
L 822.638269 238.285768 
L 825.022205 236.758675 
L 827.485606 236.679692 
L 829.869542 238.256873 
L 832.332943 238.40984 
L 834.796344 238.086927 
L 837.021351 237.675108 
L 839.484751 237.483934 
L 841.868688 237.776369 
L 844.332088 237.404169 
L 846.716025 237.454069 
L 849.179425 237.661836 
L 851.642826 237.336356 
L 854.026762 237.568198 
L 856.490163 237.256616 
L 858.874099 237.110325 
L 861.3375 238.418119 
L 861.3375 238.418119 
" clip-path="url(#pc29c8b9cc5)" style="fill: none; stroke: #e69f00; stroke-width: 2; stroke-linecap: square"/>
   </g>
   <g id="line2d_21">
    <path d="M 24.3375 223.505603 
L 26.800901 163.016377 
L 29.184837 226.918013 
L 31.648238 214.292713 
L 34.032174 211.76856 
L 36.495575 204.092824 
L 38.958975 221.603489 
L 41.342912 219.291414 
L 43.806312 134.746688 
L 46.190249 163.02688 
L 48.653649 209.661123 
L 51.11705 221.858188 
L 53.342057 223.923762 
L 55.805458 191.880563 
L 58.189394 175.202811 
L 60.652795 187.497512 
L 63.036731 197.791648 
L 65.500132 144.17642 
L 67.963532 212.175663 
L 70.347469 198.451402 
L 72.810869 116.494185 
L 75.194806 187.197544 
L 77.658206 197.583321 
L 80.121607 171.515606 
L 82.426079 197.80684 
L 84.889479 160.719439 
L 87.273416 211.705747 
L 89.736816 208.092045 
L 92.120753 193.314022 
L 94.584153 196.024428 
L 97.047554 192.34054 
L 99.43149 217.731866 
L 101.894891 204.409714 
L 104.278827 230.73098 
L 106.742228 89.543192 
L 109.205629 193.481947 
L 111.430636 214.571302 
L 113.894037 196.977877 
L 116.277973 193.742699 
L 118.741374 221.728053 
L 121.12531 211.668326 
L 123.58871 216.009223 
L 126.052111 219.016415 
L 128.436047 228.255726 
L 130.899448 201.957936 
L 133.283384 224.693985 
L 135.746785 207.097326 
L 138.210186 220.484496 
L 140.435193 229.970722 
L 142.898594 214.503219 
L 147.745931 233.396976 
L 150.129867 233.341997 
L 152.593268 233.57553 
L 155.056668 225.661923 
L 157.440605 214.921611 
L 159.904005 226.877882 
L 162.287941 217.313091 
L 164.751342 214.349243 
L 167.214743 231.373466 
L 169.43975 231.981418 
L 171.903151 231.362346 
L 174.287087 232.785648 
L 176.750488 226.592166 
L 179.134424 223.55018 
L 181.597825 211.89218 
L 184.061225 215.465501 
L 186.445162 231.177424 
L 188.908562 186.253961 
L 191.292499 214.183696 
L 193.755899 187.848601 
L 196.2193 220.488515 
L 198.523772 224.813132 
L 200.987172 224.206874 
L 203.371109 223.928321 
L 205.834509 234.159557 
L 208.218446 226.976362 
L 210.681846 201.955832 
L 213.145247 215.631148 
L 215.529183 228.160971 
L 217.992584 221.578905 
L 220.37652 224.864429 
L 222.839921 229.918889 
L 225.303322 165.836945 
L 227.528329 184.52581 
L 229.99173 230.225132 
L 232.375666 228.574357 
L 234.839067 205.181907 
L 237.223003 189.932346 
L 239.686403 212.726969 
L 242.149804 217.420923 
L 244.53374 223.931351 
L 246.997141 218.374944 
L 249.381077 226.068488 
L 251.844478 220.023037 
L 254.307879 232.421576 
L 256.532886 234.940169 
L 258.996287 213.766791 
L 261.380223 226.583729 
L 263.843624 221.154289 
L 266.22756 193.33958 
L 268.690961 209.615783 
L 271.154361 219.561188 
L 273.538297 192.361989 
L 276.001698 16.94175 
L 278.385634 222.281445 
L 280.849035 218.839461 
L 283.312436 226.463441 
L 285.537443 215.048263 
L 288.000844 217.525838 
L 290.38478 111.173077 
L 292.848181 203.364789 
L 295.232117 183.791138 
L 297.695518 210.423173 
L 300.158918 203.235365 
L 302.542855 213.094886 
L 305.006255 222.377736 
L 307.390192 195.498813 
L 309.853592 233.324896 
L 312.316993 208.171314 
L 314.621465 205.949012 
L 317.084865 125.105604 
L 319.468802 224.284107 
L 321.932202 182.374708 
L 324.316139 212.109889 
L 326.779539 161.782062 
L 329.24294 208.146551 
L 331.626876 205.217865 
L 334.090277 231.018242 
L 336.474213 226.288202 
L 338.937614 214.868969 
L 341.401015 214.462823 
L 343.626022 196.031117 
L 346.089423 212.804865 
L 348.473359 214.638361 
L 350.936759 223.390715 
L 353.320696 225.823172 
L 355.784096 217.181145 
L 358.247497 224.706865 
L 360.631433 221.737339 
L 363.094834 186.969136 
L 365.47877 212.921833 
L 367.942171 226.141438 
L 370.405572 209.619497 
L 372.630579 234.807268 
L 375.09398 205.899094 
L 377.477916 209.63835 
L 379.941317 219.783972 
L 382.325253 211.039614 
L 384.788654 224.708755 
L 387.252054 209.456858 
L 389.63599 207.11909 
L 392.099391 223.044006 
L 394.483327 212.64668 
L 396.946728 164.636147 
L 399.410129 221.068343 
L 401.635136 223.342912 
L 404.098537 226.163418 
L 406.482473 231.526465 
L 408.945874 230.44943 
L 411.32981 228.834613 
L 413.793211 210.955328 
L 416.256611 230.652315 
L 418.640548 231.510881 
L 421.103948 162.115915 
L 423.487885 228.363829 
L 425.951285 218.559473 
L 428.414686 228.156807 
L 430.719158 232.378708 
L 433.182558 226.988842 
L 435.566495 215.18604 
L 438.029895 211.896888 
L 440.413832 207.881593 
L 442.877232 224.87393 
L 445.340633 219.36074 
L 447.724569 227.927509 
L 450.18797 233.237221 
L 452.571906 234.291765 
L 455.035307 214.85396 
L 457.498708 222.795542 
L 459.723715 231.713994 
L 462.187115 226.789056 
L 464.571052 218.501557 
L 467.034452 181.44009 
L 469.418389 233.373905 
L 471.881789 218.780328 
L 474.34519 196.825213 
L 476.729126 216.306898 
L 479.192527 204.925321 
L 481.576463 231.640215 
L 484.039864 229.99899 
L 486.503265 231.708889 
L 488.728272 182.288427 
L 491.191673 211.875646 
L 493.575609 230.482162 
L 496.03901 222.520629 
L 498.422946 219.512248 
L 500.886346 230.991963 
L 503.349747 215.187989 
L 505.733683 226.583406 
L 508.197084 229.721801 
L 510.58102 211.975673 
L 513.044421 235.789619 
L 515.507822 214.874867 
L 517.732829 236.524457 
L 520.19623 203.398566 
L 522.580166 193.977995 
L 525.043567 230.730819 
L 527.427503 201.194169 
L 529.890904 231.214161 
L 532.354304 232.922661 
L 534.738241 219.022469 
L 537.201641 202.813476 
L 539.585577 188.363565 
L 542.048978 200.587879 
L 544.512379 201.636307 
L 546.816851 212.218684 
L 549.280251 206.92548 
L 551.664188 214.483082 
L 554.127588 215.495683 
L 556.511524 188.356903 
L 558.974925 231.916766 
L 561.438326 198.275048 
L 563.822262 175.216721 
L 566.285663 220.109699 
L 568.669599 151.324102 
L 571.133 104.839887 
L 573.596401 212.899865 
L 575.821408 222.423955 
L 578.284808 196.724582 
L 580.668745 182.105916 
L 583.132145 210.085454 
L 585.516082 198.043143 
L 587.979482 206.209527 
L 590.442883 217.358532 
L 592.826819 191.681771 
L 595.29022 174.494604 
L 597.674156 219.027449 
L 600.137557 206.772823 
L 602.600958 167.238884 
L 604.825965 225.67251 
L 607.289366 220.635435 
L 609.673302 230.01808 
L 612.136703 219.762179 
L 614.520639 227.727985 
L 616.984039 195.255748 
L 619.44744 214.531733 
L 621.831376 180.319572 
L 624.294777 214.665554 
L 626.678713 218.785482 
L 629.142114 224.412731 
L 631.605515 210.80904 
L 633.830522 194.752877 
L 636.293923 234.436545 
L 638.677859 223.288776 
L 641.14126 231.254238 
L 643.525196 225.224116 
L 645.988597 218.459611 
L 648.451997 218.955452 
L 650.835933 218.067046 
L 653.299334 201.120038 
L 655.68327 175.554791 
L 658.146671 185.026042 
L 660.610072 228.907897 
L 662.914544 227.980448 
L 665.377944 218.677365 
L 667.761881 223.739769 
L 670.225281 221.243944 
L 672.609217 223.432709 
L 675.072618 183.582722 
L 677.536019 208.428699 
L 679.919955 207.88277 
L 682.383356 215.250486 
L 684.767292 209.222314 
L 687.230693 216.668489 
L 689.694094 235.117347 
L 691.919101 228.137919 
L 694.382501 207.884892 
L 696.766438 228.722825 
L 699.229838 133.989383 
L 701.613775 231.13292 
L 704.077175 216.485099 
L 706.540576 210.281653 
L 708.924512 190.411515 
L 711.387913 194.041145 
L 713.771849 86.936618 
L 716.23525 93.165849 
L 718.698651 233.851902 
L 720.923658 234.523568 
L 723.387059 172.048997 
L 725.770995 179.168239 
L 728.234395 174.906625 
L 730.618332 229.969462 
L 733.081732 192.214918 
L 735.545133 229.364756 
L 737.929069 218.057745 
L 740.39247 211.841694 
L 742.776406 227.522492 
L 745.239807 208.582102 
L 747.703208 182.223231 
L 749.928215 225.725102 
L 752.391616 211.500206 
L 754.775552 212.080022 
L 757.238953 227.654949 
L 759.622889 196.447123 
L 762.08629 143.623013 
L 764.54969 149.410777 
L 766.933626 196.411379 
L 769.397027 171.410456 
L 771.780963 189.255324 
L 774.244364 210.667146 
L 776.707765 222.641078 
L 779.012237 214.558747 
L 783.859573 229.249864 
L 786.322974 217.769072 
L 788.70691 225.944418 
L 791.170311 225.67655 
L 793.633712 234.806633 
L 796.017648 215.541368 
L 798.481049 207.511135 
L 800.864985 222.444973 
L 803.328386 138.312347 
L 805.791787 227.952362 
L 808.016794 231.436334 
L 810.480194 225.895488 
L 812.864131 226.285899 
L 815.327531 223.776539 
L 817.711468 222.70254 
L 820.174868 208.067833 
L 822.638269 211.207452 
L 825.022205 226.139122 
L 827.485606 225.730552 
L 829.869542 230.155874 
L 832.332943 217.70839 
L 834.796344 234.214046 
L 837.021351 231.076739 
L 839.484751 211.1134 
L 841.868688 207.040079 
L 844.332088 214.100629 
L 846.716025 230.542403 
L 849.179425 211.688301 
L 851.642826 216.559794 
L 854.026762 221.58812 
L 856.490163 209.907803 
L 858.874099 227.100028 
L 861.3375 173.792135 
L 861.3375 173.792135 
" clip-path="url(#pc29c8b9cc5)" style="fill: none; stroke-dasharray: 7.4,3.2; stroke-dashoffset: 0; stroke: #56b4e9; stroke-width: 2"/>
   </g>
   <g id="patch_3">
    <path d="M 24.3375 238.70175 
L 24.3375 16.94175 
" style="fill: none; stroke: #000000; stroke-width: 0.8; stroke-linejoin: miter; stroke-linecap: square"/>
   </g>
   <g id="patch_4">
    <path d="M 24.3375 238.70175 
L 861.3375 238.70175 
" style="fill: none; stroke: #000000; stroke-width: 0.8; stroke-linejoin: miter; stroke-linecap: square"/>
   </g>
   <g id="text_14">
    <!-- 6_Portfolios_2x3 - Turnover -->
    <g transform="translate(345.768 10.94175) scale(0.144 -0.144)">
     <defs>
      <path id="DejaVuSans-5f" d="M 3263 -1063 
L 3263 -1509 
L -63 -1509 
L -63 -1063 
L 3263 -1063 
z
" transform="scale(0.015625)"/>
      <path id="DejaVuSans-50" d="M 1259 4147 
L 1259 2394 
L 2053 2394 
Q 2494 2394 2734 2622 
Q 2975 2850 2975 3272 
Q 2975 3691 2734 3919 
Q 2494 4147 2053 4147 
L 1259 4147 
z
M 628 4666 
L 2053 4666 
Q 2838 4666 3239 4311 
Q 3641 3956 3641 3272 
Q 3641 2581 3239 2228 
Q 2838 1875 2053 1875 
L 1259 1875 
L 1259 0 
L 628 0 
L 628 4666 
z
" transform="scale(0.015625)"/>
      <path id="DejaVuSans-6f" d="M 1959 3097 
Q 1497 3097 1228 2736 
Q 959 2375 959 1747 
Q 959 1119 1226 758 
Q 1494 397 1959 397 
Q 2419 397 2687 759 
Q 2956 1122 2956 1747 
Q 2956 2369 2687 2733 
Q 2419 3097 1959 3097 
z
M 1959 3584 
Q 2709 3584 3137 3096 
Q 3566 2609 3566 1747 
Q 3566 888 3137 398 
Q 2709 -91 1959 -91 
Q 1206 -91 779 398 
Q 353 888 353 1747 
Q 353 2609 779 3096 
Q 1206 3584 1959 3584 
z
" transform="scale(0.015625)"/>
      <path id="DejaVuSans-72" d="M 2631 2963 
Q 2534 3019 2420 3045 
Q 2306 3072 2169 3072 
Q 1681 3072 1420 2755 
Q 1159 2438 1159 1844 
L 1159 0 
L 581 0 
L 581 3500 
L 1159 3500 
L 1159 2956 
Q 1341 3275 1631 3429 
Q 1922 3584 2338 3584 
Q 2397 3584 2469 3576 
Q 2541 3569 2628 3553 
L 2631 2963 
z
" transform="scale(0.015625)"/>
      <path id="DejaVuSans-74" d="M 1172 4494 
L 1172 3500 
L 2356 3500 
L 2356 3053 
L 1172 3053 
L 1172 1153 
Q 1172 725 1289 603 
Q 1406 481 1766 481 
L 2356 481 
L 2356 0 
L 1766 0 
Q 1100 0 847 248 
Q 594 497 594 1153 
L 594 3053 
L 172 3053 
L 172 3500 
L 594 3500 
L 594 4494 
L 1172 4494 
z
" transform="scale(0.015625)"/>
      <path id="DejaVuSans-66" d="M 2375 4863 
L 2375 4384 
L 1825 4384 
Q 1516 4384 1395 4259 
Q 1275 4134 1275 3809 
L 1275 3500 
L 2222 3500 
L 2222 3053 
L 1275 3053 
L 1275 0 
L 697 0 
L 697 3053 
L 147 3053 
L 147 3500 
L 697 3500 
L 697 3744 
Q 697 4328 969 4595 
Q 1241 4863 1831 4863 
L 2375 4863 
z
" transform="scale(0.015625)"/>
      <path id="DejaVuSans-6c" d="M 603 4863 
L 1178 4863 
L 1178 0 
L 603 0 
L 603 4863 
z
" transform="scale(0.015625)"/>
      <path id="DejaVuSans-69" d="M 603 3500 
L 1178 3500 
L 1178 0 
L 603 0 
L 603 3500 
z
M 603 4863 
L 1178 4863 
L 1178 4134 
L 603 4134 
L 603 4863 
z
" transform="scale(0.015625)"/>
      <path id="DejaVuSans-73" d="M 2834 3397 
L 2834 2853 
Q 2591 2978 2328 3040 
Q 2066 3103 1784 3103 
Q 1356 3103 1142 2972 
Q 928 2841 928 2578 
Q 928 2378 1081 2264 
Q 1234 2150 1697 2047 
L 1894 2003 
Q 2506 1872 2764 1633 
Q 3022 1394 3022 966 
Q 3022 478 2636 193 
Q 2250 -91 1575 -91 
Q 1294 -91 989 -36 
Q 684 19 347 128 
L 347 722 
Q 666 556 975 473 
Q 1284 391 1588 391 
Q 1994 391 2212 530 
Q 2431 669 2431 922 
Q 2431 1156 2273 1281 
Q 2116 1406 1581 1522 
L 1381 1569 
Q 847 1681 609 1914 
Q 372 2147 372 2553 
Q 372 3047 722 3315 
Q 1072 3584 1716 3584 
Q 2034 3584 2315 3537 
Q 2597 3491 2834 3397 
z
" transform="scale(0.015625)"/>
      <path id="DejaVuSans-78" d="M 3513 3500 
L 2247 1797 
L 3578 0 
L 2900 0 
L 1881 1375 
L 863 0 
L 184 0 
L 1544 1831 
L 300 3500 
L 978 3500 
L 1906 2253 
L 2834 3500 
L 3513 3500 
z
" transform="scale(0.015625)"/>
      <path id="DejaVuSans-20" transform="scale(0.015625)"/>
      <path id="DejaVuSans-2d" d="M 313 2009 
L 1997 2009 
L 1997 1497 
L 313 1497 
L 313 2009 
z
" transform="scale(0.015625)"/>
      <path id="DejaVuSans-54" d="M -19 4666 
L 3928 4666 
L 3928 4134 
L 2272 4134 
L 2272 0 
L 1638 0 
L 1638 4134 
L -19 4134 
L -19 4666 
z
" transform="scale(0.015625)"/>
      <path id="DejaVuSans-75" d="M 544 1381 
L 544 3500 
L 1119 3500 
L 1119 1403 
Q 1119 906 1312 657 
Q 1506 409 1894 409 
Q 2359 409 2629 706 
Q 2900 1003 2900 1516 
L 2900 3500 
L 3475 3500 
L 3475 0 
L 2900 0 
L 2900 538 
Q 2691 219 2414 64 
Q 2138 -91 1772 -91 
Q 1169 -91 856 284 
Q 544 659 544 1381 
z
M 1991 3584 
L 1991 3584 
z
" transform="scale(0.015625)"/>
      <path id="DejaVuSans-6e" d="M 3513 2113 
L 3513 0 
L 2938 0 
L 2938 2094 
Q 2938 2591 2744 2837 
Q 2550 3084 2163 3084 
Q 1697 3084 1428 2787 
Q 1159 2491 1159 1978 
L 1159 0 
L 581 0 
L 581 3500 
L 1159 3500 
L 1159 2956 
Q 1366 3272 1645 3428 
Q 1925 3584 2291 3584 
Q 2894 3584 3203 3211 
Q 3513 2838 3513 2113 
z
" transform="scale(0.015625)"/>
      <path id="DejaVuSans-76" d="M 191 3500 
L 800 3500 
L 1894 563 
L 2988 3500 
L 3597 3500 
L 2284 0 
L 1503 0 
L 191 3500 
z
" transform="scale(0.015625)"/>
      <path id="DejaVuSans-65" d="M 3597 1894 
L 3597 1613 
L 953 1613 
Q 991 1019 1311 708 
Q 1631 397 2203 397 
Q 2534 397 2845 478 
Q 3156 559 3463 722 
L 3463 178 
Q 3153 47 2828 -22 
Q 2503 -91 2169 -91 
Q 1331 -91 842 396 
Q 353 884 353 1716 
Q 353 2575 817 3079 
Q 1281 3584 2069 3584 
Q 2775 3584 3186 3129 
Q 3597 2675 3597 1894 
z
M 3022 2063 
Q 3016 2534 2758 2815 
Q 2500 3097 2075 3097 
Q 1594 3097 1305 2825 
Q 1016 2553 972 2059 
L 3022 2063 
z
" transform="scale(0.015625)"/>
     </defs>
     <use xlink:href="#DejaVuSans-36"/>
     <use xlink:href="#DejaVuSans-5f" x="63.623047"/>
     <use xlink:href="#DejaVuSans-50" x="113.623047"/>
     <use xlink:href="#DejaVuSans-6f" x="170.300781"/>
     <use xlink:href="#DejaVuSans-72" x="231.482422"/>
     <use xlink:href="#DejaVuSans-74" x="272.595703"/>
     <use xlink:href="#DejaVuSans-66" x="311.804688"/>
     <use xlink:href="#DejaVuSans-6f" x="347.009766"/>
     <use xlink:href="#DejaVuSans-6c" x="408.191406"/>
     <use xlink:href="#DejaVuSans-69" x="435.974609"/>
     <use xlink:href="#DejaVuSans-6f" x="463.757812"/>
     <use xlink:href="#DejaVuSans-73" x="524.939453"/>
     <use xlink:href="#DejaVuSans-5f" x="577.039062"/>
     <use xlink:href="#DejaVuSans-32" x="627.039062"/>
     <use xlink:href="#DejaVuSans-78" x="690.662109"/>
     <use xlink:href="#DejaVuSans-33" x="749.841797"/>
     <use xlink:href="#DejaVuSans-20" x="813.464844"/>
     <use xlink:href="#DejaVuSans-2d" x="845.251953"/>
     <use xlink:href="#DejaVuSans-20" x="881.335938"/>
     <use xlink:href="#DejaVuSans-54" x="913.123047"/>
     <use xlink:href="#DejaVuSans-75" x="959.082031"/>
     <use xlink:href="#DejaVuSans-72" x="1022.460938"/>
     <use xlink:href="#DejaVuSans-6e" x="1061.824219"/>
     <use xlink:href="#DejaVuSans-6f" x="1125.203125"/>
     <use xlink:href="#DejaVuSans-76" x="1186.384766"/>
     <use xlink:href="#DejaVuSans-65" x="1245.564453"/>
     <use xlink:href="#DejaVuSans-72" x="1307.087891"/>
    </g>
   </g>
   <g id="legend_1">
    <g id="line2d_22">
     <path d="M 795.090625 30.040188 
L 805.090625 30.040188 
L 815.090625 30.040188 
" style="fill: none; stroke: #e69f00; stroke-width: 2; stroke-linecap: square"/>
    </g>
    <g id="text_15">
     <!-- 1/N -->
     <g transform="translate(823.090625 33.540188) scale(0.1 -0.1)">
      <defs>
       <path id="DejaVuSans-2f" d="M 1625 4666 
L 2156 4666 
L 531 -594 
L 0 -594 
L 1625 4666 
z
" transform="scale(0.015625)"/>
       <path id="DejaVuSans-4e" d="M 628 4666 
L 1478 4666 
L 3547 763 
L 3547 4666 
L 4159 4666 
L 4159 0 
L 3309 0 
L 1241 3903 
L 1241 0 
L 628 0 
L 628 4666 
z
" transform="scale(0.015625)"/>
      </defs>
      <use xlink:href="#DejaVuSans-31"/>
      <use xlink:href="#DejaVuSans-2f" x="63.623047"/>
      <use xlink:href="#DejaVuSans-4e" x="97.314453"/>
     </g>
    </g>
    <g id="line2d_23">
     <path d="M 795.090625 44.718313 
L 805.090625 44.718313 
L 815.090625 44.718313 
" style="fill: none; stroke-dasharray: 7.4,3.2; stroke-dashoffset: 0; stroke: #56b4e9; stroke-width: 2"/>
    </g>
    <g id="text_16">
     <!-- GMVP -->
     <g transform="translate(823.090625 48.218313) scale(0.1 -0.1)">
      <defs>
       <path id="DejaVuSans-47" d="M 3809 666 
L 3809 1919 
L 2778 1919 
L 2778 2438 
L 4434 2438 
L 4434 434 
Q 4069 175 3628 42 
Q 3188 -91 2688 -91 
Q 1594 -91 976 548 
Q 359 1188 359 2328 
Q 359 3472 976 4111 
Q 1594 4750 2688 4750 
Q 3144 4750 3555 4637 
Q 3966 4525 4313 4306 
L 4313 3634 
Q 3963 3931 3569 4081 
Q 3175 4231 2741 4231 
Q 1884 4231 1454 3753 
Q 1025 3275 1025 2328 
Q 1025 1384 1454 906 
Q 1884 428 2741 428 
Q 3075 428 3337 486 
Q 3600 544 3809 666 
z
" transform="scale(0.015625)"/>
       <path id="DejaVuSans-4d" d="M 628 4666 
L 1569 4666 
L 2759 1491 
L 3956 4666 
L 4897 4666 
L 4897 0 
L 4281 0 
L 4281 4097 
L 3078 897 
L 2444 897 
L 1241 4097 
L 1241 0 
L 628 0 
L 628 4666 
z
" transform="scale(0.015625)"/>
       <path id="DejaVuSans-56" d="M 1831 0 
L 50 4666 
L 709 4666 
L 2188 738 
L 3669 4666 
L 4325 4666 
L 2547 0 
L 1831 0 
z
" transform="scale(0.015625)"/>
      </defs>
      <use xlink:href="#DejaVuSans-47"/>
      <use xlink:href="#DejaVuSans-4d" x="77.490234"/>
      <use xlink:href="#DejaVuSans-56" x="163.769531"/>
      <use xlink:href="#DejaVuSans-50" x="232.177734"/>
     </g>
    </g>
   </g>
  </g>
 </g>
 <defs>
  <clipPath id="pc29c8b9cc5">
   <rect x="24.3375" y="16.94175" width="837" height="221.76"/>
  </clipPath>
 </defs>
</svg>
